M48
; DRILL file {KiCad (5.1.5)-3} date 01/01/2021 14:24:21
; FORMAT={-:-/ absolute / inch / decimal}
; #@! TF.CreationDate,2021-01-01T14:24:21+00:00
; #@! TF.GenerationSoftware,Kicad,Pcbnew,(5.1.5)-3
FMAT,2
INCH
T1C0.0315
T2C0.0354
T3C0.0374
%
G90
G05
T1
X1.25Y-1.1
X1.3484Y-1.1
X2.0Y-1.1
X2.2Y-1.1
X1.9Y-0.65
X1.9Y-0.95
X2.0Y-0.65
X2.0Y-0.95
X2.1Y-0.65
X2.1Y-0.95
X2.2Y-0.65
X2.2Y-0.95
X0.7Y-1.0
X0.7Y-1.0984
X1.1Y-0.7
X1.1Y-0.9
X1.3Y-0.65
X1.3Y-0.95
X1.4Y-0.65
X1.4Y-0.95
X1.5Y-0.65
X1.5Y-0.95
X1.6Y-0.65
X1.6Y-0.95
X1.55Y-1.1
X1.75Y-1.1
X0.9Y-1.1
X1.1Y-1.1
T2
X0.9Y-0.65
X0.9Y-0.95
T3
X2.55Y-0.7031
X2.55Y-0.8016
X2.55Y-0.9
T0
M30
