G04 #@! TF.GenerationSoftware,KiCad,Pcbnew,(5.1.5)-3*
G04 #@! TF.CreationDate,2020-12-31T17:18:18+00:00*
G04 #@! TF.ProjectId,KiCadSoil3,4b694361-6453-46f6-996c-332e6b696361,1.0*
G04 #@! TF.SameCoordinates,Original*
G04 #@! TF.FileFunction,Copper,L1,Top*
G04 #@! TF.FilePolarity,Positive*
%FSLAX46Y46*%
G04 Gerber Fmt 4.6, Leading zero omitted, Abs format (unit mm)*
G04 Created by KiCad (PCBNEW (5.1.5)-3) date 2020-12-31 17:18:18*
%MOMM*%
%LPD*%
G04 APERTURE LIST*
%ADD10R,2.200000X1.050000*%
%ADD11R,1.050000X1.000000*%
%ADD12C,0.100000*%
%ADD13O,1.800000X1.800000*%
%ADD14R,1.800000X1.800000*%
%ADD15O,1.600000X1.600000*%
%ADD16R,1.600000X1.600000*%
%ADD17C,1.600000*%
%ADD18O,1.950000X1.700000*%
%ADD19C,0.250000*%
%ADD20C,0.254000*%
G04 APERTURE END LIST*
D10*
X17305000Y-20525000D03*
D11*
X18830000Y-19050000D03*
D10*
X17305000Y-17575000D03*
G04 #@! TA.AperFunction,SMDPad,CuDef*
D12*
G36*
X63838626Y-25590301D02*
G01*
X63844693Y-25591201D01*
X63850643Y-25592691D01*
X63856418Y-25594758D01*
X63861962Y-25597380D01*
X63867223Y-25600533D01*
X63872150Y-25604187D01*
X63876694Y-25608306D01*
X63880813Y-25612850D01*
X63884467Y-25617777D01*
X63887620Y-25623038D01*
X63890242Y-25628582D01*
X63892309Y-25634357D01*
X63893799Y-25640307D01*
X63894699Y-25646374D01*
X63895000Y-25652500D01*
X63895000Y-26377500D01*
X63894699Y-26383626D01*
X63893799Y-26389693D01*
X63892309Y-26395643D01*
X63890242Y-26401418D01*
X63887620Y-26406962D01*
X63884467Y-26412223D01*
X63880813Y-26417150D01*
X63876694Y-26421694D01*
X63872150Y-26425813D01*
X63867223Y-26429467D01*
X63861962Y-26432620D01*
X63856418Y-26435242D01*
X63850643Y-26437309D01*
X63844693Y-26438799D01*
X63838626Y-26439699D01*
X63832500Y-26440000D01*
X63707500Y-26440000D01*
X63701374Y-26439699D01*
X63695307Y-26438799D01*
X63689357Y-26437309D01*
X63683582Y-26435242D01*
X63678038Y-26432620D01*
X63672777Y-26429467D01*
X63667850Y-26425813D01*
X63663306Y-26421694D01*
X63659187Y-26417150D01*
X63655533Y-26412223D01*
X63652380Y-26406962D01*
X63649758Y-26401418D01*
X63647691Y-26395643D01*
X63646201Y-26389693D01*
X63645301Y-26383626D01*
X63645000Y-26377500D01*
X63645000Y-25652500D01*
X63645301Y-25646374D01*
X63646201Y-25640307D01*
X63647691Y-25634357D01*
X63649758Y-25628582D01*
X63652380Y-25623038D01*
X63655533Y-25617777D01*
X63659187Y-25612850D01*
X63663306Y-25608306D01*
X63667850Y-25604187D01*
X63672777Y-25600533D01*
X63678038Y-25597380D01*
X63683582Y-25594758D01*
X63689357Y-25592691D01*
X63695307Y-25591201D01*
X63701374Y-25590301D01*
X63707500Y-25590000D01*
X63832500Y-25590000D01*
X63838626Y-25590301D01*
G37*
G04 #@! TD.AperFunction*
G04 #@! TA.AperFunction,SMDPad,CuDef*
G36*
X64338626Y-25590301D02*
G01*
X64344693Y-25591201D01*
X64350643Y-25592691D01*
X64356418Y-25594758D01*
X64361962Y-25597380D01*
X64367223Y-25600533D01*
X64372150Y-25604187D01*
X64376694Y-25608306D01*
X64380813Y-25612850D01*
X64384467Y-25617777D01*
X64387620Y-25623038D01*
X64390242Y-25628582D01*
X64392309Y-25634357D01*
X64393799Y-25640307D01*
X64394699Y-25646374D01*
X64395000Y-25652500D01*
X64395000Y-26377500D01*
X64394699Y-26383626D01*
X64393799Y-26389693D01*
X64392309Y-26395643D01*
X64390242Y-26401418D01*
X64387620Y-26406962D01*
X64384467Y-26412223D01*
X64380813Y-26417150D01*
X64376694Y-26421694D01*
X64372150Y-26425813D01*
X64367223Y-26429467D01*
X64361962Y-26432620D01*
X64356418Y-26435242D01*
X64350643Y-26437309D01*
X64344693Y-26438799D01*
X64338626Y-26439699D01*
X64332500Y-26440000D01*
X64207500Y-26440000D01*
X64201374Y-26439699D01*
X64195307Y-26438799D01*
X64189357Y-26437309D01*
X64183582Y-26435242D01*
X64178038Y-26432620D01*
X64172777Y-26429467D01*
X64167850Y-26425813D01*
X64163306Y-26421694D01*
X64159187Y-26417150D01*
X64155533Y-26412223D01*
X64152380Y-26406962D01*
X64149758Y-26401418D01*
X64147691Y-26395643D01*
X64146201Y-26389693D01*
X64145301Y-26383626D01*
X64145000Y-26377500D01*
X64145000Y-25652500D01*
X64145301Y-25646374D01*
X64146201Y-25640307D01*
X64147691Y-25634357D01*
X64149758Y-25628582D01*
X64152380Y-25623038D01*
X64155533Y-25617777D01*
X64159187Y-25612850D01*
X64163306Y-25608306D01*
X64167850Y-25604187D01*
X64172777Y-25600533D01*
X64178038Y-25597380D01*
X64183582Y-25594758D01*
X64189357Y-25592691D01*
X64195307Y-25591201D01*
X64201374Y-25590301D01*
X64207500Y-25590000D01*
X64332500Y-25590000D01*
X64338626Y-25590301D01*
G37*
G04 #@! TD.AperFunction*
G04 #@! TA.AperFunction,SMDPad,CuDef*
G36*
X64838626Y-25590301D02*
G01*
X64844693Y-25591201D01*
X64850643Y-25592691D01*
X64856418Y-25594758D01*
X64861962Y-25597380D01*
X64867223Y-25600533D01*
X64872150Y-25604187D01*
X64876694Y-25608306D01*
X64880813Y-25612850D01*
X64884467Y-25617777D01*
X64887620Y-25623038D01*
X64890242Y-25628582D01*
X64892309Y-25634357D01*
X64893799Y-25640307D01*
X64894699Y-25646374D01*
X64895000Y-25652500D01*
X64895000Y-26377500D01*
X64894699Y-26383626D01*
X64893799Y-26389693D01*
X64892309Y-26395643D01*
X64890242Y-26401418D01*
X64887620Y-26406962D01*
X64884467Y-26412223D01*
X64880813Y-26417150D01*
X64876694Y-26421694D01*
X64872150Y-26425813D01*
X64867223Y-26429467D01*
X64861962Y-26432620D01*
X64856418Y-26435242D01*
X64850643Y-26437309D01*
X64844693Y-26438799D01*
X64838626Y-26439699D01*
X64832500Y-26440000D01*
X64707500Y-26440000D01*
X64701374Y-26439699D01*
X64695307Y-26438799D01*
X64689357Y-26437309D01*
X64683582Y-26435242D01*
X64678038Y-26432620D01*
X64672777Y-26429467D01*
X64667850Y-26425813D01*
X64663306Y-26421694D01*
X64659187Y-26417150D01*
X64655533Y-26412223D01*
X64652380Y-26406962D01*
X64649758Y-26401418D01*
X64647691Y-26395643D01*
X64646201Y-26389693D01*
X64645301Y-26383626D01*
X64645000Y-26377500D01*
X64645000Y-25652500D01*
X64645301Y-25646374D01*
X64646201Y-25640307D01*
X64647691Y-25634357D01*
X64649758Y-25628582D01*
X64652380Y-25623038D01*
X64655533Y-25617777D01*
X64659187Y-25612850D01*
X64663306Y-25608306D01*
X64667850Y-25604187D01*
X64672777Y-25600533D01*
X64678038Y-25597380D01*
X64683582Y-25594758D01*
X64689357Y-25592691D01*
X64695307Y-25591201D01*
X64701374Y-25590301D01*
X64707500Y-25590000D01*
X64832500Y-25590000D01*
X64838626Y-25590301D01*
G37*
G04 #@! TD.AperFunction*
G04 #@! TA.AperFunction,SMDPad,CuDef*
G36*
X65338626Y-25590301D02*
G01*
X65344693Y-25591201D01*
X65350643Y-25592691D01*
X65356418Y-25594758D01*
X65361962Y-25597380D01*
X65367223Y-25600533D01*
X65372150Y-25604187D01*
X65376694Y-25608306D01*
X65380813Y-25612850D01*
X65384467Y-25617777D01*
X65387620Y-25623038D01*
X65390242Y-25628582D01*
X65392309Y-25634357D01*
X65393799Y-25640307D01*
X65394699Y-25646374D01*
X65395000Y-25652500D01*
X65395000Y-26377500D01*
X65394699Y-26383626D01*
X65393799Y-26389693D01*
X65392309Y-26395643D01*
X65390242Y-26401418D01*
X65387620Y-26406962D01*
X65384467Y-26412223D01*
X65380813Y-26417150D01*
X65376694Y-26421694D01*
X65372150Y-26425813D01*
X65367223Y-26429467D01*
X65361962Y-26432620D01*
X65356418Y-26435242D01*
X65350643Y-26437309D01*
X65344693Y-26438799D01*
X65338626Y-26439699D01*
X65332500Y-26440000D01*
X65207500Y-26440000D01*
X65201374Y-26439699D01*
X65195307Y-26438799D01*
X65189357Y-26437309D01*
X65183582Y-26435242D01*
X65178038Y-26432620D01*
X65172777Y-26429467D01*
X65167850Y-26425813D01*
X65163306Y-26421694D01*
X65159187Y-26417150D01*
X65155533Y-26412223D01*
X65152380Y-26406962D01*
X65149758Y-26401418D01*
X65147691Y-26395643D01*
X65146201Y-26389693D01*
X65145301Y-26383626D01*
X65145000Y-26377500D01*
X65145000Y-25652500D01*
X65145301Y-25646374D01*
X65146201Y-25640307D01*
X65147691Y-25634357D01*
X65149758Y-25628582D01*
X65152380Y-25623038D01*
X65155533Y-25617777D01*
X65159187Y-25612850D01*
X65163306Y-25608306D01*
X65167850Y-25604187D01*
X65172777Y-25600533D01*
X65178038Y-25597380D01*
X65183582Y-25594758D01*
X65189357Y-25592691D01*
X65195307Y-25591201D01*
X65201374Y-25590301D01*
X65207500Y-25590000D01*
X65332500Y-25590000D01*
X65338626Y-25590301D01*
G37*
G04 #@! TD.AperFunction*
G04 #@! TA.AperFunction,SMDPad,CuDef*
G36*
X65838626Y-25590301D02*
G01*
X65844693Y-25591201D01*
X65850643Y-25592691D01*
X65856418Y-25594758D01*
X65861962Y-25597380D01*
X65867223Y-25600533D01*
X65872150Y-25604187D01*
X65876694Y-25608306D01*
X65880813Y-25612850D01*
X65884467Y-25617777D01*
X65887620Y-25623038D01*
X65890242Y-25628582D01*
X65892309Y-25634357D01*
X65893799Y-25640307D01*
X65894699Y-25646374D01*
X65895000Y-25652500D01*
X65895000Y-26377500D01*
X65894699Y-26383626D01*
X65893799Y-26389693D01*
X65892309Y-26395643D01*
X65890242Y-26401418D01*
X65887620Y-26406962D01*
X65884467Y-26412223D01*
X65880813Y-26417150D01*
X65876694Y-26421694D01*
X65872150Y-26425813D01*
X65867223Y-26429467D01*
X65861962Y-26432620D01*
X65856418Y-26435242D01*
X65850643Y-26437309D01*
X65844693Y-26438799D01*
X65838626Y-26439699D01*
X65832500Y-26440000D01*
X65707500Y-26440000D01*
X65701374Y-26439699D01*
X65695307Y-26438799D01*
X65689357Y-26437309D01*
X65683582Y-26435242D01*
X65678038Y-26432620D01*
X65672777Y-26429467D01*
X65667850Y-26425813D01*
X65663306Y-26421694D01*
X65659187Y-26417150D01*
X65655533Y-26412223D01*
X65652380Y-26406962D01*
X65649758Y-26401418D01*
X65647691Y-26395643D01*
X65646201Y-26389693D01*
X65645301Y-26383626D01*
X65645000Y-26377500D01*
X65645000Y-25652500D01*
X65645301Y-25646374D01*
X65646201Y-25640307D01*
X65647691Y-25634357D01*
X65649758Y-25628582D01*
X65652380Y-25623038D01*
X65655533Y-25617777D01*
X65659187Y-25612850D01*
X65663306Y-25608306D01*
X65667850Y-25604187D01*
X65672777Y-25600533D01*
X65678038Y-25597380D01*
X65683582Y-25594758D01*
X65689357Y-25592691D01*
X65695307Y-25591201D01*
X65701374Y-25590301D01*
X65707500Y-25590000D01*
X65832500Y-25590000D01*
X65838626Y-25590301D01*
G37*
G04 #@! TD.AperFunction*
G04 #@! TA.AperFunction,SMDPad,CuDef*
G36*
X67063626Y-26815301D02*
G01*
X67069693Y-26816201D01*
X67075643Y-26817691D01*
X67081418Y-26819758D01*
X67086962Y-26822380D01*
X67092223Y-26825533D01*
X67097150Y-26829187D01*
X67101694Y-26833306D01*
X67105813Y-26837850D01*
X67109467Y-26842777D01*
X67112620Y-26848038D01*
X67115242Y-26853582D01*
X67117309Y-26859357D01*
X67118799Y-26865307D01*
X67119699Y-26871374D01*
X67120000Y-26877500D01*
X67120000Y-27002500D01*
X67119699Y-27008626D01*
X67118799Y-27014693D01*
X67117309Y-27020643D01*
X67115242Y-27026418D01*
X67112620Y-27031962D01*
X67109467Y-27037223D01*
X67105813Y-27042150D01*
X67101694Y-27046694D01*
X67097150Y-27050813D01*
X67092223Y-27054467D01*
X67086962Y-27057620D01*
X67081418Y-27060242D01*
X67075643Y-27062309D01*
X67069693Y-27063799D01*
X67063626Y-27064699D01*
X67057500Y-27065000D01*
X66332500Y-27065000D01*
X66326374Y-27064699D01*
X66320307Y-27063799D01*
X66314357Y-27062309D01*
X66308582Y-27060242D01*
X66303038Y-27057620D01*
X66297777Y-27054467D01*
X66292850Y-27050813D01*
X66288306Y-27046694D01*
X66284187Y-27042150D01*
X66280533Y-27037223D01*
X66277380Y-27031962D01*
X66274758Y-27026418D01*
X66272691Y-27020643D01*
X66271201Y-27014693D01*
X66270301Y-27008626D01*
X66270000Y-27002500D01*
X66270000Y-26877500D01*
X66270301Y-26871374D01*
X66271201Y-26865307D01*
X66272691Y-26859357D01*
X66274758Y-26853582D01*
X66277380Y-26848038D01*
X66280533Y-26842777D01*
X66284187Y-26837850D01*
X66288306Y-26833306D01*
X66292850Y-26829187D01*
X66297777Y-26825533D01*
X66303038Y-26822380D01*
X66308582Y-26819758D01*
X66314357Y-26817691D01*
X66320307Y-26816201D01*
X66326374Y-26815301D01*
X66332500Y-26815000D01*
X67057500Y-26815000D01*
X67063626Y-26815301D01*
G37*
G04 #@! TD.AperFunction*
G04 #@! TA.AperFunction,SMDPad,CuDef*
G36*
X67063626Y-27315301D02*
G01*
X67069693Y-27316201D01*
X67075643Y-27317691D01*
X67081418Y-27319758D01*
X67086962Y-27322380D01*
X67092223Y-27325533D01*
X67097150Y-27329187D01*
X67101694Y-27333306D01*
X67105813Y-27337850D01*
X67109467Y-27342777D01*
X67112620Y-27348038D01*
X67115242Y-27353582D01*
X67117309Y-27359357D01*
X67118799Y-27365307D01*
X67119699Y-27371374D01*
X67120000Y-27377500D01*
X67120000Y-27502500D01*
X67119699Y-27508626D01*
X67118799Y-27514693D01*
X67117309Y-27520643D01*
X67115242Y-27526418D01*
X67112620Y-27531962D01*
X67109467Y-27537223D01*
X67105813Y-27542150D01*
X67101694Y-27546694D01*
X67097150Y-27550813D01*
X67092223Y-27554467D01*
X67086962Y-27557620D01*
X67081418Y-27560242D01*
X67075643Y-27562309D01*
X67069693Y-27563799D01*
X67063626Y-27564699D01*
X67057500Y-27565000D01*
X66332500Y-27565000D01*
X66326374Y-27564699D01*
X66320307Y-27563799D01*
X66314357Y-27562309D01*
X66308582Y-27560242D01*
X66303038Y-27557620D01*
X66297777Y-27554467D01*
X66292850Y-27550813D01*
X66288306Y-27546694D01*
X66284187Y-27542150D01*
X66280533Y-27537223D01*
X66277380Y-27531962D01*
X66274758Y-27526418D01*
X66272691Y-27520643D01*
X66271201Y-27514693D01*
X66270301Y-27508626D01*
X66270000Y-27502500D01*
X66270000Y-27377500D01*
X66270301Y-27371374D01*
X66271201Y-27365307D01*
X66272691Y-27359357D01*
X66274758Y-27353582D01*
X66277380Y-27348038D01*
X66280533Y-27342777D01*
X66284187Y-27337850D01*
X66288306Y-27333306D01*
X66292850Y-27329187D01*
X66297777Y-27325533D01*
X66303038Y-27322380D01*
X66308582Y-27319758D01*
X66314357Y-27317691D01*
X66320307Y-27316201D01*
X66326374Y-27315301D01*
X66332500Y-27315000D01*
X67057500Y-27315000D01*
X67063626Y-27315301D01*
G37*
G04 #@! TD.AperFunction*
G04 #@! TA.AperFunction,SMDPad,CuDef*
G36*
X67063626Y-27815301D02*
G01*
X67069693Y-27816201D01*
X67075643Y-27817691D01*
X67081418Y-27819758D01*
X67086962Y-27822380D01*
X67092223Y-27825533D01*
X67097150Y-27829187D01*
X67101694Y-27833306D01*
X67105813Y-27837850D01*
X67109467Y-27842777D01*
X67112620Y-27848038D01*
X67115242Y-27853582D01*
X67117309Y-27859357D01*
X67118799Y-27865307D01*
X67119699Y-27871374D01*
X67120000Y-27877500D01*
X67120000Y-28002500D01*
X67119699Y-28008626D01*
X67118799Y-28014693D01*
X67117309Y-28020643D01*
X67115242Y-28026418D01*
X67112620Y-28031962D01*
X67109467Y-28037223D01*
X67105813Y-28042150D01*
X67101694Y-28046694D01*
X67097150Y-28050813D01*
X67092223Y-28054467D01*
X67086962Y-28057620D01*
X67081418Y-28060242D01*
X67075643Y-28062309D01*
X67069693Y-28063799D01*
X67063626Y-28064699D01*
X67057500Y-28065000D01*
X66332500Y-28065000D01*
X66326374Y-28064699D01*
X66320307Y-28063799D01*
X66314357Y-28062309D01*
X66308582Y-28060242D01*
X66303038Y-28057620D01*
X66297777Y-28054467D01*
X66292850Y-28050813D01*
X66288306Y-28046694D01*
X66284187Y-28042150D01*
X66280533Y-28037223D01*
X66277380Y-28031962D01*
X66274758Y-28026418D01*
X66272691Y-28020643D01*
X66271201Y-28014693D01*
X66270301Y-28008626D01*
X66270000Y-28002500D01*
X66270000Y-27877500D01*
X66270301Y-27871374D01*
X66271201Y-27865307D01*
X66272691Y-27859357D01*
X66274758Y-27853582D01*
X66277380Y-27848038D01*
X66280533Y-27842777D01*
X66284187Y-27837850D01*
X66288306Y-27833306D01*
X66292850Y-27829187D01*
X66297777Y-27825533D01*
X66303038Y-27822380D01*
X66308582Y-27819758D01*
X66314357Y-27817691D01*
X66320307Y-27816201D01*
X66326374Y-27815301D01*
X66332500Y-27815000D01*
X67057500Y-27815000D01*
X67063626Y-27815301D01*
G37*
G04 #@! TD.AperFunction*
G04 #@! TA.AperFunction,SMDPad,CuDef*
G36*
X67063626Y-28315301D02*
G01*
X67069693Y-28316201D01*
X67075643Y-28317691D01*
X67081418Y-28319758D01*
X67086962Y-28322380D01*
X67092223Y-28325533D01*
X67097150Y-28329187D01*
X67101694Y-28333306D01*
X67105813Y-28337850D01*
X67109467Y-28342777D01*
X67112620Y-28348038D01*
X67115242Y-28353582D01*
X67117309Y-28359357D01*
X67118799Y-28365307D01*
X67119699Y-28371374D01*
X67120000Y-28377500D01*
X67120000Y-28502500D01*
X67119699Y-28508626D01*
X67118799Y-28514693D01*
X67117309Y-28520643D01*
X67115242Y-28526418D01*
X67112620Y-28531962D01*
X67109467Y-28537223D01*
X67105813Y-28542150D01*
X67101694Y-28546694D01*
X67097150Y-28550813D01*
X67092223Y-28554467D01*
X67086962Y-28557620D01*
X67081418Y-28560242D01*
X67075643Y-28562309D01*
X67069693Y-28563799D01*
X67063626Y-28564699D01*
X67057500Y-28565000D01*
X66332500Y-28565000D01*
X66326374Y-28564699D01*
X66320307Y-28563799D01*
X66314357Y-28562309D01*
X66308582Y-28560242D01*
X66303038Y-28557620D01*
X66297777Y-28554467D01*
X66292850Y-28550813D01*
X66288306Y-28546694D01*
X66284187Y-28542150D01*
X66280533Y-28537223D01*
X66277380Y-28531962D01*
X66274758Y-28526418D01*
X66272691Y-28520643D01*
X66271201Y-28514693D01*
X66270301Y-28508626D01*
X66270000Y-28502500D01*
X66270000Y-28377500D01*
X66270301Y-28371374D01*
X66271201Y-28365307D01*
X66272691Y-28359357D01*
X66274758Y-28353582D01*
X66277380Y-28348038D01*
X66280533Y-28342777D01*
X66284187Y-28337850D01*
X66288306Y-28333306D01*
X66292850Y-28329187D01*
X66297777Y-28325533D01*
X66303038Y-28322380D01*
X66308582Y-28319758D01*
X66314357Y-28317691D01*
X66320307Y-28316201D01*
X66326374Y-28315301D01*
X66332500Y-28315000D01*
X67057500Y-28315000D01*
X67063626Y-28315301D01*
G37*
G04 #@! TD.AperFunction*
G04 #@! TA.AperFunction,SMDPad,CuDef*
G36*
X67063626Y-28815301D02*
G01*
X67069693Y-28816201D01*
X67075643Y-28817691D01*
X67081418Y-28819758D01*
X67086962Y-28822380D01*
X67092223Y-28825533D01*
X67097150Y-28829187D01*
X67101694Y-28833306D01*
X67105813Y-28837850D01*
X67109467Y-28842777D01*
X67112620Y-28848038D01*
X67115242Y-28853582D01*
X67117309Y-28859357D01*
X67118799Y-28865307D01*
X67119699Y-28871374D01*
X67120000Y-28877500D01*
X67120000Y-29002500D01*
X67119699Y-29008626D01*
X67118799Y-29014693D01*
X67117309Y-29020643D01*
X67115242Y-29026418D01*
X67112620Y-29031962D01*
X67109467Y-29037223D01*
X67105813Y-29042150D01*
X67101694Y-29046694D01*
X67097150Y-29050813D01*
X67092223Y-29054467D01*
X67086962Y-29057620D01*
X67081418Y-29060242D01*
X67075643Y-29062309D01*
X67069693Y-29063799D01*
X67063626Y-29064699D01*
X67057500Y-29065000D01*
X66332500Y-29065000D01*
X66326374Y-29064699D01*
X66320307Y-29063799D01*
X66314357Y-29062309D01*
X66308582Y-29060242D01*
X66303038Y-29057620D01*
X66297777Y-29054467D01*
X66292850Y-29050813D01*
X66288306Y-29046694D01*
X66284187Y-29042150D01*
X66280533Y-29037223D01*
X66277380Y-29031962D01*
X66274758Y-29026418D01*
X66272691Y-29020643D01*
X66271201Y-29014693D01*
X66270301Y-29008626D01*
X66270000Y-29002500D01*
X66270000Y-28877500D01*
X66270301Y-28871374D01*
X66271201Y-28865307D01*
X66272691Y-28859357D01*
X66274758Y-28853582D01*
X66277380Y-28848038D01*
X66280533Y-28842777D01*
X66284187Y-28837850D01*
X66288306Y-28833306D01*
X66292850Y-28829187D01*
X66297777Y-28825533D01*
X66303038Y-28822380D01*
X66308582Y-28819758D01*
X66314357Y-28817691D01*
X66320307Y-28816201D01*
X66326374Y-28815301D01*
X66332500Y-28815000D01*
X67057500Y-28815000D01*
X67063626Y-28815301D01*
G37*
G04 #@! TD.AperFunction*
G04 #@! TA.AperFunction,SMDPad,CuDef*
G36*
X65838626Y-29440301D02*
G01*
X65844693Y-29441201D01*
X65850643Y-29442691D01*
X65856418Y-29444758D01*
X65861962Y-29447380D01*
X65867223Y-29450533D01*
X65872150Y-29454187D01*
X65876694Y-29458306D01*
X65880813Y-29462850D01*
X65884467Y-29467777D01*
X65887620Y-29473038D01*
X65890242Y-29478582D01*
X65892309Y-29484357D01*
X65893799Y-29490307D01*
X65894699Y-29496374D01*
X65895000Y-29502500D01*
X65895000Y-30227500D01*
X65894699Y-30233626D01*
X65893799Y-30239693D01*
X65892309Y-30245643D01*
X65890242Y-30251418D01*
X65887620Y-30256962D01*
X65884467Y-30262223D01*
X65880813Y-30267150D01*
X65876694Y-30271694D01*
X65872150Y-30275813D01*
X65867223Y-30279467D01*
X65861962Y-30282620D01*
X65856418Y-30285242D01*
X65850643Y-30287309D01*
X65844693Y-30288799D01*
X65838626Y-30289699D01*
X65832500Y-30290000D01*
X65707500Y-30290000D01*
X65701374Y-30289699D01*
X65695307Y-30288799D01*
X65689357Y-30287309D01*
X65683582Y-30285242D01*
X65678038Y-30282620D01*
X65672777Y-30279467D01*
X65667850Y-30275813D01*
X65663306Y-30271694D01*
X65659187Y-30267150D01*
X65655533Y-30262223D01*
X65652380Y-30256962D01*
X65649758Y-30251418D01*
X65647691Y-30245643D01*
X65646201Y-30239693D01*
X65645301Y-30233626D01*
X65645000Y-30227500D01*
X65645000Y-29502500D01*
X65645301Y-29496374D01*
X65646201Y-29490307D01*
X65647691Y-29484357D01*
X65649758Y-29478582D01*
X65652380Y-29473038D01*
X65655533Y-29467777D01*
X65659187Y-29462850D01*
X65663306Y-29458306D01*
X65667850Y-29454187D01*
X65672777Y-29450533D01*
X65678038Y-29447380D01*
X65683582Y-29444758D01*
X65689357Y-29442691D01*
X65695307Y-29441201D01*
X65701374Y-29440301D01*
X65707500Y-29440000D01*
X65832500Y-29440000D01*
X65838626Y-29440301D01*
G37*
G04 #@! TD.AperFunction*
G04 #@! TA.AperFunction,SMDPad,CuDef*
G36*
X65338626Y-29440301D02*
G01*
X65344693Y-29441201D01*
X65350643Y-29442691D01*
X65356418Y-29444758D01*
X65361962Y-29447380D01*
X65367223Y-29450533D01*
X65372150Y-29454187D01*
X65376694Y-29458306D01*
X65380813Y-29462850D01*
X65384467Y-29467777D01*
X65387620Y-29473038D01*
X65390242Y-29478582D01*
X65392309Y-29484357D01*
X65393799Y-29490307D01*
X65394699Y-29496374D01*
X65395000Y-29502500D01*
X65395000Y-30227500D01*
X65394699Y-30233626D01*
X65393799Y-30239693D01*
X65392309Y-30245643D01*
X65390242Y-30251418D01*
X65387620Y-30256962D01*
X65384467Y-30262223D01*
X65380813Y-30267150D01*
X65376694Y-30271694D01*
X65372150Y-30275813D01*
X65367223Y-30279467D01*
X65361962Y-30282620D01*
X65356418Y-30285242D01*
X65350643Y-30287309D01*
X65344693Y-30288799D01*
X65338626Y-30289699D01*
X65332500Y-30290000D01*
X65207500Y-30290000D01*
X65201374Y-30289699D01*
X65195307Y-30288799D01*
X65189357Y-30287309D01*
X65183582Y-30285242D01*
X65178038Y-30282620D01*
X65172777Y-30279467D01*
X65167850Y-30275813D01*
X65163306Y-30271694D01*
X65159187Y-30267150D01*
X65155533Y-30262223D01*
X65152380Y-30256962D01*
X65149758Y-30251418D01*
X65147691Y-30245643D01*
X65146201Y-30239693D01*
X65145301Y-30233626D01*
X65145000Y-30227500D01*
X65145000Y-29502500D01*
X65145301Y-29496374D01*
X65146201Y-29490307D01*
X65147691Y-29484357D01*
X65149758Y-29478582D01*
X65152380Y-29473038D01*
X65155533Y-29467777D01*
X65159187Y-29462850D01*
X65163306Y-29458306D01*
X65167850Y-29454187D01*
X65172777Y-29450533D01*
X65178038Y-29447380D01*
X65183582Y-29444758D01*
X65189357Y-29442691D01*
X65195307Y-29441201D01*
X65201374Y-29440301D01*
X65207500Y-29440000D01*
X65332500Y-29440000D01*
X65338626Y-29440301D01*
G37*
G04 #@! TD.AperFunction*
G04 #@! TA.AperFunction,SMDPad,CuDef*
G36*
X64838626Y-29440301D02*
G01*
X64844693Y-29441201D01*
X64850643Y-29442691D01*
X64856418Y-29444758D01*
X64861962Y-29447380D01*
X64867223Y-29450533D01*
X64872150Y-29454187D01*
X64876694Y-29458306D01*
X64880813Y-29462850D01*
X64884467Y-29467777D01*
X64887620Y-29473038D01*
X64890242Y-29478582D01*
X64892309Y-29484357D01*
X64893799Y-29490307D01*
X64894699Y-29496374D01*
X64895000Y-29502500D01*
X64895000Y-30227500D01*
X64894699Y-30233626D01*
X64893799Y-30239693D01*
X64892309Y-30245643D01*
X64890242Y-30251418D01*
X64887620Y-30256962D01*
X64884467Y-30262223D01*
X64880813Y-30267150D01*
X64876694Y-30271694D01*
X64872150Y-30275813D01*
X64867223Y-30279467D01*
X64861962Y-30282620D01*
X64856418Y-30285242D01*
X64850643Y-30287309D01*
X64844693Y-30288799D01*
X64838626Y-30289699D01*
X64832500Y-30290000D01*
X64707500Y-30290000D01*
X64701374Y-30289699D01*
X64695307Y-30288799D01*
X64689357Y-30287309D01*
X64683582Y-30285242D01*
X64678038Y-30282620D01*
X64672777Y-30279467D01*
X64667850Y-30275813D01*
X64663306Y-30271694D01*
X64659187Y-30267150D01*
X64655533Y-30262223D01*
X64652380Y-30256962D01*
X64649758Y-30251418D01*
X64647691Y-30245643D01*
X64646201Y-30239693D01*
X64645301Y-30233626D01*
X64645000Y-30227500D01*
X64645000Y-29502500D01*
X64645301Y-29496374D01*
X64646201Y-29490307D01*
X64647691Y-29484357D01*
X64649758Y-29478582D01*
X64652380Y-29473038D01*
X64655533Y-29467777D01*
X64659187Y-29462850D01*
X64663306Y-29458306D01*
X64667850Y-29454187D01*
X64672777Y-29450533D01*
X64678038Y-29447380D01*
X64683582Y-29444758D01*
X64689357Y-29442691D01*
X64695307Y-29441201D01*
X64701374Y-29440301D01*
X64707500Y-29440000D01*
X64832500Y-29440000D01*
X64838626Y-29440301D01*
G37*
G04 #@! TD.AperFunction*
G04 #@! TA.AperFunction,SMDPad,CuDef*
G36*
X64338626Y-29440301D02*
G01*
X64344693Y-29441201D01*
X64350643Y-29442691D01*
X64356418Y-29444758D01*
X64361962Y-29447380D01*
X64367223Y-29450533D01*
X64372150Y-29454187D01*
X64376694Y-29458306D01*
X64380813Y-29462850D01*
X64384467Y-29467777D01*
X64387620Y-29473038D01*
X64390242Y-29478582D01*
X64392309Y-29484357D01*
X64393799Y-29490307D01*
X64394699Y-29496374D01*
X64395000Y-29502500D01*
X64395000Y-30227500D01*
X64394699Y-30233626D01*
X64393799Y-30239693D01*
X64392309Y-30245643D01*
X64390242Y-30251418D01*
X64387620Y-30256962D01*
X64384467Y-30262223D01*
X64380813Y-30267150D01*
X64376694Y-30271694D01*
X64372150Y-30275813D01*
X64367223Y-30279467D01*
X64361962Y-30282620D01*
X64356418Y-30285242D01*
X64350643Y-30287309D01*
X64344693Y-30288799D01*
X64338626Y-30289699D01*
X64332500Y-30290000D01*
X64207500Y-30290000D01*
X64201374Y-30289699D01*
X64195307Y-30288799D01*
X64189357Y-30287309D01*
X64183582Y-30285242D01*
X64178038Y-30282620D01*
X64172777Y-30279467D01*
X64167850Y-30275813D01*
X64163306Y-30271694D01*
X64159187Y-30267150D01*
X64155533Y-30262223D01*
X64152380Y-30256962D01*
X64149758Y-30251418D01*
X64147691Y-30245643D01*
X64146201Y-30239693D01*
X64145301Y-30233626D01*
X64145000Y-30227500D01*
X64145000Y-29502500D01*
X64145301Y-29496374D01*
X64146201Y-29490307D01*
X64147691Y-29484357D01*
X64149758Y-29478582D01*
X64152380Y-29473038D01*
X64155533Y-29467777D01*
X64159187Y-29462850D01*
X64163306Y-29458306D01*
X64167850Y-29454187D01*
X64172777Y-29450533D01*
X64178038Y-29447380D01*
X64183582Y-29444758D01*
X64189357Y-29442691D01*
X64195307Y-29441201D01*
X64201374Y-29440301D01*
X64207500Y-29440000D01*
X64332500Y-29440000D01*
X64338626Y-29440301D01*
G37*
G04 #@! TD.AperFunction*
G04 #@! TA.AperFunction,SMDPad,CuDef*
G36*
X63838626Y-29440301D02*
G01*
X63844693Y-29441201D01*
X63850643Y-29442691D01*
X63856418Y-29444758D01*
X63861962Y-29447380D01*
X63867223Y-29450533D01*
X63872150Y-29454187D01*
X63876694Y-29458306D01*
X63880813Y-29462850D01*
X63884467Y-29467777D01*
X63887620Y-29473038D01*
X63890242Y-29478582D01*
X63892309Y-29484357D01*
X63893799Y-29490307D01*
X63894699Y-29496374D01*
X63895000Y-29502500D01*
X63895000Y-30227500D01*
X63894699Y-30233626D01*
X63893799Y-30239693D01*
X63892309Y-30245643D01*
X63890242Y-30251418D01*
X63887620Y-30256962D01*
X63884467Y-30262223D01*
X63880813Y-30267150D01*
X63876694Y-30271694D01*
X63872150Y-30275813D01*
X63867223Y-30279467D01*
X63861962Y-30282620D01*
X63856418Y-30285242D01*
X63850643Y-30287309D01*
X63844693Y-30288799D01*
X63838626Y-30289699D01*
X63832500Y-30290000D01*
X63707500Y-30290000D01*
X63701374Y-30289699D01*
X63695307Y-30288799D01*
X63689357Y-30287309D01*
X63683582Y-30285242D01*
X63678038Y-30282620D01*
X63672777Y-30279467D01*
X63667850Y-30275813D01*
X63663306Y-30271694D01*
X63659187Y-30267150D01*
X63655533Y-30262223D01*
X63652380Y-30256962D01*
X63649758Y-30251418D01*
X63647691Y-30245643D01*
X63646201Y-30239693D01*
X63645301Y-30233626D01*
X63645000Y-30227500D01*
X63645000Y-29502500D01*
X63645301Y-29496374D01*
X63646201Y-29490307D01*
X63647691Y-29484357D01*
X63649758Y-29478582D01*
X63652380Y-29473038D01*
X63655533Y-29467777D01*
X63659187Y-29462850D01*
X63663306Y-29458306D01*
X63667850Y-29454187D01*
X63672777Y-29450533D01*
X63678038Y-29447380D01*
X63683582Y-29444758D01*
X63689357Y-29442691D01*
X63695307Y-29441201D01*
X63701374Y-29440301D01*
X63707500Y-29440000D01*
X63832500Y-29440000D01*
X63838626Y-29440301D01*
G37*
G04 #@! TD.AperFunction*
G04 #@! TA.AperFunction,SMDPad,CuDef*
G36*
X63213626Y-28815301D02*
G01*
X63219693Y-28816201D01*
X63225643Y-28817691D01*
X63231418Y-28819758D01*
X63236962Y-28822380D01*
X63242223Y-28825533D01*
X63247150Y-28829187D01*
X63251694Y-28833306D01*
X63255813Y-28837850D01*
X63259467Y-28842777D01*
X63262620Y-28848038D01*
X63265242Y-28853582D01*
X63267309Y-28859357D01*
X63268799Y-28865307D01*
X63269699Y-28871374D01*
X63270000Y-28877500D01*
X63270000Y-29002500D01*
X63269699Y-29008626D01*
X63268799Y-29014693D01*
X63267309Y-29020643D01*
X63265242Y-29026418D01*
X63262620Y-29031962D01*
X63259467Y-29037223D01*
X63255813Y-29042150D01*
X63251694Y-29046694D01*
X63247150Y-29050813D01*
X63242223Y-29054467D01*
X63236962Y-29057620D01*
X63231418Y-29060242D01*
X63225643Y-29062309D01*
X63219693Y-29063799D01*
X63213626Y-29064699D01*
X63207500Y-29065000D01*
X62482500Y-29065000D01*
X62476374Y-29064699D01*
X62470307Y-29063799D01*
X62464357Y-29062309D01*
X62458582Y-29060242D01*
X62453038Y-29057620D01*
X62447777Y-29054467D01*
X62442850Y-29050813D01*
X62438306Y-29046694D01*
X62434187Y-29042150D01*
X62430533Y-29037223D01*
X62427380Y-29031962D01*
X62424758Y-29026418D01*
X62422691Y-29020643D01*
X62421201Y-29014693D01*
X62420301Y-29008626D01*
X62420000Y-29002500D01*
X62420000Y-28877500D01*
X62420301Y-28871374D01*
X62421201Y-28865307D01*
X62422691Y-28859357D01*
X62424758Y-28853582D01*
X62427380Y-28848038D01*
X62430533Y-28842777D01*
X62434187Y-28837850D01*
X62438306Y-28833306D01*
X62442850Y-28829187D01*
X62447777Y-28825533D01*
X62453038Y-28822380D01*
X62458582Y-28819758D01*
X62464357Y-28817691D01*
X62470307Y-28816201D01*
X62476374Y-28815301D01*
X62482500Y-28815000D01*
X63207500Y-28815000D01*
X63213626Y-28815301D01*
G37*
G04 #@! TD.AperFunction*
G04 #@! TA.AperFunction,SMDPad,CuDef*
G36*
X63213626Y-28315301D02*
G01*
X63219693Y-28316201D01*
X63225643Y-28317691D01*
X63231418Y-28319758D01*
X63236962Y-28322380D01*
X63242223Y-28325533D01*
X63247150Y-28329187D01*
X63251694Y-28333306D01*
X63255813Y-28337850D01*
X63259467Y-28342777D01*
X63262620Y-28348038D01*
X63265242Y-28353582D01*
X63267309Y-28359357D01*
X63268799Y-28365307D01*
X63269699Y-28371374D01*
X63270000Y-28377500D01*
X63270000Y-28502500D01*
X63269699Y-28508626D01*
X63268799Y-28514693D01*
X63267309Y-28520643D01*
X63265242Y-28526418D01*
X63262620Y-28531962D01*
X63259467Y-28537223D01*
X63255813Y-28542150D01*
X63251694Y-28546694D01*
X63247150Y-28550813D01*
X63242223Y-28554467D01*
X63236962Y-28557620D01*
X63231418Y-28560242D01*
X63225643Y-28562309D01*
X63219693Y-28563799D01*
X63213626Y-28564699D01*
X63207500Y-28565000D01*
X62482500Y-28565000D01*
X62476374Y-28564699D01*
X62470307Y-28563799D01*
X62464357Y-28562309D01*
X62458582Y-28560242D01*
X62453038Y-28557620D01*
X62447777Y-28554467D01*
X62442850Y-28550813D01*
X62438306Y-28546694D01*
X62434187Y-28542150D01*
X62430533Y-28537223D01*
X62427380Y-28531962D01*
X62424758Y-28526418D01*
X62422691Y-28520643D01*
X62421201Y-28514693D01*
X62420301Y-28508626D01*
X62420000Y-28502500D01*
X62420000Y-28377500D01*
X62420301Y-28371374D01*
X62421201Y-28365307D01*
X62422691Y-28359357D01*
X62424758Y-28353582D01*
X62427380Y-28348038D01*
X62430533Y-28342777D01*
X62434187Y-28337850D01*
X62438306Y-28333306D01*
X62442850Y-28329187D01*
X62447777Y-28325533D01*
X62453038Y-28322380D01*
X62458582Y-28319758D01*
X62464357Y-28317691D01*
X62470307Y-28316201D01*
X62476374Y-28315301D01*
X62482500Y-28315000D01*
X63207500Y-28315000D01*
X63213626Y-28315301D01*
G37*
G04 #@! TD.AperFunction*
G04 #@! TA.AperFunction,SMDPad,CuDef*
G36*
X63213626Y-27815301D02*
G01*
X63219693Y-27816201D01*
X63225643Y-27817691D01*
X63231418Y-27819758D01*
X63236962Y-27822380D01*
X63242223Y-27825533D01*
X63247150Y-27829187D01*
X63251694Y-27833306D01*
X63255813Y-27837850D01*
X63259467Y-27842777D01*
X63262620Y-27848038D01*
X63265242Y-27853582D01*
X63267309Y-27859357D01*
X63268799Y-27865307D01*
X63269699Y-27871374D01*
X63270000Y-27877500D01*
X63270000Y-28002500D01*
X63269699Y-28008626D01*
X63268799Y-28014693D01*
X63267309Y-28020643D01*
X63265242Y-28026418D01*
X63262620Y-28031962D01*
X63259467Y-28037223D01*
X63255813Y-28042150D01*
X63251694Y-28046694D01*
X63247150Y-28050813D01*
X63242223Y-28054467D01*
X63236962Y-28057620D01*
X63231418Y-28060242D01*
X63225643Y-28062309D01*
X63219693Y-28063799D01*
X63213626Y-28064699D01*
X63207500Y-28065000D01*
X62482500Y-28065000D01*
X62476374Y-28064699D01*
X62470307Y-28063799D01*
X62464357Y-28062309D01*
X62458582Y-28060242D01*
X62453038Y-28057620D01*
X62447777Y-28054467D01*
X62442850Y-28050813D01*
X62438306Y-28046694D01*
X62434187Y-28042150D01*
X62430533Y-28037223D01*
X62427380Y-28031962D01*
X62424758Y-28026418D01*
X62422691Y-28020643D01*
X62421201Y-28014693D01*
X62420301Y-28008626D01*
X62420000Y-28002500D01*
X62420000Y-27877500D01*
X62420301Y-27871374D01*
X62421201Y-27865307D01*
X62422691Y-27859357D01*
X62424758Y-27853582D01*
X62427380Y-27848038D01*
X62430533Y-27842777D01*
X62434187Y-27837850D01*
X62438306Y-27833306D01*
X62442850Y-27829187D01*
X62447777Y-27825533D01*
X62453038Y-27822380D01*
X62458582Y-27819758D01*
X62464357Y-27817691D01*
X62470307Y-27816201D01*
X62476374Y-27815301D01*
X62482500Y-27815000D01*
X63207500Y-27815000D01*
X63213626Y-27815301D01*
G37*
G04 #@! TD.AperFunction*
G04 #@! TA.AperFunction,SMDPad,CuDef*
G36*
X63213626Y-27315301D02*
G01*
X63219693Y-27316201D01*
X63225643Y-27317691D01*
X63231418Y-27319758D01*
X63236962Y-27322380D01*
X63242223Y-27325533D01*
X63247150Y-27329187D01*
X63251694Y-27333306D01*
X63255813Y-27337850D01*
X63259467Y-27342777D01*
X63262620Y-27348038D01*
X63265242Y-27353582D01*
X63267309Y-27359357D01*
X63268799Y-27365307D01*
X63269699Y-27371374D01*
X63270000Y-27377500D01*
X63270000Y-27502500D01*
X63269699Y-27508626D01*
X63268799Y-27514693D01*
X63267309Y-27520643D01*
X63265242Y-27526418D01*
X63262620Y-27531962D01*
X63259467Y-27537223D01*
X63255813Y-27542150D01*
X63251694Y-27546694D01*
X63247150Y-27550813D01*
X63242223Y-27554467D01*
X63236962Y-27557620D01*
X63231418Y-27560242D01*
X63225643Y-27562309D01*
X63219693Y-27563799D01*
X63213626Y-27564699D01*
X63207500Y-27565000D01*
X62482500Y-27565000D01*
X62476374Y-27564699D01*
X62470307Y-27563799D01*
X62464357Y-27562309D01*
X62458582Y-27560242D01*
X62453038Y-27557620D01*
X62447777Y-27554467D01*
X62442850Y-27550813D01*
X62438306Y-27546694D01*
X62434187Y-27542150D01*
X62430533Y-27537223D01*
X62427380Y-27531962D01*
X62424758Y-27526418D01*
X62422691Y-27520643D01*
X62421201Y-27514693D01*
X62420301Y-27508626D01*
X62420000Y-27502500D01*
X62420000Y-27377500D01*
X62420301Y-27371374D01*
X62421201Y-27365307D01*
X62422691Y-27359357D01*
X62424758Y-27353582D01*
X62427380Y-27348038D01*
X62430533Y-27342777D01*
X62434187Y-27337850D01*
X62438306Y-27333306D01*
X62442850Y-27329187D01*
X62447777Y-27325533D01*
X62453038Y-27322380D01*
X62458582Y-27319758D01*
X62464357Y-27317691D01*
X62470307Y-27316201D01*
X62476374Y-27315301D01*
X62482500Y-27315000D01*
X63207500Y-27315000D01*
X63213626Y-27315301D01*
G37*
G04 #@! TD.AperFunction*
G04 #@! TA.AperFunction,SMDPad,CuDef*
G36*
X63213626Y-26815301D02*
G01*
X63219693Y-26816201D01*
X63225643Y-26817691D01*
X63231418Y-26819758D01*
X63236962Y-26822380D01*
X63242223Y-26825533D01*
X63247150Y-26829187D01*
X63251694Y-26833306D01*
X63255813Y-26837850D01*
X63259467Y-26842777D01*
X63262620Y-26848038D01*
X63265242Y-26853582D01*
X63267309Y-26859357D01*
X63268799Y-26865307D01*
X63269699Y-26871374D01*
X63270000Y-26877500D01*
X63270000Y-27002500D01*
X63269699Y-27008626D01*
X63268799Y-27014693D01*
X63267309Y-27020643D01*
X63265242Y-27026418D01*
X63262620Y-27031962D01*
X63259467Y-27037223D01*
X63255813Y-27042150D01*
X63251694Y-27046694D01*
X63247150Y-27050813D01*
X63242223Y-27054467D01*
X63236962Y-27057620D01*
X63231418Y-27060242D01*
X63225643Y-27062309D01*
X63219693Y-27063799D01*
X63213626Y-27064699D01*
X63207500Y-27065000D01*
X62482500Y-27065000D01*
X62476374Y-27064699D01*
X62470307Y-27063799D01*
X62464357Y-27062309D01*
X62458582Y-27060242D01*
X62453038Y-27057620D01*
X62447777Y-27054467D01*
X62442850Y-27050813D01*
X62438306Y-27046694D01*
X62434187Y-27042150D01*
X62430533Y-27037223D01*
X62427380Y-27031962D01*
X62424758Y-27026418D01*
X62422691Y-27020643D01*
X62421201Y-27014693D01*
X62420301Y-27008626D01*
X62420000Y-27002500D01*
X62420000Y-26877500D01*
X62420301Y-26871374D01*
X62421201Y-26865307D01*
X62422691Y-26859357D01*
X62424758Y-26853582D01*
X62427380Y-26848038D01*
X62430533Y-26842777D01*
X62434187Y-26837850D01*
X62438306Y-26833306D01*
X62442850Y-26829187D01*
X62447777Y-26825533D01*
X62453038Y-26822380D01*
X62458582Y-26819758D01*
X62464357Y-26817691D01*
X62470307Y-26816201D01*
X62476374Y-26815301D01*
X62482500Y-26815000D01*
X63207500Y-26815000D01*
X63213626Y-26815301D01*
G37*
G04 #@! TD.AperFunction*
G04 #@! TA.AperFunction,SMDPad,CuDef*
G36*
X65844504Y-26641204D02*
G01*
X65868773Y-26644804D01*
X65892571Y-26650765D01*
X65915671Y-26659030D01*
X65937849Y-26669520D01*
X65958893Y-26682133D01*
X65978598Y-26696747D01*
X65996777Y-26713223D01*
X66013253Y-26731402D01*
X66027867Y-26751107D01*
X66040480Y-26772151D01*
X66050970Y-26794329D01*
X66059235Y-26817429D01*
X66065196Y-26841227D01*
X66068796Y-26865496D01*
X66070000Y-26890000D01*
X66070000Y-28990000D01*
X66068796Y-29014504D01*
X66065196Y-29038773D01*
X66059235Y-29062571D01*
X66050970Y-29085671D01*
X66040480Y-29107849D01*
X66027867Y-29128893D01*
X66013253Y-29148598D01*
X65996777Y-29166777D01*
X65978598Y-29183253D01*
X65958893Y-29197867D01*
X65937849Y-29210480D01*
X65915671Y-29220970D01*
X65892571Y-29229235D01*
X65868773Y-29235196D01*
X65844504Y-29238796D01*
X65820000Y-29240000D01*
X63720000Y-29240000D01*
X63695496Y-29238796D01*
X63671227Y-29235196D01*
X63647429Y-29229235D01*
X63624329Y-29220970D01*
X63602151Y-29210480D01*
X63581107Y-29197867D01*
X63561402Y-29183253D01*
X63543223Y-29166777D01*
X63526747Y-29148598D01*
X63512133Y-29128893D01*
X63499520Y-29107849D01*
X63489030Y-29085671D01*
X63480765Y-29062571D01*
X63474804Y-29038773D01*
X63471204Y-29014504D01*
X63470000Y-28990000D01*
X63470000Y-26890000D01*
X63471204Y-26865496D01*
X63474804Y-26841227D01*
X63480765Y-26817429D01*
X63489030Y-26794329D01*
X63499520Y-26772151D01*
X63512133Y-26751107D01*
X63526747Y-26731402D01*
X63543223Y-26713223D01*
X63561402Y-26696747D01*
X63581107Y-26682133D01*
X63602151Y-26669520D01*
X63624329Y-26659030D01*
X63647429Y-26650765D01*
X63671227Y-26644804D01*
X63695496Y-26641204D01*
X63720000Y-26640000D01*
X65820000Y-26640000D01*
X65844504Y-26641204D01*
G37*
G04 #@! TD.AperFunction*
D13*
X22860000Y-16510000D03*
D14*
X22860000Y-24130000D03*
D15*
X40640000Y-24130000D03*
X33020000Y-16510000D03*
X38100000Y-24130000D03*
X35560000Y-16510000D03*
X35560000Y-24130000D03*
X38100000Y-16510000D03*
X33020000Y-24130000D03*
D16*
X40640000Y-16510000D03*
D17*
X22860000Y-27940000D03*
X27940000Y-27940000D03*
X17780000Y-27900000D03*
X17780000Y-25400000D03*
X50800000Y-27940000D03*
X55880000Y-27940000D03*
X44450000Y-27940000D03*
X39370000Y-27940000D03*
X27940000Y-22860000D03*
X27940000Y-17780000D03*
X34250000Y-27940000D03*
X31750000Y-27940000D03*
D18*
X64770000Y-17860000D03*
X64770000Y-20360000D03*
G04 #@! TA.AperFunction,ComponentPad*
D12*
G36*
X65519504Y-22011204D02*
G01*
X65543773Y-22014804D01*
X65567571Y-22020765D01*
X65590671Y-22029030D01*
X65612849Y-22039520D01*
X65633893Y-22052133D01*
X65653598Y-22066747D01*
X65671777Y-22083223D01*
X65688253Y-22101402D01*
X65702867Y-22121107D01*
X65715480Y-22142151D01*
X65725970Y-22164329D01*
X65734235Y-22187429D01*
X65740196Y-22211227D01*
X65743796Y-22235496D01*
X65745000Y-22260000D01*
X65745000Y-23460000D01*
X65743796Y-23484504D01*
X65740196Y-23508773D01*
X65734235Y-23532571D01*
X65725970Y-23555671D01*
X65715480Y-23577849D01*
X65702867Y-23598893D01*
X65688253Y-23618598D01*
X65671777Y-23636777D01*
X65653598Y-23653253D01*
X65633893Y-23667867D01*
X65612849Y-23680480D01*
X65590671Y-23690970D01*
X65567571Y-23699235D01*
X65543773Y-23705196D01*
X65519504Y-23708796D01*
X65495000Y-23710000D01*
X64045000Y-23710000D01*
X64020496Y-23708796D01*
X63996227Y-23705196D01*
X63972429Y-23699235D01*
X63949329Y-23690970D01*
X63927151Y-23680480D01*
X63906107Y-23667867D01*
X63886402Y-23653253D01*
X63868223Y-23636777D01*
X63851747Y-23618598D01*
X63837133Y-23598893D01*
X63824520Y-23577849D01*
X63814030Y-23555671D01*
X63805765Y-23532571D01*
X63799804Y-23508773D01*
X63796204Y-23484504D01*
X63795000Y-23460000D01*
X63795000Y-22260000D01*
X63796204Y-22235496D01*
X63799804Y-22211227D01*
X63805765Y-22187429D01*
X63814030Y-22164329D01*
X63824520Y-22142151D01*
X63837133Y-22121107D01*
X63851747Y-22101402D01*
X63868223Y-22083223D01*
X63886402Y-22066747D01*
X63906107Y-22052133D01*
X63927151Y-22039520D01*
X63949329Y-22029030D01*
X63972429Y-22020765D01*
X63996227Y-22014804D01*
X64020496Y-22011204D01*
X64045000Y-22010000D01*
X65495000Y-22010000D01*
X65519504Y-22011204D01*
G37*
G04 #@! TD.AperFunction*
D15*
X55880000Y-24130000D03*
X48260000Y-16510000D03*
X53340000Y-24130000D03*
X50800000Y-16510000D03*
X50800000Y-24130000D03*
X53340000Y-16510000D03*
X48260000Y-24130000D03*
D16*
X55880000Y-16510000D03*
D19*
X33819999Y-15710001D02*
X33020000Y-16510000D01*
X34145001Y-15384999D02*
X33819999Y-15710001D01*
X41700001Y-15384999D02*
X34145001Y-15384999D01*
X41765001Y-15449999D02*
X41700001Y-15384999D01*
X41765001Y-23004999D02*
X41765001Y-15449999D01*
X55880000Y-27940000D02*
X55880000Y-26670000D01*
X55880000Y-26670000D02*
X55880000Y-24130000D01*
X40640000Y-17560000D02*
X40640000Y-16510000D01*
X65745000Y-17780000D02*
X64770000Y-17780000D01*
X64770000Y-22860000D02*
X64770000Y-23710000D01*
X57150000Y-22860000D02*
X55880000Y-24130000D01*
X64770000Y-22860000D02*
X57150000Y-22860000D01*
X41439999Y-23330001D02*
X40640000Y-24130000D01*
X41765001Y-23004999D02*
X41439999Y-23330001D01*
X41439999Y-24929999D02*
X40640000Y-24130000D01*
X41765001Y-25255001D02*
X41439999Y-24929999D01*
X54754999Y-25255001D02*
X41765001Y-25255001D01*
X55880000Y-24130000D02*
X54754999Y-25255001D01*
X59610000Y-17860000D02*
X53340000Y-24130000D01*
X64770000Y-17860000D02*
X59610000Y-17860000D01*
X38100000Y-21590000D02*
X35560000Y-24130000D01*
X38100000Y-16510000D02*
X38100000Y-21590000D01*
X34250000Y-27940000D02*
X39370000Y-27940000D01*
X29210000Y-22860000D02*
X27940000Y-22860000D01*
X35560000Y-16510000D02*
X29210000Y-22860000D01*
X41910000Y-27940000D02*
X44450000Y-27940000D01*
X38100000Y-24130000D02*
X41910000Y-27940000D01*
X22820000Y-27900000D02*
X22860000Y-27940000D01*
X17780000Y-27900000D02*
X22820000Y-27900000D01*
X22860000Y-24130000D02*
X22860000Y-27940000D01*
X24130000Y-17780000D02*
X22860000Y-16510000D01*
X27940000Y-17780000D02*
X24130000Y-17780000D01*
X18830000Y-18300000D02*
X18830000Y-19050000D01*
X20620000Y-16510000D02*
X18830000Y-18300000D01*
X22860000Y-16510000D02*
X20620000Y-16510000D01*
D20*
G36*
X67920001Y-31090000D02*
G01*
X13360000Y-31090000D01*
X13360000Y-27758665D01*
X16345000Y-27758665D01*
X16345000Y-28041335D01*
X16400147Y-28318574D01*
X16508320Y-28579727D01*
X16665363Y-28814759D01*
X16865241Y-29014637D01*
X17100273Y-29171680D01*
X17361426Y-29279853D01*
X17638665Y-29335000D01*
X17921335Y-29335000D01*
X18198574Y-29279853D01*
X18459727Y-29171680D01*
X18694759Y-29014637D01*
X18894637Y-28814759D01*
X18998043Y-28660000D01*
X21615229Y-28660000D01*
X21745363Y-28854759D01*
X21945241Y-29054637D01*
X22180273Y-29211680D01*
X22441426Y-29319853D01*
X22718665Y-29375000D01*
X23001335Y-29375000D01*
X23278574Y-29319853D01*
X23539727Y-29211680D01*
X23774759Y-29054637D01*
X23896694Y-28932702D01*
X27126903Y-28932702D01*
X27198486Y-29176671D01*
X27453996Y-29297571D01*
X27728184Y-29366300D01*
X28010512Y-29380217D01*
X28290130Y-29338787D01*
X28556292Y-29243603D01*
X28681514Y-29176671D01*
X28753097Y-28932702D01*
X30936903Y-28932702D01*
X31008486Y-29176671D01*
X31263996Y-29297571D01*
X31538184Y-29366300D01*
X31820512Y-29380217D01*
X32100130Y-29338787D01*
X32366292Y-29243603D01*
X32491514Y-29176671D01*
X32563097Y-28932702D01*
X31750000Y-28119605D01*
X30936903Y-28932702D01*
X28753097Y-28932702D01*
X27940000Y-28119605D01*
X27126903Y-28932702D01*
X23896694Y-28932702D01*
X23974637Y-28854759D01*
X24131680Y-28619727D01*
X24239853Y-28358574D01*
X24295000Y-28081335D01*
X24295000Y-28010512D01*
X26499783Y-28010512D01*
X26541213Y-28290130D01*
X26636397Y-28556292D01*
X26703329Y-28681514D01*
X26947298Y-28753097D01*
X27760395Y-27940000D01*
X28119605Y-27940000D01*
X28932702Y-28753097D01*
X29176671Y-28681514D01*
X29297571Y-28426004D01*
X29366300Y-28151816D01*
X29373265Y-28010512D01*
X30309783Y-28010512D01*
X30351213Y-28290130D01*
X30446397Y-28556292D01*
X30513329Y-28681514D01*
X30757298Y-28753097D01*
X31570395Y-27940000D01*
X30757298Y-27126903D01*
X30513329Y-27198486D01*
X30392429Y-27453996D01*
X30323700Y-27728184D01*
X30309783Y-28010512D01*
X29373265Y-28010512D01*
X29380217Y-27869488D01*
X29338787Y-27589870D01*
X29243603Y-27323708D01*
X29176671Y-27198486D01*
X28932702Y-27126903D01*
X28119605Y-27940000D01*
X27760395Y-27940000D01*
X26947298Y-27126903D01*
X26703329Y-27198486D01*
X26582429Y-27453996D01*
X26513700Y-27728184D01*
X26499783Y-28010512D01*
X24295000Y-28010512D01*
X24295000Y-27798665D01*
X24239853Y-27521426D01*
X24131680Y-27260273D01*
X23974637Y-27025241D01*
X23896694Y-26947298D01*
X27126903Y-26947298D01*
X27940000Y-27760395D01*
X28753097Y-26947298D01*
X30936903Y-26947298D01*
X31750000Y-27760395D01*
X32563097Y-26947298D01*
X32491514Y-26703329D01*
X32236004Y-26582429D01*
X31961816Y-26513700D01*
X31679488Y-26499783D01*
X31399870Y-26541213D01*
X31133708Y-26636397D01*
X31008486Y-26703329D01*
X30936903Y-26947298D01*
X28753097Y-26947298D01*
X28681514Y-26703329D01*
X28426004Y-26582429D01*
X28151816Y-26513700D01*
X27869488Y-26499783D01*
X27589870Y-26541213D01*
X27323708Y-26636397D01*
X27198486Y-26703329D01*
X27126903Y-26947298D01*
X23896694Y-26947298D01*
X23774759Y-26825363D01*
X23620000Y-26721957D01*
X23620000Y-25668072D01*
X23760000Y-25668072D01*
X23884482Y-25655812D01*
X24004180Y-25619502D01*
X24114494Y-25560537D01*
X24211185Y-25481185D01*
X24290537Y-25384494D01*
X24349502Y-25274180D01*
X24385812Y-25154482D01*
X24398072Y-25030000D01*
X24398072Y-24479040D01*
X31628091Y-24479040D01*
X31722930Y-24743881D01*
X31867615Y-24985131D01*
X32056586Y-25193519D01*
X32282580Y-25361037D01*
X32536913Y-25481246D01*
X32670961Y-25521904D01*
X32893000Y-25399915D01*
X32893000Y-24257000D01*
X31749376Y-24257000D01*
X31628091Y-24479040D01*
X24398072Y-24479040D01*
X24398072Y-23230000D01*
X24385812Y-23105518D01*
X24349502Y-22985820D01*
X24290537Y-22875506D01*
X24211185Y-22778815D01*
X24137892Y-22718665D01*
X26505000Y-22718665D01*
X26505000Y-23001335D01*
X26560147Y-23278574D01*
X26668320Y-23539727D01*
X26825363Y-23774759D01*
X27025241Y-23974637D01*
X27260273Y-24131680D01*
X27521426Y-24239853D01*
X27798665Y-24295000D01*
X28081335Y-24295000D01*
X28358574Y-24239853D01*
X28619727Y-24131680D01*
X28854759Y-23974637D01*
X29048436Y-23780960D01*
X31628091Y-23780960D01*
X31749376Y-24003000D01*
X32893000Y-24003000D01*
X32893000Y-22860085D01*
X32670961Y-22738096D01*
X32536913Y-22778754D01*
X32282580Y-22898963D01*
X32056586Y-23066481D01*
X31867615Y-23274869D01*
X31722930Y-23516119D01*
X31628091Y-23780960D01*
X29048436Y-23780960D01*
X29054637Y-23774759D01*
X29158043Y-23620000D01*
X29172678Y-23620000D01*
X29210000Y-23623676D01*
X29247322Y-23620000D01*
X29247333Y-23620000D01*
X29358986Y-23609003D01*
X29502247Y-23565546D01*
X29634276Y-23494974D01*
X29750001Y-23400001D01*
X29773804Y-23370997D01*
X35236114Y-17908688D01*
X35418665Y-17945000D01*
X35701335Y-17945000D01*
X35978574Y-17889853D01*
X36239727Y-17781680D01*
X36474759Y-17624637D01*
X36674637Y-17424759D01*
X36830000Y-17192241D01*
X36985363Y-17424759D01*
X37185241Y-17624637D01*
X37340000Y-17728044D01*
X37340001Y-21275196D01*
X35883886Y-22731312D01*
X35701335Y-22695000D01*
X35418665Y-22695000D01*
X35141426Y-22750147D01*
X34880273Y-22858320D01*
X34645241Y-23015363D01*
X34445363Y-23215241D01*
X34288320Y-23450273D01*
X34283933Y-23460865D01*
X34172385Y-23274869D01*
X33983414Y-23066481D01*
X33757420Y-22898963D01*
X33503087Y-22778754D01*
X33369039Y-22738096D01*
X33147000Y-22860085D01*
X33147000Y-24003000D01*
X33167000Y-24003000D01*
X33167000Y-24257000D01*
X33147000Y-24257000D01*
X33147000Y-25399915D01*
X33369039Y-25521904D01*
X33503087Y-25481246D01*
X33757420Y-25361037D01*
X33983414Y-25193519D01*
X34172385Y-24985131D01*
X34283933Y-24799135D01*
X34288320Y-24809727D01*
X34445363Y-25044759D01*
X34645241Y-25244637D01*
X34880273Y-25401680D01*
X35141426Y-25509853D01*
X35418665Y-25565000D01*
X35701335Y-25565000D01*
X35978574Y-25509853D01*
X36239727Y-25401680D01*
X36474759Y-25244637D01*
X36674637Y-25044759D01*
X36830000Y-24812241D01*
X36985363Y-25044759D01*
X37185241Y-25244637D01*
X37420273Y-25401680D01*
X37681426Y-25509853D01*
X37958665Y-25565000D01*
X38241335Y-25565000D01*
X38423887Y-25528688D01*
X39400199Y-26505000D01*
X39228665Y-26505000D01*
X38951426Y-26560147D01*
X38690273Y-26668320D01*
X38455241Y-26825363D01*
X38255363Y-27025241D01*
X38151957Y-27180000D01*
X35468043Y-27180000D01*
X35364637Y-27025241D01*
X35164759Y-26825363D01*
X34929727Y-26668320D01*
X34668574Y-26560147D01*
X34391335Y-26505000D01*
X34108665Y-26505000D01*
X33831426Y-26560147D01*
X33570273Y-26668320D01*
X33335241Y-26825363D01*
X33135363Y-27025241D01*
X33001308Y-27225869D01*
X32986671Y-27198486D01*
X32742702Y-27126903D01*
X31929605Y-27940000D01*
X32742702Y-28753097D01*
X32986671Y-28681514D01*
X33000324Y-28652659D01*
X33135363Y-28854759D01*
X33335241Y-29054637D01*
X33570273Y-29211680D01*
X33831426Y-29319853D01*
X34108665Y-29375000D01*
X34391335Y-29375000D01*
X34668574Y-29319853D01*
X34929727Y-29211680D01*
X35164759Y-29054637D01*
X35364637Y-28854759D01*
X35468043Y-28700000D01*
X38151957Y-28700000D01*
X38255363Y-28854759D01*
X38455241Y-29054637D01*
X38690273Y-29211680D01*
X38951426Y-29319853D01*
X39228665Y-29375000D01*
X39511335Y-29375000D01*
X39788574Y-29319853D01*
X40049727Y-29211680D01*
X40284759Y-29054637D01*
X40484637Y-28854759D01*
X40641680Y-28619727D01*
X40749853Y-28358574D01*
X40805000Y-28081335D01*
X40805000Y-27909802D01*
X41346201Y-28451003D01*
X41369999Y-28480001D01*
X41485724Y-28574974D01*
X41617753Y-28645546D01*
X41761014Y-28689003D01*
X41872667Y-28700000D01*
X41872675Y-28700000D01*
X41910000Y-28703676D01*
X41947325Y-28700000D01*
X43231957Y-28700000D01*
X43335363Y-28854759D01*
X43535241Y-29054637D01*
X43770273Y-29211680D01*
X44031426Y-29319853D01*
X44308665Y-29375000D01*
X44591335Y-29375000D01*
X44868574Y-29319853D01*
X45129727Y-29211680D01*
X45364759Y-29054637D01*
X45564637Y-28854759D01*
X45721680Y-28619727D01*
X45829853Y-28358574D01*
X45885000Y-28081335D01*
X45885000Y-27798665D01*
X49365000Y-27798665D01*
X49365000Y-28081335D01*
X49420147Y-28358574D01*
X49528320Y-28619727D01*
X49685363Y-28854759D01*
X49885241Y-29054637D01*
X50120273Y-29211680D01*
X50381426Y-29319853D01*
X50658665Y-29375000D01*
X50941335Y-29375000D01*
X51218574Y-29319853D01*
X51479727Y-29211680D01*
X51714759Y-29054637D01*
X51914637Y-28854759D01*
X52071680Y-28619727D01*
X52179853Y-28358574D01*
X52235000Y-28081335D01*
X52235000Y-27798665D01*
X52179853Y-27521426D01*
X52071680Y-27260273D01*
X51914637Y-27025241D01*
X51714759Y-26825363D01*
X51479727Y-26668320D01*
X51218574Y-26560147D01*
X50941335Y-26505000D01*
X50658665Y-26505000D01*
X50381426Y-26560147D01*
X50120273Y-26668320D01*
X49885241Y-26825363D01*
X49685363Y-27025241D01*
X49528320Y-27260273D01*
X49420147Y-27521426D01*
X49365000Y-27798665D01*
X45885000Y-27798665D01*
X45829853Y-27521426D01*
X45721680Y-27260273D01*
X45564637Y-27025241D01*
X45364759Y-26825363D01*
X45129727Y-26668320D01*
X44868574Y-26560147D01*
X44591335Y-26505000D01*
X44308665Y-26505000D01*
X44031426Y-26560147D01*
X43770273Y-26668320D01*
X43535241Y-26825363D01*
X43335363Y-27025241D01*
X43231957Y-27180000D01*
X42224802Y-27180000D01*
X40609802Y-25565000D01*
X40781335Y-25565000D01*
X40963887Y-25528688D01*
X41201197Y-25765998D01*
X41225000Y-25795002D01*
X41340725Y-25889975D01*
X41472754Y-25960547D01*
X41616015Y-26004004D01*
X41727668Y-26015001D01*
X41727677Y-26015001D01*
X41765000Y-26018677D01*
X41802323Y-26015001D01*
X54717677Y-26015001D01*
X54754999Y-26018677D01*
X54792321Y-26015001D01*
X54792332Y-26015001D01*
X54903985Y-26004004D01*
X55047246Y-25960547D01*
X55120000Y-25921658D01*
X55120000Y-26707332D01*
X55120001Y-26707342D01*
X55120001Y-26721956D01*
X54965241Y-26825363D01*
X54765363Y-27025241D01*
X54608320Y-27260273D01*
X54500147Y-27521426D01*
X54445000Y-27798665D01*
X54445000Y-28081335D01*
X54500147Y-28358574D01*
X54608320Y-28619727D01*
X54765363Y-28854759D01*
X54965241Y-29054637D01*
X55200273Y-29211680D01*
X55461426Y-29319853D01*
X55738665Y-29375000D01*
X56021335Y-29375000D01*
X56298574Y-29319853D01*
X56559727Y-29211680D01*
X56794759Y-29054637D01*
X56994637Y-28854759D01*
X57151680Y-28619727D01*
X57259853Y-28358574D01*
X57315000Y-28081335D01*
X57315000Y-27798665D01*
X57259853Y-27521426D01*
X57151680Y-27260273D01*
X56994637Y-27025241D01*
X56846896Y-26877500D01*
X61781928Y-26877500D01*
X61781928Y-27002500D01*
X61795389Y-27139175D01*
X61810807Y-27190000D01*
X61795389Y-27240825D01*
X61781928Y-27377500D01*
X61781928Y-27502500D01*
X61795389Y-27639175D01*
X61810807Y-27690000D01*
X61795389Y-27740825D01*
X61781928Y-27877500D01*
X61781928Y-28002500D01*
X61795389Y-28139175D01*
X61810807Y-28190000D01*
X61795389Y-28240825D01*
X61781928Y-28377500D01*
X61781928Y-28502500D01*
X61795389Y-28639175D01*
X61810807Y-28690000D01*
X61795389Y-28740825D01*
X61781928Y-28877500D01*
X61781928Y-29002500D01*
X61795389Y-29139175D01*
X61835256Y-29270597D01*
X61899996Y-29391717D01*
X61987121Y-29497879D01*
X62093283Y-29585004D01*
X62214403Y-29649744D01*
X62345825Y-29689611D01*
X62482500Y-29703072D01*
X63006928Y-29703072D01*
X63006928Y-30227500D01*
X63020389Y-30364175D01*
X63060256Y-30495597D01*
X63124996Y-30616717D01*
X63212121Y-30722879D01*
X63318283Y-30810004D01*
X63439403Y-30874744D01*
X63570825Y-30914611D01*
X63707500Y-30928072D01*
X63832500Y-30928072D01*
X63969175Y-30914611D01*
X64020000Y-30899193D01*
X64070825Y-30914611D01*
X64207500Y-30928072D01*
X64332500Y-30928072D01*
X64469175Y-30914611D01*
X64520000Y-30899193D01*
X64570825Y-30914611D01*
X64707500Y-30928072D01*
X64832500Y-30928072D01*
X64969175Y-30914611D01*
X65020000Y-30899193D01*
X65070825Y-30914611D01*
X65207500Y-30928072D01*
X65332500Y-30928072D01*
X65469175Y-30914611D01*
X65520000Y-30899193D01*
X65570825Y-30914611D01*
X65707500Y-30928072D01*
X65832500Y-30928072D01*
X65969175Y-30914611D01*
X66100597Y-30874744D01*
X66221717Y-30810004D01*
X66327879Y-30722879D01*
X66415004Y-30616717D01*
X66479744Y-30495597D01*
X66519611Y-30364175D01*
X66533072Y-30227500D01*
X66533072Y-29703072D01*
X67057500Y-29703072D01*
X67194175Y-29689611D01*
X67325597Y-29649744D01*
X67446717Y-29585004D01*
X67552879Y-29497879D01*
X67640004Y-29391717D01*
X67704744Y-29270597D01*
X67744611Y-29139175D01*
X67758072Y-29002500D01*
X67758072Y-28877500D01*
X67744611Y-28740825D01*
X67729193Y-28690000D01*
X67744611Y-28639175D01*
X67758072Y-28502500D01*
X67758072Y-28377500D01*
X67744611Y-28240825D01*
X67729193Y-28190000D01*
X67744611Y-28139175D01*
X67758072Y-28002500D01*
X67758072Y-27877500D01*
X67744611Y-27740825D01*
X67729193Y-27690000D01*
X67744611Y-27639175D01*
X67758072Y-27502500D01*
X67758072Y-27377500D01*
X67744611Y-27240825D01*
X67729193Y-27190000D01*
X67744611Y-27139175D01*
X67758072Y-27002500D01*
X67758072Y-26877500D01*
X67744611Y-26740825D01*
X67704744Y-26609403D01*
X67640004Y-26488283D01*
X67552879Y-26382121D01*
X67446717Y-26294996D01*
X67325597Y-26230256D01*
X67194175Y-26190389D01*
X67057500Y-26176928D01*
X66533072Y-26176928D01*
X66533072Y-25652500D01*
X66519611Y-25515825D01*
X66479744Y-25384403D01*
X66415004Y-25263283D01*
X66327879Y-25157121D01*
X66221717Y-25069996D01*
X66100597Y-25005256D01*
X65969175Y-24965389D01*
X65832500Y-24951928D01*
X65707500Y-24951928D01*
X65570825Y-24965389D01*
X65520000Y-24980807D01*
X65469175Y-24965389D01*
X65332500Y-24951928D01*
X65207500Y-24951928D01*
X65070825Y-24965389D01*
X65020000Y-24980807D01*
X64969175Y-24965389D01*
X64832500Y-24951928D01*
X64707500Y-24951928D01*
X64570825Y-24965389D01*
X64520000Y-24980807D01*
X64469175Y-24965389D01*
X64332500Y-24951928D01*
X64207500Y-24951928D01*
X64070825Y-24965389D01*
X64020000Y-24980807D01*
X63969175Y-24965389D01*
X63832500Y-24951928D01*
X63707500Y-24951928D01*
X63570825Y-24965389D01*
X63439403Y-25005256D01*
X63318283Y-25069996D01*
X63212121Y-25157121D01*
X63124996Y-25263283D01*
X63060256Y-25384403D01*
X63020389Y-25515825D01*
X63006928Y-25652500D01*
X63006928Y-26176928D01*
X62482500Y-26176928D01*
X62345825Y-26190389D01*
X62214403Y-26230256D01*
X62093283Y-26294996D01*
X61987121Y-26382121D01*
X61899996Y-26488283D01*
X61835256Y-26609403D01*
X61795389Y-26740825D01*
X61781928Y-26877500D01*
X56846896Y-26877500D01*
X56794759Y-26825363D01*
X56640000Y-26721957D01*
X56640000Y-25348043D01*
X56794759Y-25244637D01*
X56994637Y-25044759D01*
X57151680Y-24809727D01*
X57259853Y-24548574D01*
X57315000Y-24271335D01*
X57315000Y-23988665D01*
X57278688Y-23806114D01*
X57464802Y-23620000D01*
X63172687Y-23620000D01*
X63173992Y-23633254D01*
X63224528Y-23799850D01*
X63306595Y-23953386D01*
X63417038Y-24087962D01*
X63551614Y-24198405D01*
X63705150Y-24280472D01*
X63871746Y-24331008D01*
X64045000Y-24348072D01*
X64351521Y-24348072D01*
X64477754Y-24415546D01*
X64621015Y-24459003D01*
X64770000Y-24473677D01*
X64918986Y-24459003D01*
X65062247Y-24415546D01*
X65188480Y-24348072D01*
X65495000Y-24348072D01*
X65668254Y-24331008D01*
X65834850Y-24280472D01*
X65988386Y-24198405D01*
X66122962Y-24087962D01*
X66233405Y-23953386D01*
X66315472Y-23799850D01*
X66366008Y-23633254D01*
X66383072Y-23460000D01*
X66383072Y-22260000D01*
X66366008Y-22086746D01*
X66315472Y-21920150D01*
X66233405Y-21766614D01*
X66122962Y-21632038D01*
X65988386Y-21521595D01*
X65883039Y-21465286D01*
X65904429Y-21449049D01*
X66097496Y-21231193D01*
X66244352Y-20979858D01*
X66336476Y-20716890D01*
X66215155Y-20487000D01*
X64897000Y-20487000D01*
X64897000Y-20507000D01*
X64643000Y-20507000D01*
X64643000Y-20487000D01*
X63324845Y-20487000D01*
X63203524Y-20716890D01*
X63295648Y-20979858D01*
X63442504Y-21231193D01*
X63635571Y-21449049D01*
X63656961Y-21465286D01*
X63551614Y-21521595D01*
X63417038Y-21632038D01*
X63306595Y-21766614D01*
X63224528Y-21920150D01*
X63173992Y-22086746D01*
X63172687Y-22100000D01*
X57187322Y-22100000D01*
X57149999Y-22096324D01*
X57112676Y-22100000D01*
X57112667Y-22100000D01*
X57001014Y-22110997D01*
X56857753Y-22154454D01*
X56725724Y-22225026D01*
X56609999Y-22319999D01*
X56586201Y-22348997D01*
X56203886Y-22731312D01*
X56021335Y-22695000D01*
X55849801Y-22695000D01*
X59924802Y-18620000D01*
X63367405Y-18620000D01*
X63404294Y-18689014D01*
X63589866Y-18915134D01*
X63815986Y-19100706D01*
X63841722Y-19114462D01*
X63635571Y-19270951D01*
X63442504Y-19488807D01*
X63295648Y-19740142D01*
X63203524Y-20003110D01*
X63324845Y-20233000D01*
X64643000Y-20233000D01*
X64643000Y-20213000D01*
X64897000Y-20213000D01*
X64897000Y-20233000D01*
X66215155Y-20233000D01*
X66336476Y-20003110D01*
X66244352Y-19740142D01*
X66097496Y-19488807D01*
X65904429Y-19270951D01*
X65698278Y-19114462D01*
X65724014Y-19100706D01*
X65950134Y-18915134D01*
X66135706Y-18689014D01*
X66273599Y-18431034D01*
X66320345Y-18276935D01*
X66379974Y-18204276D01*
X66450546Y-18072247D01*
X66494003Y-17928986D01*
X66508677Y-17780000D01*
X66494003Y-17631014D01*
X66450546Y-17487753D01*
X66379974Y-17355724D01*
X66285001Y-17239999D01*
X66218062Y-17185064D01*
X66135706Y-17030986D01*
X65950134Y-16804866D01*
X65724014Y-16619294D01*
X65466034Y-16481401D01*
X65186111Y-16396487D01*
X64967950Y-16375000D01*
X64572050Y-16375000D01*
X64353889Y-16396487D01*
X64073966Y-16481401D01*
X63815986Y-16619294D01*
X63589866Y-16804866D01*
X63404294Y-17030986D01*
X63367405Y-17100000D01*
X59647322Y-17100000D01*
X59609999Y-17096324D01*
X59572676Y-17100000D01*
X59572667Y-17100000D01*
X59461014Y-17110997D01*
X59317753Y-17154454D01*
X59185723Y-17225026D01*
X59107813Y-17288966D01*
X59069999Y-17319999D01*
X59046201Y-17348997D01*
X53663887Y-22731312D01*
X53481335Y-22695000D01*
X53198665Y-22695000D01*
X52921426Y-22750147D01*
X52660273Y-22858320D01*
X52425241Y-23015363D01*
X52225363Y-23215241D01*
X52070000Y-23447759D01*
X51914637Y-23215241D01*
X51714759Y-23015363D01*
X51479727Y-22858320D01*
X51218574Y-22750147D01*
X50941335Y-22695000D01*
X50658665Y-22695000D01*
X50381426Y-22750147D01*
X50120273Y-22858320D01*
X49885241Y-23015363D01*
X49685363Y-23215241D01*
X49530000Y-23447759D01*
X49374637Y-23215241D01*
X49174759Y-23015363D01*
X48939727Y-22858320D01*
X48678574Y-22750147D01*
X48401335Y-22695000D01*
X48118665Y-22695000D01*
X47841426Y-22750147D01*
X47580273Y-22858320D01*
X47345241Y-23015363D01*
X47145363Y-23215241D01*
X46988320Y-23450273D01*
X46880147Y-23711426D01*
X46825000Y-23988665D01*
X46825000Y-24271335D01*
X46869491Y-24495001D01*
X42079802Y-24495001D01*
X42038688Y-24453887D01*
X42075000Y-24271335D01*
X42075000Y-23988665D01*
X42038688Y-23806113D01*
X42275999Y-23568802D01*
X42305002Y-23545000D01*
X42399975Y-23429275D01*
X42470547Y-23297246D01*
X42514004Y-23153985D01*
X42525001Y-23042332D01*
X42525001Y-23042323D01*
X42528677Y-23005000D01*
X42525001Y-22967677D01*
X42525001Y-16859040D01*
X46868091Y-16859040D01*
X46962930Y-17123881D01*
X47107615Y-17365131D01*
X47296586Y-17573519D01*
X47522580Y-17741037D01*
X47776913Y-17861246D01*
X47910961Y-17901904D01*
X48133000Y-17779915D01*
X48133000Y-16637000D01*
X46989376Y-16637000D01*
X46868091Y-16859040D01*
X42525001Y-16859040D01*
X42525001Y-16160960D01*
X46868091Y-16160960D01*
X46989376Y-16383000D01*
X48133000Y-16383000D01*
X48133000Y-15240085D01*
X48387000Y-15240085D01*
X48387000Y-16383000D01*
X48407000Y-16383000D01*
X48407000Y-16637000D01*
X48387000Y-16637000D01*
X48387000Y-17779915D01*
X48609039Y-17901904D01*
X48743087Y-17861246D01*
X48997420Y-17741037D01*
X49223414Y-17573519D01*
X49412385Y-17365131D01*
X49523933Y-17179135D01*
X49528320Y-17189727D01*
X49685363Y-17424759D01*
X49885241Y-17624637D01*
X50120273Y-17781680D01*
X50381426Y-17889853D01*
X50658665Y-17945000D01*
X50941335Y-17945000D01*
X51218574Y-17889853D01*
X51479727Y-17781680D01*
X51714759Y-17624637D01*
X51914637Y-17424759D01*
X52070000Y-17192241D01*
X52225363Y-17424759D01*
X52425241Y-17624637D01*
X52660273Y-17781680D01*
X52921426Y-17889853D01*
X53198665Y-17945000D01*
X53481335Y-17945000D01*
X53758574Y-17889853D01*
X54019727Y-17781680D01*
X54254759Y-17624637D01*
X54453357Y-17426039D01*
X54454188Y-17434482D01*
X54490498Y-17554180D01*
X54549463Y-17664494D01*
X54628815Y-17761185D01*
X54725506Y-17840537D01*
X54835820Y-17899502D01*
X54955518Y-17935812D01*
X55080000Y-17948072D01*
X56680000Y-17948072D01*
X56804482Y-17935812D01*
X56924180Y-17899502D01*
X57034494Y-17840537D01*
X57131185Y-17761185D01*
X57210537Y-17664494D01*
X57269502Y-17554180D01*
X57305812Y-17434482D01*
X57318072Y-17310000D01*
X57318072Y-15710000D01*
X57305812Y-15585518D01*
X57269502Y-15465820D01*
X57210537Y-15355506D01*
X57131185Y-15258815D01*
X57034494Y-15179463D01*
X56924180Y-15120498D01*
X56804482Y-15084188D01*
X56680000Y-15071928D01*
X55080000Y-15071928D01*
X54955518Y-15084188D01*
X54835820Y-15120498D01*
X54725506Y-15179463D01*
X54628815Y-15258815D01*
X54549463Y-15355506D01*
X54490498Y-15465820D01*
X54454188Y-15585518D01*
X54453357Y-15593961D01*
X54254759Y-15395363D01*
X54019727Y-15238320D01*
X53758574Y-15130147D01*
X53481335Y-15075000D01*
X53198665Y-15075000D01*
X52921426Y-15130147D01*
X52660273Y-15238320D01*
X52425241Y-15395363D01*
X52225363Y-15595241D01*
X52070000Y-15827759D01*
X51914637Y-15595241D01*
X51714759Y-15395363D01*
X51479727Y-15238320D01*
X51218574Y-15130147D01*
X50941335Y-15075000D01*
X50658665Y-15075000D01*
X50381426Y-15130147D01*
X50120273Y-15238320D01*
X49885241Y-15395363D01*
X49685363Y-15595241D01*
X49528320Y-15830273D01*
X49523933Y-15840865D01*
X49412385Y-15654869D01*
X49223414Y-15446481D01*
X48997420Y-15278963D01*
X48743087Y-15158754D01*
X48609039Y-15118096D01*
X48387000Y-15240085D01*
X48133000Y-15240085D01*
X47910961Y-15118096D01*
X47776913Y-15158754D01*
X47522580Y-15278963D01*
X47296586Y-15446481D01*
X47107615Y-15654869D01*
X46962930Y-15896119D01*
X46868091Y-16160960D01*
X42525001Y-16160960D01*
X42525001Y-15487322D01*
X42528677Y-15449999D01*
X42525001Y-15412677D01*
X42525001Y-15412666D01*
X42514004Y-15301013D01*
X42470547Y-15157752D01*
X42399975Y-15025723D01*
X42305002Y-14909998D01*
X42275998Y-14886195D01*
X42263805Y-14874002D01*
X42240002Y-14844998D01*
X42124277Y-14750025D01*
X41992248Y-14679453D01*
X41848987Y-14635996D01*
X41737334Y-14624999D01*
X41737323Y-14624999D01*
X41700001Y-14621323D01*
X41662679Y-14624999D01*
X34182323Y-14624999D01*
X34145000Y-14621323D01*
X34107677Y-14624999D01*
X34107668Y-14624999D01*
X33996015Y-14635996D01*
X33852754Y-14679453D01*
X33720725Y-14750025D01*
X33605000Y-14844998D01*
X33581197Y-14874002D01*
X33343887Y-15111312D01*
X33161335Y-15075000D01*
X32878665Y-15075000D01*
X32601426Y-15130147D01*
X32340273Y-15238320D01*
X32105241Y-15395363D01*
X31905363Y-15595241D01*
X31748320Y-15830273D01*
X31640147Y-16091426D01*
X31585000Y-16368665D01*
X31585000Y-16651335D01*
X31640147Y-16928574D01*
X31748320Y-17189727D01*
X31905363Y-17424759D01*
X32105241Y-17624637D01*
X32340273Y-17781680D01*
X32601426Y-17889853D01*
X32878665Y-17945000D01*
X33050198Y-17945000D01*
X29052297Y-21942901D01*
X28854759Y-21745363D01*
X28619727Y-21588320D01*
X28358574Y-21480147D01*
X28081335Y-21425000D01*
X27798665Y-21425000D01*
X27521426Y-21480147D01*
X27260273Y-21588320D01*
X27025241Y-21745363D01*
X26825363Y-21945241D01*
X26668320Y-22180273D01*
X26560147Y-22441426D01*
X26505000Y-22718665D01*
X24137892Y-22718665D01*
X24114494Y-22699463D01*
X24004180Y-22640498D01*
X23884482Y-22604188D01*
X23760000Y-22591928D01*
X21960000Y-22591928D01*
X21835518Y-22604188D01*
X21715820Y-22640498D01*
X21605506Y-22699463D01*
X21508815Y-22778815D01*
X21429463Y-22875506D01*
X21370498Y-22985820D01*
X21334188Y-23105518D01*
X21321928Y-23230000D01*
X21321928Y-25030000D01*
X21334188Y-25154482D01*
X21370498Y-25274180D01*
X21429463Y-25384494D01*
X21508815Y-25481185D01*
X21605506Y-25560537D01*
X21715820Y-25619502D01*
X21835518Y-25655812D01*
X21960000Y-25668072D01*
X22100000Y-25668072D01*
X22100001Y-26721956D01*
X21945241Y-26825363D01*
X21745363Y-27025241D01*
X21668684Y-27140000D01*
X18998043Y-27140000D01*
X18894637Y-26985241D01*
X18694759Y-26785363D01*
X18494131Y-26651308D01*
X18521514Y-26636671D01*
X18593097Y-26392702D01*
X17780000Y-25579605D01*
X16966903Y-26392702D01*
X17038486Y-26636671D01*
X17067341Y-26650324D01*
X16865241Y-26785363D01*
X16665363Y-26985241D01*
X16508320Y-27220273D01*
X16400147Y-27481426D01*
X16345000Y-27758665D01*
X13360000Y-27758665D01*
X13360000Y-25470512D01*
X16339783Y-25470512D01*
X16381213Y-25750130D01*
X16476397Y-26016292D01*
X16543329Y-26141514D01*
X16787298Y-26213097D01*
X17600395Y-25400000D01*
X17959605Y-25400000D01*
X18772702Y-26213097D01*
X19016671Y-26141514D01*
X19137571Y-25886004D01*
X19206300Y-25611816D01*
X19220217Y-25329488D01*
X19178787Y-25049870D01*
X19083603Y-24783708D01*
X19016671Y-24658486D01*
X18772702Y-24586903D01*
X17959605Y-25400000D01*
X17600395Y-25400000D01*
X16787298Y-24586903D01*
X16543329Y-24658486D01*
X16422429Y-24913996D01*
X16353700Y-25188184D01*
X16339783Y-25470512D01*
X13360000Y-25470512D01*
X13360000Y-24407298D01*
X16966903Y-24407298D01*
X17780000Y-25220395D01*
X18593097Y-24407298D01*
X18521514Y-24163329D01*
X18266004Y-24042429D01*
X17991816Y-23973700D01*
X17709488Y-23959783D01*
X17429870Y-24001213D01*
X17163708Y-24096397D01*
X17038486Y-24163329D01*
X16966903Y-24407298D01*
X13360000Y-24407298D01*
X13360000Y-21050000D01*
X15566928Y-21050000D01*
X15579188Y-21174482D01*
X15615498Y-21294180D01*
X15674463Y-21404494D01*
X15753815Y-21501185D01*
X15850506Y-21580537D01*
X15960820Y-21639502D01*
X16080518Y-21675812D01*
X16205000Y-21688072D01*
X17019250Y-21685000D01*
X17178000Y-21526250D01*
X17178000Y-20652000D01*
X17432000Y-20652000D01*
X17432000Y-21526250D01*
X17590750Y-21685000D01*
X18405000Y-21688072D01*
X18529482Y-21675812D01*
X18649180Y-21639502D01*
X18759494Y-21580537D01*
X18856185Y-21501185D01*
X18935537Y-21404494D01*
X18994502Y-21294180D01*
X19030812Y-21174482D01*
X19043072Y-21050000D01*
X19040000Y-20810750D01*
X18881250Y-20652000D01*
X17432000Y-20652000D01*
X17178000Y-20652000D01*
X15728750Y-20652000D01*
X15570000Y-20810750D01*
X15566928Y-21050000D01*
X13360000Y-21050000D01*
X13360000Y-20000000D01*
X15566928Y-20000000D01*
X15570000Y-20239250D01*
X15728750Y-20398000D01*
X17178000Y-20398000D01*
X17178000Y-19523750D01*
X17019250Y-19365000D01*
X16205000Y-19361928D01*
X16080518Y-19374188D01*
X15960820Y-19410498D01*
X15850506Y-19469463D01*
X15753815Y-19548815D01*
X15674463Y-19645506D01*
X15615498Y-19755820D01*
X15579188Y-19875518D01*
X15566928Y-20000000D01*
X13360000Y-20000000D01*
X13360000Y-18100000D01*
X15566928Y-18100000D01*
X15579188Y-18224482D01*
X15615498Y-18344180D01*
X15674463Y-18454494D01*
X15753815Y-18551185D01*
X15850506Y-18630537D01*
X15960820Y-18689502D01*
X16080518Y-18725812D01*
X16205000Y-18738072D01*
X17019250Y-18735000D01*
X17178000Y-18576250D01*
X17178000Y-17702000D01*
X15728750Y-17702000D01*
X15570000Y-17860750D01*
X15566928Y-18100000D01*
X13360000Y-18100000D01*
X13360000Y-17050000D01*
X15566928Y-17050000D01*
X15570000Y-17289250D01*
X15728750Y-17448000D01*
X17178000Y-17448000D01*
X17178000Y-16573750D01*
X17432000Y-16573750D01*
X17432000Y-17448000D01*
X17452000Y-17448000D01*
X17452000Y-17702000D01*
X17432000Y-17702000D01*
X17432000Y-18576250D01*
X17590750Y-18735000D01*
X17666928Y-18735287D01*
X17666928Y-19364713D01*
X17590750Y-19365000D01*
X17432000Y-19523750D01*
X17432000Y-20398000D01*
X18881250Y-20398000D01*
X19040000Y-20239250D01*
X19040657Y-20188072D01*
X19355000Y-20188072D01*
X19479482Y-20175812D01*
X19599180Y-20139502D01*
X19709494Y-20080537D01*
X19806185Y-20001185D01*
X19885537Y-19904494D01*
X19944502Y-19794180D01*
X19980812Y-19674482D01*
X19993072Y-19550000D01*
X19993072Y-18550000D01*
X19980812Y-18425518D01*
X19944502Y-18305820D01*
X19928646Y-18276156D01*
X20934802Y-17270000D01*
X21521687Y-17270000D01*
X21667688Y-17488505D01*
X21881495Y-17702312D01*
X22132905Y-17870299D01*
X22412257Y-17986011D01*
X22708816Y-18045000D01*
X23011184Y-18045000D01*
X23268930Y-17993731D01*
X23566201Y-18291003D01*
X23589999Y-18320001D01*
X23705724Y-18414974D01*
X23837753Y-18485546D01*
X23981014Y-18529003D01*
X24092667Y-18540000D01*
X24092676Y-18540000D01*
X24129999Y-18543676D01*
X24167322Y-18540000D01*
X26721957Y-18540000D01*
X26825363Y-18694759D01*
X27025241Y-18894637D01*
X27260273Y-19051680D01*
X27521426Y-19159853D01*
X27798665Y-19215000D01*
X28081335Y-19215000D01*
X28358574Y-19159853D01*
X28619727Y-19051680D01*
X28854759Y-18894637D01*
X29054637Y-18694759D01*
X29211680Y-18459727D01*
X29319853Y-18198574D01*
X29375000Y-17921335D01*
X29375000Y-17638665D01*
X29319853Y-17361426D01*
X29211680Y-17100273D01*
X29054637Y-16865241D01*
X28854759Y-16665363D01*
X28619727Y-16508320D01*
X28358574Y-16400147D01*
X28081335Y-16345000D01*
X27798665Y-16345000D01*
X27521426Y-16400147D01*
X27260273Y-16508320D01*
X27025241Y-16665363D01*
X26825363Y-16865241D01*
X26721957Y-17020000D01*
X24444802Y-17020000D01*
X24343731Y-16918930D01*
X24395000Y-16661184D01*
X24395000Y-16358816D01*
X24336011Y-16062257D01*
X24220299Y-15782905D01*
X24052312Y-15531495D01*
X23838505Y-15317688D01*
X23587095Y-15149701D01*
X23307743Y-15033989D01*
X23011184Y-14975000D01*
X22708816Y-14975000D01*
X22412257Y-15033989D01*
X22132905Y-15149701D01*
X21881495Y-15317688D01*
X21667688Y-15531495D01*
X21521687Y-15750000D01*
X20657322Y-15750000D01*
X20619999Y-15746324D01*
X20582676Y-15750000D01*
X20582667Y-15750000D01*
X20471014Y-15760997D01*
X20327753Y-15804454D01*
X20195724Y-15875026D01*
X20079999Y-15969999D01*
X20056201Y-15998997D01*
X19039676Y-17015522D01*
X19030812Y-16925518D01*
X18994502Y-16805820D01*
X18935537Y-16695506D01*
X18856185Y-16598815D01*
X18759494Y-16519463D01*
X18649180Y-16460498D01*
X18529482Y-16424188D01*
X18405000Y-16411928D01*
X17590750Y-16415000D01*
X17432000Y-16573750D01*
X17178000Y-16573750D01*
X17019250Y-16415000D01*
X16205000Y-16411928D01*
X16080518Y-16424188D01*
X15960820Y-16460498D01*
X15850506Y-16519463D01*
X15753815Y-16598815D01*
X15674463Y-16695506D01*
X15615498Y-16805820D01*
X15579188Y-16925518D01*
X15566928Y-17050000D01*
X13360000Y-17050000D01*
X13360000Y-13360000D01*
X67920000Y-13360000D01*
X67920001Y-31090000D01*
G37*
X67920001Y-31090000D02*
X13360000Y-31090000D01*
X13360000Y-27758665D01*
X16345000Y-27758665D01*
X16345000Y-28041335D01*
X16400147Y-28318574D01*
X16508320Y-28579727D01*
X16665363Y-28814759D01*
X16865241Y-29014637D01*
X17100273Y-29171680D01*
X17361426Y-29279853D01*
X17638665Y-29335000D01*
X17921335Y-29335000D01*
X18198574Y-29279853D01*
X18459727Y-29171680D01*
X18694759Y-29014637D01*
X18894637Y-28814759D01*
X18998043Y-28660000D01*
X21615229Y-28660000D01*
X21745363Y-28854759D01*
X21945241Y-29054637D01*
X22180273Y-29211680D01*
X22441426Y-29319853D01*
X22718665Y-29375000D01*
X23001335Y-29375000D01*
X23278574Y-29319853D01*
X23539727Y-29211680D01*
X23774759Y-29054637D01*
X23896694Y-28932702D01*
X27126903Y-28932702D01*
X27198486Y-29176671D01*
X27453996Y-29297571D01*
X27728184Y-29366300D01*
X28010512Y-29380217D01*
X28290130Y-29338787D01*
X28556292Y-29243603D01*
X28681514Y-29176671D01*
X28753097Y-28932702D01*
X30936903Y-28932702D01*
X31008486Y-29176671D01*
X31263996Y-29297571D01*
X31538184Y-29366300D01*
X31820512Y-29380217D01*
X32100130Y-29338787D01*
X32366292Y-29243603D01*
X32491514Y-29176671D01*
X32563097Y-28932702D01*
X31750000Y-28119605D01*
X30936903Y-28932702D01*
X28753097Y-28932702D01*
X27940000Y-28119605D01*
X27126903Y-28932702D01*
X23896694Y-28932702D01*
X23974637Y-28854759D01*
X24131680Y-28619727D01*
X24239853Y-28358574D01*
X24295000Y-28081335D01*
X24295000Y-28010512D01*
X26499783Y-28010512D01*
X26541213Y-28290130D01*
X26636397Y-28556292D01*
X26703329Y-28681514D01*
X26947298Y-28753097D01*
X27760395Y-27940000D01*
X28119605Y-27940000D01*
X28932702Y-28753097D01*
X29176671Y-28681514D01*
X29297571Y-28426004D01*
X29366300Y-28151816D01*
X29373265Y-28010512D01*
X30309783Y-28010512D01*
X30351213Y-28290130D01*
X30446397Y-28556292D01*
X30513329Y-28681514D01*
X30757298Y-28753097D01*
X31570395Y-27940000D01*
X30757298Y-27126903D01*
X30513329Y-27198486D01*
X30392429Y-27453996D01*
X30323700Y-27728184D01*
X30309783Y-28010512D01*
X29373265Y-28010512D01*
X29380217Y-27869488D01*
X29338787Y-27589870D01*
X29243603Y-27323708D01*
X29176671Y-27198486D01*
X28932702Y-27126903D01*
X28119605Y-27940000D01*
X27760395Y-27940000D01*
X26947298Y-27126903D01*
X26703329Y-27198486D01*
X26582429Y-27453996D01*
X26513700Y-27728184D01*
X26499783Y-28010512D01*
X24295000Y-28010512D01*
X24295000Y-27798665D01*
X24239853Y-27521426D01*
X24131680Y-27260273D01*
X23974637Y-27025241D01*
X23896694Y-26947298D01*
X27126903Y-26947298D01*
X27940000Y-27760395D01*
X28753097Y-26947298D01*
X30936903Y-26947298D01*
X31750000Y-27760395D01*
X32563097Y-26947298D01*
X32491514Y-26703329D01*
X32236004Y-26582429D01*
X31961816Y-26513700D01*
X31679488Y-26499783D01*
X31399870Y-26541213D01*
X31133708Y-26636397D01*
X31008486Y-26703329D01*
X30936903Y-26947298D01*
X28753097Y-26947298D01*
X28681514Y-26703329D01*
X28426004Y-26582429D01*
X28151816Y-26513700D01*
X27869488Y-26499783D01*
X27589870Y-26541213D01*
X27323708Y-26636397D01*
X27198486Y-26703329D01*
X27126903Y-26947298D01*
X23896694Y-26947298D01*
X23774759Y-26825363D01*
X23620000Y-26721957D01*
X23620000Y-25668072D01*
X23760000Y-25668072D01*
X23884482Y-25655812D01*
X24004180Y-25619502D01*
X24114494Y-25560537D01*
X24211185Y-25481185D01*
X24290537Y-25384494D01*
X24349502Y-25274180D01*
X24385812Y-25154482D01*
X24398072Y-25030000D01*
X24398072Y-24479040D01*
X31628091Y-24479040D01*
X31722930Y-24743881D01*
X31867615Y-24985131D01*
X32056586Y-25193519D01*
X32282580Y-25361037D01*
X32536913Y-25481246D01*
X32670961Y-25521904D01*
X32893000Y-25399915D01*
X32893000Y-24257000D01*
X31749376Y-24257000D01*
X31628091Y-24479040D01*
X24398072Y-24479040D01*
X24398072Y-23230000D01*
X24385812Y-23105518D01*
X24349502Y-22985820D01*
X24290537Y-22875506D01*
X24211185Y-22778815D01*
X24137892Y-22718665D01*
X26505000Y-22718665D01*
X26505000Y-23001335D01*
X26560147Y-23278574D01*
X26668320Y-23539727D01*
X26825363Y-23774759D01*
X27025241Y-23974637D01*
X27260273Y-24131680D01*
X27521426Y-24239853D01*
X27798665Y-24295000D01*
X28081335Y-24295000D01*
X28358574Y-24239853D01*
X28619727Y-24131680D01*
X28854759Y-23974637D01*
X29048436Y-23780960D01*
X31628091Y-23780960D01*
X31749376Y-24003000D01*
X32893000Y-24003000D01*
X32893000Y-22860085D01*
X32670961Y-22738096D01*
X32536913Y-22778754D01*
X32282580Y-22898963D01*
X32056586Y-23066481D01*
X31867615Y-23274869D01*
X31722930Y-23516119D01*
X31628091Y-23780960D01*
X29048436Y-23780960D01*
X29054637Y-23774759D01*
X29158043Y-23620000D01*
X29172678Y-23620000D01*
X29210000Y-23623676D01*
X29247322Y-23620000D01*
X29247333Y-23620000D01*
X29358986Y-23609003D01*
X29502247Y-23565546D01*
X29634276Y-23494974D01*
X29750001Y-23400001D01*
X29773804Y-23370997D01*
X35236114Y-17908688D01*
X35418665Y-17945000D01*
X35701335Y-17945000D01*
X35978574Y-17889853D01*
X36239727Y-17781680D01*
X36474759Y-17624637D01*
X36674637Y-17424759D01*
X36830000Y-17192241D01*
X36985363Y-17424759D01*
X37185241Y-17624637D01*
X37340000Y-17728044D01*
X37340001Y-21275196D01*
X35883886Y-22731312D01*
X35701335Y-22695000D01*
X35418665Y-22695000D01*
X35141426Y-22750147D01*
X34880273Y-22858320D01*
X34645241Y-23015363D01*
X34445363Y-23215241D01*
X34288320Y-23450273D01*
X34283933Y-23460865D01*
X34172385Y-23274869D01*
X33983414Y-23066481D01*
X33757420Y-22898963D01*
X33503087Y-22778754D01*
X33369039Y-22738096D01*
X33147000Y-22860085D01*
X33147000Y-24003000D01*
X33167000Y-24003000D01*
X33167000Y-24257000D01*
X33147000Y-24257000D01*
X33147000Y-25399915D01*
X33369039Y-25521904D01*
X33503087Y-25481246D01*
X33757420Y-25361037D01*
X33983414Y-25193519D01*
X34172385Y-24985131D01*
X34283933Y-24799135D01*
X34288320Y-24809727D01*
X34445363Y-25044759D01*
X34645241Y-25244637D01*
X34880273Y-25401680D01*
X35141426Y-25509853D01*
X35418665Y-25565000D01*
X35701335Y-25565000D01*
X35978574Y-25509853D01*
X36239727Y-25401680D01*
X36474759Y-25244637D01*
X36674637Y-25044759D01*
X36830000Y-24812241D01*
X36985363Y-25044759D01*
X37185241Y-25244637D01*
X37420273Y-25401680D01*
X37681426Y-25509853D01*
X37958665Y-25565000D01*
X38241335Y-25565000D01*
X38423887Y-25528688D01*
X39400199Y-26505000D01*
X39228665Y-26505000D01*
X38951426Y-26560147D01*
X38690273Y-26668320D01*
X38455241Y-26825363D01*
X38255363Y-27025241D01*
X38151957Y-27180000D01*
X35468043Y-27180000D01*
X35364637Y-27025241D01*
X35164759Y-26825363D01*
X34929727Y-26668320D01*
X34668574Y-26560147D01*
X34391335Y-26505000D01*
X34108665Y-26505000D01*
X33831426Y-26560147D01*
X33570273Y-26668320D01*
X33335241Y-26825363D01*
X33135363Y-27025241D01*
X33001308Y-27225869D01*
X32986671Y-27198486D01*
X32742702Y-27126903D01*
X31929605Y-27940000D01*
X32742702Y-28753097D01*
X32986671Y-28681514D01*
X33000324Y-28652659D01*
X33135363Y-28854759D01*
X33335241Y-29054637D01*
X33570273Y-29211680D01*
X33831426Y-29319853D01*
X34108665Y-29375000D01*
X34391335Y-29375000D01*
X34668574Y-29319853D01*
X34929727Y-29211680D01*
X35164759Y-29054637D01*
X35364637Y-28854759D01*
X35468043Y-28700000D01*
X38151957Y-28700000D01*
X38255363Y-28854759D01*
X38455241Y-29054637D01*
X38690273Y-29211680D01*
X38951426Y-29319853D01*
X39228665Y-29375000D01*
X39511335Y-29375000D01*
X39788574Y-29319853D01*
X40049727Y-29211680D01*
X40284759Y-29054637D01*
X40484637Y-28854759D01*
X40641680Y-28619727D01*
X40749853Y-28358574D01*
X40805000Y-28081335D01*
X40805000Y-27909802D01*
X41346201Y-28451003D01*
X41369999Y-28480001D01*
X41485724Y-28574974D01*
X41617753Y-28645546D01*
X41761014Y-28689003D01*
X41872667Y-28700000D01*
X41872675Y-28700000D01*
X41910000Y-28703676D01*
X41947325Y-28700000D01*
X43231957Y-28700000D01*
X43335363Y-28854759D01*
X43535241Y-29054637D01*
X43770273Y-29211680D01*
X44031426Y-29319853D01*
X44308665Y-29375000D01*
X44591335Y-29375000D01*
X44868574Y-29319853D01*
X45129727Y-29211680D01*
X45364759Y-29054637D01*
X45564637Y-28854759D01*
X45721680Y-28619727D01*
X45829853Y-28358574D01*
X45885000Y-28081335D01*
X45885000Y-27798665D01*
X49365000Y-27798665D01*
X49365000Y-28081335D01*
X49420147Y-28358574D01*
X49528320Y-28619727D01*
X49685363Y-28854759D01*
X49885241Y-29054637D01*
X50120273Y-29211680D01*
X50381426Y-29319853D01*
X50658665Y-29375000D01*
X50941335Y-29375000D01*
X51218574Y-29319853D01*
X51479727Y-29211680D01*
X51714759Y-29054637D01*
X51914637Y-28854759D01*
X52071680Y-28619727D01*
X52179853Y-28358574D01*
X52235000Y-28081335D01*
X52235000Y-27798665D01*
X52179853Y-27521426D01*
X52071680Y-27260273D01*
X51914637Y-27025241D01*
X51714759Y-26825363D01*
X51479727Y-26668320D01*
X51218574Y-26560147D01*
X50941335Y-26505000D01*
X50658665Y-26505000D01*
X50381426Y-26560147D01*
X50120273Y-26668320D01*
X49885241Y-26825363D01*
X49685363Y-27025241D01*
X49528320Y-27260273D01*
X49420147Y-27521426D01*
X49365000Y-27798665D01*
X45885000Y-27798665D01*
X45829853Y-27521426D01*
X45721680Y-27260273D01*
X45564637Y-27025241D01*
X45364759Y-26825363D01*
X45129727Y-26668320D01*
X44868574Y-26560147D01*
X44591335Y-26505000D01*
X44308665Y-26505000D01*
X44031426Y-26560147D01*
X43770273Y-26668320D01*
X43535241Y-26825363D01*
X43335363Y-27025241D01*
X43231957Y-27180000D01*
X42224802Y-27180000D01*
X40609802Y-25565000D01*
X40781335Y-25565000D01*
X40963887Y-25528688D01*
X41201197Y-25765998D01*
X41225000Y-25795002D01*
X41340725Y-25889975D01*
X41472754Y-25960547D01*
X41616015Y-26004004D01*
X41727668Y-26015001D01*
X41727677Y-26015001D01*
X41765000Y-26018677D01*
X41802323Y-26015001D01*
X54717677Y-26015001D01*
X54754999Y-26018677D01*
X54792321Y-26015001D01*
X54792332Y-26015001D01*
X54903985Y-26004004D01*
X55047246Y-25960547D01*
X55120000Y-25921658D01*
X55120000Y-26707332D01*
X55120001Y-26707342D01*
X55120001Y-26721956D01*
X54965241Y-26825363D01*
X54765363Y-27025241D01*
X54608320Y-27260273D01*
X54500147Y-27521426D01*
X54445000Y-27798665D01*
X54445000Y-28081335D01*
X54500147Y-28358574D01*
X54608320Y-28619727D01*
X54765363Y-28854759D01*
X54965241Y-29054637D01*
X55200273Y-29211680D01*
X55461426Y-29319853D01*
X55738665Y-29375000D01*
X56021335Y-29375000D01*
X56298574Y-29319853D01*
X56559727Y-29211680D01*
X56794759Y-29054637D01*
X56994637Y-28854759D01*
X57151680Y-28619727D01*
X57259853Y-28358574D01*
X57315000Y-28081335D01*
X57315000Y-27798665D01*
X57259853Y-27521426D01*
X57151680Y-27260273D01*
X56994637Y-27025241D01*
X56846896Y-26877500D01*
X61781928Y-26877500D01*
X61781928Y-27002500D01*
X61795389Y-27139175D01*
X61810807Y-27190000D01*
X61795389Y-27240825D01*
X61781928Y-27377500D01*
X61781928Y-27502500D01*
X61795389Y-27639175D01*
X61810807Y-27690000D01*
X61795389Y-27740825D01*
X61781928Y-27877500D01*
X61781928Y-28002500D01*
X61795389Y-28139175D01*
X61810807Y-28190000D01*
X61795389Y-28240825D01*
X61781928Y-28377500D01*
X61781928Y-28502500D01*
X61795389Y-28639175D01*
X61810807Y-28690000D01*
X61795389Y-28740825D01*
X61781928Y-28877500D01*
X61781928Y-29002500D01*
X61795389Y-29139175D01*
X61835256Y-29270597D01*
X61899996Y-29391717D01*
X61987121Y-29497879D01*
X62093283Y-29585004D01*
X62214403Y-29649744D01*
X62345825Y-29689611D01*
X62482500Y-29703072D01*
X63006928Y-29703072D01*
X63006928Y-30227500D01*
X63020389Y-30364175D01*
X63060256Y-30495597D01*
X63124996Y-30616717D01*
X63212121Y-30722879D01*
X63318283Y-30810004D01*
X63439403Y-30874744D01*
X63570825Y-30914611D01*
X63707500Y-30928072D01*
X63832500Y-30928072D01*
X63969175Y-30914611D01*
X64020000Y-30899193D01*
X64070825Y-30914611D01*
X64207500Y-30928072D01*
X64332500Y-30928072D01*
X64469175Y-30914611D01*
X64520000Y-30899193D01*
X64570825Y-30914611D01*
X64707500Y-30928072D01*
X64832500Y-30928072D01*
X64969175Y-30914611D01*
X65020000Y-30899193D01*
X65070825Y-30914611D01*
X65207500Y-30928072D01*
X65332500Y-30928072D01*
X65469175Y-30914611D01*
X65520000Y-30899193D01*
X65570825Y-30914611D01*
X65707500Y-30928072D01*
X65832500Y-30928072D01*
X65969175Y-30914611D01*
X66100597Y-30874744D01*
X66221717Y-30810004D01*
X66327879Y-30722879D01*
X66415004Y-30616717D01*
X66479744Y-30495597D01*
X66519611Y-30364175D01*
X66533072Y-30227500D01*
X66533072Y-29703072D01*
X67057500Y-29703072D01*
X67194175Y-29689611D01*
X67325597Y-29649744D01*
X67446717Y-29585004D01*
X67552879Y-29497879D01*
X67640004Y-29391717D01*
X67704744Y-29270597D01*
X67744611Y-29139175D01*
X67758072Y-29002500D01*
X67758072Y-28877500D01*
X67744611Y-28740825D01*
X67729193Y-28690000D01*
X67744611Y-28639175D01*
X67758072Y-28502500D01*
X67758072Y-28377500D01*
X67744611Y-28240825D01*
X67729193Y-28190000D01*
X67744611Y-28139175D01*
X67758072Y-28002500D01*
X67758072Y-27877500D01*
X67744611Y-27740825D01*
X67729193Y-27690000D01*
X67744611Y-27639175D01*
X67758072Y-27502500D01*
X67758072Y-27377500D01*
X67744611Y-27240825D01*
X67729193Y-27190000D01*
X67744611Y-27139175D01*
X67758072Y-27002500D01*
X67758072Y-26877500D01*
X67744611Y-26740825D01*
X67704744Y-26609403D01*
X67640004Y-26488283D01*
X67552879Y-26382121D01*
X67446717Y-26294996D01*
X67325597Y-26230256D01*
X67194175Y-26190389D01*
X67057500Y-26176928D01*
X66533072Y-26176928D01*
X66533072Y-25652500D01*
X66519611Y-25515825D01*
X66479744Y-25384403D01*
X66415004Y-25263283D01*
X66327879Y-25157121D01*
X66221717Y-25069996D01*
X66100597Y-25005256D01*
X65969175Y-24965389D01*
X65832500Y-24951928D01*
X65707500Y-24951928D01*
X65570825Y-24965389D01*
X65520000Y-24980807D01*
X65469175Y-24965389D01*
X65332500Y-24951928D01*
X65207500Y-24951928D01*
X65070825Y-24965389D01*
X65020000Y-24980807D01*
X64969175Y-24965389D01*
X64832500Y-24951928D01*
X64707500Y-24951928D01*
X64570825Y-24965389D01*
X64520000Y-24980807D01*
X64469175Y-24965389D01*
X64332500Y-24951928D01*
X64207500Y-24951928D01*
X64070825Y-24965389D01*
X64020000Y-24980807D01*
X63969175Y-24965389D01*
X63832500Y-24951928D01*
X63707500Y-24951928D01*
X63570825Y-24965389D01*
X63439403Y-25005256D01*
X63318283Y-25069996D01*
X63212121Y-25157121D01*
X63124996Y-25263283D01*
X63060256Y-25384403D01*
X63020389Y-25515825D01*
X63006928Y-25652500D01*
X63006928Y-26176928D01*
X62482500Y-26176928D01*
X62345825Y-26190389D01*
X62214403Y-26230256D01*
X62093283Y-26294996D01*
X61987121Y-26382121D01*
X61899996Y-26488283D01*
X61835256Y-26609403D01*
X61795389Y-26740825D01*
X61781928Y-26877500D01*
X56846896Y-26877500D01*
X56794759Y-26825363D01*
X56640000Y-26721957D01*
X56640000Y-25348043D01*
X56794759Y-25244637D01*
X56994637Y-25044759D01*
X57151680Y-24809727D01*
X57259853Y-24548574D01*
X57315000Y-24271335D01*
X57315000Y-23988665D01*
X57278688Y-23806114D01*
X57464802Y-23620000D01*
X63172687Y-23620000D01*
X63173992Y-23633254D01*
X63224528Y-23799850D01*
X63306595Y-23953386D01*
X63417038Y-24087962D01*
X63551614Y-24198405D01*
X63705150Y-24280472D01*
X63871746Y-24331008D01*
X64045000Y-24348072D01*
X64351521Y-24348072D01*
X64477754Y-24415546D01*
X64621015Y-24459003D01*
X64770000Y-24473677D01*
X64918986Y-24459003D01*
X65062247Y-24415546D01*
X65188480Y-24348072D01*
X65495000Y-24348072D01*
X65668254Y-24331008D01*
X65834850Y-24280472D01*
X65988386Y-24198405D01*
X66122962Y-24087962D01*
X66233405Y-23953386D01*
X66315472Y-23799850D01*
X66366008Y-23633254D01*
X66383072Y-23460000D01*
X66383072Y-22260000D01*
X66366008Y-22086746D01*
X66315472Y-21920150D01*
X66233405Y-21766614D01*
X66122962Y-21632038D01*
X65988386Y-21521595D01*
X65883039Y-21465286D01*
X65904429Y-21449049D01*
X66097496Y-21231193D01*
X66244352Y-20979858D01*
X66336476Y-20716890D01*
X66215155Y-20487000D01*
X64897000Y-20487000D01*
X64897000Y-20507000D01*
X64643000Y-20507000D01*
X64643000Y-20487000D01*
X63324845Y-20487000D01*
X63203524Y-20716890D01*
X63295648Y-20979858D01*
X63442504Y-21231193D01*
X63635571Y-21449049D01*
X63656961Y-21465286D01*
X63551614Y-21521595D01*
X63417038Y-21632038D01*
X63306595Y-21766614D01*
X63224528Y-21920150D01*
X63173992Y-22086746D01*
X63172687Y-22100000D01*
X57187322Y-22100000D01*
X57149999Y-22096324D01*
X57112676Y-22100000D01*
X57112667Y-22100000D01*
X57001014Y-22110997D01*
X56857753Y-22154454D01*
X56725724Y-22225026D01*
X56609999Y-22319999D01*
X56586201Y-22348997D01*
X56203886Y-22731312D01*
X56021335Y-22695000D01*
X55849801Y-22695000D01*
X59924802Y-18620000D01*
X63367405Y-18620000D01*
X63404294Y-18689014D01*
X63589866Y-18915134D01*
X63815986Y-19100706D01*
X63841722Y-19114462D01*
X63635571Y-19270951D01*
X63442504Y-19488807D01*
X63295648Y-19740142D01*
X63203524Y-20003110D01*
X63324845Y-20233000D01*
X64643000Y-20233000D01*
X64643000Y-20213000D01*
X64897000Y-20213000D01*
X64897000Y-20233000D01*
X66215155Y-20233000D01*
X66336476Y-20003110D01*
X66244352Y-19740142D01*
X66097496Y-19488807D01*
X65904429Y-19270951D01*
X65698278Y-19114462D01*
X65724014Y-19100706D01*
X65950134Y-18915134D01*
X66135706Y-18689014D01*
X66273599Y-18431034D01*
X66320345Y-18276935D01*
X66379974Y-18204276D01*
X66450546Y-18072247D01*
X66494003Y-17928986D01*
X66508677Y-17780000D01*
X66494003Y-17631014D01*
X66450546Y-17487753D01*
X66379974Y-17355724D01*
X66285001Y-17239999D01*
X66218062Y-17185064D01*
X66135706Y-17030986D01*
X65950134Y-16804866D01*
X65724014Y-16619294D01*
X65466034Y-16481401D01*
X65186111Y-16396487D01*
X64967950Y-16375000D01*
X64572050Y-16375000D01*
X64353889Y-16396487D01*
X64073966Y-16481401D01*
X63815986Y-16619294D01*
X63589866Y-16804866D01*
X63404294Y-17030986D01*
X63367405Y-17100000D01*
X59647322Y-17100000D01*
X59609999Y-17096324D01*
X59572676Y-17100000D01*
X59572667Y-17100000D01*
X59461014Y-17110997D01*
X59317753Y-17154454D01*
X59185723Y-17225026D01*
X59107813Y-17288966D01*
X59069999Y-17319999D01*
X59046201Y-17348997D01*
X53663887Y-22731312D01*
X53481335Y-22695000D01*
X53198665Y-22695000D01*
X52921426Y-22750147D01*
X52660273Y-22858320D01*
X52425241Y-23015363D01*
X52225363Y-23215241D01*
X52070000Y-23447759D01*
X51914637Y-23215241D01*
X51714759Y-23015363D01*
X51479727Y-22858320D01*
X51218574Y-22750147D01*
X50941335Y-22695000D01*
X50658665Y-22695000D01*
X50381426Y-22750147D01*
X50120273Y-22858320D01*
X49885241Y-23015363D01*
X49685363Y-23215241D01*
X49530000Y-23447759D01*
X49374637Y-23215241D01*
X49174759Y-23015363D01*
X48939727Y-22858320D01*
X48678574Y-22750147D01*
X48401335Y-22695000D01*
X48118665Y-22695000D01*
X47841426Y-22750147D01*
X47580273Y-22858320D01*
X47345241Y-23015363D01*
X47145363Y-23215241D01*
X46988320Y-23450273D01*
X46880147Y-23711426D01*
X46825000Y-23988665D01*
X46825000Y-24271335D01*
X46869491Y-24495001D01*
X42079802Y-24495001D01*
X42038688Y-24453887D01*
X42075000Y-24271335D01*
X42075000Y-23988665D01*
X42038688Y-23806113D01*
X42275999Y-23568802D01*
X42305002Y-23545000D01*
X42399975Y-23429275D01*
X42470547Y-23297246D01*
X42514004Y-23153985D01*
X42525001Y-23042332D01*
X42525001Y-23042323D01*
X42528677Y-23005000D01*
X42525001Y-22967677D01*
X42525001Y-16859040D01*
X46868091Y-16859040D01*
X46962930Y-17123881D01*
X47107615Y-17365131D01*
X47296586Y-17573519D01*
X47522580Y-17741037D01*
X47776913Y-17861246D01*
X47910961Y-17901904D01*
X48133000Y-17779915D01*
X48133000Y-16637000D01*
X46989376Y-16637000D01*
X46868091Y-16859040D01*
X42525001Y-16859040D01*
X42525001Y-16160960D01*
X46868091Y-16160960D01*
X46989376Y-16383000D01*
X48133000Y-16383000D01*
X48133000Y-15240085D01*
X48387000Y-15240085D01*
X48387000Y-16383000D01*
X48407000Y-16383000D01*
X48407000Y-16637000D01*
X48387000Y-16637000D01*
X48387000Y-17779915D01*
X48609039Y-17901904D01*
X48743087Y-17861246D01*
X48997420Y-17741037D01*
X49223414Y-17573519D01*
X49412385Y-17365131D01*
X49523933Y-17179135D01*
X49528320Y-17189727D01*
X49685363Y-17424759D01*
X49885241Y-17624637D01*
X50120273Y-17781680D01*
X50381426Y-17889853D01*
X50658665Y-17945000D01*
X50941335Y-17945000D01*
X51218574Y-17889853D01*
X51479727Y-17781680D01*
X51714759Y-17624637D01*
X51914637Y-17424759D01*
X52070000Y-17192241D01*
X52225363Y-17424759D01*
X52425241Y-17624637D01*
X52660273Y-17781680D01*
X52921426Y-17889853D01*
X53198665Y-17945000D01*
X53481335Y-17945000D01*
X53758574Y-17889853D01*
X54019727Y-17781680D01*
X54254759Y-17624637D01*
X54453357Y-17426039D01*
X54454188Y-17434482D01*
X54490498Y-17554180D01*
X54549463Y-17664494D01*
X54628815Y-17761185D01*
X54725506Y-17840537D01*
X54835820Y-17899502D01*
X54955518Y-17935812D01*
X55080000Y-17948072D01*
X56680000Y-17948072D01*
X56804482Y-17935812D01*
X56924180Y-17899502D01*
X57034494Y-17840537D01*
X57131185Y-17761185D01*
X57210537Y-17664494D01*
X57269502Y-17554180D01*
X57305812Y-17434482D01*
X57318072Y-17310000D01*
X57318072Y-15710000D01*
X57305812Y-15585518D01*
X57269502Y-15465820D01*
X57210537Y-15355506D01*
X57131185Y-15258815D01*
X57034494Y-15179463D01*
X56924180Y-15120498D01*
X56804482Y-15084188D01*
X56680000Y-15071928D01*
X55080000Y-15071928D01*
X54955518Y-15084188D01*
X54835820Y-15120498D01*
X54725506Y-15179463D01*
X54628815Y-15258815D01*
X54549463Y-15355506D01*
X54490498Y-15465820D01*
X54454188Y-15585518D01*
X54453357Y-15593961D01*
X54254759Y-15395363D01*
X54019727Y-15238320D01*
X53758574Y-15130147D01*
X53481335Y-15075000D01*
X53198665Y-15075000D01*
X52921426Y-15130147D01*
X52660273Y-15238320D01*
X52425241Y-15395363D01*
X52225363Y-15595241D01*
X52070000Y-15827759D01*
X51914637Y-15595241D01*
X51714759Y-15395363D01*
X51479727Y-15238320D01*
X51218574Y-15130147D01*
X50941335Y-15075000D01*
X50658665Y-15075000D01*
X50381426Y-15130147D01*
X50120273Y-15238320D01*
X49885241Y-15395363D01*
X49685363Y-15595241D01*
X49528320Y-15830273D01*
X49523933Y-15840865D01*
X49412385Y-15654869D01*
X49223414Y-15446481D01*
X48997420Y-15278963D01*
X48743087Y-15158754D01*
X48609039Y-15118096D01*
X48387000Y-15240085D01*
X48133000Y-15240085D01*
X47910961Y-15118096D01*
X47776913Y-15158754D01*
X47522580Y-15278963D01*
X47296586Y-15446481D01*
X47107615Y-15654869D01*
X46962930Y-15896119D01*
X46868091Y-16160960D01*
X42525001Y-16160960D01*
X42525001Y-15487322D01*
X42528677Y-15449999D01*
X42525001Y-15412677D01*
X42525001Y-15412666D01*
X42514004Y-15301013D01*
X42470547Y-15157752D01*
X42399975Y-15025723D01*
X42305002Y-14909998D01*
X42275998Y-14886195D01*
X42263805Y-14874002D01*
X42240002Y-14844998D01*
X42124277Y-14750025D01*
X41992248Y-14679453D01*
X41848987Y-14635996D01*
X41737334Y-14624999D01*
X41737323Y-14624999D01*
X41700001Y-14621323D01*
X41662679Y-14624999D01*
X34182323Y-14624999D01*
X34145000Y-14621323D01*
X34107677Y-14624999D01*
X34107668Y-14624999D01*
X33996015Y-14635996D01*
X33852754Y-14679453D01*
X33720725Y-14750025D01*
X33605000Y-14844998D01*
X33581197Y-14874002D01*
X33343887Y-15111312D01*
X33161335Y-15075000D01*
X32878665Y-15075000D01*
X32601426Y-15130147D01*
X32340273Y-15238320D01*
X32105241Y-15395363D01*
X31905363Y-15595241D01*
X31748320Y-15830273D01*
X31640147Y-16091426D01*
X31585000Y-16368665D01*
X31585000Y-16651335D01*
X31640147Y-16928574D01*
X31748320Y-17189727D01*
X31905363Y-17424759D01*
X32105241Y-17624637D01*
X32340273Y-17781680D01*
X32601426Y-17889853D01*
X32878665Y-17945000D01*
X33050198Y-17945000D01*
X29052297Y-21942901D01*
X28854759Y-21745363D01*
X28619727Y-21588320D01*
X28358574Y-21480147D01*
X28081335Y-21425000D01*
X27798665Y-21425000D01*
X27521426Y-21480147D01*
X27260273Y-21588320D01*
X27025241Y-21745363D01*
X26825363Y-21945241D01*
X26668320Y-22180273D01*
X26560147Y-22441426D01*
X26505000Y-22718665D01*
X24137892Y-22718665D01*
X24114494Y-22699463D01*
X24004180Y-22640498D01*
X23884482Y-22604188D01*
X23760000Y-22591928D01*
X21960000Y-22591928D01*
X21835518Y-22604188D01*
X21715820Y-22640498D01*
X21605506Y-22699463D01*
X21508815Y-22778815D01*
X21429463Y-22875506D01*
X21370498Y-22985820D01*
X21334188Y-23105518D01*
X21321928Y-23230000D01*
X21321928Y-25030000D01*
X21334188Y-25154482D01*
X21370498Y-25274180D01*
X21429463Y-25384494D01*
X21508815Y-25481185D01*
X21605506Y-25560537D01*
X21715820Y-25619502D01*
X21835518Y-25655812D01*
X21960000Y-25668072D01*
X22100000Y-25668072D01*
X22100001Y-26721956D01*
X21945241Y-26825363D01*
X21745363Y-27025241D01*
X21668684Y-27140000D01*
X18998043Y-27140000D01*
X18894637Y-26985241D01*
X18694759Y-26785363D01*
X18494131Y-26651308D01*
X18521514Y-26636671D01*
X18593097Y-26392702D01*
X17780000Y-25579605D01*
X16966903Y-26392702D01*
X17038486Y-26636671D01*
X17067341Y-26650324D01*
X16865241Y-26785363D01*
X16665363Y-26985241D01*
X16508320Y-27220273D01*
X16400147Y-27481426D01*
X16345000Y-27758665D01*
X13360000Y-27758665D01*
X13360000Y-25470512D01*
X16339783Y-25470512D01*
X16381213Y-25750130D01*
X16476397Y-26016292D01*
X16543329Y-26141514D01*
X16787298Y-26213097D01*
X17600395Y-25400000D01*
X17959605Y-25400000D01*
X18772702Y-26213097D01*
X19016671Y-26141514D01*
X19137571Y-25886004D01*
X19206300Y-25611816D01*
X19220217Y-25329488D01*
X19178787Y-25049870D01*
X19083603Y-24783708D01*
X19016671Y-24658486D01*
X18772702Y-24586903D01*
X17959605Y-25400000D01*
X17600395Y-25400000D01*
X16787298Y-24586903D01*
X16543329Y-24658486D01*
X16422429Y-24913996D01*
X16353700Y-25188184D01*
X16339783Y-25470512D01*
X13360000Y-25470512D01*
X13360000Y-24407298D01*
X16966903Y-24407298D01*
X17780000Y-25220395D01*
X18593097Y-24407298D01*
X18521514Y-24163329D01*
X18266004Y-24042429D01*
X17991816Y-23973700D01*
X17709488Y-23959783D01*
X17429870Y-24001213D01*
X17163708Y-24096397D01*
X17038486Y-24163329D01*
X16966903Y-24407298D01*
X13360000Y-24407298D01*
X13360000Y-21050000D01*
X15566928Y-21050000D01*
X15579188Y-21174482D01*
X15615498Y-21294180D01*
X15674463Y-21404494D01*
X15753815Y-21501185D01*
X15850506Y-21580537D01*
X15960820Y-21639502D01*
X16080518Y-21675812D01*
X16205000Y-21688072D01*
X17019250Y-21685000D01*
X17178000Y-21526250D01*
X17178000Y-20652000D01*
X17432000Y-20652000D01*
X17432000Y-21526250D01*
X17590750Y-21685000D01*
X18405000Y-21688072D01*
X18529482Y-21675812D01*
X18649180Y-21639502D01*
X18759494Y-21580537D01*
X18856185Y-21501185D01*
X18935537Y-21404494D01*
X18994502Y-21294180D01*
X19030812Y-21174482D01*
X19043072Y-21050000D01*
X19040000Y-20810750D01*
X18881250Y-20652000D01*
X17432000Y-20652000D01*
X17178000Y-20652000D01*
X15728750Y-20652000D01*
X15570000Y-20810750D01*
X15566928Y-21050000D01*
X13360000Y-21050000D01*
X13360000Y-20000000D01*
X15566928Y-20000000D01*
X15570000Y-20239250D01*
X15728750Y-20398000D01*
X17178000Y-20398000D01*
X17178000Y-19523750D01*
X17019250Y-19365000D01*
X16205000Y-19361928D01*
X16080518Y-19374188D01*
X15960820Y-19410498D01*
X15850506Y-19469463D01*
X15753815Y-19548815D01*
X15674463Y-19645506D01*
X15615498Y-19755820D01*
X15579188Y-19875518D01*
X15566928Y-20000000D01*
X13360000Y-20000000D01*
X13360000Y-18100000D01*
X15566928Y-18100000D01*
X15579188Y-18224482D01*
X15615498Y-18344180D01*
X15674463Y-18454494D01*
X15753815Y-18551185D01*
X15850506Y-18630537D01*
X15960820Y-18689502D01*
X16080518Y-18725812D01*
X16205000Y-18738072D01*
X17019250Y-18735000D01*
X17178000Y-18576250D01*
X17178000Y-17702000D01*
X15728750Y-17702000D01*
X15570000Y-17860750D01*
X15566928Y-18100000D01*
X13360000Y-18100000D01*
X13360000Y-17050000D01*
X15566928Y-17050000D01*
X15570000Y-17289250D01*
X15728750Y-17448000D01*
X17178000Y-17448000D01*
X17178000Y-16573750D01*
X17432000Y-16573750D01*
X17432000Y-17448000D01*
X17452000Y-17448000D01*
X17452000Y-17702000D01*
X17432000Y-17702000D01*
X17432000Y-18576250D01*
X17590750Y-18735000D01*
X17666928Y-18735287D01*
X17666928Y-19364713D01*
X17590750Y-19365000D01*
X17432000Y-19523750D01*
X17432000Y-20398000D01*
X18881250Y-20398000D01*
X19040000Y-20239250D01*
X19040657Y-20188072D01*
X19355000Y-20188072D01*
X19479482Y-20175812D01*
X19599180Y-20139502D01*
X19709494Y-20080537D01*
X19806185Y-20001185D01*
X19885537Y-19904494D01*
X19944502Y-19794180D01*
X19980812Y-19674482D01*
X19993072Y-19550000D01*
X19993072Y-18550000D01*
X19980812Y-18425518D01*
X19944502Y-18305820D01*
X19928646Y-18276156D01*
X20934802Y-17270000D01*
X21521687Y-17270000D01*
X21667688Y-17488505D01*
X21881495Y-17702312D01*
X22132905Y-17870299D01*
X22412257Y-17986011D01*
X22708816Y-18045000D01*
X23011184Y-18045000D01*
X23268930Y-17993731D01*
X23566201Y-18291003D01*
X23589999Y-18320001D01*
X23705724Y-18414974D01*
X23837753Y-18485546D01*
X23981014Y-18529003D01*
X24092667Y-18540000D01*
X24092676Y-18540000D01*
X24129999Y-18543676D01*
X24167322Y-18540000D01*
X26721957Y-18540000D01*
X26825363Y-18694759D01*
X27025241Y-18894637D01*
X27260273Y-19051680D01*
X27521426Y-19159853D01*
X27798665Y-19215000D01*
X28081335Y-19215000D01*
X28358574Y-19159853D01*
X28619727Y-19051680D01*
X28854759Y-18894637D01*
X29054637Y-18694759D01*
X29211680Y-18459727D01*
X29319853Y-18198574D01*
X29375000Y-17921335D01*
X29375000Y-17638665D01*
X29319853Y-17361426D01*
X29211680Y-17100273D01*
X29054637Y-16865241D01*
X28854759Y-16665363D01*
X28619727Y-16508320D01*
X28358574Y-16400147D01*
X28081335Y-16345000D01*
X27798665Y-16345000D01*
X27521426Y-16400147D01*
X27260273Y-16508320D01*
X27025241Y-16665363D01*
X26825363Y-16865241D01*
X26721957Y-17020000D01*
X24444802Y-17020000D01*
X24343731Y-16918930D01*
X24395000Y-16661184D01*
X24395000Y-16358816D01*
X24336011Y-16062257D01*
X24220299Y-15782905D01*
X24052312Y-15531495D01*
X23838505Y-15317688D01*
X23587095Y-15149701D01*
X23307743Y-15033989D01*
X23011184Y-14975000D01*
X22708816Y-14975000D01*
X22412257Y-15033989D01*
X22132905Y-15149701D01*
X21881495Y-15317688D01*
X21667688Y-15531495D01*
X21521687Y-15750000D01*
X20657322Y-15750000D01*
X20619999Y-15746324D01*
X20582676Y-15750000D01*
X20582667Y-15750000D01*
X20471014Y-15760997D01*
X20327753Y-15804454D01*
X20195724Y-15875026D01*
X20079999Y-15969999D01*
X20056201Y-15998997D01*
X19039676Y-17015522D01*
X19030812Y-16925518D01*
X18994502Y-16805820D01*
X18935537Y-16695506D01*
X18856185Y-16598815D01*
X18759494Y-16519463D01*
X18649180Y-16460498D01*
X18529482Y-16424188D01*
X18405000Y-16411928D01*
X17590750Y-16415000D01*
X17432000Y-16573750D01*
X17178000Y-16573750D01*
X17019250Y-16415000D01*
X16205000Y-16411928D01*
X16080518Y-16424188D01*
X15960820Y-16460498D01*
X15850506Y-16519463D01*
X15753815Y-16598815D01*
X15674463Y-16695506D01*
X15615498Y-16805820D01*
X15579188Y-16925518D01*
X15566928Y-17050000D01*
X13360000Y-17050000D01*
X13360000Y-13360000D01*
X67920000Y-13360000D01*
X67920001Y-31090000D01*
G36*
X40767000Y-16383000D02*
G01*
X40787000Y-16383000D01*
X40787000Y-16637000D01*
X40767000Y-16637000D01*
X40767000Y-17786250D01*
X40925750Y-17945000D01*
X41005002Y-17945473D01*
X41005001Y-22690198D01*
X40963887Y-22731312D01*
X40781335Y-22695000D01*
X40498665Y-22695000D01*
X40221426Y-22750147D01*
X39960273Y-22858320D01*
X39725241Y-23015363D01*
X39525363Y-23215241D01*
X39370000Y-23447759D01*
X39214637Y-23215241D01*
X39014759Y-23015363D01*
X38779727Y-22858320D01*
X38518574Y-22750147D01*
X38241335Y-22695000D01*
X38069803Y-22695000D01*
X38611008Y-22153795D01*
X38640001Y-22130001D01*
X38663795Y-22101008D01*
X38663799Y-22101004D01*
X38734973Y-22014277D01*
X38734974Y-22014276D01*
X38805546Y-21882247D01*
X38849003Y-21738986D01*
X38860000Y-21627333D01*
X38860000Y-21627324D01*
X38863676Y-21590001D01*
X38860000Y-21552678D01*
X38860000Y-17728043D01*
X39014759Y-17624637D01*
X39213357Y-17426039D01*
X39214188Y-17434482D01*
X39250498Y-17554180D01*
X39309463Y-17664494D01*
X39388815Y-17761185D01*
X39485506Y-17840537D01*
X39595820Y-17899502D01*
X39715518Y-17935812D01*
X39840000Y-17948072D01*
X40354250Y-17945000D01*
X40513000Y-17786250D01*
X40513000Y-16637000D01*
X40493000Y-16637000D01*
X40493000Y-16383000D01*
X40513000Y-16383000D01*
X40513000Y-16363000D01*
X40767000Y-16363000D01*
X40767000Y-16383000D01*
G37*
X40767000Y-16383000D02*
X40787000Y-16383000D01*
X40787000Y-16637000D01*
X40767000Y-16637000D01*
X40767000Y-17786250D01*
X40925750Y-17945000D01*
X41005002Y-17945473D01*
X41005001Y-22690198D01*
X40963887Y-22731312D01*
X40781335Y-22695000D01*
X40498665Y-22695000D01*
X40221426Y-22750147D01*
X39960273Y-22858320D01*
X39725241Y-23015363D01*
X39525363Y-23215241D01*
X39370000Y-23447759D01*
X39214637Y-23215241D01*
X39014759Y-23015363D01*
X38779727Y-22858320D01*
X38518574Y-22750147D01*
X38241335Y-22695000D01*
X38069803Y-22695000D01*
X38611008Y-22153795D01*
X38640001Y-22130001D01*
X38663795Y-22101008D01*
X38663799Y-22101004D01*
X38734973Y-22014277D01*
X38734974Y-22014276D01*
X38805546Y-21882247D01*
X38849003Y-21738986D01*
X38860000Y-21627333D01*
X38860000Y-21627324D01*
X38863676Y-21590001D01*
X38860000Y-21552678D01*
X38860000Y-17728043D01*
X39014759Y-17624637D01*
X39213357Y-17426039D01*
X39214188Y-17434482D01*
X39250498Y-17554180D01*
X39309463Y-17664494D01*
X39388815Y-17761185D01*
X39485506Y-17840537D01*
X39595820Y-17899502D01*
X39715518Y-17935812D01*
X39840000Y-17948072D01*
X40354250Y-17945000D01*
X40513000Y-17786250D01*
X40513000Y-16637000D01*
X40493000Y-16637000D01*
X40493000Y-16383000D01*
X40513000Y-16383000D01*
X40513000Y-16363000D01*
X40767000Y-16363000D01*
X40767000Y-16383000D01*
M02*
