M48
; DRILL file {KiCad (5.1.5)-3} date 30/12/2020 16:16:50
; FORMAT={-:-/ absolute / inch / decimal}
; #@! TF.CreationDate,2020-12-30T16:16:50+00:00
; #@! TF.GenerationSoftware,Kicad,Pcbnew,(5.1.5)-3
; #@! TF.FileFunction,Plated,1,2,PTH
FMAT,2
INCH
T1C0.0315
T2C0.0354
T3C0.0374
%
G90
G05
T1
X1.9516Y-1.45
X2.05Y-1.45
X1.85Y-1.3
X1.85Y-1.5
X2.45Y-1.3
X2.65Y-1.3
X1.85Y-1.05
X1.85Y-1.1484
X2.9Y-0.85
X2.9Y-1.15
X3.0Y-0.85
X3.0Y-1.15
X3.1Y-0.85
X3.1Y-1.15
X3.2Y-0.85
X3.2Y-1.15
X2.15Y-0.9
X2.15Y-1.1
X1.85Y-0.85
X1.85Y-0.9484
X2.05Y-1.3
X2.25Y-1.3
X2.3Y-0.85
X2.3Y-1.15
X2.4Y-0.85
X2.4Y-1.15
X2.5Y-0.85
X2.5Y-1.15
X2.6Y-0.85
X2.6Y-1.15
T2
X2.0Y-0.85
X2.0Y-1.15
T3
X3.55Y-0.9
X3.55Y-0.9984
X3.55Y-1.0969
T0
M30
