M48
; DRILL file {KiCad (5.1.5)-3} date 01/04/2021 11:51:45
; FORMAT={-:-/ absolute / inch / decimal}
; #@! TF.CreationDate,2021-04-01T11:51:45+01:00
; #@! TF.GenerationSoftware,Kicad,Pcbnew,(5.1.5)-3
FMAT,2
INCH
T1C0.0276
T2C0.0315
T3C0.0354
T4C0.0374
%
G90
G05
T1
X0.075Y0.65
X0.075Y0.35
X0.125Y0.2
X0.425Y0.2
X0.9Y0.075
X1.2Y0.075
T2
X1.1Y0.5
X1.1Y0.2
X1.2Y0.5
X1.2Y0.2
X1.3Y0.5
X1.3Y0.2
X1.4Y0.5
X1.4Y0.2
X0.25Y0.075
X0.4469Y0.075
X0.575Y0.075
X0.7719Y0.075
X0.225Y0.6469
X0.225Y0.45
X0.575Y0.5
X0.575Y0.2
X0.675Y0.5
X0.675Y0.2
X0.775Y0.5
X0.775Y0.2
X0.875Y0.5
X0.875Y0.2
T3
X0.4Y0.65
X0.4Y0.35
T4
X1.6Y0.4469
X1.6Y0.3484
X1.6Y0.25
T0
M30
