G04 #@! TF.GenerationSoftware,KiCad,Pcbnew,(5.1.5)-3*
G04 #@! TF.CreationDate,2021-01-25T13:26:25+00:00*
G04 #@! TF.ProjectId,KiCadSoil3,4b694361-6453-46f6-996c-332e6b696361,1.0*
G04 #@! TF.SameCoordinates,PX1360f0PY1496ff0*
G04 #@! TF.FileFunction,Copper,L2,Bot*
G04 #@! TF.FilePolarity,Positive*
%FSLAX46Y46*%
G04 Gerber Fmt 4.6, Leading zero omitted, Abs format (unit mm)*
G04 Created by KiCad (PCBNEW (5.1.5)-3) date 2021-01-25 13:26:25*
%MOMM*%
%LPD*%
G04 APERTURE LIST*
%ADD10R,2.200000X1.050000*%
%ADD11R,1.050000X1.000000*%
%ADD12O,1.600000X1.600000*%
%ADD13R,1.600000X1.600000*%
%ADD14O,1.800000X1.800000*%
%ADD15R,1.800000X1.800000*%
%ADD16C,1.600000*%
%ADD17O,1.950000X1.700000*%
%ADD18C,0.100000*%
%ADD19C,0.400000*%
%ADD20C,0.254000*%
G04 APERTURE END LIST*
D10*
X3335000Y6555000D03*
D11*
X4860000Y5080000D03*
D10*
X3335000Y3605000D03*
D12*
X43180000Y8890000D03*
X35560000Y16510000D03*
X40640000Y8890000D03*
X38100000Y16510000D03*
X38100000Y8890000D03*
X40640000Y16510000D03*
X35560000Y8890000D03*
D13*
X43180000Y16510000D03*
D14*
X13970000Y8890000D03*
D15*
X13970000Y16510000D03*
D12*
X27940000Y8890000D03*
X20320000Y16510000D03*
X25400000Y8890000D03*
X22860000Y16510000D03*
X22860000Y8890000D03*
X25400000Y16510000D03*
X20320000Y8890000D03*
D13*
X27940000Y16510000D03*
D16*
X3810000Y16510000D03*
X3810000Y11430000D03*
X8890000Y16470000D03*
X8890000Y13970000D03*
X38100000Y3810000D03*
X43180000Y3810000D03*
X31750000Y3810000D03*
X26670000Y3810000D03*
X15240000Y5080000D03*
X10160000Y5080000D03*
X22820000Y3810000D03*
X20320000Y3810000D03*
D17*
X52070000Y15160000D03*
X52070000Y12660000D03*
G04 #@! TA.AperFunction,ComponentPad*
D18*
G36*
X52819504Y11008796D02*
G01*
X52843773Y11005196D01*
X52867571Y10999235D01*
X52890671Y10990970D01*
X52912849Y10980480D01*
X52933893Y10967867D01*
X52953598Y10953253D01*
X52971777Y10936777D01*
X52988253Y10918598D01*
X53002867Y10898893D01*
X53015480Y10877849D01*
X53025970Y10855671D01*
X53034235Y10832571D01*
X53040196Y10808773D01*
X53043796Y10784504D01*
X53045000Y10760000D01*
X53045000Y9560000D01*
X53043796Y9535496D01*
X53040196Y9511227D01*
X53034235Y9487429D01*
X53025970Y9464329D01*
X53015480Y9442151D01*
X53002867Y9421107D01*
X52988253Y9401402D01*
X52971777Y9383223D01*
X52953598Y9366747D01*
X52933893Y9352133D01*
X52912849Y9339520D01*
X52890671Y9329030D01*
X52867571Y9320765D01*
X52843773Y9314804D01*
X52819504Y9311204D01*
X52795000Y9310000D01*
X51345000Y9310000D01*
X51320496Y9311204D01*
X51296227Y9314804D01*
X51272429Y9320765D01*
X51249329Y9329030D01*
X51227151Y9339520D01*
X51206107Y9352133D01*
X51186402Y9366747D01*
X51168223Y9383223D01*
X51151747Y9401402D01*
X51137133Y9421107D01*
X51124520Y9442151D01*
X51114030Y9464329D01*
X51105765Y9487429D01*
X51099804Y9511227D01*
X51096204Y9535496D01*
X51095000Y9560000D01*
X51095000Y10760000D01*
X51096204Y10784504D01*
X51099804Y10808773D01*
X51105765Y10832571D01*
X51114030Y10855671D01*
X51124520Y10877849D01*
X51137133Y10898893D01*
X51151747Y10918598D01*
X51168223Y10936777D01*
X51186402Y10953253D01*
X51206107Y10967867D01*
X51227151Y10980480D01*
X51249329Y10990970D01*
X51272429Y10999235D01*
X51296227Y11005196D01*
X51320496Y11008796D01*
X51345000Y11010000D01*
X52795000Y11010000D01*
X52819504Y11008796D01*
G37*
G04 #@! TD.AperFunction*
D19*
X44450000Y10160000D02*
X43180000Y8890000D01*
X52070000Y10160000D02*
X44450000Y10160000D01*
X27940000Y8890000D02*
X27940000Y13208000D01*
X27940000Y13208000D02*
X30226000Y15494000D01*
X30226000Y15494000D02*
X30226000Y16544002D01*
X30226000Y16544002D02*
X28736002Y18034000D01*
X21844000Y18034000D02*
X20320000Y16510000D01*
X28736002Y18034000D02*
X21844000Y18034000D01*
X43180000Y8890000D02*
X43180000Y3810000D01*
X43180000Y8890000D02*
X41148000Y6858000D01*
X29972000Y6858000D02*
X27940000Y8890000D01*
X41148000Y6858000D02*
X29972000Y6858000D01*
X46910000Y15160000D02*
X40640000Y8890000D01*
X52070000Y15160000D02*
X46910000Y15160000D01*
X25400000Y11430000D02*
X22860000Y8890000D01*
X25400000Y16510000D02*
X25400000Y11430000D01*
X26670000Y3810000D02*
X22820000Y3810000D01*
X16039999Y5879999D02*
X15240000Y5080000D01*
X16039999Y9689999D02*
X16039999Y5879999D01*
X22860000Y16510000D02*
X16039999Y9689999D01*
X30480000Y3810000D02*
X31750000Y3810000D01*
X25400000Y8890000D02*
X30480000Y3810000D01*
X38100000Y3810000D02*
X31750000Y3810000D01*
X4860000Y5080000D02*
X10160000Y5080000D01*
X10160000Y5080000D02*
X13970000Y8890000D01*
X40640000Y16510000D02*
X38100000Y19050000D01*
X8850000Y16510000D02*
X8890000Y16470000D01*
X3810000Y16510000D02*
X8850000Y16510000D01*
X13930000Y16470000D02*
X13970000Y16510000D01*
X8890000Y16470000D02*
X13930000Y16470000D01*
X13970000Y17810000D02*
X13970000Y16510000D01*
X15210000Y19050000D02*
X13970000Y17810000D01*
X38100000Y19050000D02*
X15210000Y19050000D01*
D20*
G36*
X55753000Y127000D02*
G01*
X127000Y127000D01*
X127000Y16645623D01*
X2433000Y16645623D01*
X2433000Y16374377D01*
X2485917Y16108344D01*
X2589718Y15857746D01*
X2740414Y15632213D01*
X2932213Y15440414D01*
X3157746Y15289718D01*
X3408344Y15185917D01*
X3674377Y15133000D01*
X3945623Y15133000D01*
X4211656Y15185917D01*
X4462254Y15289718D01*
X4687787Y15440414D01*
X4879586Y15632213D01*
X4946930Y15733000D01*
X7726343Y15733000D01*
X7820414Y15592213D01*
X8012213Y15400414D01*
X8237746Y15249718D01*
X8488344Y15145917D01*
X8754377Y15093000D01*
X9025623Y15093000D01*
X9291656Y15145917D01*
X9542254Y15249718D01*
X9767787Y15400414D01*
X9959586Y15592213D01*
X10026930Y15693000D01*
X12490209Y15693000D01*
X12490209Y15610000D01*
X12501350Y15496888D01*
X12534343Y15388124D01*
X12587921Y15287885D01*
X12660026Y15200026D01*
X12747885Y15127921D01*
X12848124Y15074343D01*
X12956888Y15041350D01*
X13070000Y15030209D01*
X14870000Y15030209D01*
X14983112Y15041350D01*
X15091876Y15074343D01*
X15192115Y15127921D01*
X15279974Y15200026D01*
X15352079Y15287885D01*
X15405657Y15388124D01*
X15438650Y15496888D01*
X15449791Y15610000D01*
X15449791Y17410000D01*
X15438650Y17523112D01*
X15405657Y17631876D01*
X15352079Y17732115D01*
X15279974Y17819974D01*
X15192115Y17892079D01*
X15165271Y17906427D01*
X15531844Y18273000D01*
X20984156Y18273000D01*
X20574509Y17863352D01*
X20455623Y17887000D01*
X20184377Y17887000D01*
X19918344Y17834083D01*
X19667746Y17730282D01*
X19442213Y17579586D01*
X19250414Y17387787D01*
X19099718Y17162254D01*
X18995917Y16911656D01*
X18943000Y16645623D01*
X18943000Y16374377D01*
X18995917Y16108344D01*
X19099718Y15857746D01*
X19250414Y15632213D01*
X19442213Y15440414D01*
X19667746Y15289718D01*
X19918344Y15185917D01*
X20184377Y15133000D01*
X20384156Y15133000D01*
X15517569Y10266412D01*
X15487919Y10242079D01*
X15438202Y10181498D01*
X15390822Y10123765D01*
X15344585Y10037261D01*
X15318672Y9988782D01*
X15274242Y9842317D01*
X15262999Y9728165D01*
X15259240Y9689999D01*
X15262999Y9651836D01*
X15262999Y9613421D01*
X15117261Y9831533D01*
X14911533Y10037261D01*
X14669622Y10198901D01*
X14400825Y10310240D01*
X14115472Y10367000D01*
X13824528Y10367000D01*
X13539175Y10310240D01*
X13270378Y10198901D01*
X13028467Y10037261D01*
X12822739Y9831533D01*
X12661099Y9589622D01*
X12549760Y9320825D01*
X12493000Y9035472D01*
X12493000Y8744528D01*
X12531605Y8550448D01*
X10414509Y6433352D01*
X10295623Y6457000D01*
X10024377Y6457000D01*
X9758344Y6404083D01*
X9507746Y6300282D01*
X9282213Y6149586D01*
X9090414Y5957787D01*
X9023070Y5857000D01*
X5891193Y5857000D01*
X5867079Y5902115D01*
X5794974Y5989974D01*
X5707115Y6062079D01*
X5606876Y6115657D01*
X5498112Y6148650D01*
X5385000Y6159791D01*
X4335000Y6159791D01*
X4221888Y6148650D01*
X4113124Y6115657D01*
X4012885Y6062079D01*
X3925026Y5989974D01*
X3852921Y5902115D01*
X3799343Y5801876D01*
X3766350Y5693112D01*
X3755209Y5580000D01*
X3755209Y4580000D01*
X3766350Y4466888D01*
X3799343Y4358124D01*
X3852921Y4257885D01*
X3925026Y4170026D01*
X4012885Y4097921D01*
X4113124Y4044343D01*
X4221888Y4011350D01*
X4335000Y4000209D01*
X5385000Y4000209D01*
X5498112Y4011350D01*
X5606876Y4044343D01*
X5707115Y4097921D01*
X5794974Y4170026D01*
X5867079Y4257885D01*
X5891193Y4303000D01*
X9023070Y4303000D01*
X9090414Y4202213D01*
X9282213Y4010414D01*
X9507746Y3859718D01*
X9758344Y3755917D01*
X10024377Y3703000D01*
X10295623Y3703000D01*
X10561656Y3755917D01*
X10812254Y3859718D01*
X11037787Y4010414D01*
X11229586Y4202213D01*
X11380282Y4427746D01*
X11484083Y4678344D01*
X11537000Y4944377D01*
X11537000Y5215623D01*
X11513352Y5334509D01*
X13630448Y7451605D01*
X13824528Y7413000D01*
X14115472Y7413000D01*
X14400825Y7469760D01*
X14669622Y7581099D01*
X14911533Y7742739D01*
X15117261Y7948467D01*
X15262999Y8166580D01*
X15263000Y6457000D01*
X15104377Y6457000D01*
X14838344Y6404083D01*
X14587746Y6300282D01*
X14362213Y6149586D01*
X14170414Y5957787D01*
X14019718Y5732254D01*
X13915917Y5481656D01*
X13863000Y5215623D01*
X13863000Y4944377D01*
X13915917Y4678344D01*
X14019718Y4427746D01*
X14170414Y4202213D01*
X14362213Y4010414D01*
X14587746Y3859718D01*
X14838344Y3755917D01*
X15104377Y3703000D01*
X15375623Y3703000D01*
X15641656Y3755917D01*
X15892254Y3859718D01*
X16020820Y3945623D01*
X21443000Y3945623D01*
X21443000Y3674377D01*
X21495917Y3408344D01*
X21599718Y3157746D01*
X21750414Y2932213D01*
X21942213Y2740414D01*
X22167746Y2589718D01*
X22418344Y2485917D01*
X22684377Y2433000D01*
X22955623Y2433000D01*
X23221656Y2485917D01*
X23472254Y2589718D01*
X23697787Y2740414D01*
X23889586Y2932213D01*
X23956930Y3033000D01*
X25533070Y3033000D01*
X25600414Y2932213D01*
X25792213Y2740414D01*
X26017746Y2589718D01*
X26268344Y2485917D01*
X26534377Y2433000D01*
X26805623Y2433000D01*
X27071656Y2485917D01*
X27322254Y2589718D01*
X27547787Y2740414D01*
X27739586Y2932213D01*
X27890282Y3157746D01*
X27994083Y3408344D01*
X28047000Y3674377D01*
X28047000Y3945623D01*
X27994083Y4211656D01*
X27890282Y4462254D01*
X27739586Y4687787D01*
X27547787Y4879586D01*
X27322254Y5030282D01*
X27071656Y5134083D01*
X26805623Y5187000D01*
X26534377Y5187000D01*
X26268344Y5134083D01*
X26017746Y5030282D01*
X25792213Y4879586D01*
X25600414Y4687787D01*
X25533070Y4587000D01*
X23956930Y4587000D01*
X23889586Y4687787D01*
X23697787Y4879586D01*
X23472254Y5030282D01*
X23221656Y5134083D01*
X22955623Y5187000D01*
X22684377Y5187000D01*
X22418344Y5134083D01*
X22167746Y5030282D01*
X21942213Y4879586D01*
X21750414Y4687787D01*
X21599718Y4462254D01*
X21495917Y4211656D01*
X21443000Y3945623D01*
X16020820Y3945623D01*
X16117787Y4010414D01*
X16309586Y4202213D01*
X16460282Y4427746D01*
X16564083Y4678344D01*
X16617000Y4944377D01*
X16617000Y5215623D01*
X16594159Y5330453D01*
X16633822Y5378783D01*
X16689176Y5446232D01*
X16761326Y5581215D01*
X16767763Y5602434D01*
X16805756Y5727680D01*
X16816999Y5841833D01*
X16816999Y5841842D01*
X16820757Y5879998D01*
X16816999Y5918154D01*
X16816999Y9368156D01*
X22605492Y15156648D01*
X22724377Y15133000D01*
X22995623Y15133000D01*
X23261656Y15185917D01*
X23512254Y15289718D01*
X23737787Y15440414D01*
X23929586Y15632213D01*
X24080282Y15857746D01*
X24130000Y15977776D01*
X24179718Y15857746D01*
X24330414Y15632213D01*
X24522213Y15440414D01*
X24623000Y15373070D01*
X24623001Y11751845D01*
X23114509Y10243352D01*
X22995623Y10267000D01*
X22724377Y10267000D01*
X22458344Y10214083D01*
X22207746Y10110282D01*
X21982213Y9959586D01*
X21790414Y9767787D01*
X21639718Y9542254D01*
X21535917Y9291656D01*
X21483000Y9025623D01*
X21483000Y8754377D01*
X21535917Y8488344D01*
X21639718Y8237746D01*
X21790414Y8012213D01*
X21982213Y7820414D01*
X22207746Y7669718D01*
X22458344Y7565917D01*
X22724377Y7513000D01*
X22995623Y7513000D01*
X23261656Y7565917D01*
X23512254Y7669718D01*
X23737787Y7820414D01*
X23929586Y8012213D01*
X24080282Y8237746D01*
X24130000Y8357776D01*
X24179718Y8237746D01*
X24330414Y8012213D01*
X24522213Y7820414D01*
X24747746Y7669718D01*
X24998344Y7565917D01*
X25264377Y7513000D01*
X25535623Y7513000D01*
X25654509Y7536648D01*
X29903592Y3287564D01*
X29927920Y3257920D01*
X29957564Y3233592D01*
X29957565Y3233591D01*
X30046233Y3160823D01*
X30113725Y3124748D01*
X30181216Y3088673D01*
X30327681Y3044243D01*
X30441834Y3033000D01*
X30441836Y3033000D01*
X30480000Y3029241D01*
X30518163Y3033000D01*
X30613070Y3033000D01*
X30680414Y2932213D01*
X30872213Y2740414D01*
X31097746Y2589718D01*
X31348344Y2485917D01*
X31614377Y2433000D01*
X31885623Y2433000D01*
X32151656Y2485917D01*
X32402254Y2589718D01*
X32627787Y2740414D01*
X32819586Y2932213D01*
X32886930Y3033000D01*
X36963070Y3033000D01*
X37030414Y2932213D01*
X37222213Y2740414D01*
X37447746Y2589718D01*
X37698344Y2485917D01*
X37964377Y2433000D01*
X38235623Y2433000D01*
X38501656Y2485917D01*
X38752254Y2589718D01*
X38977787Y2740414D01*
X39169586Y2932213D01*
X39320282Y3157746D01*
X39424083Y3408344D01*
X39477000Y3674377D01*
X39477000Y3945623D01*
X39424083Y4211656D01*
X39320282Y4462254D01*
X39169586Y4687787D01*
X38977787Y4879586D01*
X38752254Y5030282D01*
X38501656Y5134083D01*
X38235623Y5187000D01*
X37964377Y5187000D01*
X37698344Y5134083D01*
X37447746Y5030282D01*
X37222213Y4879586D01*
X37030414Y4687787D01*
X36963070Y4587000D01*
X32886930Y4587000D01*
X32819586Y4687787D01*
X32627787Y4879586D01*
X32402254Y5030282D01*
X32151656Y5134083D01*
X31885623Y5187000D01*
X31614377Y5187000D01*
X31348344Y5134083D01*
X31097746Y5030282D01*
X30872213Y4879586D01*
X30690735Y4698108D01*
X27875843Y7513000D01*
X28075623Y7513000D01*
X28194509Y7536648D01*
X29395592Y6335564D01*
X29419920Y6305920D01*
X29449564Y6281592D01*
X29449565Y6281591D01*
X29538233Y6208823D01*
X29594438Y6178781D01*
X29673216Y6136673D01*
X29819681Y6092243D01*
X29933834Y6081000D01*
X29933836Y6081000D01*
X29972000Y6077241D01*
X30010163Y6081000D01*
X41109837Y6081000D01*
X41148000Y6077241D01*
X41186163Y6081000D01*
X41186166Y6081000D01*
X41300319Y6092243D01*
X41446784Y6136673D01*
X41581766Y6208823D01*
X41700080Y6305920D01*
X41724412Y6335569D01*
X42403000Y7014157D01*
X42403001Y4946930D01*
X42302213Y4879586D01*
X42110414Y4687787D01*
X41959718Y4462254D01*
X41855917Y4211656D01*
X41803000Y3945623D01*
X41803000Y3674377D01*
X41855917Y3408344D01*
X41959718Y3157746D01*
X42110414Y2932213D01*
X42302213Y2740414D01*
X42527746Y2589718D01*
X42778344Y2485917D01*
X43044377Y2433000D01*
X43315623Y2433000D01*
X43581656Y2485917D01*
X43832254Y2589718D01*
X44057787Y2740414D01*
X44249586Y2932213D01*
X44400282Y3157746D01*
X44504083Y3408344D01*
X44557000Y3674377D01*
X44557000Y3945623D01*
X44504083Y4211656D01*
X44400282Y4462254D01*
X44249586Y4687787D01*
X44057787Y4879586D01*
X43957000Y4946930D01*
X43957000Y7753070D01*
X44057787Y7820414D01*
X44249586Y8012213D01*
X44400282Y8237746D01*
X44504083Y8488344D01*
X44557000Y8754377D01*
X44557000Y9025623D01*
X44533352Y9144509D01*
X44771844Y9383000D01*
X50535738Y9383000D01*
X50578373Y9242453D01*
X50655054Y9098993D01*
X50758249Y8973249D01*
X50883993Y8870054D01*
X51027453Y8793373D01*
X51183116Y8746153D01*
X51345000Y8730209D01*
X52795000Y8730209D01*
X52956884Y8746153D01*
X53112547Y8793373D01*
X53256007Y8870054D01*
X53381751Y8973249D01*
X53484946Y9098993D01*
X53561627Y9242453D01*
X53608847Y9398116D01*
X53624791Y9560000D01*
X53624791Y10760000D01*
X53608847Y10921884D01*
X53561627Y11077547D01*
X53484946Y11221007D01*
X53381751Y11346751D01*
X53256007Y11449946D01*
X53112547Y11526627D01*
X52956884Y11573847D01*
X52795000Y11589791D01*
X51345000Y11589791D01*
X51183116Y11573847D01*
X51027453Y11526627D01*
X50883993Y11449946D01*
X50758249Y11346751D01*
X50655054Y11221007D01*
X50578373Y11077547D01*
X50535738Y10937000D01*
X44488155Y10937000D01*
X44449999Y10940758D01*
X44411843Y10937000D01*
X44411834Y10937000D01*
X44297681Y10925757D01*
X44151216Y10881327D01*
X44016233Y10809177D01*
X43981684Y10780823D01*
X43897920Y10712080D01*
X43873592Y10682436D01*
X43434509Y10243352D01*
X43315623Y10267000D01*
X43115843Y10267000D01*
X47231844Y14383000D01*
X50742257Y14383000D01*
X50752752Y14363366D01*
X50931077Y14146077D01*
X51148366Y13967752D01*
X51396269Y13835245D01*
X51665259Y13753648D01*
X51874902Y13733000D01*
X52265098Y13733000D01*
X52474741Y13753648D01*
X52743731Y13835245D01*
X52991634Y13967752D01*
X53208923Y14146077D01*
X53387248Y14363366D01*
X53519755Y14611269D01*
X53601352Y14880259D01*
X53628904Y15160000D01*
X53601352Y15439741D01*
X53519755Y15708731D01*
X53387248Y15956634D01*
X53208923Y16173923D01*
X52991634Y16352248D01*
X52743731Y16484755D01*
X52474741Y16566352D01*
X52265098Y16587000D01*
X51874902Y16587000D01*
X51665259Y16566352D01*
X51396269Y16484755D01*
X51148366Y16352248D01*
X50931077Y16173923D01*
X50752752Y15956634D01*
X50742257Y15937000D01*
X46948155Y15937000D01*
X46909999Y15940758D01*
X46871843Y15937000D01*
X46871834Y15937000D01*
X46757681Y15925757D01*
X46611216Y15881327D01*
X46476233Y15809177D01*
X46420264Y15763244D01*
X46357920Y15712080D01*
X46333592Y15682436D01*
X40894509Y10243352D01*
X40775623Y10267000D01*
X40504377Y10267000D01*
X40238344Y10214083D01*
X39987746Y10110282D01*
X39762213Y9959586D01*
X39570414Y9767787D01*
X39419718Y9542254D01*
X39370000Y9422224D01*
X39320282Y9542254D01*
X39169586Y9767787D01*
X38977787Y9959586D01*
X38752254Y10110282D01*
X38501656Y10214083D01*
X38235623Y10267000D01*
X37964377Y10267000D01*
X37698344Y10214083D01*
X37447746Y10110282D01*
X37222213Y9959586D01*
X37030414Y9767787D01*
X36879718Y9542254D01*
X36830000Y9422224D01*
X36780282Y9542254D01*
X36629586Y9767787D01*
X36437787Y9959586D01*
X36212254Y10110282D01*
X35961656Y10214083D01*
X35695623Y10267000D01*
X35424377Y10267000D01*
X35158344Y10214083D01*
X34907746Y10110282D01*
X34682213Y9959586D01*
X34490414Y9767787D01*
X34339718Y9542254D01*
X34235917Y9291656D01*
X34183000Y9025623D01*
X34183000Y8754377D01*
X34235917Y8488344D01*
X34339718Y8237746D01*
X34490414Y8012213D01*
X34682213Y7820414D01*
X34907746Y7669718D01*
X34991563Y7635000D01*
X30293844Y7635000D01*
X29293352Y8635491D01*
X29317000Y8754377D01*
X29317000Y9025623D01*
X29264083Y9291656D01*
X29160282Y9542254D01*
X29009586Y9767787D01*
X28817787Y9959586D01*
X28717000Y10026930D01*
X28717000Y12886157D01*
X30748437Y14917593D01*
X30778080Y14941920D01*
X30802409Y14971565D01*
X30875177Y15060233D01*
X30947327Y15195216D01*
X30963860Y15249718D01*
X30991757Y15341681D01*
X31003000Y15455834D01*
X31003000Y15455843D01*
X31006758Y15493999D01*
X31003000Y15532155D01*
X31003000Y16505847D01*
X31006758Y16544003D01*
X31003000Y16582159D01*
X31003000Y16582168D01*
X30991757Y16696321D01*
X30947327Y16842786D01*
X30910515Y16911656D01*
X30875177Y16977769D01*
X30802409Y17066437D01*
X30802408Y17066438D01*
X30778080Y17096082D01*
X30748436Y17120410D01*
X29595845Y18273000D01*
X37778157Y18273000D01*
X38164157Y17887000D01*
X37964377Y17887000D01*
X37698344Y17834083D01*
X37447746Y17730282D01*
X37222213Y17579586D01*
X37030414Y17387787D01*
X36879718Y17162254D01*
X36775917Y16911656D01*
X36723000Y16645623D01*
X36723000Y16374377D01*
X36775917Y16108344D01*
X36879718Y15857746D01*
X37030414Y15632213D01*
X37222213Y15440414D01*
X37447746Y15289718D01*
X37698344Y15185917D01*
X37964377Y15133000D01*
X38235623Y15133000D01*
X38501656Y15185917D01*
X38752254Y15289718D01*
X38977787Y15440414D01*
X39169586Y15632213D01*
X39320282Y15857746D01*
X39370000Y15977776D01*
X39419718Y15857746D01*
X39570414Y15632213D01*
X39762213Y15440414D01*
X39987746Y15289718D01*
X40238344Y15185917D01*
X40504377Y15133000D01*
X40775623Y15133000D01*
X41041656Y15185917D01*
X41292254Y15289718D01*
X41517787Y15440414D01*
X41709586Y15632213D01*
X41800209Y15767840D01*
X41800209Y15710000D01*
X41811350Y15596888D01*
X41844343Y15488124D01*
X41897921Y15387885D01*
X41970026Y15300026D01*
X42057885Y15227921D01*
X42158124Y15174343D01*
X42266888Y15141350D01*
X42380000Y15130209D01*
X43980000Y15130209D01*
X44093112Y15141350D01*
X44201876Y15174343D01*
X44302115Y15227921D01*
X44389974Y15300026D01*
X44462079Y15387885D01*
X44515657Y15488124D01*
X44548650Y15596888D01*
X44559791Y15710000D01*
X44559791Y17310000D01*
X44548650Y17423112D01*
X44515657Y17531876D01*
X44462079Y17632115D01*
X44389974Y17719974D01*
X44302115Y17792079D01*
X44201876Y17845657D01*
X44093112Y17878650D01*
X43980000Y17889791D01*
X42380000Y17889791D01*
X42266888Y17878650D01*
X42158124Y17845657D01*
X42057885Y17792079D01*
X41970026Y17719974D01*
X41897921Y17632115D01*
X41844343Y17531876D01*
X41811350Y17423112D01*
X41800209Y17310000D01*
X41800209Y17252160D01*
X41709586Y17387787D01*
X41517787Y17579586D01*
X41292254Y17730282D01*
X41041656Y17834083D01*
X40775623Y17887000D01*
X40504377Y17887000D01*
X40385491Y17863352D01*
X38676413Y19572431D01*
X38652080Y19602080D01*
X38533766Y19699177D01*
X38398784Y19771327D01*
X38252319Y19815757D01*
X38138166Y19827000D01*
X38138163Y19827000D01*
X38100000Y19830759D01*
X38061837Y19827000D01*
X15248163Y19827000D01*
X15210000Y19830759D01*
X15171836Y19827000D01*
X15171834Y19827000D01*
X15057681Y19815757D01*
X14911216Y19771327D01*
X14843725Y19735252D01*
X14776233Y19699177D01*
X14687565Y19626409D01*
X14657920Y19602080D01*
X14633592Y19572436D01*
X13447569Y18386412D01*
X13417920Y18362080D01*
X13393591Y18332434D01*
X13320823Y18243766D01*
X13248674Y18108784D01*
X13248673Y18108783D01*
X13212577Y17989791D01*
X13070000Y17989791D01*
X12956888Y17978650D01*
X12848124Y17945657D01*
X12747885Y17892079D01*
X12660026Y17819974D01*
X12587921Y17732115D01*
X12534343Y17631876D01*
X12501350Y17523112D01*
X12490209Y17410000D01*
X12490209Y17247000D01*
X10026930Y17247000D01*
X9959586Y17347787D01*
X9767787Y17539586D01*
X9542254Y17690282D01*
X9291656Y17794083D01*
X9025623Y17847000D01*
X8754377Y17847000D01*
X8488344Y17794083D01*
X8237746Y17690282D01*
X8012213Y17539586D01*
X7820414Y17347787D01*
X7779798Y17287000D01*
X4946930Y17287000D01*
X4879586Y17387787D01*
X4687787Y17579586D01*
X4462254Y17730282D01*
X4211656Y17834083D01*
X3945623Y17887000D01*
X3674377Y17887000D01*
X3408344Y17834083D01*
X3157746Y17730282D01*
X2932213Y17579586D01*
X2740414Y17387787D01*
X2589718Y17162254D01*
X2485917Y16911656D01*
X2433000Y16645623D01*
X127000Y16645623D01*
X127000Y21463000D01*
X55753000Y21463000D01*
X55753000Y127000D01*
G37*
X55753000Y127000D02*
X127000Y127000D01*
X127000Y16645623D01*
X2433000Y16645623D01*
X2433000Y16374377D01*
X2485917Y16108344D01*
X2589718Y15857746D01*
X2740414Y15632213D01*
X2932213Y15440414D01*
X3157746Y15289718D01*
X3408344Y15185917D01*
X3674377Y15133000D01*
X3945623Y15133000D01*
X4211656Y15185917D01*
X4462254Y15289718D01*
X4687787Y15440414D01*
X4879586Y15632213D01*
X4946930Y15733000D01*
X7726343Y15733000D01*
X7820414Y15592213D01*
X8012213Y15400414D01*
X8237746Y15249718D01*
X8488344Y15145917D01*
X8754377Y15093000D01*
X9025623Y15093000D01*
X9291656Y15145917D01*
X9542254Y15249718D01*
X9767787Y15400414D01*
X9959586Y15592213D01*
X10026930Y15693000D01*
X12490209Y15693000D01*
X12490209Y15610000D01*
X12501350Y15496888D01*
X12534343Y15388124D01*
X12587921Y15287885D01*
X12660026Y15200026D01*
X12747885Y15127921D01*
X12848124Y15074343D01*
X12956888Y15041350D01*
X13070000Y15030209D01*
X14870000Y15030209D01*
X14983112Y15041350D01*
X15091876Y15074343D01*
X15192115Y15127921D01*
X15279974Y15200026D01*
X15352079Y15287885D01*
X15405657Y15388124D01*
X15438650Y15496888D01*
X15449791Y15610000D01*
X15449791Y17410000D01*
X15438650Y17523112D01*
X15405657Y17631876D01*
X15352079Y17732115D01*
X15279974Y17819974D01*
X15192115Y17892079D01*
X15165271Y17906427D01*
X15531844Y18273000D01*
X20984156Y18273000D01*
X20574509Y17863352D01*
X20455623Y17887000D01*
X20184377Y17887000D01*
X19918344Y17834083D01*
X19667746Y17730282D01*
X19442213Y17579586D01*
X19250414Y17387787D01*
X19099718Y17162254D01*
X18995917Y16911656D01*
X18943000Y16645623D01*
X18943000Y16374377D01*
X18995917Y16108344D01*
X19099718Y15857746D01*
X19250414Y15632213D01*
X19442213Y15440414D01*
X19667746Y15289718D01*
X19918344Y15185917D01*
X20184377Y15133000D01*
X20384156Y15133000D01*
X15517569Y10266412D01*
X15487919Y10242079D01*
X15438202Y10181498D01*
X15390822Y10123765D01*
X15344585Y10037261D01*
X15318672Y9988782D01*
X15274242Y9842317D01*
X15262999Y9728165D01*
X15259240Y9689999D01*
X15262999Y9651836D01*
X15262999Y9613421D01*
X15117261Y9831533D01*
X14911533Y10037261D01*
X14669622Y10198901D01*
X14400825Y10310240D01*
X14115472Y10367000D01*
X13824528Y10367000D01*
X13539175Y10310240D01*
X13270378Y10198901D01*
X13028467Y10037261D01*
X12822739Y9831533D01*
X12661099Y9589622D01*
X12549760Y9320825D01*
X12493000Y9035472D01*
X12493000Y8744528D01*
X12531605Y8550448D01*
X10414509Y6433352D01*
X10295623Y6457000D01*
X10024377Y6457000D01*
X9758344Y6404083D01*
X9507746Y6300282D01*
X9282213Y6149586D01*
X9090414Y5957787D01*
X9023070Y5857000D01*
X5891193Y5857000D01*
X5867079Y5902115D01*
X5794974Y5989974D01*
X5707115Y6062079D01*
X5606876Y6115657D01*
X5498112Y6148650D01*
X5385000Y6159791D01*
X4335000Y6159791D01*
X4221888Y6148650D01*
X4113124Y6115657D01*
X4012885Y6062079D01*
X3925026Y5989974D01*
X3852921Y5902115D01*
X3799343Y5801876D01*
X3766350Y5693112D01*
X3755209Y5580000D01*
X3755209Y4580000D01*
X3766350Y4466888D01*
X3799343Y4358124D01*
X3852921Y4257885D01*
X3925026Y4170026D01*
X4012885Y4097921D01*
X4113124Y4044343D01*
X4221888Y4011350D01*
X4335000Y4000209D01*
X5385000Y4000209D01*
X5498112Y4011350D01*
X5606876Y4044343D01*
X5707115Y4097921D01*
X5794974Y4170026D01*
X5867079Y4257885D01*
X5891193Y4303000D01*
X9023070Y4303000D01*
X9090414Y4202213D01*
X9282213Y4010414D01*
X9507746Y3859718D01*
X9758344Y3755917D01*
X10024377Y3703000D01*
X10295623Y3703000D01*
X10561656Y3755917D01*
X10812254Y3859718D01*
X11037787Y4010414D01*
X11229586Y4202213D01*
X11380282Y4427746D01*
X11484083Y4678344D01*
X11537000Y4944377D01*
X11537000Y5215623D01*
X11513352Y5334509D01*
X13630448Y7451605D01*
X13824528Y7413000D01*
X14115472Y7413000D01*
X14400825Y7469760D01*
X14669622Y7581099D01*
X14911533Y7742739D01*
X15117261Y7948467D01*
X15262999Y8166580D01*
X15263000Y6457000D01*
X15104377Y6457000D01*
X14838344Y6404083D01*
X14587746Y6300282D01*
X14362213Y6149586D01*
X14170414Y5957787D01*
X14019718Y5732254D01*
X13915917Y5481656D01*
X13863000Y5215623D01*
X13863000Y4944377D01*
X13915917Y4678344D01*
X14019718Y4427746D01*
X14170414Y4202213D01*
X14362213Y4010414D01*
X14587746Y3859718D01*
X14838344Y3755917D01*
X15104377Y3703000D01*
X15375623Y3703000D01*
X15641656Y3755917D01*
X15892254Y3859718D01*
X16020820Y3945623D01*
X21443000Y3945623D01*
X21443000Y3674377D01*
X21495917Y3408344D01*
X21599718Y3157746D01*
X21750414Y2932213D01*
X21942213Y2740414D01*
X22167746Y2589718D01*
X22418344Y2485917D01*
X22684377Y2433000D01*
X22955623Y2433000D01*
X23221656Y2485917D01*
X23472254Y2589718D01*
X23697787Y2740414D01*
X23889586Y2932213D01*
X23956930Y3033000D01*
X25533070Y3033000D01*
X25600414Y2932213D01*
X25792213Y2740414D01*
X26017746Y2589718D01*
X26268344Y2485917D01*
X26534377Y2433000D01*
X26805623Y2433000D01*
X27071656Y2485917D01*
X27322254Y2589718D01*
X27547787Y2740414D01*
X27739586Y2932213D01*
X27890282Y3157746D01*
X27994083Y3408344D01*
X28047000Y3674377D01*
X28047000Y3945623D01*
X27994083Y4211656D01*
X27890282Y4462254D01*
X27739586Y4687787D01*
X27547787Y4879586D01*
X27322254Y5030282D01*
X27071656Y5134083D01*
X26805623Y5187000D01*
X26534377Y5187000D01*
X26268344Y5134083D01*
X26017746Y5030282D01*
X25792213Y4879586D01*
X25600414Y4687787D01*
X25533070Y4587000D01*
X23956930Y4587000D01*
X23889586Y4687787D01*
X23697787Y4879586D01*
X23472254Y5030282D01*
X23221656Y5134083D01*
X22955623Y5187000D01*
X22684377Y5187000D01*
X22418344Y5134083D01*
X22167746Y5030282D01*
X21942213Y4879586D01*
X21750414Y4687787D01*
X21599718Y4462254D01*
X21495917Y4211656D01*
X21443000Y3945623D01*
X16020820Y3945623D01*
X16117787Y4010414D01*
X16309586Y4202213D01*
X16460282Y4427746D01*
X16564083Y4678344D01*
X16617000Y4944377D01*
X16617000Y5215623D01*
X16594159Y5330453D01*
X16633822Y5378783D01*
X16689176Y5446232D01*
X16761326Y5581215D01*
X16767763Y5602434D01*
X16805756Y5727680D01*
X16816999Y5841833D01*
X16816999Y5841842D01*
X16820757Y5879998D01*
X16816999Y5918154D01*
X16816999Y9368156D01*
X22605492Y15156648D01*
X22724377Y15133000D01*
X22995623Y15133000D01*
X23261656Y15185917D01*
X23512254Y15289718D01*
X23737787Y15440414D01*
X23929586Y15632213D01*
X24080282Y15857746D01*
X24130000Y15977776D01*
X24179718Y15857746D01*
X24330414Y15632213D01*
X24522213Y15440414D01*
X24623000Y15373070D01*
X24623001Y11751845D01*
X23114509Y10243352D01*
X22995623Y10267000D01*
X22724377Y10267000D01*
X22458344Y10214083D01*
X22207746Y10110282D01*
X21982213Y9959586D01*
X21790414Y9767787D01*
X21639718Y9542254D01*
X21535917Y9291656D01*
X21483000Y9025623D01*
X21483000Y8754377D01*
X21535917Y8488344D01*
X21639718Y8237746D01*
X21790414Y8012213D01*
X21982213Y7820414D01*
X22207746Y7669718D01*
X22458344Y7565917D01*
X22724377Y7513000D01*
X22995623Y7513000D01*
X23261656Y7565917D01*
X23512254Y7669718D01*
X23737787Y7820414D01*
X23929586Y8012213D01*
X24080282Y8237746D01*
X24130000Y8357776D01*
X24179718Y8237746D01*
X24330414Y8012213D01*
X24522213Y7820414D01*
X24747746Y7669718D01*
X24998344Y7565917D01*
X25264377Y7513000D01*
X25535623Y7513000D01*
X25654509Y7536648D01*
X29903592Y3287564D01*
X29927920Y3257920D01*
X29957564Y3233592D01*
X29957565Y3233591D01*
X30046233Y3160823D01*
X30113725Y3124748D01*
X30181216Y3088673D01*
X30327681Y3044243D01*
X30441834Y3033000D01*
X30441836Y3033000D01*
X30480000Y3029241D01*
X30518163Y3033000D01*
X30613070Y3033000D01*
X30680414Y2932213D01*
X30872213Y2740414D01*
X31097746Y2589718D01*
X31348344Y2485917D01*
X31614377Y2433000D01*
X31885623Y2433000D01*
X32151656Y2485917D01*
X32402254Y2589718D01*
X32627787Y2740414D01*
X32819586Y2932213D01*
X32886930Y3033000D01*
X36963070Y3033000D01*
X37030414Y2932213D01*
X37222213Y2740414D01*
X37447746Y2589718D01*
X37698344Y2485917D01*
X37964377Y2433000D01*
X38235623Y2433000D01*
X38501656Y2485917D01*
X38752254Y2589718D01*
X38977787Y2740414D01*
X39169586Y2932213D01*
X39320282Y3157746D01*
X39424083Y3408344D01*
X39477000Y3674377D01*
X39477000Y3945623D01*
X39424083Y4211656D01*
X39320282Y4462254D01*
X39169586Y4687787D01*
X38977787Y4879586D01*
X38752254Y5030282D01*
X38501656Y5134083D01*
X38235623Y5187000D01*
X37964377Y5187000D01*
X37698344Y5134083D01*
X37447746Y5030282D01*
X37222213Y4879586D01*
X37030414Y4687787D01*
X36963070Y4587000D01*
X32886930Y4587000D01*
X32819586Y4687787D01*
X32627787Y4879586D01*
X32402254Y5030282D01*
X32151656Y5134083D01*
X31885623Y5187000D01*
X31614377Y5187000D01*
X31348344Y5134083D01*
X31097746Y5030282D01*
X30872213Y4879586D01*
X30690735Y4698108D01*
X27875843Y7513000D01*
X28075623Y7513000D01*
X28194509Y7536648D01*
X29395592Y6335564D01*
X29419920Y6305920D01*
X29449564Y6281592D01*
X29449565Y6281591D01*
X29538233Y6208823D01*
X29594438Y6178781D01*
X29673216Y6136673D01*
X29819681Y6092243D01*
X29933834Y6081000D01*
X29933836Y6081000D01*
X29972000Y6077241D01*
X30010163Y6081000D01*
X41109837Y6081000D01*
X41148000Y6077241D01*
X41186163Y6081000D01*
X41186166Y6081000D01*
X41300319Y6092243D01*
X41446784Y6136673D01*
X41581766Y6208823D01*
X41700080Y6305920D01*
X41724412Y6335569D01*
X42403000Y7014157D01*
X42403001Y4946930D01*
X42302213Y4879586D01*
X42110414Y4687787D01*
X41959718Y4462254D01*
X41855917Y4211656D01*
X41803000Y3945623D01*
X41803000Y3674377D01*
X41855917Y3408344D01*
X41959718Y3157746D01*
X42110414Y2932213D01*
X42302213Y2740414D01*
X42527746Y2589718D01*
X42778344Y2485917D01*
X43044377Y2433000D01*
X43315623Y2433000D01*
X43581656Y2485917D01*
X43832254Y2589718D01*
X44057787Y2740414D01*
X44249586Y2932213D01*
X44400282Y3157746D01*
X44504083Y3408344D01*
X44557000Y3674377D01*
X44557000Y3945623D01*
X44504083Y4211656D01*
X44400282Y4462254D01*
X44249586Y4687787D01*
X44057787Y4879586D01*
X43957000Y4946930D01*
X43957000Y7753070D01*
X44057787Y7820414D01*
X44249586Y8012213D01*
X44400282Y8237746D01*
X44504083Y8488344D01*
X44557000Y8754377D01*
X44557000Y9025623D01*
X44533352Y9144509D01*
X44771844Y9383000D01*
X50535738Y9383000D01*
X50578373Y9242453D01*
X50655054Y9098993D01*
X50758249Y8973249D01*
X50883993Y8870054D01*
X51027453Y8793373D01*
X51183116Y8746153D01*
X51345000Y8730209D01*
X52795000Y8730209D01*
X52956884Y8746153D01*
X53112547Y8793373D01*
X53256007Y8870054D01*
X53381751Y8973249D01*
X53484946Y9098993D01*
X53561627Y9242453D01*
X53608847Y9398116D01*
X53624791Y9560000D01*
X53624791Y10760000D01*
X53608847Y10921884D01*
X53561627Y11077547D01*
X53484946Y11221007D01*
X53381751Y11346751D01*
X53256007Y11449946D01*
X53112547Y11526627D01*
X52956884Y11573847D01*
X52795000Y11589791D01*
X51345000Y11589791D01*
X51183116Y11573847D01*
X51027453Y11526627D01*
X50883993Y11449946D01*
X50758249Y11346751D01*
X50655054Y11221007D01*
X50578373Y11077547D01*
X50535738Y10937000D01*
X44488155Y10937000D01*
X44449999Y10940758D01*
X44411843Y10937000D01*
X44411834Y10937000D01*
X44297681Y10925757D01*
X44151216Y10881327D01*
X44016233Y10809177D01*
X43981684Y10780823D01*
X43897920Y10712080D01*
X43873592Y10682436D01*
X43434509Y10243352D01*
X43315623Y10267000D01*
X43115843Y10267000D01*
X47231844Y14383000D01*
X50742257Y14383000D01*
X50752752Y14363366D01*
X50931077Y14146077D01*
X51148366Y13967752D01*
X51396269Y13835245D01*
X51665259Y13753648D01*
X51874902Y13733000D01*
X52265098Y13733000D01*
X52474741Y13753648D01*
X52743731Y13835245D01*
X52991634Y13967752D01*
X53208923Y14146077D01*
X53387248Y14363366D01*
X53519755Y14611269D01*
X53601352Y14880259D01*
X53628904Y15160000D01*
X53601352Y15439741D01*
X53519755Y15708731D01*
X53387248Y15956634D01*
X53208923Y16173923D01*
X52991634Y16352248D01*
X52743731Y16484755D01*
X52474741Y16566352D01*
X52265098Y16587000D01*
X51874902Y16587000D01*
X51665259Y16566352D01*
X51396269Y16484755D01*
X51148366Y16352248D01*
X50931077Y16173923D01*
X50752752Y15956634D01*
X50742257Y15937000D01*
X46948155Y15937000D01*
X46909999Y15940758D01*
X46871843Y15937000D01*
X46871834Y15937000D01*
X46757681Y15925757D01*
X46611216Y15881327D01*
X46476233Y15809177D01*
X46420264Y15763244D01*
X46357920Y15712080D01*
X46333592Y15682436D01*
X40894509Y10243352D01*
X40775623Y10267000D01*
X40504377Y10267000D01*
X40238344Y10214083D01*
X39987746Y10110282D01*
X39762213Y9959586D01*
X39570414Y9767787D01*
X39419718Y9542254D01*
X39370000Y9422224D01*
X39320282Y9542254D01*
X39169586Y9767787D01*
X38977787Y9959586D01*
X38752254Y10110282D01*
X38501656Y10214083D01*
X38235623Y10267000D01*
X37964377Y10267000D01*
X37698344Y10214083D01*
X37447746Y10110282D01*
X37222213Y9959586D01*
X37030414Y9767787D01*
X36879718Y9542254D01*
X36830000Y9422224D01*
X36780282Y9542254D01*
X36629586Y9767787D01*
X36437787Y9959586D01*
X36212254Y10110282D01*
X35961656Y10214083D01*
X35695623Y10267000D01*
X35424377Y10267000D01*
X35158344Y10214083D01*
X34907746Y10110282D01*
X34682213Y9959586D01*
X34490414Y9767787D01*
X34339718Y9542254D01*
X34235917Y9291656D01*
X34183000Y9025623D01*
X34183000Y8754377D01*
X34235917Y8488344D01*
X34339718Y8237746D01*
X34490414Y8012213D01*
X34682213Y7820414D01*
X34907746Y7669718D01*
X34991563Y7635000D01*
X30293844Y7635000D01*
X29293352Y8635491D01*
X29317000Y8754377D01*
X29317000Y9025623D01*
X29264083Y9291656D01*
X29160282Y9542254D01*
X29009586Y9767787D01*
X28817787Y9959586D01*
X28717000Y10026930D01*
X28717000Y12886157D01*
X30748437Y14917593D01*
X30778080Y14941920D01*
X30802409Y14971565D01*
X30875177Y15060233D01*
X30947327Y15195216D01*
X30963860Y15249718D01*
X30991757Y15341681D01*
X31003000Y15455834D01*
X31003000Y15455843D01*
X31006758Y15493999D01*
X31003000Y15532155D01*
X31003000Y16505847D01*
X31006758Y16544003D01*
X31003000Y16582159D01*
X31003000Y16582168D01*
X30991757Y16696321D01*
X30947327Y16842786D01*
X30910515Y16911656D01*
X30875177Y16977769D01*
X30802409Y17066437D01*
X30802408Y17066438D01*
X30778080Y17096082D01*
X30748436Y17120410D01*
X29595845Y18273000D01*
X37778157Y18273000D01*
X38164157Y17887000D01*
X37964377Y17887000D01*
X37698344Y17834083D01*
X37447746Y17730282D01*
X37222213Y17579586D01*
X37030414Y17387787D01*
X36879718Y17162254D01*
X36775917Y16911656D01*
X36723000Y16645623D01*
X36723000Y16374377D01*
X36775917Y16108344D01*
X36879718Y15857746D01*
X37030414Y15632213D01*
X37222213Y15440414D01*
X37447746Y15289718D01*
X37698344Y15185917D01*
X37964377Y15133000D01*
X38235623Y15133000D01*
X38501656Y15185917D01*
X38752254Y15289718D01*
X38977787Y15440414D01*
X39169586Y15632213D01*
X39320282Y15857746D01*
X39370000Y15977776D01*
X39419718Y15857746D01*
X39570414Y15632213D01*
X39762213Y15440414D01*
X39987746Y15289718D01*
X40238344Y15185917D01*
X40504377Y15133000D01*
X40775623Y15133000D01*
X41041656Y15185917D01*
X41292254Y15289718D01*
X41517787Y15440414D01*
X41709586Y15632213D01*
X41800209Y15767840D01*
X41800209Y15710000D01*
X41811350Y15596888D01*
X41844343Y15488124D01*
X41897921Y15387885D01*
X41970026Y15300026D01*
X42057885Y15227921D01*
X42158124Y15174343D01*
X42266888Y15141350D01*
X42380000Y15130209D01*
X43980000Y15130209D01*
X44093112Y15141350D01*
X44201876Y15174343D01*
X44302115Y15227921D01*
X44389974Y15300026D01*
X44462079Y15387885D01*
X44515657Y15488124D01*
X44548650Y15596888D01*
X44559791Y15710000D01*
X44559791Y17310000D01*
X44548650Y17423112D01*
X44515657Y17531876D01*
X44462079Y17632115D01*
X44389974Y17719974D01*
X44302115Y17792079D01*
X44201876Y17845657D01*
X44093112Y17878650D01*
X43980000Y17889791D01*
X42380000Y17889791D01*
X42266888Y17878650D01*
X42158124Y17845657D01*
X42057885Y17792079D01*
X41970026Y17719974D01*
X41897921Y17632115D01*
X41844343Y17531876D01*
X41811350Y17423112D01*
X41800209Y17310000D01*
X41800209Y17252160D01*
X41709586Y17387787D01*
X41517787Y17579586D01*
X41292254Y17730282D01*
X41041656Y17834083D01*
X40775623Y17887000D01*
X40504377Y17887000D01*
X40385491Y17863352D01*
X38676413Y19572431D01*
X38652080Y19602080D01*
X38533766Y19699177D01*
X38398784Y19771327D01*
X38252319Y19815757D01*
X38138166Y19827000D01*
X38138163Y19827000D01*
X38100000Y19830759D01*
X38061837Y19827000D01*
X15248163Y19827000D01*
X15210000Y19830759D01*
X15171836Y19827000D01*
X15171834Y19827000D01*
X15057681Y19815757D01*
X14911216Y19771327D01*
X14843725Y19735252D01*
X14776233Y19699177D01*
X14687565Y19626409D01*
X14657920Y19602080D01*
X14633592Y19572436D01*
X13447569Y18386412D01*
X13417920Y18362080D01*
X13393591Y18332434D01*
X13320823Y18243766D01*
X13248674Y18108784D01*
X13248673Y18108783D01*
X13212577Y17989791D01*
X13070000Y17989791D01*
X12956888Y17978650D01*
X12848124Y17945657D01*
X12747885Y17892079D01*
X12660026Y17819974D01*
X12587921Y17732115D01*
X12534343Y17631876D01*
X12501350Y17523112D01*
X12490209Y17410000D01*
X12490209Y17247000D01*
X10026930Y17247000D01*
X9959586Y17347787D01*
X9767787Y17539586D01*
X9542254Y17690282D01*
X9291656Y17794083D01*
X9025623Y17847000D01*
X8754377Y17847000D01*
X8488344Y17794083D01*
X8237746Y17690282D01*
X8012213Y17539586D01*
X7820414Y17347787D01*
X7779798Y17287000D01*
X4946930Y17287000D01*
X4879586Y17387787D01*
X4687787Y17579586D01*
X4462254Y17730282D01*
X4211656Y17834083D01*
X3945623Y17887000D01*
X3674377Y17887000D01*
X3408344Y17834083D01*
X3157746Y17730282D01*
X2932213Y17579586D01*
X2740414Y17387787D01*
X2589718Y17162254D01*
X2485917Y16911656D01*
X2433000Y16645623D01*
X127000Y16645623D01*
X127000Y21463000D01*
X55753000Y21463000D01*
X55753000Y127000D01*
G36*
X29449001Y16222157D02*
G01*
X29449000Y15815844D01*
X27417565Y13784408D01*
X27387921Y13760080D01*
X27363593Y13730436D01*
X27363591Y13730434D01*
X27290823Y13641766D01*
X27218673Y13506783D01*
X27174244Y13360318D01*
X27159241Y13208000D01*
X27163001Y13169827D01*
X27163000Y10026930D01*
X27062213Y9959586D01*
X26870414Y9767787D01*
X26719718Y9542254D01*
X26670000Y9422224D01*
X26620282Y9542254D01*
X26469586Y9767787D01*
X26277787Y9959586D01*
X26052254Y10110282D01*
X25801656Y10214083D01*
X25535623Y10267000D01*
X25335844Y10267000D01*
X25922436Y10853592D01*
X25952080Y10877920D01*
X25991338Y10925756D01*
X26049177Y10996233D01*
X26121327Y11131216D01*
X26165757Y11277681D01*
X26177000Y11391834D01*
X26177000Y11391843D01*
X26180758Y11429999D01*
X26177000Y11468155D01*
X26177000Y15373070D01*
X26277787Y15440414D01*
X26469586Y15632213D01*
X26620282Y15857746D01*
X26724083Y16108344D01*
X26777000Y16374377D01*
X26777000Y16645623D01*
X26724083Y16911656D01*
X26620282Y17162254D01*
X26556975Y17257000D01*
X28414159Y17257000D01*
X29449001Y16222157D01*
G37*
X29449001Y16222157D02*
X29449000Y15815844D01*
X27417565Y13784408D01*
X27387921Y13760080D01*
X27363593Y13730436D01*
X27363591Y13730434D01*
X27290823Y13641766D01*
X27218673Y13506783D01*
X27174244Y13360318D01*
X27159241Y13208000D01*
X27163001Y13169827D01*
X27163000Y10026930D01*
X27062213Y9959586D01*
X26870414Y9767787D01*
X26719718Y9542254D01*
X26670000Y9422224D01*
X26620282Y9542254D01*
X26469586Y9767787D01*
X26277787Y9959586D01*
X26052254Y10110282D01*
X25801656Y10214083D01*
X25535623Y10267000D01*
X25335844Y10267000D01*
X25922436Y10853592D01*
X25952080Y10877920D01*
X25991338Y10925756D01*
X26049177Y10996233D01*
X26121327Y11131216D01*
X26165757Y11277681D01*
X26177000Y11391834D01*
X26177000Y11391843D01*
X26180758Y11429999D01*
X26177000Y11468155D01*
X26177000Y15373070D01*
X26277787Y15440414D01*
X26469586Y15632213D01*
X26620282Y15857746D01*
X26724083Y16108344D01*
X26777000Y16374377D01*
X26777000Y16645623D01*
X26724083Y16911656D01*
X26620282Y17162254D01*
X26556975Y17257000D01*
X28414159Y17257000D01*
X29449001Y16222157D01*
M02*
