M48
; DRILL file {KiCad (5.1.5)-3} date 25/01/2021 13:26:27
; FORMAT={-:-/ absolute / inch / decimal}
; #@! TF.CreationDate,2021-01-25T13:26:27+00:00
; #@! TF.GenerationSoftware,Kicad,Pcbnew,(5.1.5)-3
FMAT,2
INCH
T1C0.0315
T2C0.0354
T3C0.0374
%
G90
G05
T1
X0.35Y0.6484
X0.35Y0.55
X1.05Y0.15
X1.25Y0.15
X0.8Y0.65
X0.8Y0.35
X0.9Y0.65
X0.9Y0.35
X1.0Y0.65
X1.0Y0.35
X1.1Y0.65
X1.1Y0.35
X1.5Y0.15
X1.7Y0.15
X1.4Y0.65
X1.4Y0.35
X1.5Y0.65
X1.5Y0.35
X1.6Y0.65
X1.6Y0.35
X1.7Y0.65
X1.7Y0.35
X0.15Y0.65
X0.15Y0.45
X0.8Y0.15
X0.8984Y0.15
X0.4Y0.2
X0.6Y0.2
T2
X0.55Y0.65
X0.55Y0.35
T3
X2.05Y0.5969
X2.05Y0.4984
X2.05Y0.4
T0
M30
