G04 #@! TF.GenerationSoftware,KiCad,Pcbnew,(5.1.5)-3*
G04 #@! TF.CreationDate,2021-04-01T10:14:31+01:00*
G04 #@! TF.ProjectId,KiCadSoil3,4b694361-6453-46f6-996c-332e6b696361,1.0*
G04 #@! TF.SameCoordinates,PX2a640d0PY31a8670*
G04 #@! TF.FileFunction,Copper,L2,Bot*
G04 #@! TF.FilePolarity,Positive*
%FSLAX46Y46*%
G04 Gerber Fmt 4.6, Leading zero omitted, Abs format (unit mm)*
G04 Created by KiCad (PCBNEW (5.1.5)-3) date 2021-04-01 10:14:32*
%MOMM*%
%LPD*%
G04 APERTURE LIST*
%ADD10C,1.600000*%
%ADD11O,1.400000X1.400000*%
%ADD12C,1.400000*%
%ADD13O,1.800000X1.800000*%
%ADD14R,1.800000X1.800000*%
%ADD15R,2.200000X1.050000*%
%ADD16R,1.050000X1.000000*%
%ADD17O,1.600000X1.600000*%
%ADD18R,1.600000X1.600000*%
%ADD19O,1.950000X1.700000*%
%ADD20C,0.100000*%
%ADD21C,0.400000*%
%ADD22C,0.120000*%
G04 APERTURE END LIST*
D10*
X19605000Y1905000D03*
X14605000Y1905000D03*
X11350000Y1905000D03*
X6350000Y1905000D03*
D11*
X22860000Y1905000D03*
D12*
X30480000Y1905000D03*
X3175000Y5080000D03*
D11*
X10795000Y5080000D03*
X1905000Y16510000D03*
D12*
X1905000Y8890000D03*
D13*
X10160000Y8890000D03*
D14*
X10160000Y16510000D03*
D10*
X5715000Y16430000D03*
X5715000Y11430000D03*
D15*
X6190000Y6780000D03*
D16*
X4665000Y8255000D03*
D15*
X6190000Y9730000D03*
D17*
X35560000Y5080000D03*
X27940000Y12700000D03*
X33020000Y5080000D03*
X30480000Y12700000D03*
X30480000Y5080000D03*
X33020000Y12700000D03*
X27940000Y5080000D03*
D18*
X35560000Y12700000D03*
D17*
X22225000Y5080000D03*
X14605000Y12700000D03*
X19685000Y5080000D03*
X17145000Y12700000D03*
X17145000Y5080000D03*
X19685000Y12700000D03*
X14605000Y5080000D03*
D18*
X22225000Y12700000D03*
D19*
X40640000Y11350000D03*
X40640000Y8850000D03*
G04 #@! TA.AperFunction,ComponentPad*
D20*
G36*
X41389504Y7198796D02*
G01*
X41413773Y7195196D01*
X41437571Y7189235D01*
X41460671Y7180970D01*
X41482849Y7170480D01*
X41503893Y7157867D01*
X41523598Y7143253D01*
X41541777Y7126777D01*
X41558253Y7108598D01*
X41572867Y7088893D01*
X41585480Y7067849D01*
X41595970Y7045671D01*
X41604235Y7022571D01*
X41610196Y6998773D01*
X41613796Y6974504D01*
X41615000Y6950000D01*
X41615000Y5750000D01*
X41613796Y5725496D01*
X41610196Y5701227D01*
X41604235Y5677429D01*
X41595970Y5654329D01*
X41585480Y5632151D01*
X41572867Y5611107D01*
X41558253Y5591402D01*
X41541777Y5573223D01*
X41523598Y5556747D01*
X41503893Y5542133D01*
X41482849Y5529520D01*
X41460671Y5519030D01*
X41437571Y5510765D01*
X41413773Y5504804D01*
X41389504Y5501204D01*
X41365000Y5500000D01*
X39915000Y5500000D01*
X39890496Y5501204D01*
X39866227Y5504804D01*
X39842429Y5510765D01*
X39819329Y5519030D01*
X39797151Y5529520D01*
X39776107Y5542133D01*
X39756402Y5556747D01*
X39738223Y5573223D01*
X39721747Y5591402D01*
X39707133Y5611107D01*
X39694520Y5632151D01*
X39684030Y5654329D01*
X39675765Y5677429D01*
X39669804Y5701227D01*
X39666204Y5725496D01*
X39665000Y5750000D01*
X39665000Y6950000D01*
X39666204Y6974504D01*
X39669804Y6998773D01*
X39675765Y7022571D01*
X39684030Y7045671D01*
X39694520Y7067849D01*
X39707133Y7088893D01*
X39721747Y7108598D01*
X39738223Y7126777D01*
X39756402Y7143253D01*
X39776107Y7157867D01*
X39797151Y7170480D01*
X39819329Y7180970D01*
X39842429Y7189235D01*
X39866227Y7195196D01*
X39890496Y7198796D01*
X39915000Y7200000D01*
X41365000Y7200000D01*
X41389504Y7198796D01*
G37*
G04 #@! TD.AperFunction*
D21*
X36830000Y6350000D02*
X35560000Y5080000D01*
X35560000Y5080000D02*
X35560000Y3175000D01*
X35560000Y3175000D02*
X34290000Y1905000D01*
X36830000Y6350000D02*
X40640000Y6350000D01*
X34290000Y1905000D02*
X30480000Y1905000D01*
X28575000Y1905000D02*
X24130000Y6350000D01*
X30480000Y1905000D02*
X28575000Y1905000D01*
X23079026Y14991993D02*
X15459026Y14991993D01*
X23495000Y6350000D02*
X22225000Y5080000D01*
X24130000Y6350000D02*
X23495000Y6350000D01*
X24130000Y13941019D02*
X23079026Y14991993D01*
X24130000Y6350000D02*
X24130000Y13941019D01*
X14605000Y14137967D02*
X14605000Y12700000D01*
X15459026Y14991993D02*
X14605000Y14137967D01*
X33020000Y6985000D02*
X33020000Y5080000D01*
X37385000Y11350000D02*
X33020000Y6985000D01*
X37385000Y11350000D02*
X40640000Y11350000D01*
X17145000Y11430000D02*
X10795000Y5080000D01*
X17145000Y12700000D02*
X17145000Y11430000D01*
X4929999Y7990001D02*
X4665000Y8255000D01*
X9260001Y7990001D02*
X4929999Y7990001D01*
X10160000Y8890000D02*
X9260001Y7990001D01*
X3175000Y6069949D02*
X3175000Y5080000D01*
X3740000Y8255000D02*
X3175000Y7690000D01*
X3175000Y7690000D02*
X3175000Y6069949D01*
X4665000Y8255000D02*
X3740000Y8255000D01*
X1350000Y16510000D02*
X1270000Y16430000D01*
X29210000Y16510000D02*
X10160000Y16510000D01*
X33020000Y12700000D02*
X29210000Y16510000D01*
X5795000Y16510000D02*
X5715000Y16430000D01*
X10160000Y16510000D02*
X5795000Y16510000D01*
X1985000Y16430000D02*
X1905000Y16510000D01*
X5715000Y16430000D02*
X1985000Y16430000D01*
X14599990Y5074990D02*
X14599990Y5080000D01*
X11430000Y1905000D02*
X11350000Y1905000D01*
X14605000Y5080000D02*
X11430000Y1905000D01*
X17700000Y5000000D02*
X17780000Y5080000D01*
X19685000Y11568630D02*
X19685000Y5080000D01*
X19685000Y12700000D02*
X19685000Y11568630D01*
X19685000Y5080000D02*
X17145000Y5080000D01*
X22860000Y1905000D02*
X19605000Y1905000D01*
X19605000Y5000000D02*
X19685000Y5080000D01*
X19605000Y1905000D02*
X19605000Y5000000D01*
D22*
G36*
X43120000Y60000D02*
G01*
X60000Y60000D01*
X60000Y2029099D01*
X10090000Y2029099D01*
X10090000Y1780901D01*
X10138421Y1537471D01*
X10233402Y1308166D01*
X10371294Y1101797D01*
X10546797Y926294D01*
X10753166Y788402D01*
X10982471Y693421D01*
X11225901Y645000D01*
X11474099Y645000D01*
X11717529Y693421D01*
X11946834Y788402D01*
X12153203Y926294D01*
X12328706Y1101797D01*
X12466598Y1308166D01*
X12561579Y1537471D01*
X12610000Y1780901D01*
X12610000Y2029099D01*
X12589673Y2131292D01*
X14311981Y3853600D01*
X14480901Y3820000D01*
X14729099Y3820000D01*
X14972529Y3868421D01*
X15201834Y3963402D01*
X15408203Y4101294D01*
X15583706Y4276797D01*
X15721598Y4483166D01*
X15816579Y4712471D01*
X15865000Y4955901D01*
X15865000Y5204099D01*
X15885000Y5204099D01*
X15885000Y4955901D01*
X15933421Y4712471D01*
X16028402Y4483166D01*
X16166294Y4276797D01*
X16341797Y4101294D01*
X16548166Y3963402D01*
X16777471Y3868421D01*
X17020901Y3820000D01*
X17269099Y3820000D01*
X17512529Y3868421D01*
X17741834Y3963402D01*
X17948203Y4101294D01*
X18123706Y4276797D01*
X18219392Y4420000D01*
X18610608Y4420000D01*
X18706294Y4276797D01*
X18881797Y4101294D01*
X18945001Y4059062D01*
X18945000Y2979392D01*
X18801797Y2883706D01*
X18626294Y2708203D01*
X18488402Y2501834D01*
X18393421Y2272529D01*
X18345000Y2029099D01*
X18345000Y1780901D01*
X18393421Y1537471D01*
X18488402Y1308166D01*
X18626294Y1101797D01*
X18801797Y926294D01*
X19008166Y788402D01*
X19237471Y693421D01*
X19480901Y645000D01*
X19729099Y645000D01*
X19972529Y693421D01*
X20201834Y788402D01*
X20408203Y926294D01*
X20583706Y1101797D01*
X20679392Y1245000D01*
X21905877Y1245000D01*
X21958969Y1165543D01*
X22120543Y1003969D01*
X22310534Y877021D01*
X22521640Y789578D01*
X22745750Y745000D01*
X22974250Y745000D01*
X23198360Y789578D01*
X23409466Y877021D01*
X23599457Y1003969D01*
X23761031Y1165543D01*
X23887979Y1355534D01*
X23975422Y1566640D01*
X24020000Y1790750D01*
X24020000Y2019250D01*
X23975422Y2243360D01*
X23887979Y2454466D01*
X23761031Y2644457D01*
X23599457Y2806031D01*
X23409466Y2932979D01*
X23198360Y3020422D01*
X22974250Y3065000D01*
X22745750Y3065000D01*
X22521640Y3020422D01*
X22310534Y2932979D01*
X22120543Y2806031D01*
X21958969Y2644457D01*
X21905877Y2565000D01*
X20679392Y2565000D01*
X20583706Y2708203D01*
X20408203Y2883706D01*
X20265000Y2979392D01*
X20265000Y3956429D01*
X20281834Y3963402D01*
X20488203Y4101294D01*
X20663706Y4276797D01*
X20801598Y4483166D01*
X20896579Y4712471D01*
X20945000Y4955901D01*
X20945000Y5204099D01*
X20896579Y5447529D01*
X20801598Y5676834D01*
X20663706Y5883203D01*
X20488203Y6058706D01*
X20345000Y6154392D01*
X20345000Y11625608D01*
X20488203Y11721294D01*
X20663706Y11896797D01*
X20801598Y12103166D01*
X20896579Y12332471D01*
X20945000Y12575901D01*
X20945000Y12824099D01*
X20896579Y13067529D01*
X20801598Y13296834D01*
X20663706Y13503203D01*
X20488203Y13678706D01*
X20281834Y13816598D01*
X20052529Y13911579D01*
X19809099Y13960000D01*
X19560901Y13960000D01*
X19317471Y13911579D01*
X19088166Y13816598D01*
X18881797Y13678706D01*
X18706294Y13503203D01*
X18568402Y13296834D01*
X18473421Y13067529D01*
X18425000Y12824099D01*
X18425000Y12575901D01*
X18473421Y12332471D01*
X18568402Y12103166D01*
X18706294Y11896797D01*
X18881797Y11721294D01*
X19025001Y11625608D01*
X19025001Y11601058D01*
X19025000Y11601048D01*
X19025001Y6154392D01*
X18881797Y6058706D01*
X18706294Y5883203D01*
X18610608Y5740000D01*
X18219392Y5740000D01*
X18123706Y5883203D01*
X17948203Y6058706D01*
X17741834Y6196598D01*
X17512529Y6291579D01*
X17269099Y6340000D01*
X17020901Y6340000D01*
X16777471Y6291579D01*
X16548166Y6196598D01*
X16341797Y6058706D01*
X16166294Y5883203D01*
X16028402Y5676834D01*
X15933421Y5447529D01*
X15885000Y5204099D01*
X15865000Y5204099D01*
X15816579Y5447529D01*
X15721598Y5676834D01*
X15583706Y5883203D01*
X15408203Y6058706D01*
X15201834Y6196598D01*
X14972529Y6291579D01*
X14729099Y6340000D01*
X14480901Y6340000D01*
X14237471Y6291579D01*
X14008166Y6196598D01*
X13801797Y6058706D01*
X13626294Y5883203D01*
X13488402Y5676834D01*
X13393421Y5447529D01*
X13345000Y5204099D01*
X13345000Y4955901D01*
X13378600Y4786981D01*
X11709747Y3118127D01*
X11474099Y3165000D01*
X11225901Y3165000D01*
X10982471Y3116579D01*
X10753166Y3021598D01*
X10546797Y2883706D01*
X10371294Y2708203D01*
X10233402Y2501834D01*
X10138421Y2272529D01*
X10090000Y2029099D01*
X60000Y2029099D01*
X60000Y5194250D01*
X2015000Y5194250D01*
X2015000Y4965750D01*
X2059578Y4741640D01*
X2147021Y4530534D01*
X2273969Y4340543D01*
X2435543Y4178969D01*
X2625534Y4052021D01*
X2836640Y3964578D01*
X3060750Y3920000D01*
X3289250Y3920000D01*
X3513360Y3964578D01*
X3724466Y4052021D01*
X3914457Y4178969D01*
X4076031Y4340543D01*
X4202979Y4530534D01*
X4290422Y4741640D01*
X4335000Y4965750D01*
X4335000Y5194250D01*
X9635000Y5194250D01*
X9635000Y4965750D01*
X9679578Y4741640D01*
X9767021Y4530534D01*
X9893969Y4340543D01*
X10055543Y4178969D01*
X10245534Y4052021D01*
X10456640Y3964578D01*
X10680750Y3920000D01*
X10909250Y3920000D01*
X11133360Y3964578D01*
X11344466Y4052021D01*
X11534457Y4178969D01*
X11696031Y4340543D01*
X11822979Y4530534D01*
X11910422Y4741640D01*
X11955000Y4965750D01*
X11955000Y5194250D01*
X11936357Y5287977D01*
X17588769Y10940388D01*
X17613948Y10961052D01*
X17660032Y11017205D01*
X17696425Y11061549D01*
X17757710Y11176207D01*
X17764982Y11200180D01*
X17795450Y11300617D01*
X17805000Y11397581D01*
X17805000Y11397590D01*
X17808192Y11429999D01*
X17805000Y11462408D01*
X17805000Y11625608D01*
X17948203Y11721294D01*
X18123706Y11896797D01*
X18261598Y12103166D01*
X18356579Y12332471D01*
X18405000Y12575901D01*
X18405000Y12824099D01*
X18356579Y13067529D01*
X18261598Y13296834D01*
X18123706Y13503203D01*
X17948203Y13678706D01*
X17741834Y13816598D01*
X17512529Y13911579D01*
X17269099Y13960000D01*
X17020901Y13960000D01*
X16777471Y13911579D01*
X16548166Y13816598D01*
X16341797Y13678706D01*
X16166294Y13503203D01*
X16028402Y13296834D01*
X15933421Y13067529D01*
X15885000Y12824099D01*
X15885000Y12575901D01*
X15933421Y12332471D01*
X16028402Y12103166D01*
X16166294Y11896797D01*
X16341797Y11721294D01*
X16438379Y11656760D01*
X11002977Y6221357D01*
X10909250Y6240000D01*
X10680750Y6240000D01*
X10456640Y6195422D01*
X10245534Y6107979D01*
X10055543Y5981031D01*
X9893969Y5819457D01*
X9767021Y5629466D01*
X9679578Y5418360D01*
X9635000Y5194250D01*
X4335000Y5194250D01*
X4290422Y5418360D01*
X4202979Y5629466D01*
X4076031Y5819457D01*
X3914457Y5981031D01*
X3835000Y6034123D01*
X3835000Y7410233D01*
X3883202Y7370674D01*
X3963114Y7327960D01*
X4049824Y7301657D01*
X4140000Y7292775D01*
X5190000Y7292775D01*
X5280176Y7301657D01*
X5366886Y7327960D01*
X5370704Y7330001D01*
X9227592Y7330001D01*
X9260001Y7326809D01*
X9292410Y7330001D01*
X9292420Y7330001D01*
X9389384Y7339551D01*
X9513794Y7377291D01*
X9628451Y7438576D01*
X9728949Y7521053D01*
X9749617Y7546237D01*
X9781937Y7578557D01*
X10026052Y7530000D01*
X10293948Y7530000D01*
X10556697Y7582264D01*
X10804201Y7684784D01*
X11026949Y7833619D01*
X11216381Y8023051D01*
X11365216Y8245799D01*
X11467736Y8493303D01*
X11520000Y8756052D01*
X11520000Y9023948D01*
X11467736Y9286697D01*
X11365216Y9534201D01*
X11216381Y9756949D01*
X11026949Y9946381D01*
X10804201Y10095216D01*
X10556697Y10197736D01*
X10293948Y10250000D01*
X10026052Y10250000D01*
X9763303Y10197736D01*
X9515799Y10095216D01*
X9293051Y9946381D01*
X9103619Y9756949D01*
X8954784Y9534201D01*
X8852264Y9286697D01*
X8800000Y9023948D01*
X8800000Y8756052D01*
X8821095Y8650001D01*
X5652225Y8650001D01*
X5652225Y8755000D01*
X5643343Y8845176D01*
X5617040Y8931886D01*
X5574326Y9011798D01*
X5516842Y9081842D01*
X5446798Y9139326D01*
X5366886Y9182040D01*
X5280176Y9208343D01*
X5190000Y9217225D01*
X4140000Y9217225D01*
X4049824Y9208343D01*
X3963114Y9182040D01*
X3883202Y9139326D01*
X3813158Y9081842D01*
X3755674Y9011798D01*
X3712960Y8931886D01*
X3707845Y8915025D01*
X3707588Y8915000D01*
X3707581Y8915000D01*
X3610617Y8905450D01*
X3486207Y8867710D01*
X3371550Y8806425D01*
X3308889Y8755000D01*
X3271052Y8723948D01*
X3250388Y8698769D01*
X2731236Y8179616D01*
X2706052Y8158948D01*
X2685386Y8133766D01*
X2623575Y8058450D01*
X2586989Y7990001D01*
X2562290Y7943792D01*
X2524550Y7819382D01*
X2515000Y7722418D01*
X2515000Y7722409D01*
X2511808Y7690000D01*
X2515000Y7657591D01*
X2515001Y6102377D01*
X2515000Y6102367D01*
X2515000Y6034123D01*
X2435543Y5981031D01*
X2273969Y5819457D01*
X2147021Y5629466D01*
X2059578Y5418360D01*
X2015000Y5194250D01*
X60000Y5194250D01*
X60000Y12824099D01*
X13345000Y12824099D01*
X13345000Y12575901D01*
X13393421Y12332471D01*
X13488402Y12103166D01*
X13626294Y11896797D01*
X13801797Y11721294D01*
X14008166Y11583402D01*
X14237471Y11488421D01*
X14480901Y11440000D01*
X14729099Y11440000D01*
X14972529Y11488421D01*
X15201834Y11583402D01*
X15408203Y11721294D01*
X15583706Y11896797D01*
X15721598Y12103166D01*
X15816579Y12332471D01*
X15865000Y12575901D01*
X15865000Y12824099D01*
X15816579Y13067529D01*
X15721598Y13296834D01*
X15583706Y13503203D01*
X15408203Y13678706D01*
X15265000Y13774392D01*
X15265000Y13864587D01*
X15732407Y14331993D01*
X22805646Y14331993D01*
X23470001Y13667637D01*
X23470000Y7010730D01*
X23462590Y7010000D01*
X23462581Y7010000D01*
X23365617Y7000450D01*
X23241207Y6962710D01*
X23166487Y6922772D01*
X23126549Y6901425D01*
X23070734Y6855618D01*
X23026052Y6818948D01*
X23005388Y6793769D01*
X22518019Y6306400D01*
X22349099Y6340000D01*
X22100901Y6340000D01*
X21857471Y6291579D01*
X21628166Y6196598D01*
X21421797Y6058706D01*
X21246294Y5883203D01*
X21108402Y5676834D01*
X21013421Y5447529D01*
X20965000Y5204099D01*
X20965000Y4955901D01*
X21013421Y4712471D01*
X21108402Y4483166D01*
X21246294Y4276797D01*
X21421797Y4101294D01*
X21628166Y3963402D01*
X21857471Y3868421D01*
X22100901Y3820000D01*
X22349099Y3820000D01*
X22592529Y3868421D01*
X22821834Y3963402D01*
X23028203Y4101294D01*
X23203706Y4276797D01*
X23341598Y4483166D01*
X23436579Y4712471D01*
X23485000Y4955901D01*
X23485000Y5204099D01*
X23451400Y5373019D01*
X23768381Y5690000D01*
X23856620Y5690000D01*
X28085384Y1461236D01*
X28106052Y1436052D01*
X28163603Y1388821D01*
X28206549Y1353575D01*
X28246487Y1332228D01*
X28321207Y1292290D01*
X28445617Y1254550D01*
X28542581Y1245000D01*
X28542590Y1245000D01*
X28574999Y1241808D01*
X28607408Y1245000D01*
X29525877Y1245000D01*
X29578969Y1165543D01*
X29740543Y1003969D01*
X29930534Y877021D01*
X30141640Y789578D01*
X30365750Y745000D01*
X30594250Y745000D01*
X30818360Y789578D01*
X31029466Y877021D01*
X31219457Y1003969D01*
X31381031Y1165543D01*
X31434123Y1245000D01*
X34257591Y1245000D01*
X34290000Y1241808D01*
X34322409Y1245000D01*
X34322419Y1245000D01*
X34419383Y1254550D01*
X34543793Y1292290D01*
X34658450Y1353575D01*
X34758948Y1436052D01*
X34779616Y1461236D01*
X36003769Y2685388D01*
X36028948Y2706052D01*
X36049614Y2731233D01*
X36111425Y2806549D01*
X36152665Y2883706D01*
X36172710Y2921207D01*
X36210450Y3045617D01*
X36220000Y3142581D01*
X36220000Y3142590D01*
X36223192Y3174999D01*
X36220000Y3207408D01*
X36220000Y4005608D01*
X36363203Y4101294D01*
X36538706Y4276797D01*
X36676598Y4483166D01*
X36771579Y4712471D01*
X36820000Y4955901D01*
X36820000Y5204099D01*
X36786400Y5373019D01*
X37103381Y5690000D01*
X39208684Y5690000D01*
X39216460Y5611052D01*
X39256990Y5477443D01*
X39322807Y5354309D01*
X39411381Y5246381D01*
X39519309Y5157807D01*
X39642443Y5091990D01*
X39776052Y5051460D01*
X39915000Y5037775D01*
X41365000Y5037775D01*
X41503948Y5051460D01*
X41637557Y5091990D01*
X41760691Y5157807D01*
X41868619Y5246381D01*
X41957193Y5354309D01*
X42023010Y5477443D01*
X42063540Y5611052D01*
X42077225Y5750000D01*
X42077225Y6950000D01*
X42063540Y7088948D01*
X42023010Y7222557D01*
X41957193Y7345691D01*
X41868619Y7453619D01*
X41760691Y7542193D01*
X41637557Y7608010D01*
X41503948Y7648540D01*
X41365000Y7662225D01*
X39915000Y7662225D01*
X39776052Y7648540D01*
X39642443Y7608010D01*
X39519309Y7542193D01*
X39411381Y7453619D01*
X39322807Y7345691D01*
X39256990Y7222557D01*
X39216460Y7088948D01*
X39208684Y7010000D01*
X36862408Y7010000D01*
X36829999Y7013192D01*
X36797590Y7010000D01*
X36797581Y7010000D01*
X36700617Y7000450D01*
X36576207Y6962710D01*
X36501487Y6922772D01*
X36461549Y6901425D01*
X36405734Y6855618D01*
X36361052Y6818948D01*
X36340388Y6793769D01*
X35853019Y6306400D01*
X35684099Y6340000D01*
X35435901Y6340000D01*
X35192471Y6291579D01*
X34963166Y6196598D01*
X34756797Y6058706D01*
X34581294Y5883203D01*
X34443402Y5676834D01*
X34348421Y5447529D01*
X34300000Y5204099D01*
X34300000Y4955901D01*
X34348421Y4712471D01*
X34443402Y4483166D01*
X34581294Y4276797D01*
X34756797Y4101294D01*
X34900001Y4005608D01*
X34900001Y3448382D01*
X34016620Y2565000D01*
X31434123Y2565000D01*
X31381031Y2644457D01*
X31219457Y2806031D01*
X31029466Y2932979D01*
X30818360Y3020422D01*
X30594250Y3065000D01*
X30365750Y3065000D01*
X30141640Y3020422D01*
X29930534Y2932979D01*
X29740543Y2806031D01*
X29578969Y2644457D01*
X29525877Y2565000D01*
X28848380Y2565000D01*
X26209281Y5204099D01*
X31760000Y5204099D01*
X31760000Y4955901D01*
X31808421Y4712471D01*
X31903402Y4483166D01*
X32041294Y4276797D01*
X32216797Y4101294D01*
X32423166Y3963402D01*
X32652471Y3868421D01*
X32895901Y3820000D01*
X33144099Y3820000D01*
X33387529Y3868421D01*
X33616834Y3963402D01*
X33823203Y4101294D01*
X33998706Y4276797D01*
X34136598Y4483166D01*
X34231579Y4712471D01*
X34280000Y4955901D01*
X34280000Y5204099D01*
X34231579Y5447529D01*
X34136598Y5676834D01*
X33998706Y5883203D01*
X33823203Y6058706D01*
X33680000Y6154392D01*
X33680000Y6711620D01*
X37658381Y10690000D01*
X39382385Y10690000D01*
X39420505Y10618682D01*
X39584208Y10419208D01*
X39783682Y10255505D01*
X40011259Y10133862D01*
X40258195Y10058955D01*
X40450649Y10040000D01*
X40829351Y10040000D01*
X41021805Y10058955D01*
X41268741Y10133862D01*
X41496318Y10255505D01*
X41695792Y10419208D01*
X41859495Y10618682D01*
X41981138Y10846259D01*
X42056045Y11093195D01*
X42081338Y11350000D01*
X42056045Y11606805D01*
X41981138Y11853741D01*
X41859495Y12081318D01*
X41695792Y12280792D01*
X41496318Y12444495D01*
X41268741Y12566138D01*
X41021805Y12641045D01*
X40829351Y12660000D01*
X40450649Y12660000D01*
X40258195Y12641045D01*
X40011259Y12566138D01*
X39783682Y12444495D01*
X39584208Y12280792D01*
X39420505Y12081318D01*
X39382385Y12010000D01*
X37417408Y12010000D01*
X37384999Y12013192D01*
X37352590Y12010000D01*
X37352581Y12010000D01*
X37255617Y12000450D01*
X37131207Y11962710D01*
X37016549Y11901425D01*
X36958447Y11853741D01*
X36916052Y11818948D01*
X36895388Y11793769D01*
X32576236Y7474616D01*
X32551052Y7453948D01*
X32530386Y7428766D01*
X32468575Y7353450D01*
X32440892Y7301657D01*
X32407290Y7238792D01*
X32369550Y7114382D01*
X32360000Y7017418D01*
X32360000Y7017409D01*
X32356808Y6985000D01*
X32360000Y6952591D01*
X32360000Y6154392D01*
X32216797Y6058706D01*
X32041294Y5883203D01*
X31903402Y5676834D01*
X31808421Y5447529D01*
X31760000Y5204099D01*
X26209281Y5204099D01*
X24790000Y6623380D01*
X24790000Y13908607D01*
X24793192Y13941019D01*
X24790000Y13973431D01*
X24790000Y13973438D01*
X24780450Y14070402D01*
X24742710Y14194812D01*
X24681425Y14309469D01*
X24662940Y14331993D01*
X24619614Y14384786D01*
X24619612Y14384788D01*
X24598948Y14409967D01*
X24573769Y14430631D01*
X23568642Y15435757D01*
X23547974Y15460941D01*
X23447476Y15543418D01*
X23332819Y15604703D01*
X23208409Y15642443D01*
X23111445Y15651993D01*
X23111435Y15651993D01*
X23079026Y15655185D01*
X23046617Y15651993D01*
X15491434Y15651993D01*
X15459025Y15655185D01*
X15426616Y15651993D01*
X15426607Y15651993D01*
X15329643Y15642443D01*
X15222695Y15610000D01*
X15205233Y15604703D01*
X15090575Y15543418D01*
X15015259Y15481607D01*
X14990078Y15460941D01*
X14969414Y15435762D01*
X14161236Y14627583D01*
X14136052Y14606915D01*
X14115386Y14581733D01*
X14053575Y14506417D01*
X14018379Y14440568D01*
X13992290Y14391759D01*
X13954550Y14267349D01*
X13945000Y14170385D01*
X13945000Y14170376D01*
X13941808Y14137967D01*
X13945000Y14105558D01*
X13945000Y13774392D01*
X13801797Y13678706D01*
X13626294Y13503203D01*
X13488402Y13296834D01*
X13393421Y13067529D01*
X13345000Y12824099D01*
X60000Y12824099D01*
X60000Y16430000D01*
X606808Y16430000D01*
X619551Y16300618D01*
X657290Y16176208D01*
X718575Y16061550D01*
X801052Y15961052D01*
X901550Y15878575D01*
X948581Y15853437D01*
X1003969Y15770543D01*
X1165543Y15608969D01*
X1355534Y15482021D01*
X1566640Y15394578D01*
X1790750Y15350000D01*
X2019250Y15350000D01*
X2243360Y15394578D01*
X2454466Y15482021D01*
X2644457Y15608969D01*
X2805488Y15770000D01*
X4640608Y15770000D01*
X4736294Y15626797D01*
X4911797Y15451294D01*
X5118166Y15313402D01*
X5347471Y15218421D01*
X5590901Y15170000D01*
X5839099Y15170000D01*
X6082529Y15218421D01*
X6311834Y15313402D01*
X6518203Y15451294D01*
X6693706Y15626797D01*
X6831598Y15833166D01*
X6838571Y15850000D01*
X8797775Y15850000D01*
X8797775Y15610000D01*
X8806657Y15519824D01*
X8832960Y15433114D01*
X8875674Y15353202D01*
X8933158Y15283158D01*
X9003202Y15225674D01*
X9083114Y15182960D01*
X9169824Y15156657D01*
X9260000Y15147775D01*
X11060000Y15147775D01*
X11150176Y15156657D01*
X11236886Y15182960D01*
X11316798Y15225674D01*
X11386842Y15283158D01*
X11444326Y15353202D01*
X11487040Y15433114D01*
X11513343Y15519824D01*
X11522225Y15610000D01*
X11522225Y15850000D01*
X28936620Y15850000D01*
X31793600Y12993019D01*
X31760000Y12824099D01*
X31760000Y12575901D01*
X31808421Y12332471D01*
X31903402Y12103166D01*
X32041294Y11896797D01*
X32216797Y11721294D01*
X32423166Y11583402D01*
X32652471Y11488421D01*
X32895901Y11440000D01*
X33144099Y11440000D01*
X33387529Y11488421D01*
X33616834Y11583402D01*
X33823203Y11721294D01*
X33998706Y11896797D01*
X34136598Y12103166D01*
X34231579Y12332471D01*
X34280000Y12575901D01*
X34280000Y12824099D01*
X34231579Y13067529D01*
X34136598Y13296834D01*
X33998706Y13503203D01*
X33823203Y13678706D01*
X33616834Y13816598D01*
X33387529Y13911579D01*
X33144099Y13960000D01*
X32895901Y13960000D01*
X32726981Y13926400D01*
X29699616Y16953764D01*
X29678948Y16978948D01*
X29578450Y17061425D01*
X29463793Y17122710D01*
X29339383Y17160450D01*
X29242419Y17170000D01*
X29242409Y17170000D01*
X29210000Y17173192D01*
X29177591Y17170000D01*
X11522225Y17170000D01*
X11522225Y17410000D01*
X11513343Y17500176D01*
X11487040Y17586886D01*
X11444326Y17666798D01*
X11386842Y17736842D01*
X11316798Y17794326D01*
X11236886Y17837040D01*
X11150176Y17863343D01*
X11060000Y17872225D01*
X9260000Y17872225D01*
X9169824Y17863343D01*
X9083114Y17837040D01*
X9003202Y17794326D01*
X8933158Y17736842D01*
X8875674Y17666798D01*
X8832960Y17586886D01*
X8806657Y17500176D01*
X8797775Y17410000D01*
X8797775Y17170000D01*
X6735937Y17170000D01*
X6693706Y17233203D01*
X6518203Y17408706D01*
X6311834Y17546598D01*
X6082529Y17641579D01*
X5839099Y17690000D01*
X5590901Y17690000D01*
X5347471Y17641579D01*
X5118166Y17546598D01*
X4911797Y17408706D01*
X4736294Y17233203D01*
X4640608Y17090000D01*
X2912577Y17090000D01*
X2806031Y17249457D01*
X2644457Y17411031D01*
X2454466Y17537979D01*
X2243360Y17625422D01*
X2019250Y17670000D01*
X1790750Y17670000D01*
X1566640Y17625422D01*
X1355534Y17537979D01*
X1165543Y17411031D01*
X1003969Y17249457D01*
X877021Y17059466D01*
X814042Y16907422D01*
X780386Y16873766D01*
X718575Y16798450D01*
X657290Y16683792D01*
X619551Y16559382D01*
X606808Y16430000D01*
X60000Y16430000D01*
X60000Y18355000D01*
X43120000Y18355000D01*
X43120000Y60000D01*
G37*
X43120000Y60000D02*
X60000Y60000D01*
X60000Y2029099D01*
X10090000Y2029099D01*
X10090000Y1780901D01*
X10138421Y1537471D01*
X10233402Y1308166D01*
X10371294Y1101797D01*
X10546797Y926294D01*
X10753166Y788402D01*
X10982471Y693421D01*
X11225901Y645000D01*
X11474099Y645000D01*
X11717529Y693421D01*
X11946834Y788402D01*
X12153203Y926294D01*
X12328706Y1101797D01*
X12466598Y1308166D01*
X12561579Y1537471D01*
X12610000Y1780901D01*
X12610000Y2029099D01*
X12589673Y2131292D01*
X14311981Y3853600D01*
X14480901Y3820000D01*
X14729099Y3820000D01*
X14972529Y3868421D01*
X15201834Y3963402D01*
X15408203Y4101294D01*
X15583706Y4276797D01*
X15721598Y4483166D01*
X15816579Y4712471D01*
X15865000Y4955901D01*
X15865000Y5204099D01*
X15885000Y5204099D01*
X15885000Y4955901D01*
X15933421Y4712471D01*
X16028402Y4483166D01*
X16166294Y4276797D01*
X16341797Y4101294D01*
X16548166Y3963402D01*
X16777471Y3868421D01*
X17020901Y3820000D01*
X17269099Y3820000D01*
X17512529Y3868421D01*
X17741834Y3963402D01*
X17948203Y4101294D01*
X18123706Y4276797D01*
X18219392Y4420000D01*
X18610608Y4420000D01*
X18706294Y4276797D01*
X18881797Y4101294D01*
X18945001Y4059062D01*
X18945000Y2979392D01*
X18801797Y2883706D01*
X18626294Y2708203D01*
X18488402Y2501834D01*
X18393421Y2272529D01*
X18345000Y2029099D01*
X18345000Y1780901D01*
X18393421Y1537471D01*
X18488402Y1308166D01*
X18626294Y1101797D01*
X18801797Y926294D01*
X19008166Y788402D01*
X19237471Y693421D01*
X19480901Y645000D01*
X19729099Y645000D01*
X19972529Y693421D01*
X20201834Y788402D01*
X20408203Y926294D01*
X20583706Y1101797D01*
X20679392Y1245000D01*
X21905877Y1245000D01*
X21958969Y1165543D01*
X22120543Y1003969D01*
X22310534Y877021D01*
X22521640Y789578D01*
X22745750Y745000D01*
X22974250Y745000D01*
X23198360Y789578D01*
X23409466Y877021D01*
X23599457Y1003969D01*
X23761031Y1165543D01*
X23887979Y1355534D01*
X23975422Y1566640D01*
X24020000Y1790750D01*
X24020000Y2019250D01*
X23975422Y2243360D01*
X23887979Y2454466D01*
X23761031Y2644457D01*
X23599457Y2806031D01*
X23409466Y2932979D01*
X23198360Y3020422D01*
X22974250Y3065000D01*
X22745750Y3065000D01*
X22521640Y3020422D01*
X22310534Y2932979D01*
X22120543Y2806031D01*
X21958969Y2644457D01*
X21905877Y2565000D01*
X20679392Y2565000D01*
X20583706Y2708203D01*
X20408203Y2883706D01*
X20265000Y2979392D01*
X20265000Y3956429D01*
X20281834Y3963402D01*
X20488203Y4101294D01*
X20663706Y4276797D01*
X20801598Y4483166D01*
X20896579Y4712471D01*
X20945000Y4955901D01*
X20945000Y5204099D01*
X20896579Y5447529D01*
X20801598Y5676834D01*
X20663706Y5883203D01*
X20488203Y6058706D01*
X20345000Y6154392D01*
X20345000Y11625608D01*
X20488203Y11721294D01*
X20663706Y11896797D01*
X20801598Y12103166D01*
X20896579Y12332471D01*
X20945000Y12575901D01*
X20945000Y12824099D01*
X20896579Y13067529D01*
X20801598Y13296834D01*
X20663706Y13503203D01*
X20488203Y13678706D01*
X20281834Y13816598D01*
X20052529Y13911579D01*
X19809099Y13960000D01*
X19560901Y13960000D01*
X19317471Y13911579D01*
X19088166Y13816598D01*
X18881797Y13678706D01*
X18706294Y13503203D01*
X18568402Y13296834D01*
X18473421Y13067529D01*
X18425000Y12824099D01*
X18425000Y12575901D01*
X18473421Y12332471D01*
X18568402Y12103166D01*
X18706294Y11896797D01*
X18881797Y11721294D01*
X19025001Y11625608D01*
X19025001Y11601058D01*
X19025000Y11601048D01*
X19025001Y6154392D01*
X18881797Y6058706D01*
X18706294Y5883203D01*
X18610608Y5740000D01*
X18219392Y5740000D01*
X18123706Y5883203D01*
X17948203Y6058706D01*
X17741834Y6196598D01*
X17512529Y6291579D01*
X17269099Y6340000D01*
X17020901Y6340000D01*
X16777471Y6291579D01*
X16548166Y6196598D01*
X16341797Y6058706D01*
X16166294Y5883203D01*
X16028402Y5676834D01*
X15933421Y5447529D01*
X15885000Y5204099D01*
X15865000Y5204099D01*
X15816579Y5447529D01*
X15721598Y5676834D01*
X15583706Y5883203D01*
X15408203Y6058706D01*
X15201834Y6196598D01*
X14972529Y6291579D01*
X14729099Y6340000D01*
X14480901Y6340000D01*
X14237471Y6291579D01*
X14008166Y6196598D01*
X13801797Y6058706D01*
X13626294Y5883203D01*
X13488402Y5676834D01*
X13393421Y5447529D01*
X13345000Y5204099D01*
X13345000Y4955901D01*
X13378600Y4786981D01*
X11709747Y3118127D01*
X11474099Y3165000D01*
X11225901Y3165000D01*
X10982471Y3116579D01*
X10753166Y3021598D01*
X10546797Y2883706D01*
X10371294Y2708203D01*
X10233402Y2501834D01*
X10138421Y2272529D01*
X10090000Y2029099D01*
X60000Y2029099D01*
X60000Y5194250D01*
X2015000Y5194250D01*
X2015000Y4965750D01*
X2059578Y4741640D01*
X2147021Y4530534D01*
X2273969Y4340543D01*
X2435543Y4178969D01*
X2625534Y4052021D01*
X2836640Y3964578D01*
X3060750Y3920000D01*
X3289250Y3920000D01*
X3513360Y3964578D01*
X3724466Y4052021D01*
X3914457Y4178969D01*
X4076031Y4340543D01*
X4202979Y4530534D01*
X4290422Y4741640D01*
X4335000Y4965750D01*
X4335000Y5194250D01*
X9635000Y5194250D01*
X9635000Y4965750D01*
X9679578Y4741640D01*
X9767021Y4530534D01*
X9893969Y4340543D01*
X10055543Y4178969D01*
X10245534Y4052021D01*
X10456640Y3964578D01*
X10680750Y3920000D01*
X10909250Y3920000D01*
X11133360Y3964578D01*
X11344466Y4052021D01*
X11534457Y4178969D01*
X11696031Y4340543D01*
X11822979Y4530534D01*
X11910422Y4741640D01*
X11955000Y4965750D01*
X11955000Y5194250D01*
X11936357Y5287977D01*
X17588769Y10940388D01*
X17613948Y10961052D01*
X17660032Y11017205D01*
X17696425Y11061549D01*
X17757710Y11176207D01*
X17764982Y11200180D01*
X17795450Y11300617D01*
X17805000Y11397581D01*
X17805000Y11397590D01*
X17808192Y11429999D01*
X17805000Y11462408D01*
X17805000Y11625608D01*
X17948203Y11721294D01*
X18123706Y11896797D01*
X18261598Y12103166D01*
X18356579Y12332471D01*
X18405000Y12575901D01*
X18405000Y12824099D01*
X18356579Y13067529D01*
X18261598Y13296834D01*
X18123706Y13503203D01*
X17948203Y13678706D01*
X17741834Y13816598D01*
X17512529Y13911579D01*
X17269099Y13960000D01*
X17020901Y13960000D01*
X16777471Y13911579D01*
X16548166Y13816598D01*
X16341797Y13678706D01*
X16166294Y13503203D01*
X16028402Y13296834D01*
X15933421Y13067529D01*
X15885000Y12824099D01*
X15885000Y12575901D01*
X15933421Y12332471D01*
X16028402Y12103166D01*
X16166294Y11896797D01*
X16341797Y11721294D01*
X16438379Y11656760D01*
X11002977Y6221357D01*
X10909250Y6240000D01*
X10680750Y6240000D01*
X10456640Y6195422D01*
X10245534Y6107979D01*
X10055543Y5981031D01*
X9893969Y5819457D01*
X9767021Y5629466D01*
X9679578Y5418360D01*
X9635000Y5194250D01*
X4335000Y5194250D01*
X4290422Y5418360D01*
X4202979Y5629466D01*
X4076031Y5819457D01*
X3914457Y5981031D01*
X3835000Y6034123D01*
X3835000Y7410233D01*
X3883202Y7370674D01*
X3963114Y7327960D01*
X4049824Y7301657D01*
X4140000Y7292775D01*
X5190000Y7292775D01*
X5280176Y7301657D01*
X5366886Y7327960D01*
X5370704Y7330001D01*
X9227592Y7330001D01*
X9260001Y7326809D01*
X9292410Y7330001D01*
X9292420Y7330001D01*
X9389384Y7339551D01*
X9513794Y7377291D01*
X9628451Y7438576D01*
X9728949Y7521053D01*
X9749617Y7546237D01*
X9781937Y7578557D01*
X10026052Y7530000D01*
X10293948Y7530000D01*
X10556697Y7582264D01*
X10804201Y7684784D01*
X11026949Y7833619D01*
X11216381Y8023051D01*
X11365216Y8245799D01*
X11467736Y8493303D01*
X11520000Y8756052D01*
X11520000Y9023948D01*
X11467736Y9286697D01*
X11365216Y9534201D01*
X11216381Y9756949D01*
X11026949Y9946381D01*
X10804201Y10095216D01*
X10556697Y10197736D01*
X10293948Y10250000D01*
X10026052Y10250000D01*
X9763303Y10197736D01*
X9515799Y10095216D01*
X9293051Y9946381D01*
X9103619Y9756949D01*
X8954784Y9534201D01*
X8852264Y9286697D01*
X8800000Y9023948D01*
X8800000Y8756052D01*
X8821095Y8650001D01*
X5652225Y8650001D01*
X5652225Y8755000D01*
X5643343Y8845176D01*
X5617040Y8931886D01*
X5574326Y9011798D01*
X5516842Y9081842D01*
X5446798Y9139326D01*
X5366886Y9182040D01*
X5280176Y9208343D01*
X5190000Y9217225D01*
X4140000Y9217225D01*
X4049824Y9208343D01*
X3963114Y9182040D01*
X3883202Y9139326D01*
X3813158Y9081842D01*
X3755674Y9011798D01*
X3712960Y8931886D01*
X3707845Y8915025D01*
X3707588Y8915000D01*
X3707581Y8915000D01*
X3610617Y8905450D01*
X3486207Y8867710D01*
X3371550Y8806425D01*
X3308889Y8755000D01*
X3271052Y8723948D01*
X3250388Y8698769D01*
X2731236Y8179616D01*
X2706052Y8158948D01*
X2685386Y8133766D01*
X2623575Y8058450D01*
X2586989Y7990001D01*
X2562290Y7943792D01*
X2524550Y7819382D01*
X2515000Y7722418D01*
X2515000Y7722409D01*
X2511808Y7690000D01*
X2515000Y7657591D01*
X2515001Y6102377D01*
X2515000Y6102367D01*
X2515000Y6034123D01*
X2435543Y5981031D01*
X2273969Y5819457D01*
X2147021Y5629466D01*
X2059578Y5418360D01*
X2015000Y5194250D01*
X60000Y5194250D01*
X60000Y12824099D01*
X13345000Y12824099D01*
X13345000Y12575901D01*
X13393421Y12332471D01*
X13488402Y12103166D01*
X13626294Y11896797D01*
X13801797Y11721294D01*
X14008166Y11583402D01*
X14237471Y11488421D01*
X14480901Y11440000D01*
X14729099Y11440000D01*
X14972529Y11488421D01*
X15201834Y11583402D01*
X15408203Y11721294D01*
X15583706Y11896797D01*
X15721598Y12103166D01*
X15816579Y12332471D01*
X15865000Y12575901D01*
X15865000Y12824099D01*
X15816579Y13067529D01*
X15721598Y13296834D01*
X15583706Y13503203D01*
X15408203Y13678706D01*
X15265000Y13774392D01*
X15265000Y13864587D01*
X15732407Y14331993D01*
X22805646Y14331993D01*
X23470001Y13667637D01*
X23470000Y7010730D01*
X23462590Y7010000D01*
X23462581Y7010000D01*
X23365617Y7000450D01*
X23241207Y6962710D01*
X23166487Y6922772D01*
X23126549Y6901425D01*
X23070734Y6855618D01*
X23026052Y6818948D01*
X23005388Y6793769D01*
X22518019Y6306400D01*
X22349099Y6340000D01*
X22100901Y6340000D01*
X21857471Y6291579D01*
X21628166Y6196598D01*
X21421797Y6058706D01*
X21246294Y5883203D01*
X21108402Y5676834D01*
X21013421Y5447529D01*
X20965000Y5204099D01*
X20965000Y4955901D01*
X21013421Y4712471D01*
X21108402Y4483166D01*
X21246294Y4276797D01*
X21421797Y4101294D01*
X21628166Y3963402D01*
X21857471Y3868421D01*
X22100901Y3820000D01*
X22349099Y3820000D01*
X22592529Y3868421D01*
X22821834Y3963402D01*
X23028203Y4101294D01*
X23203706Y4276797D01*
X23341598Y4483166D01*
X23436579Y4712471D01*
X23485000Y4955901D01*
X23485000Y5204099D01*
X23451400Y5373019D01*
X23768381Y5690000D01*
X23856620Y5690000D01*
X28085384Y1461236D01*
X28106052Y1436052D01*
X28163603Y1388821D01*
X28206549Y1353575D01*
X28246487Y1332228D01*
X28321207Y1292290D01*
X28445617Y1254550D01*
X28542581Y1245000D01*
X28542590Y1245000D01*
X28574999Y1241808D01*
X28607408Y1245000D01*
X29525877Y1245000D01*
X29578969Y1165543D01*
X29740543Y1003969D01*
X29930534Y877021D01*
X30141640Y789578D01*
X30365750Y745000D01*
X30594250Y745000D01*
X30818360Y789578D01*
X31029466Y877021D01*
X31219457Y1003969D01*
X31381031Y1165543D01*
X31434123Y1245000D01*
X34257591Y1245000D01*
X34290000Y1241808D01*
X34322409Y1245000D01*
X34322419Y1245000D01*
X34419383Y1254550D01*
X34543793Y1292290D01*
X34658450Y1353575D01*
X34758948Y1436052D01*
X34779616Y1461236D01*
X36003769Y2685388D01*
X36028948Y2706052D01*
X36049614Y2731233D01*
X36111425Y2806549D01*
X36152665Y2883706D01*
X36172710Y2921207D01*
X36210450Y3045617D01*
X36220000Y3142581D01*
X36220000Y3142590D01*
X36223192Y3174999D01*
X36220000Y3207408D01*
X36220000Y4005608D01*
X36363203Y4101294D01*
X36538706Y4276797D01*
X36676598Y4483166D01*
X36771579Y4712471D01*
X36820000Y4955901D01*
X36820000Y5204099D01*
X36786400Y5373019D01*
X37103381Y5690000D01*
X39208684Y5690000D01*
X39216460Y5611052D01*
X39256990Y5477443D01*
X39322807Y5354309D01*
X39411381Y5246381D01*
X39519309Y5157807D01*
X39642443Y5091990D01*
X39776052Y5051460D01*
X39915000Y5037775D01*
X41365000Y5037775D01*
X41503948Y5051460D01*
X41637557Y5091990D01*
X41760691Y5157807D01*
X41868619Y5246381D01*
X41957193Y5354309D01*
X42023010Y5477443D01*
X42063540Y5611052D01*
X42077225Y5750000D01*
X42077225Y6950000D01*
X42063540Y7088948D01*
X42023010Y7222557D01*
X41957193Y7345691D01*
X41868619Y7453619D01*
X41760691Y7542193D01*
X41637557Y7608010D01*
X41503948Y7648540D01*
X41365000Y7662225D01*
X39915000Y7662225D01*
X39776052Y7648540D01*
X39642443Y7608010D01*
X39519309Y7542193D01*
X39411381Y7453619D01*
X39322807Y7345691D01*
X39256990Y7222557D01*
X39216460Y7088948D01*
X39208684Y7010000D01*
X36862408Y7010000D01*
X36829999Y7013192D01*
X36797590Y7010000D01*
X36797581Y7010000D01*
X36700617Y7000450D01*
X36576207Y6962710D01*
X36501487Y6922772D01*
X36461549Y6901425D01*
X36405734Y6855618D01*
X36361052Y6818948D01*
X36340388Y6793769D01*
X35853019Y6306400D01*
X35684099Y6340000D01*
X35435901Y6340000D01*
X35192471Y6291579D01*
X34963166Y6196598D01*
X34756797Y6058706D01*
X34581294Y5883203D01*
X34443402Y5676834D01*
X34348421Y5447529D01*
X34300000Y5204099D01*
X34300000Y4955901D01*
X34348421Y4712471D01*
X34443402Y4483166D01*
X34581294Y4276797D01*
X34756797Y4101294D01*
X34900001Y4005608D01*
X34900001Y3448382D01*
X34016620Y2565000D01*
X31434123Y2565000D01*
X31381031Y2644457D01*
X31219457Y2806031D01*
X31029466Y2932979D01*
X30818360Y3020422D01*
X30594250Y3065000D01*
X30365750Y3065000D01*
X30141640Y3020422D01*
X29930534Y2932979D01*
X29740543Y2806031D01*
X29578969Y2644457D01*
X29525877Y2565000D01*
X28848380Y2565000D01*
X26209281Y5204099D01*
X31760000Y5204099D01*
X31760000Y4955901D01*
X31808421Y4712471D01*
X31903402Y4483166D01*
X32041294Y4276797D01*
X32216797Y4101294D01*
X32423166Y3963402D01*
X32652471Y3868421D01*
X32895901Y3820000D01*
X33144099Y3820000D01*
X33387529Y3868421D01*
X33616834Y3963402D01*
X33823203Y4101294D01*
X33998706Y4276797D01*
X34136598Y4483166D01*
X34231579Y4712471D01*
X34280000Y4955901D01*
X34280000Y5204099D01*
X34231579Y5447529D01*
X34136598Y5676834D01*
X33998706Y5883203D01*
X33823203Y6058706D01*
X33680000Y6154392D01*
X33680000Y6711620D01*
X37658381Y10690000D01*
X39382385Y10690000D01*
X39420505Y10618682D01*
X39584208Y10419208D01*
X39783682Y10255505D01*
X40011259Y10133862D01*
X40258195Y10058955D01*
X40450649Y10040000D01*
X40829351Y10040000D01*
X41021805Y10058955D01*
X41268741Y10133862D01*
X41496318Y10255505D01*
X41695792Y10419208D01*
X41859495Y10618682D01*
X41981138Y10846259D01*
X42056045Y11093195D01*
X42081338Y11350000D01*
X42056045Y11606805D01*
X41981138Y11853741D01*
X41859495Y12081318D01*
X41695792Y12280792D01*
X41496318Y12444495D01*
X41268741Y12566138D01*
X41021805Y12641045D01*
X40829351Y12660000D01*
X40450649Y12660000D01*
X40258195Y12641045D01*
X40011259Y12566138D01*
X39783682Y12444495D01*
X39584208Y12280792D01*
X39420505Y12081318D01*
X39382385Y12010000D01*
X37417408Y12010000D01*
X37384999Y12013192D01*
X37352590Y12010000D01*
X37352581Y12010000D01*
X37255617Y12000450D01*
X37131207Y11962710D01*
X37016549Y11901425D01*
X36958447Y11853741D01*
X36916052Y11818948D01*
X36895388Y11793769D01*
X32576236Y7474616D01*
X32551052Y7453948D01*
X32530386Y7428766D01*
X32468575Y7353450D01*
X32440892Y7301657D01*
X32407290Y7238792D01*
X32369550Y7114382D01*
X32360000Y7017418D01*
X32360000Y7017409D01*
X32356808Y6985000D01*
X32360000Y6952591D01*
X32360000Y6154392D01*
X32216797Y6058706D01*
X32041294Y5883203D01*
X31903402Y5676834D01*
X31808421Y5447529D01*
X31760000Y5204099D01*
X26209281Y5204099D01*
X24790000Y6623380D01*
X24790000Y13908607D01*
X24793192Y13941019D01*
X24790000Y13973431D01*
X24790000Y13973438D01*
X24780450Y14070402D01*
X24742710Y14194812D01*
X24681425Y14309469D01*
X24662940Y14331993D01*
X24619614Y14384786D01*
X24619612Y14384788D01*
X24598948Y14409967D01*
X24573769Y14430631D01*
X23568642Y15435757D01*
X23547974Y15460941D01*
X23447476Y15543418D01*
X23332819Y15604703D01*
X23208409Y15642443D01*
X23111445Y15651993D01*
X23111435Y15651993D01*
X23079026Y15655185D01*
X23046617Y15651993D01*
X15491434Y15651993D01*
X15459025Y15655185D01*
X15426616Y15651993D01*
X15426607Y15651993D01*
X15329643Y15642443D01*
X15222695Y15610000D01*
X15205233Y15604703D01*
X15090575Y15543418D01*
X15015259Y15481607D01*
X14990078Y15460941D01*
X14969414Y15435762D01*
X14161236Y14627583D01*
X14136052Y14606915D01*
X14115386Y14581733D01*
X14053575Y14506417D01*
X14018379Y14440568D01*
X13992290Y14391759D01*
X13954550Y14267349D01*
X13945000Y14170385D01*
X13945000Y14170376D01*
X13941808Y14137967D01*
X13945000Y14105558D01*
X13945000Y13774392D01*
X13801797Y13678706D01*
X13626294Y13503203D01*
X13488402Y13296834D01*
X13393421Y13067529D01*
X13345000Y12824099D01*
X60000Y12824099D01*
X60000Y16430000D01*
X606808Y16430000D01*
X619551Y16300618D01*
X657290Y16176208D01*
X718575Y16061550D01*
X801052Y15961052D01*
X901550Y15878575D01*
X948581Y15853437D01*
X1003969Y15770543D01*
X1165543Y15608969D01*
X1355534Y15482021D01*
X1566640Y15394578D01*
X1790750Y15350000D01*
X2019250Y15350000D01*
X2243360Y15394578D01*
X2454466Y15482021D01*
X2644457Y15608969D01*
X2805488Y15770000D01*
X4640608Y15770000D01*
X4736294Y15626797D01*
X4911797Y15451294D01*
X5118166Y15313402D01*
X5347471Y15218421D01*
X5590901Y15170000D01*
X5839099Y15170000D01*
X6082529Y15218421D01*
X6311834Y15313402D01*
X6518203Y15451294D01*
X6693706Y15626797D01*
X6831598Y15833166D01*
X6838571Y15850000D01*
X8797775Y15850000D01*
X8797775Y15610000D01*
X8806657Y15519824D01*
X8832960Y15433114D01*
X8875674Y15353202D01*
X8933158Y15283158D01*
X9003202Y15225674D01*
X9083114Y15182960D01*
X9169824Y15156657D01*
X9260000Y15147775D01*
X11060000Y15147775D01*
X11150176Y15156657D01*
X11236886Y15182960D01*
X11316798Y15225674D01*
X11386842Y15283158D01*
X11444326Y15353202D01*
X11487040Y15433114D01*
X11513343Y15519824D01*
X11522225Y15610000D01*
X11522225Y15850000D01*
X28936620Y15850000D01*
X31793600Y12993019D01*
X31760000Y12824099D01*
X31760000Y12575901D01*
X31808421Y12332471D01*
X31903402Y12103166D01*
X32041294Y11896797D01*
X32216797Y11721294D01*
X32423166Y11583402D01*
X32652471Y11488421D01*
X32895901Y11440000D01*
X33144099Y11440000D01*
X33387529Y11488421D01*
X33616834Y11583402D01*
X33823203Y11721294D01*
X33998706Y11896797D01*
X34136598Y12103166D01*
X34231579Y12332471D01*
X34280000Y12575901D01*
X34280000Y12824099D01*
X34231579Y13067529D01*
X34136598Y13296834D01*
X33998706Y13503203D01*
X33823203Y13678706D01*
X33616834Y13816598D01*
X33387529Y13911579D01*
X33144099Y13960000D01*
X32895901Y13960000D01*
X32726981Y13926400D01*
X29699616Y16953764D01*
X29678948Y16978948D01*
X29578450Y17061425D01*
X29463793Y17122710D01*
X29339383Y17160450D01*
X29242419Y17170000D01*
X29242409Y17170000D01*
X29210000Y17173192D01*
X29177591Y17170000D01*
X11522225Y17170000D01*
X11522225Y17410000D01*
X11513343Y17500176D01*
X11487040Y17586886D01*
X11444326Y17666798D01*
X11386842Y17736842D01*
X11316798Y17794326D01*
X11236886Y17837040D01*
X11150176Y17863343D01*
X11060000Y17872225D01*
X9260000Y17872225D01*
X9169824Y17863343D01*
X9083114Y17837040D01*
X9003202Y17794326D01*
X8933158Y17736842D01*
X8875674Y17666798D01*
X8832960Y17586886D01*
X8806657Y17500176D01*
X8797775Y17410000D01*
X8797775Y17170000D01*
X6735937Y17170000D01*
X6693706Y17233203D01*
X6518203Y17408706D01*
X6311834Y17546598D01*
X6082529Y17641579D01*
X5839099Y17690000D01*
X5590901Y17690000D01*
X5347471Y17641579D01*
X5118166Y17546598D01*
X4911797Y17408706D01*
X4736294Y17233203D01*
X4640608Y17090000D01*
X2912577Y17090000D01*
X2806031Y17249457D01*
X2644457Y17411031D01*
X2454466Y17537979D01*
X2243360Y17625422D01*
X2019250Y17670000D01*
X1790750Y17670000D01*
X1566640Y17625422D01*
X1355534Y17537979D01*
X1165543Y17411031D01*
X1003969Y17249457D01*
X877021Y17059466D01*
X814042Y16907422D01*
X780386Y16873766D01*
X718575Y16798450D01*
X657290Y16683792D01*
X619551Y16559382D01*
X606808Y16430000D01*
X60000Y16430000D01*
X60000Y18355000D01*
X43120000Y18355000D01*
X43120000Y60000D01*
M02*
