M48
;GenerationSoftware,Autodesk,EAGLE,9.4.2*%
;CreationDate,2019-08-19T05:36:53Z*%
FMAT,2
ICI,OFF
METRIC,TZ,000.000
T4C0.800
T3C0.900
T2C1.000
T1C1.016
%
G90
M71
T1
X19050Y62230
X50800Y77470
X36830Y77470
X34290Y77470
X31750Y77470
X16510Y62230
X34290Y62230
X21590Y62230
X24130Y62230
X26670Y62230
X29210Y62230
X31750Y62230
X50800Y80010
X36830Y62230
X39370Y62230
X41910Y62230
X44450Y62230
X46990Y62230
X16510Y87630
X19050Y87630
X21590Y87630
X24130Y87630
X26670Y87630
X29210Y87630
X31750Y87630
X34290Y87630
X36830Y87630
X39370Y87630
X41910Y87630
X44450Y87630
X46990Y87630
X30480Y50800
X48260Y50800
X45720Y50800
X43180Y50800
X33020Y50800
X50800Y72390
X20320Y50800
X17780Y50800
X50800Y74930
T2
X11430Y87630
X11430Y62230
T3
X19050Y71120
X41910Y67310
X29210Y71120
X41910Y77470
T4
X24130Y77470
X22225Y77470
X26035Y77470
M30