M48
;GenerationSoftware,Autodesk,EAGLE,9.4.2*%
;CreationDate,2019-08-19T07:14:44Z*%
FMAT,2
ICI,OFF
METRIC,TZ,000.000
T4C0.800
T3C0.900
T2C1.000
T1C1.016
%
G90
M71
T1
X8890Y16510
X40640Y31750
X26670Y31750
X24130Y31750
X21590Y31750
X6350Y16510
X24130Y16510
X11430Y16510
X13970Y16510
X16510Y16510
X19050Y16510
X21590Y16510
X40640Y34290
X26670Y16510
X29210Y16510
X31750Y16510
X34290Y16510
X36830Y16510
X6350Y41910
X8890Y41910
X11430Y41910
X13970Y41910
X16510Y41910
X19050Y41910
X21590Y41910
X24130Y41910
X26670Y41910
X29210Y41910
X31750Y41910
X34290Y41910
X36830Y41910
X20320Y5080
X38100Y5080
X35560Y5080
X33020Y5080
X22860Y5080
X40640Y26670
X10160Y5080
X7620Y5080
X40640Y29210
T2
X1270Y41910
X1270Y16510
T3
X8890Y25400
X31750Y21590
X19050Y25400
X31750Y31750
T4
X13970Y31750
X12065Y31750
X15875Y31750
M30