M48
;GenerationSoftware,Autodesk,EAGLE,9.4.2*%
;CreationDate,2019-08-20T18:23:15Z*%
FMAT,2
ICI,OFF
METRIC,TZ,000.000
T4C0.800
T3C0.900
T2C1.016
T1C2.032
%
G90
M71
T1
X2540Y12700
X2540Y38100
T2
X27940Y27940
X25400Y27940
X22860Y27940
X7620Y12700
X10160Y12700
X12700Y12700
X15240Y12700
X17780Y12700
X20320Y12700
X22860Y12700
X25400Y12700
X27940Y12700
X30480Y12700
X33020Y12700
X35560Y12700
X38100Y12700
X7620Y38100
X10160Y38100
X12700Y38100
X15240Y38100
X17780Y38100
X20320Y38100
X22860Y38100
X25400Y38100
X27940Y38100
X30480Y38100
X33020Y38100
X35560Y38100
X38100Y38100
X21590Y3810
X39370Y3810
X36830Y3810
X34290Y3810
X24130Y3810
X41910Y22860
X12700Y3810
X10160Y3810
X41910Y25400
X41910Y27940
X41910Y30480
T3
X5080Y21590
X33020Y17780
X15240Y21590
X33020Y27940
T4
X15240Y27940
X13335Y27940
X17145Y27940
M30