G04 EAGLE Gerber RS-274X export*
G75*
%MOMM*%
%FSLAX34Y34*%
%LPD*%
%INTop Copper*%
%IPPOS*%
%AMOC8*
5,1,8,0,0,1.08239X$1,22.5*%
G01*
G04 Define Apertures*
%ADD10C,1.524000*%
%ADD11C,2.540000*%
%ADD12C,1.930400*%
D10*
X76200Y100330D02*
X76200Y115570D01*
X101600Y115570D02*
X101600Y100330D01*
X127000Y100330D02*
X127000Y115570D01*
X152400Y115570D02*
X152400Y100330D01*
X177800Y100330D02*
X177800Y115570D01*
X203200Y115570D02*
X203200Y100330D01*
X228600Y100330D02*
X228600Y115570D01*
X254000Y115570D02*
X254000Y100330D01*
X279400Y100330D02*
X279400Y115570D01*
X304800Y115570D02*
X304800Y100330D01*
X330200Y100330D02*
X330200Y115570D01*
X76200Y305440D02*
X76200Y320680D01*
X101600Y320680D02*
X101600Y305440D01*
X127000Y305440D02*
X127000Y320680D01*
X152400Y320680D02*
X152400Y305440D01*
X177800Y305440D02*
X177800Y320680D01*
X203200Y320680D02*
X203200Y305440D01*
X228600Y305440D02*
X228600Y320680D01*
X254000Y320680D02*
X254000Y305440D01*
X279400Y305440D02*
X279400Y320680D01*
X304800Y320680D02*
X304800Y305440D01*
X330200Y305440D02*
X330200Y320680D01*
D11*
X317500Y38100D03*
X266700Y38100D03*
X215900Y38100D03*
X88900Y38100D03*
X139700Y38100D03*
D12*
X37338Y129288D03*
X37338Y230888D03*
M02*
