G04 EAGLE Gerber RS-274X export*
G75*
%MOMM*%
%FSLAX34Y34*%
%LPD*%
%INBottom Copper*%
%IPPOS*%
%AMOC8*
5,1,8,0,0,1.08239X$1,22.5*%
G01*
G04 Define Apertures*
%ADD10C,1.524000*%
%ADD11C,2.540000*%
%ADD12C,1.930400*%
%ADD13C,0.609600*%
G36*
X395575Y10220D02*
X395825Y10392D01*
X395989Y10647D01*
X396040Y10922D01*
X396040Y33229D01*
X395980Y33526D01*
X395808Y33776D01*
X395553Y33939D01*
X395254Y33990D01*
X394959Y33920D01*
X394714Y33741D01*
X394574Y33520D01*
X391741Y26680D01*
X386070Y21009D01*
X378660Y17940D01*
X370640Y17940D01*
X363230Y21009D01*
X357559Y26680D01*
X354490Y34090D01*
X354490Y42110D01*
X357559Y49520D01*
X363230Y55191D01*
X370640Y58260D01*
X378660Y58260D01*
X386070Y55191D01*
X391741Y49520D01*
X394574Y42680D01*
X394744Y42428D01*
X394998Y42263D01*
X395296Y42210D01*
X395592Y42277D01*
X395838Y42455D01*
X395995Y42714D01*
X396040Y42971D01*
X396040Y287229D01*
X395980Y287526D01*
X395808Y287776D01*
X395553Y287939D01*
X395254Y287990D01*
X394959Y287920D01*
X394714Y287741D01*
X394574Y287520D01*
X391741Y280680D01*
X386070Y275009D01*
X378660Y271940D01*
X370640Y271940D01*
X363230Y275009D01*
X357559Y280680D01*
X354490Y288090D01*
X354490Y296110D01*
X357559Y303520D01*
X363230Y309191D01*
X370640Y312260D01*
X378660Y312260D01*
X386070Y309191D01*
X391741Y303520D01*
X394574Y296680D01*
X394744Y296428D01*
X394998Y296263D01*
X395296Y296210D01*
X395592Y296277D01*
X395838Y296455D01*
X395995Y296714D01*
X396040Y296971D01*
X396040Y341378D01*
X395980Y341675D01*
X395808Y341925D01*
X395553Y342089D01*
X395278Y342140D01*
X10922Y342140D01*
X10625Y342080D01*
X10375Y341908D01*
X10211Y341653D01*
X10160Y341378D01*
X10160Y296489D01*
X10220Y296191D01*
X10392Y295941D01*
X10647Y295778D01*
X10946Y295727D01*
X11241Y295797D01*
X11486Y295976D01*
X11626Y296197D01*
X14659Y303520D01*
X20330Y309191D01*
X27740Y312260D01*
X35760Y312260D01*
X43170Y309191D01*
X48841Y303520D01*
X51910Y296110D01*
X51910Y288090D01*
X48841Y280680D01*
X43170Y275009D01*
X35760Y271940D01*
X27740Y271940D01*
X20330Y275009D01*
X14659Y280680D01*
X11626Y288003D01*
X11457Y288255D01*
X11202Y288420D01*
X10904Y288473D01*
X10608Y288406D01*
X10362Y288228D01*
X10205Y287969D01*
X10160Y287711D01*
X10160Y42489D01*
X10220Y42191D01*
X10392Y41941D01*
X10647Y41778D01*
X10946Y41727D01*
X11241Y41797D01*
X11486Y41976D01*
X11626Y42197D01*
X14659Y49520D01*
X20330Y55191D01*
X27740Y58260D01*
X35760Y58260D01*
X43170Y55191D01*
X48841Y49520D01*
X51910Y42110D01*
X51910Y34090D01*
X48841Y26680D01*
X43170Y21009D01*
X35760Y17940D01*
X27740Y17940D01*
X20330Y21009D01*
X14659Y26680D01*
X11626Y34003D01*
X11457Y34255D01*
X11202Y34420D01*
X10904Y34473D01*
X10608Y34406D01*
X10362Y34228D01*
X10205Y33969D01*
X10160Y33711D01*
X10160Y10922D01*
X10220Y10625D01*
X10392Y10375D01*
X10647Y10211D01*
X10922Y10160D01*
X395278Y10160D01*
X395575Y10220D01*
G37*
%LPC*%
G36*
X99276Y293756D02*
X94982Y295535D01*
X91695Y298822D01*
X89916Y303116D01*
X89916Y323004D01*
X91695Y327298D01*
X94982Y330585D01*
X99276Y332364D01*
X103924Y332364D01*
X108218Y330585D01*
X111505Y327298D01*
X113284Y323004D01*
X113284Y303116D01*
X111505Y298822D01*
X108218Y295535D01*
X103924Y293756D01*
X99276Y293756D01*
G37*
G36*
X327876Y293756D02*
X323582Y295535D01*
X320295Y298822D01*
X318516Y303116D01*
X318516Y323004D01*
X320295Y327298D01*
X323582Y330585D01*
X327876Y332364D01*
X332524Y332364D01*
X336818Y330585D01*
X340105Y327298D01*
X341884Y323004D01*
X341884Y303116D01*
X340105Y298822D01*
X336818Y295535D01*
X332524Y293756D01*
X327876Y293756D01*
G37*
G36*
X150076Y293756D02*
X145782Y295535D01*
X142495Y298822D01*
X140716Y303116D01*
X140716Y323004D01*
X142495Y327298D01*
X145782Y330585D01*
X150076Y332364D01*
X154724Y332364D01*
X159018Y330585D01*
X162305Y327298D01*
X164084Y323004D01*
X164084Y303116D01*
X162305Y298822D01*
X159018Y295535D01*
X154724Y293756D01*
X150076Y293756D01*
G37*
G36*
X124676Y293756D02*
X120382Y295535D01*
X117095Y298822D01*
X115316Y303116D01*
X115316Y323004D01*
X117095Y327298D01*
X120382Y330585D01*
X124676Y332364D01*
X129324Y332364D01*
X133618Y330585D01*
X136905Y327298D01*
X138684Y323004D01*
X138684Y303116D01*
X136905Y298822D01*
X133618Y295535D01*
X129324Y293756D01*
X124676Y293756D01*
G37*
G36*
X64516Y313822D02*
X64516Y323004D01*
X66295Y327298D01*
X69582Y330585D01*
X73876Y332364D01*
X75438Y332364D01*
X75438Y313822D01*
X64516Y313822D01*
G37*
G36*
X302476Y293756D02*
X298182Y295535D01*
X294895Y298822D01*
X293116Y303116D01*
X293116Y323004D01*
X294895Y327298D01*
X298182Y330585D01*
X302476Y332364D01*
X307124Y332364D01*
X311418Y330585D01*
X314705Y327298D01*
X316484Y323004D01*
X316484Y303116D01*
X314705Y298822D01*
X311418Y295535D01*
X307124Y293756D01*
X302476Y293756D01*
G37*
G36*
X277076Y293756D02*
X272782Y295535D01*
X269495Y298822D01*
X267716Y303116D01*
X267716Y323004D01*
X269495Y327298D01*
X272782Y330585D01*
X277076Y332364D01*
X281724Y332364D01*
X286018Y330585D01*
X289305Y327298D01*
X291084Y323004D01*
X291084Y303116D01*
X289305Y298822D01*
X286018Y295535D01*
X281724Y293756D01*
X277076Y293756D01*
G37*
G36*
X251676Y293756D02*
X247382Y295535D01*
X244095Y298822D01*
X242316Y303116D01*
X242316Y323004D01*
X244095Y327298D01*
X247382Y330585D01*
X251676Y332364D01*
X256324Y332364D01*
X260618Y330585D01*
X263905Y327298D01*
X265684Y323004D01*
X265684Y303116D01*
X263905Y298822D01*
X260618Y295535D01*
X256324Y293756D01*
X251676Y293756D01*
G37*
G36*
X226276Y293756D02*
X221982Y295535D01*
X218695Y298822D01*
X216916Y303116D01*
X216916Y323004D01*
X218695Y327298D01*
X221982Y330585D01*
X226276Y332364D01*
X230924Y332364D01*
X235218Y330585D01*
X238505Y327298D01*
X240284Y323004D01*
X240284Y303116D01*
X238505Y298822D01*
X235218Y295535D01*
X230924Y293756D01*
X226276Y293756D01*
G37*
G36*
X200876Y293756D02*
X196582Y295535D01*
X193295Y298822D01*
X191516Y303116D01*
X191516Y323004D01*
X193295Y327298D01*
X196582Y330585D01*
X200876Y332364D01*
X205524Y332364D01*
X209818Y330585D01*
X213105Y327298D01*
X214884Y323004D01*
X214884Y303116D01*
X213105Y298822D01*
X209818Y295535D01*
X205524Y293756D01*
X200876Y293756D01*
G37*
G36*
X175476Y293756D02*
X171182Y295535D01*
X167895Y298822D01*
X166116Y303116D01*
X166116Y323004D01*
X167895Y327298D01*
X171182Y330585D01*
X175476Y332364D01*
X180124Y332364D01*
X184418Y330585D01*
X187705Y327298D01*
X189484Y323004D01*
X189484Y303116D01*
X187705Y298822D01*
X184418Y295535D01*
X180124Y293756D01*
X175476Y293756D01*
G37*
G36*
X76962Y313822D02*
X76962Y332364D01*
X78524Y332364D01*
X82818Y330585D01*
X86105Y327298D01*
X87884Y323004D01*
X87884Y313822D01*
X76962Y313822D01*
G37*
G36*
X73876Y293756D02*
X69582Y295535D01*
X66295Y298822D01*
X64516Y303116D01*
X64516Y312298D01*
X75438Y312298D01*
X75438Y293756D01*
X73876Y293756D01*
G37*
G36*
X76962Y293756D02*
X76962Y312298D01*
X87884Y312298D01*
X87884Y303116D01*
X86105Y298822D01*
X82818Y295535D01*
X78524Y293756D01*
X76962Y293756D01*
G37*
G36*
X99276Y88646D02*
X94982Y90425D01*
X91695Y93712D01*
X89916Y98006D01*
X89916Y117894D01*
X91695Y122188D01*
X94265Y124759D01*
X94432Y125011D01*
X94488Y125297D01*
X94488Y163365D01*
X94428Y163662D01*
X94265Y163903D01*
X41084Y217084D01*
X40831Y217252D01*
X40533Y217307D01*
X40253Y217250D01*
X40066Y217172D01*
X34610Y217172D01*
X29569Y219260D01*
X25710Y223119D01*
X23622Y228160D01*
X23622Y233616D01*
X25710Y238658D01*
X29569Y242516D01*
X34610Y244604D01*
X40066Y244604D01*
X45108Y242516D01*
X48966Y238658D01*
X51054Y233616D01*
X51054Y228160D01*
X50977Y227973D01*
X50919Y227675D01*
X50981Y227378D01*
X51142Y227142D01*
X107629Y170655D01*
X108712Y168041D01*
X108712Y125297D01*
X108772Y125000D01*
X108935Y124759D01*
X111505Y122188D01*
X113284Y117894D01*
X113284Y98006D01*
X111505Y93712D01*
X108218Y90425D01*
X103924Y88646D01*
X99276Y88646D01*
G37*
G36*
X85565Y21336D02*
X79404Y23888D01*
X74688Y28604D01*
X72136Y34765D01*
X72136Y41435D01*
X72929Y43348D01*
X72987Y43646D01*
X72924Y43943D01*
X72764Y44179D01*
X31309Y85633D01*
X30226Y88247D01*
X30226Y116879D01*
X30166Y117176D01*
X29994Y117426D01*
X29756Y117583D01*
X29569Y117660D01*
X25710Y121519D01*
X23622Y126560D01*
X23622Y132016D01*
X25710Y137058D01*
X29569Y140916D01*
X34610Y143004D01*
X40066Y143004D01*
X45108Y140916D01*
X48966Y137058D01*
X51054Y132016D01*
X51054Y126560D01*
X48966Y121519D01*
X45108Y117660D01*
X44920Y117583D01*
X44669Y117413D01*
X44503Y117159D01*
X44450Y116879D01*
X44450Y92924D01*
X44510Y92626D01*
X44673Y92385D01*
X82821Y54237D01*
X83074Y54069D01*
X83372Y54013D01*
X83652Y54071D01*
X85565Y54864D01*
X92235Y54864D01*
X98396Y52312D01*
X103112Y47596D01*
X105664Y41435D01*
X105664Y34765D01*
X103112Y28604D01*
X98396Y23888D01*
X92235Y21336D01*
X85565Y21336D01*
G37*
G36*
X124676Y88646D02*
X120382Y90425D01*
X117095Y93712D01*
X115316Y98006D01*
X115316Y117894D01*
X117095Y122188D01*
X120382Y125475D01*
X124676Y127254D01*
X129324Y127254D01*
X133618Y125475D01*
X136905Y122188D01*
X138684Y117894D01*
X138684Y98006D01*
X136905Y93712D01*
X133618Y90425D01*
X129324Y88646D01*
X124676Y88646D01*
G37*
G36*
X64516Y108712D02*
X64516Y117894D01*
X66295Y122188D01*
X69582Y125475D01*
X73876Y127254D01*
X75438Y127254D01*
X75438Y108712D01*
X64516Y108712D01*
G37*
G36*
X76962Y108712D02*
X76962Y127254D01*
X78524Y127254D01*
X82818Y125475D01*
X86105Y122188D01*
X87884Y117894D01*
X87884Y108712D01*
X76962Y108712D01*
G37*
G36*
X178562Y108712D02*
X178562Y127254D01*
X180124Y127254D01*
X184418Y125475D01*
X187705Y122188D01*
X189484Y117894D01*
X189484Y108712D01*
X178562Y108712D01*
G37*
G36*
X226276Y88646D02*
X221982Y90425D01*
X218695Y93712D01*
X216916Y98006D01*
X216916Y117894D01*
X218695Y122188D01*
X221982Y125475D01*
X226276Y127254D01*
X230924Y127254D01*
X235218Y125475D01*
X238505Y122188D01*
X240284Y117894D01*
X240284Y98006D01*
X238505Y93712D01*
X235218Y90425D01*
X230924Y88646D01*
X226276Y88646D01*
G37*
G36*
X327876Y88646D02*
X323582Y90425D01*
X320295Y93712D01*
X318516Y98006D01*
X318516Y117894D01*
X320295Y122188D01*
X323582Y125475D01*
X327876Y127254D01*
X332524Y127254D01*
X336818Y125475D01*
X340105Y122188D01*
X341884Y117894D01*
X341884Y98006D01*
X340105Y93712D01*
X336818Y90425D01*
X332524Y88646D01*
X327876Y88646D01*
G37*
G36*
X302476Y88646D02*
X298182Y90425D01*
X294895Y93712D01*
X293116Y98006D01*
X293116Y117894D01*
X294895Y122188D01*
X298182Y125475D01*
X302476Y127254D01*
X307124Y127254D01*
X311418Y125475D01*
X314705Y122188D01*
X316484Y117894D01*
X316484Y98006D01*
X314705Y93712D01*
X311418Y90425D01*
X307124Y88646D01*
X302476Y88646D01*
G37*
G36*
X277076Y88646D02*
X272782Y90425D01*
X269495Y93712D01*
X267716Y98006D01*
X267716Y117894D01*
X269495Y122188D01*
X272782Y125475D01*
X277076Y127254D01*
X281724Y127254D01*
X286018Y125475D01*
X289305Y122188D01*
X291084Y117894D01*
X291084Y98006D01*
X289305Y93712D01*
X286018Y90425D01*
X281724Y88646D01*
X277076Y88646D01*
G37*
G36*
X263365Y21336D02*
X257204Y23888D01*
X252488Y28604D01*
X249936Y34765D01*
X249936Y41435D01*
X250729Y43348D01*
X250787Y43646D01*
X250724Y43943D01*
X250564Y44179D01*
X247971Y46771D01*
X246888Y49385D01*
X246888Y90603D01*
X246828Y90900D01*
X246665Y91142D01*
X244095Y93712D01*
X242316Y98006D01*
X242316Y117894D01*
X244095Y122188D01*
X247382Y125475D01*
X251676Y127254D01*
X256324Y127254D01*
X260618Y125475D01*
X263905Y122188D01*
X265684Y117894D01*
X265684Y98006D01*
X263905Y93712D01*
X261335Y91142D01*
X261168Y90889D01*
X261112Y90603D01*
X261112Y55071D01*
X261172Y54774D01*
X261344Y54524D01*
X261599Y54360D01*
X261898Y54309D01*
X262166Y54367D01*
X263365Y54864D01*
X270035Y54864D01*
X276196Y52312D01*
X280912Y47596D01*
X283464Y41435D01*
X283464Y34765D01*
X280912Y28604D01*
X276196Y23888D01*
X270035Y21336D01*
X263365Y21336D01*
G37*
G36*
X200876Y88646D02*
X196582Y90425D01*
X193295Y93712D01*
X191516Y98006D01*
X191516Y117894D01*
X193295Y122188D01*
X196582Y125475D01*
X200876Y127254D01*
X205524Y127254D01*
X209818Y125475D01*
X213105Y122188D01*
X214884Y117894D01*
X214884Y98006D01*
X213105Y93712D01*
X209818Y90425D01*
X205524Y88646D01*
X200876Y88646D01*
G37*
G36*
X166116Y108712D02*
X166116Y117894D01*
X167895Y122188D01*
X171182Y125475D01*
X175476Y127254D01*
X177038Y127254D01*
X177038Y108712D01*
X166116Y108712D01*
G37*
G36*
X212565Y21336D02*
X206404Y23888D01*
X201688Y28604D01*
X200896Y30518D01*
X200726Y30769D01*
X200472Y30935D01*
X200192Y30988D01*
X195435Y30988D01*
X192821Y32071D01*
X146371Y78521D01*
X145288Y81135D01*
X145288Y90603D01*
X145228Y90900D01*
X145065Y91142D01*
X142495Y93712D01*
X140716Y98006D01*
X140716Y117894D01*
X142495Y122188D01*
X145782Y125475D01*
X150076Y127254D01*
X154724Y127254D01*
X159018Y125475D01*
X162305Y122188D01*
X164084Y117894D01*
X164084Y98006D01*
X162305Y93712D01*
X159735Y91142D01*
X159568Y90889D01*
X159512Y90603D01*
X159512Y85812D01*
X159572Y85514D01*
X159735Y85273D01*
X199573Y45435D01*
X199826Y45268D01*
X200112Y45212D01*
X200192Y45212D01*
X200489Y45272D01*
X200739Y45444D01*
X200896Y45682D01*
X201688Y47596D01*
X206404Y52312D01*
X212565Y54864D01*
X219235Y54864D01*
X225396Y52312D01*
X230112Y47596D01*
X232664Y41435D01*
X232664Y34765D01*
X230112Y28604D01*
X225396Y23888D01*
X219235Y21336D01*
X212565Y21336D01*
G37*
G36*
X178562Y88646D02*
X178562Y107188D01*
X189484Y107188D01*
X189484Y98006D01*
X187705Y93712D01*
X184418Y90425D01*
X180124Y88646D01*
X178562Y88646D01*
G37*
G36*
X175476Y88646D02*
X171182Y90425D01*
X167895Y93712D01*
X166116Y98006D01*
X166116Y107188D01*
X177038Y107188D01*
X177038Y88646D01*
X175476Y88646D01*
G37*
G36*
X76962Y88646D02*
X76962Y107188D01*
X87884Y107188D01*
X87884Y98006D01*
X86105Y93712D01*
X82818Y90425D01*
X78524Y88646D01*
X76962Y88646D01*
G37*
G36*
X73876Y88646D02*
X69582Y90425D01*
X66295Y93712D01*
X64516Y98006D01*
X64516Y107188D01*
X75438Y107188D01*
X75438Y88646D01*
X73876Y88646D01*
G37*
G36*
X122936Y38862D02*
X122936Y41435D01*
X125488Y47596D01*
X130204Y52312D01*
X136365Y54864D01*
X138938Y54864D01*
X138938Y38862D01*
X122936Y38862D01*
G37*
G36*
X300736Y38862D02*
X300736Y41435D01*
X303288Y47596D01*
X308004Y52312D01*
X314165Y54864D01*
X316738Y54864D01*
X316738Y38862D01*
X300736Y38862D01*
G37*
G36*
X318262Y38862D02*
X318262Y54864D01*
X320835Y54864D01*
X326996Y52312D01*
X331712Y47596D01*
X334264Y41435D01*
X334264Y38862D01*
X318262Y38862D01*
G37*
G36*
X140462Y38862D02*
X140462Y54864D01*
X143035Y54864D01*
X149196Y52312D01*
X153912Y47596D01*
X156464Y41435D01*
X156464Y38862D01*
X140462Y38862D01*
G37*
G36*
X318262Y21336D02*
X318262Y37338D01*
X334264Y37338D01*
X334264Y34765D01*
X331712Y28604D01*
X326996Y23888D01*
X320835Y21336D01*
X318262Y21336D01*
G37*
G36*
X314165Y21336D02*
X308004Y23888D01*
X303288Y28604D01*
X300736Y34765D01*
X300736Y37338D01*
X316738Y37338D01*
X316738Y21336D01*
X314165Y21336D01*
G37*
G36*
X140462Y21336D02*
X140462Y37338D01*
X156464Y37338D01*
X156464Y34765D01*
X153912Y28604D01*
X149196Y23888D01*
X143035Y21336D01*
X140462Y21336D01*
G37*
G36*
X136365Y21336D02*
X130204Y23888D01*
X125488Y28604D01*
X122936Y34765D01*
X122936Y37338D01*
X138938Y37338D01*
X138938Y21336D01*
X136365Y21336D01*
G37*
%LPD*%
D10*
X76200Y100330D02*
X76200Y115570D01*
X101600Y115570D02*
X101600Y100330D01*
X127000Y100330D02*
X127000Y115570D01*
X152400Y115570D02*
X152400Y100330D01*
X177800Y100330D02*
X177800Y115570D01*
X203200Y115570D02*
X203200Y100330D01*
X228600Y100330D02*
X228600Y115570D01*
X254000Y115570D02*
X254000Y100330D01*
X279400Y100330D02*
X279400Y115570D01*
X304800Y115570D02*
X304800Y100330D01*
X330200Y100330D02*
X330200Y115570D01*
X76200Y305440D02*
X76200Y320680D01*
X101600Y320680D02*
X101600Y305440D01*
X127000Y305440D02*
X127000Y320680D01*
X152400Y320680D02*
X152400Y305440D01*
X177800Y305440D02*
X177800Y320680D01*
X203200Y320680D02*
X203200Y305440D01*
X228600Y305440D02*
X228600Y320680D01*
X254000Y320680D02*
X254000Y305440D01*
X279400Y305440D02*
X279400Y320680D01*
X304800Y320680D02*
X304800Y305440D01*
X330200Y305440D02*
X330200Y320680D01*
D11*
X317500Y38100D03*
X266700Y38100D03*
X215900Y38100D03*
X88900Y38100D03*
X139700Y38100D03*
D12*
X37338Y129288D03*
X37338Y230888D03*
D13*
X254000Y50800D02*
X266700Y38100D01*
X254000Y50800D02*
X254000Y107950D01*
X152400Y107950D02*
X152400Y82550D01*
X196850Y38100D01*
X215900Y38100D01*
X37338Y89662D02*
X37338Y129288D01*
X37338Y89662D02*
X88900Y38100D01*
X101600Y166626D02*
X37338Y230888D01*
X101600Y166626D02*
X101600Y107950D01*
M02*
