G04 EAGLE Gerber RS-274X export*
G75*
%MOMM*%
%FSLAX34Y34*%
%LPD*%
%INSilkscreen Top*%
%IPPOS*%
%AMOC8*
5,1,8,0,0,1.08239X$1,22.5*%
G01*
G04 Define Apertures*
%ADD10C,0.152400*%
%ADD11R,2.540000X0.508000*%
%ADD12R,0.762000X1.905000*%
G36*
X90782Y83659D02*
X95984Y83659D01*
X95984Y85450D01*
X90782Y85450D01*
X90782Y90701D01*
X88978Y90701D01*
X88978Y85450D01*
X83777Y85450D01*
X83777Y83659D01*
X88978Y83659D01*
X88978Y78408D01*
X90782Y78408D01*
X90782Y83659D01*
G37*
G36*
X143140Y86395D02*
X137006Y86395D01*
X137006Y84432D01*
X143140Y84432D01*
X143140Y86395D01*
G37*
G36*
X217782Y83659D02*
X222984Y83659D01*
X222984Y85450D01*
X217782Y85450D01*
X217782Y90701D01*
X215978Y90701D01*
X215978Y85450D01*
X210777Y85450D01*
X210777Y83659D01*
X215978Y83659D01*
X215978Y78408D01*
X217782Y78408D01*
X217782Y83659D01*
G37*
G36*
X268333Y82558D02*
X268606Y82580D01*
X268871Y82619D01*
X269127Y82672D01*
X269375Y82740D01*
X269614Y82824D01*
X269845Y82923D01*
X270068Y83037D01*
X270280Y83166D01*
X270480Y83308D01*
X270667Y83463D01*
X270842Y83631D01*
X271005Y83814D01*
X271155Y84009D01*
X271292Y84218D01*
X271418Y84440D01*
X271529Y84674D01*
X271626Y84917D01*
X271708Y85170D01*
X271775Y85432D01*
X271827Y85704D01*
X271864Y85985D01*
X271886Y86276D01*
X271894Y86576D01*
X271877Y87027D01*
X271825Y87450D01*
X271740Y87847D01*
X271621Y88218D01*
X271468Y88562D01*
X271281Y88880D01*
X271060Y89171D01*
X270804Y89435D01*
X270518Y89671D01*
X270203Y89875D01*
X269859Y90048D01*
X269486Y90189D01*
X269085Y90299D01*
X268656Y90378D01*
X268197Y90425D01*
X267710Y90440D01*
X265101Y90440D01*
X265101Y82550D01*
X268052Y82550D01*
X268333Y82558D01*
G37*
%LPC*%
G36*
X266170Y83407D02*
X266170Y89584D01*
X267688Y89584D01*
X268058Y89572D01*
X268405Y89535D01*
X268729Y89475D01*
X269031Y89391D01*
X269311Y89283D01*
X269568Y89150D01*
X269803Y88994D01*
X270015Y88814D01*
X270203Y88610D01*
X270366Y88385D01*
X270504Y88138D01*
X270617Y87869D01*
X270705Y87579D01*
X270768Y87266D01*
X270806Y86932D01*
X270818Y86576D01*
X270796Y86105D01*
X270730Y85666D01*
X270620Y85260D01*
X270466Y84885D01*
X270270Y84548D01*
X270036Y84252D01*
X269765Y83999D01*
X269455Y83788D01*
X269113Y83621D01*
X268744Y83502D01*
X268350Y83431D01*
X267929Y83407D01*
X266170Y83407D01*
G37*
%LPD*%
G36*
X319670Y86395D02*
X313536Y86395D01*
X313536Y84432D01*
X319670Y84432D01*
X319670Y86395D01*
G37*
G36*
X351121Y56335D02*
X351585Y56369D01*
X352033Y56426D01*
X352466Y56506D01*
X352883Y56608D01*
X353286Y56733D01*
X353673Y56881D01*
X354045Y57051D01*
X354399Y57243D01*
X354732Y57455D01*
X355042Y57688D01*
X355332Y57941D01*
X355600Y58214D01*
X355846Y58508D01*
X356071Y58823D01*
X356274Y59157D01*
X356455Y59510D01*
X356612Y59880D01*
X356744Y60265D01*
X356853Y60667D01*
X356937Y61085D01*
X356997Y61520D01*
X357033Y61970D01*
X357045Y62437D01*
X357033Y62900D01*
X356996Y63348D01*
X356936Y63780D01*
X356850Y64196D01*
X356741Y64596D01*
X356607Y64981D01*
X356448Y65351D01*
X356266Y65704D01*
X356060Y66040D01*
X355834Y66356D01*
X355586Y66652D01*
X355318Y66927D01*
X355028Y67183D01*
X354717Y67418D01*
X354385Y67633D01*
X354032Y67828D01*
X353661Y68002D01*
X353275Y68152D01*
X352874Y68279D01*
X352458Y68383D01*
X352027Y68464D01*
X351580Y68522D01*
X351119Y68557D01*
X350643Y68568D01*
X350165Y68557D01*
X349703Y68523D01*
X349257Y68466D01*
X348827Y68386D01*
X348414Y68283D01*
X348017Y68157D01*
X347636Y68008D01*
X347271Y67837D01*
X346924Y67644D01*
X346599Y67431D01*
X346295Y67197D01*
X346013Y66943D01*
X345751Y66668D01*
X345511Y66373D01*
X345292Y66058D01*
X345094Y65722D01*
X344919Y65368D01*
X344767Y64999D01*
X344638Y64614D01*
X344533Y64213D01*
X344451Y63797D01*
X344392Y63365D01*
X344357Y62918D01*
X344345Y62455D01*
X344352Y62099D01*
X344371Y61752D01*
X344404Y61416D01*
X344450Y61089D01*
X344508Y60773D01*
X344580Y60466D01*
X344665Y60169D01*
X344762Y59882D01*
X344873Y59605D01*
X344997Y59338D01*
X345134Y59081D01*
X345284Y58834D01*
X345447Y58597D01*
X345623Y58369D01*
X346014Y57944D01*
X346451Y57565D01*
X346929Y57235D01*
X347183Y57090D01*
X347447Y56957D01*
X347721Y56837D01*
X348005Y56729D01*
X348300Y56634D01*
X348604Y56552D01*
X348919Y56482D01*
X349243Y56425D01*
X349578Y56381D01*
X349923Y56349D01*
X350278Y56330D01*
X350643Y56324D01*
X351121Y56335D01*
G37*
%LPC*%
G36*
X350074Y58041D02*
X349539Y58095D01*
X349035Y58186D01*
X348565Y58312D01*
X348127Y58475D01*
X347721Y58673D01*
X347348Y58908D01*
X347008Y59179D01*
X346704Y59483D01*
X346441Y59818D01*
X346218Y60182D01*
X346036Y60576D01*
X345894Y61001D01*
X345793Y61455D01*
X345732Y61940D01*
X345712Y62455D01*
X345732Y62966D01*
X345794Y63447D01*
X345896Y63898D01*
X346040Y64319D01*
X346225Y64711D01*
X346451Y65073D01*
X346718Y65406D01*
X347025Y65709D01*
X347369Y65979D01*
X347744Y66213D01*
X348150Y66411D01*
X348587Y66573D01*
X349054Y66699D01*
X349553Y66788D01*
X350082Y66842D01*
X350643Y66860D01*
X351228Y66843D01*
X351779Y66789D01*
X352296Y66700D01*
X352779Y66575D01*
X353228Y66414D01*
X353642Y66218D01*
X354023Y65985D01*
X354369Y65717D01*
X354678Y65416D01*
X354946Y65084D01*
X355173Y64720D01*
X355358Y64326D01*
X355502Y63900D01*
X355605Y63444D01*
X355667Y62956D01*
X355688Y62437D01*
X355666Y61933D01*
X355603Y61456D01*
X355496Y61008D01*
X355347Y60588D01*
X355156Y60197D01*
X354922Y59834D01*
X354645Y59499D01*
X354326Y59192D01*
X353970Y58918D01*
X353585Y58681D01*
X353169Y58480D01*
X352724Y58315D01*
X352249Y58188D01*
X351743Y58096D01*
X351208Y58041D01*
X350643Y58023D01*
X350074Y58041D01*
G37*
%LPD*%
G36*
X356870Y72556D02*
X351746Y72556D01*
X351746Y76401D01*
X356870Y79607D01*
X356870Y81534D01*
X353817Y79522D01*
X351554Y78030D01*
X351481Y78373D01*
X351388Y78697D01*
X351272Y79002D01*
X351135Y79288D01*
X351043Y79444D01*
X350977Y79555D01*
X350797Y79803D01*
X350595Y80032D01*
X350371Y80242D01*
X350130Y80430D01*
X349875Y80592D01*
X349607Y80730D01*
X349325Y80843D01*
X349029Y80931D01*
X348719Y80993D01*
X348396Y81031D01*
X348059Y81043D01*
X347654Y81026D01*
X347273Y80972D01*
X346914Y80884D01*
X346578Y80760D01*
X346264Y80600D01*
X345974Y80405D01*
X345707Y80175D01*
X345462Y79909D01*
X345243Y79611D01*
X345054Y79282D01*
X344894Y78925D01*
X344762Y78537D01*
X344660Y78120D01*
X344588Y77673D01*
X344544Y77197D01*
X344529Y76690D01*
X344529Y70883D01*
X356870Y70883D01*
X356870Y72556D01*
G37*
%LPC*%
G36*
X345869Y72556D02*
X345869Y76524D01*
X345878Y76858D01*
X345905Y77171D01*
X345949Y77465D01*
X346011Y77738D01*
X346090Y77991D01*
X346187Y78224D01*
X346302Y78437D01*
X346434Y78630D01*
X346583Y78802D01*
X346749Y78950D01*
X346930Y79076D01*
X347127Y79179D01*
X347341Y79259D01*
X347570Y79316D01*
X347815Y79350D01*
X348076Y79362D01*
X348347Y79350D01*
X348602Y79316D01*
X348841Y79260D01*
X349065Y79181D01*
X349274Y79079D01*
X349467Y78955D01*
X349644Y78808D01*
X349806Y78639D01*
X349951Y78449D01*
X350076Y78240D01*
X350183Y78013D01*
X350269Y77766D01*
X350337Y77501D01*
X350385Y77218D01*
X350414Y76915D01*
X350424Y76594D01*
X350424Y72556D01*
X345869Y72556D01*
G37*
%LPD*%
G36*
X356870Y33497D02*
X348672Y33497D01*
X347209Y33453D01*
X346360Y33410D01*
X356870Y40014D01*
X356870Y42028D01*
X344529Y42028D01*
X344529Y40522D01*
X352622Y40522D01*
X353629Y40548D01*
X355110Y40627D01*
X344529Y33953D01*
X344529Y32008D01*
X356870Y32008D01*
X356870Y33497D01*
G37*
G36*
X356870Y29762D02*
X355504Y29762D01*
X355504Y21712D01*
X351203Y21712D01*
X351203Y28877D01*
X349854Y28877D01*
X349854Y21712D01*
X345896Y21712D01*
X345896Y29402D01*
X344529Y29402D01*
X344529Y20040D01*
X356870Y20040D01*
X356870Y29762D01*
G37*
G36*
X354289Y7519D02*
X354645Y7653D01*
X354975Y7817D01*
X355281Y8010D01*
X355563Y8233D01*
X355820Y8486D01*
X356053Y8768D01*
X356261Y9080D01*
X356445Y9422D01*
X356604Y9793D01*
X356739Y10194D01*
X356849Y10624D01*
X356935Y11085D01*
X356996Y11574D01*
X357033Y12094D01*
X357045Y12643D01*
X357031Y13232D01*
X356987Y13788D01*
X356913Y14309D01*
X356811Y14796D01*
X356679Y15249D01*
X356518Y15669D01*
X356328Y16054D01*
X356108Y16405D01*
X355862Y16718D01*
X355591Y16989D01*
X355297Y17218D01*
X354978Y17406D01*
X354636Y17552D01*
X354269Y17657D01*
X353878Y17719D01*
X353463Y17740D01*
X353137Y17728D01*
X352832Y17693D01*
X352550Y17634D01*
X352289Y17552D01*
X352048Y17449D01*
X351823Y17327D01*
X351614Y17188D01*
X351422Y17031D01*
X351245Y16857D01*
X351083Y16668D01*
X350934Y16465D01*
X350800Y16247D01*
X350563Y15779D01*
X350358Y15279D01*
X350183Y14750D01*
X350034Y14197D01*
X349767Y13063D01*
X349586Y12284D01*
X349420Y11646D01*
X349268Y11150D01*
X349132Y10795D01*
X348996Y10527D01*
X348845Y10292D01*
X348680Y10091D01*
X348501Y9923D01*
X348303Y9791D01*
X348080Y9697D01*
X347832Y9640D01*
X347560Y9621D01*
X347324Y9633D01*
X347104Y9670D01*
X346898Y9731D01*
X346708Y9816D01*
X346533Y9926D01*
X346372Y10060D01*
X346227Y10218D01*
X346097Y10401D01*
X345982Y10606D01*
X345882Y10834D01*
X345798Y11084D01*
X345729Y11355D01*
X345676Y11649D01*
X345637Y11964D01*
X345614Y12301D01*
X345607Y12660D01*
X345613Y12988D01*
X345634Y13298D01*
X345669Y13589D01*
X345717Y13862D01*
X345779Y14117D01*
X345855Y14353D01*
X345945Y14571D01*
X346049Y14771D01*
X346168Y14954D01*
X346304Y15121D01*
X346456Y15274D01*
X346626Y15410D01*
X346812Y15532D01*
X347015Y15638D01*
X347235Y15729D01*
X347472Y15805D01*
X347183Y17451D01*
X346810Y17329D01*
X346465Y17186D01*
X346148Y17023D01*
X345859Y16838D01*
X345599Y16633D01*
X345368Y16407D01*
X345164Y16160D01*
X344989Y15892D01*
X344838Y15599D01*
X344707Y15274D01*
X344597Y14919D01*
X344506Y14532D01*
X344436Y14115D01*
X344386Y13667D01*
X344355Y13188D01*
X344345Y12678D01*
X344359Y12129D01*
X344399Y11613D01*
X344466Y11130D01*
X344560Y10680D01*
X344681Y10262D01*
X344828Y9877D01*
X345002Y9525D01*
X345204Y9205D01*
X345430Y8921D01*
X345678Y8674D01*
X345950Y8466D01*
X346244Y8295D01*
X346561Y8163D01*
X346900Y8068D01*
X347262Y8011D01*
X347647Y7992D01*
X347983Y8006D01*
X348300Y8050D01*
X348596Y8123D01*
X348873Y8224D01*
X349132Y8353D01*
X349374Y8508D01*
X349599Y8688D01*
X349806Y8894D01*
X350001Y9133D01*
X350186Y9412D01*
X350362Y9731D01*
X350529Y10090D01*
X350691Y10513D01*
X350853Y11024D01*
X351015Y11623D01*
X351177Y12310D01*
X351536Y13843D01*
X351624Y14177D01*
X351722Y14486D01*
X351830Y14772D01*
X351948Y15034D01*
X352079Y15270D01*
X352226Y15477D01*
X352389Y15657D01*
X352570Y15809D01*
X352772Y15930D01*
X353003Y16016D01*
X353263Y16068D01*
X353551Y16085D01*
X353812Y16071D01*
X354057Y16030D01*
X354285Y15961D01*
X354498Y15865D01*
X354694Y15741D01*
X354873Y15590D01*
X355037Y15411D01*
X355184Y15205D01*
X355314Y14973D01*
X355427Y14718D01*
X355523Y14440D01*
X355601Y14139D01*
X355662Y13815D01*
X355705Y13468D01*
X355731Y13098D01*
X355740Y12704D01*
X355732Y12322D01*
X355708Y11961D01*
X355667Y11621D01*
X355610Y11301D01*
X355537Y11001D01*
X355447Y10722D01*
X355341Y10463D01*
X355219Y10225D01*
X355080Y10008D01*
X354922Y9809D01*
X354745Y9631D01*
X354550Y9472D01*
X354337Y9333D01*
X354105Y9214D01*
X353854Y9114D01*
X353586Y9034D01*
X353910Y7414D01*
X354289Y7519D01*
G37*
G36*
X354289Y44425D02*
X354645Y44559D01*
X354975Y44723D01*
X355281Y44916D01*
X355563Y45139D01*
X355820Y45392D01*
X356053Y45674D01*
X356261Y45986D01*
X356445Y46328D01*
X356604Y46699D01*
X356739Y47100D01*
X356849Y47531D01*
X356935Y47991D01*
X356996Y48481D01*
X357033Y49000D01*
X357045Y49549D01*
X357031Y50139D01*
X356987Y50694D01*
X356913Y51215D01*
X356811Y51703D01*
X356679Y52156D01*
X356518Y52575D01*
X356328Y52960D01*
X356108Y53311D01*
X355862Y53624D01*
X355591Y53895D01*
X355297Y54125D01*
X354978Y54313D01*
X354636Y54459D01*
X354269Y54563D01*
X353878Y54626D01*
X353463Y54646D01*
X353137Y54635D01*
X352832Y54599D01*
X352550Y54541D01*
X352289Y54458D01*
X352048Y54355D01*
X351823Y54234D01*
X351614Y54094D01*
X351422Y53937D01*
X351245Y53763D01*
X351083Y53575D01*
X350934Y53371D01*
X350800Y53153D01*
X350563Y52686D01*
X350358Y52185D01*
X350183Y51657D01*
X350034Y51104D01*
X349767Y49969D01*
X349586Y49190D01*
X349420Y48553D01*
X349268Y48056D01*
X349132Y47701D01*
X348996Y47433D01*
X348845Y47198D01*
X348680Y46997D01*
X348501Y46829D01*
X348303Y46697D01*
X348080Y46603D01*
X347832Y46546D01*
X347560Y46527D01*
X347324Y46540D01*
X347104Y46576D01*
X346898Y46637D01*
X346708Y46722D01*
X346533Y46832D01*
X346372Y46966D01*
X346227Y47124D01*
X346097Y47307D01*
X345982Y47513D01*
X345882Y47740D01*
X345798Y47990D01*
X345729Y48262D01*
X345676Y48555D01*
X345637Y48870D01*
X345614Y49207D01*
X345607Y49567D01*
X345613Y49895D01*
X345634Y50204D01*
X345669Y50496D01*
X345717Y50769D01*
X345779Y51023D01*
X345855Y51260D01*
X345945Y51478D01*
X346049Y51677D01*
X346168Y51860D01*
X346304Y52028D01*
X346456Y52180D01*
X346626Y52317D01*
X346812Y52438D01*
X347015Y52544D01*
X347235Y52635D01*
X347472Y52711D01*
X347183Y54357D01*
X346810Y54235D01*
X346465Y54093D01*
X346148Y53929D01*
X345859Y53744D01*
X345599Y53539D01*
X345368Y53313D01*
X345164Y53066D01*
X344989Y52798D01*
X344838Y52505D01*
X344707Y52180D01*
X344597Y51825D01*
X344506Y51439D01*
X344436Y51021D01*
X344386Y50573D01*
X344355Y50094D01*
X344345Y49584D01*
X344359Y49035D01*
X344399Y48520D01*
X344466Y48036D01*
X344560Y47586D01*
X344681Y47168D01*
X344828Y46783D01*
X345002Y46431D01*
X345204Y46111D01*
X345430Y45827D01*
X345678Y45581D01*
X345950Y45372D01*
X346244Y45201D01*
X346561Y45069D01*
X346900Y44974D01*
X347262Y44917D01*
X347647Y44898D01*
X347983Y44913D01*
X348300Y44956D01*
X348596Y45029D01*
X348873Y45130D01*
X349132Y45259D01*
X349374Y45414D01*
X349599Y45594D01*
X349806Y45800D01*
X350001Y46039D01*
X350186Y46318D01*
X350362Y46637D01*
X350529Y46996D01*
X350691Y47419D01*
X350853Y47930D01*
X351015Y48529D01*
X351177Y49216D01*
X351536Y50749D01*
X351624Y51083D01*
X351722Y51393D01*
X351830Y51678D01*
X351948Y51940D01*
X352079Y52176D01*
X352226Y52384D01*
X352389Y52563D01*
X352570Y52715D01*
X352772Y52836D01*
X353003Y52922D01*
X353263Y52974D01*
X353551Y52991D01*
X353812Y52977D01*
X354057Y52936D01*
X354285Y52867D01*
X354498Y52771D01*
X354694Y52647D01*
X354873Y52496D01*
X355037Y52317D01*
X355184Y52111D01*
X355314Y51879D01*
X355427Y51625D01*
X355523Y51347D01*
X355601Y51046D01*
X355662Y50722D01*
X355705Y50374D01*
X355731Y50004D01*
X355740Y49610D01*
X355732Y49229D01*
X355708Y48867D01*
X355667Y48527D01*
X355610Y48207D01*
X355537Y47907D01*
X355447Y47628D01*
X355341Y47370D01*
X355219Y47132D01*
X355080Y46914D01*
X354922Y46716D01*
X354745Y46537D01*
X354550Y46378D01*
X354337Y46239D01*
X354105Y46120D01*
X353854Y46020D01*
X353586Y45941D01*
X353910Y44320D01*
X354289Y44425D01*
G37*
G36*
X55211Y20483D02*
X55675Y20518D01*
X56123Y20574D01*
X56556Y20654D01*
X56973Y20756D01*
X57376Y20881D01*
X57763Y21029D01*
X58135Y21199D01*
X58489Y21391D01*
X58822Y21603D01*
X59132Y21836D01*
X59422Y22089D01*
X59690Y22363D01*
X59936Y22657D01*
X60161Y22971D01*
X60364Y23305D01*
X60545Y23658D01*
X60702Y24028D01*
X60834Y24413D01*
X60943Y24815D01*
X61027Y25233D01*
X61087Y25668D01*
X61123Y26119D01*
X61135Y26586D01*
X61123Y27049D01*
X61086Y27496D01*
X61026Y27928D01*
X60940Y28344D01*
X60831Y28744D01*
X60697Y29129D01*
X60538Y29499D01*
X60356Y29852D01*
X60150Y30188D01*
X59924Y30504D01*
X59676Y30800D01*
X59408Y31075D01*
X59118Y31331D01*
X58807Y31566D01*
X58475Y31781D01*
X58122Y31976D01*
X57751Y32150D01*
X57365Y32300D01*
X56964Y32427D01*
X56548Y32532D01*
X56117Y32612D01*
X55670Y32670D01*
X55209Y32705D01*
X54733Y32717D01*
X54255Y32705D01*
X53793Y32671D01*
X53347Y32614D01*
X52917Y32534D01*
X52504Y32431D01*
X52107Y32305D01*
X51726Y32157D01*
X51361Y31985D01*
X51014Y31792D01*
X50689Y31579D01*
X50385Y31345D01*
X50103Y31091D01*
X49841Y30816D01*
X49601Y30521D01*
X49382Y30206D01*
X49184Y29870D01*
X49009Y29516D01*
X48857Y29147D01*
X48728Y28762D01*
X48623Y28361D01*
X48541Y27945D01*
X48482Y27513D01*
X48447Y27066D01*
X48435Y26603D01*
X48442Y26247D01*
X48461Y25900D01*
X48494Y25564D01*
X48540Y25237D01*
X48598Y24921D01*
X48670Y24614D01*
X48755Y24317D01*
X48852Y24030D01*
X48963Y23753D01*
X49087Y23486D01*
X49224Y23229D01*
X49374Y22982D01*
X49537Y22745D01*
X49713Y22517D01*
X50104Y22092D01*
X50541Y21713D01*
X51019Y21384D01*
X51273Y21238D01*
X51537Y21105D01*
X51811Y20985D01*
X52095Y20877D01*
X52390Y20782D01*
X52694Y20700D01*
X53009Y20630D01*
X53333Y20573D01*
X53668Y20529D01*
X54013Y20497D01*
X54368Y20478D01*
X54733Y20472D01*
X55211Y20483D01*
G37*
%LPC*%
G36*
X54164Y22189D02*
X53629Y22243D01*
X53125Y22334D01*
X52655Y22460D01*
X52217Y22623D01*
X51811Y22822D01*
X51438Y23056D01*
X51098Y23327D01*
X50794Y23631D01*
X50531Y23966D01*
X50308Y24330D01*
X50126Y24724D01*
X49984Y25149D01*
X49883Y25603D01*
X49822Y26088D01*
X49802Y26603D01*
X49822Y27114D01*
X49884Y27595D01*
X49986Y28046D01*
X50130Y28468D01*
X50315Y28859D01*
X50541Y29222D01*
X50808Y29554D01*
X51115Y29857D01*
X51459Y30127D01*
X51834Y30361D01*
X52240Y30559D01*
X52677Y30721D01*
X53144Y30847D01*
X53643Y30937D01*
X54172Y30991D01*
X54733Y31009D01*
X55318Y30991D01*
X55869Y30937D01*
X56386Y30848D01*
X56869Y30723D01*
X57318Y30562D01*
X57732Y30366D01*
X58113Y30134D01*
X58459Y29866D01*
X58768Y29564D01*
X59036Y29232D01*
X59263Y28869D01*
X59448Y28474D01*
X59592Y28049D01*
X59695Y27592D01*
X59757Y27104D01*
X59778Y26586D01*
X59756Y26081D01*
X59693Y25604D01*
X59586Y25156D01*
X59437Y24736D01*
X59246Y24345D01*
X59012Y23982D01*
X58735Y23647D01*
X58416Y23341D01*
X58060Y23066D01*
X57675Y22829D01*
X57259Y22628D01*
X56814Y22464D01*
X56339Y22336D01*
X55833Y22244D01*
X55298Y22190D01*
X54733Y22171D01*
X54164Y22189D01*
G37*
%LPD*%
G36*
X60960Y58642D02*
X55836Y58642D01*
X55836Y62487D01*
X60960Y65692D01*
X60960Y67619D01*
X57907Y65607D01*
X55644Y64116D01*
X55571Y64459D01*
X55478Y64783D01*
X55362Y65088D01*
X55225Y65374D01*
X55133Y65530D01*
X55067Y65641D01*
X54887Y65889D01*
X54685Y66118D01*
X54461Y66327D01*
X54220Y66515D01*
X53965Y66678D01*
X53697Y66816D01*
X53415Y66928D01*
X53119Y67016D01*
X52809Y67079D01*
X52486Y67116D01*
X52149Y67129D01*
X51744Y67111D01*
X51363Y67058D01*
X51004Y66969D01*
X50668Y66845D01*
X50354Y66686D01*
X50064Y66491D01*
X49797Y66260D01*
X49552Y65995D01*
X49333Y65696D01*
X49144Y65368D01*
X48984Y65010D01*
X48852Y64623D01*
X48750Y64206D01*
X48678Y63759D01*
X48634Y63282D01*
X48619Y62776D01*
X48619Y56969D01*
X60960Y56969D01*
X60960Y58642D01*
G37*
%LPC*%
G36*
X49959Y58642D02*
X49959Y62609D01*
X49968Y62943D01*
X49995Y63257D01*
X50039Y63550D01*
X50101Y63824D01*
X50180Y64077D01*
X50277Y64310D01*
X50392Y64523D01*
X50524Y64716D01*
X50673Y64887D01*
X50839Y65036D01*
X51020Y65162D01*
X51217Y65264D01*
X51431Y65344D01*
X51660Y65401D01*
X51905Y65436D01*
X52166Y65447D01*
X52437Y65436D01*
X52692Y65402D01*
X52931Y65346D01*
X53155Y65267D01*
X53364Y65165D01*
X53557Y65041D01*
X53734Y64894D01*
X53896Y64725D01*
X54041Y64535D01*
X54166Y64326D01*
X54273Y64098D01*
X54359Y63852D01*
X54427Y63587D01*
X54475Y63303D01*
X54504Y63001D01*
X54514Y62680D01*
X54514Y58642D01*
X49959Y58642D01*
G37*
%LPD*%
G36*
X60960Y45298D02*
X57352Y46717D01*
X57352Y52340D01*
X60960Y53750D01*
X60960Y55458D01*
X48619Y50501D01*
X48619Y48600D01*
X60960Y43564D01*
X60960Y45298D01*
G37*
%LPC*%
G36*
X51991Y48801D02*
X50956Y49178D01*
X50126Y49450D01*
X49880Y49528D01*
X50607Y49765D01*
X51330Y50010D01*
X51974Y50255D01*
X56046Y51841D01*
X56046Y47225D01*
X51991Y48801D01*
G37*
%LPD*%
G36*
X58379Y8573D02*
X58735Y8707D01*
X59065Y8871D01*
X59371Y9064D01*
X59653Y9288D01*
X59910Y9540D01*
X60143Y9823D01*
X60351Y10135D01*
X60535Y10476D01*
X60694Y10847D01*
X60829Y11248D01*
X60939Y11679D01*
X61025Y12139D01*
X61086Y12629D01*
X61123Y13148D01*
X61135Y13697D01*
X61121Y14287D01*
X61077Y14842D01*
X61003Y15363D01*
X60901Y15851D01*
X60769Y16304D01*
X60608Y16723D01*
X60418Y17108D01*
X60198Y17459D01*
X59952Y17772D01*
X59681Y18043D01*
X59387Y18273D01*
X59068Y18461D01*
X58726Y18607D01*
X58359Y18711D01*
X57968Y18774D01*
X57553Y18795D01*
X57227Y18783D01*
X56922Y18748D01*
X56640Y18689D01*
X56379Y18606D01*
X56138Y18503D01*
X55913Y18382D01*
X55704Y18243D01*
X55512Y18085D01*
X55335Y17911D01*
X55173Y17723D01*
X55024Y17519D01*
X54890Y17301D01*
X54653Y16834D01*
X54448Y16333D01*
X54273Y15805D01*
X54124Y15252D01*
X53857Y14118D01*
X53676Y13339D01*
X53510Y12701D01*
X53358Y12204D01*
X53222Y11849D01*
X53086Y11581D01*
X52935Y11347D01*
X52770Y11145D01*
X52591Y10978D01*
X52393Y10845D01*
X52170Y10751D01*
X51922Y10694D01*
X51650Y10675D01*
X51414Y10688D01*
X51194Y10724D01*
X50988Y10785D01*
X50798Y10870D01*
X50623Y10980D01*
X50462Y11114D01*
X50317Y11272D01*
X50187Y11455D01*
X50072Y11661D01*
X49972Y11889D01*
X49888Y12138D01*
X49819Y12410D01*
X49766Y12703D01*
X49727Y13018D01*
X49704Y13356D01*
X49697Y13715D01*
X49703Y14043D01*
X49724Y14352D01*
X49759Y14644D01*
X49807Y14917D01*
X49869Y15171D01*
X49945Y15408D01*
X50035Y15626D01*
X50139Y15825D01*
X50258Y16008D01*
X50394Y16176D01*
X50546Y16328D01*
X50716Y16465D01*
X50902Y16586D01*
X51105Y16693D01*
X51325Y16783D01*
X51562Y16859D01*
X51273Y18506D01*
X50900Y18384D01*
X50555Y18241D01*
X50238Y18077D01*
X49949Y17892D01*
X49689Y17687D01*
X49458Y17461D01*
X49254Y17214D01*
X49079Y16947D01*
X48928Y16653D01*
X48797Y16329D01*
X48687Y15973D01*
X48596Y15587D01*
X48526Y15170D01*
X48476Y14721D01*
X48445Y14242D01*
X48435Y13732D01*
X48449Y13184D01*
X48489Y12668D01*
X48556Y12185D01*
X48650Y11734D01*
X48771Y11316D01*
X48918Y10931D01*
X49092Y10579D01*
X49294Y10259D01*
X49520Y9975D01*
X49768Y9729D01*
X50040Y9520D01*
X50334Y9350D01*
X50651Y9217D01*
X50990Y9122D01*
X51352Y9065D01*
X51737Y9046D01*
X52073Y9061D01*
X52390Y9104D01*
X52686Y9177D01*
X52963Y9278D01*
X53222Y9407D01*
X53464Y9562D01*
X53689Y9742D01*
X53896Y9948D01*
X54091Y10187D01*
X54276Y10466D01*
X54452Y10785D01*
X54619Y11144D01*
X54781Y11567D01*
X54943Y12078D01*
X55105Y12677D01*
X55267Y13364D01*
X55626Y14897D01*
X55714Y15231D01*
X55812Y15541D01*
X55920Y15827D01*
X56038Y16088D01*
X56169Y16324D01*
X56316Y16532D01*
X56479Y16711D01*
X56660Y16863D01*
X56862Y16984D01*
X57093Y17070D01*
X57353Y17122D01*
X57641Y17139D01*
X57902Y17126D01*
X58147Y17084D01*
X58375Y17015D01*
X58588Y16919D01*
X58784Y16795D01*
X58963Y16644D01*
X59127Y16465D01*
X59274Y16259D01*
X59404Y16027D01*
X59517Y15773D01*
X59613Y15495D01*
X59691Y15194D01*
X59752Y14870D01*
X59795Y14522D01*
X59821Y14152D01*
X59830Y13758D01*
X59822Y13377D01*
X59798Y13016D01*
X59757Y12675D01*
X59700Y12355D01*
X59627Y12055D01*
X59537Y11776D01*
X59431Y11518D01*
X59309Y11280D01*
X59170Y11062D01*
X59012Y10864D01*
X58835Y10685D01*
X58640Y10527D01*
X58427Y10388D01*
X58195Y10268D01*
X57944Y10169D01*
X57676Y10089D01*
X58000Y8468D01*
X58379Y8573D01*
G37*
G36*
X60960Y42940D02*
X59594Y42940D01*
X59594Y36704D01*
X48619Y36704D01*
X48619Y35031D01*
X60960Y35031D01*
X60960Y42940D01*
G37*
D10*
X-6350Y196850D02*
X12700Y196850D01*
X-6350Y196850D02*
X-6350Y82550D01*
X64622Y233313D02*
X69138Y233313D01*
X69138Y233314D02*
X69271Y233312D01*
X69403Y233306D01*
X69535Y233296D01*
X69667Y233283D01*
X69799Y233265D01*
X69929Y233244D01*
X70060Y233219D01*
X70189Y233190D01*
X70317Y233157D01*
X70445Y233121D01*
X70571Y233081D01*
X70696Y233037D01*
X70820Y232989D01*
X70942Y232938D01*
X71063Y232883D01*
X71182Y232825D01*
X71300Y232763D01*
X71415Y232698D01*
X71529Y232629D01*
X71640Y232558D01*
X71749Y232482D01*
X71856Y232404D01*
X71961Y232323D01*
X72063Y232238D01*
X72163Y232151D01*
X72260Y232061D01*
X72355Y231968D01*
X72446Y231872D01*
X72535Y231774D01*
X72621Y231673D01*
X72704Y231569D01*
X72784Y231463D01*
X72860Y231355D01*
X72934Y231245D01*
X73004Y231132D01*
X73071Y231018D01*
X73134Y230901D01*
X73194Y230783D01*
X73251Y230663D01*
X73304Y230541D01*
X73353Y230418D01*
X73399Y230294D01*
X73441Y230168D01*
X73479Y230041D01*
X73514Y229913D01*
X73545Y229784D01*
X73572Y229655D01*
X73595Y229524D01*
X73615Y229393D01*
X73630Y229261D01*
X73642Y229129D01*
X73650Y228997D01*
X73654Y228864D01*
X73654Y228732D01*
X73650Y228599D01*
X73642Y228467D01*
X73630Y228335D01*
X73615Y228203D01*
X73595Y228072D01*
X73572Y227941D01*
X73545Y227812D01*
X73514Y227683D01*
X73479Y227555D01*
X73441Y227428D01*
X73399Y227302D01*
X73353Y227178D01*
X73304Y227055D01*
X73251Y226933D01*
X73194Y226813D01*
X73134Y226695D01*
X73071Y226578D01*
X73004Y226464D01*
X72934Y226351D01*
X72860Y226241D01*
X72784Y226133D01*
X72704Y226027D01*
X72621Y225923D01*
X72535Y225822D01*
X72446Y225724D01*
X72355Y225628D01*
X72260Y225535D01*
X72163Y225445D01*
X72063Y225358D01*
X71961Y225273D01*
X71856Y225192D01*
X71749Y225114D01*
X71640Y225038D01*
X71529Y224967D01*
X71415Y224898D01*
X71300Y224833D01*
X71182Y224771D01*
X71063Y224713D01*
X70942Y224658D01*
X70820Y224607D01*
X70696Y224559D01*
X70571Y224515D01*
X70445Y224475D01*
X70317Y224439D01*
X70189Y224406D01*
X70060Y224377D01*
X69929Y224352D01*
X69799Y224331D01*
X69667Y224313D01*
X69535Y224300D01*
X69403Y224290D01*
X69271Y224284D01*
X69138Y224282D01*
X64622Y224282D01*
X64622Y240538D01*
X69138Y240538D01*
X69257Y240536D01*
X69377Y240530D01*
X69496Y240520D01*
X69614Y240506D01*
X69733Y240489D01*
X69850Y240467D01*
X69967Y240442D01*
X70082Y240412D01*
X70197Y240379D01*
X70311Y240342D01*
X70423Y240302D01*
X70534Y240257D01*
X70643Y240209D01*
X70751Y240158D01*
X70857Y240103D01*
X70961Y240044D01*
X71063Y239982D01*
X71163Y239917D01*
X71261Y239848D01*
X71357Y239776D01*
X71450Y239701D01*
X71540Y239624D01*
X71628Y239543D01*
X71713Y239459D01*
X71795Y239372D01*
X71875Y239283D01*
X71951Y239191D01*
X72025Y239097D01*
X72095Y239000D01*
X72162Y238902D01*
X72226Y238801D01*
X72286Y238697D01*
X72343Y238592D01*
X72396Y238485D01*
X72446Y238377D01*
X72492Y238267D01*
X72534Y238155D01*
X72573Y238042D01*
X72608Y237928D01*
X72639Y237813D01*
X72667Y237696D01*
X72690Y237579D01*
X72710Y237462D01*
X72726Y237343D01*
X72738Y237224D01*
X72746Y237105D01*
X72750Y236986D01*
X72750Y236866D01*
X72746Y236747D01*
X72738Y236628D01*
X72726Y236509D01*
X72710Y236390D01*
X72690Y236273D01*
X72667Y236156D01*
X72639Y236039D01*
X72608Y235924D01*
X72573Y235810D01*
X72534Y235697D01*
X72492Y235585D01*
X72446Y235475D01*
X72396Y235367D01*
X72343Y235260D01*
X72286Y235155D01*
X72226Y235051D01*
X72162Y234950D01*
X72095Y234852D01*
X72025Y234755D01*
X71951Y234661D01*
X71875Y234569D01*
X71795Y234480D01*
X71713Y234393D01*
X71628Y234309D01*
X71540Y234228D01*
X71450Y234151D01*
X71357Y234076D01*
X71261Y234004D01*
X71163Y233935D01*
X71063Y233870D01*
X70961Y233808D01*
X70857Y233749D01*
X70751Y233694D01*
X70643Y233643D01*
X70534Y233595D01*
X70423Y233550D01*
X70311Y233510D01*
X70197Y233473D01*
X70082Y233440D01*
X69967Y233410D01*
X69850Y233385D01*
X69733Y233363D01*
X69614Y233346D01*
X69496Y233332D01*
X69377Y233322D01*
X69257Y233316D01*
X69138Y233314D01*
X79383Y231507D02*
X79383Y227894D01*
X79383Y231507D02*
X79385Y231626D01*
X79391Y231746D01*
X79401Y231865D01*
X79415Y231983D01*
X79432Y232102D01*
X79454Y232219D01*
X79479Y232336D01*
X79509Y232451D01*
X79542Y232566D01*
X79579Y232680D01*
X79619Y232792D01*
X79664Y232903D01*
X79712Y233012D01*
X79763Y233120D01*
X79818Y233226D01*
X79877Y233330D01*
X79939Y233432D01*
X80004Y233532D01*
X80073Y233630D01*
X80145Y233726D01*
X80220Y233819D01*
X80297Y233909D01*
X80378Y233997D01*
X80462Y234082D01*
X80549Y234164D01*
X80638Y234244D01*
X80730Y234320D01*
X80824Y234394D01*
X80921Y234464D01*
X81019Y234531D01*
X81120Y234595D01*
X81224Y234655D01*
X81329Y234712D01*
X81436Y234765D01*
X81544Y234815D01*
X81654Y234861D01*
X81766Y234903D01*
X81879Y234942D01*
X81993Y234977D01*
X82108Y235008D01*
X82225Y235036D01*
X82342Y235059D01*
X82459Y235079D01*
X82578Y235095D01*
X82697Y235107D01*
X82816Y235115D01*
X82935Y235119D01*
X83055Y235119D01*
X83174Y235115D01*
X83293Y235107D01*
X83412Y235095D01*
X83531Y235079D01*
X83648Y235059D01*
X83765Y235036D01*
X83882Y235008D01*
X83997Y234977D01*
X84111Y234942D01*
X84224Y234903D01*
X84336Y234861D01*
X84446Y234815D01*
X84554Y234765D01*
X84661Y234712D01*
X84766Y234655D01*
X84870Y234595D01*
X84971Y234531D01*
X85069Y234464D01*
X85166Y234394D01*
X85260Y234320D01*
X85352Y234244D01*
X85441Y234164D01*
X85528Y234082D01*
X85612Y233997D01*
X85693Y233909D01*
X85770Y233819D01*
X85845Y233726D01*
X85917Y233630D01*
X85986Y233532D01*
X86051Y233432D01*
X86113Y233330D01*
X86172Y233226D01*
X86227Y233120D01*
X86278Y233012D01*
X86326Y232903D01*
X86371Y232792D01*
X86411Y232680D01*
X86448Y232566D01*
X86481Y232451D01*
X86511Y232336D01*
X86536Y232219D01*
X86558Y232102D01*
X86575Y231983D01*
X86589Y231865D01*
X86599Y231746D01*
X86605Y231626D01*
X86607Y231507D01*
X86608Y231507D02*
X86608Y227894D01*
X86607Y227894D02*
X86605Y227775D01*
X86599Y227655D01*
X86589Y227536D01*
X86575Y227418D01*
X86558Y227299D01*
X86536Y227182D01*
X86511Y227065D01*
X86481Y226950D01*
X86448Y226835D01*
X86411Y226721D01*
X86371Y226609D01*
X86326Y226498D01*
X86278Y226389D01*
X86227Y226281D01*
X86172Y226175D01*
X86113Y226071D01*
X86051Y225969D01*
X85986Y225869D01*
X85917Y225771D01*
X85845Y225675D01*
X85770Y225582D01*
X85693Y225492D01*
X85612Y225404D01*
X85528Y225319D01*
X85441Y225237D01*
X85352Y225157D01*
X85260Y225081D01*
X85166Y225007D01*
X85069Y224937D01*
X84971Y224870D01*
X84870Y224806D01*
X84766Y224746D01*
X84661Y224689D01*
X84554Y224636D01*
X84446Y224586D01*
X84336Y224540D01*
X84224Y224498D01*
X84111Y224459D01*
X83997Y224424D01*
X83882Y224393D01*
X83765Y224365D01*
X83648Y224342D01*
X83531Y224322D01*
X83412Y224306D01*
X83293Y224294D01*
X83174Y224286D01*
X83055Y224282D01*
X82935Y224282D01*
X82816Y224286D01*
X82697Y224294D01*
X82578Y224306D01*
X82459Y224322D01*
X82342Y224342D01*
X82225Y224365D01*
X82108Y224393D01*
X81993Y224424D01*
X81879Y224459D01*
X81766Y224498D01*
X81654Y224540D01*
X81544Y224586D01*
X81436Y224636D01*
X81329Y224689D01*
X81224Y224746D01*
X81120Y224806D01*
X81019Y224870D01*
X80921Y224937D01*
X80824Y225007D01*
X80730Y225081D01*
X80638Y225157D01*
X80549Y225237D01*
X80462Y225319D01*
X80378Y225404D01*
X80297Y225492D01*
X80220Y225582D01*
X80145Y225675D01*
X80073Y225771D01*
X80004Y225869D01*
X79939Y225969D01*
X79877Y226071D01*
X79818Y226175D01*
X79763Y226281D01*
X79712Y226389D01*
X79664Y226498D01*
X79619Y226609D01*
X79579Y226721D01*
X79542Y226835D01*
X79509Y226950D01*
X79479Y227065D01*
X79454Y227182D01*
X79432Y227299D01*
X79415Y227418D01*
X79401Y227536D01*
X79391Y227655D01*
X79385Y227775D01*
X79383Y227894D01*
X93451Y224282D02*
X93451Y235119D01*
X97966Y235119D01*
X98070Y235117D01*
X98173Y235111D01*
X98277Y235101D01*
X98380Y235087D01*
X98482Y235069D01*
X98583Y235048D01*
X98684Y235022D01*
X98783Y234993D01*
X98882Y234960D01*
X98979Y234923D01*
X99074Y234882D01*
X99168Y234838D01*
X99260Y234790D01*
X99350Y234739D01*
X99439Y234684D01*
X99525Y234626D01*
X99608Y234564D01*
X99690Y234500D01*
X99768Y234432D01*
X99844Y234362D01*
X99918Y234289D01*
X99988Y234212D01*
X100056Y234134D01*
X100120Y234052D01*
X100182Y233969D01*
X100240Y233883D01*
X100295Y233794D01*
X100346Y233704D01*
X100394Y233612D01*
X100438Y233518D01*
X100479Y233423D01*
X100516Y233326D01*
X100549Y233227D01*
X100578Y233128D01*
X100604Y233027D01*
X100625Y232926D01*
X100643Y232824D01*
X100657Y232721D01*
X100667Y232617D01*
X100673Y232514D01*
X100675Y232410D01*
X100676Y232410D02*
X100676Y224282D01*
X110155Y224282D02*
X114670Y224282D01*
X110155Y224282D02*
X110054Y224284D01*
X109953Y224290D01*
X109852Y224299D01*
X109751Y224312D01*
X109651Y224329D01*
X109552Y224350D01*
X109454Y224374D01*
X109357Y224402D01*
X109260Y224434D01*
X109165Y224469D01*
X109072Y224508D01*
X108980Y224550D01*
X108889Y224596D01*
X108801Y224645D01*
X108714Y224697D01*
X108629Y224753D01*
X108546Y224811D01*
X108466Y224873D01*
X108388Y224938D01*
X108312Y225005D01*
X108239Y225075D01*
X108169Y225148D01*
X108102Y225224D01*
X108037Y225302D01*
X107975Y225382D01*
X107917Y225465D01*
X107861Y225550D01*
X107809Y225637D01*
X107760Y225725D01*
X107714Y225816D01*
X107672Y225908D01*
X107633Y226001D01*
X107598Y226096D01*
X107566Y226193D01*
X107538Y226290D01*
X107514Y226388D01*
X107493Y226487D01*
X107476Y226587D01*
X107463Y226688D01*
X107454Y226789D01*
X107448Y226890D01*
X107446Y226991D01*
X107446Y232410D01*
X107448Y232511D01*
X107454Y232612D01*
X107463Y232713D01*
X107476Y232814D01*
X107493Y232914D01*
X107514Y233013D01*
X107538Y233111D01*
X107566Y233208D01*
X107598Y233305D01*
X107633Y233400D01*
X107672Y233493D01*
X107714Y233585D01*
X107760Y233676D01*
X107809Y233765D01*
X107861Y233851D01*
X107917Y233936D01*
X107975Y234019D01*
X108037Y234099D01*
X108102Y234177D01*
X108169Y234253D01*
X108239Y234326D01*
X108312Y234396D01*
X108388Y234463D01*
X108466Y234528D01*
X108546Y234590D01*
X108629Y234648D01*
X108714Y234704D01*
X108801Y234756D01*
X108889Y234805D01*
X108980Y234851D01*
X109072Y234893D01*
X109165Y234932D01*
X109260Y234967D01*
X109357Y234999D01*
X109454Y235027D01*
X109552Y235051D01*
X109651Y235072D01*
X109751Y235089D01*
X109852Y235102D01*
X109953Y235111D01*
X110054Y235117D01*
X110155Y235119D01*
X114670Y235119D01*
X114670Y221573D01*
X114668Y221469D01*
X114662Y221366D01*
X114652Y221262D01*
X114638Y221159D01*
X114620Y221057D01*
X114599Y220956D01*
X114573Y220855D01*
X114544Y220756D01*
X114511Y220657D01*
X114474Y220560D01*
X114433Y220465D01*
X114389Y220371D01*
X114341Y220279D01*
X114290Y220189D01*
X114235Y220100D01*
X114177Y220014D01*
X114115Y219931D01*
X114051Y219849D01*
X113983Y219771D01*
X113913Y219695D01*
X113840Y219621D01*
X113763Y219551D01*
X113685Y219483D01*
X113603Y219419D01*
X113520Y219357D01*
X113434Y219299D01*
X113345Y219244D01*
X113255Y219193D01*
X113163Y219145D01*
X113069Y219101D01*
X112974Y219060D01*
X112877Y219023D01*
X112778Y218990D01*
X112679Y218961D01*
X112578Y218935D01*
X112477Y218914D01*
X112375Y218896D01*
X112272Y218882D01*
X112168Y218872D01*
X112065Y218866D01*
X111961Y218864D01*
X111961Y218863D02*
X108349Y218863D01*
X121587Y227894D02*
X121587Y231507D01*
X121589Y231626D01*
X121595Y231746D01*
X121605Y231865D01*
X121619Y231983D01*
X121636Y232102D01*
X121658Y232219D01*
X121683Y232336D01*
X121713Y232451D01*
X121746Y232566D01*
X121783Y232680D01*
X121823Y232792D01*
X121868Y232903D01*
X121916Y233012D01*
X121967Y233120D01*
X122022Y233226D01*
X122081Y233330D01*
X122143Y233432D01*
X122208Y233532D01*
X122277Y233630D01*
X122349Y233726D01*
X122424Y233819D01*
X122501Y233909D01*
X122582Y233997D01*
X122666Y234082D01*
X122753Y234164D01*
X122842Y234244D01*
X122934Y234320D01*
X123028Y234394D01*
X123125Y234464D01*
X123223Y234531D01*
X123324Y234595D01*
X123428Y234655D01*
X123533Y234712D01*
X123640Y234765D01*
X123748Y234815D01*
X123858Y234861D01*
X123970Y234903D01*
X124083Y234942D01*
X124197Y234977D01*
X124312Y235008D01*
X124429Y235036D01*
X124546Y235059D01*
X124663Y235079D01*
X124782Y235095D01*
X124901Y235107D01*
X125020Y235115D01*
X125139Y235119D01*
X125259Y235119D01*
X125378Y235115D01*
X125497Y235107D01*
X125616Y235095D01*
X125735Y235079D01*
X125852Y235059D01*
X125969Y235036D01*
X126086Y235008D01*
X126201Y234977D01*
X126315Y234942D01*
X126428Y234903D01*
X126540Y234861D01*
X126650Y234815D01*
X126758Y234765D01*
X126865Y234712D01*
X126970Y234655D01*
X127074Y234595D01*
X127175Y234531D01*
X127273Y234464D01*
X127370Y234394D01*
X127464Y234320D01*
X127556Y234244D01*
X127645Y234164D01*
X127732Y234082D01*
X127816Y233997D01*
X127897Y233909D01*
X127974Y233819D01*
X128049Y233726D01*
X128121Y233630D01*
X128190Y233532D01*
X128255Y233432D01*
X128317Y233330D01*
X128376Y233226D01*
X128431Y233120D01*
X128482Y233012D01*
X128530Y232903D01*
X128575Y232792D01*
X128615Y232680D01*
X128652Y232566D01*
X128685Y232451D01*
X128715Y232336D01*
X128740Y232219D01*
X128762Y232102D01*
X128779Y231983D01*
X128793Y231865D01*
X128803Y231746D01*
X128809Y231626D01*
X128811Y231507D01*
X128812Y231507D02*
X128812Y227894D01*
X128811Y227894D02*
X128809Y227775D01*
X128803Y227655D01*
X128793Y227536D01*
X128779Y227418D01*
X128762Y227299D01*
X128740Y227182D01*
X128715Y227065D01*
X128685Y226950D01*
X128652Y226835D01*
X128615Y226721D01*
X128575Y226609D01*
X128530Y226498D01*
X128482Y226389D01*
X128431Y226281D01*
X128376Y226175D01*
X128317Y226071D01*
X128255Y225969D01*
X128190Y225869D01*
X128121Y225771D01*
X128049Y225675D01*
X127974Y225582D01*
X127897Y225492D01*
X127816Y225404D01*
X127732Y225319D01*
X127645Y225237D01*
X127556Y225157D01*
X127464Y225081D01*
X127370Y225007D01*
X127273Y224937D01*
X127175Y224870D01*
X127074Y224806D01*
X126970Y224746D01*
X126865Y224689D01*
X126758Y224636D01*
X126650Y224586D01*
X126540Y224540D01*
X126428Y224498D01*
X126315Y224459D01*
X126201Y224424D01*
X126086Y224393D01*
X125969Y224365D01*
X125852Y224342D01*
X125735Y224322D01*
X125616Y224306D01*
X125497Y224294D01*
X125378Y224286D01*
X125259Y224282D01*
X125139Y224282D01*
X125020Y224286D01*
X124901Y224294D01*
X124782Y224306D01*
X124663Y224322D01*
X124546Y224342D01*
X124429Y224365D01*
X124312Y224393D01*
X124197Y224424D01*
X124083Y224459D01*
X123970Y224498D01*
X123858Y224540D01*
X123748Y224586D01*
X123640Y224636D01*
X123533Y224689D01*
X123428Y224746D01*
X123324Y224806D01*
X123223Y224870D01*
X123125Y224937D01*
X123028Y225007D01*
X122934Y225081D01*
X122842Y225157D01*
X122753Y225237D01*
X122666Y225319D01*
X122582Y225404D01*
X122501Y225492D01*
X122424Y225582D01*
X122349Y225675D01*
X122277Y225771D01*
X122208Y225869D01*
X122143Y225969D01*
X122081Y226071D01*
X122022Y226175D01*
X121967Y226281D01*
X121916Y226389D01*
X121868Y226498D01*
X121823Y226609D01*
X121783Y226721D01*
X121746Y226835D01*
X121713Y226950D01*
X121683Y227065D01*
X121658Y227182D01*
X121636Y227299D01*
X121619Y227418D01*
X121605Y227536D01*
X121595Y227655D01*
X121589Y227775D01*
X121587Y227894D01*
X144160Y224282D02*
X144160Y240538D01*
X151385Y240538D01*
X151385Y233313D02*
X144160Y233313D01*
X160105Y230604D02*
X164169Y230604D01*
X160105Y230604D02*
X159993Y230602D01*
X159882Y230596D01*
X159771Y230586D01*
X159660Y230573D01*
X159550Y230555D01*
X159441Y230533D01*
X159332Y230508D01*
X159224Y230479D01*
X159118Y230446D01*
X159012Y230409D01*
X158908Y230369D01*
X158806Y230325D01*
X158705Y230277D01*
X158606Y230226D01*
X158508Y230171D01*
X158413Y230113D01*
X158320Y230052D01*
X158229Y229987D01*
X158140Y229919D01*
X158054Y229848D01*
X157971Y229775D01*
X157890Y229698D01*
X157811Y229618D01*
X157736Y229536D01*
X157664Y229451D01*
X157594Y229364D01*
X157528Y229274D01*
X157465Y229182D01*
X157405Y229087D01*
X157349Y228991D01*
X157296Y228893D01*
X157247Y228793D01*
X157201Y228691D01*
X157159Y228588D01*
X157120Y228483D01*
X157085Y228377D01*
X157054Y228270D01*
X157027Y228162D01*
X157003Y228053D01*
X156984Y227943D01*
X156968Y227833D01*
X156956Y227722D01*
X156948Y227610D01*
X156944Y227499D01*
X156944Y227387D01*
X156948Y227276D01*
X156956Y227164D01*
X156968Y227053D01*
X156984Y226943D01*
X157003Y226833D01*
X157027Y226724D01*
X157054Y226616D01*
X157085Y226509D01*
X157120Y226403D01*
X157159Y226298D01*
X157201Y226195D01*
X157247Y226093D01*
X157296Y225993D01*
X157349Y225895D01*
X157405Y225799D01*
X157465Y225704D01*
X157528Y225612D01*
X157594Y225522D01*
X157664Y225435D01*
X157736Y225350D01*
X157811Y225268D01*
X157890Y225188D01*
X157971Y225111D01*
X158054Y225038D01*
X158140Y224967D01*
X158229Y224899D01*
X158320Y224834D01*
X158413Y224773D01*
X158508Y224715D01*
X158606Y224660D01*
X158705Y224609D01*
X158806Y224561D01*
X158908Y224517D01*
X159012Y224477D01*
X159118Y224440D01*
X159224Y224407D01*
X159332Y224378D01*
X159441Y224353D01*
X159550Y224331D01*
X159660Y224313D01*
X159771Y224300D01*
X159882Y224290D01*
X159993Y224284D01*
X160105Y224282D01*
X164169Y224282D01*
X164169Y232410D01*
X164167Y232511D01*
X164161Y232612D01*
X164152Y232713D01*
X164139Y232814D01*
X164122Y232914D01*
X164101Y233013D01*
X164077Y233111D01*
X164049Y233208D01*
X164017Y233305D01*
X163982Y233400D01*
X163943Y233493D01*
X163901Y233585D01*
X163855Y233676D01*
X163806Y233765D01*
X163754Y233851D01*
X163698Y233936D01*
X163640Y234019D01*
X163578Y234099D01*
X163513Y234177D01*
X163446Y234253D01*
X163376Y234326D01*
X163303Y234396D01*
X163227Y234463D01*
X163149Y234528D01*
X163069Y234590D01*
X162986Y234648D01*
X162901Y234704D01*
X162815Y234756D01*
X162726Y234805D01*
X162635Y234851D01*
X162543Y234893D01*
X162450Y234932D01*
X162355Y234967D01*
X162258Y234999D01*
X162161Y235027D01*
X162063Y235051D01*
X161964Y235072D01*
X161864Y235089D01*
X161763Y235102D01*
X161662Y235111D01*
X161561Y235117D01*
X161460Y235119D01*
X157848Y235119D01*
X171692Y235119D02*
X171692Y224282D01*
X171692Y235119D02*
X177110Y235119D01*
X177110Y233313D01*
X182827Y235119D02*
X182827Y224282D01*
X182827Y235119D02*
X190955Y235119D01*
X191056Y235117D01*
X191157Y235111D01*
X191258Y235102D01*
X191359Y235089D01*
X191459Y235072D01*
X191558Y235051D01*
X191656Y235027D01*
X191753Y234999D01*
X191850Y234967D01*
X191945Y234932D01*
X192038Y234893D01*
X192130Y234851D01*
X192221Y234805D01*
X192310Y234756D01*
X192396Y234704D01*
X192481Y234648D01*
X192564Y234590D01*
X192644Y234528D01*
X192722Y234463D01*
X192798Y234396D01*
X192871Y234326D01*
X192941Y234253D01*
X193008Y234177D01*
X193073Y234099D01*
X193135Y234019D01*
X193193Y233936D01*
X193249Y233851D01*
X193301Y233765D01*
X193350Y233676D01*
X193396Y233585D01*
X193438Y233493D01*
X193477Y233400D01*
X193512Y233305D01*
X193544Y233208D01*
X193572Y233111D01*
X193596Y233013D01*
X193617Y232914D01*
X193634Y232814D01*
X193647Y232713D01*
X193656Y232612D01*
X193662Y232511D01*
X193664Y232410D01*
X193664Y224282D01*
X188245Y224282D02*
X188245Y235119D01*
X214158Y224282D02*
X214276Y224284D01*
X214394Y224290D01*
X214512Y224299D01*
X214629Y224313D01*
X214746Y224330D01*
X214863Y224351D01*
X214978Y224376D01*
X215093Y224405D01*
X215207Y224438D01*
X215319Y224474D01*
X215430Y224514D01*
X215540Y224557D01*
X215649Y224604D01*
X215756Y224654D01*
X215861Y224709D01*
X215964Y224766D01*
X216065Y224827D01*
X216165Y224891D01*
X216262Y224958D01*
X216357Y225028D01*
X216449Y225102D01*
X216540Y225178D01*
X216627Y225258D01*
X216712Y225340D01*
X216794Y225425D01*
X216874Y225512D01*
X216950Y225603D01*
X217024Y225695D01*
X217094Y225790D01*
X217161Y225887D01*
X217225Y225987D01*
X217286Y226088D01*
X217343Y226191D01*
X217398Y226296D01*
X217448Y226403D01*
X217495Y226512D01*
X217538Y226622D01*
X217578Y226733D01*
X217614Y226845D01*
X217647Y226959D01*
X217676Y227074D01*
X217701Y227189D01*
X217722Y227306D01*
X217739Y227423D01*
X217753Y227540D01*
X217762Y227658D01*
X217768Y227776D01*
X217770Y227894D01*
X214158Y224282D02*
X213975Y224284D01*
X213793Y224291D01*
X213611Y224302D01*
X213429Y224317D01*
X213247Y224337D01*
X213066Y224360D01*
X212886Y224389D01*
X212706Y224421D01*
X212527Y224458D01*
X212350Y224499D01*
X212173Y224545D01*
X211997Y224594D01*
X211823Y224648D01*
X211649Y224706D01*
X211478Y224768D01*
X211308Y224834D01*
X211139Y224905D01*
X210972Y224979D01*
X210807Y225057D01*
X210644Y225139D01*
X210483Y225225D01*
X210324Y225315D01*
X210167Y225409D01*
X210013Y225506D01*
X209861Y225607D01*
X209711Y225712D01*
X209564Y225820D01*
X209420Y225931D01*
X209278Y226046D01*
X209139Y226165D01*
X209003Y226287D01*
X208870Y226412D01*
X208740Y226540D01*
X209192Y236926D02*
X209194Y237044D01*
X209200Y237162D01*
X209209Y237280D01*
X209223Y237397D01*
X209240Y237514D01*
X209261Y237631D01*
X209286Y237746D01*
X209315Y237861D01*
X209348Y237975D01*
X209384Y238087D01*
X209424Y238198D01*
X209467Y238308D01*
X209514Y238417D01*
X209564Y238524D01*
X209619Y238629D01*
X209676Y238732D01*
X209737Y238833D01*
X209801Y238933D01*
X209868Y239030D01*
X209938Y239125D01*
X210012Y239217D01*
X210088Y239308D01*
X210168Y239395D01*
X210250Y239480D01*
X210335Y239562D01*
X210422Y239642D01*
X210513Y239718D01*
X210605Y239792D01*
X210700Y239862D01*
X210797Y239929D01*
X210897Y239993D01*
X210998Y240054D01*
X211101Y240112D01*
X211206Y240166D01*
X211313Y240216D01*
X211422Y240263D01*
X211532Y240307D01*
X211643Y240346D01*
X211756Y240382D01*
X211869Y240415D01*
X211984Y240444D01*
X212099Y240469D01*
X212216Y240490D01*
X212333Y240507D01*
X212450Y240521D01*
X212568Y240530D01*
X212686Y240536D01*
X212804Y240538D01*
X212965Y240536D01*
X213127Y240530D01*
X213288Y240521D01*
X213449Y240507D01*
X213609Y240490D01*
X213769Y240469D01*
X213929Y240444D01*
X214088Y240415D01*
X214246Y240383D01*
X214403Y240347D01*
X214559Y240307D01*
X214715Y240263D01*
X214869Y240215D01*
X215022Y240164D01*
X215174Y240110D01*
X215325Y240051D01*
X215474Y239990D01*
X215621Y239924D01*
X215767Y239855D01*
X215912Y239783D01*
X216054Y239707D01*
X216195Y239628D01*
X216334Y239546D01*
X216470Y239460D01*
X216605Y239371D01*
X216738Y239279D01*
X216868Y239183D01*
X210997Y233765D02*
X210896Y233827D01*
X210796Y233892D01*
X210699Y233961D01*
X210604Y234033D01*
X210511Y234107D01*
X210421Y234185D01*
X210333Y234266D01*
X210248Y234349D01*
X210166Y234435D01*
X210087Y234524D01*
X210010Y234615D01*
X209937Y234709D01*
X209866Y234805D01*
X209799Y234903D01*
X209735Y235003D01*
X209674Y235106D01*
X209617Y235210D01*
X209563Y235316D01*
X209513Y235424D01*
X209466Y235533D01*
X209422Y235644D01*
X209382Y235756D01*
X209346Y235870D01*
X209314Y235984D01*
X209285Y236100D01*
X209260Y236216D01*
X209239Y236333D01*
X209222Y236451D01*
X209208Y236569D01*
X209199Y236688D01*
X209193Y236807D01*
X209191Y236926D01*
X215965Y231055D02*
X216066Y230993D01*
X216166Y230928D01*
X216263Y230859D01*
X216358Y230787D01*
X216451Y230713D01*
X216541Y230635D01*
X216629Y230554D01*
X216714Y230471D01*
X216796Y230385D01*
X216875Y230296D01*
X216952Y230205D01*
X217025Y230111D01*
X217096Y230015D01*
X217163Y229917D01*
X217227Y229817D01*
X217288Y229714D01*
X217345Y229610D01*
X217399Y229504D01*
X217449Y229396D01*
X217496Y229287D01*
X217540Y229176D01*
X217580Y229064D01*
X217616Y228950D01*
X217648Y228836D01*
X217677Y228720D01*
X217702Y228604D01*
X217723Y228487D01*
X217740Y228369D01*
X217754Y228251D01*
X217763Y228132D01*
X217769Y228013D01*
X217771Y227894D01*
X215965Y231055D02*
X210997Y233765D01*
X224510Y240538D02*
X224510Y224282D01*
X229929Y231507D02*
X224510Y240538D01*
X229929Y231507D02*
X235347Y240538D01*
X235347Y224282D01*
X255842Y224282D02*
X255960Y224284D01*
X256078Y224290D01*
X256196Y224299D01*
X256313Y224313D01*
X256430Y224330D01*
X256547Y224351D01*
X256662Y224376D01*
X256777Y224405D01*
X256891Y224438D01*
X257003Y224474D01*
X257114Y224514D01*
X257224Y224557D01*
X257333Y224604D01*
X257440Y224654D01*
X257545Y224709D01*
X257648Y224766D01*
X257749Y224827D01*
X257849Y224891D01*
X257946Y224958D01*
X258041Y225028D01*
X258133Y225102D01*
X258224Y225178D01*
X258311Y225258D01*
X258396Y225340D01*
X258478Y225425D01*
X258558Y225512D01*
X258634Y225603D01*
X258708Y225695D01*
X258778Y225790D01*
X258845Y225887D01*
X258909Y225987D01*
X258970Y226088D01*
X259027Y226191D01*
X259082Y226296D01*
X259132Y226403D01*
X259179Y226512D01*
X259222Y226622D01*
X259262Y226733D01*
X259298Y226845D01*
X259331Y226959D01*
X259360Y227074D01*
X259385Y227189D01*
X259406Y227306D01*
X259423Y227423D01*
X259437Y227540D01*
X259446Y227658D01*
X259452Y227776D01*
X259454Y227894D01*
X255842Y224282D02*
X255659Y224284D01*
X255477Y224291D01*
X255295Y224302D01*
X255113Y224317D01*
X254931Y224337D01*
X254750Y224360D01*
X254570Y224389D01*
X254390Y224421D01*
X254211Y224458D01*
X254034Y224499D01*
X253857Y224545D01*
X253681Y224594D01*
X253507Y224648D01*
X253333Y224706D01*
X253162Y224768D01*
X252992Y224834D01*
X252823Y224905D01*
X252656Y224979D01*
X252491Y225057D01*
X252328Y225139D01*
X252167Y225225D01*
X252008Y225315D01*
X251851Y225409D01*
X251697Y225506D01*
X251545Y225607D01*
X251395Y225712D01*
X251248Y225820D01*
X251104Y225931D01*
X250962Y226046D01*
X250823Y226165D01*
X250687Y226287D01*
X250554Y226412D01*
X250424Y226540D01*
X250875Y236926D02*
X250877Y237044D01*
X250883Y237162D01*
X250892Y237280D01*
X250906Y237397D01*
X250923Y237514D01*
X250944Y237631D01*
X250969Y237746D01*
X250998Y237861D01*
X251031Y237975D01*
X251067Y238087D01*
X251107Y238198D01*
X251150Y238308D01*
X251197Y238417D01*
X251247Y238524D01*
X251302Y238629D01*
X251359Y238732D01*
X251420Y238833D01*
X251484Y238933D01*
X251551Y239030D01*
X251621Y239125D01*
X251695Y239217D01*
X251771Y239308D01*
X251851Y239395D01*
X251933Y239480D01*
X252018Y239562D01*
X252105Y239642D01*
X252196Y239718D01*
X252288Y239792D01*
X252383Y239862D01*
X252480Y239929D01*
X252580Y239993D01*
X252681Y240054D01*
X252784Y240112D01*
X252889Y240166D01*
X252996Y240216D01*
X253105Y240263D01*
X253215Y240307D01*
X253326Y240346D01*
X253439Y240382D01*
X253552Y240415D01*
X253667Y240444D01*
X253782Y240469D01*
X253899Y240490D01*
X254016Y240507D01*
X254133Y240521D01*
X254251Y240530D01*
X254369Y240536D01*
X254487Y240538D01*
X254648Y240536D01*
X254810Y240530D01*
X254971Y240521D01*
X255132Y240507D01*
X255292Y240490D01*
X255452Y240469D01*
X255612Y240444D01*
X255771Y240415D01*
X255929Y240383D01*
X256086Y240347D01*
X256242Y240307D01*
X256398Y240263D01*
X256552Y240215D01*
X256705Y240164D01*
X256857Y240110D01*
X257008Y240051D01*
X257157Y239990D01*
X257304Y239924D01*
X257450Y239855D01*
X257595Y239783D01*
X257737Y239707D01*
X257878Y239628D01*
X258017Y239546D01*
X258153Y239460D01*
X258288Y239371D01*
X258421Y239279D01*
X258551Y239183D01*
X252680Y233765D02*
X252579Y233827D01*
X252479Y233892D01*
X252382Y233961D01*
X252287Y234033D01*
X252194Y234107D01*
X252104Y234185D01*
X252016Y234266D01*
X251931Y234349D01*
X251849Y234435D01*
X251770Y234524D01*
X251693Y234615D01*
X251620Y234709D01*
X251549Y234805D01*
X251482Y234903D01*
X251418Y235003D01*
X251357Y235106D01*
X251300Y235210D01*
X251246Y235316D01*
X251196Y235424D01*
X251149Y235533D01*
X251105Y235644D01*
X251065Y235756D01*
X251029Y235870D01*
X250997Y235984D01*
X250968Y236100D01*
X250943Y236216D01*
X250922Y236333D01*
X250905Y236451D01*
X250891Y236569D01*
X250882Y236688D01*
X250876Y236807D01*
X250874Y236926D01*
X257648Y231055D02*
X257749Y230993D01*
X257849Y230928D01*
X257946Y230859D01*
X258041Y230787D01*
X258134Y230713D01*
X258224Y230635D01*
X258312Y230554D01*
X258397Y230471D01*
X258479Y230385D01*
X258558Y230296D01*
X258635Y230205D01*
X258708Y230111D01*
X258779Y230015D01*
X258846Y229917D01*
X258910Y229817D01*
X258971Y229714D01*
X259028Y229610D01*
X259082Y229504D01*
X259132Y229396D01*
X259179Y229287D01*
X259223Y229176D01*
X259263Y229064D01*
X259299Y228950D01*
X259331Y228836D01*
X259360Y228720D01*
X259385Y228604D01*
X259406Y228487D01*
X259423Y228369D01*
X259437Y228251D01*
X259446Y228132D01*
X259452Y228013D01*
X259454Y227894D01*
X257648Y231055D02*
X252681Y233765D01*
X268104Y224282D02*
X272619Y224282D01*
X268104Y224282D02*
X268003Y224284D01*
X267902Y224290D01*
X267801Y224299D01*
X267700Y224312D01*
X267600Y224329D01*
X267501Y224350D01*
X267403Y224374D01*
X267306Y224402D01*
X267209Y224434D01*
X267114Y224469D01*
X267021Y224508D01*
X266929Y224550D01*
X266838Y224596D01*
X266750Y224645D01*
X266663Y224697D01*
X266578Y224753D01*
X266495Y224811D01*
X266415Y224873D01*
X266337Y224938D01*
X266261Y225005D01*
X266188Y225075D01*
X266118Y225148D01*
X266051Y225224D01*
X265986Y225302D01*
X265924Y225382D01*
X265866Y225465D01*
X265810Y225550D01*
X265758Y225637D01*
X265709Y225725D01*
X265663Y225816D01*
X265621Y225908D01*
X265582Y226001D01*
X265547Y226096D01*
X265515Y226193D01*
X265487Y226290D01*
X265463Y226388D01*
X265442Y226487D01*
X265425Y226587D01*
X265412Y226688D01*
X265403Y226789D01*
X265397Y226890D01*
X265395Y226991D01*
X265394Y226991D02*
X265394Y231507D01*
X265395Y231507D02*
X265397Y231626D01*
X265403Y231746D01*
X265413Y231865D01*
X265427Y231983D01*
X265444Y232102D01*
X265466Y232219D01*
X265491Y232336D01*
X265521Y232451D01*
X265554Y232566D01*
X265591Y232680D01*
X265631Y232792D01*
X265676Y232903D01*
X265724Y233012D01*
X265775Y233120D01*
X265830Y233226D01*
X265889Y233330D01*
X265951Y233432D01*
X266016Y233532D01*
X266085Y233630D01*
X266157Y233726D01*
X266232Y233819D01*
X266309Y233909D01*
X266390Y233997D01*
X266474Y234082D01*
X266561Y234164D01*
X266650Y234244D01*
X266742Y234320D01*
X266836Y234394D01*
X266933Y234464D01*
X267031Y234531D01*
X267132Y234595D01*
X267236Y234655D01*
X267341Y234712D01*
X267448Y234765D01*
X267556Y234815D01*
X267666Y234861D01*
X267778Y234903D01*
X267891Y234942D01*
X268005Y234977D01*
X268120Y235008D01*
X268237Y235036D01*
X268354Y235059D01*
X268471Y235079D01*
X268590Y235095D01*
X268709Y235107D01*
X268828Y235115D01*
X268947Y235119D01*
X269067Y235119D01*
X269186Y235115D01*
X269305Y235107D01*
X269424Y235095D01*
X269543Y235079D01*
X269660Y235059D01*
X269777Y235036D01*
X269894Y235008D01*
X270009Y234977D01*
X270123Y234942D01*
X270236Y234903D01*
X270348Y234861D01*
X270458Y234815D01*
X270566Y234765D01*
X270673Y234712D01*
X270778Y234655D01*
X270882Y234595D01*
X270983Y234531D01*
X271081Y234464D01*
X271178Y234394D01*
X271272Y234320D01*
X271364Y234244D01*
X271453Y234164D01*
X271540Y234082D01*
X271624Y233997D01*
X271705Y233909D01*
X271782Y233819D01*
X271857Y233726D01*
X271929Y233630D01*
X271998Y233532D01*
X272063Y233432D01*
X272125Y233330D01*
X272184Y233226D01*
X272239Y233120D01*
X272290Y233012D01*
X272338Y232903D01*
X272383Y232792D01*
X272423Y232680D01*
X272460Y232566D01*
X272493Y232451D01*
X272523Y232336D01*
X272548Y232219D01*
X272570Y232102D01*
X272587Y231983D01*
X272601Y231865D01*
X272611Y231746D01*
X272617Y231626D01*
X272619Y231507D01*
X272619Y229701D01*
X265394Y229701D01*
X279462Y224282D02*
X279462Y235119D01*
X283978Y235119D01*
X284082Y235117D01*
X284185Y235111D01*
X284289Y235101D01*
X284392Y235087D01*
X284494Y235069D01*
X284595Y235048D01*
X284696Y235022D01*
X284795Y234993D01*
X284894Y234960D01*
X284991Y234923D01*
X285086Y234882D01*
X285180Y234838D01*
X285272Y234790D01*
X285362Y234739D01*
X285451Y234684D01*
X285537Y234626D01*
X285620Y234564D01*
X285702Y234500D01*
X285780Y234432D01*
X285856Y234362D01*
X285930Y234289D01*
X286000Y234212D01*
X286068Y234134D01*
X286132Y234052D01*
X286194Y233969D01*
X286252Y233883D01*
X286307Y233794D01*
X286358Y233704D01*
X286406Y233612D01*
X286450Y233518D01*
X286491Y233423D01*
X286528Y233326D01*
X286561Y233227D01*
X286590Y233128D01*
X286616Y233027D01*
X286637Y232926D01*
X286655Y232824D01*
X286669Y232721D01*
X286679Y232617D01*
X286685Y232514D01*
X286687Y232410D01*
X286687Y224282D01*
X294885Y230604D02*
X299401Y228798D01*
X294885Y230604D02*
X294797Y230641D01*
X294711Y230682D01*
X294626Y230726D01*
X294543Y230774D01*
X294463Y230825D01*
X294384Y230879D01*
X294308Y230937D01*
X294234Y230997D01*
X294162Y231061D01*
X294094Y231127D01*
X294028Y231197D01*
X293965Y231268D01*
X293904Y231343D01*
X293847Y231419D01*
X293794Y231498D01*
X293743Y231579D01*
X293696Y231662D01*
X293652Y231747D01*
X293612Y231834D01*
X293575Y231922D01*
X293542Y232012D01*
X293512Y232103D01*
X293487Y232195D01*
X293465Y232288D01*
X293447Y232382D01*
X293432Y232476D01*
X293422Y232571D01*
X293416Y232667D01*
X293413Y232762D01*
X293414Y232858D01*
X293420Y232953D01*
X293429Y233049D01*
X293442Y233143D01*
X293458Y233237D01*
X293479Y233331D01*
X293504Y233423D01*
X293532Y233514D01*
X293564Y233604D01*
X293599Y233693D01*
X293638Y233780D01*
X293681Y233866D01*
X293727Y233950D01*
X293777Y234031D01*
X293829Y234111D01*
X293885Y234189D01*
X293945Y234264D01*
X294007Y234336D01*
X294072Y234406D01*
X294140Y234474D01*
X294210Y234538D01*
X294283Y234600D01*
X294359Y234658D01*
X294437Y234714D01*
X294517Y234766D01*
X294599Y234815D01*
X294683Y234860D01*
X294769Y234902D01*
X294856Y234941D01*
X294945Y234976D01*
X295036Y235007D01*
X295127Y235034D01*
X295220Y235058D01*
X295313Y235078D01*
X295407Y235094D01*
X295502Y235106D01*
X295597Y235115D01*
X295693Y235119D01*
X295788Y235120D01*
X296035Y235113D01*
X296281Y235101D01*
X296527Y235083D01*
X296773Y235058D01*
X297017Y235028D01*
X297261Y234992D01*
X297504Y234951D01*
X297746Y234903D01*
X297987Y234849D01*
X298226Y234790D01*
X298464Y234725D01*
X298700Y234654D01*
X298935Y234578D01*
X299168Y234496D01*
X299398Y234408D01*
X299626Y234315D01*
X299853Y234217D01*
X299401Y228797D02*
X299489Y228760D01*
X299575Y228719D01*
X299660Y228675D01*
X299743Y228627D01*
X299823Y228576D01*
X299902Y228522D01*
X299978Y228464D01*
X300052Y228404D01*
X300124Y228340D01*
X300192Y228274D01*
X300258Y228204D01*
X300321Y228133D01*
X300382Y228058D01*
X300439Y227982D01*
X300492Y227903D01*
X300543Y227822D01*
X300590Y227739D01*
X300634Y227654D01*
X300674Y227567D01*
X300711Y227479D01*
X300744Y227389D01*
X300774Y227298D01*
X300799Y227206D01*
X300821Y227113D01*
X300839Y227019D01*
X300854Y226925D01*
X300864Y226830D01*
X300870Y226734D01*
X300873Y226639D01*
X300872Y226543D01*
X300866Y226448D01*
X300857Y226352D01*
X300844Y226258D01*
X300828Y226164D01*
X300807Y226070D01*
X300782Y225978D01*
X300754Y225887D01*
X300722Y225797D01*
X300687Y225708D01*
X300648Y225621D01*
X300605Y225535D01*
X300559Y225451D01*
X300509Y225370D01*
X300457Y225290D01*
X300401Y225212D01*
X300341Y225137D01*
X300279Y225065D01*
X300214Y224995D01*
X300146Y224927D01*
X300076Y224863D01*
X300003Y224801D01*
X299927Y224743D01*
X299849Y224687D01*
X299769Y224635D01*
X299687Y224586D01*
X299603Y224541D01*
X299517Y224499D01*
X299430Y224460D01*
X299341Y224425D01*
X299250Y224394D01*
X299159Y224367D01*
X299066Y224343D01*
X298973Y224323D01*
X298879Y224307D01*
X298784Y224295D01*
X298689Y224286D01*
X298593Y224282D01*
X298498Y224281D01*
X298497Y224282D02*
X298135Y224291D01*
X297773Y224309D01*
X297412Y224336D01*
X297052Y224371D01*
X296692Y224414D01*
X296333Y224466D01*
X295976Y224527D01*
X295621Y224596D01*
X295267Y224673D01*
X294915Y224759D01*
X294565Y224853D01*
X294217Y224956D01*
X293872Y225066D01*
X293530Y225185D01*
X307077Y227894D02*
X307077Y231507D01*
X307078Y231507D02*
X307080Y231626D01*
X307086Y231746D01*
X307096Y231865D01*
X307110Y231983D01*
X307127Y232102D01*
X307149Y232219D01*
X307174Y232336D01*
X307204Y232451D01*
X307237Y232566D01*
X307274Y232680D01*
X307314Y232792D01*
X307359Y232903D01*
X307407Y233012D01*
X307458Y233120D01*
X307513Y233226D01*
X307572Y233330D01*
X307634Y233432D01*
X307699Y233532D01*
X307768Y233630D01*
X307840Y233726D01*
X307915Y233819D01*
X307992Y233909D01*
X308073Y233997D01*
X308157Y234082D01*
X308244Y234164D01*
X308333Y234244D01*
X308425Y234320D01*
X308519Y234394D01*
X308616Y234464D01*
X308714Y234531D01*
X308815Y234595D01*
X308919Y234655D01*
X309024Y234712D01*
X309131Y234765D01*
X309239Y234815D01*
X309349Y234861D01*
X309461Y234903D01*
X309574Y234942D01*
X309688Y234977D01*
X309803Y235008D01*
X309920Y235036D01*
X310037Y235059D01*
X310154Y235079D01*
X310273Y235095D01*
X310392Y235107D01*
X310511Y235115D01*
X310630Y235119D01*
X310750Y235119D01*
X310869Y235115D01*
X310988Y235107D01*
X311107Y235095D01*
X311226Y235079D01*
X311343Y235059D01*
X311460Y235036D01*
X311577Y235008D01*
X311692Y234977D01*
X311806Y234942D01*
X311919Y234903D01*
X312031Y234861D01*
X312141Y234815D01*
X312249Y234765D01*
X312356Y234712D01*
X312461Y234655D01*
X312565Y234595D01*
X312666Y234531D01*
X312764Y234464D01*
X312861Y234394D01*
X312955Y234320D01*
X313047Y234244D01*
X313136Y234164D01*
X313223Y234082D01*
X313307Y233997D01*
X313388Y233909D01*
X313465Y233819D01*
X313540Y233726D01*
X313612Y233630D01*
X313681Y233532D01*
X313746Y233432D01*
X313808Y233330D01*
X313867Y233226D01*
X313922Y233120D01*
X313973Y233012D01*
X314021Y232903D01*
X314066Y232792D01*
X314106Y232680D01*
X314143Y232566D01*
X314176Y232451D01*
X314206Y232336D01*
X314231Y232219D01*
X314253Y232102D01*
X314270Y231983D01*
X314284Y231865D01*
X314294Y231746D01*
X314300Y231626D01*
X314302Y231507D01*
X314302Y227894D01*
X314300Y227775D01*
X314294Y227655D01*
X314284Y227536D01*
X314270Y227418D01*
X314253Y227299D01*
X314231Y227182D01*
X314206Y227065D01*
X314176Y226950D01*
X314143Y226835D01*
X314106Y226721D01*
X314066Y226609D01*
X314021Y226498D01*
X313973Y226389D01*
X313922Y226281D01*
X313867Y226175D01*
X313808Y226071D01*
X313746Y225969D01*
X313681Y225869D01*
X313612Y225771D01*
X313540Y225675D01*
X313465Y225582D01*
X313388Y225492D01*
X313307Y225404D01*
X313223Y225319D01*
X313136Y225237D01*
X313047Y225157D01*
X312955Y225081D01*
X312861Y225007D01*
X312764Y224937D01*
X312666Y224870D01*
X312565Y224806D01*
X312461Y224746D01*
X312356Y224689D01*
X312249Y224636D01*
X312141Y224586D01*
X312031Y224540D01*
X311919Y224498D01*
X311806Y224459D01*
X311692Y224424D01*
X311577Y224393D01*
X311460Y224365D01*
X311343Y224342D01*
X311226Y224322D01*
X311107Y224306D01*
X310988Y224294D01*
X310869Y224286D01*
X310750Y224282D01*
X310630Y224282D01*
X310511Y224286D01*
X310392Y224294D01*
X310273Y224306D01*
X310154Y224322D01*
X310037Y224342D01*
X309920Y224365D01*
X309803Y224393D01*
X309688Y224424D01*
X309574Y224459D01*
X309461Y224498D01*
X309349Y224540D01*
X309239Y224586D01*
X309131Y224636D01*
X309024Y224689D01*
X308919Y224746D01*
X308815Y224806D01*
X308714Y224870D01*
X308616Y224937D01*
X308519Y225007D01*
X308425Y225081D01*
X308333Y225157D01*
X308244Y225237D01*
X308157Y225319D01*
X308073Y225404D01*
X307992Y225492D01*
X307915Y225582D01*
X307840Y225675D01*
X307768Y225771D01*
X307699Y225869D01*
X307634Y225969D01*
X307572Y226071D01*
X307513Y226175D01*
X307458Y226281D01*
X307407Y226389D01*
X307359Y226498D01*
X307314Y226609D01*
X307274Y226721D01*
X307237Y226835D01*
X307204Y226950D01*
X307174Y227065D01*
X307149Y227182D01*
X307127Y227299D01*
X307110Y227418D01*
X307096Y227536D01*
X307086Y227655D01*
X307080Y227775D01*
X307078Y227894D01*
X321230Y224282D02*
X321230Y235119D01*
X326649Y235119D01*
X326649Y233313D01*
X339139Y240538D02*
X344558Y224282D01*
X349976Y240538D01*
X355673Y236926D02*
X360189Y240538D01*
X360189Y224282D01*
X364704Y224282D02*
X355673Y224282D01*
X370679Y224282D02*
X370679Y225185D01*
X371582Y225185D01*
X371582Y224282D01*
X370679Y224282D01*
X377557Y236926D02*
X382072Y240538D01*
X382072Y224282D01*
X377557Y224282D02*
X386588Y224282D01*
X311150Y120650D02*
X298450Y120650D01*
X311150Y120650D02*
X317500Y114300D01*
X317500Y101600D01*
X311150Y95250D01*
X273050Y120650D02*
X266700Y114300D01*
X273050Y120650D02*
X285750Y120650D01*
X292100Y114300D01*
X292100Y101600D01*
X285750Y95250D01*
X273050Y95250D01*
X266700Y101600D01*
X292100Y114300D02*
X298450Y120650D01*
X292100Y101600D02*
X298450Y95250D01*
X311150Y95250D01*
X234950Y120650D02*
X222250Y120650D01*
X234950Y120650D02*
X241300Y114300D01*
X241300Y101600D01*
X234950Y95250D01*
X241300Y114300D02*
X247650Y120650D01*
X260350Y120650D01*
X266700Y114300D01*
X266700Y101600D01*
X260350Y95250D01*
X247650Y95250D01*
X241300Y101600D01*
X196850Y120650D02*
X190500Y114300D01*
X196850Y120650D02*
X209550Y120650D01*
X215900Y114300D01*
X215900Y101600D01*
X209550Y95250D01*
X196850Y95250D01*
X190500Y101600D01*
X215900Y114300D02*
X222250Y120650D01*
X215900Y101600D02*
X222250Y95250D01*
X234950Y95250D01*
X158750Y120650D02*
X146050Y120650D01*
X158750Y120650D02*
X165100Y114300D01*
X165100Y101600D01*
X158750Y95250D01*
X165100Y114300D02*
X171450Y120650D01*
X184150Y120650D01*
X190500Y114300D01*
X190500Y101600D01*
X184150Y95250D01*
X171450Y95250D01*
X165100Y101600D01*
X120650Y120650D02*
X114300Y114300D01*
X120650Y120650D02*
X133350Y120650D01*
X139700Y114300D01*
X139700Y101600D01*
X133350Y95250D01*
X120650Y95250D01*
X114300Y101600D01*
X139700Y114300D02*
X146050Y120650D01*
X139700Y101600D02*
X146050Y95250D01*
X158750Y95250D01*
X82550Y120650D02*
X69850Y120650D01*
X82550Y120650D02*
X88900Y114300D01*
X88900Y101600D01*
X82550Y95250D01*
X88900Y114300D02*
X95250Y120650D01*
X107950Y120650D01*
X114300Y114300D01*
X114300Y101600D01*
X107950Y95250D01*
X95250Y95250D01*
X88900Y101600D01*
X63500Y101600D02*
X63500Y114300D01*
X69850Y120650D01*
X63500Y101600D02*
X69850Y95250D01*
X82550Y95250D01*
X323850Y120650D02*
X336550Y120650D01*
X342900Y114300D01*
X342900Y101600D01*
X336550Y95250D01*
X317500Y114300D02*
X323850Y120650D01*
X317500Y101600D02*
X323850Y95250D01*
X336550Y95250D01*
X311150Y325760D02*
X298450Y325760D01*
X311150Y325760D02*
X317500Y319410D01*
X317500Y306710D01*
X311150Y300360D01*
X273050Y325760D02*
X266700Y319410D01*
X273050Y325760D02*
X285750Y325760D01*
X292100Y319410D01*
X292100Y306710D01*
X285750Y300360D01*
X273050Y300360D01*
X266700Y306710D01*
X292100Y319410D02*
X298450Y325760D01*
X292100Y306710D02*
X298450Y300360D01*
X311150Y300360D01*
X234950Y325760D02*
X222250Y325760D01*
X234950Y325760D02*
X241300Y319410D01*
X241300Y306710D01*
X234950Y300360D01*
X241300Y319410D02*
X247650Y325760D01*
X260350Y325760D01*
X266700Y319410D01*
X266700Y306710D01*
X260350Y300360D01*
X247650Y300360D01*
X241300Y306710D01*
X196850Y325760D02*
X190500Y319410D01*
X196850Y325760D02*
X209550Y325760D01*
X215900Y319410D01*
X215900Y306710D01*
X209550Y300360D01*
X196850Y300360D01*
X190500Y306710D01*
X215900Y319410D02*
X222250Y325760D01*
X215900Y306710D02*
X222250Y300360D01*
X234950Y300360D01*
X158750Y325760D02*
X146050Y325760D01*
X158750Y325760D02*
X165100Y319410D01*
X165100Y306710D01*
X158750Y300360D01*
X165100Y319410D02*
X171450Y325760D01*
X184150Y325760D01*
X190500Y319410D01*
X190500Y306710D01*
X184150Y300360D01*
X171450Y300360D01*
X165100Y306710D01*
X120650Y325760D02*
X114300Y319410D01*
X120650Y325760D02*
X133350Y325760D01*
X139700Y319410D01*
X139700Y306710D01*
X133350Y300360D01*
X120650Y300360D01*
X114300Y306710D01*
X139700Y319410D02*
X146050Y325760D01*
X139700Y306710D02*
X146050Y300360D01*
X158750Y300360D01*
X82550Y325760D02*
X69850Y325760D01*
X82550Y325760D02*
X88900Y319410D01*
X88900Y306710D01*
X82550Y300360D01*
X88900Y319410D02*
X95250Y325760D01*
X107950Y325760D01*
X114300Y319410D01*
X114300Y306710D01*
X107950Y300360D01*
X95250Y300360D01*
X88900Y306710D01*
X63500Y306710D02*
X63500Y319410D01*
X69850Y325760D01*
X63500Y306710D02*
X69850Y300360D01*
X82550Y300360D01*
X323850Y325760D02*
X336550Y325760D01*
X342900Y319410D01*
X342900Y306710D01*
X336550Y300360D01*
X317500Y319410D02*
X323850Y325760D01*
X317500Y306710D02*
X323850Y300360D01*
X336550Y300360D01*
X189250Y80600D02*
X189250Y-4400D01*
X189250Y80600D02*
X344150Y80600D01*
X344150Y-4400D01*
X189250Y-4400D01*
X166350Y-4400D02*
X166350Y80600D01*
X166350Y-4400D02*
X62250Y-4400D01*
X62250Y80600D01*
X166350Y80600D01*
X24638Y159768D02*
X24638Y200408D01*
X24638Y159768D02*
X50038Y159768D01*
X50038Y200408D01*
X24638Y200408D01*
X37338Y186438D02*
X37338Y180088D01*
X43688Y169928D02*
X30988Y169928D01*
X37338Y180088D01*
X37338Y164848D01*
X43688Y169928D02*
X37338Y180088D01*
X43688Y180088D01*
X37338Y180088D02*
X30988Y180088D01*
D11*
X37338Y194058D03*
D12*
X37338Y150243D03*
X37338Y209933D03*
M02*
