G04 #@! TF.GenerationSoftware,KiCad,Pcbnew,(5.1.5)-3*
G04 #@! TF.CreationDate,2020-12-31T09:37:31+00:00*
G04 #@! TF.ProjectId,KiCadTest,4b694361-6454-4657-9374-2e6b69636164,rev?*
G04 #@! TF.SameCoordinates,Original*
G04 #@! TF.FileFunction,Copper,L1,Top*
G04 #@! TF.FilePolarity,Positive*
%FSLAX46Y46*%
G04 Gerber Fmt 4.6, Leading zero omitted, Abs format (unit mm)*
G04 Created by KiCad (PCBNEW (5.1.5)-3) date 2020-12-31 09:37:31*
%MOMM*%
%LPD*%
G04 APERTURE LIST*
%ADD10C,0.800000*%
%ADD11C,0.250000*%
%ADD12C,0.254000*%
G04 APERTURE END LIST*
D10*
X26670000Y-26670000D03*
X39370000Y-26670000D03*
D11*
X26670000Y-26670000D02*
X26670000Y-26670000D01*
X26670000Y-26670000D02*
X39370000Y-26670000D01*
D12*
G36*
X40513000Y-27813000D02*
G01*
X24257000Y-27813000D01*
X24257000Y-26568061D01*
X25635000Y-26568061D01*
X25635000Y-26771939D01*
X25674774Y-26971898D01*
X25752795Y-27160256D01*
X25866063Y-27329774D01*
X26010226Y-27473937D01*
X26179744Y-27587205D01*
X26368102Y-27665226D01*
X26568061Y-27705000D01*
X26771939Y-27705000D01*
X26971898Y-27665226D01*
X27160256Y-27587205D01*
X27329774Y-27473937D01*
X27373711Y-27430000D01*
X38666289Y-27430000D01*
X38710226Y-27473937D01*
X38879744Y-27587205D01*
X39068102Y-27665226D01*
X39268061Y-27705000D01*
X39471939Y-27705000D01*
X39671898Y-27665226D01*
X39860256Y-27587205D01*
X40029774Y-27473937D01*
X40173937Y-27329774D01*
X40287205Y-27160256D01*
X40365226Y-26971898D01*
X40405000Y-26771939D01*
X40405000Y-26568061D01*
X40365226Y-26368102D01*
X40287205Y-26179744D01*
X40173937Y-26010226D01*
X40029774Y-25866063D01*
X39860256Y-25752795D01*
X39671898Y-25674774D01*
X39471939Y-25635000D01*
X39268061Y-25635000D01*
X39068102Y-25674774D01*
X38879744Y-25752795D01*
X38710226Y-25866063D01*
X38666289Y-25910000D01*
X27373711Y-25910000D01*
X27329774Y-25866063D01*
X27160256Y-25752795D01*
X26971898Y-25674774D01*
X26771939Y-25635000D01*
X26568061Y-25635000D01*
X26368102Y-25674774D01*
X26179744Y-25752795D01*
X26010226Y-25866063D01*
X25866063Y-26010226D01*
X25752795Y-26179744D01*
X25674774Y-26368102D01*
X25635000Y-26568061D01*
X24257000Y-26568061D01*
X24257000Y-25527000D01*
X40513000Y-25527000D01*
X40513000Y-27813000D01*
G37*
X40513000Y-27813000D02*
X24257000Y-27813000D01*
X24257000Y-26568061D01*
X25635000Y-26568061D01*
X25635000Y-26771939D01*
X25674774Y-26971898D01*
X25752795Y-27160256D01*
X25866063Y-27329774D01*
X26010226Y-27473937D01*
X26179744Y-27587205D01*
X26368102Y-27665226D01*
X26568061Y-27705000D01*
X26771939Y-27705000D01*
X26971898Y-27665226D01*
X27160256Y-27587205D01*
X27329774Y-27473937D01*
X27373711Y-27430000D01*
X38666289Y-27430000D01*
X38710226Y-27473937D01*
X38879744Y-27587205D01*
X39068102Y-27665226D01*
X39268061Y-27705000D01*
X39471939Y-27705000D01*
X39671898Y-27665226D01*
X39860256Y-27587205D01*
X40029774Y-27473937D01*
X40173937Y-27329774D01*
X40287205Y-27160256D01*
X40365226Y-26971898D01*
X40405000Y-26771939D01*
X40405000Y-26568061D01*
X40365226Y-26368102D01*
X40287205Y-26179744D01*
X40173937Y-26010226D01*
X40029774Y-25866063D01*
X39860256Y-25752795D01*
X39671898Y-25674774D01*
X39471939Y-25635000D01*
X39268061Y-25635000D01*
X39068102Y-25674774D01*
X38879744Y-25752795D01*
X38710226Y-25866063D01*
X38666289Y-25910000D01*
X27373711Y-25910000D01*
X27329774Y-25866063D01*
X27160256Y-25752795D01*
X26971898Y-25674774D01*
X26771939Y-25635000D01*
X26568061Y-25635000D01*
X26368102Y-25674774D01*
X26179744Y-25752795D01*
X26010226Y-25866063D01*
X25866063Y-26010226D01*
X25752795Y-26179744D01*
X25674774Y-26368102D01*
X25635000Y-26568061D01*
X24257000Y-26568061D01*
X24257000Y-25527000D01*
X40513000Y-25527000D01*
X40513000Y-27813000D01*
M02*
