M48
;GenerationSoftware,Autodesk,EAGLE,9.7.0*%
;CreationDate,2021-05-10T19:51:07Z*%
FMAT,2
ICI,OFF
METRIC,TZ,000.000
T5C1.016
T4C1.118
T3C1.200
T2C2.000
%
G90
M71
T2
X3175Y3810
X37465Y3810
X37465Y29210
X3175Y29210
T3
X27305Y31115
X32385Y31115
X15240Y31115
X10160Y31115
X22225Y31115
T4
X3826Y23089
X3826Y12929
T5
X8255Y24130
X10795Y24130
X13335Y24130
X15875Y24130
X18415Y24130
X20955Y24130
X23495Y24130
X15875Y3810
X18415Y3810
X20955Y3810
X23495Y3810
X26035Y3810
X28575Y3810
X31115Y3810
X33655Y3810
X8255Y3810
X33655Y24130
X31115Y24130
X28575Y24130
X26035Y24130
X13335Y3810
X10795Y3810
M30