%TF.GenerationSoftware,KiCad,Pcbnew,(5.1.5)-3*%
%TF.CreationDate,2021-04-27T10:26:10+01:00*%
%TF.ProjectId,KiCadSoil3,4b694361-6453-46f6-996c-332e6b696361,1.0*%
%TF.SameCoordinates,PX1d11680PY3072580*%
%TF.FileFunction,Copper,L2,Bot*%
%TF.FilePolarity,Positive*%
%FSLAX46Y46*%
G04 Gerber Fmt 4.6, Leading zero omitted, Abs format (unit mm)*
G04 Created by KiCad (PCBNEW (5.1.5)-3) date 2021-04-27 10:26:10*
%MOMM*%
%LPD*%
G04 APERTURE LIST*
%ADD10O,1.400000X1.400000*%
%ADD11C,1.400000*%
%ADD12O,2.000000X2.000000*%
%ADD13R,2.000000X2.000000*%
%ADD14C,1.600000*%
%ADD15O,1.600000X1.600000*%
%ADD16R,1.600000X1.600000*%
%ADD17O,1.950000X1.700000*%
%ADD18C,0.100000*%
%ADD19C,0.400000*%
%ADD20C,2.000000*%
%ADD21C,0.420000*%
%ADD22C,6.000000*%
%ADD23C,0.030000*%
%ADD24C,1.000000*%
G04 APERTURE END LIST*
D10*
X71755000Y1905000D03*
D11*
X64135000Y1905000D03*
D12*
X35560000Y8890000D03*
D13*
X35560000Y13970000D03*
D14*
X50720000Y1905000D03*
X45720000Y1905000D03*
D15*
X66675000Y5080000D03*
X59055000Y12700000D03*
X64135000Y5080000D03*
X61595000Y12700000D03*
X61595000Y5080000D03*
X64135000Y12700000D03*
X59055000Y5080000D03*
D16*
X66675000Y12700000D03*
D15*
X53340000Y5080000D03*
X45720000Y12700000D03*
X50800000Y5080000D03*
X48260000Y12700000D03*
X48260000Y5080000D03*
X50800000Y12700000D03*
X45720000Y5080000D03*
D16*
X53340000Y12700000D03*
D11*
X34925000Y5080000D03*
D10*
X42545000Y5080000D03*
D14*
X42465000Y1905000D03*
X37465000Y1905000D03*
D10*
X53975000Y1905000D03*
D11*
X61595000Y1905000D03*
D10*
X38735000Y16510000D03*
D11*
X38735000Y8890000D03*
D14*
X41275000Y16430000D03*
X41275000Y11430000D03*
D17*
X71755000Y11350000D03*
X71755000Y8850000D03*
%TA.AperFunction,ComponentPad*%
D18*
G36*
X72504504Y7198796D02*
G01*
X72528773Y7195196D01*
X72552571Y7189235D01*
X72575671Y7180970D01*
X72597849Y7170480D01*
X72618893Y7157867D01*
X72638598Y7143253D01*
X72656777Y7126777D01*
X72673253Y7108598D01*
X72687867Y7088893D01*
X72700480Y7067849D01*
X72710970Y7045671D01*
X72719235Y7022571D01*
X72725196Y6998773D01*
X72728796Y6974504D01*
X72730000Y6950000D01*
X72730000Y5750000D01*
X72728796Y5725496D01*
X72725196Y5701227D01*
X72719235Y5677429D01*
X72710970Y5654329D01*
X72700480Y5632151D01*
X72687867Y5611107D01*
X72673253Y5591402D01*
X72656777Y5573223D01*
X72638598Y5556747D01*
X72618893Y5542133D01*
X72597849Y5529520D01*
X72575671Y5519030D01*
X72552571Y5510765D01*
X72528773Y5504804D01*
X72504504Y5501204D01*
X72480000Y5500000D01*
X71030000Y5500000D01*
X71005496Y5501204D01*
X70981227Y5504804D01*
X70957429Y5510765D01*
X70934329Y5519030D01*
X70912151Y5529520D01*
X70891107Y5542133D01*
X70871402Y5556747D01*
X70853223Y5573223D01*
X70836747Y5591402D01*
X70822133Y5611107D01*
X70809520Y5632151D01*
X70799030Y5654329D01*
X70790765Y5677429D01*
X70784804Y5701227D01*
X70781204Y5725496D01*
X70780000Y5750000D01*
X70780000Y6950000D01*
X70781204Y6974504D01*
X70784804Y6998773D01*
X70790765Y7022571D01*
X70799030Y7045671D01*
X70809520Y7067849D01*
X70822133Y7088893D01*
X70836747Y7108598D01*
X70853223Y7126777D01*
X70871402Y7143253D01*
X70891107Y7157867D01*
X70912151Y7170480D01*
X70934329Y7180970D01*
X70957429Y7189235D01*
X70981227Y7195196D01*
X71005496Y7198796D01*
X71030000Y7200000D01*
X72480000Y7200000D01*
X72504504Y7198796D01*
G37*
%TD.AperFunction*%
D19*
X54610000Y6350000D02*
X53340000Y5080000D01*
X55245000Y13941019D02*
X54194026Y14991993D01*
X67945000Y6350000D02*
X66675000Y5080000D01*
X65405000Y1905000D02*
X61595000Y1905000D01*
X66675000Y5080000D02*
X66675000Y3175000D01*
X55245000Y6350000D02*
X54610000Y6350000D01*
X59690000Y1905000D02*
X55245000Y6350000D01*
X61595000Y1905000D02*
X59690000Y1905000D01*
X54194026Y14991993D02*
X46574026Y14991993D01*
X45720000Y14137967D02*
X45720000Y12700000D01*
X46574026Y14991993D02*
X45720000Y14137967D01*
X55245000Y6350000D02*
X55245000Y13941019D01*
X67945000Y6350000D02*
X71755000Y6350000D01*
X66675000Y3175000D02*
X65405000Y1905000D01*
D20*
X33020000Y14605000D02*
X32385000Y14605000D01*
D19*
X66000000Y8850000D02*
X64135000Y6985000D01*
D21*
X71755000Y8850000D02*
X73150000Y8850000D01*
D19*
X71755000Y8850000D02*
X66000000Y8850000D01*
D21*
X73660000Y8340000D02*
X73660000Y3810000D01*
X73660000Y3810000D02*
X71755000Y1905000D01*
X73150000Y8850000D02*
X73660000Y8340000D01*
D19*
X64135000Y6985000D02*
X64135000Y5080000D01*
X48260000Y12700000D02*
X48260000Y10795000D01*
X48260000Y10795000D02*
X42545000Y5080000D01*
X64135000Y12700000D02*
X60325000Y16510000D01*
X35560000Y15370000D02*
X36700000Y16510000D01*
X60325000Y16510000D02*
X41275000Y16510000D01*
X36700000Y16510000D02*
X37745051Y16510000D01*
X38735000Y16510000D02*
X41195000Y16510000D01*
X41195000Y16510000D02*
X41275000Y16430000D01*
X37745051Y16510000D02*
X38735000Y16510000D01*
X35560000Y13970000D02*
X35560000Y15370000D01*
X45714990Y5074990D02*
X45714990Y5080000D01*
X42545000Y1905000D02*
X42465000Y1905000D01*
X45720000Y5080000D02*
X42545000Y1905000D01*
X53975000Y1905000D02*
X50720000Y1905000D01*
X48815000Y5000000D02*
X48895000Y5080000D01*
X50800000Y12700000D02*
X50800000Y11568630D01*
X50800000Y11568630D02*
X50800000Y5080000D01*
X50720000Y1905000D02*
X50720000Y5000000D01*
X50720000Y5000000D02*
X50800000Y5080000D01*
X50800000Y5080000D02*
X48260000Y5080000D01*
D22*
X9520000Y8890000D02*
X29210000Y8890000D01*
D21*
X33020000Y8890000D02*
X29210000Y8890000D01*
D19*
X35560000Y8890000D02*
X35560000Y5715000D01*
X35560000Y8890000D02*
X33020000Y8890000D01*
X35560000Y5715000D02*
X34925000Y5080000D01*
D23*
G36*
X74470000Y427612D02*
G01*
X74385176Y453343D01*
X74317590Y460000D01*
X33210538Y460000D01*
X33035000Y635538D01*
X33035000Y2026637D01*
X41230000Y2026637D01*
X41230000Y1783363D01*
X41277460Y1544764D01*
X41370557Y1320008D01*
X41505713Y1117733D01*
X41677733Y945713D01*
X41880008Y810557D01*
X42104764Y717460D01*
X42343363Y670000D01*
X42586637Y670000D01*
X42825236Y717460D01*
X43049992Y810557D01*
X43252267Y945713D01*
X43424287Y1117733D01*
X43559443Y1320008D01*
X43652540Y1544764D01*
X43700000Y1783363D01*
X43700000Y2026637D01*
X43677546Y2139522D01*
X45418751Y3880727D01*
X45598363Y3845000D01*
X45841637Y3845000D01*
X46080236Y3892460D01*
X46304992Y3985557D01*
X46507267Y4120713D01*
X46679287Y4292733D01*
X46814443Y4495008D01*
X46907540Y4719764D01*
X46955000Y4958363D01*
X46955000Y5201637D01*
X47025000Y5201637D01*
X47025000Y4958363D01*
X47072460Y4719764D01*
X47165557Y4495008D01*
X47300713Y4292733D01*
X47472733Y4120713D01*
X47675008Y3985557D01*
X47899764Y3892460D01*
X48138363Y3845000D01*
X48381637Y3845000D01*
X48620236Y3892460D01*
X48844992Y3985557D01*
X49047267Y4120713D01*
X49219287Y4292733D01*
X49321029Y4445000D01*
X49738971Y4445000D01*
X49840713Y4292733D01*
X50012733Y4120713D01*
X50085001Y4072425D01*
X50085000Y2966029D01*
X49932733Y2864287D01*
X49760713Y2692267D01*
X49625557Y2489992D01*
X49532460Y2265236D01*
X49485000Y2026637D01*
X49485000Y1783363D01*
X49532460Y1544764D01*
X49625557Y1320008D01*
X49760713Y1117733D01*
X49932733Y945713D01*
X50135008Y810557D01*
X50359764Y717460D01*
X50598363Y670000D01*
X50841637Y670000D01*
X51080236Y717460D01*
X51304992Y810557D01*
X51507267Y945713D01*
X51679287Y1117733D01*
X51781029Y1270000D01*
X53034241Y1270000D01*
X53093388Y1181480D01*
X53251480Y1023388D01*
X53437376Y899176D01*
X53643933Y813617D01*
X53863212Y770000D01*
X54086788Y770000D01*
X54306067Y813617D01*
X54512624Y899176D01*
X54698520Y1023388D01*
X54856612Y1181480D01*
X54980824Y1367376D01*
X55066383Y1573933D01*
X55110000Y1793212D01*
X55110000Y2016788D01*
X55066383Y2236067D01*
X54980824Y2442624D01*
X54856612Y2628520D01*
X54698520Y2786612D01*
X54512624Y2910824D01*
X54306067Y2996383D01*
X54086788Y3040000D01*
X53863212Y3040000D01*
X53643933Y2996383D01*
X53437376Y2910824D01*
X53251480Y2786612D01*
X53093388Y2628520D01*
X53034241Y2540000D01*
X51781029Y2540000D01*
X51679287Y2692267D01*
X51507267Y2864287D01*
X51355000Y2966029D01*
X51355000Y3973134D01*
X51384992Y3985557D01*
X51587267Y4120713D01*
X51759287Y4292733D01*
X51894443Y4495008D01*
X51987540Y4719764D01*
X52035000Y4958363D01*
X52035000Y5201637D01*
X51987540Y5440236D01*
X51894443Y5664992D01*
X51759287Y5867267D01*
X51587267Y6039287D01*
X51435000Y6141029D01*
X51435000Y11638971D01*
X51587267Y11740713D01*
X51759287Y11912733D01*
X51894443Y12115008D01*
X51987540Y12339764D01*
X52035000Y12578363D01*
X52035000Y12821637D01*
X51987540Y13060236D01*
X51894443Y13284992D01*
X51759287Y13487267D01*
X51587267Y13659287D01*
X51384992Y13794443D01*
X51160236Y13887540D01*
X50921637Y13935000D01*
X50678363Y13935000D01*
X50439764Y13887540D01*
X50215008Y13794443D01*
X50012733Y13659287D01*
X49840713Y13487267D01*
X49705557Y13284992D01*
X49612460Y13060236D01*
X49565000Y12821637D01*
X49565000Y12578363D01*
X49612460Y12339764D01*
X49705557Y12115008D01*
X49840713Y11912733D01*
X50012733Y11740713D01*
X50165001Y11638971D01*
X50165001Y11599831D01*
X50165000Y11599821D01*
X50165001Y6141029D01*
X50012733Y6039287D01*
X49840713Y5867267D01*
X49738971Y5715000D01*
X49321029Y5715000D01*
X49219287Y5867267D01*
X49047267Y6039287D01*
X48844992Y6174443D01*
X48620236Y6267540D01*
X48381637Y6315000D01*
X48138363Y6315000D01*
X47899764Y6267540D01*
X47675008Y6174443D01*
X47472733Y6039287D01*
X47300713Y5867267D01*
X47165557Y5664992D01*
X47072460Y5440236D01*
X47025000Y5201637D01*
X46955000Y5201637D01*
X46907540Y5440236D01*
X46814443Y5664992D01*
X46679287Y5867267D01*
X46507267Y6039287D01*
X46304992Y6174443D01*
X46080236Y6267540D01*
X45841637Y6315000D01*
X45598363Y6315000D01*
X45359764Y6267540D01*
X45135008Y6174443D01*
X44932733Y6039287D01*
X44760713Y5867267D01*
X44625557Y5664992D01*
X44532460Y5440236D01*
X44485000Y5201637D01*
X44485000Y4958363D01*
X44520727Y4778751D01*
X42831798Y3089822D01*
X42825236Y3092540D01*
X42586637Y3140000D01*
X42343363Y3140000D01*
X42104764Y3092540D01*
X41880008Y2999443D01*
X41677733Y2864287D01*
X41505713Y2692267D01*
X41370557Y2489992D01*
X41277460Y2265236D01*
X41230000Y2026637D01*
X33035000Y2026637D01*
X33035000Y8245000D01*
X33051679Y8245000D01*
X33146442Y8254333D01*
X33148641Y8255000D01*
X34269793Y8255000D01*
X34288320Y8210273D01*
X34445363Y7975241D01*
X34645241Y7775363D01*
X34880273Y7618320D01*
X34925000Y7599793D01*
X34925001Y6215000D01*
X34813212Y6215000D01*
X34593933Y6171383D01*
X34387376Y6085824D01*
X34201480Y5961612D01*
X34043388Y5803520D01*
X33919176Y5617624D01*
X33833617Y5411067D01*
X33790000Y5191788D01*
X33790000Y4968212D01*
X33833617Y4748933D01*
X33919176Y4542376D01*
X34043388Y4356480D01*
X34201480Y4198388D01*
X34387376Y4074176D01*
X34593933Y3988617D01*
X34813212Y3945000D01*
X35036788Y3945000D01*
X35256067Y3988617D01*
X35462624Y4074176D01*
X35648520Y4198388D01*
X35806612Y4356480D01*
X35930824Y4542376D01*
X36016383Y4748933D01*
X36060000Y4968212D01*
X36060000Y5191788D01*
X41410000Y5191788D01*
X41410000Y4968212D01*
X41453617Y4748933D01*
X41539176Y4542376D01*
X41663388Y4356480D01*
X41821480Y4198388D01*
X42007376Y4074176D01*
X42213933Y3988617D01*
X42433212Y3945000D01*
X42656788Y3945000D01*
X42876067Y3988617D01*
X43082624Y4074176D01*
X43268520Y4198388D01*
X43426612Y4356480D01*
X43550824Y4542376D01*
X43636383Y4748933D01*
X43680000Y4968212D01*
X43680000Y5191788D01*
X43659230Y5296206D01*
X48686961Y10323935D01*
X48711185Y10343815D01*
X48731065Y10368039D01*
X48731069Y10368043D01*
X48790538Y10440506D01*
X48849502Y10550820D01*
X48885812Y10670518D01*
X48895000Y10763808D01*
X48895000Y10763811D01*
X48898072Y10795000D01*
X48895000Y10826189D01*
X48895000Y11638971D01*
X49047267Y11740713D01*
X49219287Y11912733D01*
X49354443Y12115008D01*
X49447540Y12339764D01*
X49495000Y12578363D01*
X49495000Y12821637D01*
X49447540Y13060236D01*
X49354443Y13284992D01*
X49219287Y13487267D01*
X49047267Y13659287D01*
X48844992Y13794443D01*
X48620236Y13887540D01*
X48381637Y13935000D01*
X48138363Y13935000D01*
X47899764Y13887540D01*
X47675008Y13794443D01*
X47472733Y13659287D01*
X47300713Y13487267D01*
X47165557Y13284992D01*
X47072460Y13060236D01*
X47025000Y12821637D01*
X47025000Y12578363D01*
X47072460Y12339764D01*
X47165557Y12115008D01*
X47300713Y11912733D01*
X47472733Y11740713D01*
X47625001Y11638971D01*
X47625001Y11058027D01*
X42761206Y6194230D01*
X42656788Y6215000D01*
X42433212Y6215000D01*
X42213933Y6171383D01*
X42007376Y6085824D01*
X41821480Y5961612D01*
X41663388Y5803520D01*
X41539176Y5617624D01*
X41453617Y5411067D01*
X41410000Y5191788D01*
X36060000Y5191788D01*
X36038945Y5297640D01*
X36090538Y5360506D01*
X36149502Y5470820D01*
X36154427Y5487057D01*
X36185812Y5590518D01*
X36195000Y5683808D01*
X36195000Y5683811D01*
X36198072Y5715000D01*
X36195000Y5746189D01*
X36195000Y7599793D01*
X36239727Y7618320D01*
X36474759Y7775363D01*
X36674637Y7975241D01*
X36831680Y8210273D01*
X36939853Y8471426D01*
X36995000Y8748665D01*
X36995000Y9031335D01*
X36939853Y9308574D01*
X36831680Y9569727D01*
X36674637Y9804759D01*
X36474759Y10004637D01*
X36239727Y10161680D01*
X35978574Y10269853D01*
X35701335Y10325000D01*
X35418665Y10325000D01*
X35141426Y10269853D01*
X34880273Y10161680D01*
X34645241Y10004637D01*
X34445363Y9804759D01*
X34288320Y9569727D01*
X34269793Y9525000D01*
X33148641Y9525000D01*
X33146442Y9525667D01*
X33051679Y9535000D01*
X33035000Y9535000D01*
X33035000Y14970000D01*
X34122896Y14970000D01*
X34122896Y12970000D01*
X34131295Y12884725D01*
X34156169Y12802728D01*
X34196561Y12727158D01*
X34250921Y12660921D01*
X34317158Y12606561D01*
X34392728Y12566169D01*
X34474725Y12541295D01*
X34560000Y12532896D01*
X36560000Y12532896D01*
X36645275Y12541295D01*
X36727272Y12566169D01*
X36802842Y12606561D01*
X36869079Y12660921D01*
X36923439Y12727158D01*
X36963831Y12802728D01*
X36969567Y12821637D01*
X44485000Y12821637D01*
X44485000Y12578363D01*
X44532460Y12339764D01*
X44625557Y12115008D01*
X44760713Y11912733D01*
X44932733Y11740713D01*
X45135008Y11605557D01*
X45359764Y11512460D01*
X45598363Y11465000D01*
X45841637Y11465000D01*
X46080236Y11512460D01*
X46304992Y11605557D01*
X46507267Y11740713D01*
X46679287Y11912733D01*
X46814443Y12115008D01*
X46907540Y12339764D01*
X46955000Y12578363D01*
X46955000Y12821637D01*
X46907540Y13060236D01*
X46814443Y13284992D01*
X46679287Y13487267D01*
X46507267Y13659287D01*
X46355000Y13761029D01*
X46355000Y13874943D01*
X46837051Y14356993D01*
X53931002Y14356993D01*
X54610001Y13677992D01*
X54610000Y6988071D01*
X54609999Y6988071D01*
X54578818Y6985000D01*
X54578808Y6985000D01*
X54485518Y6975812D01*
X54365820Y6939502D01*
X54255505Y6880537D01*
X54204373Y6838574D01*
X54158815Y6801185D01*
X54138930Y6776955D01*
X53641249Y6279273D01*
X53461637Y6315000D01*
X53218363Y6315000D01*
X52979764Y6267540D01*
X52755008Y6174443D01*
X52552733Y6039287D01*
X52380713Y5867267D01*
X52245557Y5664992D01*
X52152460Y5440236D01*
X52105000Y5201637D01*
X52105000Y4958363D01*
X52152460Y4719764D01*
X52245557Y4495008D01*
X52380713Y4292733D01*
X52552733Y4120713D01*
X52755008Y3985557D01*
X52979764Y3892460D01*
X53218363Y3845000D01*
X53461637Y3845000D01*
X53700236Y3892460D01*
X53924992Y3985557D01*
X54127267Y4120713D01*
X54299287Y4292733D01*
X54434443Y4495008D01*
X54527540Y4719764D01*
X54575000Y4958363D01*
X54575000Y5201637D01*
X54539273Y5381249D01*
X54873025Y5715000D01*
X54981976Y5715000D01*
X59218930Y1478045D01*
X59238815Y1453815D01*
X59263043Y1433932D01*
X59335505Y1374463D01*
X59373931Y1353924D01*
X59445820Y1315498D01*
X59565518Y1279188D01*
X59658808Y1270000D01*
X59658818Y1270000D01*
X59689999Y1266929D01*
X59721180Y1270000D01*
X60654241Y1270000D01*
X60713388Y1181480D01*
X60871480Y1023388D01*
X61057376Y899176D01*
X61263933Y813617D01*
X61483212Y770000D01*
X61706788Y770000D01*
X61926067Y813617D01*
X62132624Y899176D01*
X62318520Y1023388D01*
X62476612Y1181480D01*
X62535759Y1270000D01*
X63194241Y1270000D01*
X63253388Y1181480D01*
X63411480Y1023388D01*
X63597376Y899176D01*
X63803933Y813617D01*
X64023212Y770000D01*
X64246788Y770000D01*
X64466067Y813617D01*
X64672624Y899176D01*
X64858520Y1023388D01*
X65016612Y1181480D01*
X65075759Y1270000D01*
X65373819Y1270000D01*
X65405000Y1266929D01*
X65436181Y1270000D01*
X65436192Y1270000D01*
X65529482Y1279188D01*
X65649180Y1315498D01*
X65759494Y1374463D01*
X65856185Y1453815D01*
X65876074Y1478050D01*
X67101955Y2703930D01*
X67126185Y2723815D01*
X67177721Y2786612D01*
X67205537Y2820505D01*
X67264502Y2930820D01*
X67284390Y2996383D01*
X67300812Y3050518D01*
X67310000Y3143808D01*
X67310000Y3143818D01*
X67313071Y3174999D01*
X67310000Y3206180D01*
X67310000Y4018971D01*
X67462267Y4120713D01*
X67634287Y4292733D01*
X67769443Y4495008D01*
X67862540Y4719764D01*
X67910000Y4958363D01*
X67910000Y5201637D01*
X67874273Y5381249D01*
X68208025Y5715000D01*
X70346343Y5715000D01*
X70356099Y5615953D01*
X70395199Y5487057D01*
X70458694Y5368265D01*
X70544144Y5264144D01*
X70648265Y5178694D01*
X70767057Y5115199D01*
X70895953Y5076099D01*
X71030000Y5062896D01*
X72480000Y5062896D01*
X72614047Y5076099D01*
X72742943Y5115199D01*
X72861735Y5178694D01*
X72965856Y5264144D01*
X73015001Y5324027D01*
X73015001Y4077169D01*
X71959409Y3021577D01*
X71866788Y3040000D01*
X71643212Y3040000D01*
X71423933Y2996383D01*
X71217376Y2910824D01*
X71031480Y2786612D01*
X70873388Y2628520D01*
X70749176Y2442624D01*
X70663617Y2236067D01*
X70620000Y2016788D01*
X70620000Y1793212D01*
X70663617Y1573933D01*
X70749176Y1367376D01*
X70873388Y1181480D01*
X71031480Y1023388D01*
X71217376Y899176D01*
X71423933Y813617D01*
X71643212Y770000D01*
X71866788Y770000D01*
X72086067Y813617D01*
X72292624Y899176D01*
X72478520Y1023388D01*
X72636612Y1181480D01*
X72760824Y1367376D01*
X72846383Y1573933D01*
X72890000Y1793212D01*
X72890000Y2016788D01*
X72871577Y2109409D01*
X74093686Y3331518D01*
X74118290Y3351710D01*
X74138484Y3376316D01*
X74198892Y3449923D01*
X74258785Y3561975D01*
X74295667Y3683558D01*
X74305000Y3778321D01*
X74305000Y3778324D01*
X74308120Y3810000D01*
X74305000Y3841676D01*
X74305000Y8308331D01*
X74308119Y8340000D01*
X74305000Y8371669D01*
X74305000Y8371679D01*
X74295667Y8466442D01*
X74258785Y8588025D01*
X74198893Y8700075D01*
X74198892Y8700077D01*
X74138484Y8773684D01*
X74138482Y8773686D01*
X74118290Y8798290D01*
X74093687Y8818481D01*
X73628486Y9283681D01*
X73608290Y9308290D01*
X73510076Y9388892D01*
X73398025Y9448785D01*
X73276442Y9485667D01*
X73181679Y9495000D01*
X73181669Y9495000D01*
X73150000Y9498119D01*
X73118331Y9495000D01*
X72992286Y9495000D01*
X72953608Y9567362D01*
X72793028Y9763028D01*
X72597362Y9923608D01*
X72374127Y10042929D01*
X72131904Y10116407D01*
X71943123Y10135000D01*
X71566877Y10135000D01*
X71378096Y10116407D01*
X71135873Y10042929D01*
X70912638Y9923608D01*
X70716972Y9763028D01*
X70556392Y9567362D01*
X70512369Y9485000D01*
X66031180Y9485000D01*
X65999999Y9488071D01*
X65968818Y9485000D01*
X65968808Y9485000D01*
X65875518Y9475812D01*
X65755820Y9439502D01*
X65720340Y9420537D01*
X65645505Y9380537D01*
X65606213Y9348290D01*
X65548815Y9301185D01*
X65528930Y9276955D01*
X63708050Y7456074D01*
X63683815Y7436185D01*
X63604463Y7339493D01*
X63545498Y7229179D01*
X63509188Y7109481D01*
X63500000Y7016191D01*
X63500000Y7016181D01*
X63496929Y6985000D01*
X63500000Y6953819D01*
X63500000Y6141029D01*
X63347733Y6039287D01*
X63175713Y5867267D01*
X63040557Y5664992D01*
X62947460Y5440236D01*
X62900000Y5201637D01*
X62900000Y4958363D01*
X62947460Y4719764D01*
X63040557Y4495008D01*
X63175713Y4292733D01*
X63347733Y4120713D01*
X63550008Y3985557D01*
X63774764Y3892460D01*
X64013363Y3845000D01*
X64256637Y3845000D01*
X64495236Y3892460D01*
X64719992Y3985557D01*
X64922267Y4120713D01*
X65094287Y4292733D01*
X65229443Y4495008D01*
X65322540Y4719764D01*
X65370000Y4958363D01*
X65370000Y5201637D01*
X65322540Y5440236D01*
X65229443Y5664992D01*
X65094287Y5867267D01*
X64922267Y6039287D01*
X64770000Y6141029D01*
X64770000Y6721976D01*
X66263025Y8215000D01*
X70512369Y8215000D01*
X70556392Y8132638D01*
X70716972Y7936972D01*
X70912638Y7776392D01*
X71135873Y7657071D01*
X71201695Y7637104D01*
X71030000Y7637104D01*
X70895953Y7623901D01*
X70767057Y7584801D01*
X70648265Y7521306D01*
X70544144Y7435856D01*
X70458694Y7331735D01*
X70395199Y7212943D01*
X70356099Y7084047D01*
X70346343Y6985000D01*
X67976180Y6985000D01*
X67944999Y6988071D01*
X67913818Y6985000D01*
X67913808Y6985000D01*
X67820518Y6975812D01*
X67700820Y6939502D01*
X67590505Y6880537D01*
X67539373Y6838574D01*
X67493815Y6801185D01*
X67473930Y6776955D01*
X66976249Y6279273D01*
X66796637Y6315000D01*
X66553363Y6315000D01*
X66314764Y6267540D01*
X66090008Y6174443D01*
X65887733Y6039287D01*
X65715713Y5867267D01*
X65580557Y5664992D01*
X65487460Y5440236D01*
X65440000Y5201637D01*
X65440000Y4958363D01*
X65487460Y4719764D01*
X65580557Y4495008D01*
X65715713Y4292733D01*
X65887733Y4120713D01*
X66040001Y4018971D01*
X66040001Y3438026D01*
X65141976Y2540000D01*
X65075759Y2540000D01*
X65016612Y2628520D01*
X64858520Y2786612D01*
X64672624Y2910824D01*
X64466067Y2996383D01*
X64246788Y3040000D01*
X64023212Y3040000D01*
X63803933Y2996383D01*
X63597376Y2910824D01*
X63411480Y2786612D01*
X63253388Y2628520D01*
X63194241Y2540000D01*
X62535759Y2540000D01*
X62476612Y2628520D01*
X62318520Y2786612D01*
X62132624Y2910824D01*
X61926067Y2996383D01*
X61706788Y3040000D01*
X61483212Y3040000D01*
X61263933Y2996383D01*
X61057376Y2910824D01*
X60871480Y2786612D01*
X60713388Y2628520D01*
X60654241Y2540000D01*
X59953025Y2540000D01*
X58533956Y3959069D01*
X58694764Y3892460D01*
X58933363Y3845000D01*
X59176637Y3845000D01*
X59415236Y3892460D01*
X59639992Y3985557D01*
X59842267Y4120713D01*
X60014287Y4292733D01*
X60149443Y4495008D01*
X60242540Y4719764D01*
X60290000Y4958363D01*
X60290000Y5201637D01*
X60360000Y5201637D01*
X60360000Y4958363D01*
X60407460Y4719764D01*
X60500557Y4495008D01*
X60635713Y4292733D01*
X60807733Y4120713D01*
X61010008Y3985557D01*
X61234764Y3892460D01*
X61473363Y3845000D01*
X61716637Y3845000D01*
X61955236Y3892460D01*
X62179992Y3985557D01*
X62382267Y4120713D01*
X62554287Y4292733D01*
X62689443Y4495008D01*
X62782540Y4719764D01*
X62830000Y4958363D01*
X62830000Y5201637D01*
X62782540Y5440236D01*
X62689443Y5664992D01*
X62554287Y5867267D01*
X62382267Y6039287D01*
X62179992Y6174443D01*
X61955236Y6267540D01*
X61716637Y6315000D01*
X61473363Y6315000D01*
X61234764Y6267540D01*
X61010008Y6174443D01*
X60807733Y6039287D01*
X60635713Y5867267D01*
X60500557Y5664992D01*
X60407460Y5440236D01*
X60360000Y5201637D01*
X60290000Y5201637D01*
X60242540Y5440236D01*
X60149443Y5664992D01*
X60014287Y5867267D01*
X59842267Y6039287D01*
X59639992Y6174443D01*
X59415236Y6267540D01*
X59176637Y6315000D01*
X58933363Y6315000D01*
X58694764Y6267540D01*
X58470008Y6174443D01*
X58267733Y6039287D01*
X58095713Y5867267D01*
X57960557Y5664992D01*
X57867460Y5440236D01*
X57820000Y5201637D01*
X57820000Y4958363D01*
X57867460Y4719764D01*
X57934069Y4558955D01*
X55880000Y6613024D01*
X55880000Y13909830D01*
X55883072Y13941019D01*
X55880000Y13972211D01*
X55870812Y14065501D01*
X55834502Y14185199D01*
X55775538Y14295513D01*
X55716069Y14367976D01*
X55716065Y14367980D01*
X55696185Y14392204D01*
X55671960Y14412085D01*
X54665100Y15418943D01*
X54645211Y15443178D01*
X54548520Y15522530D01*
X54438206Y15581495D01*
X54318508Y15617805D01*
X54225218Y15626993D01*
X54225207Y15626993D01*
X54194026Y15630064D01*
X54162845Y15626993D01*
X46605206Y15626993D01*
X46574025Y15630064D01*
X46542844Y15626993D01*
X46542834Y15626993D01*
X46449544Y15617805D01*
X46329846Y15581495D01*
X46219532Y15522530D01*
X46122841Y15443178D01*
X46102956Y15418948D01*
X45293050Y14609041D01*
X45268815Y14589152D01*
X45189463Y14492460D01*
X45130498Y14382146D01*
X45094188Y14262448D01*
X45085000Y14169158D01*
X45085000Y14169148D01*
X45081929Y14137967D01*
X45085000Y14106785D01*
X45085000Y13761029D01*
X44932733Y13659287D01*
X44760713Y13487267D01*
X44625557Y13284992D01*
X44532460Y13060236D01*
X44485000Y12821637D01*
X36969567Y12821637D01*
X36988705Y12884725D01*
X36997104Y12970000D01*
X36997104Y14970000D01*
X36988705Y15055275D01*
X36963831Y15137272D01*
X36923439Y15212842D01*
X36869079Y15279079D01*
X36802842Y15333439D01*
X36727272Y15373831D01*
X36645275Y15398705D01*
X36560000Y15407104D01*
X36495129Y15407104D01*
X36963026Y15875000D01*
X37794241Y15875000D01*
X37853388Y15786480D01*
X38011480Y15628388D01*
X38197376Y15504176D01*
X38403933Y15418617D01*
X38623212Y15375000D01*
X38846788Y15375000D01*
X39066067Y15418617D01*
X39272624Y15504176D01*
X39458520Y15628388D01*
X39616612Y15786480D01*
X39675759Y15875000D01*
X40168134Y15875000D01*
X40180557Y15845008D01*
X40315713Y15642733D01*
X40487733Y15470713D01*
X40690008Y15335557D01*
X40914764Y15242460D01*
X41153363Y15195000D01*
X41396637Y15195000D01*
X41635236Y15242460D01*
X41859992Y15335557D01*
X42062267Y15470713D01*
X42234287Y15642733D01*
X42369443Y15845008D01*
X42381866Y15875000D01*
X60061976Y15875000D01*
X62935727Y13001248D01*
X62900000Y12821637D01*
X62900000Y12578363D01*
X62947460Y12339764D01*
X63040557Y12115008D01*
X63175713Y11912733D01*
X63347733Y11740713D01*
X63550008Y11605557D01*
X63774764Y11512460D01*
X64013363Y11465000D01*
X64256637Y11465000D01*
X64495236Y11512460D01*
X64719992Y11605557D01*
X64922267Y11740713D01*
X65094287Y11912733D01*
X65229443Y12115008D01*
X65322540Y12339764D01*
X65370000Y12578363D01*
X65370000Y12821637D01*
X65322540Y13060236D01*
X65229443Y13284992D01*
X65094287Y13487267D01*
X65081554Y13500000D01*
X65437896Y13500000D01*
X65437896Y11900000D01*
X65446295Y11814725D01*
X65471169Y11732728D01*
X65511561Y11657158D01*
X65565921Y11590921D01*
X65632158Y11536561D01*
X65707728Y11496169D01*
X65789725Y11471295D01*
X65875000Y11462896D01*
X67475000Y11462896D01*
X67560275Y11471295D01*
X67642272Y11496169D01*
X67717842Y11536561D01*
X67784079Y11590921D01*
X67838439Y11657158D01*
X67878831Y11732728D01*
X67903705Y11814725D01*
X67912104Y11900000D01*
X67912104Y13500000D01*
X67903705Y13585275D01*
X67878831Y13667272D01*
X67838439Y13742842D01*
X67784079Y13809079D01*
X67717842Y13863439D01*
X67642272Y13903831D01*
X67560275Y13928705D01*
X67475000Y13937104D01*
X65875000Y13937104D01*
X65789725Y13928705D01*
X65707728Y13903831D01*
X65632158Y13863439D01*
X65565921Y13809079D01*
X65511561Y13742842D01*
X65471169Y13667272D01*
X65446295Y13585275D01*
X65437896Y13500000D01*
X65081554Y13500000D01*
X64922267Y13659287D01*
X64719992Y13794443D01*
X64495236Y13887540D01*
X64256637Y13935000D01*
X64013363Y13935000D01*
X63833752Y13899273D01*
X60796074Y16936950D01*
X60776185Y16961185D01*
X60679494Y17040537D01*
X60569180Y17099502D01*
X60449482Y17135812D01*
X60356192Y17145000D01*
X60356181Y17145000D01*
X60325000Y17148071D01*
X60293819Y17145000D01*
X42282574Y17145000D01*
X42234287Y17217267D01*
X42062267Y17389287D01*
X41859992Y17524443D01*
X41635236Y17617540D01*
X41396637Y17665000D01*
X41153363Y17665000D01*
X40914764Y17617540D01*
X40690008Y17524443D01*
X40487733Y17389287D01*
X40315713Y17217267D01*
X40267426Y17145000D01*
X39675759Y17145000D01*
X39616612Y17233520D01*
X39458520Y17391612D01*
X39272624Y17515824D01*
X39066067Y17601383D01*
X38846788Y17645000D01*
X38623212Y17645000D01*
X38403933Y17601383D01*
X38197376Y17515824D01*
X38011480Y17391612D01*
X37853388Y17233520D01*
X37794241Y17145000D01*
X36731180Y17145000D01*
X36699999Y17148071D01*
X36668818Y17145000D01*
X36668808Y17145000D01*
X36575518Y17135812D01*
X36455820Y17099502D01*
X36383931Y17061076D01*
X36345505Y17040537D01*
X36273042Y16981068D01*
X36273039Y16981065D01*
X36248815Y16961185D01*
X36228934Y16936960D01*
X35133045Y15841070D01*
X35108816Y15821185D01*
X35060612Y15762448D01*
X35029463Y15724493D01*
X34970498Y15614179D01*
X34934189Y15494481D01*
X34925583Y15407104D01*
X34560000Y15407104D01*
X34474725Y15398705D01*
X34392728Y15373831D01*
X34317158Y15333439D01*
X34250921Y15279079D01*
X34196561Y15212842D01*
X34156169Y15137272D01*
X34131295Y15055275D01*
X34122896Y14970000D01*
X33035000Y14970000D01*
X33035000Y17779462D01*
X33210538Y17955000D01*
X74317590Y17955000D01*
X74385176Y17961657D01*
X74470001Y17987388D01*
X74470000Y427612D01*
G37*
X74470000Y427612D02*
X74385176Y453343D01*
X74317590Y460000D01*
X33210538Y460000D01*
X33035000Y635538D01*
X33035000Y2026637D01*
X41230000Y2026637D01*
X41230000Y1783363D01*
X41277460Y1544764D01*
X41370557Y1320008D01*
X41505713Y1117733D01*
X41677733Y945713D01*
X41880008Y810557D01*
X42104764Y717460D01*
X42343363Y670000D01*
X42586637Y670000D01*
X42825236Y717460D01*
X43049992Y810557D01*
X43252267Y945713D01*
X43424287Y1117733D01*
X43559443Y1320008D01*
X43652540Y1544764D01*
X43700000Y1783363D01*
X43700000Y2026637D01*
X43677546Y2139522D01*
X45418751Y3880727D01*
X45598363Y3845000D01*
X45841637Y3845000D01*
X46080236Y3892460D01*
X46304992Y3985557D01*
X46507267Y4120713D01*
X46679287Y4292733D01*
X46814443Y4495008D01*
X46907540Y4719764D01*
X46955000Y4958363D01*
X46955000Y5201637D01*
X47025000Y5201637D01*
X47025000Y4958363D01*
X47072460Y4719764D01*
X47165557Y4495008D01*
X47300713Y4292733D01*
X47472733Y4120713D01*
X47675008Y3985557D01*
X47899764Y3892460D01*
X48138363Y3845000D01*
X48381637Y3845000D01*
X48620236Y3892460D01*
X48844992Y3985557D01*
X49047267Y4120713D01*
X49219287Y4292733D01*
X49321029Y4445000D01*
X49738971Y4445000D01*
X49840713Y4292733D01*
X50012733Y4120713D01*
X50085001Y4072425D01*
X50085000Y2966029D01*
X49932733Y2864287D01*
X49760713Y2692267D01*
X49625557Y2489992D01*
X49532460Y2265236D01*
X49485000Y2026637D01*
X49485000Y1783363D01*
X49532460Y1544764D01*
X49625557Y1320008D01*
X49760713Y1117733D01*
X49932733Y945713D01*
X50135008Y810557D01*
X50359764Y717460D01*
X50598363Y670000D01*
X50841637Y670000D01*
X51080236Y717460D01*
X51304992Y810557D01*
X51507267Y945713D01*
X51679287Y1117733D01*
X51781029Y1270000D01*
X53034241Y1270000D01*
X53093388Y1181480D01*
X53251480Y1023388D01*
X53437376Y899176D01*
X53643933Y813617D01*
X53863212Y770000D01*
X54086788Y770000D01*
X54306067Y813617D01*
X54512624Y899176D01*
X54698520Y1023388D01*
X54856612Y1181480D01*
X54980824Y1367376D01*
X55066383Y1573933D01*
X55110000Y1793212D01*
X55110000Y2016788D01*
X55066383Y2236067D01*
X54980824Y2442624D01*
X54856612Y2628520D01*
X54698520Y2786612D01*
X54512624Y2910824D01*
X54306067Y2996383D01*
X54086788Y3040000D01*
X53863212Y3040000D01*
X53643933Y2996383D01*
X53437376Y2910824D01*
X53251480Y2786612D01*
X53093388Y2628520D01*
X53034241Y2540000D01*
X51781029Y2540000D01*
X51679287Y2692267D01*
X51507267Y2864287D01*
X51355000Y2966029D01*
X51355000Y3973134D01*
X51384992Y3985557D01*
X51587267Y4120713D01*
X51759287Y4292733D01*
X51894443Y4495008D01*
X51987540Y4719764D01*
X52035000Y4958363D01*
X52035000Y5201637D01*
X51987540Y5440236D01*
X51894443Y5664992D01*
X51759287Y5867267D01*
X51587267Y6039287D01*
X51435000Y6141029D01*
X51435000Y11638971D01*
X51587267Y11740713D01*
X51759287Y11912733D01*
X51894443Y12115008D01*
X51987540Y12339764D01*
X52035000Y12578363D01*
X52035000Y12821637D01*
X51987540Y13060236D01*
X51894443Y13284992D01*
X51759287Y13487267D01*
X51587267Y13659287D01*
X51384992Y13794443D01*
X51160236Y13887540D01*
X50921637Y13935000D01*
X50678363Y13935000D01*
X50439764Y13887540D01*
X50215008Y13794443D01*
X50012733Y13659287D01*
X49840713Y13487267D01*
X49705557Y13284992D01*
X49612460Y13060236D01*
X49565000Y12821637D01*
X49565000Y12578363D01*
X49612460Y12339764D01*
X49705557Y12115008D01*
X49840713Y11912733D01*
X50012733Y11740713D01*
X50165001Y11638971D01*
X50165001Y11599831D01*
X50165000Y11599821D01*
X50165001Y6141029D01*
X50012733Y6039287D01*
X49840713Y5867267D01*
X49738971Y5715000D01*
X49321029Y5715000D01*
X49219287Y5867267D01*
X49047267Y6039287D01*
X48844992Y6174443D01*
X48620236Y6267540D01*
X48381637Y6315000D01*
X48138363Y6315000D01*
X47899764Y6267540D01*
X47675008Y6174443D01*
X47472733Y6039287D01*
X47300713Y5867267D01*
X47165557Y5664992D01*
X47072460Y5440236D01*
X47025000Y5201637D01*
X46955000Y5201637D01*
X46907540Y5440236D01*
X46814443Y5664992D01*
X46679287Y5867267D01*
X46507267Y6039287D01*
X46304992Y6174443D01*
X46080236Y6267540D01*
X45841637Y6315000D01*
X45598363Y6315000D01*
X45359764Y6267540D01*
X45135008Y6174443D01*
X44932733Y6039287D01*
X44760713Y5867267D01*
X44625557Y5664992D01*
X44532460Y5440236D01*
X44485000Y5201637D01*
X44485000Y4958363D01*
X44520727Y4778751D01*
X42831798Y3089822D01*
X42825236Y3092540D01*
X42586637Y3140000D01*
X42343363Y3140000D01*
X42104764Y3092540D01*
X41880008Y2999443D01*
X41677733Y2864287D01*
X41505713Y2692267D01*
X41370557Y2489992D01*
X41277460Y2265236D01*
X41230000Y2026637D01*
X33035000Y2026637D01*
X33035000Y8245000D01*
X33051679Y8245000D01*
X33146442Y8254333D01*
X33148641Y8255000D01*
X34269793Y8255000D01*
X34288320Y8210273D01*
X34445363Y7975241D01*
X34645241Y7775363D01*
X34880273Y7618320D01*
X34925000Y7599793D01*
X34925001Y6215000D01*
X34813212Y6215000D01*
X34593933Y6171383D01*
X34387376Y6085824D01*
X34201480Y5961612D01*
X34043388Y5803520D01*
X33919176Y5617624D01*
X33833617Y5411067D01*
X33790000Y5191788D01*
X33790000Y4968212D01*
X33833617Y4748933D01*
X33919176Y4542376D01*
X34043388Y4356480D01*
X34201480Y4198388D01*
X34387376Y4074176D01*
X34593933Y3988617D01*
X34813212Y3945000D01*
X35036788Y3945000D01*
X35256067Y3988617D01*
X35462624Y4074176D01*
X35648520Y4198388D01*
X35806612Y4356480D01*
X35930824Y4542376D01*
X36016383Y4748933D01*
X36060000Y4968212D01*
X36060000Y5191788D01*
X41410000Y5191788D01*
X41410000Y4968212D01*
X41453617Y4748933D01*
X41539176Y4542376D01*
X41663388Y4356480D01*
X41821480Y4198388D01*
X42007376Y4074176D01*
X42213933Y3988617D01*
X42433212Y3945000D01*
X42656788Y3945000D01*
X42876067Y3988617D01*
X43082624Y4074176D01*
X43268520Y4198388D01*
X43426612Y4356480D01*
X43550824Y4542376D01*
X43636383Y4748933D01*
X43680000Y4968212D01*
X43680000Y5191788D01*
X43659230Y5296206D01*
X48686961Y10323935D01*
X48711185Y10343815D01*
X48731065Y10368039D01*
X48731069Y10368043D01*
X48790538Y10440506D01*
X48849502Y10550820D01*
X48885812Y10670518D01*
X48895000Y10763808D01*
X48895000Y10763811D01*
X48898072Y10795000D01*
X48895000Y10826189D01*
X48895000Y11638971D01*
X49047267Y11740713D01*
X49219287Y11912733D01*
X49354443Y12115008D01*
X49447540Y12339764D01*
X49495000Y12578363D01*
X49495000Y12821637D01*
X49447540Y13060236D01*
X49354443Y13284992D01*
X49219287Y13487267D01*
X49047267Y13659287D01*
X48844992Y13794443D01*
X48620236Y13887540D01*
X48381637Y13935000D01*
X48138363Y13935000D01*
X47899764Y13887540D01*
X47675008Y13794443D01*
X47472733Y13659287D01*
X47300713Y13487267D01*
X47165557Y13284992D01*
X47072460Y13060236D01*
X47025000Y12821637D01*
X47025000Y12578363D01*
X47072460Y12339764D01*
X47165557Y12115008D01*
X47300713Y11912733D01*
X47472733Y11740713D01*
X47625001Y11638971D01*
X47625001Y11058027D01*
X42761206Y6194230D01*
X42656788Y6215000D01*
X42433212Y6215000D01*
X42213933Y6171383D01*
X42007376Y6085824D01*
X41821480Y5961612D01*
X41663388Y5803520D01*
X41539176Y5617624D01*
X41453617Y5411067D01*
X41410000Y5191788D01*
X36060000Y5191788D01*
X36038945Y5297640D01*
X36090538Y5360506D01*
X36149502Y5470820D01*
X36154427Y5487057D01*
X36185812Y5590518D01*
X36195000Y5683808D01*
X36195000Y5683811D01*
X36198072Y5715000D01*
X36195000Y5746189D01*
X36195000Y7599793D01*
X36239727Y7618320D01*
X36474759Y7775363D01*
X36674637Y7975241D01*
X36831680Y8210273D01*
X36939853Y8471426D01*
X36995000Y8748665D01*
X36995000Y9031335D01*
X36939853Y9308574D01*
X36831680Y9569727D01*
X36674637Y9804759D01*
X36474759Y10004637D01*
X36239727Y10161680D01*
X35978574Y10269853D01*
X35701335Y10325000D01*
X35418665Y10325000D01*
X35141426Y10269853D01*
X34880273Y10161680D01*
X34645241Y10004637D01*
X34445363Y9804759D01*
X34288320Y9569727D01*
X34269793Y9525000D01*
X33148641Y9525000D01*
X33146442Y9525667D01*
X33051679Y9535000D01*
X33035000Y9535000D01*
X33035000Y14970000D01*
X34122896Y14970000D01*
X34122896Y12970000D01*
X34131295Y12884725D01*
X34156169Y12802728D01*
X34196561Y12727158D01*
X34250921Y12660921D01*
X34317158Y12606561D01*
X34392728Y12566169D01*
X34474725Y12541295D01*
X34560000Y12532896D01*
X36560000Y12532896D01*
X36645275Y12541295D01*
X36727272Y12566169D01*
X36802842Y12606561D01*
X36869079Y12660921D01*
X36923439Y12727158D01*
X36963831Y12802728D01*
X36969567Y12821637D01*
X44485000Y12821637D01*
X44485000Y12578363D01*
X44532460Y12339764D01*
X44625557Y12115008D01*
X44760713Y11912733D01*
X44932733Y11740713D01*
X45135008Y11605557D01*
X45359764Y11512460D01*
X45598363Y11465000D01*
X45841637Y11465000D01*
X46080236Y11512460D01*
X46304992Y11605557D01*
X46507267Y11740713D01*
X46679287Y11912733D01*
X46814443Y12115008D01*
X46907540Y12339764D01*
X46955000Y12578363D01*
X46955000Y12821637D01*
X46907540Y13060236D01*
X46814443Y13284992D01*
X46679287Y13487267D01*
X46507267Y13659287D01*
X46355000Y13761029D01*
X46355000Y13874943D01*
X46837051Y14356993D01*
X53931002Y14356993D01*
X54610001Y13677992D01*
X54610000Y6988071D01*
X54609999Y6988071D01*
X54578818Y6985000D01*
X54578808Y6985000D01*
X54485518Y6975812D01*
X54365820Y6939502D01*
X54255505Y6880537D01*
X54204373Y6838574D01*
X54158815Y6801185D01*
X54138930Y6776955D01*
X53641249Y6279273D01*
X53461637Y6315000D01*
X53218363Y6315000D01*
X52979764Y6267540D01*
X52755008Y6174443D01*
X52552733Y6039287D01*
X52380713Y5867267D01*
X52245557Y5664992D01*
X52152460Y5440236D01*
X52105000Y5201637D01*
X52105000Y4958363D01*
X52152460Y4719764D01*
X52245557Y4495008D01*
X52380713Y4292733D01*
X52552733Y4120713D01*
X52755008Y3985557D01*
X52979764Y3892460D01*
X53218363Y3845000D01*
X53461637Y3845000D01*
X53700236Y3892460D01*
X53924992Y3985557D01*
X54127267Y4120713D01*
X54299287Y4292733D01*
X54434443Y4495008D01*
X54527540Y4719764D01*
X54575000Y4958363D01*
X54575000Y5201637D01*
X54539273Y5381249D01*
X54873025Y5715000D01*
X54981976Y5715000D01*
X59218930Y1478045D01*
X59238815Y1453815D01*
X59263043Y1433932D01*
X59335505Y1374463D01*
X59373931Y1353924D01*
X59445820Y1315498D01*
X59565518Y1279188D01*
X59658808Y1270000D01*
X59658818Y1270000D01*
X59689999Y1266929D01*
X59721180Y1270000D01*
X60654241Y1270000D01*
X60713388Y1181480D01*
X60871480Y1023388D01*
X61057376Y899176D01*
X61263933Y813617D01*
X61483212Y770000D01*
X61706788Y770000D01*
X61926067Y813617D01*
X62132624Y899176D01*
X62318520Y1023388D01*
X62476612Y1181480D01*
X62535759Y1270000D01*
X63194241Y1270000D01*
X63253388Y1181480D01*
X63411480Y1023388D01*
X63597376Y899176D01*
X63803933Y813617D01*
X64023212Y770000D01*
X64246788Y770000D01*
X64466067Y813617D01*
X64672624Y899176D01*
X64858520Y1023388D01*
X65016612Y1181480D01*
X65075759Y1270000D01*
X65373819Y1270000D01*
X65405000Y1266929D01*
X65436181Y1270000D01*
X65436192Y1270000D01*
X65529482Y1279188D01*
X65649180Y1315498D01*
X65759494Y1374463D01*
X65856185Y1453815D01*
X65876074Y1478050D01*
X67101955Y2703930D01*
X67126185Y2723815D01*
X67177721Y2786612D01*
X67205537Y2820505D01*
X67264502Y2930820D01*
X67284390Y2996383D01*
X67300812Y3050518D01*
X67310000Y3143808D01*
X67310000Y3143818D01*
X67313071Y3174999D01*
X67310000Y3206180D01*
X67310000Y4018971D01*
X67462267Y4120713D01*
X67634287Y4292733D01*
X67769443Y4495008D01*
X67862540Y4719764D01*
X67910000Y4958363D01*
X67910000Y5201637D01*
X67874273Y5381249D01*
X68208025Y5715000D01*
X70346343Y5715000D01*
X70356099Y5615953D01*
X70395199Y5487057D01*
X70458694Y5368265D01*
X70544144Y5264144D01*
X70648265Y5178694D01*
X70767057Y5115199D01*
X70895953Y5076099D01*
X71030000Y5062896D01*
X72480000Y5062896D01*
X72614047Y5076099D01*
X72742943Y5115199D01*
X72861735Y5178694D01*
X72965856Y5264144D01*
X73015001Y5324027D01*
X73015001Y4077169D01*
X71959409Y3021577D01*
X71866788Y3040000D01*
X71643212Y3040000D01*
X71423933Y2996383D01*
X71217376Y2910824D01*
X71031480Y2786612D01*
X70873388Y2628520D01*
X70749176Y2442624D01*
X70663617Y2236067D01*
X70620000Y2016788D01*
X70620000Y1793212D01*
X70663617Y1573933D01*
X70749176Y1367376D01*
X70873388Y1181480D01*
X71031480Y1023388D01*
X71217376Y899176D01*
X71423933Y813617D01*
X71643212Y770000D01*
X71866788Y770000D01*
X72086067Y813617D01*
X72292624Y899176D01*
X72478520Y1023388D01*
X72636612Y1181480D01*
X72760824Y1367376D01*
X72846383Y1573933D01*
X72890000Y1793212D01*
X72890000Y2016788D01*
X72871577Y2109409D01*
X74093686Y3331518D01*
X74118290Y3351710D01*
X74138484Y3376316D01*
X74198892Y3449923D01*
X74258785Y3561975D01*
X74295667Y3683558D01*
X74305000Y3778321D01*
X74305000Y3778324D01*
X74308120Y3810000D01*
X74305000Y3841676D01*
X74305000Y8308331D01*
X74308119Y8340000D01*
X74305000Y8371669D01*
X74305000Y8371679D01*
X74295667Y8466442D01*
X74258785Y8588025D01*
X74198893Y8700075D01*
X74198892Y8700077D01*
X74138484Y8773684D01*
X74138482Y8773686D01*
X74118290Y8798290D01*
X74093687Y8818481D01*
X73628486Y9283681D01*
X73608290Y9308290D01*
X73510076Y9388892D01*
X73398025Y9448785D01*
X73276442Y9485667D01*
X73181679Y9495000D01*
X73181669Y9495000D01*
X73150000Y9498119D01*
X73118331Y9495000D01*
X72992286Y9495000D01*
X72953608Y9567362D01*
X72793028Y9763028D01*
X72597362Y9923608D01*
X72374127Y10042929D01*
X72131904Y10116407D01*
X71943123Y10135000D01*
X71566877Y10135000D01*
X71378096Y10116407D01*
X71135873Y10042929D01*
X70912638Y9923608D01*
X70716972Y9763028D01*
X70556392Y9567362D01*
X70512369Y9485000D01*
X66031180Y9485000D01*
X65999999Y9488071D01*
X65968818Y9485000D01*
X65968808Y9485000D01*
X65875518Y9475812D01*
X65755820Y9439502D01*
X65720340Y9420537D01*
X65645505Y9380537D01*
X65606213Y9348290D01*
X65548815Y9301185D01*
X65528930Y9276955D01*
X63708050Y7456074D01*
X63683815Y7436185D01*
X63604463Y7339493D01*
X63545498Y7229179D01*
X63509188Y7109481D01*
X63500000Y7016191D01*
X63500000Y7016181D01*
X63496929Y6985000D01*
X63500000Y6953819D01*
X63500000Y6141029D01*
X63347733Y6039287D01*
X63175713Y5867267D01*
X63040557Y5664992D01*
X62947460Y5440236D01*
X62900000Y5201637D01*
X62900000Y4958363D01*
X62947460Y4719764D01*
X63040557Y4495008D01*
X63175713Y4292733D01*
X63347733Y4120713D01*
X63550008Y3985557D01*
X63774764Y3892460D01*
X64013363Y3845000D01*
X64256637Y3845000D01*
X64495236Y3892460D01*
X64719992Y3985557D01*
X64922267Y4120713D01*
X65094287Y4292733D01*
X65229443Y4495008D01*
X65322540Y4719764D01*
X65370000Y4958363D01*
X65370000Y5201637D01*
X65322540Y5440236D01*
X65229443Y5664992D01*
X65094287Y5867267D01*
X64922267Y6039287D01*
X64770000Y6141029D01*
X64770000Y6721976D01*
X66263025Y8215000D01*
X70512369Y8215000D01*
X70556392Y8132638D01*
X70716972Y7936972D01*
X70912638Y7776392D01*
X71135873Y7657071D01*
X71201695Y7637104D01*
X71030000Y7637104D01*
X70895953Y7623901D01*
X70767057Y7584801D01*
X70648265Y7521306D01*
X70544144Y7435856D01*
X70458694Y7331735D01*
X70395199Y7212943D01*
X70356099Y7084047D01*
X70346343Y6985000D01*
X67976180Y6985000D01*
X67944999Y6988071D01*
X67913818Y6985000D01*
X67913808Y6985000D01*
X67820518Y6975812D01*
X67700820Y6939502D01*
X67590505Y6880537D01*
X67539373Y6838574D01*
X67493815Y6801185D01*
X67473930Y6776955D01*
X66976249Y6279273D01*
X66796637Y6315000D01*
X66553363Y6315000D01*
X66314764Y6267540D01*
X66090008Y6174443D01*
X65887733Y6039287D01*
X65715713Y5867267D01*
X65580557Y5664992D01*
X65487460Y5440236D01*
X65440000Y5201637D01*
X65440000Y4958363D01*
X65487460Y4719764D01*
X65580557Y4495008D01*
X65715713Y4292733D01*
X65887733Y4120713D01*
X66040001Y4018971D01*
X66040001Y3438026D01*
X65141976Y2540000D01*
X65075759Y2540000D01*
X65016612Y2628520D01*
X64858520Y2786612D01*
X64672624Y2910824D01*
X64466067Y2996383D01*
X64246788Y3040000D01*
X64023212Y3040000D01*
X63803933Y2996383D01*
X63597376Y2910824D01*
X63411480Y2786612D01*
X63253388Y2628520D01*
X63194241Y2540000D01*
X62535759Y2540000D01*
X62476612Y2628520D01*
X62318520Y2786612D01*
X62132624Y2910824D01*
X61926067Y2996383D01*
X61706788Y3040000D01*
X61483212Y3040000D01*
X61263933Y2996383D01*
X61057376Y2910824D01*
X60871480Y2786612D01*
X60713388Y2628520D01*
X60654241Y2540000D01*
X59953025Y2540000D01*
X58533956Y3959069D01*
X58694764Y3892460D01*
X58933363Y3845000D01*
X59176637Y3845000D01*
X59415236Y3892460D01*
X59639992Y3985557D01*
X59842267Y4120713D01*
X60014287Y4292733D01*
X60149443Y4495008D01*
X60242540Y4719764D01*
X60290000Y4958363D01*
X60290000Y5201637D01*
X60360000Y5201637D01*
X60360000Y4958363D01*
X60407460Y4719764D01*
X60500557Y4495008D01*
X60635713Y4292733D01*
X60807733Y4120713D01*
X61010008Y3985557D01*
X61234764Y3892460D01*
X61473363Y3845000D01*
X61716637Y3845000D01*
X61955236Y3892460D01*
X62179992Y3985557D01*
X62382267Y4120713D01*
X62554287Y4292733D01*
X62689443Y4495008D01*
X62782540Y4719764D01*
X62830000Y4958363D01*
X62830000Y5201637D01*
X62782540Y5440236D01*
X62689443Y5664992D01*
X62554287Y5867267D01*
X62382267Y6039287D01*
X62179992Y6174443D01*
X61955236Y6267540D01*
X61716637Y6315000D01*
X61473363Y6315000D01*
X61234764Y6267540D01*
X61010008Y6174443D01*
X60807733Y6039287D01*
X60635713Y5867267D01*
X60500557Y5664992D01*
X60407460Y5440236D01*
X60360000Y5201637D01*
X60290000Y5201637D01*
X60242540Y5440236D01*
X60149443Y5664992D01*
X60014287Y5867267D01*
X59842267Y6039287D01*
X59639992Y6174443D01*
X59415236Y6267540D01*
X59176637Y6315000D01*
X58933363Y6315000D01*
X58694764Y6267540D01*
X58470008Y6174443D01*
X58267733Y6039287D01*
X58095713Y5867267D01*
X57960557Y5664992D01*
X57867460Y5440236D01*
X57820000Y5201637D01*
X57820000Y4958363D01*
X57867460Y4719764D01*
X57934069Y4558955D01*
X55880000Y6613024D01*
X55880000Y13909830D01*
X55883072Y13941019D01*
X55880000Y13972211D01*
X55870812Y14065501D01*
X55834502Y14185199D01*
X55775538Y14295513D01*
X55716069Y14367976D01*
X55716065Y14367980D01*
X55696185Y14392204D01*
X55671960Y14412085D01*
X54665100Y15418943D01*
X54645211Y15443178D01*
X54548520Y15522530D01*
X54438206Y15581495D01*
X54318508Y15617805D01*
X54225218Y15626993D01*
X54225207Y15626993D01*
X54194026Y15630064D01*
X54162845Y15626993D01*
X46605206Y15626993D01*
X46574025Y15630064D01*
X46542844Y15626993D01*
X46542834Y15626993D01*
X46449544Y15617805D01*
X46329846Y15581495D01*
X46219532Y15522530D01*
X46122841Y15443178D01*
X46102956Y15418948D01*
X45293050Y14609041D01*
X45268815Y14589152D01*
X45189463Y14492460D01*
X45130498Y14382146D01*
X45094188Y14262448D01*
X45085000Y14169158D01*
X45085000Y14169148D01*
X45081929Y14137967D01*
X45085000Y14106785D01*
X45085000Y13761029D01*
X44932733Y13659287D01*
X44760713Y13487267D01*
X44625557Y13284992D01*
X44532460Y13060236D01*
X44485000Y12821637D01*
X36969567Y12821637D01*
X36988705Y12884725D01*
X36997104Y12970000D01*
X36997104Y14970000D01*
X36988705Y15055275D01*
X36963831Y15137272D01*
X36923439Y15212842D01*
X36869079Y15279079D01*
X36802842Y15333439D01*
X36727272Y15373831D01*
X36645275Y15398705D01*
X36560000Y15407104D01*
X36495129Y15407104D01*
X36963026Y15875000D01*
X37794241Y15875000D01*
X37853388Y15786480D01*
X38011480Y15628388D01*
X38197376Y15504176D01*
X38403933Y15418617D01*
X38623212Y15375000D01*
X38846788Y15375000D01*
X39066067Y15418617D01*
X39272624Y15504176D01*
X39458520Y15628388D01*
X39616612Y15786480D01*
X39675759Y15875000D01*
X40168134Y15875000D01*
X40180557Y15845008D01*
X40315713Y15642733D01*
X40487733Y15470713D01*
X40690008Y15335557D01*
X40914764Y15242460D01*
X41153363Y15195000D01*
X41396637Y15195000D01*
X41635236Y15242460D01*
X41859992Y15335557D01*
X42062267Y15470713D01*
X42234287Y15642733D01*
X42369443Y15845008D01*
X42381866Y15875000D01*
X60061976Y15875000D01*
X62935727Y13001248D01*
X62900000Y12821637D01*
X62900000Y12578363D01*
X62947460Y12339764D01*
X63040557Y12115008D01*
X63175713Y11912733D01*
X63347733Y11740713D01*
X63550008Y11605557D01*
X63774764Y11512460D01*
X64013363Y11465000D01*
X64256637Y11465000D01*
X64495236Y11512460D01*
X64719992Y11605557D01*
X64922267Y11740713D01*
X65094287Y11912733D01*
X65229443Y12115008D01*
X65322540Y12339764D01*
X65370000Y12578363D01*
X65370000Y12821637D01*
X65322540Y13060236D01*
X65229443Y13284992D01*
X65094287Y13487267D01*
X65081554Y13500000D01*
X65437896Y13500000D01*
X65437896Y11900000D01*
X65446295Y11814725D01*
X65471169Y11732728D01*
X65511561Y11657158D01*
X65565921Y11590921D01*
X65632158Y11536561D01*
X65707728Y11496169D01*
X65789725Y11471295D01*
X65875000Y11462896D01*
X67475000Y11462896D01*
X67560275Y11471295D01*
X67642272Y11496169D01*
X67717842Y11536561D01*
X67784079Y11590921D01*
X67838439Y11657158D01*
X67878831Y11732728D01*
X67903705Y11814725D01*
X67912104Y11900000D01*
X67912104Y13500000D01*
X67903705Y13585275D01*
X67878831Y13667272D01*
X67838439Y13742842D01*
X67784079Y13809079D01*
X67717842Y13863439D01*
X67642272Y13903831D01*
X67560275Y13928705D01*
X67475000Y13937104D01*
X65875000Y13937104D01*
X65789725Y13928705D01*
X65707728Y13903831D01*
X65632158Y13863439D01*
X65565921Y13809079D01*
X65511561Y13742842D01*
X65471169Y13667272D01*
X65446295Y13585275D01*
X65437896Y13500000D01*
X65081554Y13500000D01*
X64922267Y13659287D01*
X64719992Y13794443D01*
X64495236Y13887540D01*
X64256637Y13935000D01*
X64013363Y13935000D01*
X63833752Y13899273D01*
X60796074Y16936950D01*
X60776185Y16961185D01*
X60679494Y17040537D01*
X60569180Y17099502D01*
X60449482Y17135812D01*
X60356192Y17145000D01*
X60356181Y17145000D01*
X60325000Y17148071D01*
X60293819Y17145000D01*
X42282574Y17145000D01*
X42234287Y17217267D01*
X42062267Y17389287D01*
X41859992Y17524443D01*
X41635236Y17617540D01*
X41396637Y17665000D01*
X41153363Y17665000D01*
X40914764Y17617540D01*
X40690008Y17524443D01*
X40487733Y17389287D01*
X40315713Y17217267D01*
X40267426Y17145000D01*
X39675759Y17145000D01*
X39616612Y17233520D01*
X39458520Y17391612D01*
X39272624Y17515824D01*
X39066067Y17601383D01*
X38846788Y17645000D01*
X38623212Y17645000D01*
X38403933Y17601383D01*
X38197376Y17515824D01*
X38011480Y17391612D01*
X37853388Y17233520D01*
X37794241Y17145000D01*
X36731180Y17145000D01*
X36699999Y17148071D01*
X36668818Y17145000D01*
X36668808Y17145000D01*
X36575518Y17135812D01*
X36455820Y17099502D01*
X36383931Y17061076D01*
X36345505Y17040537D01*
X36273042Y16981068D01*
X36273039Y16981065D01*
X36248815Y16961185D01*
X36228934Y16936960D01*
X35133045Y15841070D01*
X35108816Y15821185D01*
X35060612Y15762448D01*
X35029463Y15724493D01*
X34970498Y15614179D01*
X34934189Y15494481D01*
X34925583Y15407104D01*
X34560000Y15407104D01*
X34474725Y15398705D01*
X34392728Y15373831D01*
X34317158Y15333439D01*
X34250921Y15279079D01*
X34196561Y15212842D01*
X34156169Y15137272D01*
X34131295Y15055275D01*
X34122896Y14970000D01*
X33035000Y14970000D01*
X33035000Y17779462D01*
X33210538Y17955000D01*
X74317590Y17955000D01*
X74385176Y17961657D01*
X74470001Y17987388D01*
X74470000Y427612D01*
D24*
G36*
X30754502Y15981031D02*
G01*
X30754503Y15981030D01*
X31031224Y15753931D01*
X31452503Y15528753D01*
X31909617Y15390089D01*
X32187071Y15362762D01*
X32148388Y14970000D01*
X32148388Y13442394D01*
X31286489Y13903089D01*
X30268585Y14211866D01*
X29475281Y14290000D01*
X9254719Y14290000D01*
X8461415Y14211866D01*
X7443511Y13903089D01*
X6505405Y13401661D01*
X5683148Y12726852D01*
X5008339Y11904595D01*
X4506911Y10966489D01*
X4198134Y9948585D01*
X4093872Y8890000D01*
X4198134Y7831415D01*
X4506911Y6813511D01*
X5008339Y5875405D01*
X5683148Y5053148D01*
X6505405Y4378339D01*
X7443511Y3876911D01*
X8461415Y3568134D01*
X9254719Y3490000D01*
X29475281Y3490000D01*
X30268585Y3568134D01*
X31286489Y3876911D01*
X31934662Y4223367D01*
X31944131Y4175763D01*
X32177815Y3611599D01*
X32517072Y3103865D01*
X32567145Y3053792D01*
X32385000Y3071732D01*
X31909617Y3024911D01*
X31523290Y2907720D01*
X31452503Y2886247D01*
X31031224Y2661069D01*
X30743573Y2425000D01*
X5930644Y2425000D01*
X4010421Y3961178D01*
X2496524Y9007499D01*
X3480035Y13925054D01*
X5957971Y15990000D01*
X30743573Y15990000D01*
X30754502Y15981031D01*
G37*
X30754502Y15981031D02*
X30754503Y15981030D01*
X31031224Y15753931D01*
X31452503Y15528753D01*
X31909617Y15390089D01*
X32187071Y15362762D01*
X32148388Y14970000D01*
X32148388Y13442394D01*
X31286489Y13903089D01*
X30268585Y14211866D01*
X29475281Y14290000D01*
X9254719Y14290000D01*
X8461415Y14211866D01*
X7443511Y13903089D01*
X6505405Y13401661D01*
X5683148Y12726852D01*
X5008339Y11904595D01*
X4506911Y10966489D01*
X4198134Y9948585D01*
X4093872Y8890000D01*
X4198134Y7831415D01*
X4506911Y6813511D01*
X5008339Y5875405D01*
X5683148Y5053148D01*
X6505405Y4378339D01*
X7443511Y3876911D01*
X8461415Y3568134D01*
X9254719Y3490000D01*
X29475281Y3490000D01*
X30268585Y3568134D01*
X31286489Y3876911D01*
X31934662Y4223367D01*
X31944131Y4175763D01*
X32177815Y3611599D01*
X32517072Y3103865D01*
X32567145Y3053792D01*
X32385000Y3071732D01*
X31909617Y3024911D01*
X31523290Y2907720D01*
X31452503Y2886247D01*
X31031224Y2661069D01*
X30743573Y2425000D01*
X5930644Y2425000D01*
X4010421Y3961178D01*
X2496524Y9007499D01*
X3480035Y13925054D01*
X5957971Y15990000D01*
X30743573Y15990000D01*
X30754502Y15981031D01*
M02*
