%TF.GenerationSoftware,KiCad,Pcbnew,(5.1.5)-3*%
%TF.CreationDate,2021-04-29T14:02:25+01:00*%
%TF.ProjectId,KiCadSoil3,4b694361-6453-46f6-996c-332e6b696361,1.0*%
%TF.SameCoordinates,PX1d11680PY3072580*%
%TF.FileFunction,Legend,Top*%
%TF.FilePolarity,Positive*%
%FSLAX46Y46*%
G04 Gerber Fmt 4.6, Leading zero omitted, Abs format (unit mm)*
G04 Created by KiCad (PCBNEW (5.1.5)-3) date 2021-04-29 14:02:25*
%MOMM*%
%LPD*%
G04 APERTURE LIST*
%ADD10C,0.120000*%
G04 APERTURE END LIST*
D10*
X77685816Y18267795D02*
G75*
G02X78210000Y18995000I2324184J-1122795D01*
G01*
X77653600Y16046193D02*
G75*
G03X80010000Y14545000I2356400J1098807D01*
G01*
X82366400Y16046193D02*
G75*
G02X80010000Y14545000I-2356400J1098807D01*
G01*
X82334184Y18267795D02*
G75*
G03X81810000Y18995000I-2324184J-1122795D01*
G01*
X81810000Y18995000D02*
X78210000Y18995000D01*
X79705000Y1905000D02*
X78755000Y1905000D01*
X73965000Y1905000D02*
X74915000Y1905000D01*
X78755000Y2825000D02*
X74915000Y2825000D01*
X78755000Y985000D02*
X78755000Y2825000D01*
X74915000Y985000D02*
X78755000Y985000D01*
X74915000Y2825000D02*
X74915000Y985000D01*
X45870000Y13305000D02*
X43030000Y13305000D01*
X45870000Y13065000D02*
X43030000Y13065000D01*
X45870000Y13185000D02*
X43030000Y13185000D01*
X43030000Y10345000D02*
X43210000Y10345000D01*
X43030000Y13785000D02*
X43030000Y10345000D01*
X43210000Y13785000D02*
X43030000Y13785000D01*
X45870000Y10345000D02*
X45690000Y10345000D01*
X45870000Y13785000D02*
X45870000Y10345000D01*
X45690000Y13785000D02*
X45870000Y13785000D01*
X54840000Y2975000D02*
X59380000Y2975000D01*
X54840000Y835000D02*
X59380000Y835000D01*
X54840000Y2975000D02*
X54840000Y2960000D01*
X54840000Y850000D02*
X54840000Y835000D01*
X59380000Y2975000D02*
X59380000Y2960000D01*
X59380000Y850000D02*
X59380000Y835000D01*
X76895000Y6240000D02*
X76895000Y7890000D01*
X66615000Y6240000D02*
X76895000Y6240000D01*
X66615000Y11540000D02*
X66615000Y6240000D01*
X76895000Y11540000D02*
X66615000Y11540000D01*
X76895000Y9890000D02*
X76895000Y11540000D01*
X76895000Y7890000D02*
G75*
G02X76895000Y9890000I0J1000000D01*
G01*
X63560000Y6240000D02*
X63560000Y7890000D01*
X53280000Y6240000D02*
X63560000Y6240000D01*
X53280000Y11540000D02*
X53280000Y6240000D01*
X63560000Y11540000D02*
X53280000Y11540000D01*
X63560000Y9890000D02*
X63560000Y11540000D01*
X63560000Y7890000D02*
G75*
G02X63560000Y9890000I0J1000000D01*
G01*
X46340000Y6000000D02*
X46340000Y4160000D01*
X46340000Y4160000D02*
X50180000Y4160000D01*
X50180000Y4160000D02*
X50180000Y6000000D01*
X50180000Y6000000D02*
X46340000Y6000000D01*
X45390000Y5080000D02*
X46340000Y5080000D01*
X51130000Y5080000D02*
X50180000Y5080000D01*
X46585000Y2975000D02*
X51125000Y2975000D01*
X46585000Y835000D02*
X51125000Y835000D01*
X46585000Y2975000D02*
X46585000Y2960000D01*
X46585000Y850000D02*
X46585000Y835000D01*
X51125000Y2975000D02*
X51125000Y2960000D01*
X51125000Y850000D02*
X51125000Y835000D01*
X63805000Y1905000D02*
X64755000Y1905000D01*
X69545000Y1905000D02*
X68595000Y1905000D01*
X64755000Y985000D02*
X68595000Y985000D01*
X64755000Y2825000D02*
X64755000Y985000D01*
X68595000Y2825000D02*
X64755000Y2825000D01*
X68595000Y985000D02*
X68595000Y2825000D01*
X47625000Y15570000D02*
X47625000Y14620000D01*
X47625000Y9830000D02*
X47625000Y10780000D01*
X46705000Y14620000D02*
X46705000Y10780000D01*
X48545000Y14620000D02*
X46705000Y14620000D01*
X48545000Y10780000D02*
X48545000Y14620000D01*
X46705000Y10780000D02*
X48545000Y10780000D01*
X51220000Y16200000D02*
X51235000Y16200000D01*
X49095000Y16200000D02*
X49110000Y16200000D01*
X51220000Y11660000D02*
X51235000Y11660000D01*
X49095000Y11660000D02*
X49110000Y11660000D01*
X51235000Y11660000D02*
X51235000Y16200000D01*
X49095000Y11660000D02*
X49095000Y16200000D01*
X83255000Y3440000D02*
X83255000Y5940000D01*
X80755000Y3440000D02*
X83255000Y3440000D01*
X81455000Y12960000D02*
X82955000Y12960000D01*
X81455000Y13960000D02*
X81455000Y12960000D01*
X81455000Y4740000D02*
X82955000Y4740000D01*
X81455000Y3740000D02*
X81455000Y4740000D01*
X80645000Y13460000D02*
X80645000Y13960000D01*
X79435000Y13460000D02*
X80645000Y13460000D01*
X79435000Y4240000D02*
X79435000Y13460000D01*
X80645000Y4240000D02*
X79435000Y4240000D01*
X80645000Y3740000D02*
X80645000Y4240000D01*
X78935000Y13960000D02*
X78935000Y3740000D01*
X82955000Y13960000D02*
X78935000Y13960000D01*
X82955000Y3740000D02*
X82955000Y13960000D01*
X78935000Y3740000D02*
X82955000Y3740000D01*
M02*
