M48
; DRILL file {KiCad (5.1.5)-3} date 29/04/2021 13:52:53
; FORMAT={-:-/ absolute / inch / decimal}
; #@! TF.CreationDate,2021-04-29T13:52:53+01:00
; #@! TF.GenerationSoftware,Kicad,Pcbnew,(5.1.5)-3
FMAT,2
INCH
T1C0.0276
T2C0.0315
T3C0.0374
T4C0.0394
%
G90
G05
T1
X1.875Y0.65
X1.875Y0.35
X1.75Y0.2
X2.05Y0.2
X2.475Y0.075
X2.775Y0.075
X2.875Y0.075
X3.175Y0.075
T2
X1.825Y0.075
X2.0219Y0.075
X2.675Y0.5
X2.675Y0.2
X2.775Y0.5
X2.775Y0.2
X2.875Y0.5
X2.875Y0.2
X2.975Y0.5
X2.975Y0.2
X1.975Y0.6469
X1.975Y0.45
X2.15Y0.5
X2.15Y0.2
X2.25Y0.5
X2.25Y0.2
X2.35Y0.5
X2.35Y0.2
X2.45Y0.5
X2.45Y0.2
X3.05Y0.675
X3.15Y0.675
X3.25Y0.675
X2.15Y0.075
X2.3469Y0.075
T3
X3.175Y0.4469
X3.175Y0.3484
X3.175Y0.25
T4
X1.75Y0.575
X1.75Y0.375
T0
M30
