M48
; DRILL file {KiCad (5.1.5)-3} date 27/04/2021 10:26:15
; FORMAT={-:-/ absolute / inch / decimal}
; #@! TF.CreationDate,2021-04-27T10:26:15+01:00
; #@! TF.GenerationSoftware,Kicad,Pcbnew,(5.1.5)-3
FMAT,2
INCH
T1C0.0276
T2C0.0315
T3C0.0374
T4C0.0394
%
G90
G05
T1
X2.525Y0.075
X2.825Y0.075
X1.375Y0.2
X1.675Y0.2
X1.525Y0.65
X1.525Y0.35
X2.125Y0.075
X2.425Y0.075
T2
X1.625Y0.6469
X1.625Y0.45
X1.475Y0.075
X1.6719Y0.075
X1.8Y0.5
X1.8Y0.2
X1.9Y0.5
X1.9Y0.2
X2.0Y0.5
X2.0Y0.2
X2.1Y0.5
X2.1Y0.2
X2.325Y0.5
X2.325Y0.2
X2.425Y0.5
X2.425Y0.2
X2.525Y0.5
X2.525Y0.2
X2.625Y0.5
X2.625Y0.2
X1.8Y0.075
X1.9969Y0.075
T3
X2.825Y0.4469
X2.825Y0.3484
X2.825Y0.25
T4
X1.4Y0.55
X1.4Y0.35
T0
M30
