G04 EAGLE Gerber RS-274X export*
G75*
%MOMM*%
%FSLAX34Y34*%
%LPD*%
%INBottom Copper*%
%IPPOS*%
%AMOC8*
5,1,8,0,0,1.08239X$1,22.5*%
G01*
%ADD10C,1.524000*%
%ADD11C,1.524000*%
%ADD12C,1.500000*%
%ADD13C,1.308000*%
%ADD14C,0.600000*%

G36*
X462608Y5084D02*
X462608Y5084D01*
X462627Y5082D01*
X462729Y5104D01*
X462831Y5120D01*
X462848Y5130D01*
X462868Y5134D01*
X462957Y5187D01*
X463048Y5236D01*
X463062Y5250D01*
X463079Y5260D01*
X463146Y5339D01*
X463218Y5414D01*
X463226Y5432D01*
X463239Y5447D01*
X463278Y5543D01*
X463321Y5637D01*
X463323Y5657D01*
X463331Y5675D01*
X463349Y5842D01*
X463349Y404878D01*
X463346Y404898D01*
X463348Y404917D01*
X463326Y405019D01*
X463310Y405121D01*
X463300Y405138D01*
X463296Y405158D01*
X463243Y405247D01*
X463194Y405338D01*
X463180Y405352D01*
X463170Y405369D01*
X463091Y405436D01*
X463016Y405508D01*
X462998Y405516D01*
X462983Y405529D01*
X462887Y405568D01*
X462793Y405611D01*
X462773Y405613D01*
X462755Y405621D01*
X462588Y405639D01*
X5842Y405639D01*
X5822Y405636D01*
X5803Y405638D01*
X5701Y405616D01*
X5599Y405600D01*
X5582Y405590D01*
X5562Y405586D01*
X5473Y405533D01*
X5382Y405484D01*
X5368Y405470D01*
X5351Y405460D01*
X5284Y405381D01*
X5212Y405306D01*
X5204Y405288D01*
X5191Y405273D01*
X5152Y405177D01*
X5109Y405083D01*
X5107Y405063D01*
X5099Y405045D01*
X5081Y404878D01*
X5081Y5842D01*
X5084Y5822D01*
X5082Y5803D01*
X5104Y5701D01*
X5120Y5599D01*
X5130Y5582D01*
X5134Y5562D01*
X5187Y5473D01*
X5236Y5382D01*
X5250Y5368D01*
X5260Y5351D01*
X5339Y5284D01*
X5414Y5212D01*
X5432Y5204D01*
X5447Y5191D01*
X5543Y5152D01*
X5637Y5109D01*
X5657Y5107D01*
X5675Y5099D01*
X5842Y5081D01*
X462588Y5081D01*
X462608Y5084D01*
G37*
%LPC*%
G36*
X365976Y18795D02*
X365976Y18795D01*
X361681Y20574D01*
X358394Y23861D01*
X356615Y28156D01*
X356615Y48044D01*
X358394Y52339D01*
X361012Y54957D01*
X361065Y55031D01*
X361125Y55100D01*
X361137Y55131D01*
X361156Y55157D01*
X361183Y55244D01*
X361217Y55329D01*
X361221Y55370D01*
X361228Y55392D01*
X361227Y55424D01*
X361235Y55495D01*
X361235Y109605D01*
X361223Y109680D01*
X361220Y109756D01*
X361203Y109801D01*
X361196Y109848D01*
X361160Y109915D01*
X361133Y109986D01*
X361103Y110023D01*
X361080Y110066D01*
X361026Y110118D01*
X360978Y110176D01*
X360937Y110202D01*
X360902Y110235D01*
X360833Y110267D01*
X360769Y110307D01*
X360723Y110318D01*
X360679Y110339D01*
X360604Y110347D01*
X360530Y110365D01*
X360482Y110360D01*
X360435Y110366D01*
X360361Y110350D01*
X360285Y110343D01*
X360225Y110320D01*
X360194Y110313D01*
X360172Y110300D01*
X360128Y110284D01*
X359500Y109964D01*
X357979Y109469D01*
X357123Y109334D01*
X357123Y126238D01*
X357120Y126258D01*
X357122Y126277D01*
X357100Y126379D01*
X357083Y126481D01*
X357074Y126498D01*
X357070Y126518D01*
X357017Y126607D01*
X356968Y126698D01*
X356954Y126712D01*
X356944Y126729D01*
X356865Y126796D01*
X356790Y126867D01*
X356772Y126876D01*
X356757Y126889D01*
X356661Y126927D01*
X356567Y126971D01*
X356547Y126973D01*
X356529Y126981D01*
X356362Y126999D01*
X355599Y126999D01*
X355599Y127001D01*
X356362Y127001D01*
X356382Y127004D01*
X356401Y127002D01*
X356503Y127024D01*
X356605Y127041D01*
X356622Y127050D01*
X356642Y127054D01*
X356731Y127107D01*
X356822Y127156D01*
X356836Y127170D01*
X356853Y127180D01*
X356920Y127259D01*
X356991Y127334D01*
X357000Y127352D01*
X357013Y127367D01*
X357052Y127463D01*
X357095Y127557D01*
X357097Y127577D01*
X357105Y127595D01*
X357123Y127762D01*
X357123Y144666D01*
X357979Y144531D01*
X359500Y144036D01*
X360128Y143716D01*
X360200Y143693D01*
X360269Y143661D01*
X360317Y143656D01*
X360363Y143642D01*
X360438Y143643D01*
X360513Y143634D01*
X360561Y143645D01*
X360609Y143645D01*
X360680Y143671D01*
X360754Y143687D01*
X360795Y143711D01*
X360841Y143727D01*
X360900Y143774D01*
X360965Y143813D01*
X360996Y143849D01*
X361034Y143879D01*
X361076Y143942D01*
X361125Y144000D01*
X361143Y144044D01*
X361169Y144085D01*
X361189Y144158D01*
X361217Y144228D01*
X361224Y144293D01*
X361232Y144322D01*
X361230Y144348D01*
X361235Y144395D01*
X361235Y204859D01*
X361334Y205098D01*
X361361Y205211D01*
X361389Y205325D01*
X361389Y205332D01*
X361390Y205338D01*
X361379Y205454D01*
X361370Y205570D01*
X361368Y205576D01*
X361367Y205582D01*
X361319Y205690D01*
X361274Y205797D01*
X361269Y205803D01*
X361267Y205807D01*
X361254Y205821D01*
X361169Y205928D01*
X291579Y275518D01*
X291542Y275545D01*
X291511Y275579D01*
X291442Y275616D01*
X291379Y275662D01*
X291335Y275675D01*
X291295Y275697D01*
X291218Y275711D01*
X291144Y275734D01*
X291098Y275733D01*
X291053Y275741D01*
X290976Y275730D01*
X290898Y275728D01*
X290855Y275712D01*
X290810Y275705D01*
X290740Y275670D01*
X290667Y275643D01*
X290631Y275615D01*
X290590Y275594D01*
X290536Y275538D01*
X290475Y275490D01*
X290450Y275451D01*
X290418Y275418D01*
X290352Y275298D01*
X290342Y275283D01*
X290341Y275278D01*
X290337Y275271D01*
X289306Y272781D01*
X286019Y269494D01*
X281724Y267715D01*
X277076Y267715D01*
X272781Y269494D01*
X269494Y272781D01*
X267715Y277076D01*
X267715Y281724D01*
X268546Y283729D01*
X268556Y283773D01*
X268575Y283815D01*
X268584Y283892D01*
X268602Y283968D01*
X268597Y284014D01*
X268602Y284059D01*
X268586Y284136D01*
X268579Y284213D01*
X268560Y284255D01*
X268550Y284300D01*
X268510Y284367D01*
X268479Y284438D01*
X268448Y284472D01*
X268424Y284511D01*
X268365Y284562D01*
X268312Y284619D01*
X268272Y284641D01*
X268237Y284671D01*
X268165Y284700D01*
X268097Y284737D01*
X268052Y284746D01*
X268009Y284763D01*
X267873Y284778D01*
X267855Y284781D01*
X267850Y284780D01*
X267842Y284781D01*
X265558Y284781D01*
X265512Y284774D01*
X265467Y284776D01*
X265392Y284754D01*
X265315Y284742D01*
X265274Y284720D01*
X265230Y284707D01*
X265166Y284663D01*
X265098Y284626D01*
X265066Y284593D01*
X265028Y284567D01*
X264982Y284505D01*
X264928Y284448D01*
X264909Y284406D01*
X264882Y284370D01*
X264857Y284296D01*
X264825Y284225D01*
X264820Y284179D01*
X264805Y284136D01*
X264806Y284058D01*
X264798Y283981D01*
X264807Y283936D01*
X264808Y283890D01*
X264846Y283758D01*
X264850Y283740D01*
X264852Y283736D01*
X264854Y283729D01*
X265685Y281724D01*
X265685Y277076D01*
X263906Y272781D01*
X261288Y270163D01*
X261235Y270089D01*
X261175Y270020D01*
X261163Y269990D01*
X261144Y269963D01*
X261117Y269876D01*
X261083Y269791D01*
X261079Y269751D01*
X261072Y269728D01*
X261073Y269696D01*
X261065Y269625D01*
X261065Y144395D01*
X261072Y144352D01*
X261072Y144350D01*
X261074Y144339D01*
X261079Y144305D01*
X261087Y144214D01*
X261099Y144184D01*
X261104Y144153D01*
X261121Y144120D01*
X261124Y144110D01*
X261149Y144067D01*
X261183Y143988D01*
X261209Y143956D01*
X261220Y143935D01*
X261239Y143916D01*
X261250Y143899D01*
X261264Y143886D01*
X261288Y143857D01*
X263906Y141239D01*
X265685Y136944D01*
X265685Y117056D01*
X263906Y112761D01*
X260619Y109474D01*
X256324Y107695D01*
X251676Y107695D01*
X247381Y109474D01*
X244094Y112761D01*
X242315Y117056D01*
X242315Y136944D01*
X244094Y141239D01*
X246712Y143857D01*
X246755Y143916D01*
X246798Y143961D01*
X246805Y143977D01*
X246825Y144000D01*
X246837Y144031D01*
X246856Y144057D01*
X246883Y144144D01*
X246884Y144147D01*
X246901Y144184D01*
X246902Y144192D01*
X246917Y144229D01*
X246921Y144270D01*
X246928Y144292D01*
X246927Y144324D01*
X246935Y144395D01*
X246935Y269625D01*
X246921Y269715D01*
X246913Y269806D01*
X246901Y269836D01*
X246896Y269867D01*
X246853Y269948D01*
X246817Y270032D01*
X246791Y270064D01*
X246780Y270085D01*
X246757Y270107D01*
X246712Y270163D01*
X244094Y272781D01*
X243212Y274912D01*
X243187Y274951D01*
X243172Y274994D01*
X243123Y275055D01*
X243082Y275121D01*
X243047Y275150D01*
X243018Y275186D01*
X242953Y275228D01*
X242892Y275278D01*
X242850Y275294D01*
X242811Y275319D01*
X242735Y275338D01*
X242663Y275366D01*
X242617Y275368D01*
X242572Y275379D01*
X242495Y275373D01*
X242417Y275376D01*
X242373Y275364D01*
X242327Y275360D01*
X242256Y275330D01*
X242181Y275308D01*
X242143Y275282D01*
X242101Y275264D01*
X242015Y275195D01*
X239277Y274061D01*
X239200Y274013D01*
X239118Y273972D01*
X239096Y273949D01*
X239068Y273931D01*
X239010Y273861D01*
X238946Y273796D01*
X238926Y273760D01*
X238911Y273742D01*
X238900Y273712D01*
X238865Y273649D01*
X238506Y272781D01*
X235219Y269494D01*
X230924Y267715D01*
X226276Y267715D01*
X221981Y269494D01*
X219109Y272366D01*
X219035Y272419D01*
X218966Y272479D01*
X218936Y272491D01*
X218909Y272510D01*
X218822Y272537D01*
X218737Y272571D01*
X218697Y272575D01*
X218674Y272582D01*
X218642Y272581D01*
X218571Y272589D01*
X182816Y272589D01*
X182796Y272586D01*
X182777Y272588D01*
X182675Y272566D01*
X182573Y272550D01*
X182556Y272540D01*
X182536Y272536D01*
X182447Y272483D01*
X182356Y272434D01*
X182342Y272420D01*
X182325Y272410D01*
X182258Y272331D01*
X182186Y272256D01*
X182178Y272238D01*
X182165Y272223D01*
X182126Y272127D01*
X182083Y272033D01*
X182081Y272013D01*
X182073Y271995D01*
X182055Y271828D01*
X182055Y270751D01*
X180440Y266853D01*
X177457Y263870D01*
X173559Y262255D01*
X169341Y262255D01*
X165443Y263870D01*
X162463Y266849D01*
X162447Y266861D01*
X162435Y266877D01*
X162347Y266933D01*
X162264Y266993D01*
X162245Y266999D01*
X162228Y267010D01*
X162127Y267035D01*
X162028Y267065D01*
X162009Y267065D01*
X161989Y267070D01*
X161886Y267062D01*
X161783Y267059D01*
X161764Y267052D01*
X161744Y267050D01*
X161649Y267010D01*
X161552Y266974D01*
X161536Y266962D01*
X161518Y266954D01*
X161387Y266849D01*
X159746Y265208D01*
X159707Y265155D01*
X159661Y265108D01*
X159656Y265098D01*
X159653Y265095D01*
X159647Y265083D01*
X159621Y265035D01*
X159602Y265009D01*
X159596Y264990D01*
X159581Y264961D01*
X159523Y264821D01*
X159508Y264758D01*
X159483Y264697D01*
X159474Y264614D01*
X159466Y264582D01*
X159468Y264562D01*
X159465Y264530D01*
X159465Y225506D01*
X159479Y225415D01*
X159487Y225325D01*
X159499Y225295D01*
X159504Y225263D01*
X159547Y225182D01*
X159583Y225098D01*
X159609Y225066D01*
X159620Y225045D01*
X159643Y225023D01*
X159688Y224967D01*
X162204Y222451D01*
X163965Y218200D01*
X163965Y213600D01*
X162204Y209349D01*
X158951Y206096D01*
X154700Y204335D01*
X150100Y204335D01*
X145849Y206096D01*
X142596Y209349D01*
X140835Y213600D01*
X140835Y218200D01*
X142596Y222451D01*
X145112Y224967D01*
X145165Y225041D01*
X145225Y225111D01*
X145237Y225141D01*
X145256Y225167D01*
X145283Y225254D01*
X145317Y225339D01*
X145321Y225380D01*
X145328Y225402D01*
X145327Y225434D01*
X145335Y225506D01*
X145335Y264612D01*
X145321Y264702D01*
X145313Y264793D01*
X145301Y264823D01*
X145296Y264855D01*
X145253Y264935D01*
X145217Y265019D01*
X145191Y265051D01*
X145180Y265072D01*
X145157Y265094D01*
X145112Y265150D01*
X143410Y266853D01*
X142748Y268449D01*
X142685Y268552D01*
X142623Y268654D01*
X142621Y268656D01*
X142619Y268659D01*
X142525Y268736D01*
X142435Y268812D01*
X142432Y268813D01*
X142429Y268815D01*
X142317Y268859D01*
X142206Y268902D01*
X142203Y268902D01*
X142200Y268904D01*
X142080Y268909D01*
X141960Y268915D01*
X141957Y268914D01*
X141954Y268914D01*
X141840Y268881D01*
X141723Y268848D01*
X141721Y268846D01*
X141718Y268845D01*
X141620Y268777D01*
X141520Y268709D01*
X141518Y268707D01*
X141516Y268705D01*
X141509Y268696D01*
X141412Y268581D01*
X140403Y267071D01*
X139139Y265807D01*
X137651Y264813D01*
X135999Y264128D01*
X134873Y263904D01*
X134873Y278638D01*
X134870Y278658D01*
X134872Y278677D01*
X134850Y278779D01*
X134833Y278881D01*
X134824Y278898D01*
X134820Y278918D01*
X134767Y279007D01*
X134718Y279098D01*
X134704Y279112D01*
X134694Y279129D01*
X134615Y279196D01*
X134540Y279267D01*
X134522Y279276D01*
X134507Y279289D01*
X134411Y279327D01*
X134317Y279371D01*
X134297Y279373D01*
X134279Y279381D01*
X134112Y279399D01*
X133349Y279399D01*
X133349Y279401D01*
X134112Y279401D01*
X134132Y279404D01*
X134151Y279402D01*
X134253Y279424D01*
X134355Y279441D01*
X134372Y279450D01*
X134392Y279454D01*
X134481Y279507D01*
X134572Y279556D01*
X134586Y279570D01*
X134603Y279580D01*
X134670Y279659D01*
X134741Y279734D01*
X134750Y279752D01*
X134763Y279767D01*
X134802Y279863D01*
X134845Y279957D01*
X134847Y279977D01*
X134855Y279995D01*
X134873Y280162D01*
X134873Y294896D01*
X135999Y294672D01*
X137651Y293987D01*
X139139Y292993D01*
X140403Y291729D01*
X141412Y290219D01*
X141495Y290130D01*
X141575Y290043D01*
X141578Y290041D01*
X141580Y290039D01*
X141686Y289982D01*
X141791Y289924D01*
X141794Y289924D01*
X141797Y289922D01*
X141913Y289902D01*
X142033Y289881D01*
X142036Y289881D01*
X142039Y289881D01*
X142156Y289899D01*
X142276Y289916D01*
X142279Y289918D01*
X142282Y289918D01*
X142388Y289973D01*
X142495Y290028D01*
X142498Y290030D01*
X142500Y290032D01*
X142582Y290117D01*
X142668Y290204D01*
X142669Y290207D01*
X142671Y290209D01*
X142676Y290218D01*
X142748Y290351D01*
X143410Y291947D01*
X145366Y293904D01*
X145419Y293978D01*
X145479Y294047D01*
X145491Y294077D01*
X145510Y294103D01*
X145537Y294190D01*
X145571Y294275D01*
X145575Y294316D01*
X145582Y294338D01*
X145581Y294371D01*
X145589Y294442D01*
X145589Y363351D01*
X145575Y363441D01*
X145567Y363532D01*
X145555Y363561D01*
X145550Y363593D01*
X145507Y363674D01*
X145471Y363758D01*
X145445Y363790D01*
X145434Y363811D01*
X145411Y363833D01*
X145366Y363889D01*
X142494Y366761D01*
X140715Y371056D01*
X140715Y390944D01*
X142494Y395239D01*
X145781Y398526D01*
X150076Y400305D01*
X154724Y400305D01*
X159019Y398526D01*
X162306Y395239D01*
X164085Y390944D01*
X164085Y371056D01*
X162306Y366761D01*
X159942Y364397D01*
X159889Y364323D01*
X159829Y364254D01*
X159817Y364223D01*
X159798Y364197D01*
X159771Y364110D01*
X159737Y364025D01*
X159733Y363984D01*
X159726Y363962D01*
X159727Y363930D01*
X159719Y363859D01*
X159719Y293934D01*
X159733Y293844D01*
X159741Y293753D01*
X159753Y293723D01*
X159758Y293691D01*
X159801Y293611D01*
X159837Y293527D01*
X159863Y293494D01*
X159874Y293474D01*
X159897Y293452D01*
X159942Y293396D01*
X161387Y291951D01*
X161403Y291939D01*
X161415Y291923D01*
X161503Y291867D01*
X161586Y291807D01*
X161605Y291801D01*
X161622Y291790D01*
X161723Y291765D01*
X161822Y291735D01*
X161841Y291735D01*
X161861Y291730D01*
X161964Y291738D01*
X162067Y291741D01*
X162086Y291748D01*
X162106Y291750D01*
X162201Y291790D01*
X162298Y291826D01*
X162314Y291838D01*
X162332Y291846D01*
X162463Y291951D01*
X165443Y294930D01*
X169341Y296545D01*
X173559Y296545D01*
X177457Y294930D01*
X180440Y291947D01*
X182055Y288049D01*
X182055Y287480D01*
X182056Y287470D01*
X182056Y287465D01*
X182058Y287457D01*
X182056Y287441D01*
X182078Y287339D01*
X182094Y287237D01*
X182104Y287220D01*
X182108Y287200D01*
X182161Y287111D01*
X182210Y287020D01*
X182224Y287006D01*
X182234Y286989D01*
X182313Y286922D01*
X182388Y286850D01*
X182406Y286842D01*
X182421Y286829D01*
X182517Y286790D01*
X182611Y286747D01*
X182631Y286745D01*
X182649Y286737D01*
X182816Y286719D01*
X219079Y286719D01*
X219169Y286733D01*
X219260Y286741D01*
X219290Y286753D01*
X219321Y286758D01*
X219402Y286801D01*
X219486Y286837D01*
X219518Y286863D01*
X219539Y286874D01*
X219561Y286897D01*
X219563Y286898D01*
X219566Y286901D01*
X219617Y286942D01*
X221981Y289306D01*
X226276Y291085D01*
X230924Y291085D01*
X235293Y289275D01*
X235338Y289243D01*
X235357Y289237D01*
X235374Y289226D01*
X235474Y289201D01*
X235573Y289170D01*
X235593Y289171D01*
X235613Y289166D01*
X235715Y289174D01*
X235819Y289177D01*
X235838Y289183D01*
X235858Y289185D01*
X235953Y289225D01*
X236050Y289261D01*
X236066Y289273D01*
X236084Y289281D01*
X236215Y289386D01*
X242570Y295741D01*
X244664Y297835D01*
X247261Y298911D01*
X286647Y298911D01*
X289244Y297835D01*
X370429Y216650D01*
X370445Y216639D01*
X370457Y216623D01*
X370545Y216567D01*
X370628Y216507D01*
X370647Y216501D01*
X370664Y216490D01*
X370765Y216465D01*
X370864Y216434D01*
X370883Y216435D01*
X370903Y216430D01*
X371006Y216438D01*
X371109Y216441D01*
X371128Y216448D01*
X371148Y216449D01*
X371243Y216490D01*
X371340Y216525D01*
X371356Y216538D01*
X371374Y216546D01*
X371505Y216650D01*
X401408Y246553D01*
X401476Y246647D01*
X401546Y246742D01*
X401548Y246748D01*
X401552Y246753D01*
X401586Y246864D01*
X401622Y246976D01*
X401622Y246982D01*
X401624Y246988D01*
X401621Y247105D01*
X401620Y247222D01*
X401618Y247229D01*
X401618Y247234D01*
X401611Y247252D01*
X401573Y247383D01*
X399795Y251676D01*
X399795Y256324D01*
X401574Y260619D01*
X404861Y263906D01*
X409156Y265685D01*
X429044Y265685D01*
X433339Y263906D01*
X436626Y260619D01*
X438405Y256324D01*
X438405Y251676D01*
X436626Y247381D01*
X433339Y244094D01*
X429044Y242315D01*
X417468Y242315D01*
X417378Y242301D01*
X417287Y242293D01*
X417257Y242281D01*
X417225Y242276D01*
X417144Y242233D01*
X417060Y242197D01*
X417028Y242171D01*
X417008Y242160D01*
X416985Y242137D01*
X416929Y242092D01*
X416421Y241584D01*
X416379Y241526D01*
X416330Y241474D01*
X416308Y241427D01*
X416278Y241385D01*
X416257Y241316D01*
X416226Y241251D01*
X416221Y241199D01*
X416205Y241149D01*
X416207Y241078D01*
X416199Y241007D01*
X416210Y240956D01*
X416212Y240904D01*
X416236Y240836D01*
X416252Y240766D01*
X416278Y240721D01*
X416296Y240673D01*
X416341Y240617D01*
X416378Y240555D01*
X416417Y240521D01*
X416450Y240481D01*
X416510Y240442D01*
X416565Y240395D01*
X416613Y240376D01*
X416657Y240348D01*
X416726Y240330D01*
X416793Y240303D01*
X416864Y240295D01*
X416895Y240287D01*
X416919Y240289D01*
X416960Y240285D01*
X429044Y240285D01*
X433339Y238506D01*
X436626Y235219D01*
X438405Y230924D01*
X438405Y226276D01*
X436626Y221981D01*
X433339Y218694D01*
X429044Y216915D01*
X409156Y216915D01*
X404861Y218694D01*
X401574Y221981D01*
X400617Y224292D01*
X400593Y224331D01*
X400577Y224374D01*
X400529Y224435D01*
X400488Y224501D01*
X400452Y224530D01*
X400424Y224566D01*
X400358Y224608D01*
X400298Y224657D01*
X400255Y224674D01*
X400217Y224699D01*
X400141Y224718D01*
X400068Y224746D01*
X400023Y224748D01*
X399978Y224759D01*
X399901Y224753D01*
X399823Y224756D01*
X399779Y224743D01*
X399733Y224740D01*
X399661Y224709D01*
X399586Y224687D01*
X399549Y224661D01*
X399507Y224643D01*
X399400Y224558D01*
X399384Y224547D01*
X399381Y224543D01*
X399376Y224539D01*
X375588Y200751D01*
X375535Y200677D01*
X375475Y200607D01*
X375463Y200577D01*
X375444Y200551D01*
X375417Y200464D01*
X375383Y200379D01*
X375379Y200338D01*
X375372Y200316D01*
X375373Y200284D01*
X375365Y200212D01*
X375365Y146073D01*
X375372Y146027D01*
X375370Y145981D01*
X375392Y145907D01*
X375404Y145830D01*
X375426Y145789D01*
X375439Y145745D01*
X375483Y145681D01*
X375520Y145612D01*
X375553Y145581D01*
X375579Y145543D01*
X375642Y145497D01*
X375698Y145443D01*
X375740Y145424D01*
X375776Y145396D01*
X375850Y145372D01*
X375921Y145339D01*
X375967Y145334D01*
X376010Y145320D01*
X376088Y145321D01*
X376165Y145312D01*
X376210Y145322D01*
X376256Y145323D01*
X376388Y145361D01*
X376406Y145365D01*
X376410Y145367D01*
X376417Y145369D01*
X378676Y146305D01*
X383324Y146305D01*
X387619Y144526D01*
X390906Y141239D01*
X392685Y136944D01*
X392685Y117056D01*
X390906Y112761D01*
X387619Y109474D01*
X383324Y107695D01*
X378676Y107695D01*
X376417Y108631D01*
X376373Y108641D01*
X376331Y108661D01*
X376254Y108669D01*
X376178Y108687D01*
X376132Y108683D01*
X376087Y108688D01*
X376010Y108671D01*
X375933Y108664D01*
X375891Y108645D01*
X375846Y108635D01*
X375779Y108595D01*
X375708Y108564D01*
X375674Y108533D01*
X375635Y108509D01*
X375584Y108450D01*
X375527Y108397D01*
X375505Y108357D01*
X375475Y108322D01*
X375446Y108250D01*
X375409Y108182D01*
X375400Y108137D01*
X375383Y108094D01*
X375368Y107958D01*
X375365Y107940D01*
X375366Y107935D01*
X375365Y107927D01*
X375365Y55495D01*
X375379Y55405D01*
X375387Y55314D01*
X375399Y55285D01*
X375404Y55253D01*
X375447Y55172D01*
X375483Y55088D01*
X375509Y55056D01*
X375520Y55035D01*
X375543Y55013D01*
X375588Y54957D01*
X378206Y52339D01*
X379985Y48044D01*
X379985Y28156D01*
X378206Y23861D01*
X374919Y20574D01*
X370624Y18795D01*
X365976Y18795D01*
G37*
%LPD*%
%LPC*%
G36*
X409156Y293115D02*
X409156Y293115D01*
X404861Y294894D01*
X402243Y297512D01*
X402169Y297565D01*
X402100Y297625D01*
X402069Y297637D01*
X402043Y297656D01*
X401956Y297683D01*
X401871Y297717D01*
X401830Y297721D01*
X401808Y297728D01*
X401776Y297727D01*
X401705Y297735D01*
X379849Y297735D01*
X377252Y298811D01*
X312542Y363521D01*
X312526Y363532D01*
X312513Y363548D01*
X312426Y363604D01*
X312342Y363664D01*
X312323Y363670D01*
X312307Y363681D01*
X312206Y363706D01*
X312107Y363737D01*
X312087Y363736D01*
X312068Y363741D01*
X311965Y363733D01*
X311861Y363730D01*
X311843Y363724D01*
X311823Y363722D01*
X311728Y363682D01*
X311630Y363646D01*
X311615Y363633D01*
X311596Y363626D01*
X311465Y363521D01*
X311419Y363474D01*
X307124Y361695D01*
X302476Y361695D01*
X298181Y363474D01*
X294894Y366761D01*
X293115Y371056D01*
X293115Y390944D01*
X294894Y395239D01*
X298181Y398526D01*
X302476Y400305D01*
X307124Y400305D01*
X311419Y398526D01*
X314706Y395239D01*
X316485Y390944D01*
X316485Y379876D01*
X316499Y379786D01*
X316507Y379695D01*
X316519Y379665D01*
X316524Y379633D01*
X316567Y379552D01*
X316603Y379468D01*
X316629Y379436D01*
X316640Y379415D01*
X316663Y379393D01*
X316708Y379337D01*
X317216Y378829D01*
X317274Y378787D01*
X317326Y378738D01*
X317373Y378716D01*
X317415Y378686D01*
X317484Y378665D01*
X317549Y378634D01*
X317601Y378629D01*
X317651Y378613D01*
X317722Y378615D01*
X317793Y378607D01*
X317844Y378618D01*
X317896Y378620D01*
X317964Y378644D01*
X318034Y378660D01*
X318078Y378686D01*
X318127Y378704D01*
X318183Y378749D01*
X318245Y378786D01*
X318279Y378825D01*
X318319Y378858D01*
X318358Y378918D01*
X318405Y378973D01*
X318424Y379021D01*
X318452Y379065D01*
X318470Y379134D01*
X318497Y379201D01*
X318505Y379272D01*
X318513Y379303D01*
X318511Y379327D01*
X318515Y379368D01*
X318515Y390944D01*
X320294Y395239D01*
X323581Y398526D01*
X327876Y400305D01*
X332524Y400305D01*
X336819Y398526D01*
X340106Y395239D01*
X341885Y390944D01*
X341885Y371056D01*
X340106Y366761D01*
X336819Y363474D01*
X334868Y362666D01*
X334829Y362642D01*
X334786Y362626D01*
X334725Y362577D01*
X334659Y362536D01*
X334629Y362501D01*
X334593Y362472D01*
X334551Y362407D01*
X334502Y362347D01*
X334485Y362304D01*
X334460Y362265D01*
X334441Y362190D01*
X334414Y362117D01*
X334412Y362071D01*
X334400Y362027D01*
X334406Y361949D01*
X334403Y361871D01*
X334416Y361827D01*
X334420Y361782D01*
X334450Y361710D01*
X334472Y361635D01*
X334498Y361598D01*
X334516Y361555D01*
X334601Y361449D01*
X334612Y361433D01*
X334616Y361430D01*
X334621Y361424D01*
X383957Y312088D01*
X384031Y312035D01*
X384101Y311975D01*
X384131Y311963D01*
X384157Y311944D01*
X384244Y311917D01*
X384329Y311883D01*
X384370Y311879D01*
X384392Y311872D01*
X384424Y311873D01*
X384496Y311865D01*
X401705Y311865D01*
X401795Y311879D01*
X401886Y311887D01*
X401915Y311899D01*
X401947Y311904D01*
X402028Y311947D01*
X402112Y311983D01*
X402144Y312009D01*
X402165Y312020D01*
X402187Y312043D01*
X402243Y312088D01*
X404861Y314706D01*
X409156Y316485D01*
X429044Y316485D01*
X433339Y314706D01*
X436626Y311419D01*
X438405Y307124D01*
X438405Y302476D01*
X436626Y298181D01*
X433339Y294894D01*
X429044Y293115D01*
X409156Y293115D01*
G37*
%LPD*%
%LPC*%
G36*
X409156Y267715D02*
X409156Y267715D01*
X404861Y269494D01*
X401989Y272366D01*
X401915Y272419D01*
X401846Y272479D01*
X401815Y272491D01*
X401789Y272510D01*
X401702Y272537D01*
X401617Y272571D01*
X401576Y272575D01*
X401554Y272582D01*
X401522Y272581D01*
X401451Y272589D01*
X367149Y272589D01*
X364552Y273665D01*
X362458Y275759D01*
X276237Y361980D01*
X276184Y362018D01*
X276137Y362064D01*
X276064Y362104D01*
X276037Y362124D01*
X276019Y362129D01*
X275990Y362145D01*
X272781Y363474D01*
X269494Y366761D01*
X267715Y371056D01*
X267715Y390944D01*
X269494Y395239D01*
X272781Y398526D01*
X277076Y400305D01*
X281724Y400305D01*
X286019Y398526D01*
X289306Y395239D01*
X291085Y390944D01*
X291085Y371056D01*
X290125Y368739D01*
X290098Y368625D01*
X290070Y368512D01*
X290070Y368505D01*
X290069Y368499D01*
X290080Y368383D01*
X290089Y368266D01*
X290091Y368261D01*
X290092Y368254D01*
X290140Y368147D01*
X290185Y368040D01*
X290190Y368034D01*
X290192Y368030D01*
X290205Y368016D01*
X290290Y367909D01*
X371257Y286942D01*
X371331Y286889D01*
X371401Y286829D01*
X371431Y286817D01*
X371457Y286798D01*
X371544Y286771D01*
X371629Y286737D01*
X371670Y286733D01*
X371692Y286726D01*
X371724Y286727D01*
X371796Y286719D01*
X401959Y286719D01*
X402049Y286733D01*
X402140Y286741D01*
X402169Y286753D01*
X402201Y286758D01*
X402282Y286801D01*
X402366Y286837D01*
X402398Y286863D01*
X402419Y286874D01*
X402441Y286897D01*
X402443Y286898D01*
X402446Y286901D01*
X402497Y286942D01*
X404861Y289306D01*
X409156Y291085D01*
X429044Y291085D01*
X433339Y289306D01*
X436626Y286019D01*
X438405Y281724D01*
X438405Y277076D01*
X436626Y272781D01*
X433339Y269494D01*
X429044Y267715D01*
X409156Y267715D01*
G37*
%LPD*%
%LPC*%
G36*
X340576Y18795D02*
X340576Y18795D01*
X336281Y20574D01*
X332994Y23861D01*
X331215Y28156D01*
X331215Y48044D01*
X332994Y52339D01*
X335104Y54449D01*
X335157Y54523D01*
X335217Y54592D01*
X335229Y54623D01*
X335248Y54649D01*
X335275Y54736D01*
X335309Y54821D01*
X335313Y54862D01*
X335320Y54884D01*
X335319Y54916D01*
X335327Y54987D01*
X335327Y107717D01*
X335320Y107762D01*
X335322Y107808D01*
X335300Y107883D01*
X335288Y107960D01*
X335266Y108000D01*
X335253Y108044D01*
X335209Y108108D01*
X335172Y108177D01*
X335139Y108209D01*
X335113Y108246D01*
X335051Y108293D01*
X334994Y108347D01*
X334952Y108366D01*
X334916Y108393D01*
X334842Y108417D01*
X334771Y108450D01*
X334725Y108455D01*
X334682Y108469D01*
X334604Y108469D01*
X334527Y108477D01*
X334482Y108468D01*
X334436Y108467D01*
X334304Y108429D01*
X334286Y108425D01*
X334282Y108422D01*
X334275Y108420D01*
X332524Y107695D01*
X327876Y107695D01*
X323581Y109474D01*
X320294Y112761D01*
X318515Y117056D01*
X318515Y136944D01*
X320294Y141239D01*
X322912Y143857D01*
X322955Y143916D01*
X322998Y143961D01*
X323005Y143977D01*
X323025Y144000D01*
X323037Y144031D01*
X323056Y144057D01*
X323083Y144144D01*
X323084Y144147D01*
X323101Y144184D01*
X323102Y144192D01*
X323117Y144229D01*
X323121Y144270D01*
X323128Y144292D01*
X323127Y144324D01*
X323135Y144395D01*
X323135Y168194D01*
X323121Y168285D01*
X323113Y168375D01*
X323101Y168405D01*
X323096Y168437D01*
X323053Y168518D01*
X323017Y168602D01*
X322991Y168634D01*
X322980Y168655D01*
X322957Y168677D01*
X322912Y168733D01*
X320396Y171249D01*
X318635Y175500D01*
X318635Y180100D01*
X320396Y184351D01*
X323649Y187604D01*
X327900Y189365D01*
X332500Y189365D01*
X336751Y187604D01*
X340004Y184351D01*
X341765Y180100D01*
X341765Y175500D01*
X340004Y171249D01*
X337488Y168733D01*
X337435Y168659D01*
X337375Y168589D01*
X337363Y168559D01*
X337344Y168533D01*
X337317Y168446D01*
X337283Y168361D01*
X337279Y168320D01*
X337272Y168298D01*
X337273Y168266D01*
X337265Y168194D01*
X337265Y144395D01*
X337272Y144352D01*
X337272Y144350D01*
X337274Y144339D01*
X337279Y144305D01*
X337287Y144214D01*
X337299Y144184D01*
X337304Y144153D01*
X337321Y144120D01*
X337324Y144110D01*
X337349Y144067D01*
X337383Y143988D01*
X337409Y143956D01*
X337420Y143935D01*
X337439Y143916D01*
X337450Y143899D01*
X337464Y143886D01*
X337488Y143857D01*
X340106Y141239D01*
X341885Y136944D01*
X341885Y123590D01*
X341899Y123500D01*
X341907Y123409D01*
X341919Y123379D01*
X341924Y123347D01*
X341967Y123266D01*
X342003Y123182D01*
X342029Y123150D01*
X342040Y123130D01*
X342063Y123107D01*
X342108Y123051D01*
X344140Y121019D01*
X344198Y120977D01*
X344250Y120928D01*
X344297Y120906D01*
X344339Y120876D01*
X344408Y120855D01*
X344473Y120824D01*
X344525Y120819D01*
X344575Y120803D01*
X344646Y120805D01*
X344717Y120797D01*
X344768Y120808D01*
X344820Y120810D01*
X344888Y120834D01*
X344958Y120850D01*
X345003Y120876D01*
X345051Y120894D01*
X345107Y120939D01*
X345169Y120976D01*
X345203Y121015D01*
X345243Y121048D01*
X345282Y121108D01*
X345329Y121163D01*
X345348Y121211D01*
X345376Y121255D01*
X345394Y121324D01*
X345421Y121391D01*
X345429Y121462D01*
X345437Y121493D01*
X345435Y121517D01*
X345439Y121558D01*
X345439Y125477D01*
X354077Y125477D01*
X354077Y109334D01*
X353221Y109469D01*
X351700Y109964D01*
X350564Y110543D01*
X350492Y110566D01*
X350423Y110597D01*
X350375Y110603D01*
X350329Y110617D01*
X350254Y110616D01*
X350179Y110624D01*
X350131Y110614D01*
X350083Y110614D01*
X350012Y110588D01*
X349938Y110572D01*
X349897Y110548D01*
X349851Y110531D01*
X349792Y110485D01*
X349727Y110446D01*
X349696Y110409D01*
X349658Y110380D01*
X349616Y110317D01*
X349567Y110259D01*
X349549Y110214D01*
X349523Y110174D01*
X349504Y110101D01*
X349475Y110031D01*
X349468Y109966D01*
X349460Y109936D01*
X349462Y109911D01*
X349457Y109864D01*
X349457Y56003D01*
X349471Y55913D01*
X349479Y55822D01*
X349491Y55793D01*
X349496Y55761D01*
X349539Y55680D01*
X349575Y55596D01*
X349601Y55564D01*
X349612Y55543D01*
X349635Y55521D01*
X349680Y55465D01*
X352806Y52339D01*
X354585Y48044D01*
X354585Y28156D01*
X352806Y23861D01*
X349519Y20574D01*
X345224Y18795D01*
X340576Y18795D01*
G37*
%LPD*%
%LPC*%
G36*
X213576Y18795D02*
X213576Y18795D01*
X209281Y20574D01*
X205994Y23861D01*
X204215Y28156D01*
X204215Y30274D01*
X204212Y30294D01*
X204214Y30313D01*
X204192Y30415D01*
X204176Y30517D01*
X204166Y30534D01*
X204162Y30554D01*
X204109Y30643D01*
X204060Y30734D01*
X204046Y30748D01*
X204036Y30765D01*
X203957Y30832D01*
X203882Y30904D01*
X203864Y30912D01*
X203849Y30925D01*
X203753Y30964D01*
X203659Y31007D01*
X203639Y31009D01*
X203621Y31017D01*
X203454Y31035D01*
X202049Y31035D01*
X199452Y32111D01*
X123403Y108160D01*
X123350Y108198D01*
X123303Y108244D01*
X123230Y108284D01*
X123204Y108303D01*
X123185Y108309D01*
X123156Y108325D01*
X120381Y109474D01*
X117094Y112761D01*
X115315Y117056D01*
X115315Y136944D01*
X117094Y141239D01*
X120381Y144526D01*
X124676Y146305D01*
X129324Y146305D01*
X133619Y144526D01*
X136906Y141239D01*
X138685Y136944D01*
X138685Y117056D01*
X137651Y114559D01*
X137624Y114446D01*
X137595Y114332D01*
X137596Y114326D01*
X137594Y114320D01*
X137605Y114203D01*
X137614Y114087D01*
X137617Y114081D01*
X137617Y114075D01*
X137665Y113967D01*
X137711Y113860D01*
X137715Y113855D01*
X137717Y113850D01*
X137730Y113836D01*
X137816Y113729D01*
X203200Y48345D01*
X203238Y48318D01*
X203269Y48284D01*
X203337Y48246D01*
X203400Y48201D01*
X203444Y48188D01*
X203484Y48165D01*
X203561Y48152D01*
X203635Y48129D01*
X203681Y48130D01*
X203726Y48122D01*
X203803Y48133D01*
X203881Y48135D01*
X203924Y48151D01*
X203970Y48158D01*
X204039Y48193D01*
X204112Y48220D01*
X204148Y48248D01*
X204189Y48269D01*
X204243Y48325D01*
X204304Y48373D01*
X204329Y48412D01*
X204361Y48445D01*
X204427Y48564D01*
X204437Y48580D01*
X204438Y48585D01*
X204442Y48592D01*
X205994Y52339D01*
X209281Y55626D01*
X213576Y57405D01*
X218224Y57405D01*
X222519Y55626D01*
X225806Y52339D01*
X227585Y48044D01*
X227585Y28156D01*
X225806Y23861D01*
X222519Y20574D01*
X218224Y18795D01*
X213576Y18795D01*
G37*
%LPD*%
%LPC*%
G36*
X99276Y18795D02*
X99276Y18795D01*
X94981Y20574D01*
X91694Y23861D01*
X89915Y28156D01*
X89915Y48044D01*
X91694Y52339D01*
X94058Y54703D01*
X94111Y54777D01*
X94171Y54846D01*
X94183Y54877D01*
X94202Y54903D01*
X94229Y54990D01*
X94263Y55075D01*
X94267Y55116D01*
X94274Y55138D01*
X94273Y55170D01*
X94281Y55241D01*
X94281Y109859D01*
X94267Y109949D01*
X94259Y110040D01*
X94247Y110069D01*
X94242Y110101D01*
X94199Y110182D01*
X94163Y110266D01*
X94137Y110298D01*
X94126Y110319D01*
X94103Y110341D01*
X94058Y110397D01*
X91694Y112761D01*
X89915Y117056D01*
X89915Y136944D01*
X91694Y141239D01*
X94981Y144526D01*
X99276Y146305D01*
X103924Y146305D01*
X108219Y144526D01*
X111506Y141239D01*
X113285Y136944D01*
X113285Y117056D01*
X111506Y112761D01*
X108634Y109889D01*
X108589Y109826D01*
X108564Y109800D01*
X108559Y109790D01*
X108521Y109746D01*
X108509Y109715D01*
X108490Y109689D01*
X108463Y109602D01*
X108429Y109517D01*
X108425Y109476D01*
X108418Y109454D01*
X108419Y109422D01*
X108411Y109351D01*
X108411Y55749D01*
X108425Y55659D01*
X108433Y55568D01*
X108445Y55539D01*
X108450Y55507D01*
X108493Y55426D01*
X108529Y55342D01*
X108555Y55310D01*
X108566Y55289D01*
X108589Y55267D01*
X108634Y55211D01*
X111506Y52339D01*
X113285Y48044D01*
X113285Y28156D01*
X111506Y23861D01*
X108219Y20574D01*
X103924Y18795D01*
X99276Y18795D01*
G37*
%LPD*%
%LPC*%
G36*
X226276Y361695D02*
X226276Y361695D01*
X221981Y363474D01*
X218694Y366761D01*
X216915Y371056D01*
X216915Y390944D01*
X218694Y395239D01*
X221981Y398526D01*
X226276Y400305D01*
X230924Y400305D01*
X235219Y398526D01*
X238506Y395239D01*
X240285Y390944D01*
X240285Y371056D01*
X238506Y366761D01*
X235219Y363474D01*
X230924Y361695D01*
X226276Y361695D01*
G37*
%LPD*%
%LPC*%
G36*
X378676Y361695D02*
X378676Y361695D01*
X374381Y363474D01*
X371094Y366761D01*
X369315Y371056D01*
X369315Y390944D01*
X371094Y395239D01*
X374381Y398526D01*
X378676Y400305D01*
X383324Y400305D01*
X387619Y398526D01*
X390906Y395239D01*
X392685Y390944D01*
X392685Y371056D01*
X390906Y366761D01*
X387619Y363474D01*
X383324Y361695D01*
X378676Y361695D01*
G37*
%LPD*%
%LPC*%
G36*
X353276Y361695D02*
X353276Y361695D01*
X348981Y363474D01*
X345694Y366761D01*
X343915Y371056D01*
X343915Y390944D01*
X345694Y395239D01*
X348981Y398526D01*
X353276Y400305D01*
X357924Y400305D01*
X362219Y398526D01*
X365506Y395239D01*
X367285Y390944D01*
X367285Y371056D01*
X365506Y366761D01*
X362219Y363474D01*
X357924Y361695D01*
X353276Y361695D01*
G37*
%LPD*%
%LPC*%
G36*
X124676Y361695D02*
X124676Y361695D01*
X120381Y363474D01*
X117094Y366761D01*
X115315Y371056D01*
X115315Y390944D01*
X117094Y395239D01*
X120381Y398526D01*
X124676Y400305D01*
X129324Y400305D01*
X133619Y398526D01*
X136906Y395239D01*
X138685Y390944D01*
X138685Y371056D01*
X136906Y366761D01*
X133619Y363474D01*
X129324Y361695D01*
X124676Y361695D01*
G37*
%LPD*%
%LPC*%
G36*
X251676Y361695D02*
X251676Y361695D01*
X247381Y363474D01*
X244094Y366761D01*
X242315Y371056D01*
X242315Y390944D01*
X244094Y395239D01*
X247381Y398526D01*
X251676Y400305D01*
X256324Y400305D01*
X260619Y398526D01*
X263906Y395239D01*
X265685Y390944D01*
X265685Y371056D01*
X263906Y366761D01*
X260619Y363474D01*
X256324Y361695D01*
X251676Y361695D01*
G37*
%LPD*%
%LPC*%
G36*
X73876Y361695D02*
X73876Y361695D01*
X69581Y363474D01*
X66294Y366761D01*
X64515Y371056D01*
X64515Y390944D01*
X66294Y395239D01*
X69581Y398526D01*
X73876Y400305D01*
X78524Y400305D01*
X82819Y398526D01*
X86106Y395239D01*
X87885Y390944D01*
X87885Y371056D01*
X86106Y366761D01*
X82819Y363474D01*
X78524Y361695D01*
X73876Y361695D01*
G37*
%LPD*%
%LPC*%
G36*
X175476Y361695D02*
X175476Y361695D01*
X171181Y363474D01*
X167894Y366761D01*
X166115Y371056D01*
X166115Y390944D01*
X167894Y395239D01*
X171181Y398526D01*
X175476Y400305D01*
X180124Y400305D01*
X184419Y398526D01*
X187706Y395239D01*
X189485Y390944D01*
X189485Y371056D01*
X187706Y366761D01*
X184419Y363474D01*
X180124Y361695D01*
X175476Y361695D01*
G37*
%LPD*%
%LPC*%
G36*
X200876Y361695D02*
X200876Y361695D01*
X196581Y363474D01*
X193294Y366761D01*
X191515Y371056D01*
X191515Y390944D01*
X193294Y395239D01*
X196581Y398526D01*
X200876Y400305D01*
X205524Y400305D01*
X209819Y398526D01*
X213106Y395239D01*
X214885Y390944D01*
X214885Y371056D01*
X213106Y366761D01*
X209819Y363474D01*
X205524Y361695D01*
X200876Y361695D01*
G37*
%LPD*%
%LPC*%
G36*
X200876Y107695D02*
X200876Y107695D01*
X196581Y109474D01*
X193294Y112761D01*
X191515Y117056D01*
X191515Y136944D01*
X193294Y141239D01*
X196581Y144526D01*
X200876Y146305D01*
X205524Y146305D01*
X209819Y144526D01*
X213106Y141239D01*
X214885Y136944D01*
X214885Y117056D01*
X213106Y112761D01*
X209819Y109474D01*
X205524Y107695D01*
X200876Y107695D01*
G37*
%LPD*%
%LPC*%
G36*
X175476Y107695D02*
X175476Y107695D01*
X171181Y109474D01*
X167894Y112761D01*
X166115Y117056D01*
X166115Y136944D01*
X167894Y141239D01*
X171181Y144526D01*
X175476Y146305D01*
X180124Y146305D01*
X184419Y144526D01*
X187706Y141239D01*
X189485Y136944D01*
X189485Y117056D01*
X187706Y112761D01*
X184419Y109474D01*
X180124Y107695D01*
X175476Y107695D01*
G37*
%LPD*%
%LPC*%
G36*
X150076Y107695D02*
X150076Y107695D01*
X145781Y109474D01*
X142494Y112761D01*
X140715Y117056D01*
X140715Y136944D01*
X142494Y141239D01*
X145781Y144526D01*
X150076Y146305D01*
X154724Y146305D01*
X159019Y144526D01*
X162306Y141239D01*
X164085Y136944D01*
X164085Y117056D01*
X162306Y112761D01*
X159019Y109474D01*
X154724Y107695D01*
X150076Y107695D01*
G37*
%LPD*%
%LPC*%
G36*
X73876Y107695D02*
X73876Y107695D01*
X69581Y109474D01*
X66294Y112761D01*
X64515Y117056D01*
X64515Y136944D01*
X66294Y141239D01*
X69581Y144526D01*
X73876Y146305D01*
X78524Y146305D01*
X82819Y144526D01*
X86106Y141239D01*
X87885Y136944D01*
X87885Y117056D01*
X86106Y112761D01*
X82819Y109474D01*
X78524Y107695D01*
X73876Y107695D01*
G37*
%LPD*%
%LPC*%
G36*
X302476Y107695D02*
X302476Y107695D01*
X298181Y109474D01*
X294894Y112761D01*
X293115Y117056D01*
X293115Y136944D01*
X294894Y141239D01*
X298181Y144526D01*
X302476Y146305D01*
X307124Y146305D01*
X311419Y144526D01*
X314706Y141239D01*
X316485Y136944D01*
X316485Y117056D01*
X314706Y112761D01*
X311419Y109474D01*
X307124Y107695D01*
X302476Y107695D01*
G37*
%LPD*%
%LPC*%
G36*
X277076Y107695D02*
X277076Y107695D01*
X272781Y109474D01*
X269494Y112761D01*
X267715Y117056D01*
X267715Y136944D01*
X269494Y141239D01*
X272781Y144526D01*
X277076Y146305D01*
X281724Y146305D01*
X286019Y144526D01*
X289306Y141239D01*
X291085Y136944D01*
X291085Y117056D01*
X289306Y112761D01*
X286019Y109474D01*
X281724Y107695D01*
X277076Y107695D01*
G37*
%LPD*%
%LPC*%
G36*
X391376Y18795D02*
X391376Y18795D01*
X387081Y20574D01*
X383794Y23861D01*
X382015Y28156D01*
X382015Y48044D01*
X383794Y52339D01*
X387081Y55626D01*
X391376Y57405D01*
X396024Y57405D01*
X400319Y55626D01*
X403606Y52339D01*
X405385Y48044D01*
X405385Y28156D01*
X403606Y23861D01*
X400319Y20574D01*
X396024Y18795D01*
X391376Y18795D01*
G37*
%LPD*%
%LPC*%
G36*
X99276Y361695D02*
X99276Y361695D01*
X94981Y363474D01*
X91694Y366761D01*
X89915Y371056D01*
X89915Y390944D01*
X91694Y395239D01*
X94981Y398526D01*
X99276Y400305D01*
X103924Y400305D01*
X108219Y398526D01*
X111506Y395239D01*
X113285Y390944D01*
X113285Y371056D01*
X111506Y366761D01*
X108219Y363474D01*
X103924Y361695D01*
X99276Y361695D01*
G37*
%LPD*%
%LPC*%
G36*
X226276Y107695D02*
X226276Y107695D01*
X221981Y109474D01*
X218694Y112761D01*
X216915Y117056D01*
X216915Y136944D01*
X218694Y141239D01*
X221981Y144526D01*
X226276Y146305D01*
X230924Y146305D01*
X235219Y144526D01*
X238506Y141239D01*
X240285Y136944D01*
X240285Y117056D01*
X238506Y112761D01*
X235219Y109474D01*
X230924Y107695D01*
X226276Y107695D01*
G37*
%LPD*%
%LPC*%
G36*
X22368Y365759D02*
X22368Y365759D01*
X16767Y368080D01*
X12480Y372367D01*
X10159Y377968D01*
X10159Y384032D01*
X12480Y389633D01*
X16767Y393920D01*
X22368Y396241D01*
X28432Y396241D01*
X34033Y393920D01*
X38320Y389633D01*
X40641Y384032D01*
X40641Y377968D01*
X38320Y372367D01*
X34033Y368080D01*
X28432Y365759D01*
X22368Y365759D01*
G37*
%LPD*%
%LPC*%
G36*
X22368Y111759D02*
X22368Y111759D01*
X16767Y114080D01*
X12480Y118367D01*
X10159Y123968D01*
X10159Y130032D01*
X12480Y135633D01*
X16767Y139920D01*
X22368Y142241D01*
X28432Y142241D01*
X34033Y139920D01*
X38320Y135633D01*
X40641Y130032D01*
X40641Y123968D01*
X38320Y118367D01*
X34033Y114080D01*
X28432Y111759D01*
X22368Y111759D01*
G37*
%LPD*%
%LPC*%
G36*
X327900Y267835D02*
X327900Y267835D01*
X323649Y269596D01*
X320396Y272849D01*
X318635Y277100D01*
X318635Y281700D01*
X320396Y285951D01*
X323649Y289204D01*
X327900Y290965D01*
X332500Y290965D01*
X336751Y289204D01*
X340004Y285951D01*
X341765Y281700D01*
X341765Y277100D01*
X340004Y272849D01*
X336751Y269596D01*
X332500Y267835D01*
X327900Y267835D01*
G37*
%LPD*%
%LPC*%
G36*
X242823Y39623D02*
X242823Y39623D01*
X242823Y55766D01*
X243679Y55631D01*
X245200Y55136D01*
X246625Y54410D01*
X247919Y53470D01*
X249050Y52339D01*
X249990Y51045D01*
X250716Y49620D01*
X251211Y48099D01*
X251461Y46520D01*
X251461Y39623D01*
X242823Y39623D01*
G37*
%LPD*%
%LPC*%
G36*
X128523Y39623D02*
X128523Y39623D01*
X128523Y55766D01*
X129379Y55631D01*
X130900Y55136D01*
X132325Y54410D01*
X133619Y53470D01*
X134750Y52339D01*
X135690Y51045D01*
X136416Y49620D01*
X136911Y48099D01*
X137161Y46520D01*
X137161Y39623D01*
X128523Y39623D01*
G37*
%LPD*%
%LPC*%
G36*
X242823Y36577D02*
X242823Y36577D01*
X251461Y36577D01*
X251461Y29680D01*
X251211Y28101D01*
X250716Y26580D01*
X249990Y25155D01*
X249050Y23861D01*
X247919Y22730D01*
X246625Y21790D01*
X245200Y21064D01*
X243679Y20569D01*
X242823Y20434D01*
X242823Y36577D01*
G37*
%LPD*%
%LPC*%
G36*
X128523Y36577D02*
X128523Y36577D01*
X137161Y36577D01*
X137161Y29680D01*
X136911Y28101D01*
X136416Y26580D01*
X135690Y25155D01*
X134750Y23861D01*
X133619Y22730D01*
X132325Y21790D01*
X130900Y21064D01*
X129379Y20569D01*
X128523Y20434D01*
X128523Y36577D01*
G37*
%LPD*%
%LPC*%
G36*
X345439Y128523D02*
X345439Y128523D01*
X345439Y135420D01*
X345689Y136999D01*
X346184Y138520D01*
X346910Y139945D01*
X347850Y141239D01*
X348981Y142370D01*
X350275Y143310D01*
X351700Y144036D01*
X353221Y144531D01*
X354077Y144666D01*
X354077Y128523D01*
X345439Y128523D01*
G37*
%LPD*%
%LPC*%
G36*
X116839Y39623D02*
X116839Y39623D01*
X116839Y46520D01*
X117089Y48099D01*
X117584Y49620D01*
X118310Y51045D01*
X119250Y52339D01*
X120381Y53470D01*
X121675Y54410D01*
X123100Y55136D01*
X124621Y55631D01*
X125477Y55766D01*
X125477Y39623D01*
X116839Y39623D01*
G37*
%LPD*%
%LPC*%
G36*
X231139Y39623D02*
X231139Y39623D01*
X231139Y46520D01*
X231389Y48099D01*
X231884Y49620D01*
X232610Y51045D01*
X233550Y52339D01*
X234681Y53470D01*
X235975Y54410D01*
X237400Y55136D01*
X238921Y55631D01*
X239777Y55766D01*
X239777Y39623D01*
X231139Y39623D01*
G37*
%LPD*%
%LPC*%
G36*
X124621Y20569D02*
X124621Y20569D01*
X123100Y21064D01*
X121675Y21790D01*
X120381Y22730D01*
X119250Y23861D01*
X118310Y25155D01*
X117584Y26580D01*
X117089Y28101D01*
X116839Y29680D01*
X116839Y36577D01*
X125477Y36577D01*
X125477Y20434D01*
X124621Y20569D01*
G37*
%LPD*%
%LPC*%
G36*
X238921Y20569D02*
X238921Y20569D01*
X237400Y21064D01*
X235975Y21790D01*
X234681Y22730D01*
X233550Y23861D01*
X232610Y25155D01*
X231884Y26580D01*
X231389Y28101D01*
X231139Y29680D01*
X231139Y36577D01*
X239777Y36577D01*
X239777Y20434D01*
X238921Y20569D01*
G37*
%LPD*%
%LPC*%
G36*
X124269Y280923D02*
X124269Y280923D01*
X124269Y286834D01*
X124618Y288589D01*
X125303Y290241D01*
X126297Y291729D01*
X127561Y292993D01*
X129049Y293987D01*
X130701Y294672D01*
X131827Y294896D01*
X131827Y280923D01*
X124269Y280923D01*
G37*
%LPD*%
%LPC*%
G36*
X130701Y264128D02*
X130701Y264128D01*
X129049Y264813D01*
X127561Y265807D01*
X126297Y267071D01*
X125303Y268559D01*
X124618Y270211D01*
X124269Y271966D01*
X124269Y277877D01*
X131827Y277877D01*
X131827Y263904D01*
X130701Y264128D01*
G37*
%LPD*%
%LPC*%
G36*
X52323Y217423D02*
X52323Y217423D01*
X52323Y225825D01*
X53151Y225694D01*
X54654Y225205D01*
X56063Y224488D01*
X57341Y223559D01*
X58459Y222441D01*
X59388Y221163D01*
X60105Y219754D01*
X60594Y218251D01*
X60725Y217423D01*
X52323Y217423D01*
G37*
%LPD*%
%LPC*%
G36*
X40875Y217423D02*
X40875Y217423D01*
X41006Y218251D01*
X41495Y219754D01*
X42212Y221163D01*
X43141Y222441D01*
X44259Y223559D01*
X45537Y224488D01*
X46946Y225205D01*
X48449Y225694D01*
X49277Y225825D01*
X49277Y217423D01*
X40875Y217423D01*
G37*
%LPD*%
%LPC*%
G36*
X52323Y214377D02*
X52323Y214377D01*
X60725Y214377D01*
X60594Y213549D01*
X60105Y212046D01*
X59388Y210637D01*
X58459Y209359D01*
X57341Y208241D01*
X56063Y207312D01*
X54654Y206595D01*
X53151Y206106D01*
X52323Y205975D01*
X52323Y214377D01*
G37*
%LPD*%
%LPC*%
G36*
X48449Y206106D02*
X48449Y206106D01*
X46946Y206595D01*
X45537Y207312D01*
X44259Y208241D01*
X43141Y209359D01*
X42212Y210637D01*
X41495Y212046D01*
X41006Y213549D01*
X40875Y214377D01*
X49277Y214377D01*
X49277Y205975D01*
X48449Y206106D01*
G37*
%LPD*%
%LPC*%
G36*
X50799Y215899D02*
X50799Y215899D01*
X50799Y215901D01*
X50801Y215901D01*
X50801Y215899D01*
X50799Y215899D01*
G37*
%LPD*%
%LPC*%
G36*
X126999Y38099D02*
X126999Y38099D01*
X126999Y38101D01*
X127001Y38101D01*
X127001Y38099D01*
X126999Y38099D01*
G37*
%LPD*%
%LPC*%
G36*
X241299Y38099D02*
X241299Y38099D01*
X241299Y38101D01*
X241301Y38101D01*
X241301Y38099D01*
X241299Y38099D01*
G37*
%LPD*%
D10*
X279400Y279400D03*
X254000Y279400D03*
X228600Y279400D03*
D11*
X76200Y134620D02*
X76200Y119380D01*
X101600Y119380D02*
X101600Y134620D01*
X127000Y134620D02*
X127000Y119380D01*
X152400Y119380D02*
X152400Y134620D01*
X177800Y134620D02*
X177800Y119380D01*
X203200Y119380D02*
X203200Y134620D01*
X228600Y134620D02*
X228600Y119380D01*
X254000Y119380D02*
X254000Y134620D01*
X279400Y134620D02*
X279400Y119380D01*
X304800Y119380D02*
X304800Y134620D01*
X330200Y134620D02*
X330200Y119380D01*
X355600Y119380D02*
X355600Y134620D01*
X381000Y134620D02*
X381000Y119380D01*
X76200Y373380D02*
X76200Y388620D01*
X101600Y388620D02*
X101600Y373380D01*
X127000Y373380D02*
X127000Y388620D01*
X152400Y388620D02*
X152400Y373380D01*
X177800Y373380D02*
X177800Y388620D01*
X203200Y388620D02*
X203200Y373380D01*
X228600Y373380D02*
X228600Y388620D01*
X254000Y388620D02*
X254000Y373380D01*
X279400Y373380D02*
X279400Y388620D01*
X304800Y388620D02*
X304800Y373380D01*
X330200Y373380D02*
X330200Y388620D01*
X355600Y388620D02*
X355600Y373380D01*
X381000Y373380D02*
X381000Y388620D01*
D12*
X50800Y215900D03*
X152400Y215900D03*
D13*
X152400Y272860D02*
X152400Y285940D01*
X133350Y285940D02*
X133350Y272860D01*
X171450Y272860D02*
X171450Y285940D01*
D12*
X330200Y279400D03*
X330200Y177800D03*
D11*
X393700Y45720D02*
X393700Y30480D01*
X368300Y30480D02*
X368300Y45720D01*
X342900Y45720D02*
X342900Y30480D01*
X241300Y30480D02*
X241300Y45720D01*
X215900Y45720D02*
X215900Y30480D01*
X127000Y30480D02*
X127000Y45720D01*
X101600Y45720D02*
X101600Y30480D01*
X411480Y254000D02*
X426720Y254000D01*
X426720Y279400D02*
X411480Y279400D01*
X411480Y304800D02*
X426720Y304800D01*
X426720Y228600D02*
X411480Y228600D01*
D14*
X152654Y266700D02*
X152654Y278892D01*
X152400Y279400D01*
X152654Y266700D02*
X152400Y266573D01*
X152400Y215900D01*
X152654Y281940D02*
X152654Y381000D01*
X152400Y381000D01*
X152654Y281940D02*
X152400Y279400D01*
X381254Y304800D02*
X419100Y304800D01*
X381254Y304800D02*
X305054Y381000D01*
X304800Y381000D01*
X254000Y279400D02*
X254000Y127000D01*
X101346Y126238D02*
X101346Y38227D01*
X101600Y38100D01*
X101346Y126238D02*
X101600Y127000D01*
X203454Y38100D02*
X215900Y38100D01*
X127000Y114554D02*
X127000Y127000D01*
X127000Y114554D02*
X203454Y38100D01*
X330200Y127000D02*
X330200Y177800D01*
X342392Y112776D02*
X342392Y38354D01*
X342392Y112776D02*
X330962Y124206D01*
X342392Y38354D02*
X342900Y38100D01*
X330962Y124206D02*
X330200Y127000D01*
X228092Y279654D02*
X171704Y279654D01*
X171450Y279400D01*
X228092Y279654D02*
X228600Y279400D01*
X368300Y203454D02*
X368300Y38100D01*
X370967Y206121D02*
X418592Y253746D01*
X370967Y206121D02*
X368300Y203454D01*
X418592Y253746D02*
X419100Y254000D01*
X237998Y281178D02*
X231140Y281178D01*
X237998Y281178D02*
X248666Y291846D01*
X285242Y291846D01*
X370967Y206121D01*
X231140Y281178D02*
X228600Y279400D01*
X368554Y279654D02*
X418592Y279654D01*
X279400Y368808D02*
X279400Y381000D01*
X279400Y368808D02*
X368554Y279654D01*
X418592Y279654D02*
X419100Y279400D01*
M02*
