G04 EAGLE Gerber RS-274X export*
G75*
%MOMM*%
%FSLAX34Y34*%
%LPD*%
%INSilkscreen Top*%
%IPPOS*%
%AMOC8*
5,1,8,0,0,1.08239X$1,22.5*%
G01*
%ADD10C,0.101600*%
%ADD11C,0.076200*%
%ADD12C,0.152400*%
%ADD13C,0.127000*%
%ADD14R,0.555000X0.600000*%
%ADD15R,0.600000X0.555000*%
%ADD16C,0.254000*%
%ADD17C,0.200000*%


D10*
X438658Y15748D02*
X450342Y19643D01*
X438658Y23537D01*
X450342Y29662D02*
X450342Y32907D01*
X450342Y29662D02*
X450340Y29575D01*
X450334Y29487D01*
X450324Y29401D01*
X450311Y29314D01*
X450293Y29229D01*
X450272Y29144D01*
X450247Y29060D01*
X450218Y28978D01*
X450185Y28897D01*
X450149Y28817D01*
X450110Y28739D01*
X450066Y28663D01*
X450020Y28589D01*
X449970Y28518D01*
X449917Y28448D01*
X449861Y28381D01*
X449802Y28317D01*
X449740Y28255D01*
X449676Y28196D01*
X449609Y28140D01*
X449539Y28087D01*
X449468Y28037D01*
X449394Y27991D01*
X449318Y27947D01*
X449240Y27908D01*
X449160Y27872D01*
X449079Y27839D01*
X448997Y27810D01*
X448913Y27785D01*
X448828Y27764D01*
X448743Y27746D01*
X448656Y27733D01*
X448570Y27723D01*
X448482Y27717D01*
X448395Y27715D01*
X448395Y27714D02*
X445149Y27714D01*
X445149Y27715D02*
X445048Y27717D01*
X444948Y27723D01*
X444848Y27733D01*
X444748Y27746D01*
X444649Y27764D01*
X444550Y27785D01*
X444453Y27810D01*
X444356Y27839D01*
X444261Y27872D01*
X444167Y27908D01*
X444075Y27948D01*
X443984Y27991D01*
X443895Y28038D01*
X443808Y28088D01*
X443722Y28142D01*
X443639Y28199D01*
X443559Y28259D01*
X443480Y28322D01*
X443404Y28389D01*
X443331Y28458D01*
X443261Y28530D01*
X443193Y28604D01*
X443128Y28681D01*
X443067Y28761D01*
X443008Y28843D01*
X442953Y28927D01*
X442901Y29013D01*
X442852Y29101D01*
X442807Y29191D01*
X442765Y29283D01*
X442727Y29376D01*
X442693Y29471D01*
X442662Y29566D01*
X442635Y29663D01*
X442612Y29761D01*
X442592Y29860D01*
X442577Y29960D01*
X442565Y30060D01*
X442557Y30160D01*
X442553Y30261D01*
X442553Y30361D01*
X442557Y30462D01*
X442565Y30562D01*
X442577Y30662D01*
X442592Y30762D01*
X442612Y30861D01*
X442635Y30959D01*
X442662Y31056D01*
X442693Y31151D01*
X442727Y31246D01*
X442765Y31339D01*
X442807Y31431D01*
X442852Y31521D01*
X442901Y31609D01*
X442953Y31695D01*
X443008Y31779D01*
X443067Y31861D01*
X443128Y31941D01*
X443193Y32018D01*
X443261Y32092D01*
X443331Y32164D01*
X443404Y32233D01*
X443480Y32300D01*
X443559Y32363D01*
X443639Y32423D01*
X443722Y32480D01*
X443808Y32534D01*
X443895Y32584D01*
X443984Y32631D01*
X444075Y32674D01*
X444167Y32714D01*
X444261Y32750D01*
X444356Y32783D01*
X444453Y32812D01*
X444550Y32837D01*
X444649Y32858D01*
X444748Y32876D01*
X444848Y32889D01*
X444948Y32899D01*
X445048Y32905D01*
X445149Y32907D01*
X446447Y32907D01*
X446447Y27714D01*
X445798Y38594D02*
X447096Y41839D01*
X445799Y38594D02*
X445766Y38519D01*
X445730Y38445D01*
X445691Y38373D01*
X445648Y38303D01*
X445602Y38236D01*
X445552Y38170D01*
X445500Y38108D01*
X445444Y38047D01*
X445386Y37990D01*
X445325Y37935D01*
X445261Y37884D01*
X445195Y37836D01*
X445126Y37791D01*
X445056Y37749D01*
X444983Y37711D01*
X444909Y37676D01*
X444833Y37645D01*
X444756Y37618D01*
X444677Y37595D01*
X444598Y37575D01*
X444517Y37560D01*
X444436Y37548D01*
X444354Y37540D01*
X444273Y37536D01*
X444191Y37537D01*
X444109Y37541D01*
X444027Y37549D01*
X443946Y37561D01*
X443866Y37577D01*
X443786Y37597D01*
X443708Y37621D01*
X443631Y37649D01*
X443555Y37680D01*
X443481Y37715D01*
X443409Y37753D01*
X443338Y37795D01*
X443270Y37841D01*
X443204Y37889D01*
X443141Y37941D01*
X443080Y37996D01*
X443022Y38054D01*
X442966Y38114D01*
X442914Y38177D01*
X442865Y38243D01*
X442819Y38311D01*
X442777Y38381D01*
X442737Y38453D01*
X442702Y38527D01*
X442670Y38602D01*
X442642Y38679D01*
X442618Y38757D01*
X442597Y38837D01*
X442580Y38917D01*
X442568Y38998D01*
X442559Y39079D01*
X442554Y39161D01*
X442553Y39243D01*
X442557Y39420D01*
X442566Y39597D01*
X442580Y39774D01*
X442597Y39951D01*
X442619Y40126D01*
X442644Y40302D01*
X442675Y40476D01*
X442709Y40650D01*
X442747Y40823D01*
X442790Y40995D01*
X442837Y41166D01*
X442887Y41336D01*
X442942Y41505D01*
X443001Y41672D01*
X443064Y41838D01*
X443131Y42002D01*
X443202Y42164D01*
X447096Y41839D02*
X447129Y41914D01*
X447165Y41988D01*
X447204Y42060D01*
X447247Y42130D01*
X447293Y42197D01*
X447343Y42263D01*
X447395Y42325D01*
X447451Y42386D01*
X447509Y42443D01*
X447570Y42498D01*
X447634Y42549D01*
X447700Y42597D01*
X447769Y42642D01*
X447839Y42684D01*
X447912Y42722D01*
X447986Y42757D01*
X448062Y42788D01*
X448139Y42815D01*
X448218Y42838D01*
X448298Y42858D01*
X448378Y42873D01*
X448459Y42885D01*
X448541Y42893D01*
X448622Y42897D01*
X448704Y42896D01*
X448786Y42892D01*
X448868Y42884D01*
X448949Y42872D01*
X449029Y42856D01*
X449109Y42836D01*
X449187Y42812D01*
X449264Y42784D01*
X449340Y42753D01*
X449414Y42718D01*
X449486Y42680D01*
X449557Y42638D01*
X449625Y42592D01*
X449691Y42544D01*
X449754Y42492D01*
X449815Y42437D01*
X449873Y42379D01*
X449929Y42319D01*
X449981Y42256D01*
X450030Y42190D01*
X450076Y42122D01*
X450118Y42052D01*
X450158Y41980D01*
X450193Y41906D01*
X450225Y41831D01*
X450253Y41754D01*
X450277Y41676D01*
X450298Y41596D01*
X450315Y41516D01*
X450327Y41435D01*
X450336Y41354D01*
X450341Y41272D01*
X450342Y41190D01*
X450342Y41191D02*
X450335Y40931D01*
X450322Y40671D01*
X450303Y40411D01*
X450278Y40152D01*
X450246Y39893D01*
X450209Y39636D01*
X450165Y39379D01*
X450116Y39123D01*
X450060Y38869D01*
X449999Y38616D01*
X449931Y38365D01*
X449857Y38115D01*
X449778Y37867D01*
X449693Y37621D01*
X442553Y46559D02*
X442553Y50454D01*
X438658Y47857D02*
X448395Y47857D01*
X448482Y47859D01*
X448570Y47865D01*
X448656Y47875D01*
X448743Y47888D01*
X448828Y47906D01*
X448913Y47927D01*
X448997Y47952D01*
X449079Y47981D01*
X449160Y48014D01*
X449240Y48050D01*
X449318Y48089D01*
X449394Y48133D01*
X449468Y48179D01*
X449539Y48229D01*
X449609Y48282D01*
X449676Y48338D01*
X449740Y48397D01*
X449802Y48459D01*
X449861Y48523D01*
X449917Y48590D01*
X449970Y48660D01*
X450020Y48731D01*
X450066Y48805D01*
X450110Y48881D01*
X450149Y48959D01*
X450185Y49039D01*
X450218Y49120D01*
X450247Y49202D01*
X450272Y49286D01*
X450293Y49371D01*
X450311Y49456D01*
X450324Y49543D01*
X450334Y49629D01*
X450340Y49717D01*
X450342Y49804D01*
X450342Y50454D01*
X450342Y55213D02*
X442553Y55213D01*
X442553Y59107D01*
X443851Y59107D01*
X445149Y62766D02*
X447746Y62766D01*
X445149Y62767D02*
X445048Y62769D01*
X444948Y62775D01*
X444848Y62785D01*
X444748Y62798D01*
X444649Y62816D01*
X444550Y62837D01*
X444453Y62862D01*
X444356Y62891D01*
X444261Y62924D01*
X444167Y62960D01*
X444075Y63000D01*
X443984Y63043D01*
X443895Y63090D01*
X443808Y63140D01*
X443722Y63194D01*
X443639Y63251D01*
X443559Y63311D01*
X443480Y63374D01*
X443404Y63441D01*
X443331Y63510D01*
X443261Y63582D01*
X443193Y63656D01*
X443128Y63733D01*
X443067Y63813D01*
X443008Y63895D01*
X442953Y63979D01*
X442901Y64065D01*
X442852Y64153D01*
X442807Y64243D01*
X442765Y64335D01*
X442727Y64428D01*
X442693Y64523D01*
X442662Y64618D01*
X442635Y64715D01*
X442612Y64813D01*
X442592Y64912D01*
X442577Y65012D01*
X442565Y65112D01*
X442557Y65212D01*
X442553Y65313D01*
X442553Y65413D01*
X442557Y65514D01*
X442565Y65614D01*
X442577Y65714D01*
X442592Y65814D01*
X442612Y65913D01*
X442635Y66011D01*
X442662Y66108D01*
X442693Y66203D01*
X442727Y66298D01*
X442765Y66391D01*
X442807Y66483D01*
X442852Y66573D01*
X442901Y66661D01*
X442953Y66747D01*
X443008Y66831D01*
X443067Y66913D01*
X443128Y66993D01*
X443193Y67070D01*
X443261Y67144D01*
X443331Y67216D01*
X443404Y67285D01*
X443480Y67352D01*
X443559Y67415D01*
X443639Y67475D01*
X443722Y67532D01*
X443808Y67586D01*
X443895Y67636D01*
X443984Y67683D01*
X444075Y67726D01*
X444167Y67766D01*
X444261Y67802D01*
X444356Y67835D01*
X444453Y67864D01*
X444550Y67889D01*
X444649Y67910D01*
X444748Y67928D01*
X444848Y67941D01*
X444948Y67951D01*
X445048Y67957D01*
X445149Y67959D01*
X447746Y67959D01*
X447847Y67957D01*
X447947Y67951D01*
X448047Y67941D01*
X448147Y67928D01*
X448246Y67910D01*
X448345Y67889D01*
X448442Y67864D01*
X448539Y67835D01*
X448634Y67802D01*
X448728Y67766D01*
X448820Y67726D01*
X448911Y67683D01*
X449000Y67636D01*
X449087Y67586D01*
X449173Y67532D01*
X449256Y67475D01*
X449336Y67415D01*
X449415Y67352D01*
X449491Y67285D01*
X449564Y67216D01*
X449634Y67144D01*
X449702Y67070D01*
X449767Y66993D01*
X449828Y66913D01*
X449887Y66831D01*
X449942Y66747D01*
X449994Y66661D01*
X450043Y66573D01*
X450088Y66483D01*
X450130Y66391D01*
X450168Y66298D01*
X450202Y66203D01*
X450233Y66108D01*
X450260Y66011D01*
X450283Y65913D01*
X450303Y65814D01*
X450318Y65714D01*
X450330Y65614D01*
X450338Y65514D01*
X450342Y65413D01*
X450342Y65313D01*
X450338Y65212D01*
X450330Y65112D01*
X450318Y65012D01*
X450303Y64912D01*
X450283Y64813D01*
X450260Y64715D01*
X450233Y64618D01*
X450202Y64523D01*
X450168Y64428D01*
X450130Y64335D01*
X450088Y64243D01*
X450043Y64153D01*
X449994Y64065D01*
X449942Y63979D01*
X449887Y63895D01*
X449828Y63813D01*
X449767Y63733D01*
X449702Y63656D01*
X449634Y63582D01*
X449564Y63510D01*
X449491Y63441D01*
X449415Y63374D01*
X449336Y63311D01*
X449256Y63251D01*
X449173Y63194D01*
X449087Y63140D01*
X449000Y63090D01*
X448911Y63043D01*
X448820Y63000D01*
X448728Y62960D01*
X448634Y62924D01*
X448539Y62891D01*
X448442Y62862D01*
X448345Y62837D01*
X448246Y62816D01*
X448147Y62798D01*
X448047Y62785D01*
X447947Y62775D01*
X447847Y62769D01*
X447746Y62767D01*
X450342Y73053D02*
X442553Y73053D01*
X442553Y76299D01*
X442555Y76386D01*
X442561Y76474D01*
X442571Y76560D01*
X442584Y76647D01*
X442602Y76732D01*
X442623Y76817D01*
X442648Y76901D01*
X442677Y76983D01*
X442710Y77064D01*
X442746Y77144D01*
X442785Y77222D01*
X442829Y77298D01*
X442875Y77372D01*
X442925Y77443D01*
X442978Y77513D01*
X443034Y77580D01*
X443093Y77644D01*
X443154Y77706D01*
X443219Y77765D01*
X443286Y77821D01*
X443356Y77874D01*
X443427Y77924D01*
X443501Y77970D01*
X443577Y78014D01*
X443655Y78053D01*
X443735Y78089D01*
X443816Y78122D01*
X443898Y78151D01*
X443982Y78176D01*
X444067Y78197D01*
X444152Y78215D01*
X444239Y78228D01*
X444325Y78238D01*
X444413Y78244D01*
X444500Y78246D01*
X450342Y78246D01*
X450342Y85229D02*
X450342Y88474D01*
X450342Y85229D02*
X450340Y85142D01*
X450334Y85054D01*
X450324Y84968D01*
X450311Y84881D01*
X450293Y84796D01*
X450272Y84711D01*
X450247Y84627D01*
X450218Y84545D01*
X450185Y84464D01*
X450149Y84384D01*
X450110Y84306D01*
X450066Y84230D01*
X450020Y84156D01*
X449970Y84085D01*
X449917Y84015D01*
X449861Y83948D01*
X449802Y83884D01*
X449740Y83822D01*
X449676Y83763D01*
X449609Y83707D01*
X449539Y83654D01*
X449468Y83604D01*
X449394Y83558D01*
X449318Y83514D01*
X449240Y83475D01*
X449160Y83439D01*
X449079Y83406D01*
X448997Y83377D01*
X448913Y83352D01*
X448828Y83331D01*
X448743Y83313D01*
X448656Y83300D01*
X448570Y83290D01*
X448482Y83284D01*
X448395Y83282D01*
X448395Y83281D02*
X444500Y83281D01*
X444500Y83282D02*
X444413Y83284D01*
X444325Y83290D01*
X444239Y83300D01*
X444152Y83313D01*
X444067Y83331D01*
X443982Y83352D01*
X443898Y83377D01*
X443816Y83406D01*
X443735Y83439D01*
X443655Y83475D01*
X443577Y83514D01*
X443501Y83558D01*
X443427Y83604D01*
X443356Y83654D01*
X443286Y83707D01*
X443219Y83763D01*
X443155Y83822D01*
X443093Y83884D01*
X443034Y83948D01*
X442978Y84015D01*
X442925Y84085D01*
X442875Y84156D01*
X442829Y84230D01*
X442785Y84306D01*
X442746Y84384D01*
X442710Y84464D01*
X442677Y84545D01*
X442648Y84627D01*
X442623Y84711D01*
X442602Y84796D01*
X442584Y84881D01*
X442571Y84968D01*
X442561Y85054D01*
X442555Y85142D01*
X442553Y85229D01*
X442553Y88474D01*
X452289Y88474D01*
X452376Y88472D01*
X452464Y88466D01*
X452550Y88456D01*
X452637Y88443D01*
X452722Y88425D01*
X452807Y88404D01*
X452891Y88379D01*
X452973Y88350D01*
X453054Y88317D01*
X453134Y88281D01*
X453212Y88242D01*
X453288Y88198D01*
X453362Y88152D01*
X453433Y88102D01*
X453503Y88049D01*
X453570Y87993D01*
X453634Y87934D01*
X453696Y87872D01*
X453755Y87808D01*
X453811Y87741D01*
X453864Y87671D01*
X453914Y87600D01*
X453960Y87526D01*
X454004Y87450D01*
X454043Y87372D01*
X454079Y87292D01*
X454112Y87211D01*
X454141Y87129D01*
X454166Y87045D01*
X454187Y86960D01*
X454205Y86875D01*
X454218Y86788D01*
X454228Y86702D01*
X454234Y86614D01*
X454236Y86527D01*
X454237Y86527D02*
X454237Y83930D01*
X450342Y103350D02*
X450340Y103449D01*
X450334Y103549D01*
X450325Y103648D01*
X450312Y103746D01*
X450295Y103844D01*
X450274Y103942D01*
X450249Y104038D01*
X450221Y104133D01*
X450189Y104227D01*
X450154Y104320D01*
X450115Y104412D01*
X450072Y104502D01*
X450027Y104590D01*
X449977Y104677D01*
X449925Y104761D01*
X449869Y104844D01*
X449811Y104924D01*
X449749Y105002D01*
X449684Y105077D01*
X449616Y105150D01*
X449546Y105220D01*
X449473Y105288D01*
X449398Y105353D01*
X449320Y105415D01*
X449240Y105473D01*
X449157Y105529D01*
X449073Y105581D01*
X448986Y105631D01*
X448898Y105676D01*
X448808Y105719D01*
X448716Y105758D01*
X448623Y105793D01*
X448529Y105825D01*
X448434Y105853D01*
X448338Y105878D01*
X448240Y105899D01*
X448142Y105916D01*
X448044Y105929D01*
X447945Y105938D01*
X447845Y105944D01*
X447746Y105946D01*
X450342Y103350D02*
X450340Y103206D01*
X450334Y103061D01*
X450325Y102917D01*
X450312Y102774D01*
X450295Y102630D01*
X450274Y102487D01*
X450249Y102345D01*
X450221Y102204D01*
X450189Y102063D01*
X450153Y101923D01*
X450114Y101784D01*
X450071Y101646D01*
X450024Y101510D01*
X449974Y101374D01*
X449920Y101240D01*
X449863Y101108D01*
X449802Y100977D01*
X449738Y100848D01*
X449670Y100720D01*
X449600Y100594D01*
X449525Y100470D01*
X449448Y100349D01*
X449367Y100229D01*
X449284Y100111D01*
X449197Y99996D01*
X449107Y99883D01*
X449014Y99772D01*
X448919Y99664D01*
X448820Y99558D01*
X448719Y99455D01*
X441254Y99780D02*
X441155Y99782D01*
X441055Y99788D01*
X440956Y99797D01*
X440858Y99810D01*
X440760Y99827D01*
X440662Y99848D01*
X440566Y99873D01*
X440471Y99901D01*
X440377Y99933D01*
X440284Y99968D01*
X440192Y100007D01*
X440102Y100050D01*
X440014Y100095D01*
X439927Y100145D01*
X439843Y100197D01*
X439760Y100253D01*
X439680Y100311D01*
X439602Y100373D01*
X439527Y100438D01*
X439454Y100506D01*
X439384Y100576D01*
X439316Y100649D01*
X439251Y100724D01*
X439189Y100802D01*
X439131Y100882D01*
X439075Y100965D01*
X439023Y101049D01*
X438973Y101136D01*
X438928Y101224D01*
X438885Y101314D01*
X438846Y101406D01*
X438811Y101499D01*
X438779Y101593D01*
X438751Y101688D01*
X438726Y101784D01*
X438705Y101882D01*
X438688Y101980D01*
X438675Y102078D01*
X438666Y102177D01*
X438660Y102277D01*
X438658Y102376D01*
X438660Y102512D01*
X438666Y102648D01*
X438675Y102784D01*
X438688Y102920D01*
X438706Y103055D01*
X438726Y103189D01*
X438751Y103323D01*
X438779Y103457D01*
X438812Y103589D01*
X438847Y103720D01*
X438887Y103851D01*
X438930Y103980D01*
X438976Y104108D01*
X439027Y104234D01*
X439080Y104360D01*
X439138Y104483D01*
X439198Y104605D01*
X439262Y104725D01*
X439330Y104844D01*
X439400Y104960D01*
X439474Y105074D01*
X439551Y105187D01*
X439632Y105297D01*
X443526Y101078D02*
X443473Y100992D01*
X443416Y100908D01*
X443357Y100826D01*
X443294Y100746D01*
X443228Y100669D01*
X443160Y100594D01*
X443088Y100522D01*
X443014Y100453D01*
X442937Y100387D01*
X442858Y100324D01*
X442776Y100264D01*
X442692Y100207D01*
X442606Y100153D01*
X442518Y100103D01*
X442428Y100056D01*
X442337Y100012D01*
X442243Y99973D01*
X442149Y99936D01*
X442053Y99904D01*
X441955Y99875D01*
X441857Y99850D01*
X441758Y99829D01*
X441658Y99811D01*
X441558Y99798D01*
X441457Y99788D01*
X441355Y99782D01*
X441254Y99780D01*
X445474Y104648D02*
X445527Y104734D01*
X445584Y104818D01*
X445643Y104900D01*
X445706Y104980D01*
X445772Y105057D01*
X445840Y105132D01*
X445912Y105204D01*
X445986Y105273D01*
X446063Y105339D01*
X446142Y105402D01*
X446224Y105462D01*
X446308Y105519D01*
X446394Y105573D01*
X446482Y105623D01*
X446572Y105670D01*
X446663Y105714D01*
X446757Y105753D01*
X446851Y105790D01*
X446947Y105822D01*
X447045Y105851D01*
X447143Y105876D01*
X447242Y105897D01*
X447342Y105915D01*
X447442Y105928D01*
X447543Y105938D01*
X447645Y105944D01*
X447746Y105946D01*
X445474Y104648D02*
X443526Y101078D01*
X450342Y112338D02*
X450342Y115584D01*
X450342Y112338D02*
X450340Y112251D01*
X450334Y112163D01*
X450324Y112077D01*
X450311Y111990D01*
X450293Y111905D01*
X450272Y111820D01*
X450247Y111736D01*
X450218Y111654D01*
X450185Y111573D01*
X450149Y111493D01*
X450110Y111415D01*
X450066Y111339D01*
X450020Y111265D01*
X449970Y111194D01*
X449917Y111124D01*
X449861Y111057D01*
X449802Y110993D01*
X449740Y110931D01*
X449676Y110872D01*
X449609Y110816D01*
X449539Y110763D01*
X449468Y110713D01*
X449394Y110667D01*
X449318Y110623D01*
X449240Y110584D01*
X449160Y110548D01*
X449079Y110515D01*
X448997Y110486D01*
X448913Y110461D01*
X448828Y110440D01*
X448743Y110422D01*
X448656Y110409D01*
X448570Y110399D01*
X448482Y110393D01*
X448395Y110391D01*
X445149Y110391D01*
X445149Y110392D02*
X445048Y110394D01*
X444948Y110400D01*
X444848Y110410D01*
X444748Y110423D01*
X444649Y110441D01*
X444550Y110462D01*
X444453Y110487D01*
X444356Y110516D01*
X444261Y110549D01*
X444167Y110585D01*
X444075Y110625D01*
X443984Y110668D01*
X443895Y110715D01*
X443808Y110765D01*
X443722Y110819D01*
X443639Y110876D01*
X443559Y110936D01*
X443480Y110999D01*
X443404Y111066D01*
X443331Y111135D01*
X443261Y111207D01*
X443193Y111281D01*
X443128Y111358D01*
X443067Y111438D01*
X443008Y111520D01*
X442953Y111604D01*
X442901Y111690D01*
X442852Y111778D01*
X442807Y111868D01*
X442765Y111960D01*
X442727Y112053D01*
X442693Y112148D01*
X442662Y112243D01*
X442635Y112340D01*
X442612Y112438D01*
X442592Y112537D01*
X442577Y112637D01*
X442565Y112737D01*
X442557Y112837D01*
X442553Y112938D01*
X442553Y113038D01*
X442557Y113139D01*
X442565Y113239D01*
X442577Y113339D01*
X442592Y113439D01*
X442612Y113538D01*
X442635Y113636D01*
X442662Y113733D01*
X442693Y113828D01*
X442727Y113923D01*
X442765Y114016D01*
X442807Y114108D01*
X442852Y114198D01*
X442901Y114286D01*
X442953Y114372D01*
X443008Y114456D01*
X443067Y114538D01*
X443128Y114618D01*
X443193Y114695D01*
X443261Y114769D01*
X443331Y114841D01*
X443404Y114910D01*
X443480Y114977D01*
X443559Y115040D01*
X443639Y115100D01*
X443722Y115157D01*
X443808Y115211D01*
X443895Y115261D01*
X443984Y115308D01*
X444075Y115351D01*
X444167Y115391D01*
X444261Y115427D01*
X444356Y115460D01*
X444453Y115489D01*
X444550Y115514D01*
X444649Y115535D01*
X444748Y115553D01*
X444848Y115566D01*
X444948Y115576D01*
X445048Y115582D01*
X445149Y115584D01*
X446447Y115584D01*
X446447Y110391D01*
X450342Y120678D02*
X442553Y120678D01*
X442553Y123924D01*
X442555Y124011D01*
X442561Y124099D01*
X442571Y124185D01*
X442584Y124272D01*
X442602Y124357D01*
X442623Y124442D01*
X442648Y124526D01*
X442677Y124608D01*
X442710Y124689D01*
X442746Y124769D01*
X442785Y124847D01*
X442829Y124923D01*
X442875Y124997D01*
X442925Y125068D01*
X442978Y125138D01*
X443034Y125205D01*
X443093Y125269D01*
X443154Y125331D01*
X443219Y125390D01*
X443286Y125446D01*
X443356Y125499D01*
X443427Y125549D01*
X443501Y125595D01*
X443577Y125639D01*
X443655Y125678D01*
X443735Y125714D01*
X443816Y125747D01*
X443898Y125776D01*
X443982Y125801D01*
X444067Y125822D01*
X444152Y125840D01*
X444239Y125853D01*
X444325Y125863D01*
X444413Y125869D01*
X444500Y125871D01*
X450342Y125871D01*
X445798Y131939D02*
X447096Y135184D01*
X445799Y131939D02*
X445766Y131864D01*
X445730Y131790D01*
X445691Y131718D01*
X445648Y131648D01*
X445602Y131581D01*
X445552Y131515D01*
X445500Y131453D01*
X445444Y131392D01*
X445386Y131335D01*
X445325Y131280D01*
X445261Y131229D01*
X445195Y131181D01*
X445126Y131136D01*
X445056Y131094D01*
X444983Y131056D01*
X444909Y131021D01*
X444833Y130990D01*
X444756Y130963D01*
X444677Y130940D01*
X444598Y130920D01*
X444517Y130905D01*
X444436Y130893D01*
X444354Y130885D01*
X444273Y130881D01*
X444191Y130882D01*
X444109Y130886D01*
X444027Y130894D01*
X443946Y130906D01*
X443866Y130922D01*
X443786Y130942D01*
X443708Y130966D01*
X443631Y130994D01*
X443555Y131025D01*
X443481Y131060D01*
X443409Y131098D01*
X443338Y131140D01*
X443270Y131186D01*
X443204Y131234D01*
X443141Y131286D01*
X443080Y131341D01*
X443022Y131399D01*
X442966Y131459D01*
X442914Y131522D01*
X442865Y131588D01*
X442819Y131656D01*
X442777Y131726D01*
X442737Y131798D01*
X442702Y131872D01*
X442670Y131947D01*
X442642Y132024D01*
X442618Y132102D01*
X442597Y132182D01*
X442580Y132262D01*
X442568Y132343D01*
X442559Y132424D01*
X442554Y132506D01*
X442553Y132588D01*
X442557Y132765D01*
X442566Y132942D01*
X442580Y133119D01*
X442597Y133296D01*
X442619Y133471D01*
X442644Y133647D01*
X442675Y133821D01*
X442709Y133995D01*
X442747Y134168D01*
X442790Y134340D01*
X442837Y134511D01*
X442887Y134681D01*
X442942Y134850D01*
X443001Y135017D01*
X443064Y135183D01*
X443131Y135347D01*
X443202Y135509D01*
X447096Y135184D02*
X447129Y135259D01*
X447165Y135333D01*
X447204Y135405D01*
X447247Y135475D01*
X447293Y135542D01*
X447343Y135608D01*
X447395Y135670D01*
X447451Y135731D01*
X447509Y135788D01*
X447570Y135843D01*
X447634Y135894D01*
X447700Y135942D01*
X447769Y135987D01*
X447839Y136029D01*
X447912Y136067D01*
X447986Y136102D01*
X448062Y136133D01*
X448139Y136160D01*
X448218Y136183D01*
X448298Y136203D01*
X448378Y136218D01*
X448459Y136230D01*
X448541Y136238D01*
X448622Y136242D01*
X448704Y136241D01*
X448786Y136237D01*
X448868Y136229D01*
X448949Y136217D01*
X449029Y136201D01*
X449109Y136181D01*
X449187Y136157D01*
X449264Y136129D01*
X449340Y136098D01*
X449414Y136063D01*
X449486Y136025D01*
X449557Y135983D01*
X449625Y135937D01*
X449691Y135889D01*
X449754Y135837D01*
X449815Y135782D01*
X449873Y135724D01*
X449929Y135664D01*
X449981Y135601D01*
X450030Y135535D01*
X450076Y135467D01*
X450118Y135397D01*
X450158Y135325D01*
X450193Y135251D01*
X450225Y135176D01*
X450253Y135099D01*
X450277Y135021D01*
X450298Y134941D01*
X450315Y134861D01*
X450327Y134780D01*
X450336Y134699D01*
X450341Y134617D01*
X450342Y134535D01*
X450335Y134275D01*
X450322Y134015D01*
X450303Y133755D01*
X450278Y133496D01*
X450246Y133237D01*
X450209Y132980D01*
X450165Y132723D01*
X450116Y132467D01*
X450060Y132213D01*
X449999Y131960D01*
X449931Y131709D01*
X449857Y131459D01*
X449778Y131211D01*
X449693Y130965D01*
X447746Y140871D02*
X445149Y140871D01*
X445149Y140872D02*
X445048Y140874D01*
X444948Y140880D01*
X444848Y140890D01*
X444748Y140903D01*
X444649Y140921D01*
X444550Y140942D01*
X444453Y140967D01*
X444356Y140996D01*
X444261Y141029D01*
X444167Y141065D01*
X444075Y141105D01*
X443984Y141148D01*
X443895Y141195D01*
X443808Y141245D01*
X443722Y141299D01*
X443639Y141356D01*
X443559Y141416D01*
X443480Y141479D01*
X443404Y141546D01*
X443331Y141615D01*
X443261Y141687D01*
X443193Y141761D01*
X443128Y141838D01*
X443067Y141918D01*
X443008Y142000D01*
X442953Y142084D01*
X442901Y142170D01*
X442852Y142258D01*
X442807Y142348D01*
X442765Y142440D01*
X442727Y142533D01*
X442693Y142628D01*
X442662Y142723D01*
X442635Y142820D01*
X442612Y142918D01*
X442592Y143017D01*
X442577Y143117D01*
X442565Y143217D01*
X442557Y143317D01*
X442553Y143418D01*
X442553Y143518D01*
X442557Y143619D01*
X442565Y143719D01*
X442577Y143819D01*
X442592Y143919D01*
X442612Y144018D01*
X442635Y144116D01*
X442662Y144213D01*
X442693Y144308D01*
X442727Y144403D01*
X442765Y144496D01*
X442807Y144588D01*
X442852Y144678D01*
X442901Y144766D01*
X442953Y144852D01*
X443008Y144936D01*
X443067Y145018D01*
X443128Y145098D01*
X443193Y145175D01*
X443261Y145249D01*
X443331Y145321D01*
X443404Y145390D01*
X443480Y145457D01*
X443559Y145520D01*
X443639Y145580D01*
X443722Y145637D01*
X443808Y145691D01*
X443895Y145741D01*
X443984Y145788D01*
X444075Y145831D01*
X444167Y145871D01*
X444261Y145907D01*
X444356Y145940D01*
X444453Y145969D01*
X444550Y145994D01*
X444649Y146015D01*
X444748Y146033D01*
X444848Y146046D01*
X444948Y146056D01*
X445048Y146062D01*
X445149Y146064D01*
X447746Y146064D01*
X447847Y146062D01*
X447947Y146056D01*
X448047Y146046D01*
X448147Y146033D01*
X448246Y146015D01*
X448345Y145994D01*
X448442Y145969D01*
X448539Y145940D01*
X448634Y145907D01*
X448728Y145871D01*
X448820Y145831D01*
X448911Y145788D01*
X449000Y145741D01*
X449087Y145691D01*
X449173Y145637D01*
X449256Y145580D01*
X449336Y145520D01*
X449415Y145457D01*
X449491Y145390D01*
X449564Y145321D01*
X449634Y145249D01*
X449702Y145175D01*
X449767Y145098D01*
X449828Y145018D01*
X449887Y144936D01*
X449942Y144852D01*
X449994Y144766D01*
X450043Y144678D01*
X450088Y144588D01*
X450130Y144496D01*
X450168Y144403D01*
X450202Y144308D01*
X450233Y144213D01*
X450260Y144116D01*
X450283Y144018D01*
X450303Y143919D01*
X450318Y143819D01*
X450330Y143719D01*
X450338Y143619D01*
X450342Y143518D01*
X450342Y143418D01*
X450338Y143317D01*
X450330Y143217D01*
X450318Y143117D01*
X450303Y143017D01*
X450283Y142918D01*
X450260Y142820D01*
X450233Y142723D01*
X450202Y142628D01*
X450168Y142533D01*
X450130Y142440D01*
X450088Y142348D01*
X450043Y142258D01*
X449994Y142170D01*
X449942Y142084D01*
X449887Y142000D01*
X449828Y141918D01*
X449767Y141838D01*
X449702Y141761D01*
X449634Y141687D01*
X449564Y141615D01*
X449491Y141546D01*
X449415Y141479D01*
X449336Y141416D01*
X449256Y141356D01*
X449173Y141299D01*
X449087Y141245D01*
X449000Y141195D01*
X448911Y141148D01*
X448820Y141105D01*
X448728Y141065D01*
X448634Y141029D01*
X448539Y140996D01*
X448442Y140967D01*
X448345Y140942D01*
X448246Y140921D01*
X448147Y140903D01*
X448047Y140890D01*
X447947Y140880D01*
X447847Y140874D01*
X447746Y140872D01*
X450342Y151225D02*
X442553Y151225D01*
X442553Y155119D01*
X443851Y155119D01*
X441254Y164987D02*
X438658Y168233D01*
X450342Y168233D01*
X450342Y171478D02*
X450342Y164987D01*
X450342Y175909D02*
X449693Y175909D01*
X449693Y176558D01*
X450342Y176558D01*
X450342Y175909D01*
X444500Y180989D02*
X444270Y180992D01*
X444040Y181000D01*
X443811Y181014D01*
X443582Y181033D01*
X443353Y181058D01*
X443125Y181088D01*
X442898Y181123D01*
X442672Y181164D01*
X442447Y181210D01*
X442223Y181262D01*
X442000Y181319D01*
X441779Y181381D01*
X441559Y181449D01*
X441341Y181522D01*
X441125Y181600D01*
X440911Y181683D01*
X440699Y181771D01*
X440488Y181864D01*
X440281Y181963D01*
X440281Y181962D02*
X440191Y181995D01*
X440102Y182031D01*
X440014Y182071D01*
X439929Y182115D01*
X439845Y182162D01*
X439763Y182212D01*
X439683Y182266D01*
X439606Y182322D01*
X439530Y182382D01*
X439457Y182445D01*
X439387Y182510D01*
X439319Y182579D01*
X439255Y182650D01*
X439193Y182723D01*
X439134Y182799D01*
X439078Y182877D01*
X439025Y182958D01*
X438976Y183040D01*
X438930Y183124D01*
X438887Y183211D01*
X438848Y183298D01*
X438812Y183388D01*
X438780Y183478D01*
X438752Y183570D01*
X438727Y183663D01*
X438706Y183757D01*
X438689Y183851D01*
X438675Y183946D01*
X438666Y184042D01*
X438660Y184138D01*
X438658Y184234D01*
X438660Y184330D01*
X438666Y184426D01*
X438675Y184522D01*
X438689Y184617D01*
X438706Y184711D01*
X438727Y184805D01*
X438752Y184898D01*
X438780Y184990D01*
X438812Y185080D01*
X438848Y185170D01*
X438887Y185258D01*
X438930Y185344D01*
X438976Y185428D01*
X439025Y185510D01*
X439078Y185591D01*
X439134Y185669D01*
X439193Y185745D01*
X439255Y185818D01*
X439319Y185889D01*
X439387Y185958D01*
X439457Y186023D01*
X439530Y186086D01*
X439606Y186146D01*
X439683Y186202D01*
X439763Y186256D01*
X439845Y186306D01*
X439929Y186353D01*
X440014Y186397D01*
X440102Y186437D01*
X440191Y186473D01*
X440281Y186506D01*
X440488Y186605D01*
X440699Y186698D01*
X440911Y186786D01*
X441125Y186869D01*
X441341Y186947D01*
X441559Y187020D01*
X441779Y187088D01*
X442000Y187150D01*
X442223Y187207D01*
X442447Y187259D01*
X442672Y187305D01*
X442898Y187346D01*
X443125Y187381D01*
X443353Y187411D01*
X443582Y187436D01*
X443811Y187455D01*
X444040Y187469D01*
X444270Y187477D01*
X444500Y187480D01*
X444500Y180989D02*
X444730Y180992D01*
X444960Y181000D01*
X445189Y181014D01*
X445418Y181033D01*
X445647Y181058D01*
X445875Y181088D01*
X446102Y181123D01*
X446328Y181164D01*
X446553Y181210D01*
X446777Y181262D01*
X447000Y181319D01*
X447221Y181381D01*
X447441Y181449D01*
X447659Y181522D01*
X447875Y181600D01*
X448089Y181683D01*
X448301Y181771D01*
X448512Y181864D01*
X448719Y181963D01*
X448719Y181962D02*
X448809Y181995D01*
X448898Y182031D01*
X448986Y182072D01*
X449071Y182115D01*
X449155Y182162D01*
X449237Y182212D01*
X449317Y182266D01*
X449394Y182322D01*
X449470Y182382D01*
X449543Y182445D01*
X449613Y182510D01*
X449681Y182579D01*
X449745Y182650D01*
X449807Y182723D01*
X449866Y182799D01*
X449922Y182877D01*
X449975Y182958D01*
X450024Y183040D01*
X450070Y183124D01*
X450113Y183211D01*
X450152Y183298D01*
X450188Y183388D01*
X450220Y183478D01*
X450248Y183570D01*
X450273Y183663D01*
X450294Y183757D01*
X450311Y183851D01*
X450325Y183946D01*
X450334Y184042D01*
X450340Y184138D01*
X450342Y184234D01*
X448719Y186506D02*
X448512Y186605D01*
X448301Y186698D01*
X448089Y186786D01*
X447875Y186869D01*
X447659Y186947D01*
X447441Y187020D01*
X447221Y187088D01*
X447000Y187150D01*
X446777Y187207D01*
X446553Y187259D01*
X446328Y187305D01*
X446102Y187346D01*
X445875Y187381D01*
X445647Y187411D01*
X445418Y187436D01*
X445189Y187455D01*
X444960Y187469D01*
X444730Y187477D01*
X444500Y187480D01*
X448719Y186506D02*
X448809Y186473D01*
X448898Y186437D01*
X448986Y186397D01*
X449071Y186353D01*
X449155Y186306D01*
X449237Y186256D01*
X449317Y186202D01*
X449394Y186146D01*
X449470Y186086D01*
X449543Y186023D01*
X449613Y185958D01*
X449681Y185889D01*
X449745Y185818D01*
X449807Y185745D01*
X449866Y185669D01*
X449922Y185591D01*
X449975Y185510D01*
X450024Y185428D01*
X450070Y185344D01*
X450113Y185257D01*
X450152Y185170D01*
X450188Y185080D01*
X450220Y184990D01*
X450248Y184898D01*
X450273Y184805D01*
X450294Y184711D01*
X450311Y184617D01*
X450325Y184522D01*
X450334Y184426D01*
X450340Y184330D01*
X450342Y184234D01*
X447746Y181638D02*
X441254Y186831D01*
D11*
X441071Y223901D02*
X443117Y223901D01*
X443206Y223903D01*
X443295Y223909D01*
X443384Y223919D01*
X443472Y223932D01*
X443560Y223949D01*
X443647Y223971D01*
X443732Y223996D01*
X443817Y224024D01*
X443900Y224057D01*
X443982Y224093D01*
X444062Y224132D01*
X444140Y224175D01*
X444216Y224221D01*
X444291Y224271D01*
X444363Y224324D01*
X444432Y224380D01*
X444499Y224439D01*
X444564Y224500D01*
X444625Y224565D01*
X444684Y224632D01*
X444740Y224701D01*
X444793Y224773D01*
X444843Y224848D01*
X444889Y224924D01*
X444932Y225002D01*
X444971Y225082D01*
X445007Y225164D01*
X445040Y225247D01*
X445068Y225332D01*
X445093Y225417D01*
X445115Y225504D01*
X445132Y225592D01*
X445145Y225680D01*
X445155Y225769D01*
X445161Y225858D01*
X445163Y225947D01*
X445161Y226036D01*
X445155Y226125D01*
X445145Y226214D01*
X445132Y226302D01*
X445115Y226390D01*
X445093Y226477D01*
X445068Y226562D01*
X445040Y226647D01*
X445007Y226730D01*
X444971Y226812D01*
X444932Y226892D01*
X444889Y226970D01*
X444843Y227046D01*
X444793Y227121D01*
X444740Y227193D01*
X444684Y227262D01*
X444625Y227329D01*
X444564Y227394D01*
X444499Y227455D01*
X444432Y227514D01*
X444363Y227570D01*
X444291Y227623D01*
X444216Y227673D01*
X444140Y227719D01*
X444062Y227762D01*
X443982Y227801D01*
X443900Y227837D01*
X443817Y227870D01*
X443732Y227898D01*
X443647Y227923D01*
X443560Y227945D01*
X443472Y227962D01*
X443384Y227975D01*
X443295Y227985D01*
X443206Y227991D01*
X443117Y227993D01*
X443526Y231267D02*
X441071Y231267D01*
X443526Y231267D02*
X443605Y231265D01*
X443684Y231259D01*
X443763Y231250D01*
X443841Y231237D01*
X443918Y231219D01*
X443994Y231199D01*
X444069Y231174D01*
X444143Y231146D01*
X444216Y231115D01*
X444287Y231079D01*
X444356Y231041D01*
X444423Y230999D01*
X444488Y230954D01*
X444551Y230906D01*
X444612Y230855D01*
X444669Y230801D01*
X444725Y230745D01*
X444777Y230686D01*
X444827Y230624D01*
X444873Y230560D01*
X444917Y230494D01*
X444957Y230426D01*
X444993Y230356D01*
X445027Y230284D01*
X445057Y230210D01*
X445083Y230136D01*
X445106Y230060D01*
X445124Y229983D01*
X445140Y229906D01*
X445151Y229827D01*
X445159Y229749D01*
X445163Y229670D01*
X445163Y229590D01*
X445159Y229511D01*
X445151Y229433D01*
X445140Y229354D01*
X445124Y229277D01*
X445106Y229200D01*
X445083Y229124D01*
X445057Y229050D01*
X445027Y228976D01*
X444993Y228904D01*
X444957Y228834D01*
X444917Y228766D01*
X444873Y228700D01*
X444827Y228636D01*
X444777Y228574D01*
X444725Y228515D01*
X444669Y228459D01*
X444612Y228405D01*
X444551Y228354D01*
X444488Y228306D01*
X444423Y228261D01*
X444356Y228219D01*
X444287Y228181D01*
X444216Y228145D01*
X444143Y228114D01*
X444069Y228086D01*
X443994Y228061D01*
X443918Y228041D01*
X443841Y228023D01*
X443763Y228010D01*
X443684Y228001D01*
X443605Y227995D01*
X443526Y227993D01*
X441889Y227993D01*
X447977Y231267D02*
X450432Y223901D01*
X452888Y231267D01*
X455701Y223901D02*
X457747Y223901D01*
X457836Y223903D01*
X457925Y223909D01*
X458014Y223919D01*
X458102Y223932D01*
X458190Y223949D01*
X458277Y223971D01*
X458362Y223996D01*
X458447Y224024D01*
X458530Y224057D01*
X458612Y224093D01*
X458692Y224132D01*
X458770Y224175D01*
X458846Y224221D01*
X458921Y224271D01*
X458993Y224324D01*
X459062Y224380D01*
X459129Y224439D01*
X459194Y224500D01*
X459255Y224565D01*
X459314Y224632D01*
X459370Y224701D01*
X459423Y224773D01*
X459473Y224848D01*
X459519Y224924D01*
X459562Y225002D01*
X459601Y225082D01*
X459637Y225164D01*
X459670Y225247D01*
X459698Y225332D01*
X459723Y225417D01*
X459745Y225504D01*
X459762Y225592D01*
X459775Y225680D01*
X459785Y225769D01*
X459791Y225858D01*
X459793Y225947D01*
X459791Y226036D01*
X459785Y226125D01*
X459775Y226214D01*
X459762Y226302D01*
X459745Y226390D01*
X459723Y226477D01*
X459698Y226562D01*
X459670Y226647D01*
X459637Y226730D01*
X459601Y226812D01*
X459562Y226892D01*
X459519Y226970D01*
X459473Y227046D01*
X459423Y227121D01*
X459370Y227193D01*
X459314Y227262D01*
X459255Y227329D01*
X459194Y227394D01*
X459129Y227455D01*
X459062Y227514D01*
X458993Y227570D01*
X458921Y227623D01*
X458846Y227673D01*
X458770Y227719D01*
X458692Y227762D01*
X458612Y227801D01*
X458530Y227837D01*
X458447Y227870D01*
X458362Y227898D01*
X458277Y227923D01*
X458190Y227945D01*
X458102Y227962D01*
X458014Y227975D01*
X457925Y227985D01*
X457836Y227991D01*
X457747Y227993D01*
X458157Y231267D02*
X455701Y231267D01*
X458157Y231267D02*
X458236Y231265D01*
X458315Y231259D01*
X458394Y231250D01*
X458472Y231237D01*
X458549Y231219D01*
X458625Y231199D01*
X458700Y231174D01*
X458774Y231146D01*
X458847Y231115D01*
X458918Y231079D01*
X458987Y231041D01*
X459054Y230999D01*
X459119Y230954D01*
X459182Y230906D01*
X459243Y230855D01*
X459300Y230801D01*
X459356Y230745D01*
X459408Y230686D01*
X459458Y230624D01*
X459504Y230560D01*
X459548Y230494D01*
X459588Y230426D01*
X459624Y230356D01*
X459658Y230284D01*
X459688Y230210D01*
X459714Y230136D01*
X459737Y230060D01*
X459755Y229983D01*
X459771Y229906D01*
X459782Y229827D01*
X459790Y229749D01*
X459794Y229670D01*
X459794Y229590D01*
X459790Y229511D01*
X459782Y229433D01*
X459771Y229354D01*
X459755Y229277D01*
X459737Y229200D01*
X459714Y229124D01*
X459688Y229050D01*
X459658Y228976D01*
X459624Y228904D01*
X459588Y228834D01*
X459548Y228766D01*
X459504Y228700D01*
X459458Y228636D01*
X459408Y228574D01*
X459356Y228515D01*
X459300Y228459D01*
X459243Y228405D01*
X459182Y228354D01*
X459119Y228306D01*
X459054Y228261D01*
X458987Y228219D01*
X458918Y228181D01*
X458847Y228145D01*
X458774Y228114D01*
X458700Y228086D01*
X458625Y228061D01*
X458549Y228041D01*
X458472Y228023D01*
X458394Y228010D01*
X458315Y228001D01*
X458236Y227995D01*
X458157Y227993D01*
X456520Y227993D01*
X443893Y254663D02*
X442666Y254663D01*
X443893Y254663D02*
X443893Y250571D01*
X441438Y250571D01*
X441360Y250573D01*
X441282Y250578D01*
X441205Y250588D01*
X441128Y250601D01*
X441052Y250617D01*
X440977Y250637D01*
X440903Y250661D01*
X440830Y250688D01*
X440758Y250719D01*
X440688Y250753D01*
X440620Y250790D01*
X440553Y250831D01*
X440488Y250875D01*
X440426Y250921D01*
X440366Y250971D01*
X440308Y251023D01*
X440253Y251078D01*
X440201Y251136D01*
X440151Y251196D01*
X440105Y251258D01*
X440061Y251323D01*
X440020Y251390D01*
X439983Y251458D01*
X439949Y251528D01*
X439918Y251600D01*
X439891Y251673D01*
X439867Y251747D01*
X439847Y251822D01*
X439831Y251898D01*
X439818Y251975D01*
X439808Y252052D01*
X439803Y252130D01*
X439801Y252208D01*
X439801Y256300D01*
X439803Y256380D01*
X439809Y256460D01*
X439819Y256540D01*
X439832Y256619D01*
X439850Y256698D01*
X439871Y256775D01*
X439897Y256851D01*
X439926Y256926D01*
X439958Y257000D01*
X439994Y257072D01*
X440034Y257142D01*
X440077Y257209D01*
X440123Y257275D01*
X440173Y257338D01*
X440225Y257399D01*
X440280Y257458D01*
X440339Y257513D01*
X440399Y257565D01*
X440463Y257615D01*
X440529Y257661D01*
X440596Y257704D01*
X440666Y257744D01*
X440738Y257780D01*
X440812Y257812D01*
X440886Y257841D01*
X440963Y257867D01*
X441040Y257888D01*
X441119Y257906D01*
X441198Y257919D01*
X441278Y257929D01*
X441358Y257935D01*
X441438Y257937D01*
X443893Y257937D01*
X447604Y257937D02*
X447604Y250571D01*
X451696Y250571D02*
X447604Y257937D01*
X451696Y257937D02*
X451696Y250571D01*
X455407Y250571D02*
X455407Y257937D01*
X457453Y257937D01*
X457542Y257935D01*
X457631Y257929D01*
X457720Y257919D01*
X457808Y257906D01*
X457896Y257889D01*
X457983Y257867D01*
X458068Y257842D01*
X458153Y257814D01*
X458236Y257781D01*
X458318Y257745D01*
X458398Y257706D01*
X458476Y257663D01*
X458552Y257617D01*
X458627Y257567D01*
X458699Y257514D01*
X458768Y257458D01*
X458835Y257399D01*
X458900Y257338D01*
X458961Y257273D01*
X459020Y257206D01*
X459076Y257137D01*
X459129Y257065D01*
X459179Y256990D01*
X459225Y256914D01*
X459268Y256836D01*
X459307Y256756D01*
X459343Y256674D01*
X459376Y256591D01*
X459404Y256506D01*
X459429Y256421D01*
X459451Y256334D01*
X459468Y256246D01*
X459481Y256158D01*
X459491Y256069D01*
X459497Y255980D01*
X459499Y255891D01*
X459499Y252617D01*
X459497Y252528D01*
X459491Y252439D01*
X459481Y252350D01*
X459468Y252262D01*
X459451Y252174D01*
X459429Y252087D01*
X459404Y252002D01*
X459376Y251917D01*
X459343Y251834D01*
X459307Y251752D01*
X459268Y251672D01*
X459225Y251594D01*
X459179Y251518D01*
X459129Y251443D01*
X459076Y251371D01*
X459020Y251302D01*
X458961Y251235D01*
X458900Y251170D01*
X458835Y251109D01*
X458768Y251050D01*
X458699Y250994D01*
X458627Y250941D01*
X458552Y250891D01*
X458476Y250845D01*
X458398Y250802D01*
X458318Y250763D01*
X458236Y250727D01*
X458153Y250694D01*
X458068Y250666D01*
X457983Y250641D01*
X457896Y250619D01*
X457808Y250602D01*
X457720Y250589D01*
X457631Y250579D01*
X457542Y250573D01*
X457453Y250571D01*
X455407Y250571D01*
X442256Y275971D02*
X442334Y275973D01*
X442412Y275978D01*
X442489Y275988D01*
X442566Y276001D01*
X442642Y276017D01*
X442717Y276037D01*
X442791Y276061D01*
X442864Y276088D01*
X442936Y276119D01*
X443006Y276153D01*
X443075Y276190D01*
X443141Y276231D01*
X443206Y276275D01*
X443268Y276321D01*
X443328Y276371D01*
X443386Y276423D01*
X443441Y276478D01*
X443493Y276536D01*
X443543Y276596D01*
X443589Y276658D01*
X443633Y276723D01*
X443674Y276790D01*
X443711Y276858D01*
X443745Y276928D01*
X443776Y277000D01*
X443803Y277073D01*
X443827Y277147D01*
X443847Y277222D01*
X443863Y277298D01*
X443876Y277375D01*
X443886Y277452D01*
X443891Y277530D01*
X443893Y277608D01*
X442256Y275971D02*
X442142Y275973D01*
X442029Y275978D01*
X441915Y275988D01*
X441802Y276001D01*
X441690Y276018D01*
X441578Y276038D01*
X441467Y276062D01*
X441356Y276090D01*
X441247Y276121D01*
X441139Y276156D01*
X441032Y276195D01*
X440926Y276237D01*
X440822Y276282D01*
X440719Y276331D01*
X440618Y276384D01*
X440519Y276439D01*
X440421Y276498D01*
X440326Y276560D01*
X440233Y276625D01*
X440141Y276693D01*
X440053Y276764D01*
X439966Y276838D01*
X439882Y276915D01*
X439801Y276994D01*
X440005Y281700D02*
X440007Y281778D01*
X440012Y281856D01*
X440022Y281933D01*
X440035Y282010D01*
X440051Y282086D01*
X440071Y282161D01*
X440095Y282235D01*
X440122Y282308D01*
X440153Y282380D01*
X440187Y282450D01*
X440224Y282519D01*
X440265Y282585D01*
X440309Y282650D01*
X440355Y282712D01*
X440405Y282772D01*
X440457Y282830D01*
X440512Y282885D01*
X440570Y282937D01*
X440630Y282987D01*
X440692Y283033D01*
X440757Y283077D01*
X440824Y283118D01*
X440892Y283155D01*
X440962Y283189D01*
X441034Y283220D01*
X441107Y283247D01*
X441181Y283271D01*
X441256Y283291D01*
X441332Y283307D01*
X441409Y283320D01*
X441486Y283330D01*
X441564Y283335D01*
X441642Y283337D01*
X441752Y283335D01*
X441861Y283329D01*
X441971Y283319D01*
X442079Y283306D01*
X442188Y283288D01*
X442295Y283267D01*
X442402Y283241D01*
X442508Y283212D01*
X442613Y283180D01*
X442716Y283143D01*
X442818Y283103D01*
X442919Y283059D01*
X443018Y283011D01*
X443115Y282961D01*
X443210Y282906D01*
X443303Y282848D01*
X443394Y282787D01*
X443483Y282723D01*
X440824Y280267D02*
X440757Y280309D01*
X440692Y280353D01*
X440630Y280401D01*
X440570Y280451D01*
X440512Y280504D01*
X440457Y280560D01*
X440405Y280619D01*
X440355Y280679D01*
X440308Y280743D01*
X440265Y280808D01*
X440224Y280875D01*
X440187Y280944D01*
X440153Y281015D01*
X440122Y281087D01*
X440095Y281161D01*
X440071Y281235D01*
X440051Y281311D01*
X440035Y281388D01*
X440022Y281465D01*
X440012Y281543D01*
X440007Y281622D01*
X440005Y281700D01*
X443075Y279040D02*
X443141Y278998D01*
X443206Y278954D01*
X443268Y278907D01*
X443328Y278856D01*
X443386Y278803D01*
X443441Y278747D01*
X443494Y278689D01*
X443543Y278628D01*
X443590Y278565D01*
X443633Y278500D01*
X443674Y278433D01*
X443711Y278364D01*
X443745Y278293D01*
X443776Y278221D01*
X443803Y278147D01*
X443827Y278072D01*
X443847Y277997D01*
X443863Y277920D01*
X443876Y277843D01*
X443886Y277765D01*
X443891Y277686D01*
X443893Y277608D01*
X443075Y279040D02*
X440824Y280268D01*
X448486Y275971D02*
X450123Y275971D01*
X448486Y275971D02*
X448408Y275973D01*
X448330Y275978D01*
X448253Y275988D01*
X448176Y276001D01*
X448100Y276017D01*
X448025Y276037D01*
X447951Y276061D01*
X447878Y276088D01*
X447806Y276119D01*
X447736Y276153D01*
X447668Y276190D01*
X447601Y276231D01*
X447536Y276275D01*
X447474Y276321D01*
X447414Y276371D01*
X447356Y276423D01*
X447301Y276478D01*
X447249Y276536D01*
X447199Y276596D01*
X447153Y276658D01*
X447109Y276723D01*
X447068Y276790D01*
X447031Y276858D01*
X446997Y276928D01*
X446966Y277000D01*
X446939Y277073D01*
X446915Y277147D01*
X446895Y277222D01*
X446879Y277298D01*
X446866Y277375D01*
X446856Y277452D01*
X446851Y277530D01*
X446849Y277608D01*
X446849Y281700D01*
X446851Y281780D01*
X446857Y281860D01*
X446867Y281940D01*
X446880Y282019D01*
X446898Y282098D01*
X446919Y282175D01*
X446945Y282251D01*
X446974Y282326D01*
X447006Y282400D01*
X447042Y282472D01*
X447082Y282542D01*
X447125Y282609D01*
X447171Y282675D01*
X447221Y282738D01*
X447273Y282799D01*
X447328Y282858D01*
X447387Y282913D01*
X447447Y282965D01*
X447511Y283015D01*
X447577Y283061D01*
X447644Y283104D01*
X447714Y283144D01*
X447786Y283180D01*
X447860Y283212D01*
X447934Y283241D01*
X448011Y283267D01*
X448088Y283288D01*
X448167Y283306D01*
X448246Y283319D01*
X448326Y283329D01*
X448406Y283335D01*
X448486Y283337D01*
X450123Y283337D01*
X453228Y283337D02*
X453228Y275971D01*
X456502Y275971D01*
X442256Y300101D02*
X442334Y300103D01*
X442412Y300108D01*
X442489Y300118D01*
X442566Y300131D01*
X442642Y300147D01*
X442717Y300167D01*
X442791Y300191D01*
X442864Y300218D01*
X442936Y300249D01*
X443006Y300283D01*
X443075Y300320D01*
X443141Y300361D01*
X443206Y300405D01*
X443268Y300451D01*
X443328Y300501D01*
X443386Y300553D01*
X443441Y300608D01*
X443493Y300666D01*
X443543Y300726D01*
X443589Y300788D01*
X443633Y300853D01*
X443674Y300920D01*
X443711Y300988D01*
X443745Y301058D01*
X443776Y301130D01*
X443803Y301203D01*
X443827Y301277D01*
X443847Y301352D01*
X443863Y301428D01*
X443876Y301505D01*
X443886Y301582D01*
X443891Y301660D01*
X443893Y301738D01*
X442256Y300101D02*
X442142Y300103D01*
X442029Y300108D01*
X441915Y300118D01*
X441802Y300131D01*
X441690Y300148D01*
X441578Y300168D01*
X441467Y300192D01*
X441356Y300220D01*
X441247Y300251D01*
X441139Y300286D01*
X441032Y300325D01*
X440926Y300367D01*
X440822Y300412D01*
X440719Y300461D01*
X440618Y300514D01*
X440519Y300569D01*
X440421Y300628D01*
X440326Y300690D01*
X440233Y300755D01*
X440141Y300823D01*
X440053Y300894D01*
X439966Y300968D01*
X439882Y301045D01*
X439801Y301124D01*
X440005Y305830D02*
X440007Y305908D01*
X440012Y305986D01*
X440022Y306063D01*
X440035Y306140D01*
X440051Y306216D01*
X440071Y306291D01*
X440095Y306365D01*
X440122Y306438D01*
X440153Y306510D01*
X440187Y306580D01*
X440224Y306649D01*
X440265Y306715D01*
X440309Y306780D01*
X440355Y306842D01*
X440405Y306902D01*
X440457Y306960D01*
X440512Y307015D01*
X440570Y307067D01*
X440630Y307117D01*
X440692Y307163D01*
X440757Y307207D01*
X440824Y307248D01*
X440892Y307285D01*
X440962Y307319D01*
X441034Y307350D01*
X441107Y307377D01*
X441181Y307401D01*
X441256Y307421D01*
X441332Y307437D01*
X441409Y307450D01*
X441486Y307460D01*
X441564Y307465D01*
X441642Y307467D01*
X441752Y307465D01*
X441861Y307459D01*
X441971Y307449D01*
X442079Y307436D01*
X442188Y307418D01*
X442295Y307397D01*
X442402Y307371D01*
X442508Y307342D01*
X442613Y307310D01*
X442716Y307273D01*
X442818Y307233D01*
X442919Y307189D01*
X443018Y307141D01*
X443115Y307091D01*
X443210Y307036D01*
X443303Y306978D01*
X443394Y306917D01*
X443483Y306853D01*
X440824Y304397D02*
X440757Y304439D01*
X440692Y304483D01*
X440630Y304531D01*
X440570Y304581D01*
X440512Y304634D01*
X440457Y304690D01*
X440405Y304749D01*
X440355Y304809D01*
X440308Y304873D01*
X440265Y304938D01*
X440224Y305005D01*
X440187Y305074D01*
X440153Y305145D01*
X440122Y305217D01*
X440095Y305291D01*
X440071Y305365D01*
X440051Y305441D01*
X440035Y305518D01*
X440022Y305595D01*
X440012Y305673D01*
X440007Y305752D01*
X440005Y305830D01*
X443075Y303170D02*
X443141Y303128D01*
X443206Y303084D01*
X443268Y303037D01*
X443328Y302986D01*
X443386Y302933D01*
X443441Y302877D01*
X443494Y302819D01*
X443543Y302758D01*
X443590Y302695D01*
X443633Y302630D01*
X443674Y302563D01*
X443711Y302494D01*
X443745Y302423D01*
X443776Y302351D01*
X443803Y302277D01*
X443827Y302202D01*
X443847Y302127D01*
X443863Y302050D01*
X443876Y301973D01*
X443886Y301895D01*
X443891Y301816D01*
X443893Y301738D01*
X443075Y303170D02*
X440824Y304398D01*
X447116Y307467D02*
X447116Y300101D01*
X447116Y307467D02*
X449162Y307467D01*
X449251Y307465D01*
X449340Y307459D01*
X449429Y307449D01*
X449517Y307436D01*
X449605Y307419D01*
X449692Y307397D01*
X449777Y307372D01*
X449862Y307344D01*
X449945Y307311D01*
X450027Y307275D01*
X450107Y307236D01*
X450185Y307193D01*
X450261Y307147D01*
X450336Y307097D01*
X450408Y307044D01*
X450477Y306988D01*
X450544Y306929D01*
X450609Y306868D01*
X450670Y306803D01*
X450729Y306736D01*
X450785Y306667D01*
X450838Y306595D01*
X450888Y306520D01*
X450934Y306444D01*
X450977Y306366D01*
X451016Y306286D01*
X451052Y306204D01*
X451085Y306121D01*
X451113Y306036D01*
X451138Y305951D01*
X451160Y305864D01*
X451177Y305776D01*
X451190Y305688D01*
X451200Y305599D01*
X451206Y305510D01*
X451208Y305421D01*
X451208Y302147D01*
X451206Y302058D01*
X451200Y301969D01*
X451190Y301880D01*
X451177Y301792D01*
X451160Y301704D01*
X451138Y301617D01*
X451113Y301532D01*
X451085Y301447D01*
X451052Y301364D01*
X451016Y301282D01*
X450977Y301202D01*
X450934Y301124D01*
X450888Y301048D01*
X450838Y300973D01*
X450785Y300901D01*
X450729Y300832D01*
X450670Y300765D01*
X450609Y300700D01*
X450544Y300639D01*
X450477Y300580D01*
X450408Y300524D01*
X450336Y300471D01*
X450261Y300421D01*
X450185Y300375D01*
X450107Y300332D01*
X450027Y300293D01*
X449945Y300257D01*
X449862Y300224D01*
X449777Y300196D01*
X449692Y300171D01*
X449605Y300149D01*
X449517Y300132D01*
X449429Y300119D01*
X449340Y300109D01*
X449251Y300103D01*
X449162Y300101D01*
X447116Y300101D01*
X454266Y300101D02*
X456721Y307467D01*
X459177Y300101D01*
X458563Y301943D02*
X454880Y301943D01*
X282829Y242457D02*
X282829Y240411D01*
X282829Y242457D02*
X282827Y242546D01*
X282821Y242635D01*
X282811Y242724D01*
X282798Y242812D01*
X282781Y242900D01*
X282759Y242987D01*
X282734Y243072D01*
X282706Y243157D01*
X282673Y243240D01*
X282637Y243322D01*
X282598Y243402D01*
X282555Y243480D01*
X282509Y243556D01*
X282459Y243631D01*
X282406Y243703D01*
X282350Y243772D01*
X282291Y243839D01*
X282230Y243904D01*
X282165Y243965D01*
X282098Y244024D01*
X282029Y244080D01*
X281957Y244133D01*
X281882Y244183D01*
X281806Y244229D01*
X281728Y244272D01*
X281648Y244311D01*
X281566Y244347D01*
X281483Y244380D01*
X281398Y244408D01*
X281313Y244433D01*
X281226Y244455D01*
X281138Y244472D01*
X281050Y244485D01*
X280961Y244495D01*
X280872Y244501D01*
X280783Y244503D01*
X280694Y244501D01*
X280605Y244495D01*
X280516Y244485D01*
X280428Y244472D01*
X280340Y244455D01*
X280253Y244433D01*
X280168Y244408D01*
X280083Y244380D01*
X280000Y244347D01*
X279918Y244311D01*
X279838Y244272D01*
X279760Y244229D01*
X279684Y244183D01*
X279609Y244133D01*
X279537Y244080D01*
X279468Y244024D01*
X279401Y243965D01*
X279336Y243904D01*
X279275Y243839D01*
X279216Y243772D01*
X279160Y243703D01*
X279107Y243631D01*
X279057Y243556D01*
X279011Y243480D01*
X278968Y243402D01*
X278929Y243322D01*
X278893Y243240D01*
X278860Y243157D01*
X278832Y243072D01*
X278807Y242987D01*
X278785Y242900D01*
X278768Y242812D01*
X278755Y242724D01*
X278745Y242635D01*
X278739Y242546D01*
X278737Y242457D01*
X275463Y242866D02*
X275463Y240411D01*
X275463Y242866D02*
X275465Y242945D01*
X275471Y243024D01*
X275480Y243103D01*
X275493Y243181D01*
X275511Y243258D01*
X275531Y243334D01*
X275556Y243409D01*
X275584Y243483D01*
X275615Y243556D01*
X275651Y243627D01*
X275689Y243696D01*
X275731Y243763D01*
X275776Y243828D01*
X275824Y243891D01*
X275875Y243952D01*
X275929Y244009D01*
X275985Y244065D01*
X276044Y244117D01*
X276106Y244167D01*
X276170Y244213D01*
X276236Y244257D01*
X276304Y244297D01*
X276374Y244333D01*
X276446Y244367D01*
X276520Y244397D01*
X276594Y244423D01*
X276670Y244446D01*
X276747Y244464D01*
X276824Y244480D01*
X276903Y244491D01*
X276981Y244499D01*
X277060Y244503D01*
X277140Y244503D01*
X277219Y244499D01*
X277297Y244491D01*
X277376Y244480D01*
X277453Y244464D01*
X277530Y244446D01*
X277606Y244423D01*
X277680Y244397D01*
X277754Y244367D01*
X277826Y244333D01*
X277896Y244297D01*
X277964Y244257D01*
X278030Y244213D01*
X278094Y244167D01*
X278156Y244117D01*
X278215Y244065D01*
X278271Y244009D01*
X278325Y243952D01*
X278376Y243891D01*
X278424Y243828D01*
X278469Y243763D01*
X278511Y243696D01*
X278549Y243627D01*
X278585Y243556D01*
X278616Y243483D01*
X278644Y243409D01*
X278669Y243334D01*
X278689Y243258D01*
X278707Y243181D01*
X278720Y243103D01*
X278729Y243024D01*
X278735Y242945D01*
X278737Y242866D01*
X278737Y241229D01*
X275463Y247317D02*
X282829Y249772D01*
X275463Y252228D01*
X282829Y255041D02*
X282829Y257087D01*
X282827Y257176D01*
X282821Y257265D01*
X282811Y257354D01*
X282798Y257442D01*
X282781Y257530D01*
X282759Y257617D01*
X282734Y257702D01*
X282706Y257787D01*
X282673Y257870D01*
X282637Y257952D01*
X282598Y258032D01*
X282555Y258110D01*
X282509Y258186D01*
X282459Y258261D01*
X282406Y258333D01*
X282350Y258402D01*
X282291Y258469D01*
X282230Y258534D01*
X282165Y258595D01*
X282098Y258654D01*
X282029Y258710D01*
X281957Y258763D01*
X281882Y258813D01*
X281806Y258859D01*
X281728Y258902D01*
X281648Y258941D01*
X281566Y258977D01*
X281483Y259010D01*
X281398Y259038D01*
X281313Y259063D01*
X281226Y259085D01*
X281138Y259102D01*
X281050Y259115D01*
X280961Y259125D01*
X280872Y259131D01*
X280783Y259133D01*
X280694Y259131D01*
X280605Y259125D01*
X280516Y259115D01*
X280428Y259102D01*
X280340Y259085D01*
X280253Y259063D01*
X280168Y259038D01*
X280083Y259010D01*
X280000Y258977D01*
X279918Y258941D01*
X279838Y258902D01*
X279760Y258859D01*
X279684Y258813D01*
X279609Y258763D01*
X279537Y258710D01*
X279468Y258654D01*
X279401Y258595D01*
X279336Y258534D01*
X279275Y258469D01*
X279216Y258402D01*
X279160Y258333D01*
X279107Y258261D01*
X279057Y258186D01*
X279011Y258110D01*
X278968Y258032D01*
X278929Y257952D01*
X278893Y257870D01*
X278860Y257787D01*
X278832Y257702D01*
X278807Y257617D01*
X278785Y257530D01*
X278768Y257442D01*
X278755Y257354D01*
X278745Y257265D01*
X278739Y257176D01*
X278737Y257087D01*
X275463Y257497D02*
X275463Y255041D01*
X275463Y257497D02*
X275465Y257576D01*
X275471Y257655D01*
X275480Y257734D01*
X275493Y257812D01*
X275511Y257889D01*
X275531Y257965D01*
X275556Y258040D01*
X275584Y258114D01*
X275615Y258187D01*
X275651Y258258D01*
X275689Y258327D01*
X275731Y258394D01*
X275776Y258459D01*
X275824Y258522D01*
X275875Y258583D01*
X275929Y258640D01*
X275985Y258696D01*
X276044Y258748D01*
X276106Y258798D01*
X276170Y258844D01*
X276236Y258888D01*
X276304Y258928D01*
X276374Y258964D01*
X276446Y258998D01*
X276520Y259028D01*
X276594Y259054D01*
X276670Y259077D01*
X276747Y259095D01*
X276824Y259111D01*
X276903Y259122D01*
X276981Y259130D01*
X277060Y259134D01*
X277140Y259134D01*
X277219Y259130D01*
X277297Y259122D01*
X277376Y259111D01*
X277453Y259095D01*
X277530Y259077D01*
X277606Y259054D01*
X277680Y259028D01*
X277754Y258998D01*
X277826Y258964D01*
X277896Y258928D01*
X277964Y258888D01*
X278030Y258844D01*
X278094Y258798D01*
X278156Y258748D01*
X278215Y258696D01*
X278271Y258640D01*
X278325Y258583D01*
X278376Y258522D01*
X278424Y258459D01*
X278469Y258394D01*
X278511Y258327D01*
X278549Y258258D01*
X278585Y258187D01*
X278616Y258114D01*
X278644Y258040D01*
X278669Y257965D01*
X278689Y257889D01*
X278707Y257812D01*
X278720Y257734D01*
X278729Y257655D01*
X278735Y257576D01*
X278737Y257497D01*
X278737Y255860D01*
X230759Y225086D02*
X230757Y225164D01*
X230752Y225242D01*
X230742Y225319D01*
X230729Y225396D01*
X230713Y225472D01*
X230693Y225547D01*
X230669Y225621D01*
X230642Y225694D01*
X230611Y225766D01*
X230577Y225836D01*
X230540Y225905D01*
X230499Y225971D01*
X230455Y226036D01*
X230409Y226098D01*
X230359Y226158D01*
X230307Y226216D01*
X230252Y226271D01*
X230194Y226323D01*
X230134Y226373D01*
X230072Y226419D01*
X230007Y226463D01*
X229941Y226504D01*
X229872Y226541D01*
X229802Y226575D01*
X229730Y226606D01*
X229657Y226633D01*
X229583Y226657D01*
X229508Y226677D01*
X229432Y226693D01*
X229355Y226706D01*
X229278Y226716D01*
X229200Y226721D01*
X229122Y226723D01*
X230759Y225086D02*
X230757Y224972D01*
X230752Y224859D01*
X230742Y224745D01*
X230729Y224632D01*
X230712Y224520D01*
X230692Y224408D01*
X230668Y224297D01*
X230640Y224186D01*
X230609Y224077D01*
X230574Y223969D01*
X230535Y223862D01*
X230493Y223756D01*
X230448Y223652D01*
X230399Y223549D01*
X230346Y223448D01*
X230291Y223349D01*
X230232Y223251D01*
X230170Y223156D01*
X230105Y223063D01*
X230037Y222971D01*
X229966Y222883D01*
X229892Y222796D01*
X229815Y222712D01*
X229736Y222631D01*
X225030Y222836D02*
X224952Y222838D01*
X224874Y222843D01*
X224797Y222853D01*
X224720Y222866D01*
X224644Y222882D01*
X224569Y222902D01*
X224495Y222926D01*
X224422Y222953D01*
X224350Y222984D01*
X224280Y223018D01*
X224212Y223055D01*
X224145Y223096D01*
X224080Y223140D01*
X224018Y223186D01*
X223958Y223236D01*
X223900Y223288D01*
X223845Y223343D01*
X223793Y223401D01*
X223743Y223461D01*
X223697Y223523D01*
X223653Y223588D01*
X223612Y223655D01*
X223575Y223723D01*
X223541Y223793D01*
X223510Y223865D01*
X223483Y223938D01*
X223459Y224012D01*
X223439Y224087D01*
X223423Y224163D01*
X223410Y224240D01*
X223400Y224317D01*
X223395Y224395D01*
X223393Y224473D01*
X223395Y224583D01*
X223401Y224692D01*
X223411Y224802D01*
X223424Y224910D01*
X223442Y225019D01*
X223463Y225126D01*
X223489Y225233D01*
X223518Y225339D01*
X223550Y225444D01*
X223587Y225547D01*
X223627Y225649D01*
X223671Y225750D01*
X223719Y225849D01*
X223769Y225946D01*
X223824Y226041D01*
X223882Y226134D01*
X223943Y226225D01*
X224007Y226314D01*
X226462Y223654D02*
X226420Y223588D01*
X226376Y223523D01*
X226328Y223461D01*
X226278Y223401D01*
X226225Y223343D01*
X226169Y223288D01*
X226111Y223235D01*
X226050Y223186D01*
X225987Y223139D01*
X225922Y223095D01*
X225855Y223055D01*
X225786Y223018D01*
X225715Y222984D01*
X225643Y222953D01*
X225569Y222926D01*
X225494Y222902D01*
X225419Y222882D01*
X225342Y222866D01*
X225265Y222853D01*
X225187Y222843D01*
X225108Y222838D01*
X225030Y222836D01*
X227689Y225905D02*
X227731Y225972D01*
X227775Y226037D01*
X227823Y226099D01*
X227873Y226159D01*
X227926Y226217D01*
X227982Y226272D01*
X228041Y226324D01*
X228101Y226374D01*
X228165Y226421D01*
X228230Y226464D01*
X228297Y226505D01*
X228366Y226542D01*
X228437Y226576D01*
X228509Y226607D01*
X228583Y226634D01*
X228657Y226658D01*
X228733Y226678D01*
X228810Y226694D01*
X228887Y226707D01*
X228965Y226717D01*
X229044Y226722D01*
X229122Y226724D01*
X227690Y225905D02*
X226462Y223654D01*
X227894Y229781D02*
X227894Y234691D01*
X226667Y241101D02*
X226667Y242329D01*
X230759Y242329D01*
X230759Y239874D01*
X230757Y239796D01*
X230752Y239718D01*
X230742Y239641D01*
X230729Y239564D01*
X230713Y239488D01*
X230693Y239413D01*
X230669Y239339D01*
X230642Y239266D01*
X230611Y239194D01*
X230577Y239124D01*
X230540Y239056D01*
X230499Y238989D01*
X230455Y238924D01*
X230409Y238862D01*
X230359Y238802D01*
X230307Y238744D01*
X230252Y238689D01*
X230194Y238637D01*
X230134Y238587D01*
X230072Y238541D01*
X230007Y238497D01*
X229941Y238456D01*
X229872Y238419D01*
X229802Y238385D01*
X229730Y238354D01*
X229657Y238327D01*
X229583Y238303D01*
X229508Y238283D01*
X229432Y238267D01*
X229355Y238254D01*
X229278Y238244D01*
X229200Y238239D01*
X229122Y238237D01*
X225030Y238237D01*
X224950Y238239D01*
X224870Y238245D01*
X224790Y238255D01*
X224711Y238268D01*
X224632Y238286D01*
X224555Y238307D01*
X224479Y238333D01*
X224404Y238362D01*
X224330Y238394D01*
X224258Y238430D01*
X224188Y238470D01*
X224121Y238513D01*
X224055Y238559D01*
X223992Y238609D01*
X223931Y238661D01*
X223872Y238716D01*
X223817Y238775D01*
X223765Y238835D01*
X223715Y238899D01*
X223669Y238964D01*
X223626Y239032D01*
X223586Y239102D01*
X223550Y239174D01*
X223518Y239248D01*
X223489Y239322D01*
X223464Y239399D01*
X223442Y239476D01*
X223424Y239555D01*
X223411Y239634D01*
X223401Y239713D01*
X223395Y239794D01*
X223393Y239874D01*
X223393Y242329D01*
X223393Y246040D02*
X230759Y246040D01*
X230759Y250132D02*
X223393Y246040D01*
X223393Y250132D02*
X230759Y250132D01*
X230759Y253842D02*
X223393Y253842D01*
X223393Y255889D01*
X223395Y255978D01*
X223401Y256067D01*
X223411Y256156D01*
X223424Y256244D01*
X223441Y256332D01*
X223463Y256419D01*
X223488Y256504D01*
X223516Y256589D01*
X223549Y256672D01*
X223585Y256754D01*
X223624Y256834D01*
X223667Y256912D01*
X223713Y256988D01*
X223763Y257063D01*
X223816Y257135D01*
X223872Y257204D01*
X223931Y257271D01*
X223992Y257336D01*
X224057Y257397D01*
X224124Y257456D01*
X224193Y257512D01*
X224265Y257565D01*
X224340Y257615D01*
X224416Y257661D01*
X224494Y257704D01*
X224574Y257743D01*
X224656Y257779D01*
X224739Y257812D01*
X224824Y257840D01*
X224909Y257865D01*
X224996Y257887D01*
X225084Y257904D01*
X225172Y257917D01*
X225261Y257927D01*
X225350Y257933D01*
X225439Y257935D01*
X228713Y257935D01*
X228802Y257933D01*
X228891Y257927D01*
X228980Y257917D01*
X229068Y257904D01*
X229156Y257887D01*
X229243Y257865D01*
X229328Y257840D01*
X229413Y257812D01*
X229496Y257779D01*
X229578Y257743D01*
X229658Y257704D01*
X229736Y257661D01*
X229812Y257615D01*
X229887Y257565D01*
X229959Y257512D01*
X230028Y257456D01*
X230095Y257397D01*
X230160Y257336D01*
X230221Y257271D01*
X230280Y257204D01*
X230336Y257135D01*
X230389Y257063D01*
X230439Y256988D01*
X230485Y256912D01*
X230528Y256834D01*
X230567Y256754D01*
X230603Y256672D01*
X230636Y256589D01*
X230664Y256504D01*
X230689Y256419D01*
X230711Y256332D01*
X230728Y256244D01*
X230741Y256156D01*
X230751Y256067D01*
X230757Y255978D01*
X230759Y255889D01*
X230759Y253842D01*
X326771Y62357D02*
X328408Y54991D01*
X330045Y59902D01*
X331682Y54991D01*
X333319Y62357D01*
X336584Y62357D02*
X336584Y54991D01*
X336584Y62357D02*
X338630Y62357D01*
X338719Y62355D01*
X338808Y62349D01*
X338897Y62339D01*
X338985Y62326D01*
X339073Y62309D01*
X339160Y62287D01*
X339245Y62262D01*
X339330Y62234D01*
X339413Y62201D01*
X339495Y62165D01*
X339575Y62126D01*
X339653Y62083D01*
X339729Y62037D01*
X339804Y61987D01*
X339876Y61934D01*
X339945Y61878D01*
X340012Y61819D01*
X340077Y61758D01*
X340138Y61693D01*
X340197Y61626D01*
X340253Y61557D01*
X340306Y61485D01*
X340356Y61410D01*
X340402Y61334D01*
X340445Y61256D01*
X340484Y61176D01*
X340520Y61094D01*
X340553Y61011D01*
X340581Y60926D01*
X340606Y60841D01*
X340628Y60754D01*
X340645Y60666D01*
X340658Y60578D01*
X340668Y60489D01*
X340674Y60400D01*
X340676Y60311D01*
X340674Y60222D01*
X340668Y60133D01*
X340658Y60044D01*
X340645Y59956D01*
X340628Y59868D01*
X340606Y59781D01*
X340581Y59696D01*
X340553Y59611D01*
X340520Y59528D01*
X340484Y59446D01*
X340445Y59366D01*
X340402Y59288D01*
X340356Y59212D01*
X340306Y59137D01*
X340253Y59065D01*
X340197Y58996D01*
X340138Y58929D01*
X340077Y58864D01*
X340012Y58803D01*
X339945Y58744D01*
X339876Y58688D01*
X339804Y58635D01*
X339729Y58585D01*
X339653Y58539D01*
X339575Y58496D01*
X339495Y58457D01*
X339413Y58421D01*
X339330Y58388D01*
X339245Y58360D01*
X339160Y58335D01*
X339073Y58313D01*
X338985Y58296D01*
X338897Y58283D01*
X338808Y58273D01*
X338719Y58267D01*
X338630Y58265D01*
X336584Y58265D01*
X339040Y58265D02*
X340676Y54991D01*
X344108Y54991D02*
X347382Y54991D01*
X344108Y54991D02*
X344108Y62357D01*
X347382Y62357D01*
X346563Y59083D02*
X344108Y59083D01*
X385191Y56261D02*
X387237Y56261D01*
X387326Y56263D01*
X387415Y56269D01*
X387504Y56279D01*
X387592Y56292D01*
X387680Y56309D01*
X387767Y56331D01*
X387852Y56356D01*
X387937Y56384D01*
X388020Y56417D01*
X388102Y56453D01*
X388182Y56492D01*
X388260Y56535D01*
X388336Y56581D01*
X388411Y56631D01*
X388483Y56684D01*
X388552Y56740D01*
X388619Y56799D01*
X388684Y56860D01*
X388745Y56925D01*
X388804Y56992D01*
X388860Y57061D01*
X388913Y57133D01*
X388963Y57208D01*
X389009Y57284D01*
X389052Y57362D01*
X389091Y57442D01*
X389127Y57524D01*
X389160Y57607D01*
X389188Y57692D01*
X389213Y57777D01*
X389235Y57864D01*
X389252Y57952D01*
X389265Y58040D01*
X389275Y58129D01*
X389281Y58218D01*
X389283Y58307D01*
X389281Y58396D01*
X389275Y58485D01*
X389265Y58574D01*
X389252Y58662D01*
X389235Y58750D01*
X389213Y58837D01*
X389188Y58922D01*
X389160Y59007D01*
X389127Y59090D01*
X389091Y59172D01*
X389052Y59252D01*
X389009Y59330D01*
X388963Y59406D01*
X388913Y59481D01*
X388860Y59553D01*
X388804Y59622D01*
X388745Y59689D01*
X388684Y59754D01*
X388619Y59815D01*
X388552Y59874D01*
X388483Y59930D01*
X388411Y59983D01*
X388336Y60033D01*
X388260Y60079D01*
X388182Y60122D01*
X388102Y60161D01*
X388020Y60197D01*
X387937Y60230D01*
X387852Y60258D01*
X387767Y60283D01*
X387680Y60305D01*
X387592Y60322D01*
X387504Y60335D01*
X387415Y60345D01*
X387326Y60351D01*
X387237Y60353D01*
X387646Y63627D02*
X385191Y63627D01*
X387646Y63627D02*
X387725Y63625D01*
X387804Y63619D01*
X387883Y63610D01*
X387961Y63597D01*
X388038Y63579D01*
X388114Y63559D01*
X388189Y63534D01*
X388263Y63506D01*
X388336Y63475D01*
X388407Y63439D01*
X388476Y63401D01*
X388543Y63359D01*
X388608Y63314D01*
X388671Y63266D01*
X388732Y63215D01*
X388789Y63161D01*
X388845Y63105D01*
X388897Y63046D01*
X388947Y62984D01*
X388993Y62920D01*
X389037Y62854D01*
X389077Y62786D01*
X389113Y62716D01*
X389147Y62644D01*
X389177Y62570D01*
X389203Y62496D01*
X389226Y62420D01*
X389244Y62343D01*
X389260Y62266D01*
X389271Y62187D01*
X389279Y62109D01*
X389283Y62030D01*
X389283Y61950D01*
X389279Y61871D01*
X389271Y61793D01*
X389260Y61714D01*
X389244Y61637D01*
X389226Y61560D01*
X389203Y61484D01*
X389177Y61410D01*
X389147Y61336D01*
X389113Y61264D01*
X389077Y61194D01*
X389037Y61126D01*
X388993Y61060D01*
X388947Y60996D01*
X388897Y60934D01*
X388845Y60875D01*
X388789Y60819D01*
X388732Y60765D01*
X388671Y60714D01*
X388608Y60666D01*
X388543Y60621D01*
X388476Y60579D01*
X388407Y60541D01*
X388336Y60505D01*
X388263Y60474D01*
X388189Y60446D01*
X388114Y60421D01*
X388038Y60401D01*
X387961Y60383D01*
X387883Y60370D01*
X387804Y60361D01*
X387725Y60355D01*
X387646Y60353D01*
X386009Y60353D01*
X392097Y63627D02*
X394552Y56261D01*
X397008Y63627D01*
X399821Y56261D02*
X401867Y56261D01*
X401956Y56263D01*
X402045Y56269D01*
X402134Y56279D01*
X402222Y56292D01*
X402310Y56309D01*
X402397Y56331D01*
X402482Y56356D01*
X402567Y56384D01*
X402650Y56417D01*
X402732Y56453D01*
X402812Y56492D01*
X402890Y56535D01*
X402966Y56581D01*
X403041Y56631D01*
X403113Y56684D01*
X403182Y56740D01*
X403249Y56799D01*
X403314Y56860D01*
X403375Y56925D01*
X403434Y56992D01*
X403490Y57061D01*
X403543Y57133D01*
X403593Y57208D01*
X403639Y57284D01*
X403682Y57362D01*
X403721Y57442D01*
X403757Y57524D01*
X403790Y57607D01*
X403818Y57692D01*
X403843Y57777D01*
X403865Y57864D01*
X403882Y57952D01*
X403895Y58040D01*
X403905Y58129D01*
X403911Y58218D01*
X403913Y58307D01*
X403911Y58396D01*
X403905Y58485D01*
X403895Y58574D01*
X403882Y58662D01*
X403865Y58750D01*
X403843Y58837D01*
X403818Y58922D01*
X403790Y59007D01*
X403757Y59090D01*
X403721Y59172D01*
X403682Y59252D01*
X403639Y59330D01*
X403593Y59406D01*
X403543Y59481D01*
X403490Y59553D01*
X403434Y59622D01*
X403375Y59689D01*
X403314Y59754D01*
X403249Y59815D01*
X403182Y59874D01*
X403113Y59930D01*
X403041Y59983D01*
X402966Y60033D01*
X402890Y60079D01*
X402812Y60122D01*
X402732Y60161D01*
X402650Y60197D01*
X402567Y60230D01*
X402482Y60258D01*
X402397Y60283D01*
X402310Y60305D01*
X402222Y60322D01*
X402134Y60335D01*
X402045Y60345D01*
X401956Y60351D01*
X401867Y60353D01*
X402277Y63627D02*
X399821Y63627D01*
X402277Y63627D02*
X402356Y63625D01*
X402435Y63619D01*
X402514Y63610D01*
X402592Y63597D01*
X402669Y63579D01*
X402745Y63559D01*
X402820Y63534D01*
X402894Y63506D01*
X402967Y63475D01*
X403038Y63439D01*
X403107Y63401D01*
X403174Y63359D01*
X403239Y63314D01*
X403302Y63266D01*
X403363Y63215D01*
X403420Y63161D01*
X403476Y63105D01*
X403528Y63046D01*
X403578Y62984D01*
X403624Y62920D01*
X403668Y62854D01*
X403708Y62786D01*
X403744Y62716D01*
X403778Y62644D01*
X403808Y62570D01*
X403834Y62496D01*
X403857Y62420D01*
X403875Y62343D01*
X403891Y62266D01*
X403902Y62187D01*
X403910Y62109D01*
X403914Y62030D01*
X403914Y61950D01*
X403910Y61871D01*
X403902Y61793D01*
X403891Y61714D01*
X403875Y61637D01*
X403857Y61560D01*
X403834Y61484D01*
X403808Y61410D01*
X403778Y61336D01*
X403744Y61264D01*
X403708Y61194D01*
X403668Y61126D01*
X403624Y61060D01*
X403578Y60996D01*
X403528Y60934D01*
X403476Y60875D01*
X403420Y60819D01*
X403363Y60765D01*
X403302Y60714D01*
X403239Y60666D01*
X403174Y60621D01*
X403107Y60579D01*
X403038Y60541D01*
X402967Y60505D01*
X402894Y60474D01*
X402820Y60446D01*
X402745Y60421D01*
X402669Y60401D01*
X402592Y60383D01*
X402514Y60370D01*
X402435Y60361D01*
X402356Y60355D01*
X402277Y60353D01*
X400640Y60353D01*
X361343Y59083D02*
X360116Y59083D01*
X361343Y59083D02*
X361343Y54991D01*
X358888Y54991D01*
X358810Y54993D01*
X358732Y54998D01*
X358655Y55008D01*
X358578Y55021D01*
X358502Y55037D01*
X358427Y55057D01*
X358353Y55081D01*
X358280Y55108D01*
X358208Y55139D01*
X358138Y55173D01*
X358070Y55210D01*
X358003Y55251D01*
X357938Y55295D01*
X357876Y55341D01*
X357816Y55391D01*
X357758Y55443D01*
X357703Y55498D01*
X357651Y55556D01*
X357601Y55616D01*
X357555Y55678D01*
X357511Y55743D01*
X357470Y55810D01*
X357433Y55878D01*
X357399Y55948D01*
X357368Y56020D01*
X357341Y56093D01*
X357317Y56167D01*
X357297Y56242D01*
X357281Y56318D01*
X357268Y56395D01*
X357258Y56472D01*
X357253Y56550D01*
X357251Y56628D01*
X357251Y60720D01*
X357253Y60800D01*
X357259Y60880D01*
X357269Y60960D01*
X357282Y61039D01*
X357300Y61118D01*
X357321Y61195D01*
X357347Y61271D01*
X357376Y61346D01*
X357408Y61420D01*
X357444Y61492D01*
X357484Y61562D01*
X357527Y61629D01*
X357573Y61695D01*
X357623Y61758D01*
X357675Y61819D01*
X357730Y61878D01*
X357789Y61933D01*
X357849Y61985D01*
X357913Y62035D01*
X357979Y62081D01*
X358046Y62124D01*
X358116Y62164D01*
X358188Y62200D01*
X358262Y62232D01*
X358336Y62261D01*
X358413Y62287D01*
X358490Y62308D01*
X358569Y62326D01*
X358648Y62339D01*
X358728Y62349D01*
X358808Y62355D01*
X358888Y62357D01*
X361343Y62357D01*
X365054Y62357D02*
X365054Y54991D01*
X369146Y54991D02*
X365054Y62357D01*
X369146Y62357D02*
X369146Y54991D01*
X372857Y54991D02*
X372857Y62357D01*
X374903Y62357D01*
X374992Y62355D01*
X375081Y62349D01*
X375170Y62339D01*
X375258Y62326D01*
X375346Y62309D01*
X375433Y62287D01*
X375518Y62262D01*
X375603Y62234D01*
X375686Y62201D01*
X375768Y62165D01*
X375848Y62126D01*
X375926Y62083D01*
X376002Y62037D01*
X376077Y61987D01*
X376149Y61934D01*
X376218Y61878D01*
X376285Y61819D01*
X376350Y61758D01*
X376411Y61693D01*
X376470Y61626D01*
X376526Y61557D01*
X376579Y61485D01*
X376629Y61410D01*
X376675Y61334D01*
X376718Y61256D01*
X376757Y61176D01*
X376793Y61094D01*
X376826Y61011D01*
X376854Y60926D01*
X376879Y60841D01*
X376901Y60754D01*
X376918Y60666D01*
X376931Y60578D01*
X376941Y60489D01*
X376947Y60400D01*
X376949Y60311D01*
X376949Y57037D01*
X376947Y56948D01*
X376941Y56859D01*
X376931Y56770D01*
X376918Y56682D01*
X376901Y56594D01*
X376879Y56507D01*
X376854Y56422D01*
X376826Y56337D01*
X376793Y56254D01*
X376757Y56172D01*
X376718Y56092D01*
X376675Y56014D01*
X376629Y55938D01*
X376579Y55863D01*
X376526Y55791D01*
X376470Y55722D01*
X376411Y55655D01*
X376350Y55590D01*
X376285Y55529D01*
X376218Y55470D01*
X376149Y55414D01*
X376077Y55361D01*
X376002Y55311D01*
X375926Y55265D01*
X375848Y55222D01*
X375768Y55183D01*
X375686Y55147D01*
X375603Y55114D01*
X375518Y55086D01*
X375433Y55061D01*
X375346Y55039D01*
X375258Y55022D01*
X375170Y55009D01*
X375081Y54999D01*
X374992Y54993D01*
X374903Y54991D01*
X372857Y54991D01*
D12*
X285750Y266700D02*
X273050Y266700D01*
X266700Y273050D01*
X266700Y285750D01*
X273050Y292100D01*
X266700Y273050D02*
X260350Y266700D01*
X247650Y266700D01*
X241300Y273050D01*
X241300Y285750D01*
X247650Y292100D01*
X260350Y292100D01*
X266700Y285750D01*
X292100Y285750D02*
X292100Y273050D01*
X285750Y266700D01*
X292100Y285750D02*
X285750Y292100D01*
X273050Y292100D01*
X241300Y273050D02*
X234950Y266700D01*
X222250Y266700D01*
X215900Y273050D01*
X215900Y285750D01*
X222250Y292100D01*
X234950Y292100D01*
X241300Y285750D01*
D13*
X227838Y299847D02*
X227838Y311277D01*
X231013Y311277D01*
X231124Y311275D01*
X231234Y311269D01*
X231345Y311260D01*
X231455Y311246D01*
X231564Y311229D01*
X231673Y311208D01*
X231781Y311183D01*
X231888Y311154D01*
X231994Y311122D01*
X232099Y311086D01*
X232202Y311046D01*
X232304Y311003D01*
X232405Y310956D01*
X232504Y310905D01*
X232601Y310852D01*
X232695Y310795D01*
X232788Y310734D01*
X232879Y310671D01*
X232968Y310604D01*
X233054Y310534D01*
X233137Y310461D01*
X233219Y310386D01*
X233297Y310308D01*
X233372Y310226D01*
X233445Y310143D01*
X233515Y310057D01*
X233582Y309968D01*
X233645Y309877D01*
X233706Y309784D01*
X233763Y309690D01*
X233816Y309593D01*
X233867Y309494D01*
X233914Y309393D01*
X233957Y309291D01*
X233997Y309188D01*
X234033Y309083D01*
X234065Y308977D01*
X234094Y308870D01*
X234119Y308762D01*
X234140Y308653D01*
X234157Y308544D01*
X234171Y308434D01*
X234180Y308323D01*
X234186Y308213D01*
X234188Y308102D01*
X234188Y303022D01*
X234186Y302911D01*
X234180Y302801D01*
X234171Y302690D01*
X234157Y302580D01*
X234140Y302471D01*
X234119Y302362D01*
X234094Y302254D01*
X234065Y302147D01*
X234033Y302041D01*
X233997Y301936D01*
X233957Y301833D01*
X233914Y301731D01*
X233867Y301630D01*
X233816Y301531D01*
X233763Y301434D01*
X233706Y301340D01*
X233645Y301247D01*
X233582Y301156D01*
X233515Y301067D01*
X233445Y300981D01*
X233372Y300898D01*
X233297Y300816D01*
X233219Y300738D01*
X233137Y300663D01*
X233054Y300590D01*
X232968Y300520D01*
X232879Y300453D01*
X232788Y300390D01*
X232695Y300329D01*
X232600Y300272D01*
X232504Y300219D01*
X232405Y300168D01*
X232304Y300121D01*
X232202Y300078D01*
X232099Y300038D01*
X231994Y300002D01*
X231888Y299970D01*
X231781Y299941D01*
X231673Y299916D01*
X231564Y299895D01*
X231455Y299878D01*
X231345Y299864D01*
X231234Y299855D01*
X231124Y299849D01*
X231013Y299847D01*
X227838Y299847D01*
X240030Y299847D02*
X240030Y311277D01*
X240030Y306197D02*
X246380Y306197D01*
X246380Y311277D02*
X246380Y299847D01*
X254254Y299847D02*
X254254Y311277D01*
X251079Y311277D02*
X257429Y311277D01*
X265240Y311278D02*
X265344Y311276D01*
X265449Y311270D01*
X265553Y311261D01*
X265656Y311248D01*
X265759Y311230D01*
X265861Y311210D01*
X265963Y311185D01*
X266063Y311157D01*
X266163Y311125D01*
X266261Y311089D01*
X266358Y311050D01*
X266453Y311008D01*
X266547Y310962D01*
X266639Y310912D01*
X266729Y310860D01*
X266817Y310804D01*
X266903Y310744D01*
X266987Y310682D01*
X267068Y310617D01*
X267147Y310549D01*
X267224Y310477D01*
X267297Y310404D01*
X267369Y310327D01*
X267437Y310248D01*
X267502Y310167D01*
X267564Y310083D01*
X267624Y309997D01*
X267680Y309909D01*
X267732Y309819D01*
X267782Y309727D01*
X267828Y309633D01*
X267870Y309538D01*
X267909Y309441D01*
X267945Y309343D01*
X267977Y309243D01*
X268005Y309143D01*
X268030Y309041D01*
X268050Y308939D01*
X268068Y308836D01*
X268081Y308733D01*
X268090Y308629D01*
X268096Y308524D01*
X268098Y308420D01*
X265240Y311277D02*
X265122Y311275D01*
X265003Y311269D01*
X264885Y311260D01*
X264768Y311247D01*
X264651Y311229D01*
X264534Y311209D01*
X264418Y311184D01*
X264303Y311156D01*
X264190Y311123D01*
X264077Y311088D01*
X263965Y311048D01*
X263855Y311006D01*
X263746Y310959D01*
X263638Y310909D01*
X263533Y310856D01*
X263429Y310799D01*
X263327Y310739D01*
X263227Y310676D01*
X263129Y310609D01*
X263033Y310540D01*
X262940Y310467D01*
X262849Y310391D01*
X262760Y310313D01*
X262674Y310231D01*
X262591Y310147D01*
X262510Y310061D01*
X262433Y309971D01*
X262358Y309880D01*
X262286Y309786D01*
X262217Y309689D01*
X262152Y309591D01*
X262089Y309490D01*
X262030Y309387D01*
X261974Y309283D01*
X261922Y309177D01*
X261873Y309069D01*
X261828Y308960D01*
X261786Y308849D01*
X261748Y308737D01*
X267145Y306198D02*
X267221Y306273D01*
X267296Y306352D01*
X267367Y306433D01*
X267436Y306517D01*
X267501Y306603D01*
X267563Y306691D01*
X267623Y306781D01*
X267679Y306873D01*
X267732Y306968D01*
X267781Y307064D01*
X267827Y307162D01*
X267870Y307261D01*
X267909Y307362D01*
X267944Y307464D01*
X267976Y307567D01*
X268004Y307671D01*
X268029Y307776D01*
X268050Y307883D01*
X268067Y307989D01*
X268080Y308096D01*
X268089Y308204D01*
X268095Y308312D01*
X268097Y308420D01*
X267145Y306197D02*
X261747Y299847D01*
X268097Y299847D01*
X279528Y308420D02*
X279526Y308524D01*
X279520Y308629D01*
X279511Y308733D01*
X279498Y308836D01*
X279480Y308939D01*
X279460Y309041D01*
X279435Y309143D01*
X279407Y309243D01*
X279375Y309343D01*
X279339Y309441D01*
X279300Y309538D01*
X279258Y309633D01*
X279212Y309727D01*
X279162Y309819D01*
X279110Y309909D01*
X279054Y309997D01*
X278994Y310083D01*
X278932Y310167D01*
X278867Y310248D01*
X278799Y310327D01*
X278727Y310404D01*
X278654Y310477D01*
X278577Y310549D01*
X278498Y310617D01*
X278417Y310682D01*
X278333Y310744D01*
X278247Y310804D01*
X278159Y310860D01*
X278069Y310912D01*
X277977Y310962D01*
X277883Y311008D01*
X277788Y311050D01*
X277691Y311089D01*
X277593Y311125D01*
X277493Y311157D01*
X277393Y311185D01*
X277291Y311210D01*
X277189Y311230D01*
X277086Y311248D01*
X276983Y311261D01*
X276879Y311270D01*
X276774Y311276D01*
X276670Y311278D01*
X276670Y311277D02*
X276552Y311275D01*
X276433Y311269D01*
X276315Y311260D01*
X276198Y311247D01*
X276081Y311229D01*
X275964Y311209D01*
X275848Y311184D01*
X275733Y311156D01*
X275620Y311123D01*
X275507Y311088D01*
X275395Y311048D01*
X275285Y311006D01*
X275176Y310959D01*
X275068Y310909D01*
X274963Y310856D01*
X274859Y310799D01*
X274757Y310739D01*
X274657Y310676D01*
X274559Y310609D01*
X274463Y310540D01*
X274370Y310467D01*
X274279Y310391D01*
X274190Y310313D01*
X274104Y310231D01*
X274021Y310147D01*
X273940Y310061D01*
X273863Y309971D01*
X273788Y309880D01*
X273716Y309786D01*
X273647Y309689D01*
X273582Y309591D01*
X273519Y309490D01*
X273460Y309387D01*
X273404Y309283D01*
X273352Y309177D01*
X273303Y309069D01*
X273258Y308960D01*
X273216Y308849D01*
X273178Y308737D01*
X278575Y306198D02*
X278651Y306273D01*
X278726Y306352D01*
X278797Y306433D01*
X278866Y306517D01*
X278931Y306603D01*
X278993Y306691D01*
X279053Y306781D01*
X279109Y306873D01*
X279162Y306968D01*
X279211Y307064D01*
X279257Y307162D01*
X279300Y307261D01*
X279339Y307362D01*
X279374Y307464D01*
X279406Y307567D01*
X279434Y307671D01*
X279459Y307776D01*
X279480Y307883D01*
X279497Y307989D01*
X279510Y308096D01*
X279519Y308204D01*
X279525Y308312D01*
X279527Y308420D01*
X278575Y306197D02*
X273177Y299847D01*
X279527Y299847D01*
D12*
X349250Y139700D02*
X342900Y133350D01*
X349250Y139700D02*
X361950Y139700D01*
X368300Y133350D01*
X368300Y120650D01*
X361950Y114300D01*
X349250Y114300D01*
X342900Y120650D01*
X311150Y139700D02*
X298450Y139700D01*
X311150Y139700D02*
X317500Y133350D01*
X317500Y120650D01*
X311150Y114300D01*
X317500Y133350D02*
X323850Y139700D01*
X336550Y139700D01*
X342900Y133350D01*
X342900Y120650D01*
X336550Y114300D01*
X323850Y114300D01*
X317500Y120650D01*
X273050Y139700D02*
X266700Y133350D01*
X273050Y139700D02*
X285750Y139700D01*
X292100Y133350D01*
X292100Y120650D01*
X285750Y114300D01*
X273050Y114300D01*
X266700Y120650D01*
X292100Y133350D02*
X298450Y139700D01*
X292100Y120650D02*
X298450Y114300D01*
X311150Y114300D01*
X234950Y139700D02*
X222250Y139700D01*
X234950Y139700D02*
X241300Y133350D01*
X241300Y120650D01*
X234950Y114300D01*
X241300Y133350D02*
X247650Y139700D01*
X260350Y139700D01*
X266700Y133350D01*
X266700Y120650D01*
X260350Y114300D01*
X247650Y114300D01*
X241300Y120650D01*
X196850Y139700D02*
X190500Y133350D01*
X196850Y139700D02*
X209550Y139700D01*
X215900Y133350D01*
X215900Y120650D01*
X209550Y114300D01*
X196850Y114300D01*
X190500Y120650D01*
X215900Y133350D02*
X222250Y139700D01*
X215900Y120650D02*
X222250Y114300D01*
X234950Y114300D01*
X158750Y139700D02*
X146050Y139700D01*
X158750Y139700D02*
X165100Y133350D01*
X165100Y120650D01*
X158750Y114300D01*
X165100Y133350D02*
X171450Y139700D01*
X184150Y139700D01*
X190500Y133350D01*
X190500Y120650D01*
X184150Y114300D01*
X171450Y114300D01*
X165100Y120650D01*
X120650Y139700D02*
X114300Y133350D01*
X120650Y139700D02*
X133350Y139700D01*
X139700Y133350D01*
X139700Y120650D01*
X133350Y114300D01*
X120650Y114300D01*
X114300Y120650D01*
X139700Y133350D02*
X146050Y139700D01*
X139700Y120650D02*
X146050Y114300D01*
X158750Y114300D01*
X82550Y139700D02*
X69850Y139700D01*
X82550Y139700D02*
X88900Y133350D01*
X88900Y120650D01*
X82550Y114300D01*
X88900Y133350D02*
X95250Y139700D01*
X107950Y139700D01*
X114300Y133350D01*
X114300Y120650D01*
X107950Y114300D01*
X95250Y114300D01*
X88900Y120650D01*
X63500Y120650D02*
X63500Y133350D01*
X69850Y139700D01*
X63500Y120650D02*
X69850Y114300D01*
X82550Y114300D01*
X368300Y133350D02*
X374650Y139700D01*
X387350Y139700D01*
X393700Y133350D01*
X393700Y120650D01*
X387350Y114300D01*
X374650Y114300D01*
X368300Y120650D01*
D13*
X67183Y148463D02*
X67183Y157353D01*
X67183Y148463D02*
X67181Y148363D01*
X67175Y148264D01*
X67165Y148164D01*
X67152Y148066D01*
X67134Y147967D01*
X67113Y147870D01*
X67088Y147774D01*
X67059Y147678D01*
X67026Y147584D01*
X66990Y147491D01*
X66950Y147400D01*
X66906Y147310D01*
X66859Y147222D01*
X66809Y147136D01*
X66755Y147052D01*
X66698Y146970D01*
X66638Y146891D01*
X66574Y146813D01*
X66508Y146739D01*
X66439Y146667D01*
X66367Y146598D01*
X66293Y146532D01*
X66215Y146468D01*
X66136Y146408D01*
X66054Y146351D01*
X65970Y146297D01*
X65884Y146247D01*
X65796Y146200D01*
X65706Y146156D01*
X65615Y146116D01*
X65522Y146080D01*
X65428Y146047D01*
X65332Y146018D01*
X65236Y145993D01*
X65139Y145972D01*
X65040Y145954D01*
X64942Y145941D01*
X64842Y145931D01*
X64743Y145925D01*
X64643Y145923D01*
X63373Y145923D01*
X73163Y145923D02*
X73163Y157353D01*
X76338Y157353D01*
X76449Y157351D01*
X76559Y157345D01*
X76670Y157336D01*
X76780Y157322D01*
X76889Y157305D01*
X76998Y157284D01*
X77106Y157259D01*
X77213Y157230D01*
X77319Y157198D01*
X77424Y157162D01*
X77527Y157122D01*
X77629Y157079D01*
X77730Y157032D01*
X77829Y156981D01*
X77926Y156928D01*
X78020Y156871D01*
X78113Y156810D01*
X78204Y156747D01*
X78293Y156680D01*
X78379Y156610D01*
X78462Y156537D01*
X78544Y156462D01*
X78622Y156384D01*
X78697Y156302D01*
X78770Y156219D01*
X78840Y156133D01*
X78907Y156044D01*
X78970Y155953D01*
X79031Y155860D01*
X79088Y155765D01*
X79141Y155669D01*
X79192Y155570D01*
X79239Y155469D01*
X79282Y155367D01*
X79322Y155264D01*
X79358Y155159D01*
X79390Y155053D01*
X79419Y154946D01*
X79444Y154838D01*
X79465Y154729D01*
X79482Y154620D01*
X79496Y154510D01*
X79505Y154399D01*
X79511Y154289D01*
X79513Y154178D01*
X79511Y154067D01*
X79505Y153957D01*
X79496Y153846D01*
X79482Y153736D01*
X79465Y153627D01*
X79444Y153518D01*
X79419Y153410D01*
X79390Y153303D01*
X79358Y153197D01*
X79322Y153092D01*
X79282Y152989D01*
X79239Y152887D01*
X79192Y152786D01*
X79141Y152687D01*
X79088Y152590D01*
X79031Y152496D01*
X78970Y152403D01*
X78907Y152312D01*
X78840Y152223D01*
X78770Y152137D01*
X78697Y152054D01*
X78622Y151972D01*
X78544Y151894D01*
X78462Y151819D01*
X78379Y151746D01*
X78293Y151676D01*
X78204Y151609D01*
X78113Y151546D01*
X78020Y151485D01*
X77925Y151428D01*
X77829Y151375D01*
X77730Y151324D01*
X77629Y151277D01*
X77527Y151234D01*
X77424Y151194D01*
X77319Y151158D01*
X77213Y151126D01*
X77106Y151097D01*
X76998Y151072D01*
X76889Y151051D01*
X76780Y151034D01*
X76670Y151020D01*
X76559Y151011D01*
X76449Y151005D01*
X76338Y151003D01*
X73163Y151003D01*
X84022Y154813D02*
X87197Y157353D01*
X87197Y145923D01*
X84022Y145923D02*
X90372Y145923D01*
D12*
X342900Y387350D02*
X349250Y393700D01*
X361950Y393700D01*
X368300Y387350D01*
X368300Y374650D01*
X361950Y368300D01*
X349250Y368300D01*
X342900Y374650D01*
X311150Y393700D02*
X298450Y393700D01*
X311150Y393700D02*
X317500Y387350D01*
X317500Y374650D01*
X311150Y368300D01*
X317500Y387350D02*
X323850Y393700D01*
X336550Y393700D01*
X342900Y387350D01*
X342900Y374650D01*
X336550Y368300D01*
X323850Y368300D01*
X317500Y374650D01*
X273050Y393700D02*
X266700Y387350D01*
X273050Y393700D02*
X285750Y393700D01*
X292100Y387350D01*
X292100Y374650D01*
X285750Y368300D01*
X273050Y368300D01*
X266700Y374650D01*
X292100Y387350D02*
X298450Y393700D01*
X292100Y374650D02*
X298450Y368300D01*
X311150Y368300D01*
X234950Y393700D02*
X222250Y393700D01*
X234950Y393700D02*
X241300Y387350D01*
X241300Y374650D01*
X234950Y368300D01*
X241300Y387350D02*
X247650Y393700D01*
X260350Y393700D01*
X266700Y387350D01*
X266700Y374650D01*
X260350Y368300D01*
X247650Y368300D01*
X241300Y374650D01*
X196850Y393700D02*
X190500Y387350D01*
X196850Y393700D02*
X209550Y393700D01*
X215900Y387350D01*
X215900Y374650D01*
X209550Y368300D01*
X196850Y368300D01*
X190500Y374650D01*
X215900Y387350D02*
X222250Y393700D01*
X215900Y374650D02*
X222250Y368300D01*
X234950Y368300D01*
X158750Y393700D02*
X146050Y393700D01*
X158750Y393700D02*
X165100Y387350D01*
X165100Y374650D01*
X158750Y368300D01*
X165100Y387350D02*
X171450Y393700D01*
X184150Y393700D01*
X190500Y387350D01*
X190500Y374650D01*
X184150Y368300D01*
X171450Y368300D01*
X165100Y374650D01*
X120650Y393700D02*
X114300Y387350D01*
X120650Y393700D02*
X133350Y393700D01*
X139700Y387350D01*
X139700Y374650D01*
X133350Y368300D01*
X120650Y368300D01*
X114300Y374650D01*
X139700Y387350D02*
X146050Y393700D01*
X139700Y374650D02*
X146050Y368300D01*
X158750Y368300D01*
X82550Y393700D02*
X69850Y393700D01*
X82550Y393700D02*
X88900Y387350D01*
X88900Y374650D01*
X82550Y368300D01*
X88900Y387350D02*
X95250Y393700D01*
X107950Y393700D01*
X114300Y387350D01*
X114300Y374650D01*
X107950Y368300D01*
X95250Y368300D01*
X88900Y374650D01*
X63500Y374650D02*
X63500Y387350D01*
X69850Y393700D01*
X63500Y374650D02*
X69850Y368300D01*
X82550Y368300D01*
X368300Y387350D02*
X374650Y393700D01*
X387350Y393700D01*
X393700Y387350D01*
X393700Y374650D01*
X387350Y368300D01*
X374650Y368300D01*
X368300Y374650D01*
D13*
X67183Y360553D02*
X67183Y351663D01*
X67181Y351563D01*
X67175Y351464D01*
X67165Y351364D01*
X67152Y351266D01*
X67134Y351167D01*
X67113Y351070D01*
X67088Y350974D01*
X67059Y350878D01*
X67026Y350784D01*
X66990Y350691D01*
X66950Y350600D01*
X66906Y350510D01*
X66859Y350422D01*
X66809Y350336D01*
X66755Y350252D01*
X66698Y350170D01*
X66638Y350091D01*
X66574Y350013D01*
X66508Y349939D01*
X66439Y349867D01*
X66367Y349798D01*
X66293Y349732D01*
X66215Y349668D01*
X66136Y349608D01*
X66054Y349551D01*
X65970Y349497D01*
X65884Y349447D01*
X65796Y349400D01*
X65706Y349356D01*
X65615Y349316D01*
X65522Y349280D01*
X65428Y349247D01*
X65332Y349218D01*
X65236Y349193D01*
X65139Y349172D01*
X65040Y349154D01*
X64942Y349141D01*
X64842Y349131D01*
X64743Y349125D01*
X64643Y349123D01*
X63373Y349123D01*
X73163Y349123D02*
X73163Y360553D01*
X76338Y360553D01*
X76449Y360551D01*
X76559Y360545D01*
X76670Y360536D01*
X76780Y360522D01*
X76889Y360505D01*
X76998Y360484D01*
X77106Y360459D01*
X77213Y360430D01*
X77319Y360398D01*
X77424Y360362D01*
X77527Y360322D01*
X77629Y360279D01*
X77730Y360232D01*
X77829Y360181D01*
X77926Y360128D01*
X78020Y360071D01*
X78113Y360010D01*
X78204Y359947D01*
X78293Y359880D01*
X78379Y359810D01*
X78462Y359737D01*
X78544Y359662D01*
X78622Y359584D01*
X78697Y359502D01*
X78770Y359419D01*
X78840Y359333D01*
X78907Y359244D01*
X78970Y359153D01*
X79031Y359060D01*
X79088Y358965D01*
X79141Y358869D01*
X79192Y358770D01*
X79239Y358669D01*
X79282Y358567D01*
X79322Y358464D01*
X79358Y358359D01*
X79390Y358253D01*
X79419Y358146D01*
X79444Y358038D01*
X79465Y357929D01*
X79482Y357820D01*
X79496Y357710D01*
X79505Y357599D01*
X79511Y357489D01*
X79513Y357378D01*
X79511Y357267D01*
X79505Y357157D01*
X79496Y357046D01*
X79482Y356936D01*
X79465Y356827D01*
X79444Y356718D01*
X79419Y356610D01*
X79390Y356503D01*
X79358Y356397D01*
X79322Y356292D01*
X79282Y356189D01*
X79239Y356087D01*
X79192Y355986D01*
X79141Y355887D01*
X79088Y355790D01*
X79031Y355696D01*
X78970Y355603D01*
X78907Y355512D01*
X78840Y355423D01*
X78770Y355337D01*
X78697Y355254D01*
X78622Y355172D01*
X78544Y355094D01*
X78462Y355019D01*
X78379Y354946D01*
X78293Y354876D01*
X78204Y354809D01*
X78113Y354746D01*
X78020Y354685D01*
X77925Y354628D01*
X77829Y354575D01*
X77730Y354524D01*
X77629Y354477D01*
X77527Y354434D01*
X77424Y354394D01*
X77319Y354358D01*
X77213Y354326D01*
X77106Y354297D01*
X76998Y354272D01*
X76889Y354251D01*
X76780Y354234D01*
X76670Y354220D01*
X76559Y354211D01*
X76449Y354205D01*
X76338Y354203D01*
X73163Y354203D01*
X87514Y360554D02*
X87618Y360552D01*
X87723Y360546D01*
X87827Y360537D01*
X87930Y360524D01*
X88033Y360506D01*
X88135Y360486D01*
X88237Y360461D01*
X88337Y360433D01*
X88437Y360401D01*
X88535Y360365D01*
X88632Y360326D01*
X88727Y360284D01*
X88821Y360238D01*
X88913Y360188D01*
X89003Y360136D01*
X89091Y360080D01*
X89177Y360020D01*
X89261Y359958D01*
X89342Y359893D01*
X89421Y359825D01*
X89498Y359753D01*
X89571Y359680D01*
X89643Y359603D01*
X89711Y359524D01*
X89776Y359443D01*
X89838Y359359D01*
X89898Y359273D01*
X89954Y359185D01*
X90006Y359095D01*
X90056Y359003D01*
X90102Y358909D01*
X90144Y358814D01*
X90183Y358717D01*
X90219Y358619D01*
X90251Y358519D01*
X90279Y358419D01*
X90304Y358317D01*
X90324Y358215D01*
X90342Y358112D01*
X90355Y358009D01*
X90364Y357905D01*
X90370Y357800D01*
X90372Y357696D01*
X87514Y360553D02*
X87396Y360551D01*
X87277Y360545D01*
X87159Y360536D01*
X87042Y360523D01*
X86925Y360505D01*
X86808Y360485D01*
X86692Y360460D01*
X86577Y360432D01*
X86464Y360399D01*
X86351Y360364D01*
X86239Y360324D01*
X86129Y360282D01*
X86020Y360235D01*
X85912Y360185D01*
X85807Y360132D01*
X85703Y360075D01*
X85601Y360015D01*
X85501Y359952D01*
X85403Y359885D01*
X85307Y359816D01*
X85214Y359743D01*
X85123Y359667D01*
X85034Y359589D01*
X84948Y359507D01*
X84865Y359423D01*
X84784Y359337D01*
X84707Y359247D01*
X84632Y359156D01*
X84560Y359062D01*
X84491Y358965D01*
X84426Y358867D01*
X84363Y358766D01*
X84304Y358663D01*
X84248Y358559D01*
X84196Y358453D01*
X84147Y358345D01*
X84102Y358236D01*
X84060Y358125D01*
X84022Y358013D01*
X89420Y355474D02*
X89496Y355549D01*
X89571Y355628D01*
X89642Y355709D01*
X89711Y355793D01*
X89776Y355879D01*
X89838Y355967D01*
X89898Y356057D01*
X89954Y356149D01*
X90007Y356244D01*
X90056Y356340D01*
X90102Y356438D01*
X90145Y356537D01*
X90184Y356638D01*
X90219Y356740D01*
X90251Y356843D01*
X90279Y356947D01*
X90304Y357052D01*
X90325Y357159D01*
X90342Y357265D01*
X90355Y357372D01*
X90364Y357480D01*
X90370Y357588D01*
X90372Y357696D01*
X89419Y355473D02*
X84022Y349123D01*
X90372Y349123D01*
D12*
X69800Y204650D02*
X133400Y204650D01*
X133400Y227150D02*
X69800Y227150D01*
X69800Y204650D01*
X133400Y204650D02*
X133400Y227150D01*
D14*
X66275Y215900D03*
X136925Y215900D03*
D13*
X90805Y201295D02*
X90805Y189865D01*
X90805Y201295D02*
X93980Y201295D01*
X94091Y201293D01*
X94201Y201287D01*
X94312Y201278D01*
X94422Y201264D01*
X94531Y201247D01*
X94640Y201226D01*
X94748Y201201D01*
X94855Y201172D01*
X94961Y201140D01*
X95066Y201104D01*
X95169Y201064D01*
X95271Y201021D01*
X95372Y200974D01*
X95471Y200923D01*
X95568Y200870D01*
X95662Y200813D01*
X95755Y200752D01*
X95846Y200689D01*
X95935Y200622D01*
X96021Y200552D01*
X96104Y200479D01*
X96186Y200404D01*
X96264Y200326D01*
X96339Y200244D01*
X96412Y200161D01*
X96482Y200075D01*
X96549Y199986D01*
X96612Y199895D01*
X96673Y199802D01*
X96730Y199707D01*
X96783Y199611D01*
X96834Y199512D01*
X96881Y199411D01*
X96924Y199309D01*
X96964Y199206D01*
X97000Y199101D01*
X97032Y198995D01*
X97061Y198888D01*
X97086Y198780D01*
X97107Y198671D01*
X97124Y198562D01*
X97138Y198452D01*
X97147Y198341D01*
X97153Y198231D01*
X97155Y198120D01*
X97153Y198009D01*
X97147Y197899D01*
X97138Y197788D01*
X97124Y197678D01*
X97107Y197569D01*
X97086Y197460D01*
X97061Y197352D01*
X97032Y197245D01*
X97000Y197139D01*
X96964Y197034D01*
X96924Y196931D01*
X96881Y196829D01*
X96834Y196728D01*
X96783Y196629D01*
X96730Y196532D01*
X96673Y196438D01*
X96612Y196345D01*
X96549Y196254D01*
X96482Y196165D01*
X96412Y196079D01*
X96339Y195996D01*
X96264Y195914D01*
X96186Y195836D01*
X96104Y195761D01*
X96021Y195688D01*
X95935Y195618D01*
X95846Y195551D01*
X95755Y195488D01*
X95662Y195427D01*
X95567Y195370D01*
X95471Y195317D01*
X95372Y195266D01*
X95271Y195219D01*
X95169Y195176D01*
X95066Y195136D01*
X94961Y195100D01*
X94855Y195068D01*
X94748Y195039D01*
X94640Y195014D01*
X94531Y194993D01*
X94422Y194976D01*
X94312Y194962D01*
X94201Y194953D01*
X94091Y194947D01*
X93980Y194945D01*
X90805Y194945D01*
X94615Y194945D02*
X97155Y189865D01*
X108503Y198438D02*
X108501Y198542D01*
X108495Y198647D01*
X108486Y198751D01*
X108473Y198854D01*
X108455Y198957D01*
X108435Y199059D01*
X108410Y199161D01*
X108382Y199261D01*
X108350Y199361D01*
X108314Y199459D01*
X108275Y199556D01*
X108233Y199651D01*
X108187Y199745D01*
X108137Y199837D01*
X108085Y199927D01*
X108029Y200015D01*
X107969Y200101D01*
X107907Y200185D01*
X107842Y200266D01*
X107774Y200345D01*
X107702Y200422D01*
X107629Y200495D01*
X107552Y200567D01*
X107473Y200635D01*
X107392Y200700D01*
X107308Y200762D01*
X107222Y200822D01*
X107134Y200878D01*
X107044Y200930D01*
X106952Y200980D01*
X106858Y201026D01*
X106763Y201068D01*
X106666Y201107D01*
X106568Y201143D01*
X106468Y201175D01*
X106368Y201203D01*
X106266Y201228D01*
X106164Y201248D01*
X106061Y201266D01*
X105958Y201279D01*
X105854Y201288D01*
X105749Y201294D01*
X105645Y201296D01*
X105645Y201295D02*
X105527Y201293D01*
X105408Y201287D01*
X105290Y201278D01*
X105173Y201265D01*
X105056Y201247D01*
X104939Y201227D01*
X104823Y201202D01*
X104708Y201174D01*
X104595Y201141D01*
X104482Y201106D01*
X104370Y201066D01*
X104260Y201024D01*
X104151Y200977D01*
X104043Y200927D01*
X103938Y200874D01*
X103834Y200817D01*
X103732Y200757D01*
X103632Y200694D01*
X103534Y200627D01*
X103438Y200558D01*
X103345Y200485D01*
X103254Y200409D01*
X103165Y200331D01*
X103079Y200249D01*
X102996Y200165D01*
X102915Y200079D01*
X102838Y199989D01*
X102763Y199898D01*
X102691Y199804D01*
X102622Y199707D01*
X102557Y199609D01*
X102494Y199508D01*
X102435Y199405D01*
X102379Y199301D01*
X102327Y199195D01*
X102278Y199087D01*
X102233Y198978D01*
X102191Y198867D01*
X102153Y198755D01*
X107550Y196216D02*
X107626Y196291D01*
X107701Y196370D01*
X107772Y196451D01*
X107841Y196535D01*
X107906Y196621D01*
X107968Y196709D01*
X108028Y196799D01*
X108084Y196891D01*
X108137Y196986D01*
X108186Y197082D01*
X108232Y197180D01*
X108275Y197279D01*
X108314Y197380D01*
X108349Y197482D01*
X108381Y197585D01*
X108409Y197689D01*
X108434Y197794D01*
X108455Y197901D01*
X108472Y198007D01*
X108485Y198114D01*
X108494Y198222D01*
X108500Y198330D01*
X108502Y198438D01*
X107550Y196215D02*
X102152Y189865D01*
X108502Y189865D01*
X99186Y219298D02*
X99184Y219402D01*
X99178Y219507D01*
X99169Y219611D01*
X99156Y219714D01*
X99138Y219817D01*
X99118Y219919D01*
X99093Y220021D01*
X99065Y220121D01*
X99033Y220221D01*
X98997Y220319D01*
X98958Y220416D01*
X98916Y220511D01*
X98870Y220605D01*
X98820Y220697D01*
X98768Y220787D01*
X98712Y220875D01*
X98652Y220961D01*
X98590Y221045D01*
X98525Y221126D01*
X98457Y221205D01*
X98385Y221282D01*
X98312Y221355D01*
X98235Y221427D01*
X98156Y221495D01*
X98075Y221560D01*
X97991Y221622D01*
X97905Y221682D01*
X97817Y221738D01*
X97727Y221790D01*
X97635Y221840D01*
X97541Y221886D01*
X97446Y221928D01*
X97349Y221967D01*
X97251Y222003D01*
X97151Y222035D01*
X97051Y222063D01*
X96949Y222088D01*
X96847Y222108D01*
X96744Y222126D01*
X96641Y222139D01*
X96537Y222148D01*
X96432Y222154D01*
X96328Y222156D01*
X96328Y222155D02*
X96210Y222153D01*
X96091Y222147D01*
X95973Y222138D01*
X95856Y222125D01*
X95739Y222107D01*
X95622Y222087D01*
X95506Y222062D01*
X95391Y222034D01*
X95278Y222001D01*
X95165Y221966D01*
X95053Y221926D01*
X94943Y221884D01*
X94834Y221837D01*
X94726Y221787D01*
X94621Y221734D01*
X94517Y221677D01*
X94415Y221617D01*
X94315Y221554D01*
X94217Y221487D01*
X94121Y221418D01*
X94028Y221345D01*
X93937Y221269D01*
X93848Y221191D01*
X93762Y221109D01*
X93679Y221025D01*
X93598Y220939D01*
X93521Y220849D01*
X93446Y220758D01*
X93374Y220664D01*
X93305Y220567D01*
X93240Y220469D01*
X93177Y220368D01*
X93118Y220265D01*
X93062Y220161D01*
X93010Y220055D01*
X92961Y219947D01*
X92916Y219838D01*
X92874Y219727D01*
X92836Y219615D01*
X98233Y217076D02*
X98309Y217151D01*
X98384Y217230D01*
X98455Y217311D01*
X98524Y217395D01*
X98589Y217481D01*
X98651Y217569D01*
X98711Y217659D01*
X98767Y217751D01*
X98820Y217846D01*
X98869Y217942D01*
X98915Y218040D01*
X98958Y218139D01*
X98997Y218240D01*
X99032Y218342D01*
X99064Y218445D01*
X99092Y218549D01*
X99117Y218654D01*
X99138Y218761D01*
X99155Y218867D01*
X99168Y218974D01*
X99177Y219082D01*
X99183Y219190D01*
X99185Y219298D01*
X98233Y217075D02*
X92835Y210725D01*
X99185Y210725D01*
X104837Y210725D02*
X104837Y222155D01*
X111187Y222155D02*
X104837Y215170D01*
X107377Y217710D02*
X111187Y210725D01*
X130175Y263525D02*
X129818Y264075D01*
X129475Y264633D01*
X129146Y265200D01*
X128831Y265774D01*
X128529Y266356D01*
X128243Y266945D01*
X127970Y267541D01*
X127713Y268143D01*
X127470Y268752D01*
X127242Y269366D01*
X127030Y269986D01*
X126832Y270611D01*
X126650Y271241D01*
X126484Y271874D01*
X126333Y272512D01*
X126198Y273153D01*
X126078Y273797D01*
X125975Y274445D01*
X125887Y275094D01*
X125816Y275745D01*
X125760Y276398D01*
X125720Y277052D01*
X125697Y277707D01*
X125689Y278362D01*
X125698Y279017D01*
X125722Y279672D01*
X125763Y280326D01*
X125819Y280979D01*
X125892Y281630D01*
X125981Y282279D01*
X126085Y282926D01*
X126206Y283570D01*
X126342Y284211D01*
X126494Y284849D01*
X126661Y285482D01*
X126844Y286111D01*
X127042Y286736D01*
X127256Y287356D01*
X127484Y287970D01*
X127728Y288578D01*
X127987Y289180D01*
X128260Y289776D01*
X128547Y290364D01*
X128850Y290946D01*
X129166Y291520D01*
X129496Y292086D01*
X129840Y292643D01*
X130198Y293192D01*
X130569Y293732D01*
X130953Y294263D01*
X131350Y294785D01*
X131759Y295296D01*
X132181Y295797D01*
X132616Y296288D01*
X133062Y296768D01*
X133520Y297237D01*
X133989Y297694D01*
X134469Y298140D01*
X134960Y298574D01*
X135462Y298995D01*
X135973Y299405D01*
X136495Y299801D01*
X137026Y300185D01*
X137566Y300556D01*
X138116Y300913D01*
X138674Y301256D01*
X139240Y301586D01*
X139814Y301902D01*
X140396Y302204D01*
X140985Y302491D01*
X141580Y302764D01*
X142183Y303022D01*
X142791Y303265D01*
X143405Y303493D01*
X144025Y303706D01*
X144650Y303904D01*
X145279Y304086D01*
X145913Y304253D01*
X146550Y304405D01*
X147191Y304540D01*
X147836Y304660D01*
X148483Y304764D01*
X149132Y304852D01*
X149783Y304925D01*
X150436Y304981D01*
X151090Y305021D01*
X151745Y305045D01*
X152400Y305053D01*
X153055Y305045D01*
X153710Y305021D01*
X154364Y304981D01*
X155017Y304925D01*
X155668Y304852D01*
X156317Y304764D01*
X156964Y304660D01*
X157609Y304540D01*
X158250Y304405D01*
X158887Y304253D01*
X159521Y304086D01*
X160150Y303904D01*
X160775Y303706D01*
X161395Y303493D01*
X162009Y303265D01*
X162617Y303022D01*
X163220Y302764D01*
X163815Y302491D01*
X164404Y302204D01*
X164986Y301902D01*
X165560Y301586D01*
X166126Y301256D01*
X166684Y300913D01*
X167234Y300556D01*
X167774Y300185D01*
X168305Y299801D01*
X168827Y299405D01*
X169338Y298995D01*
X169840Y298574D01*
X170331Y298140D01*
X170811Y297694D01*
X171280Y297237D01*
X171738Y296768D01*
X172184Y296288D01*
X172619Y295797D01*
X173041Y295296D01*
X173450Y294785D01*
X173847Y294263D01*
X174231Y293732D01*
X174602Y293192D01*
X174960Y292643D01*
X175304Y292086D01*
X175634Y291520D01*
X175950Y290946D01*
X176253Y290364D01*
X176540Y289776D01*
X176813Y289180D01*
X177072Y288578D01*
X177316Y287970D01*
X177544Y287356D01*
X177758Y286736D01*
X177956Y286111D01*
X178139Y285482D01*
X178306Y284849D01*
X178458Y284211D01*
X178594Y283570D01*
X178715Y282926D01*
X178819Y282279D01*
X178908Y281630D01*
X178981Y280979D01*
X179037Y280326D01*
X179078Y279672D01*
X179102Y279017D01*
X179111Y278362D01*
X179103Y277707D01*
X179080Y277052D01*
X179040Y276398D01*
X178984Y275745D01*
X178913Y275094D01*
X178825Y274445D01*
X178722Y273797D01*
X178602Y273153D01*
X178467Y272512D01*
X178316Y271874D01*
X178150Y271241D01*
X177968Y270611D01*
X177770Y269986D01*
X177558Y269366D01*
X177330Y268752D01*
X177087Y268143D01*
X176830Y267541D01*
X176557Y266945D01*
X176271Y266356D01*
X175969Y265774D01*
X175654Y265200D01*
X175325Y264633D01*
X174982Y264075D01*
X174625Y263525D01*
X130175Y263525D01*
D11*
X130253Y259970D02*
X130348Y259968D01*
X130442Y259962D01*
X130536Y259953D01*
X130630Y259940D01*
X130723Y259923D01*
X130815Y259902D01*
X130907Y259877D01*
X130997Y259849D01*
X131086Y259817D01*
X131174Y259782D01*
X131260Y259743D01*
X131345Y259701D01*
X131428Y259655D01*
X131509Y259606D01*
X131588Y259554D01*
X131665Y259499D01*
X131739Y259440D01*
X131811Y259379D01*
X131881Y259315D01*
X131948Y259248D01*
X132012Y259178D01*
X132073Y259106D01*
X132132Y259032D01*
X132187Y258955D01*
X132239Y258876D01*
X132288Y258795D01*
X132334Y258712D01*
X132376Y258627D01*
X132415Y258541D01*
X132450Y258453D01*
X132482Y258364D01*
X132510Y258274D01*
X132535Y258182D01*
X132556Y258090D01*
X132573Y257997D01*
X132586Y257903D01*
X132595Y257809D01*
X132601Y257715D01*
X132603Y257620D01*
X130253Y259969D02*
X130145Y259967D01*
X130036Y259961D01*
X129928Y259951D01*
X129821Y259938D01*
X129714Y259920D01*
X129607Y259899D01*
X129502Y259874D01*
X129397Y259845D01*
X129294Y259813D01*
X129192Y259776D01*
X129091Y259736D01*
X128992Y259693D01*
X128894Y259646D01*
X128798Y259595D01*
X128704Y259541D01*
X128612Y259484D01*
X128522Y259423D01*
X128434Y259359D01*
X128349Y259293D01*
X128266Y259223D01*
X128186Y259150D01*
X128108Y259074D01*
X128033Y258996D01*
X127961Y258915D01*
X127892Y258831D01*
X127826Y258745D01*
X127763Y258657D01*
X127704Y258566D01*
X127647Y258474D01*
X127594Y258379D01*
X127545Y258283D01*
X127499Y258184D01*
X127456Y258085D01*
X127417Y257983D01*
X127382Y257881D01*
X131819Y255792D02*
X131888Y255861D01*
X131954Y255932D01*
X132018Y256005D01*
X132079Y256081D01*
X132137Y256160D01*
X132191Y256240D01*
X132243Y256323D01*
X132291Y256407D01*
X132337Y256493D01*
X132378Y256581D01*
X132417Y256671D01*
X132452Y256762D01*
X132483Y256854D01*
X132511Y256947D01*
X132535Y257041D01*
X132555Y257136D01*
X132572Y257232D01*
X132585Y257329D01*
X132594Y257426D01*
X132600Y257523D01*
X132602Y257620D01*
X131819Y255792D02*
X127381Y250571D01*
X132602Y250571D01*
X136830Y250571D02*
X136830Y259969D01*
X142051Y250571D01*
X142051Y259969D01*
X146279Y259969D02*
X146279Y258925D01*
X146279Y259969D02*
X151500Y259969D01*
X148889Y250571D01*
X155422Y255270D02*
X155424Y255455D01*
X155431Y255640D01*
X155442Y255824D01*
X155457Y256008D01*
X155477Y256192D01*
X155501Y256376D01*
X155530Y256558D01*
X155563Y256740D01*
X155600Y256921D01*
X155642Y257101D01*
X155688Y257281D01*
X155738Y257459D01*
X155792Y257635D01*
X155851Y257811D01*
X155913Y257985D01*
X155980Y258157D01*
X156051Y258328D01*
X156126Y258497D01*
X156205Y258664D01*
X156235Y258744D01*
X156268Y258823D01*
X156305Y258900D01*
X156345Y258976D01*
X156388Y259050D01*
X156434Y259122D01*
X156484Y259191D01*
X156536Y259259D01*
X156592Y259324D01*
X156650Y259387D01*
X156712Y259446D01*
X156775Y259504D01*
X156842Y259558D01*
X156910Y259609D01*
X156981Y259657D01*
X157054Y259702D01*
X157128Y259744D01*
X157205Y259782D01*
X157283Y259817D01*
X157362Y259849D01*
X157443Y259877D01*
X157525Y259901D01*
X157609Y259922D01*
X157692Y259939D01*
X157777Y259952D01*
X157862Y259961D01*
X157947Y259967D01*
X158033Y259969D01*
X158119Y259967D01*
X158204Y259961D01*
X158289Y259952D01*
X158374Y259939D01*
X158457Y259922D01*
X158541Y259901D01*
X158623Y259877D01*
X158704Y259849D01*
X158783Y259817D01*
X158861Y259782D01*
X158938Y259744D01*
X159012Y259702D01*
X159085Y259657D01*
X159156Y259609D01*
X159224Y259558D01*
X159291Y259504D01*
X159354Y259446D01*
X159416Y259387D01*
X159474Y259324D01*
X159530Y259259D01*
X159582Y259191D01*
X159632Y259122D01*
X159678Y259050D01*
X159721Y258976D01*
X159761Y258900D01*
X159798Y258823D01*
X159831Y258744D01*
X159861Y258664D01*
X159940Y258497D01*
X160015Y258328D01*
X160086Y258157D01*
X160153Y257985D01*
X160215Y257811D01*
X160274Y257635D01*
X160328Y257459D01*
X160378Y257281D01*
X160424Y257101D01*
X160466Y256921D01*
X160503Y256740D01*
X160536Y256558D01*
X160565Y256376D01*
X160589Y256192D01*
X160609Y256008D01*
X160624Y255824D01*
X160635Y255640D01*
X160642Y255455D01*
X160644Y255270D01*
X155422Y255270D02*
X155424Y255085D01*
X155431Y254900D01*
X155442Y254716D01*
X155457Y254532D01*
X155477Y254348D01*
X155501Y254164D01*
X155530Y253982D01*
X155563Y253800D01*
X155600Y253619D01*
X155642Y253439D01*
X155688Y253259D01*
X155738Y253081D01*
X155792Y252905D01*
X155851Y252729D01*
X155913Y252555D01*
X155980Y252383D01*
X156051Y252212D01*
X156126Y252043D01*
X156205Y251876D01*
X156235Y251796D01*
X156268Y251717D01*
X156305Y251640D01*
X156345Y251564D01*
X156388Y251490D01*
X156434Y251418D01*
X156484Y251349D01*
X156537Y251281D01*
X156592Y251216D01*
X156651Y251153D01*
X156712Y251094D01*
X156775Y251036D01*
X156842Y250982D01*
X156910Y250931D01*
X156981Y250883D01*
X157054Y250838D01*
X157128Y250796D01*
X157205Y250758D01*
X157283Y250723D01*
X157362Y250691D01*
X157443Y250663D01*
X157525Y250639D01*
X157609Y250618D01*
X157692Y250601D01*
X157777Y250588D01*
X157862Y250579D01*
X157947Y250573D01*
X158033Y250571D01*
X159861Y251876D02*
X159940Y252043D01*
X160015Y252212D01*
X160086Y252383D01*
X160153Y252555D01*
X160215Y252729D01*
X160274Y252905D01*
X160328Y253081D01*
X160378Y253259D01*
X160424Y253439D01*
X160466Y253619D01*
X160503Y253800D01*
X160536Y253982D01*
X160565Y254164D01*
X160589Y254348D01*
X160609Y254532D01*
X160624Y254716D01*
X160635Y254900D01*
X160642Y255085D01*
X160644Y255270D01*
X159861Y251876D02*
X159831Y251796D01*
X159798Y251717D01*
X159761Y251640D01*
X159721Y251564D01*
X159678Y251490D01*
X159632Y251418D01*
X159582Y251349D01*
X159530Y251281D01*
X159474Y251216D01*
X159416Y251153D01*
X159354Y251094D01*
X159291Y251036D01*
X159224Y250982D01*
X159156Y250931D01*
X159085Y250883D01*
X159012Y250838D01*
X158938Y250796D01*
X158861Y250758D01*
X158783Y250723D01*
X158704Y250691D01*
X158623Y250663D01*
X158541Y250639D01*
X158457Y250618D01*
X158374Y250601D01*
X158289Y250588D01*
X158204Y250579D01*
X158119Y250573D01*
X158033Y250571D01*
X155945Y252659D02*
X160122Y257881D01*
X164566Y255270D02*
X164568Y255455D01*
X164575Y255640D01*
X164586Y255824D01*
X164601Y256008D01*
X164621Y256192D01*
X164645Y256376D01*
X164674Y256558D01*
X164707Y256740D01*
X164744Y256921D01*
X164786Y257101D01*
X164832Y257281D01*
X164882Y257459D01*
X164936Y257635D01*
X164995Y257811D01*
X165057Y257985D01*
X165124Y258157D01*
X165195Y258328D01*
X165270Y258497D01*
X165349Y258664D01*
X165379Y258744D01*
X165412Y258823D01*
X165449Y258900D01*
X165489Y258976D01*
X165532Y259050D01*
X165578Y259122D01*
X165628Y259191D01*
X165680Y259259D01*
X165736Y259324D01*
X165794Y259387D01*
X165856Y259446D01*
X165919Y259504D01*
X165986Y259558D01*
X166054Y259609D01*
X166125Y259657D01*
X166198Y259702D01*
X166272Y259744D01*
X166349Y259782D01*
X166427Y259817D01*
X166506Y259849D01*
X166587Y259877D01*
X166669Y259901D01*
X166753Y259922D01*
X166836Y259939D01*
X166921Y259952D01*
X167006Y259961D01*
X167091Y259967D01*
X167177Y259969D01*
X167263Y259967D01*
X167348Y259961D01*
X167433Y259952D01*
X167518Y259939D01*
X167601Y259922D01*
X167685Y259901D01*
X167767Y259877D01*
X167848Y259849D01*
X167927Y259817D01*
X168005Y259782D01*
X168082Y259744D01*
X168156Y259702D01*
X168229Y259657D01*
X168300Y259609D01*
X168368Y259558D01*
X168435Y259504D01*
X168498Y259446D01*
X168560Y259387D01*
X168618Y259324D01*
X168674Y259259D01*
X168726Y259191D01*
X168776Y259122D01*
X168822Y259050D01*
X168865Y258976D01*
X168905Y258900D01*
X168942Y258823D01*
X168975Y258744D01*
X169005Y258664D01*
X169084Y258497D01*
X169159Y258328D01*
X169230Y258157D01*
X169297Y257985D01*
X169359Y257811D01*
X169418Y257635D01*
X169472Y257459D01*
X169522Y257281D01*
X169568Y257101D01*
X169610Y256921D01*
X169647Y256740D01*
X169680Y256558D01*
X169709Y256376D01*
X169733Y256192D01*
X169753Y256008D01*
X169768Y255824D01*
X169779Y255640D01*
X169786Y255455D01*
X169788Y255270D01*
X164566Y255270D02*
X164568Y255085D01*
X164575Y254900D01*
X164586Y254716D01*
X164601Y254532D01*
X164621Y254348D01*
X164645Y254164D01*
X164674Y253982D01*
X164707Y253800D01*
X164744Y253619D01*
X164786Y253439D01*
X164832Y253259D01*
X164882Y253081D01*
X164936Y252905D01*
X164995Y252729D01*
X165057Y252555D01*
X165124Y252383D01*
X165195Y252212D01*
X165270Y252043D01*
X165349Y251876D01*
X165379Y251796D01*
X165412Y251717D01*
X165449Y251640D01*
X165489Y251564D01*
X165532Y251490D01*
X165578Y251418D01*
X165628Y251349D01*
X165681Y251281D01*
X165736Y251216D01*
X165795Y251153D01*
X165856Y251094D01*
X165919Y251036D01*
X165986Y250982D01*
X166054Y250931D01*
X166125Y250883D01*
X166198Y250838D01*
X166272Y250796D01*
X166349Y250758D01*
X166427Y250723D01*
X166506Y250691D01*
X166587Y250663D01*
X166669Y250639D01*
X166753Y250618D01*
X166836Y250601D01*
X166921Y250588D01*
X167006Y250579D01*
X167091Y250573D01*
X167177Y250571D01*
X169005Y251876D02*
X169084Y252043D01*
X169159Y252212D01*
X169230Y252383D01*
X169297Y252555D01*
X169359Y252729D01*
X169418Y252905D01*
X169472Y253081D01*
X169522Y253259D01*
X169568Y253439D01*
X169610Y253619D01*
X169647Y253800D01*
X169680Y253982D01*
X169709Y254164D01*
X169733Y254348D01*
X169753Y254532D01*
X169768Y254716D01*
X169779Y254900D01*
X169786Y255085D01*
X169788Y255270D01*
X169005Y251876D02*
X168975Y251796D01*
X168942Y251717D01*
X168905Y251640D01*
X168865Y251564D01*
X168822Y251490D01*
X168776Y251418D01*
X168726Y251349D01*
X168674Y251281D01*
X168618Y251216D01*
X168560Y251153D01*
X168498Y251094D01*
X168435Y251036D01*
X168368Y250982D01*
X168300Y250931D01*
X168229Y250883D01*
X168156Y250838D01*
X168082Y250796D01*
X168005Y250758D01*
X167927Y250723D01*
X167848Y250691D01*
X167767Y250663D01*
X167685Y250639D01*
X167601Y250618D01*
X167518Y250601D01*
X167433Y250588D01*
X167348Y250579D01*
X167263Y250573D01*
X167177Y250571D01*
X165089Y252659D02*
X169266Y257881D01*
X173710Y255270D02*
X173712Y255455D01*
X173719Y255640D01*
X173730Y255824D01*
X173745Y256008D01*
X173765Y256192D01*
X173789Y256376D01*
X173818Y256558D01*
X173851Y256740D01*
X173888Y256921D01*
X173930Y257101D01*
X173976Y257281D01*
X174026Y257459D01*
X174080Y257635D01*
X174139Y257811D01*
X174201Y257985D01*
X174268Y258157D01*
X174339Y258328D01*
X174414Y258497D01*
X174493Y258664D01*
X174523Y258744D01*
X174556Y258823D01*
X174593Y258900D01*
X174633Y258976D01*
X174676Y259050D01*
X174722Y259122D01*
X174772Y259191D01*
X174824Y259259D01*
X174880Y259324D01*
X174938Y259387D01*
X175000Y259446D01*
X175063Y259504D01*
X175130Y259558D01*
X175198Y259609D01*
X175269Y259657D01*
X175342Y259702D01*
X175416Y259744D01*
X175493Y259782D01*
X175571Y259817D01*
X175650Y259849D01*
X175731Y259877D01*
X175813Y259901D01*
X175897Y259922D01*
X175980Y259939D01*
X176065Y259952D01*
X176150Y259961D01*
X176235Y259967D01*
X176321Y259969D01*
X176407Y259967D01*
X176492Y259961D01*
X176577Y259952D01*
X176662Y259939D01*
X176745Y259922D01*
X176829Y259901D01*
X176911Y259877D01*
X176992Y259849D01*
X177071Y259817D01*
X177149Y259782D01*
X177226Y259744D01*
X177300Y259702D01*
X177373Y259657D01*
X177444Y259609D01*
X177512Y259558D01*
X177579Y259504D01*
X177642Y259446D01*
X177704Y259387D01*
X177762Y259324D01*
X177818Y259259D01*
X177870Y259191D01*
X177920Y259122D01*
X177966Y259050D01*
X178009Y258976D01*
X178049Y258900D01*
X178086Y258823D01*
X178119Y258744D01*
X178149Y258664D01*
X178228Y258497D01*
X178303Y258328D01*
X178374Y258157D01*
X178441Y257985D01*
X178503Y257811D01*
X178562Y257635D01*
X178616Y257459D01*
X178666Y257281D01*
X178712Y257101D01*
X178754Y256921D01*
X178791Y256740D01*
X178824Y256558D01*
X178853Y256376D01*
X178877Y256192D01*
X178897Y256008D01*
X178912Y255824D01*
X178923Y255640D01*
X178930Y255455D01*
X178932Y255270D01*
X173710Y255270D02*
X173712Y255085D01*
X173719Y254900D01*
X173730Y254716D01*
X173745Y254532D01*
X173765Y254348D01*
X173789Y254164D01*
X173818Y253982D01*
X173851Y253800D01*
X173888Y253619D01*
X173930Y253439D01*
X173976Y253259D01*
X174026Y253081D01*
X174080Y252905D01*
X174139Y252729D01*
X174201Y252555D01*
X174268Y252383D01*
X174339Y252212D01*
X174414Y252043D01*
X174493Y251876D01*
X174523Y251796D01*
X174556Y251717D01*
X174593Y251640D01*
X174633Y251564D01*
X174676Y251490D01*
X174722Y251418D01*
X174772Y251349D01*
X174825Y251281D01*
X174880Y251216D01*
X174939Y251153D01*
X175000Y251094D01*
X175063Y251036D01*
X175130Y250982D01*
X175198Y250931D01*
X175269Y250883D01*
X175342Y250838D01*
X175416Y250796D01*
X175493Y250758D01*
X175571Y250723D01*
X175650Y250691D01*
X175731Y250663D01*
X175813Y250639D01*
X175897Y250618D01*
X175980Y250601D01*
X176065Y250588D01*
X176150Y250579D01*
X176235Y250573D01*
X176321Y250571D01*
X178149Y251876D02*
X178228Y252043D01*
X178303Y252212D01*
X178374Y252383D01*
X178441Y252555D01*
X178503Y252729D01*
X178562Y252905D01*
X178616Y253081D01*
X178666Y253259D01*
X178712Y253439D01*
X178754Y253619D01*
X178791Y253800D01*
X178824Y253982D01*
X178853Y254164D01*
X178877Y254348D01*
X178897Y254532D01*
X178912Y254716D01*
X178923Y254900D01*
X178930Y255085D01*
X178932Y255270D01*
X178149Y251876D02*
X178119Y251796D01*
X178086Y251717D01*
X178049Y251640D01*
X178009Y251564D01*
X177966Y251490D01*
X177920Y251418D01*
X177870Y251349D01*
X177818Y251281D01*
X177762Y251216D01*
X177704Y251153D01*
X177642Y251094D01*
X177579Y251036D01*
X177512Y250982D01*
X177444Y250931D01*
X177373Y250883D01*
X177300Y250838D01*
X177226Y250796D01*
X177149Y250758D01*
X177071Y250723D01*
X176992Y250691D01*
X176911Y250663D01*
X176829Y250639D01*
X176745Y250618D01*
X176662Y250601D01*
X176577Y250588D01*
X176492Y250579D01*
X176407Y250573D01*
X176321Y250571D01*
X174233Y252659D02*
X178409Y257881D01*
D12*
X318950Y260400D02*
X318950Y196800D01*
X341450Y196800D02*
X341450Y260400D01*
X318950Y260400D01*
X318950Y196800D02*
X341450Y196800D01*
D15*
X330200Y263925D03*
X330200Y193275D03*
D13*
X315595Y222968D02*
X304165Y222968D01*
X304165Y226143D01*
X304167Y226254D01*
X304173Y226364D01*
X304182Y226475D01*
X304196Y226585D01*
X304213Y226694D01*
X304234Y226803D01*
X304259Y226911D01*
X304288Y227018D01*
X304320Y227124D01*
X304356Y227229D01*
X304396Y227332D01*
X304439Y227434D01*
X304486Y227535D01*
X304537Y227634D01*
X304590Y227731D01*
X304647Y227825D01*
X304708Y227918D01*
X304771Y228009D01*
X304838Y228098D01*
X304908Y228184D01*
X304981Y228267D01*
X305056Y228349D01*
X305134Y228427D01*
X305216Y228502D01*
X305299Y228575D01*
X305385Y228645D01*
X305474Y228712D01*
X305565Y228775D01*
X305658Y228836D01*
X305753Y228893D01*
X305849Y228946D01*
X305948Y228997D01*
X306049Y229044D01*
X306151Y229087D01*
X306254Y229127D01*
X306359Y229163D01*
X306465Y229195D01*
X306572Y229224D01*
X306680Y229249D01*
X306789Y229270D01*
X306898Y229287D01*
X307008Y229301D01*
X307119Y229310D01*
X307229Y229316D01*
X307340Y229318D01*
X307451Y229316D01*
X307561Y229310D01*
X307672Y229301D01*
X307782Y229287D01*
X307891Y229270D01*
X308000Y229249D01*
X308108Y229224D01*
X308215Y229195D01*
X308321Y229163D01*
X308426Y229127D01*
X308529Y229087D01*
X308631Y229044D01*
X308732Y228997D01*
X308831Y228946D01*
X308928Y228893D01*
X309022Y228836D01*
X309115Y228775D01*
X309206Y228712D01*
X309295Y228645D01*
X309381Y228575D01*
X309464Y228502D01*
X309546Y228427D01*
X309624Y228349D01*
X309699Y228267D01*
X309772Y228184D01*
X309842Y228098D01*
X309909Y228009D01*
X309972Y227918D01*
X310033Y227825D01*
X310090Y227731D01*
X310143Y227634D01*
X310194Y227535D01*
X310241Y227434D01*
X310284Y227332D01*
X310324Y227229D01*
X310360Y227124D01*
X310392Y227018D01*
X310421Y226911D01*
X310446Y226803D01*
X310467Y226694D01*
X310484Y226585D01*
X310498Y226475D01*
X310507Y226364D01*
X310513Y226254D01*
X310515Y226143D01*
X310515Y222968D01*
X310515Y226778D02*
X315595Y229318D01*
X306705Y234315D02*
X304165Y237490D01*
X315595Y237490D01*
X315595Y234315D02*
X315595Y240665D01*
X325025Y213172D02*
X333915Y210632D01*
X333915Y216982D01*
X331375Y215077D02*
X336455Y215077D01*
X336455Y221490D02*
X335820Y221490D01*
X335820Y222125D01*
X336455Y222125D01*
X336455Y221490D01*
X326295Y226634D02*
X325025Y226634D01*
X325025Y232984D01*
X336455Y229809D01*
X336455Y238635D02*
X325025Y238635D01*
X325025Y244985D02*
X332010Y238635D01*
X329470Y241175D02*
X336455Y244985D01*
D16*
X417800Y72025D02*
X417800Y14525D01*
X417800Y72025D02*
X318800Y72025D01*
X318800Y14525D01*
X417800Y14525D01*
X342300Y15100D02*
X342300Y20100D01*
X393300Y20100D02*
X393300Y15100D01*
D10*
X312242Y20748D02*
X303098Y20748D01*
X303098Y18208D02*
X303098Y23288D01*
X312242Y27067D02*
X312242Y31131D01*
X312242Y27067D02*
X303098Y27067D01*
X303098Y31131D01*
X307162Y30115D02*
X307162Y27067D01*
X303098Y35074D02*
X312242Y35074D01*
X308178Y38122D02*
X303098Y35074D01*
X308178Y38122D02*
X303098Y41170D01*
X312242Y41170D01*
X312242Y46097D02*
X303098Y46097D01*
X303098Y48637D01*
X303100Y48737D01*
X303106Y48836D01*
X303116Y48936D01*
X303129Y49034D01*
X303147Y49133D01*
X303168Y49230D01*
X303193Y49326D01*
X303222Y49422D01*
X303255Y49516D01*
X303291Y49609D01*
X303331Y49700D01*
X303375Y49790D01*
X303422Y49878D01*
X303472Y49964D01*
X303526Y50048D01*
X303583Y50130D01*
X303643Y50209D01*
X303707Y50287D01*
X303773Y50361D01*
X303842Y50433D01*
X303914Y50502D01*
X303988Y50568D01*
X304066Y50632D01*
X304145Y50692D01*
X304227Y50749D01*
X304311Y50803D01*
X304397Y50853D01*
X304485Y50900D01*
X304575Y50944D01*
X304666Y50984D01*
X304759Y51020D01*
X304853Y51053D01*
X304949Y51082D01*
X305045Y51107D01*
X305142Y51128D01*
X305241Y51146D01*
X305339Y51159D01*
X305439Y51169D01*
X305538Y51175D01*
X305638Y51177D01*
X305738Y51175D01*
X305837Y51169D01*
X305937Y51159D01*
X306035Y51146D01*
X306134Y51128D01*
X306231Y51107D01*
X306327Y51082D01*
X306423Y51053D01*
X306517Y51020D01*
X306610Y50984D01*
X306701Y50944D01*
X306791Y50900D01*
X306879Y50853D01*
X306965Y50803D01*
X307049Y50749D01*
X307131Y50692D01*
X307210Y50632D01*
X307288Y50568D01*
X307362Y50502D01*
X307434Y50433D01*
X307503Y50361D01*
X307569Y50287D01*
X307633Y50209D01*
X307693Y50130D01*
X307750Y50048D01*
X307804Y49964D01*
X307854Y49878D01*
X307901Y49790D01*
X307945Y49700D01*
X307985Y49609D01*
X308021Y49516D01*
X308054Y49422D01*
X308083Y49326D01*
X308108Y49230D01*
X308129Y49133D01*
X308147Y49034D01*
X308160Y48936D01*
X308170Y48836D01*
X308176Y48737D01*
X308178Y48637D01*
X308178Y46097D01*
D16*
X265600Y72025D02*
X265600Y14525D01*
X265600Y72025D02*
X191600Y72025D01*
X191600Y14525D01*
X265600Y14525D01*
D17*
X215600Y15100D02*
X215600Y20100D01*
X241600Y20100D02*
X241600Y15100D01*
X241600Y20100D02*
X215600Y20100D01*
D10*
X185542Y18208D02*
X176398Y18208D01*
X176398Y20748D01*
X176400Y20848D01*
X176406Y20947D01*
X176416Y21047D01*
X176429Y21145D01*
X176447Y21244D01*
X176468Y21341D01*
X176493Y21437D01*
X176522Y21533D01*
X176555Y21627D01*
X176591Y21720D01*
X176631Y21811D01*
X176675Y21901D01*
X176722Y21989D01*
X176772Y22075D01*
X176826Y22159D01*
X176883Y22241D01*
X176943Y22320D01*
X177007Y22398D01*
X177073Y22472D01*
X177142Y22544D01*
X177214Y22613D01*
X177288Y22679D01*
X177366Y22743D01*
X177445Y22803D01*
X177527Y22860D01*
X177611Y22914D01*
X177697Y22964D01*
X177785Y23011D01*
X177875Y23055D01*
X177966Y23095D01*
X178059Y23131D01*
X178153Y23164D01*
X178249Y23193D01*
X178345Y23218D01*
X178442Y23239D01*
X178541Y23257D01*
X178639Y23270D01*
X178739Y23280D01*
X178838Y23286D01*
X178938Y23288D01*
X179038Y23286D01*
X179137Y23280D01*
X179237Y23270D01*
X179335Y23257D01*
X179434Y23239D01*
X179531Y23218D01*
X179627Y23193D01*
X179723Y23164D01*
X179817Y23131D01*
X179910Y23095D01*
X180001Y23055D01*
X180091Y23011D01*
X180179Y22964D01*
X180265Y22914D01*
X180349Y22860D01*
X180431Y22803D01*
X180510Y22743D01*
X180588Y22679D01*
X180662Y22613D01*
X180734Y22544D01*
X180803Y22472D01*
X180869Y22398D01*
X180933Y22320D01*
X180993Y22241D01*
X181050Y22159D01*
X181104Y22075D01*
X181154Y21989D01*
X181201Y21901D01*
X181245Y21811D01*
X181285Y21720D01*
X181321Y21627D01*
X181354Y21533D01*
X181383Y21437D01*
X181408Y21341D01*
X181429Y21244D01*
X181447Y21145D01*
X181460Y21047D01*
X181470Y20947D01*
X181476Y20848D01*
X181478Y20748D01*
X181478Y18208D01*
X181478Y21256D02*
X185542Y23288D01*
X185542Y30029D02*
X185540Y30118D01*
X185534Y30206D01*
X185525Y30294D01*
X185511Y30382D01*
X185494Y30469D01*
X185473Y30555D01*
X185448Y30640D01*
X185419Y30724D01*
X185387Y30807D01*
X185352Y30888D01*
X185312Y30967D01*
X185270Y31045D01*
X185224Y31121D01*
X185175Y31195D01*
X185122Y31266D01*
X185067Y31335D01*
X185008Y31402D01*
X184947Y31466D01*
X184883Y31527D01*
X184816Y31586D01*
X184747Y31641D01*
X184676Y31694D01*
X184602Y31743D01*
X184526Y31789D01*
X184448Y31831D01*
X184369Y31871D01*
X184288Y31906D01*
X184205Y31938D01*
X184121Y31967D01*
X184036Y31992D01*
X183950Y32013D01*
X183863Y32030D01*
X183775Y32044D01*
X183687Y32053D01*
X183599Y32059D01*
X183510Y32061D01*
X185542Y30029D02*
X185540Y29899D01*
X185534Y29768D01*
X185524Y29638D01*
X185510Y29509D01*
X185493Y29380D01*
X185471Y29251D01*
X185445Y29123D01*
X185416Y28996D01*
X185383Y28870D01*
X185346Y28745D01*
X185305Y28621D01*
X185260Y28499D01*
X185212Y28378D01*
X185160Y28258D01*
X185104Y28140D01*
X185045Y28024D01*
X184982Y27910D01*
X184916Y27797D01*
X184847Y27687D01*
X184774Y27579D01*
X184698Y27473D01*
X184619Y27369D01*
X184537Y27268D01*
X184451Y27170D01*
X184363Y27074D01*
X184272Y26981D01*
X178430Y27235D02*
X178341Y27237D01*
X178253Y27243D01*
X178165Y27252D01*
X178077Y27266D01*
X177990Y27283D01*
X177904Y27304D01*
X177819Y27329D01*
X177735Y27358D01*
X177652Y27390D01*
X177571Y27425D01*
X177492Y27465D01*
X177414Y27507D01*
X177338Y27553D01*
X177264Y27602D01*
X177193Y27655D01*
X177124Y27710D01*
X177057Y27769D01*
X176993Y27830D01*
X176932Y27894D01*
X176873Y27961D01*
X176818Y28030D01*
X176765Y28101D01*
X176716Y28175D01*
X176670Y28251D01*
X176628Y28329D01*
X176588Y28408D01*
X176553Y28489D01*
X176521Y28572D01*
X176492Y28656D01*
X176467Y28741D01*
X176446Y28827D01*
X176429Y28914D01*
X176415Y29002D01*
X176406Y29090D01*
X176400Y29178D01*
X176398Y29267D01*
X176400Y29390D01*
X176406Y29512D01*
X176416Y29634D01*
X176430Y29756D01*
X176447Y29877D01*
X176469Y29998D01*
X176494Y30118D01*
X176524Y30237D01*
X176557Y30355D01*
X176594Y30472D01*
X176634Y30587D01*
X176678Y30702D01*
X176726Y30815D01*
X176778Y30926D01*
X176833Y31035D01*
X176892Y31143D01*
X176954Y31249D01*
X177019Y31352D01*
X177088Y31454D01*
X177160Y31553D01*
X180208Y28251D02*
X180161Y28175D01*
X180111Y28101D01*
X180058Y28030D01*
X180001Y27961D01*
X179942Y27894D01*
X179880Y27830D01*
X179815Y27768D01*
X179747Y27710D01*
X179677Y27655D01*
X179605Y27602D01*
X179531Y27553D01*
X179454Y27507D01*
X179376Y27464D01*
X179295Y27425D01*
X179213Y27389D01*
X179130Y27357D01*
X179046Y27329D01*
X178960Y27304D01*
X178873Y27283D01*
X178785Y27266D01*
X178697Y27252D01*
X178608Y27243D01*
X178519Y27237D01*
X178430Y27235D01*
X181732Y31045D02*
X181779Y31121D01*
X181829Y31195D01*
X181882Y31266D01*
X181939Y31335D01*
X181998Y31402D01*
X182060Y31466D01*
X182125Y31528D01*
X182193Y31586D01*
X182263Y31641D01*
X182335Y31694D01*
X182409Y31743D01*
X182486Y31789D01*
X182564Y31832D01*
X182645Y31871D01*
X182727Y31907D01*
X182810Y31939D01*
X182894Y31967D01*
X182980Y31992D01*
X183067Y32013D01*
X183155Y32030D01*
X183243Y32044D01*
X183332Y32053D01*
X183421Y32059D01*
X183510Y32061D01*
X181732Y31045D02*
X180208Y28251D01*
X176398Y37750D02*
X185542Y37750D01*
X176398Y35210D02*
X176398Y40290D01*
D16*
X151300Y14525D02*
X151300Y72025D01*
X77300Y72025D01*
X77300Y14525D01*
X151300Y14525D01*
D17*
X101300Y15100D02*
X101300Y20100D01*
X127300Y20100D02*
X127300Y15100D01*
X127300Y20100D02*
X101300Y20100D01*
D10*
X71242Y18208D02*
X62098Y18208D01*
X67178Y21256D01*
X62098Y24304D01*
X71242Y24304D01*
X68702Y28774D02*
X64638Y28774D01*
X64538Y28776D01*
X64439Y28782D01*
X64339Y28792D01*
X64241Y28805D01*
X64142Y28823D01*
X64045Y28844D01*
X63949Y28869D01*
X63853Y28898D01*
X63759Y28931D01*
X63666Y28967D01*
X63575Y29007D01*
X63485Y29051D01*
X63397Y29098D01*
X63311Y29148D01*
X63227Y29202D01*
X63145Y29259D01*
X63066Y29319D01*
X62988Y29383D01*
X62914Y29449D01*
X62842Y29518D01*
X62773Y29590D01*
X62707Y29664D01*
X62643Y29742D01*
X62583Y29821D01*
X62526Y29903D01*
X62472Y29987D01*
X62422Y30073D01*
X62375Y30161D01*
X62331Y30251D01*
X62291Y30342D01*
X62255Y30435D01*
X62222Y30529D01*
X62193Y30625D01*
X62168Y30721D01*
X62147Y30818D01*
X62129Y30917D01*
X62116Y31015D01*
X62106Y31115D01*
X62100Y31214D01*
X62098Y31314D01*
X62100Y31414D01*
X62106Y31513D01*
X62116Y31613D01*
X62129Y31711D01*
X62147Y31810D01*
X62168Y31907D01*
X62193Y32003D01*
X62222Y32099D01*
X62255Y32193D01*
X62291Y32286D01*
X62331Y32377D01*
X62375Y32467D01*
X62422Y32555D01*
X62472Y32641D01*
X62526Y32725D01*
X62583Y32807D01*
X62643Y32886D01*
X62707Y32964D01*
X62773Y33038D01*
X62842Y33110D01*
X62914Y33179D01*
X62988Y33245D01*
X63066Y33309D01*
X63145Y33369D01*
X63227Y33426D01*
X63311Y33480D01*
X63397Y33530D01*
X63485Y33577D01*
X63575Y33621D01*
X63666Y33661D01*
X63759Y33697D01*
X63853Y33730D01*
X63949Y33759D01*
X64045Y33784D01*
X64142Y33805D01*
X64241Y33823D01*
X64339Y33836D01*
X64439Y33846D01*
X64538Y33852D01*
X64638Y33854D01*
X68702Y33854D01*
X68802Y33852D01*
X68901Y33846D01*
X69001Y33836D01*
X69099Y33823D01*
X69198Y33805D01*
X69295Y33784D01*
X69391Y33759D01*
X69487Y33730D01*
X69581Y33697D01*
X69674Y33661D01*
X69765Y33621D01*
X69855Y33577D01*
X69943Y33530D01*
X70029Y33480D01*
X70113Y33426D01*
X70195Y33369D01*
X70274Y33309D01*
X70352Y33245D01*
X70426Y33179D01*
X70498Y33110D01*
X70567Y33038D01*
X70633Y32964D01*
X70697Y32886D01*
X70757Y32807D01*
X70814Y32725D01*
X70868Y32641D01*
X70918Y32555D01*
X70965Y32467D01*
X71009Y32377D01*
X71049Y32286D01*
X71085Y32193D01*
X71118Y32099D01*
X71147Y32003D01*
X71172Y31907D01*
X71193Y31810D01*
X71211Y31711D01*
X71224Y31613D01*
X71234Y31513D01*
X71240Y31414D01*
X71242Y31314D01*
X71240Y31214D01*
X71234Y31115D01*
X71224Y31015D01*
X71211Y30917D01*
X71193Y30818D01*
X71172Y30721D01*
X71147Y30625D01*
X71118Y30529D01*
X71085Y30435D01*
X71049Y30342D01*
X71009Y30251D01*
X70965Y30161D01*
X70918Y30073D01*
X70868Y29987D01*
X70814Y29903D01*
X70757Y29821D01*
X70697Y29742D01*
X70633Y29664D01*
X70567Y29590D01*
X70498Y29518D01*
X70426Y29449D01*
X70352Y29383D01*
X70274Y29319D01*
X70195Y29259D01*
X70113Y29202D01*
X70029Y29148D01*
X69943Y29098D01*
X69855Y29051D01*
X69765Y29007D01*
X69674Y28967D01*
X69581Y28931D01*
X69487Y28898D01*
X69391Y28869D01*
X69295Y28844D01*
X69198Y28823D01*
X69099Y28805D01*
X69001Y28792D01*
X68901Y28782D01*
X68802Y28776D01*
X68702Y28774D01*
X71242Y38223D02*
X62098Y38223D01*
X62098Y40763D01*
X62100Y40863D01*
X62106Y40962D01*
X62116Y41062D01*
X62129Y41160D01*
X62147Y41259D01*
X62168Y41356D01*
X62193Y41452D01*
X62222Y41548D01*
X62255Y41642D01*
X62291Y41735D01*
X62331Y41826D01*
X62375Y41916D01*
X62422Y42004D01*
X62472Y42090D01*
X62526Y42174D01*
X62583Y42256D01*
X62643Y42335D01*
X62707Y42413D01*
X62773Y42487D01*
X62842Y42559D01*
X62914Y42628D01*
X62988Y42694D01*
X63066Y42758D01*
X63145Y42818D01*
X63227Y42875D01*
X63311Y42929D01*
X63397Y42979D01*
X63485Y43026D01*
X63575Y43070D01*
X63666Y43110D01*
X63759Y43146D01*
X63853Y43179D01*
X63949Y43208D01*
X64045Y43233D01*
X64142Y43254D01*
X64241Y43272D01*
X64339Y43285D01*
X64439Y43295D01*
X64538Y43301D01*
X64638Y43303D01*
X68702Y43303D01*
X68802Y43301D01*
X68901Y43295D01*
X69001Y43285D01*
X69099Y43272D01*
X69198Y43254D01*
X69295Y43233D01*
X69391Y43208D01*
X69487Y43179D01*
X69581Y43146D01*
X69674Y43110D01*
X69765Y43070D01*
X69855Y43026D01*
X69943Y42979D01*
X70029Y42929D01*
X70113Y42875D01*
X70195Y42818D01*
X70274Y42758D01*
X70352Y42694D01*
X70426Y42628D01*
X70498Y42559D01*
X70567Y42487D01*
X70633Y42413D01*
X70697Y42335D01*
X70757Y42256D01*
X70814Y42174D01*
X70868Y42090D01*
X70918Y42004D01*
X70965Y41916D01*
X71009Y41826D01*
X71049Y41735D01*
X71085Y41642D01*
X71118Y41548D01*
X71147Y41452D01*
X71172Y41356D01*
X71193Y41259D01*
X71211Y41160D01*
X71224Y41062D01*
X71234Y40962D01*
X71240Y40863D01*
X71242Y40763D01*
X71242Y38223D01*
X71242Y47997D02*
X71242Y52061D01*
X71242Y47997D02*
X62098Y47997D01*
X62098Y52061D01*
X66162Y51045D02*
X66162Y47997D01*
D16*
X395525Y204700D02*
X453025Y204700D01*
X453025Y328700D01*
X395525Y328700D01*
X395525Y204700D01*
X396100Y304700D02*
X401100Y304700D01*
X401100Y227700D02*
X396100Y227700D01*
D10*
X398446Y333758D02*
X398535Y333760D01*
X398623Y333766D01*
X398711Y333775D01*
X398799Y333789D01*
X398886Y333806D01*
X398972Y333827D01*
X399057Y333852D01*
X399141Y333881D01*
X399224Y333913D01*
X399305Y333948D01*
X399384Y333988D01*
X399462Y334030D01*
X399538Y334076D01*
X399612Y334125D01*
X399683Y334178D01*
X399752Y334233D01*
X399819Y334292D01*
X399883Y334353D01*
X399944Y334417D01*
X400003Y334484D01*
X400058Y334553D01*
X400111Y334624D01*
X400160Y334698D01*
X400206Y334774D01*
X400248Y334852D01*
X400288Y334931D01*
X400323Y335012D01*
X400355Y335095D01*
X400384Y335179D01*
X400409Y335264D01*
X400430Y335350D01*
X400447Y335437D01*
X400461Y335525D01*
X400470Y335613D01*
X400476Y335701D01*
X400478Y335790D01*
X398446Y333758D02*
X398316Y333760D01*
X398185Y333766D01*
X398055Y333776D01*
X397926Y333790D01*
X397797Y333807D01*
X397668Y333829D01*
X397540Y333855D01*
X397413Y333884D01*
X397287Y333917D01*
X397162Y333954D01*
X397038Y333995D01*
X396916Y334040D01*
X396795Y334088D01*
X396675Y334140D01*
X396557Y334196D01*
X396441Y334255D01*
X396327Y334318D01*
X396214Y334384D01*
X396104Y334453D01*
X395996Y334526D01*
X395890Y334602D01*
X395786Y334681D01*
X395685Y334763D01*
X395587Y334849D01*
X395491Y334937D01*
X395398Y335028D01*
X395652Y340870D02*
X395654Y340959D01*
X395660Y341047D01*
X395669Y341135D01*
X395683Y341223D01*
X395700Y341310D01*
X395721Y341396D01*
X395746Y341481D01*
X395775Y341565D01*
X395807Y341648D01*
X395842Y341729D01*
X395882Y341808D01*
X395924Y341886D01*
X395970Y341962D01*
X396019Y342036D01*
X396072Y342107D01*
X396127Y342176D01*
X396186Y342243D01*
X396247Y342307D01*
X396311Y342368D01*
X396378Y342427D01*
X396447Y342482D01*
X396518Y342535D01*
X396592Y342584D01*
X396668Y342630D01*
X396746Y342672D01*
X396825Y342712D01*
X396906Y342747D01*
X396989Y342779D01*
X397073Y342808D01*
X397158Y342833D01*
X397244Y342854D01*
X397331Y342871D01*
X397419Y342885D01*
X397507Y342894D01*
X397595Y342900D01*
X397684Y342902D01*
X397807Y342900D01*
X397929Y342894D01*
X398051Y342884D01*
X398173Y342870D01*
X398294Y342853D01*
X398415Y342831D01*
X398535Y342806D01*
X398654Y342776D01*
X398772Y342743D01*
X398889Y342706D01*
X399004Y342666D01*
X399119Y342622D01*
X399232Y342574D01*
X399343Y342522D01*
X399452Y342467D01*
X399560Y342408D01*
X399666Y342346D01*
X399769Y342281D01*
X399871Y342212D01*
X399970Y342140D01*
X396668Y339092D02*
X396592Y339139D01*
X396518Y339189D01*
X396447Y339242D01*
X396378Y339299D01*
X396311Y339358D01*
X396247Y339420D01*
X396185Y339485D01*
X396127Y339553D01*
X396072Y339623D01*
X396019Y339695D01*
X395970Y339769D01*
X395924Y339846D01*
X395881Y339924D01*
X395842Y340005D01*
X395806Y340087D01*
X395774Y340170D01*
X395746Y340254D01*
X395721Y340340D01*
X395700Y340427D01*
X395683Y340515D01*
X395669Y340603D01*
X395660Y340692D01*
X395654Y340781D01*
X395652Y340870D01*
X399462Y337568D02*
X399538Y337521D01*
X399612Y337471D01*
X399683Y337418D01*
X399752Y337361D01*
X399819Y337302D01*
X399883Y337240D01*
X399945Y337175D01*
X400003Y337107D01*
X400058Y337037D01*
X400111Y336965D01*
X400160Y336891D01*
X400206Y336814D01*
X400249Y336736D01*
X400288Y336655D01*
X400324Y336573D01*
X400356Y336490D01*
X400384Y336406D01*
X400409Y336320D01*
X400430Y336233D01*
X400447Y336145D01*
X400461Y336057D01*
X400470Y335968D01*
X400476Y335879D01*
X400478Y335790D01*
X399462Y337568D02*
X396668Y339092D01*
X404562Y333758D02*
X408626Y333758D01*
X404562Y333758D02*
X404562Y342902D01*
X408626Y342902D01*
X407610Y338838D02*
X404562Y338838D01*
X412467Y342902D02*
X412467Y333758D01*
X417547Y333758D02*
X412467Y342902D01*
X417547Y342902D02*
X417547Y333758D01*
X424659Y333758D02*
X424748Y333760D01*
X424836Y333766D01*
X424924Y333775D01*
X425012Y333789D01*
X425099Y333806D01*
X425185Y333827D01*
X425270Y333852D01*
X425354Y333881D01*
X425437Y333913D01*
X425518Y333948D01*
X425597Y333988D01*
X425675Y334030D01*
X425751Y334076D01*
X425825Y334125D01*
X425896Y334178D01*
X425965Y334233D01*
X426032Y334292D01*
X426096Y334353D01*
X426157Y334417D01*
X426216Y334484D01*
X426271Y334553D01*
X426324Y334624D01*
X426373Y334698D01*
X426419Y334774D01*
X426461Y334852D01*
X426501Y334931D01*
X426536Y335012D01*
X426568Y335095D01*
X426597Y335179D01*
X426622Y335264D01*
X426643Y335350D01*
X426660Y335437D01*
X426674Y335525D01*
X426683Y335613D01*
X426689Y335701D01*
X426691Y335790D01*
X424659Y333758D02*
X424529Y333760D01*
X424398Y333766D01*
X424268Y333776D01*
X424139Y333790D01*
X424010Y333807D01*
X423881Y333829D01*
X423753Y333855D01*
X423626Y333884D01*
X423500Y333917D01*
X423375Y333954D01*
X423251Y333995D01*
X423129Y334040D01*
X423008Y334088D01*
X422888Y334140D01*
X422770Y334196D01*
X422654Y334255D01*
X422540Y334318D01*
X422427Y334384D01*
X422317Y334453D01*
X422209Y334526D01*
X422103Y334602D01*
X421999Y334681D01*
X421898Y334763D01*
X421800Y334849D01*
X421704Y334937D01*
X421611Y335028D01*
X421865Y340870D02*
X421867Y340959D01*
X421873Y341047D01*
X421882Y341135D01*
X421896Y341223D01*
X421913Y341310D01*
X421934Y341396D01*
X421959Y341481D01*
X421988Y341565D01*
X422020Y341648D01*
X422055Y341729D01*
X422095Y341808D01*
X422137Y341886D01*
X422183Y341962D01*
X422232Y342036D01*
X422285Y342107D01*
X422340Y342176D01*
X422399Y342243D01*
X422460Y342307D01*
X422524Y342368D01*
X422591Y342427D01*
X422660Y342482D01*
X422731Y342535D01*
X422805Y342584D01*
X422881Y342630D01*
X422959Y342672D01*
X423038Y342712D01*
X423119Y342747D01*
X423202Y342779D01*
X423286Y342808D01*
X423371Y342833D01*
X423457Y342854D01*
X423544Y342871D01*
X423632Y342885D01*
X423720Y342894D01*
X423808Y342900D01*
X423897Y342902D01*
X424020Y342900D01*
X424142Y342894D01*
X424264Y342884D01*
X424386Y342870D01*
X424507Y342853D01*
X424628Y342831D01*
X424748Y342806D01*
X424867Y342776D01*
X424985Y342743D01*
X425102Y342706D01*
X425217Y342666D01*
X425332Y342622D01*
X425445Y342574D01*
X425556Y342522D01*
X425665Y342467D01*
X425773Y342408D01*
X425879Y342346D01*
X425982Y342281D01*
X426084Y342212D01*
X426183Y342140D01*
X422880Y339092D02*
X422804Y339139D01*
X422730Y339189D01*
X422659Y339242D01*
X422590Y339299D01*
X422523Y339358D01*
X422459Y339420D01*
X422397Y339485D01*
X422339Y339553D01*
X422284Y339623D01*
X422231Y339695D01*
X422182Y339769D01*
X422136Y339846D01*
X422093Y339924D01*
X422054Y340005D01*
X422018Y340087D01*
X421986Y340170D01*
X421958Y340254D01*
X421933Y340340D01*
X421912Y340427D01*
X421895Y340515D01*
X421881Y340603D01*
X421872Y340692D01*
X421866Y340781D01*
X421864Y340870D01*
X425675Y337568D02*
X425751Y337521D01*
X425825Y337471D01*
X425896Y337418D01*
X425965Y337361D01*
X426032Y337302D01*
X426096Y337240D01*
X426158Y337175D01*
X426216Y337107D01*
X426271Y337037D01*
X426324Y336965D01*
X426373Y336891D01*
X426419Y336814D01*
X426462Y336736D01*
X426501Y336655D01*
X426537Y336573D01*
X426569Y336490D01*
X426597Y336406D01*
X426622Y336320D01*
X426643Y336233D01*
X426660Y336145D01*
X426674Y336057D01*
X426683Y335968D01*
X426689Y335879D01*
X426691Y335790D01*
X425675Y337568D02*
X422881Y339092D01*
X430450Y340362D02*
X430450Y336298D01*
X430450Y340362D02*
X430452Y340462D01*
X430458Y340561D01*
X430468Y340661D01*
X430481Y340759D01*
X430499Y340858D01*
X430520Y340955D01*
X430545Y341051D01*
X430574Y341147D01*
X430607Y341241D01*
X430643Y341334D01*
X430683Y341425D01*
X430727Y341515D01*
X430774Y341603D01*
X430824Y341689D01*
X430878Y341773D01*
X430935Y341855D01*
X430995Y341934D01*
X431059Y342012D01*
X431125Y342086D01*
X431194Y342158D01*
X431266Y342227D01*
X431340Y342293D01*
X431418Y342357D01*
X431497Y342417D01*
X431579Y342474D01*
X431663Y342528D01*
X431749Y342578D01*
X431837Y342625D01*
X431927Y342669D01*
X432018Y342709D01*
X432111Y342745D01*
X432205Y342778D01*
X432301Y342807D01*
X432397Y342832D01*
X432494Y342853D01*
X432593Y342871D01*
X432691Y342884D01*
X432791Y342894D01*
X432890Y342900D01*
X432990Y342902D01*
X433090Y342900D01*
X433189Y342894D01*
X433289Y342884D01*
X433387Y342871D01*
X433486Y342853D01*
X433583Y342832D01*
X433679Y342807D01*
X433775Y342778D01*
X433869Y342745D01*
X433962Y342709D01*
X434053Y342669D01*
X434143Y342625D01*
X434231Y342578D01*
X434317Y342528D01*
X434401Y342474D01*
X434483Y342417D01*
X434562Y342357D01*
X434640Y342293D01*
X434714Y342227D01*
X434786Y342158D01*
X434855Y342086D01*
X434921Y342012D01*
X434985Y341934D01*
X435045Y341855D01*
X435102Y341773D01*
X435156Y341689D01*
X435206Y341603D01*
X435253Y341515D01*
X435297Y341425D01*
X435337Y341334D01*
X435373Y341241D01*
X435406Y341147D01*
X435435Y341051D01*
X435460Y340955D01*
X435481Y340858D01*
X435499Y340759D01*
X435512Y340661D01*
X435522Y340561D01*
X435528Y340462D01*
X435530Y340362D01*
X435530Y336298D01*
X435528Y336198D01*
X435522Y336099D01*
X435512Y335999D01*
X435499Y335901D01*
X435481Y335802D01*
X435460Y335705D01*
X435435Y335609D01*
X435406Y335513D01*
X435373Y335419D01*
X435337Y335326D01*
X435297Y335235D01*
X435253Y335145D01*
X435206Y335057D01*
X435156Y334971D01*
X435102Y334887D01*
X435045Y334805D01*
X434985Y334726D01*
X434921Y334648D01*
X434855Y334574D01*
X434786Y334502D01*
X434714Y334433D01*
X434640Y334367D01*
X434562Y334303D01*
X434483Y334243D01*
X434401Y334186D01*
X434317Y334132D01*
X434231Y334082D01*
X434143Y334035D01*
X434053Y333991D01*
X433962Y333951D01*
X433869Y333915D01*
X433775Y333882D01*
X433679Y333853D01*
X433583Y333828D01*
X433486Y333807D01*
X433387Y333789D01*
X433289Y333776D01*
X433189Y333766D01*
X433090Y333760D01*
X432990Y333758D01*
X432890Y333760D01*
X432791Y333766D01*
X432691Y333776D01*
X432593Y333789D01*
X432494Y333807D01*
X432397Y333828D01*
X432301Y333853D01*
X432205Y333882D01*
X432111Y333915D01*
X432018Y333951D01*
X431927Y333991D01*
X431837Y334035D01*
X431749Y334082D01*
X431663Y334132D01*
X431579Y334186D01*
X431497Y334243D01*
X431418Y334303D01*
X431340Y334367D01*
X431266Y334433D01*
X431194Y334502D01*
X431125Y334574D01*
X431059Y334648D01*
X430995Y334726D01*
X430935Y334805D01*
X430878Y334887D01*
X430824Y334971D01*
X430774Y335057D01*
X430727Y335145D01*
X430683Y335235D01*
X430643Y335326D01*
X430607Y335419D01*
X430574Y335513D01*
X430545Y335609D01*
X430520Y335705D01*
X430499Y335802D01*
X430481Y335901D01*
X430468Y335999D01*
X430458Y336099D01*
X430452Y336198D01*
X430450Y336298D01*
X439965Y333758D02*
X439965Y342902D01*
X442505Y342902D01*
X442605Y342900D01*
X442704Y342894D01*
X442804Y342884D01*
X442902Y342871D01*
X443001Y342853D01*
X443098Y342832D01*
X443194Y342807D01*
X443290Y342778D01*
X443384Y342745D01*
X443477Y342709D01*
X443568Y342669D01*
X443658Y342625D01*
X443746Y342578D01*
X443832Y342528D01*
X443916Y342474D01*
X443998Y342417D01*
X444077Y342357D01*
X444155Y342293D01*
X444229Y342227D01*
X444301Y342158D01*
X444370Y342086D01*
X444436Y342012D01*
X444500Y341934D01*
X444560Y341855D01*
X444617Y341773D01*
X444671Y341689D01*
X444721Y341603D01*
X444768Y341515D01*
X444812Y341425D01*
X444852Y341334D01*
X444888Y341241D01*
X444921Y341147D01*
X444950Y341051D01*
X444975Y340955D01*
X444996Y340858D01*
X445014Y340759D01*
X445027Y340661D01*
X445037Y340561D01*
X445043Y340462D01*
X445045Y340362D01*
X445043Y340262D01*
X445037Y340163D01*
X445027Y340063D01*
X445014Y339965D01*
X444996Y339866D01*
X444975Y339769D01*
X444950Y339673D01*
X444921Y339577D01*
X444888Y339483D01*
X444852Y339390D01*
X444812Y339299D01*
X444768Y339209D01*
X444721Y339121D01*
X444671Y339035D01*
X444617Y338951D01*
X444560Y338869D01*
X444500Y338790D01*
X444436Y338712D01*
X444370Y338638D01*
X444301Y338566D01*
X444229Y338497D01*
X444155Y338431D01*
X444077Y338367D01*
X443998Y338307D01*
X443916Y338250D01*
X443832Y338196D01*
X443746Y338146D01*
X443658Y338099D01*
X443568Y338055D01*
X443477Y338015D01*
X443384Y337979D01*
X443290Y337946D01*
X443194Y337917D01*
X443098Y337892D01*
X443001Y337871D01*
X442902Y337853D01*
X442804Y337840D01*
X442704Y337830D01*
X442605Y337824D01*
X442505Y337822D01*
X439965Y337822D01*
X443013Y337822D02*
X445045Y333758D01*
M02*
