G04 EAGLE Gerber RS-274X export*
G75*
%MOMM*%
%FSLAX34Y34*%
%LPD*%
%INBottom Copper*%
%IPPOS*%
%AMOC8*
5,1,8,0,0,1.08239X$1,22.5*%
G01*
G04 Define Apertures*
%ADD10C,1.158000*%
%ADD11C,1.422400*%
%ADD12C,2.540000*%
%ADD13C,12.700000*%
%ADD14R,1.270000X0.635000*%
%ADD15C,1.400000*%
%ADD16C,0.406400*%
G36*
X545790Y12740D02*
X545957Y12855D01*
X546066Y13025D01*
X546100Y13208D01*
X546100Y85217D01*
X546060Y85415D01*
X545945Y85582D01*
X545775Y85691D01*
X545592Y85725D01*
X544852Y85725D01*
X544654Y85685D01*
X544487Y85570D01*
X544354Y85316D01*
X543172Y79373D01*
X537428Y65506D01*
X529089Y53025D01*
X518475Y42412D01*
X505994Y34073D01*
X492127Y28328D01*
X477405Y25400D01*
X94095Y25400D01*
X79373Y28328D01*
X65506Y34073D01*
X53025Y42412D01*
X42412Y53025D01*
X34073Y65506D01*
X28328Y79373D01*
X25400Y94095D01*
X25400Y109105D01*
X28328Y123827D01*
X34073Y137694D01*
X42412Y150175D01*
X53025Y160789D01*
X65506Y169128D01*
X79373Y174872D01*
X94095Y177800D01*
X477405Y177800D01*
X492127Y174872D01*
X505994Y169128D01*
X518475Y160789D01*
X529089Y150175D01*
X537428Y137694D01*
X543172Y123827D01*
X544354Y117884D01*
X544432Y117697D01*
X544577Y117556D01*
X544852Y117475D01*
X545592Y117475D01*
X545790Y117515D01*
X545957Y117630D01*
X546066Y117800D01*
X546100Y117983D01*
X546100Y186692D01*
X546060Y186890D01*
X545945Y187057D01*
X545775Y187166D01*
X545592Y187200D01*
X85600Y187200D01*
X85543Y187197D01*
X69434Y185382D01*
X69323Y185356D01*
X54023Y180002D01*
X53920Y179953D01*
X40194Y171328D01*
X40105Y171258D01*
X28642Y159795D01*
X28572Y159706D01*
X19947Y145980D01*
X19898Y145878D01*
X14544Y130577D01*
X14518Y130466D01*
X12703Y114357D01*
X12700Y114300D01*
X12700Y88900D01*
X12702Y88850D01*
X14157Y74083D01*
X14176Y73986D01*
X18484Y59786D01*
X18522Y59694D01*
X25516Y46608D01*
X25572Y46526D01*
X34985Y35055D01*
X35055Y34985D01*
X46526Y25572D01*
X46608Y25516D01*
X59694Y18522D01*
X59786Y18484D01*
X73986Y14176D01*
X74083Y14157D01*
X88850Y12702D01*
X88900Y12700D01*
X545592Y12700D01*
X545790Y12740D01*
G37*
G36*
X993181Y4165D02*
X993598Y4450D01*
X993871Y4876D01*
X993956Y5334D01*
X993956Y194566D01*
X993855Y195061D01*
X993570Y195478D01*
X993144Y195751D01*
X992686Y195836D01*
X547370Y195836D01*
X546875Y195735D01*
X546458Y195450D01*
X546185Y195024D01*
X546100Y194566D01*
X546100Y110596D01*
X546201Y110101D01*
X546486Y109684D01*
X546884Y109423D01*
X547711Y109080D01*
X548127Y108805D01*
X548603Y108712D01*
X561575Y108712D01*
X562070Y108813D01*
X562487Y109098D01*
X562748Y109496D01*
X563168Y110510D01*
X566598Y113940D01*
X571079Y115796D01*
X575929Y115796D01*
X580410Y113940D01*
X583840Y110510D01*
X585696Y106029D01*
X585696Y101179D01*
X583840Y96698D01*
X580884Y93742D01*
X580605Y93320D01*
X580512Y92844D01*
X580512Y74156D01*
X580613Y73661D01*
X580884Y73258D01*
X583736Y70406D01*
X585592Y65925D01*
X585592Y61075D01*
X583736Y56594D01*
X580306Y53164D01*
X575825Y51308D01*
X570975Y51308D01*
X566494Y53164D01*
X563064Y56594D01*
X561208Y61075D01*
X561208Y65925D01*
X563064Y70406D01*
X565916Y73258D01*
X566195Y73680D01*
X566288Y74156D01*
X566288Y93052D01*
X566187Y93547D01*
X565916Y93950D01*
X565750Y94116D01*
X565328Y94395D01*
X564852Y94488D01*
X548603Y94488D01*
X548108Y94387D01*
X547711Y94120D01*
X546884Y93777D01*
X546465Y93495D01*
X546189Y93071D01*
X546100Y92604D01*
X546100Y5334D01*
X546201Y4839D01*
X546486Y4422D01*
X546912Y4149D01*
X547370Y4064D01*
X992686Y4064D01*
X993181Y4165D01*
G37*
%LPC*%
G36*
X888402Y179326D02*
X888402Y180524D01*
X889902Y184146D01*
X892674Y186918D01*
X896296Y188418D01*
X897494Y188418D01*
X897494Y179326D01*
X888402Y179326D01*
G37*
G36*
X899018Y179326D02*
X899018Y188418D01*
X900216Y188418D01*
X903838Y186918D01*
X906610Y184146D01*
X908110Y180524D01*
X908110Y179326D01*
X899018Y179326D01*
G37*
G36*
X716201Y14224D02*
X712093Y15925D01*
X708949Y19069D01*
X707248Y23177D01*
X707248Y27623D01*
X708949Y31731D01*
X712093Y34875D01*
X716201Y36576D01*
X716534Y36576D01*
X717029Y36677D01*
X717446Y36962D01*
X717719Y37388D01*
X717804Y37846D01*
X717804Y46423D01*
X717703Y46918D01*
X717432Y47321D01*
X714520Y50233D01*
X712836Y54299D01*
X712836Y56134D01*
X712735Y56629D01*
X712450Y57046D01*
X712024Y57319D01*
X711566Y57404D01*
X710834Y57404D01*
X710339Y57303D01*
X709922Y57018D01*
X709649Y56592D01*
X709564Y56134D01*
X709564Y54299D01*
X707880Y50233D01*
X704767Y47120D01*
X700701Y45436D01*
X696299Y45436D01*
X692233Y47120D01*
X689120Y50233D01*
X687436Y54299D01*
X687436Y72701D01*
X689120Y76767D01*
X692233Y79880D01*
X696299Y81564D01*
X700701Y81564D01*
X704767Y79880D01*
X707880Y76767D01*
X709564Y72701D01*
X709564Y70866D01*
X709665Y70371D01*
X709950Y69954D01*
X710376Y69681D01*
X710834Y69596D01*
X711566Y69596D01*
X712061Y69697D01*
X712478Y69982D01*
X712751Y70408D01*
X712836Y70866D01*
X712836Y72701D01*
X714520Y76767D01*
X717432Y79679D01*
X717711Y80100D01*
X717804Y80577D01*
X717804Y122623D01*
X717703Y123118D01*
X717432Y123521D01*
X714520Y126433D01*
X712836Y130499D01*
X712836Y148901D01*
X714097Y151944D01*
X714193Y152440D01*
X714089Y152935D01*
X713800Y153349D01*
X713372Y153618D01*
X712923Y153700D01*
X709477Y153700D01*
X708981Y153599D01*
X708565Y153314D01*
X708292Y152888D01*
X708207Y152390D01*
X708303Y151944D01*
X709564Y148901D01*
X709564Y130499D01*
X707880Y126433D01*
X704767Y123320D01*
X702737Y122480D01*
X702325Y122204D01*
X653511Y73390D01*
X653232Y72969D01*
X653139Y72472D01*
X653248Y71978D01*
X653511Y71594D01*
X655275Y69831D01*
X656976Y65723D01*
X656976Y61277D01*
X655275Y57169D01*
X652131Y54025D01*
X648023Y52324D01*
X643577Y52324D01*
X639469Y54025D01*
X636325Y57169D01*
X634624Y61277D01*
X634624Y65723D01*
X636325Y69831D01*
X639332Y72837D01*
X639611Y73259D01*
X639704Y73735D01*
X639704Y75513D01*
X640632Y77753D01*
X688576Y125697D01*
X688856Y126119D01*
X688948Y126616D01*
X688852Y127081D01*
X687436Y130499D01*
X687436Y142469D01*
X687335Y142965D01*
X687050Y143382D01*
X686624Y143654D01*
X686126Y143739D01*
X685634Y143623D01*
X685268Y143368D01*
X684536Y142636D01*
X684257Y142214D01*
X684164Y141737D01*
X684164Y130499D01*
X682480Y126433D01*
X679367Y123320D01*
X675301Y121636D01*
X670899Y121636D01*
X666833Y123320D01*
X663720Y126433D01*
X662036Y130499D01*
X662036Y148901D01*
X663720Y152967D01*
X666833Y156080D01*
X670899Y157764D01*
X675301Y157764D01*
X679553Y156003D01*
X680049Y155906D01*
X680543Y156011D01*
X680937Y156278D01*
X689622Y164964D01*
X691863Y165892D01*
X755937Y165892D01*
X758178Y164964D01*
X773518Y149624D01*
X773903Y148693D01*
X774186Y148274D01*
X774609Y147998D01*
X775107Y147910D01*
X775600Y148022D01*
X776010Y148318D01*
X776250Y148693D01*
X778020Y152967D01*
X781133Y156080D01*
X785199Y157764D01*
X786638Y157764D01*
X786638Y121636D01*
X785199Y121636D01*
X781133Y123320D01*
X778020Y126433D01*
X776889Y129163D01*
X776607Y129583D01*
X776183Y129858D01*
X775686Y129947D01*
X775193Y129835D01*
X774783Y129539D01*
X774521Y129107D01*
X774446Y128677D01*
X774446Y109616D01*
X774547Y109121D01*
X774832Y108704D01*
X775258Y108431D01*
X775716Y108346D01*
X868934Y108346D01*
X869429Y108447D01*
X869846Y108732D01*
X870119Y109158D01*
X870204Y109616D01*
X870204Y121559D01*
X870103Y122055D01*
X869818Y122471D01*
X869392Y122744D01*
X868894Y122829D01*
X868448Y122733D01*
X865801Y121636D01*
X861399Y121636D01*
X857333Y123320D01*
X854220Y126433D01*
X852536Y130499D01*
X852536Y148901D01*
X854220Y152967D01*
X857333Y156080D01*
X858396Y156520D01*
X858815Y156802D01*
X859091Y157226D01*
X859179Y157724D01*
X859067Y158216D01*
X858808Y158591D01*
X849061Y168338D01*
X848640Y168617D01*
X848163Y168710D01*
X845496Y168710D01*
X841874Y170210D01*
X839102Y172982D01*
X837602Y176604D01*
X837602Y180524D01*
X839102Y184146D01*
X841874Y186918D01*
X845496Y188418D01*
X849416Y188418D01*
X853038Y186918D01*
X855810Y184146D01*
X857310Y180524D01*
X857310Y177857D01*
X857411Y177362D01*
X857682Y176959D01*
X861998Y172643D01*
X862419Y172364D01*
X862916Y172271D01*
X863410Y172380D01*
X863822Y172672D01*
X864088Y173102D01*
X864165Y173602D01*
X864069Y174027D01*
X863002Y176604D01*
X863002Y180524D01*
X864502Y184146D01*
X867274Y186918D01*
X870896Y188418D01*
X874816Y188418D01*
X878438Y186918D01*
X881210Y184146D01*
X882710Y180524D01*
X882710Y177857D01*
X882811Y177362D01*
X883082Y176959D01*
X887398Y172643D01*
X887819Y172364D01*
X888316Y172271D01*
X888810Y172380D01*
X889222Y172672D01*
X889488Y173102D01*
X889565Y173602D01*
X889469Y174027D01*
X888402Y176604D01*
X888402Y177802D01*
X897494Y177802D01*
X897494Y168710D01*
X896296Y168710D01*
X893719Y169777D01*
X893223Y169874D01*
X892728Y169769D01*
X892314Y169480D01*
X892045Y169052D01*
X891964Y168553D01*
X892084Y168062D01*
X892335Y167706D01*
X943270Y116771D01*
X943692Y116492D01*
X944189Y116399D01*
X944654Y116495D01*
X949165Y118364D01*
X955835Y118364D01*
X961996Y115812D01*
X966712Y111096D01*
X969264Y104935D01*
X969264Y98265D01*
X968180Y95649D01*
X968084Y95153D01*
X968188Y94659D01*
X968456Y94265D01*
X984846Y77875D01*
X985774Y75635D01*
X985774Y38665D01*
X984846Y36425D01*
X968653Y20232D01*
X966413Y19304D01*
X910035Y19304D01*
X909540Y19203D01*
X909137Y18932D01*
X906131Y15925D01*
X902023Y14224D01*
X897577Y14224D01*
X893469Y15925D01*
X890463Y18932D01*
X890041Y19211D01*
X889565Y19304D01*
X855387Y19304D01*
X853147Y20232D01*
X833032Y40347D01*
X832104Y42587D01*
X832104Y46423D01*
X832003Y46918D01*
X831732Y47321D01*
X828820Y50233D01*
X827136Y54299D01*
X827136Y72701D01*
X828820Y76767D01*
X831933Y79880D01*
X835999Y81564D01*
X840401Y81564D01*
X844467Y79880D01*
X847580Y76767D01*
X849264Y72701D01*
X849264Y54299D01*
X847580Y50233D01*
X844882Y47535D01*
X844603Y47114D01*
X844510Y46617D01*
X844619Y46123D01*
X844882Y45739D01*
X858753Y31868D01*
X859174Y31589D01*
X859651Y31496D01*
X889565Y31496D01*
X890060Y31597D01*
X890463Y31868D01*
X893469Y34875D01*
X897577Y36576D01*
X902023Y36576D01*
X906131Y34875D01*
X909137Y31868D01*
X909559Y31589D01*
X910035Y31496D01*
X962149Y31496D01*
X962644Y31597D01*
X963047Y31868D01*
X973210Y42031D01*
X973489Y42452D01*
X973582Y42929D01*
X973582Y71371D01*
X973481Y71866D01*
X973210Y72269D01*
X959835Y85644D01*
X959413Y85923D01*
X958916Y86016D01*
X958451Y85920D01*
X955835Y84836D01*
X949165Y84836D01*
X943004Y87388D01*
X938288Y92104D01*
X935736Y98265D01*
X935736Y104935D01*
X936035Y105656D01*
X936131Y106152D01*
X936027Y106646D01*
X935759Y107040D01*
X874461Y168338D01*
X874040Y168617D01*
X873563Y168710D01*
X870896Y168710D01*
X868319Y169777D01*
X867823Y169874D01*
X867328Y169769D01*
X866914Y169480D01*
X866645Y169052D01*
X866564Y168553D01*
X866684Y168062D01*
X866935Y167706D01*
X868377Y166264D01*
X868798Y165985D01*
X869275Y165892D01*
X870237Y165892D01*
X872478Y164964D01*
X881864Y155578D01*
X882792Y153337D01*
X882792Y126063D01*
X882493Y125340D01*
X882396Y124854D01*
X882396Y74987D01*
X881468Y72747D01*
X880485Y71764D01*
X880206Y71343D01*
X880113Y70846D01*
X880222Y70352D01*
X880514Y69940D01*
X880944Y69674D01*
X881383Y69596D01*
X941013Y69596D01*
X943253Y68668D01*
X945165Y66756D01*
X945587Y66477D01*
X946084Y66384D01*
X946549Y66480D01*
X949165Y67564D01*
X955835Y67564D01*
X961996Y65012D01*
X966712Y60296D01*
X969264Y54135D01*
X969264Y47465D01*
X966712Y41304D01*
X961996Y36588D01*
X955835Y34036D01*
X949165Y34036D01*
X943004Y36588D01*
X938288Y41304D01*
X935736Y47465D01*
X935736Y54135D01*
X936363Y55648D01*
X936460Y56144D01*
X936355Y56639D01*
X936066Y57053D01*
X935638Y57322D01*
X935190Y57404D01*
X875934Y57404D01*
X875439Y57303D01*
X875022Y57018D01*
X874749Y56592D01*
X874664Y56134D01*
X874664Y54299D01*
X872980Y50233D01*
X869867Y47120D01*
X865801Y45436D01*
X861399Y45436D01*
X857333Y47120D01*
X854220Y50233D01*
X852536Y54299D01*
X852536Y72701D01*
X854220Y76767D01*
X857333Y79880D01*
X861399Y81564D01*
X865801Y81564D01*
X868448Y80468D01*
X868944Y80371D01*
X869439Y80475D01*
X869853Y80765D01*
X870122Y81192D01*
X870204Y81641D01*
X870204Y94884D01*
X870103Y95379D01*
X869818Y95796D01*
X869392Y96069D01*
X868934Y96154D01*
X775716Y96154D01*
X775221Y96053D01*
X774804Y95768D01*
X774531Y95342D01*
X774446Y94884D01*
X774446Y88337D01*
X773518Y86097D01*
X760736Y73315D01*
X760457Y72894D01*
X760364Y72417D01*
X760364Y61583D01*
X760465Y61088D01*
X760736Y60685D01*
X789553Y31868D01*
X789974Y31589D01*
X790451Y31496D01*
X800665Y31496D01*
X801160Y31597D01*
X801563Y31868D01*
X804569Y34875D01*
X808677Y36576D01*
X813123Y36576D01*
X817231Y34875D01*
X818252Y33853D01*
X818673Y33574D01*
X819170Y33481D01*
X819664Y33590D01*
X820048Y33853D01*
X821069Y34875D01*
X825177Y36576D01*
X829623Y36576D01*
X833731Y34875D01*
X836875Y31731D01*
X838576Y27623D01*
X838576Y23177D01*
X836875Y19069D01*
X833731Y15925D01*
X829623Y14224D01*
X825177Y14224D01*
X821069Y15925D01*
X820048Y16947D01*
X819627Y17226D01*
X819130Y17319D01*
X818636Y17210D01*
X818252Y16947D01*
X817231Y15925D01*
X813123Y14224D01*
X808677Y14224D01*
X804569Y15925D01*
X801563Y18932D01*
X801141Y19211D01*
X800665Y19304D01*
X786187Y19304D01*
X783947Y20232D01*
X757211Y46968D01*
X756790Y47247D01*
X756293Y47340D01*
X755799Y47231D01*
X755744Y47193D01*
X751501Y45436D01*
X747099Y45436D01*
X743033Y47120D01*
X739920Y50233D01*
X738236Y54299D01*
X738236Y72701D01*
X739920Y76767D01*
X743033Y79880D01*
X747099Y81564D01*
X751217Y81564D01*
X751712Y81665D01*
X752115Y81936D01*
X761882Y91703D01*
X762161Y92124D01*
X762254Y92601D01*
X762254Y128677D01*
X762153Y129173D01*
X761868Y129590D01*
X761442Y129862D01*
X760944Y129947D01*
X760452Y129830D01*
X760044Y129531D01*
X759811Y129163D01*
X758680Y126433D01*
X755567Y123320D01*
X751501Y121636D01*
X750062Y121636D01*
X750062Y140462D01*
X738236Y140462D01*
X738236Y148901D01*
X739497Y151944D01*
X739593Y152440D01*
X739489Y152935D01*
X739200Y153349D01*
X738772Y153618D01*
X738323Y153700D01*
X734877Y153700D01*
X734381Y153599D01*
X733965Y153314D01*
X733692Y152888D01*
X733607Y152390D01*
X733703Y151944D01*
X734964Y148901D01*
X734964Y130499D01*
X733280Y126433D01*
X730368Y123521D01*
X730089Y123100D01*
X729996Y122623D01*
X729996Y80577D01*
X730097Y80082D01*
X730368Y79679D01*
X733280Y76767D01*
X734964Y72701D01*
X734964Y54299D01*
X733280Y50233D01*
X730368Y47321D01*
X730089Y46900D01*
X729996Y46423D01*
X729996Y35767D01*
X730097Y35272D01*
X730382Y34855D01*
X730808Y34583D01*
X731306Y34498D01*
X731798Y34614D01*
X732164Y34869D01*
X732169Y34875D01*
X736277Y36576D01*
X740723Y36576D01*
X744831Y34875D01*
X747975Y31731D01*
X749676Y27623D01*
X749676Y23177D01*
X747975Y19069D01*
X744831Y15925D01*
X740723Y14224D01*
X736277Y14224D01*
X732169Y15925D01*
X729360Y18735D01*
X728939Y19014D01*
X728442Y19107D01*
X727948Y18998D01*
X727564Y18735D01*
X724755Y15925D01*
X720647Y14224D01*
X716201Y14224D01*
G37*
G36*
X835999Y121636D02*
X831933Y123320D01*
X828820Y126433D01*
X827136Y130499D01*
X827136Y141617D01*
X827035Y142112D01*
X826764Y142515D01*
X826032Y143247D01*
X825611Y143526D01*
X825114Y143619D01*
X824620Y143510D01*
X824208Y143218D01*
X823942Y142788D01*
X823864Y142349D01*
X823864Y140462D01*
X801736Y140462D01*
X801736Y148901D01*
X803420Y152967D01*
X806533Y156080D01*
X809576Y157340D01*
X809995Y157623D01*
X810271Y158046D01*
X810360Y158544D01*
X810247Y159037D01*
X809988Y159412D01*
X799844Y169556D01*
X799422Y169835D01*
X798945Y169928D01*
X645235Y169928D01*
X644740Y169827D01*
X644337Y169556D01*
X641331Y166549D01*
X637223Y164848D01*
X632777Y164848D01*
X628669Y166549D01*
X625663Y169556D01*
X625241Y169835D01*
X624765Y169928D01*
X613609Y169928D01*
X613114Y169827D01*
X612711Y169556D01*
X609581Y166425D01*
X605473Y164724D01*
X601027Y164724D01*
X596919Y166425D01*
X596431Y166914D01*
X596010Y167193D01*
X595513Y167286D01*
X595019Y167177D01*
X594635Y166914D01*
X585052Y157331D01*
X584773Y156909D01*
X584680Y156433D01*
X584680Y152181D01*
X582979Y148073D01*
X579835Y144929D01*
X575727Y143228D01*
X571281Y143228D01*
X567173Y144929D01*
X564029Y148073D01*
X562328Y152181D01*
X562328Y156627D01*
X564029Y160735D01*
X567173Y163879D01*
X571281Y165580D01*
X575533Y165580D01*
X576028Y165681D01*
X576431Y165952D01*
X591547Y181068D01*
X593170Y181740D01*
X593589Y182023D01*
X593631Y182086D01*
X596919Y185375D01*
X601027Y187076D01*
X605473Y187076D01*
X609581Y185375D01*
X612463Y182492D01*
X612885Y182213D01*
X613361Y182120D01*
X624765Y182120D01*
X625260Y182221D01*
X625663Y182492D01*
X628669Y185499D01*
X632777Y187200D01*
X637223Y187200D01*
X641331Y185499D01*
X644337Y182492D01*
X644759Y182213D01*
X645235Y182120D01*
X803209Y182120D01*
X805450Y181192D01*
X830363Y156278D01*
X830785Y155999D01*
X831282Y155906D01*
X831747Y156003D01*
X835999Y157764D01*
X840401Y157764D01*
X844467Y156080D01*
X847580Y152967D01*
X849264Y148901D01*
X849264Y130499D01*
X847580Y126433D01*
X844467Y123320D01*
X840401Y121636D01*
X835999Y121636D01*
G37*
G36*
X899018Y168710D02*
X899018Y177802D01*
X908110Y177802D01*
X908110Y176604D01*
X906610Y172982D01*
X903838Y170210D01*
X900216Y168710D01*
X899018Y168710D01*
G37*
G36*
X953262Y153162D02*
X953262Y169164D01*
X955835Y169164D01*
X961996Y166612D01*
X966712Y161896D01*
X969264Y155735D01*
X969264Y153162D01*
X953262Y153162D01*
G37*
G36*
X935736Y153162D02*
X935736Y155735D01*
X938288Y161896D01*
X943004Y166612D01*
X949165Y169164D01*
X951738Y169164D01*
X951738Y153162D01*
X935736Y153162D01*
G37*
G36*
X788162Y140462D02*
X788162Y157764D01*
X789601Y157764D01*
X793667Y156080D01*
X796780Y152967D01*
X798464Y148901D01*
X798464Y140462D01*
X788162Y140462D01*
G37*
G36*
X953262Y135636D02*
X953262Y151638D01*
X969264Y151638D01*
X969264Y149065D01*
X966712Y142904D01*
X961996Y138188D01*
X955835Y135636D01*
X953262Y135636D01*
G37*
G36*
X949165Y135636D02*
X943004Y138188D01*
X938288Y142904D01*
X935736Y149065D01*
X935736Y151638D01*
X951738Y151638D01*
X951738Y135636D01*
X949165Y135636D01*
G37*
G36*
X788162Y121636D02*
X788162Y138938D01*
X798464Y138938D01*
X798464Y130499D01*
X796780Y126433D01*
X793667Y123320D01*
X789601Y121636D01*
X788162Y121636D01*
G37*
G36*
X810599Y121636D02*
X806533Y123320D01*
X803420Y126433D01*
X801736Y130499D01*
X801736Y138938D01*
X812038Y138938D01*
X812038Y121636D01*
X810599Y121636D01*
G37*
G36*
X813562Y121636D02*
X813562Y138938D01*
X823864Y138938D01*
X823864Y130499D01*
X822180Y126433D01*
X819067Y123320D01*
X815001Y121636D01*
X813562Y121636D01*
G37*
G36*
X747099Y121636D02*
X743033Y123320D01*
X739920Y126433D01*
X738236Y130499D01*
X738236Y138938D01*
X748538Y138938D01*
X748538Y121636D01*
X747099Y121636D01*
G37*
G36*
X635762Y125986D02*
X635762Y136400D01*
X637223Y136400D01*
X641331Y134699D01*
X644475Y131555D01*
X646176Y127447D01*
X646176Y125986D01*
X635762Y125986D01*
G37*
G36*
X623824Y125986D02*
X623824Y127447D01*
X625525Y131555D01*
X628669Y134699D01*
X632777Y136400D01*
X634238Y136400D01*
X634238Y125986D01*
X623824Y125986D01*
G37*
G36*
X632777Y114048D02*
X628669Y115749D01*
X625525Y118893D01*
X623824Y123001D01*
X623824Y124462D01*
X634238Y124462D01*
X634238Y114048D01*
X632777Y114048D01*
G37*
G36*
X635762Y114048D02*
X635762Y124462D01*
X646176Y124462D01*
X646176Y123001D01*
X644475Y118893D01*
X641331Y115749D01*
X637223Y114048D01*
X635762Y114048D01*
G37*
G36*
X592074Y104262D02*
X592074Y105723D01*
X593775Y109831D01*
X596919Y112975D01*
X601027Y114676D01*
X602488Y114676D01*
X602488Y104262D01*
X592074Y104262D01*
G37*
G36*
X604012Y104262D02*
X604012Y114676D01*
X605473Y114676D01*
X609581Y112975D01*
X612725Y109831D01*
X614426Y105723D01*
X614426Y104262D01*
X604012Y104262D01*
G37*
G36*
X604012Y92324D02*
X604012Y102738D01*
X614426Y102738D01*
X614426Y101277D01*
X612725Y97169D01*
X609581Y94025D01*
X605473Y92324D01*
X604012Y92324D01*
G37*
G36*
X601027Y92324D02*
X596919Y94025D01*
X593775Y97169D01*
X592074Y101277D01*
X592074Y102738D01*
X602488Y102738D01*
X602488Y92324D01*
X601027Y92324D01*
G37*
G36*
X785199Y45436D02*
X781133Y47120D01*
X778020Y50233D01*
X776336Y54299D01*
X776336Y72701D01*
X778020Y76767D01*
X781133Y79880D01*
X785199Y81564D01*
X789601Y81564D01*
X793667Y79880D01*
X796780Y76767D01*
X798464Y72701D01*
X798464Y54299D01*
X796780Y50233D01*
X793667Y47120D01*
X789601Y45436D01*
X785199Y45436D01*
G37*
G36*
X632777Y12700D02*
X628669Y14401D01*
X625525Y17545D01*
X623824Y21653D01*
X623824Y26099D01*
X625525Y30207D01*
X628669Y33351D01*
X632777Y35052D01*
X637029Y35052D01*
X637524Y35153D01*
X637927Y35424D01*
X661664Y59161D01*
X661943Y59582D01*
X662036Y60059D01*
X662036Y72701D01*
X663720Y76767D01*
X666833Y79880D01*
X670899Y81564D01*
X675301Y81564D01*
X679367Y79880D01*
X682480Y76767D01*
X684164Y72701D01*
X684164Y54299D01*
X682480Y50233D01*
X679367Y47120D01*
X675301Y45436D01*
X670899Y45436D01*
X667640Y46786D01*
X667144Y46883D01*
X666649Y46778D01*
X666256Y46511D01*
X646548Y26803D01*
X646269Y26382D01*
X646176Y25905D01*
X646176Y21653D01*
X644475Y17545D01*
X641331Y14401D01*
X637223Y12700D01*
X632777Y12700D01*
G37*
G36*
X810599Y45436D02*
X806533Y47120D01*
X803420Y50233D01*
X801736Y54299D01*
X801736Y72701D01*
X803420Y76767D01*
X806533Y79880D01*
X810599Y81564D01*
X815001Y81564D01*
X819067Y79880D01*
X822180Y76767D01*
X823864Y72701D01*
X823864Y54299D01*
X822180Y50233D01*
X819067Y47120D01*
X815001Y45436D01*
X810599Y45436D01*
G37*
G36*
X656448Y26162D02*
X656448Y27623D01*
X658149Y31731D01*
X661293Y34875D01*
X665401Y36576D01*
X666862Y36576D01*
X666862Y26162D01*
X656448Y26162D01*
G37*
G36*
X668386Y26162D02*
X668386Y36576D01*
X669847Y36576D01*
X673955Y34875D01*
X677099Y31731D01*
X678800Y27623D01*
X678800Y26162D01*
X668386Y26162D01*
G37*
G36*
X573024Y24638D02*
X573024Y26099D01*
X574725Y30207D01*
X577869Y33351D01*
X581977Y35052D01*
X583438Y35052D01*
X583438Y24638D01*
X573024Y24638D01*
G37*
G36*
X584962Y24638D02*
X584962Y35052D01*
X586423Y35052D01*
X590531Y33351D01*
X593675Y30207D01*
X595376Y26099D01*
X595376Y24638D01*
X584962Y24638D01*
G37*
G36*
X668386Y14224D02*
X668386Y24638D01*
X678800Y24638D01*
X678800Y23177D01*
X677099Y19069D01*
X673955Y15925D01*
X669847Y14224D01*
X668386Y14224D01*
G37*
G36*
X665401Y14224D02*
X661293Y15925D01*
X658149Y19069D01*
X656448Y23177D01*
X656448Y24638D01*
X666862Y24638D01*
X666862Y14224D01*
X665401Y14224D01*
G37*
G36*
X584962Y12700D02*
X584962Y23114D01*
X595376Y23114D01*
X595376Y21653D01*
X593675Y17545D01*
X590531Y14401D01*
X586423Y12700D01*
X584962Y12700D01*
G37*
G36*
X581977Y12700D02*
X577869Y14401D01*
X574725Y17545D01*
X573024Y21653D01*
X573024Y23114D01*
X583438Y23114D01*
X583438Y12700D01*
X581977Y12700D01*
G37*
%LPD*%
D10*
X847456Y178564D03*
X898256Y178564D03*
X872856Y178564D03*
D11*
X645800Y63500D03*
X573400Y63500D03*
X603250Y103500D03*
X603250Y175900D03*
X827400Y25400D03*
X899800Y25400D03*
D12*
X952500Y50800D03*
X952500Y101600D03*
X952500Y152400D03*
D13*
X469900Y101600D02*
X101600Y101600D01*
D14*
X538480Y101600D03*
D15*
X749300Y132700D02*
X749300Y146700D01*
X723900Y146700D02*
X723900Y132700D01*
X698500Y132700D02*
X698500Y146700D01*
X673100Y146700D02*
X673100Y132700D01*
X673100Y70500D02*
X673100Y56500D01*
X698500Y56500D02*
X698500Y70500D01*
X723900Y70500D02*
X723900Y56500D01*
X749300Y56500D02*
X749300Y70500D01*
X863600Y132700D02*
X863600Y146700D01*
X838200Y146700D02*
X838200Y132700D01*
X812800Y132700D02*
X812800Y146700D01*
X787400Y146700D02*
X787400Y132700D01*
X787400Y70500D02*
X787400Y56500D01*
X812800Y56500D02*
X812800Y70500D01*
X838200Y70500D02*
X838200Y56500D01*
X863600Y56500D02*
X863600Y70500D01*
D11*
X738500Y25400D03*
X810900Y25400D03*
X635000Y23876D03*
X584200Y23876D03*
X718424Y25400D03*
X667624Y25400D03*
X635000Y176024D03*
X635000Y125224D03*
X573504Y103604D03*
X573504Y154404D03*
D16*
X979678Y74422D02*
X979678Y39878D01*
X979678Y74422D02*
X952500Y101600D01*
X838200Y63500D02*
X838200Y43800D01*
X856600Y25400D01*
X899800Y25400D01*
X965200Y25400D01*
X979678Y39878D01*
X949820Y101600D02*
X872856Y178564D01*
X949820Y101600D02*
X952500Y101600D01*
X787400Y25400D02*
X749300Y63500D01*
X787400Y25400D02*
X810900Y25400D01*
X939800Y63500D02*
X952500Y50800D01*
X939800Y63500D02*
X863600Y63500D01*
X827400Y25400D02*
X810900Y25400D01*
X768350Y89550D02*
X768350Y102250D01*
X768350Y146171D01*
X876300Y102250D02*
X876300Y76200D01*
X863600Y63500D01*
X876300Y102250D02*
X768350Y102250D01*
X749300Y70500D02*
X749300Y63500D01*
X749300Y70500D02*
X768350Y89550D01*
X847456Y178564D02*
X866224Y159796D01*
X869025Y159796D01*
X876696Y152125D01*
X876696Y127275D01*
X876300Y126879D01*
X876300Y102250D01*
X768350Y146171D02*
X754725Y159796D01*
X693075Y159796D01*
X673100Y139821D01*
X673100Y139700D01*
X698500Y139700D02*
X698500Y127000D01*
X645800Y74300D01*
X645800Y63500D01*
X825896Y152004D02*
X838200Y139700D01*
X825896Y152004D02*
X825896Y152125D01*
X801997Y176024D01*
X635000Y176024D01*
X603374Y176024D01*
X603250Y175900D01*
X595000Y175900D01*
X573504Y154404D01*
X573504Y103604D02*
X571500Y101600D01*
X546100Y101600D01*
X573400Y103500D02*
X573504Y103604D01*
X573400Y103500D02*
X573400Y63500D01*
X635000Y23876D02*
X673100Y61976D01*
X673100Y63500D01*
X718424Y25400D02*
X721162Y28138D01*
X723900Y30876D01*
X723900Y63500D01*
X698500Y63500D01*
X723900Y25400D02*
X738500Y25400D01*
X723900Y25400D02*
X721162Y28138D01*
X723900Y63500D02*
X723900Y139700D01*
M02*
