G04 EAGLE Gerber RS-274X export*
G75*
%MOMM*%
%FSLAX34Y34*%
%LPD*%
%INSoldermask Bottom*%
%IPPOS*%
%AMOC8*
5,1,8,0,0,1.08239X$1,22.5*%
G01*
G04 Define Apertures*
%ADD10C,1.361200*%
%ADD11C,1.625600*%
%ADD12C,2.743200*%
%ADD13R,1.473200X0.838200*%
%ADD14C,1.603200*%
D10*
X847456Y178564D03*
X898256Y178564D03*
X872856Y178564D03*
D11*
X645800Y63500D03*
X573400Y63500D03*
X603250Y103500D03*
X603250Y175900D03*
X827400Y25400D03*
X899800Y25400D03*
D12*
X952500Y50800D03*
X952500Y101600D03*
X952500Y152400D03*
D13*
X538480Y101600D03*
D14*
X749300Y132700D02*
X749300Y146700D01*
X723900Y146700D02*
X723900Y132700D01*
X698500Y132700D02*
X698500Y146700D01*
X673100Y146700D02*
X673100Y132700D01*
X673100Y70500D02*
X673100Y56500D01*
X698500Y56500D02*
X698500Y70500D01*
X723900Y70500D02*
X723900Y56500D01*
X749300Y56500D02*
X749300Y70500D01*
X863600Y132700D02*
X863600Y146700D01*
X838200Y146700D02*
X838200Y132700D01*
X812800Y132700D02*
X812800Y146700D01*
X787400Y146700D02*
X787400Y132700D01*
X787400Y70500D02*
X787400Y56500D01*
X812800Y56500D02*
X812800Y70500D01*
X838200Y70500D02*
X838200Y56500D01*
X863600Y56500D02*
X863600Y70500D01*
D11*
X738500Y25400D03*
X810900Y25400D03*
X635000Y23876D03*
X584200Y23876D03*
X718424Y25400D03*
X667624Y25400D03*
X635000Y176024D03*
X635000Y125224D03*
X573504Y103604D03*
X573504Y154404D03*
M02*
