G04 EAGLE Gerber RS-274X export*
G75*
%MOMM*%
%FSLAX34Y34*%
%LPD*%
%INBottom Copper*%
%IPPOS*%
%AMOC8*
5,1,8,0,0,1.08239X$1,22.5*%
G01*
G04 Define Apertures*
%ADD10P,1.732040X8X202.500000*%
%ADD11C,1.408000*%
%ADD12R,1.400000X1.400000*%
%ADD13C,1.400000*%
%ADD14P,1.429621X8X202.500000*%
%ADD15C,1.260000*%
%ADD16C,2.540000*%
%ADD17P,1.732040X8X292.500000*%
%ADD18C,1.676400*%
%ADD19C,12.700000*%
%ADD20R,1.270000X0.635000*%
%ADD21C,0.406400*%
G36*
X546081Y12703D02*
X546091Y12710D01*
X546098Y12720D01*
X546100Y12732D01*
X546100Y38517D01*
X546098Y38529D01*
X546091Y38539D01*
X544593Y40037D01*
X541700Y47021D01*
X541700Y54579D01*
X544066Y60290D01*
X544068Y60303D01*
X544068Y75702D01*
X544066Y75715D01*
X544059Y75725D01*
X542396Y77387D01*
X542386Y77394D01*
X542374Y77396D01*
X542361Y77394D01*
X542351Y77386D01*
X542345Y77377D01*
X537428Y65506D01*
X529088Y53025D01*
X518475Y42412D01*
X505994Y34073D01*
X492127Y28328D01*
X477405Y25400D01*
X94095Y25400D01*
X79373Y28328D01*
X65506Y34073D01*
X53025Y42412D01*
X42412Y53025D01*
X34073Y65506D01*
X28328Y79373D01*
X25400Y94095D01*
X25400Y109105D01*
X28328Y123827D01*
X34073Y137694D01*
X42412Y150175D01*
X53025Y160788D01*
X65506Y169128D01*
X79373Y174872D01*
X94095Y177800D01*
X477405Y177800D01*
X492127Y174872D01*
X505994Y169128D01*
X518475Y160788D01*
X529088Y150175D01*
X537428Y137694D01*
X543172Y123827D01*
X544430Y117501D01*
X544435Y117489D01*
X544444Y117480D01*
X544461Y117475D01*
X546068Y117475D01*
X546081Y117478D01*
X546091Y117485D01*
X546098Y117495D01*
X546100Y117507D01*
X546100Y149870D01*
X546098Y149883D01*
X546091Y149893D01*
X542065Y153918D01*
X539060Y161174D01*
X539060Y169027D01*
X542065Y176282D01*
X546091Y180307D01*
X546098Y180318D01*
X546100Y180330D01*
X546100Y187168D01*
X546098Y187181D01*
X546090Y187191D01*
X546080Y187198D01*
X546068Y187200D01*
X85600Y187200D01*
X85596Y187200D01*
X69382Y185373D01*
X69375Y185371D01*
X53973Y179982D01*
X53967Y179979D01*
X40150Y171298D01*
X40145Y171293D01*
X28607Y159755D01*
X28602Y159750D01*
X19921Y145933D01*
X19918Y145927D01*
X14529Y130525D01*
X14527Y130518D01*
X12700Y114304D01*
X12700Y114300D01*
X12700Y88900D01*
X12700Y88897D01*
X14164Y74037D01*
X14165Y74031D01*
X18499Y59742D01*
X18502Y59737D01*
X25540Y46568D01*
X25544Y46563D01*
X35016Y35021D01*
X35021Y35016D01*
X46563Y25544D01*
X46568Y25540D01*
X59737Y18502D01*
X59742Y18499D01*
X74031Y14165D01*
X74037Y14164D01*
X88897Y12700D01*
X88900Y12700D01*
X546068Y12700D01*
X546081Y12703D01*
G37*
G36*
X979775Y10220D02*
X980025Y10392D01*
X980189Y10647D01*
X980240Y10922D01*
X980240Y39599D01*
X980180Y39896D01*
X980008Y40146D01*
X979753Y40309D01*
X979454Y40360D01*
X979159Y40290D01*
X978914Y40111D01*
X978774Y39890D01*
X978496Y39219D01*
X964589Y25312D01*
X962349Y24384D01*
X908357Y24384D01*
X908060Y24324D01*
X907810Y24152D01*
X907653Y23914D01*
X906433Y20968D01*
X904232Y18767D01*
X901356Y17576D01*
X898244Y17576D01*
X895368Y18767D01*
X893167Y20968D01*
X891950Y23907D01*
X891785Y24154D01*
X891778Y24161D01*
X891525Y24328D01*
X891239Y24384D01*
X854483Y24384D01*
X852243Y25312D01*
X834520Y43035D01*
X834272Y43201D01*
X833372Y43574D01*
X830974Y45972D01*
X829676Y49104D01*
X829676Y52496D01*
X830974Y55628D01*
X833372Y58026D01*
X836504Y59324D01*
X839896Y59324D01*
X843028Y58026D01*
X845426Y55628D01*
X846724Y52496D01*
X846724Y49104D01*
X846617Y48846D01*
X846559Y48548D01*
X846622Y48251D01*
X846782Y48015D01*
X857998Y36799D01*
X858251Y36632D01*
X858537Y36576D01*
X941177Y36576D01*
X941474Y36636D01*
X941724Y36808D01*
X941887Y37063D01*
X941938Y37362D01*
X941868Y37657D01*
X941715Y37877D01*
X938288Y41304D01*
X937075Y44234D01*
X936905Y44485D01*
X936651Y44651D01*
X936371Y44704D01*
X873467Y44704D01*
X873169Y44644D01*
X872928Y44481D01*
X869867Y41420D01*
X865801Y39736D01*
X861399Y39736D01*
X857333Y41420D01*
X854220Y44533D01*
X852536Y48599D01*
X852536Y53001D01*
X854220Y57067D01*
X857277Y60124D01*
X857445Y60377D01*
X857500Y60675D01*
X857435Y60971D01*
X857277Y61202D01*
X848202Y70277D01*
X847949Y70444D01*
X847663Y70500D01*
X765237Y70500D01*
X764940Y70440D01*
X764698Y70277D01*
X751888Y57467D01*
X751720Y57214D01*
X751665Y56916D01*
X751730Y56620D01*
X751905Y56372D01*
X752135Y56224D01*
X752753Y55968D01*
X777002Y31719D01*
X777255Y31552D01*
X777541Y31496D01*
X802023Y31496D01*
X802321Y31556D01*
X802562Y31719D01*
X805029Y34186D01*
X808838Y35764D01*
X812962Y35764D01*
X816771Y34186D01*
X818611Y32346D01*
X818864Y32178D01*
X819162Y32123D01*
X819458Y32188D01*
X819689Y32346D01*
X821529Y34186D01*
X825338Y35764D01*
X829462Y35764D01*
X833271Y34186D01*
X836186Y31271D01*
X837764Y27462D01*
X837764Y23338D01*
X836186Y19529D01*
X833271Y16614D01*
X829462Y15036D01*
X825338Y15036D01*
X821529Y16614D01*
X819689Y18454D01*
X819436Y18622D01*
X819138Y18677D01*
X818842Y18612D01*
X818611Y18454D01*
X816771Y16614D01*
X812962Y15036D01*
X808838Y15036D01*
X805029Y16614D01*
X802562Y19081D01*
X802309Y19248D01*
X802023Y19304D01*
X773487Y19304D01*
X771247Y20232D01*
X747979Y43500D01*
X747726Y43668D01*
X747428Y43723D01*
X747132Y43658D01*
X746901Y43500D01*
X743650Y40249D01*
X739076Y38354D01*
X734124Y38354D01*
X729550Y40249D01*
X726049Y43750D01*
X724154Y48324D01*
X724154Y53276D01*
X726049Y57850D01*
X729550Y61351D01*
X734124Y63246D01*
X739076Y63246D01*
X739559Y63046D01*
X739857Y62988D01*
X740154Y63050D01*
X740390Y63211D01*
X744759Y67580D01*
X744926Y67833D01*
X744982Y68119D01*
X744982Y118096D01*
X744922Y118394D01*
X744750Y118644D01*
X744495Y118807D01*
X744196Y118858D01*
X743901Y118788D01*
X743681Y118635D01*
X742787Y117741D01*
X738773Y116078D01*
X737362Y116078D01*
X737362Y127762D01*
X725678Y127762D01*
X725678Y129173D01*
X727341Y133187D01*
X730413Y136259D01*
X734427Y137922D01*
X735692Y137922D01*
X735990Y137982D01*
X736240Y138154D01*
X736403Y138409D01*
X736454Y138708D01*
X736384Y139003D01*
X736231Y139223D01*
X735215Y140239D01*
X734962Y140406D01*
X734676Y140462D01*
X670099Y140462D01*
X669802Y140402D01*
X669560Y140239D01*
X667700Y138379D01*
X667533Y138126D01*
X667477Y137828D01*
X667542Y137532D01*
X667700Y137301D01*
X670951Y134050D01*
X672846Y129476D01*
X672846Y124524D01*
X670951Y119950D01*
X667450Y116449D01*
X662876Y114554D01*
X657924Y114554D01*
X653350Y116449D01*
X649849Y119950D01*
X647954Y124524D01*
X647954Y129476D01*
X649849Y134050D01*
X653350Y137551D01*
X653834Y137752D01*
X654085Y137921D01*
X654251Y138175D01*
X654304Y138456D01*
X654304Y140913D01*
X655232Y143153D01*
X663805Y151726D01*
X666045Y152654D01*
X738730Y152654D01*
X740970Y151726D01*
X756246Y136450D01*
X757174Y134210D01*
X757174Y81835D01*
X757234Y81538D01*
X757406Y81287D01*
X757661Y81124D01*
X757960Y81073D01*
X758255Y81143D01*
X758475Y81296D01*
X758943Y81764D01*
X761183Y82692D01*
X853525Y82692D01*
X855765Y81764D01*
X857480Y80049D01*
X858408Y77809D01*
X858408Y77629D01*
X858468Y77331D01*
X858631Y77090D01*
X868768Y66953D01*
X869024Y66335D01*
X869193Y66084D01*
X869448Y65918D01*
X869746Y65865D01*
X870042Y65932D01*
X870267Y66088D01*
X870377Y66198D01*
X870544Y66451D01*
X870600Y66737D01*
X870600Y117714D01*
X870540Y118011D01*
X870368Y118261D01*
X870113Y118425D01*
X869838Y118476D01*
X855969Y118476D01*
X855076Y119369D01*
X855076Y134631D01*
X855969Y135524D01*
X869838Y135524D01*
X870135Y135584D01*
X870385Y135756D01*
X870549Y136011D01*
X870600Y136286D01*
X870600Y154434D01*
X870540Y154731D01*
X870368Y154981D01*
X870113Y155145D01*
X869838Y155196D01*
X868437Y155196D01*
X862188Y161445D01*
X862188Y170283D01*
X868437Y176532D01*
X877275Y176532D01*
X883524Y170283D01*
X883524Y161445D01*
X883015Y160936D01*
X882848Y160684D01*
X882792Y160398D01*
X882792Y62684D01*
X881864Y60443D01*
X879618Y58197D01*
X879450Y57944D01*
X879395Y57646D01*
X879460Y57350D01*
X879635Y57102D01*
X879893Y56943D01*
X880157Y56896D01*
X936371Y56896D01*
X936668Y56956D01*
X936918Y57128D01*
X937075Y57366D01*
X938288Y60296D01*
X943004Y65012D01*
X949165Y67564D01*
X955835Y67564D01*
X961996Y65012D01*
X965931Y61077D01*
X966184Y60909D01*
X966482Y60854D01*
X966778Y60919D01*
X967026Y61094D01*
X967185Y61352D01*
X967232Y61616D01*
X967232Y77931D01*
X967172Y78229D01*
X967009Y78470D01*
X957651Y87828D01*
X957398Y87996D01*
X957100Y88051D01*
X956820Y87994D01*
X955329Y87376D01*
X949671Y87376D01*
X944443Y89541D01*
X940441Y93543D01*
X938276Y98771D01*
X938276Y104429D01*
X940441Y109657D01*
X942603Y111819D01*
X942770Y112071D01*
X942826Y112370D01*
X942761Y112666D01*
X942603Y112896D01*
X897986Y157513D01*
X897733Y157680D01*
X897447Y157736D01*
X894889Y157736D01*
X890128Y162497D01*
X890128Y169231D01*
X894889Y173992D01*
X901623Y173992D01*
X906384Y169231D01*
X906384Y166673D01*
X906444Y166375D01*
X906607Y166134D01*
X957691Y115050D01*
X957826Y114850D01*
X958068Y114689D01*
X960557Y113659D01*
X964559Y109657D01*
X966724Y104429D01*
X966724Y98771D01*
X966106Y97280D01*
X966049Y96982D01*
X966111Y96685D01*
X966272Y96449D01*
X978496Y84225D01*
X978774Y83554D01*
X978944Y83302D01*
X979198Y83137D01*
X979496Y83084D01*
X979792Y83151D01*
X980038Y83329D01*
X980195Y83588D01*
X980240Y83845D01*
X980240Y188978D01*
X980180Y189275D01*
X980008Y189525D01*
X979753Y189689D01*
X979478Y189740D01*
X525272Y189740D01*
X524975Y189680D01*
X524725Y189508D01*
X524561Y189253D01*
X524510Y188978D01*
X524510Y141714D01*
X524638Y141290D01*
X529774Y133604D01*
X534868Y121308D01*
X537024Y110468D01*
X537141Y110189D01*
X537358Y109977D01*
X537771Y109855D01*
X546934Y109855D01*
X549910Y106879D01*
X549910Y102576D01*
X549970Y102278D01*
X550133Y102037D01*
X552324Y99845D01*
X552577Y99678D01*
X552875Y99622D01*
X553155Y99680D01*
X556389Y101020D01*
X561211Y101020D01*
X565665Y99175D01*
X569075Y95765D01*
X570920Y91311D01*
X570920Y86489D01*
X569075Y82035D01*
X566135Y79095D01*
X565968Y78842D01*
X565912Y78556D01*
X565912Y61468D01*
X565972Y61171D01*
X566144Y60921D01*
X566382Y60764D01*
X567146Y60448D01*
X570348Y57246D01*
X572080Y53064D01*
X572080Y48536D01*
X570348Y44354D01*
X567146Y41153D01*
X562964Y39420D01*
X558436Y39420D01*
X554254Y41153D01*
X551053Y44354D01*
X549320Y48536D01*
X549320Y53064D01*
X551053Y57246D01*
X551465Y57659D01*
X551632Y57911D01*
X551688Y58197D01*
X551688Y78556D01*
X551628Y78853D01*
X551465Y79095D01*
X548525Y82035D01*
X547526Y84446D01*
X547361Y84693D01*
X538932Y93122D01*
X538679Y93289D01*
X538394Y93345D01*
X537771Y93345D01*
X537474Y93285D01*
X537224Y93113D01*
X537024Y92732D01*
X534868Y81892D01*
X529774Y69597D01*
X524638Y61910D01*
X524510Y61487D01*
X524510Y10922D01*
X524570Y10625D01*
X524742Y10375D01*
X524997Y10211D01*
X525272Y10160D01*
X979478Y10160D01*
X979775Y10220D01*
G37*
%LPC*%
G36*
X914512Y166626D02*
X914512Y169652D01*
X919868Y175008D01*
X922894Y175008D01*
X922894Y166626D01*
X914512Y166626D01*
G37*
G36*
X924418Y166626D02*
X924418Y175008D01*
X927444Y175008D01*
X932800Y169652D01*
X932800Y166626D01*
X924418Y166626D01*
G37*
G36*
X836504Y118476D02*
X833372Y119774D01*
X830974Y122172D01*
X829676Y125304D01*
X829676Y128696D01*
X830974Y131828D01*
X831881Y132736D01*
X832048Y132988D01*
X832104Y133274D01*
X832104Y139683D01*
X832044Y139981D01*
X831881Y140222D01*
X814592Y157511D01*
X814339Y157678D01*
X814053Y157734D01*
X629990Y157734D01*
X629693Y157674D01*
X629451Y157511D01*
X626245Y154305D01*
X618355Y154305D01*
X614509Y158151D01*
X614256Y158318D01*
X613970Y158374D01*
X595834Y158374D01*
X595537Y158314D01*
X595296Y158151D01*
X594982Y157837D01*
X592106Y156646D01*
X588994Y156646D01*
X586118Y157837D01*
X585174Y158781D01*
X584922Y158948D01*
X584636Y159004D01*
X565131Y159004D01*
X564834Y158944D01*
X564592Y158781D01*
X563651Y157840D01*
X560504Y156536D01*
X557097Y156536D01*
X553949Y157840D01*
X551540Y160249D01*
X550236Y163397D01*
X550236Y166804D01*
X551540Y169951D01*
X553949Y172360D01*
X557097Y173664D01*
X560504Y173664D01*
X563651Y172360D01*
X564592Y171419D01*
X564845Y171252D01*
X565131Y171196D01*
X586191Y171196D01*
X586483Y171254D01*
X588994Y172294D01*
X592106Y172294D01*
X594982Y171103D01*
X595296Y170789D01*
X595548Y170622D01*
X595834Y170566D01*
X615250Y170566D01*
X615547Y170626D01*
X615789Y170789D01*
X618355Y173355D01*
X626245Y173355D01*
X629451Y170149D01*
X629704Y169982D01*
X629990Y169926D01*
X818107Y169926D01*
X820347Y168998D01*
X843368Y145977D01*
X844296Y143737D01*
X844296Y133274D01*
X844356Y132977D01*
X844519Y132736D01*
X845426Y131828D01*
X846724Y128696D01*
X846724Y125304D01*
X845426Y122172D01*
X843028Y119774D01*
X839896Y118476D01*
X836504Y118476D01*
G37*
G36*
X953262Y153162D02*
X953262Y167640D01*
X955531Y167640D01*
X961133Y165320D01*
X965420Y161033D01*
X967740Y155431D01*
X967740Y153162D01*
X953262Y153162D01*
G37*
G36*
X937260Y153162D02*
X937260Y155431D01*
X939580Y161033D01*
X943867Y165320D01*
X949469Y167640D01*
X951738Y167640D01*
X951738Y153162D01*
X937260Y153162D01*
G37*
G36*
X919868Y156720D02*
X914512Y162076D01*
X914512Y165102D01*
X922894Y165102D01*
X922894Y156720D01*
X919868Y156720D01*
G37*
G36*
X924418Y156720D02*
X924418Y165102D01*
X932800Y165102D01*
X932800Y162076D01*
X927444Y156720D01*
X924418Y156720D01*
G37*
G36*
X949469Y137160D02*
X943867Y139480D01*
X939580Y143767D01*
X937260Y149369D01*
X937260Y151638D01*
X951738Y151638D01*
X951738Y137160D01*
X949469Y137160D01*
G37*
G36*
X953262Y137160D02*
X953262Y151638D01*
X967740Y151638D01*
X967740Y149369D01*
X965420Y143767D01*
X961133Y139480D01*
X955531Y137160D01*
X953262Y137160D01*
G37*
G36*
X712335Y16256D02*
X706755Y21836D01*
X706755Y26369D01*
X706695Y26667D01*
X706532Y26908D01*
X706032Y27408D01*
X705104Y29648D01*
X705104Y42571D01*
X705044Y42868D01*
X704881Y43110D01*
X703510Y44481D01*
X703257Y44648D01*
X702971Y44704D01*
X694029Y44704D01*
X693732Y44644D01*
X693490Y44481D01*
X691411Y42402D01*
X687770Y40894D01*
X683830Y40894D01*
X680189Y42402D01*
X677402Y45189D01*
X675894Y48830D01*
X675894Y52770D01*
X677402Y56411D01*
X680189Y59198D01*
X683830Y60706D01*
X687770Y60706D01*
X691411Y59198D01*
X693490Y57119D01*
X693743Y56952D01*
X694029Y56896D01*
X702971Y56896D01*
X703268Y56956D01*
X703510Y57119D01*
X704881Y58490D01*
X705048Y58743D01*
X705104Y59029D01*
X705104Y118771D01*
X705044Y119068D01*
X704881Y119310D01*
X702802Y121389D01*
X701294Y125030D01*
X701294Y128970D01*
X702802Y132611D01*
X705589Y135398D01*
X709230Y136906D01*
X713170Y136906D01*
X716811Y135398D01*
X719598Y132611D01*
X721106Y128970D01*
X721106Y125030D01*
X719598Y121389D01*
X717519Y119310D01*
X717352Y119057D01*
X717296Y118771D01*
X717296Y59029D01*
X717356Y58732D01*
X717519Y58490D01*
X719598Y56411D01*
X721106Y52770D01*
X721106Y48830D01*
X719598Y45189D01*
X717519Y43110D01*
X717352Y42857D01*
X717296Y42571D01*
X717296Y36068D01*
X717356Y35771D01*
X717528Y35521D01*
X717783Y35357D01*
X718058Y35306D01*
X720225Y35306D01*
X723812Y31719D01*
X724065Y31552D01*
X724351Y31496D01*
X733216Y31496D01*
X733513Y31556D01*
X733754Y31719D01*
X734068Y32033D01*
X736944Y33224D01*
X740056Y33224D01*
X742932Y32033D01*
X745133Y29832D01*
X746324Y26956D01*
X746324Y23844D01*
X745133Y20968D01*
X742932Y18767D01*
X740056Y17576D01*
X736944Y17576D01*
X734068Y18767D01*
X733754Y19081D01*
X733502Y19248D01*
X733216Y19304D01*
X723589Y19304D01*
X723292Y19244D01*
X723050Y19081D01*
X720225Y16256D01*
X712335Y16256D01*
G37*
G36*
X631544Y42976D02*
X628668Y44167D01*
X626467Y46368D01*
X625276Y49244D01*
X625276Y52356D01*
X626467Y55232D01*
X626781Y55546D01*
X626948Y55798D01*
X627004Y56084D01*
X627004Y69925D01*
X627932Y72165D01*
X676970Y121203D01*
X677137Y121456D01*
X677193Y121754D01*
X677135Y122033D01*
X675894Y125030D01*
X675894Y128970D01*
X677402Y132611D01*
X680189Y135398D01*
X683830Y136906D01*
X687770Y136906D01*
X691411Y135398D01*
X694198Y132611D01*
X695706Y128970D01*
X695706Y125030D01*
X694198Y121389D01*
X694010Y121201D01*
X693845Y120954D01*
X693762Y120753D01*
X639419Y66410D01*
X639252Y66157D01*
X639196Y65871D01*
X639196Y56084D01*
X639256Y55787D01*
X639419Y55546D01*
X639733Y55232D01*
X640924Y52356D01*
X640924Y49244D01*
X639733Y46368D01*
X637532Y44167D01*
X634656Y42976D01*
X631544Y42976D01*
G37*
G36*
X788162Y127762D02*
X788162Y136540D01*
X789298Y136540D01*
X792804Y135088D01*
X795488Y132404D01*
X796940Y128898D01*
X796940Y127762D01*
X788162Y127762D01*
G37*
G36*
X813562Y127762D02*
X813562Y136540D01*
X814698Y136540D01*
X818204Y135088D01*
X820888Y132404D01*
X822340Y128898D01*
X822340Y127762D01*
X813562Y127762D01*
G37*
G36*
X777860Y127762D02*
X777860Y128898D01*
X779312Y132404D01*
X781996Y135088D01*
X785502Y136540D01*
X786638Y136540D01*
X786638Y127762D01*
X777860Y127762D01*
G37*
G36*
X803260Y127762D02*
X803260Y128898D01*
X804712Y132404D01*
X807396Y135088D01*
X810902Y136540D01*
X812038Y136540D01*
X812038Y127762D01*
X803260Y127762D01*
G37*
G36*
X810902Y117460D02*
X807396Y118912D01*
X804712Y121596D01*
X803260Y125102D01*
X803260Y126238D01*
X812038Y126238D01*
X812038Y117460D01*
X810902Y117460D01*
G37*
G36*
X813562Y117460D02*
X813562Y126238D01*
X822340Y126238D01*
X822340Y125102D01*
X820888Y121596D01*
X818204Y118912D01*
X814698Y117460D01*
X813562Y117460D01*
G37*
G36*
X788162Y117460D02*
X788162Y126238D01*
X796940Y126238D01*
X796940Y125102D01*
X795488Y121596D01*
X792804Y118912D01*
X789298Y117460D01*
X788162Y117460D01*
G37*
G36*
X785502Y117460D02*
X781996Y118912D01*
X779312Y121596D01*
X777860Y125102D01*
X777860Y126238D01*
X786638Y126238D01*
X786638Y117460D01*
X785502Y117460D01*
G37*
G36*
X734427Y116078D02*
X730413Y117741D01*
X727341Y120813D01*
X725678Y124827D01*
X725678Y126238D01*
X735838Y126238D01*
X735838Y116078D01*
X734427Y116078D01*
G37*
G36*
X611759Y113792D02*
X611759Y117396D01*
X617934Y123571D01*
X621538Y123571D01*
X621538Y113792D01*
X611759Y113792D01*
G37*
G36*
X623062Y113792D02*
X623062Y123571D01*
X626666Y123571D01*
X632841Y117396D01*
X632841Y113792D01*
X623062Y113792D01*
G37*
G36*
X623062Y102489D02*
X623062Y112268D01*
X632841Y112268D01*
X632841Y108664D01*
X626666Y102489D01*
X623062Y102489D01*
G37*
G36*
X617934Y102489D02*
X611759Y108664D01*
X611759Y112268D01*
X621538Y112268D01*
X621538Y102489D01*
X617934Y102489D01*
G37*
G36*
X581710Y92832D02*
X581710Y93828D01*
X583056Y97077D01*
X585543Y99564D01*
X588792Y100910D01*
X589788Y100910D01*
X589788Y92832D01*
X581710Y92832D01*
G37*
G36*
X591312Y92832D02*
X591312Y100910D01*
X592308Y100910D01*
X595557Y99564D01*
X598044Y97077D01*
X599390Y93828D01*
X599390Y92832D01*
X591312Y92832D01*
G37*
G36*
X591312Y83230D02*
X591312Y91308D01*
X599390Y91308D01*
X599390Y90312D01*
X598044Y87063D01*
X595557Y84576D01*
X592308Y83230D01*
X591312Y83230D01*
G37*
G36*
X588792Y83230D02*
X585543Y84576D01*
X583056Y87063D01*
X581710Y90312D01*
X581710Y91308D01*
X589788Y91308D01*
X589788Y83230D01*
X588792Y83230D01*
G37*
G36*
X627245Y16256D02*
X621665Y21836D01*
X621665Y29726D01*
X627245Y35306D01*
X635371Y35306D01*
X635484Y35285D01*
X635781Y35350D01*
X636011Y35508D01*
X650271Y49768D01*
X650438Y50021D01*
X650494Y50307D01*
X650494Y52770D01*
X652002Y56411D01*
X654789Y59198D01*
X658430Y60706D01*
X662370Y60706D01*
X666011Y59198D01*
X668798Y56411D01*
X670306Y52770D01*
X670306Y48830D01*
X668798Y45189D01*
X666011Y42402D01*
X662370Y40894D01*
X658955Y40894D01*
X658657Y40834D01*
X658416Y40671D01*
X640938Y23193D01*
X640771Y22940D01*
X640715Y22654D01*
X640715Y21836D01*
X635135Y16256D01*
X627245Y16256D01*
G37*
G36*
X785704Y42276D02*
X782572Y43574D01*
X780174Y45972D01*
X778876Y49104D01*
X778876Y52496D01*
X780174Y55628D01*
X782572Y58026D01*
X785704Y59324D01*
X789096Y59324D01*
X792228Y58026D01*
X794626Y55628D01*
X795924Y52496D01*
X795924Y49104D01*
X794626Y45972D01*
X792228Y43574D01*
X789096Y42276D01*
X785704Y42276D01*
G37*
G36*
X811104Y42276D02*
X807972Y43574D01*
X805574Y45972D01*
X804276Y49104D01*
X804276Y52496D01*
X805574Y55628D01*
X807972Y58026D01*
X811104Y59324D01*
X814496Y59324D01*
X817628Y58026D01*
X820026Y55628D01*
X821324Y52496D01*
X821324Y49104D01*
X820026Y45972D01*
X817628Y43574D01*
X814496Y42276D01*
X811104Y42276D01*
G37*
G36*
X654939Y26543D02*
X654939Y30147D01*
X661114Y36322D01*
X664718Y36322D01*
X664718Y26543D01*
X654939Y26543D01*
G37*
G36*
X569849Y26543D02*
X569849Y30147D01*
X576024Y36322D01*
X579628Y36322D01*
X579628Y26543D01*
X569849Y26543D01*
G37*
G36*
X581152Y26543D02*
X581152Y36322D01*
X584756Y36322D01*
X590931Y30147D01*
X590931Y26543D01*
X581152Y26543D01*
G37*
G36*
X666242Y26543D02*
X666242Y36322D01*
X669846Y36322D01*
X676021Y30147D01*
X676021Y26543D01*
X666242Y26543D01*
G37*
G36*
X666242Y15240D02*
X666242Y25019D01*
X676021Y25019D01*
X676021Y21415D01*
X669846Y15240D01*
X666242Y15240D01*
G37*
G36*
X661114Y15240D02*
X654939Y21415D01*
X654939Y25019D01*
X664718Y25019D01*
X664718Y15240D01*
X661114Y15240D01*
G37*
G36*
X581152Y15240D02*
X581152Y25019D01*
X590931Y25019D01*
X590931Y21415D01*
X584756Y15240D01*
X581152Y15240D01*
G37*
G36*
X576024Y15240D02*
X569849Y21415D01*
X569849Y25019D01*
X579628Y25019D01*
X579628Y15240D01*
X576024Y15240D01*
G37*
%LPD*%
D10*
X631190Y25781D03*
X580390Y25781D03*
D11*
X558800Y88900D03*
X558800Y165100D03*
D12*
X863600Y127000D03*
D13*
X838200Y127000D03*
X812800Y127000D03*
X787400Y127000D03*
X787400Y50800D03*
X812800Y50800D03*
X838200Y50800D03*
X863600Y50800D03*
D14*
X872856Y165864D03*
X923656Y165864D03*
X898256Y165864D03*
D15*
X633100Y50800D03*
X560700Y50800D03*
X590550Y92070D03*
X590550Y164470D03*
X738500Y25400D03*
X810900Y25400D03*
X827400Y25400D03*
X899800Y25400D03*
D16*
X952500Y50800D03*
X952500Y101600D03*
X952500Y152400D03*
D10*
X716280Y25781D03*
X665480Y25781D03*
D17*
X622300Y163830D03*
X622300Y113030D03*
D18*
X736600Y127000D03*
X711200Y127000D03*
X711200Y50800D03*
X736600Y50800D03*
X685800Y127000D03*
X660400Y127000D03*
X685800Y50800D03*
X660400Y50800D03*
D19*
X469900Y101600D02*
X101600Y101600D01*
D20*
X538480Y101600D03*
D21*
X894080Y30480D02*
X898144Y26416D01*
X899800Y25400D01*
X894080Y30480D02*
X961136Y30480D01*
X973328Y42672D01*
X973328Y80772D01*
X952500Y101600D02*
X952500Y111620D01*
X898256Y165864D01*
X952500Y101600D02*
X973328Y80772D01*
X838200Y50800D02*
X836788Y49388D01*
X855696Y30480D01*
X894080Y30480D01*
X838200Y142524D02*
X816894Y163830D01*
X622300Y163830D01*
X590550Y164470D02*
X589920Y165100D01*
X558800Y165100D01*
X621660Y164470D02*
X622300Y163830D01*
X621660Y164470D02*
X590550Y164470D01*
X838200Y142524D02*
X838200Y127000D01*
X659924Y50800D02*
X634905Y25781D01*
X631190Y25781D01*
X659924Y50800D02*
X660400Y50800D01*
X688594Y124206D02*
X685800Y127000D01*
X688594Y124206D02*
X633100Y68712D01*
X633100Y50800D01*
X716280Y25781D02*
X716661Y25400D01*
X738500Y25400D01*
X711200Y50800D02*
X711200Y127000D01*
X711200Y50800D02*
X685800Y50800D01*
X711200Y30861D02*
X716280Y25781D01*
X711200Y30861D02*
X711200Y50800D01*
X749300Y50800D02*
X774700Y25400D01*
X749300Y50800D02*
X736600Y50800D01*
X774700Y25400D02*
X810900Y25400D01*
X863600Y50800D02*
X952500Y50800D01*
X827400Y25400D02*
X810900Y25400D01*
X876696Y162024D02*
X872856Y165864D01*
X876696Y162024D02*
X876696Y63896D01*
X863600Y50800D01*
X762396Y76596D02*
X736600Y50800D01*
X660400Y139700D02*
X667258Y146558D01*
X660400Y139700D02*
X660400Y127000D01*
X667258Y146558D02*
X737517Y146558D01*
X751078Y132997D01*
X751078Y65278D01*
X736600Y50800D01*
X863600Y50800D02*
X863600Y63500D01*
X852312Y74788D01*
X852312Y76596D01*
X762396Y76596D01*
X560700Y50800D02*
X558800Y52700D01*
X558800Y88900D01*
X553212Y88900D01*
X540512Y101600D01*
M02*
