G04 EAGLE Gerber RS-274X export*
G75*
%MOMM*%
%FSLAX34Y34*%
%LPD*%
%INSilkscreen Top*%
%IPPOS*%
%AMOC8*
5,1,8,0,0,1.08239X$1,22.5*%
G01*
G04 Define Apertures*
%ADD10C,0.304800*%
%ADD11C,0.152400*%
%ADD12C,0.203200*%
%ADD13C,0.015238*%
%ADD14C,0.127000*%
G36*
X600389Y4918D02*
X600824Y4957D01*
X601245Y5022D01*
X601652Y5113D01*
X602045Y5230D01*
X602424Y5373D01*
X602790Y5542D01*
X603142Y5737D01*
X603477Y5957D01*
X603793Y6201D01*
X604090Y6468D01*
X604367Y6759D01*
X604625Y7075D01*
X604864Y7414D01*
X605083Y7776D01*
X605283Y8163D01*
X603917Y8846D01*
X603749Y8535D01*
X603571Y8245D01*
X603382Y7974D01*
X603184Y7723D01*
X602976Y7493D01*
X602757Y7282D01*
X602529Y7092D01*
X602290Y6921D01*
X602041Y6771D01*
X601783Y6641D01*
X601514Y6531D01*
X601235Y6440D01*
X600946Y6370D01*
X600647Y6320D01*
X600338Y6290D01*
X600019Y6280D01*
X599527Y6301D01*
X599060Y6366D01*
X598620Y6474D01*
X598205Y6625D01*
X597817Y6819D01*
X597455Y7056D01*
X597119Y7336D01*
X596809Y7659D01*
X596531Y8018D01*
X596290Y8405D01*
X596086Y8819D01*
X595919Y9261D01*
X595789Y9731D01*
X595697Y10229D01*
X595641Y10754D01*
X595623Y11307D01*
X595640Y11866D01*
X595694Y12394D01*
X595783Y12891D01*
X595907Y13358D01*
X596067Y13794D01*
X596263Y14200D01*
X596494Y14575D01*
X596761Y14920D01*
X597060Y15229D01*
X597387Y15497D01*
X597743Y15723D01*
X598127Y15909D01*
X598540Y16053D01*
X598981Y16156D01*
X599451Y16218D01*
X599949Y16238D01*
X600270Y16229D01*
X600580Y16203D01*
X600878Y16158D01*
X601166Y16096D01*
X601442Y16016D01*
X601707Y15918D01*
X601961Y15803D01*
X602205Y15669D01*
X602434Y15519D01*
X602647Y15353D01*
X602844Y15171D01*
X603025Y14973D01*
X603189Y14759D01*
X603337Y14529D01*
X603469Y14284D01*
X603584Y14022D01*
X605169Y14548D01*
X605003Y14915D01*
X604815Y15259D01*
X604604Y15580D01*
X604372Y15877D01*
X604118Y16151D01*
X603842Y16402D01*
X603545Y16630D01*
X603225Y16834D01*
X602884Y17015D01*
X602523Y17171D01*
X602142Y17304D01*
X601740Y17412D01*
X601319Y17496D01*
X600877Y17557D01*
X600414Y17593D01*
X599932Y17605D01*
X599584Y17598D01*
X599246Y17579D01*
X598917Y17546D01*
X598598Y17500D01*
X598289Y17441D01*
X597989Y17369D01*
X597699Y17285D01*
X597418Y17186D01*
X597147Y17075D01*
X596885Y16951D01*
X596633Y16814D01*
X596391Y16664D01*
X595935Y16324D01*
X595517Y15932D01*
X595144Y15494D01*
X594820Y15015D01*
X594546Y14497D01*
X594428Y14223D01*
X594322Y13939D01*
X594229Y13645D01*
X594148Y13341D01*
X594079Y13027D01*
X594023Y12703D01*
X593979Y12369D01*
X593948Y12025D01*
X593930Y11671D01*
X593923Y11307D01*
X593935Y10823D01*
X593968Y10355D01*
X594024Y9904D01*
X594102Y9469D01*
X594202Y9051D01*
X594325Y8649D01*
X594470Y8264D01*
X594637Y7896D01*
X594826Y7546D01*
X595035Y7217D01*
X595264Y6909D01*
X595513Y6622D01*
X595783Y6355D01*
X596073Y6109D01*
X596383Y5884D01*
X596713Y5680D01*
X597061Y5498D01*
X597425Y5341D01*
X597805Y5208D01*
X598201Y5099D01*
X598612Y5014D01*
X599039Y4953D01*
X599482Y4917D01*
X599941Y4905D01*
X600389Y4918D01*
G37*
G36*
X615081Y6420D02*
X612077Y6420D01*
X612077Y17421D01*
X610623Y17421D01*
X607707Y15415D01*
X607707Y13926D01*
X610492Y15914D01*
X610492Y6420D01*
X607348Y6420D01*
X607348Y5080D01*
X615081Y5080D01*
X615081Y6420D01*
G37*
G36*
X577850Y126737D02*
X577838Y127177D01*
X577802Y127604D01*
X577743Y128018D01*
X577660Y128419D01*
X577552Y128806D01*
X577421Y129181D01*
X577267Y129542D01*
X577088Y129890D01*
X576887Y130222D01*
X576665Y130535D01*
X576422Y130828D01*
X576159Y131101D01*
X575874Y131355D01*
X575568Y131590D01*
X575242Y131805D01*
X574894Y132001D01*
X574529Y132176D01*
X574148Y132327D01*
X573753Y132455D01*
X573343Y132559D01*
X572918Y132641D01*
X572477Y132699D01*
X572023Y132734D01*
X571553Y132746D01*
X571195Y132739D01*
X570849Y132719D01*
X570512Y132686D01*
X570186Y132639D01*
X569870Y132579D01*
X569565Y132506D01*
X569270Y132419D01*
X568985Y132320D01*
X568711Y132207D01*
X568447Y132080D01*
X568194Y131940D01*
X567950Y131787D01*
X567718Y131621D01*
X567495Y131441D01*
X567283Y131248D01*
X567081Y131042D01*
X566891Y130823D01*
X566713Y130594D01*
X566547Y130353D01*
X566394Y130101D01*
X566252Y129837D01*
X566123Y129563D01*
X566007Y129277D01*
X565902Y128980D01*
X565810Y128672D01*
X565730Y128353D01*
X565663Y128023D01*
X565608Y127681D01*
X565565Y127328D01*
X565534Y126964D01*
X565515Y126589D01*
X565509Y126203D01*
X565509Y122121D01*
X577850Y122121D01*
X577850Y126737D01*
G37*
%LPC*%
G36*
X566849Y123794D02*
X566849Y126168D01*
X566868Y126746D01*
X566925Y127289D01*
X567019Y127796D01*
X567150Y128269D01*
X567320Y128706D01*
X567527Y129108D01*
X567771Y129475D01*
X568054Y129807D01*
X568372Y130102D01*
X568724Y130357D01*
X569110Y130573D01*
X569531Y130750D01*
X569985Y130887D01*
X570473Y130985D01*
X570996Y131044D01*
X571553Y131064D01*
X571927Y131055D01*
X572289Y131029D01*
X572639Y130986D01*
X572976Y130926D01*
X573300Y130848D01*
X573612Y130754D01*
X573911Y130641D01*
X574198Y130512D01*
X574470Y130367D01*
X574725Y130206D01*
X574965Y130031D01*
X575187Y129841D01*
X575394Y129636D01*
X575584Y129416D01*
X575757Y129181D01*
X575914Y128931D01*
X576054Y128669D01*
X576175Y128396D01*
X576277Y128113D01*
X576361Y127820D01*
X576426Y127516D01*
X576473Y127203D01*
X576501Y126879D01*
X576510Y126545D01*
X576510Y123794D01*
X566849Y123794D01*
G37*
%LPD*%
G36*
X577850Y142719D02*
X576510Y142719D01*
X576510Y139715D01*
X565509Y139715D01*
X565509Y138261D01*
X567515Y135344D01*
X569004Y135344D01*
X567016Y138129D01*
X576510Y138129D01*
X576510Y134985D01*
X577850Y134985D01*
X577850Y142719D01*
G37*
G36*
X869995Y155542D02*
X870430Y155581D01*
X870851Y155646D01*
X871258Y155737D01*
X871651Y155854D01*
X872030Y155997D01*
X872396Y156166D01*
X872748Y156361D01*
X873083Y156581D01*
X873399Y156825D01*
X873696Y157092D01*
X873973Y157383D01*
X874231Y157699D01*
X874470Y158038D01*
X874689Y158400D01*
X874889Y158787D01*
X873523Y159470D01*
X873355Y159159D01*
X873177Y158869D01*
X872988Y158598D01*
X872790Y158347D01*
X872582Y158117D01*
X872363Y157906D01*
X872135Y157716D01*
X871896Y157545D01*
X871647Y157395D01*
X871389Y157265D01*
X871120Y157155D01*
X870841Y157064D01*
X870552Y156994D01*
X870253Y156944D01*
X869944Y156914D01*
X869625Y156904D01*
X869133Y156925D01*
X868666Y156990D01*
X868226Y157098D01*
X867811Y157249D01*
X867423Y157443D01*
X867061Y157680D01*
X866725Y157960D01*
X866415Y158283D01*
X866137Y158642D01*
X865896Y159029D01*
X865692Y159443D01*
X865525Y159885D01*
X865395Y160355D01*
X865303Y160853D01*
X865247Y161378D01*
X865229Y161931D01*
X865246Y162490D01*
X865300Y163018D01*
X865389Y163515D01*
X865513Y163982D01*
X865673Y164418D01*
X865869Y164824D01*
X866100Y165199D01*
X866367Y165544D01*
X866666Y165853D01*
X866993Y166121D01*
X867349Y166347D01*
X867733Y166533D01*
X868146Y166677D01*
X868587Y166780D01*
X869057Y166842D01*
X869555Y166862D01*
X869876Y166853D01*
X870186Y166827D01*
X870484Y166782D01*
X870772Y166720D01*
X871048Y166640D01*
X871313Y166542D01*
X871567Y166427D01*
X871811Y166293D01*
X872040Y166143D01*
X872253Y165977D01*
X872450Y165795D01*
X872631Y165597D01*
X872795Y165383D01*
X872943Y165153D01*
X873075Y164908D01*
X873190Y164646D01*
X874775Y165172D01*
X874609Y165539D01*
X874421Y165883D01*
X874210Y166204D01*
X873978Y166501D01*
X873724Y166775D01*
X873448Y167026D01*
X873151Y167254D01*
X872831Y167458D01*
X872490Y167639D01*
X872129Y167795D01*
X871748Y167928D01*
X871346Y168036D01*
X870925Y168120D01*
X870483Y168181D01*
X870020Y168217D01*
X869538Y168229D01*
X869190Y168222D01*
X868852Y168203D01*
X868523Y168170D01*
X868204Y168124D01*
X867895Y168065D01*
X867595Y167993D01*
X867305Y167909D01*
X867024Y167810D01*
X866753Y167699D01*
X866491Y167575D01*
X866239Y167438D01*
X865997Y167288D01*
X865541Y166948D01*
X865123Y166556D01*
X864750Y166118D01*
X864426Y165639D01*
X864152Y165121D01*
X864034Y164847D01*
X863928Y164563D01*
X863835Y164269D01*
X863754Y163965D01*
X863685Y163651D01*
X863629Y163327D01*
X863585Y162993D01*
X863554Y162649D01*
X863536Y162295D01*
X863529Y161931D01*
X863541Y161447D01*
X863574Y160979D01*
X863630Y160528D01*
X863708Y160093D01*
X863808Y159675D01*
X863931Y159273D01*
X864076Y158888D01*
X864243Y158520D01*
X864432Y158170D01*
X864641Y157841D01*
X864870Y157533D01*
X865119Y157246D01*
X865389Y156979D01*
X865679Y156733D01*
X865989Y156508D01*
X866319Y156304D01*
X866667Y156122D01*
X867031Y155965D01*
X867411Y155832D01*
X867807Y155723D01*
X868218Y155638D01*
X868645Y155577D01*
X869088Y155541D01*
X869547Y155529D01*
X869995Y155542D01*
G37*
G36*
X881077Y155544D02*
X881538Y155587D01*
X881969Y155661D01*
X882371Y155763D01*
X882744Y155895D01*
X883088Y156056D01*
X883403Y156246D01*
X883689Y156466D01*
X883943Y156712D01*
X884164Y156983D01*
X884351Y157277D01*
X884503Y157596D01*
X884622Y157939D01*
X884707Y158305D01*
X884758Y158696D01*
X884775Y159111D01*
X884763Y159400D01*
X884727Y159677D01*
X884667Y159941D01*
X884582Y160193D01*
X884474Y160432D01*
X884341Y160658D01*
X884185Y160872D01*
X884004Y161073D01*
X883802Y161258D01*
X883581Y161423D01*
X883340Y161569D01*
X883080Y161695D01*
X882801Y161801D01*
X882503Y161888D01*
X882186Y161954D01*
X881850Y162001D01*
X881850Y162036D01*
X882156Y162110D01*
X882443Y162198D01*
X882711Y162301D01*
X882961Y162419D01*
X883192Y162551D01*
X883404Y162699D01*
X883597Y162862D01*
X883772Y163039D01*
X883927Y163231D01*
X884061Y163437D01*
X884175Y163657D01*
X884268Y163890D01*
X884340Y164137D01*
X884392Y164398D01*
X884423Y164673D01*
X884433Y164962D01*
X884417Y165337D01*
X884369Y165690D01*
X884289Y166022D01*
X884176Y166334D01*
X884031Y166624D01*
X883854Y166892D01*
X883645Y167140D01*
X883404Y167366D01*
X883134Y167568D01*
X882838Y167743D01*
X882516Y167892D01*
X882168Y168013D01*
X881795Y168107D01*
X881395Y168175D01*
X880970Y168215D01*
X880518Y168229D01*
X880103Y168215D01*
X879707Y168176D01*
X879331Y168109D01*
X878974Y168016D01*
X878636Y167897D01*
X878317Y167751D01*
X878018Y167578D01*
X877737Y167379D01*
X877481Y167156D01*
X877253Y166913D01*
X877054Y166648D01*
X876882Y166363D01*
X876739Y166057D01*
X876625Y165730D01*
X876539Y165383D01*
X876481Y165014D01*
X878066Y164892D01*
X878101Y165128D01*
X878152Y165350D01*
X878220Y165559D01*
X878306Y165754D01*
X878408Y165936D01*
X878527Y166104D01*
X878662Y166258D01*
X878815Y166398D01*
X878982Y166523D01*
X879162Y166632D01*
X879354Y166724D01*
X879558Y166799D01*
X879775Y166857D01*
X880005Y166899D01*
X880246Y166924D01*
X880501Y166932D01*
X880779Y166923D01*
X881039Y166897D01*
X881282Y166852D01*
X881507Y166789D01*
X881714Y166708D01*
X881904Y166610D01*
X882076Y166493D01*
X882231Y166359D01*
X882367Y166209D01*
X882485Y166046D01*
X882586Y165870D01*
X882667Y165681D01*
X882731Y165479D01*
X882777Y165264D01*
X882804Y165036D01*
X882813Y164795D01*
X882802Y164553D01*
X882768Y164323D01*
X882713Y164107D01*
X882635Y163905D01*
X882534Y163717D01*
X882412Y163542D01*
X882267Y163380D01*
X882099Y163232D01*
X881912Y163100D01*
X881706Y162985D01*
X881482Y162888D01*
X881240Y162808D01*
X880979Y162746D01*
X880701Y162702D01*
X880404Y162676D01*
X880089Y162667D01*
X879231Y162667D01*
X879231Y161301D01*
X880124Y161301D01*
X880479Y161292D01*
X880813Y161265D01*
X881124Y161221D01*
X881415Y161159D01*
X881684Y161080D01*
X881931Y160983D01*
X882157Y160868D01*
X882362Y160736D01*
X882544Y160588D01*
X882701Y160426D01*
X882834Y160250D01*
X882943Y160060D01*
X883028Y159857D01*
X883089Y159640D01*
X883125Y159409D01*
X883137Y159164D01*
X883127Y158883D01*
X883095Y158621D01*
X883042Y158377D01*
X882967Y158150D01*
X882872Y157941D01*
X882755Y157750D01*
X882617Y157576D01*
X882458Y157421D01*
X882281Y157283D01*
X882087Y157164D01*
X881877Y157063D01*
X881651Y156981D01*
X881410Y156916D01*
X881152Y156871D01*
X880878Y156843D01*
X880588Y156834D01*
X880300Y156842D01*
X880027Y156868D01*
X879771Y156911D01*
X879530Y156971D01*
X879306Y157048D01*
X879098Y157142D01*
X878905Y157253D01*
X878729Y157381D01*
X878569Y157527D01*
X878425Y157689D01*
X878298Y157869D01*
X878186Y158066D01*
X878090Y158279D01*
X878010Y158510D01*
X877947Y158758D01*
X877900Y159023D01*
X876270Y158875D01*
X876337Y158473D01*
X876432Y158098D01*
X876556Y157747D01*
X876707Y157422D01*
X876887Y157122D01*
X877096Y156847D01*
X877332Y156598D01*
X877597Y156374D01*
X877888Y156176D01*
X878203Y156004D01*
X878541Y155859D01*
X878903Y155740D01*
X879289Y155648D01*
X879699Y155582D01*
X880132Y155542D01*
X880588Y155529D01*
X881077Y155544D01*
G37*
G36*
X860978Y168045D02*
X859305Y168045D01*
X859305Y155704D01*
X860978Y155704D01*
X860978Y168045D01*
G37*
G36*
X593656Y62284D02*
X597501Y62284D01*
X600706Y57160D01*
X602633Y57160D01*
X600621Y60213D01*
X599130Y62476D01*
X599473Y62549D01*
X599797Y62642D01*
X600102Y62758D01*
X600388Y62895D01*
X600544Y62987D01*
X600655Y63053D01*
X600902Y63234D01*
X601131Y63435D01*
X601341Y63659D01*
X601529Y63900D01*
X601692Y64155D01*
X601830Y64423D01*
X601942Y64705D01*
X602030Y65001D01*
X602093Y65311D01*
X602130Y65634D01*
X602143Y65971D01*
X602125Y66376D01*
X602072Y66757D01*
X601983Y67116D01*
X601859Y67452D01*
X601700Y67766D01*
X601505Y68056D01*
X601274Y68323D01*
X601008Y68568D01*
X600710Y68787D01*
X600382Y68976D01*
X600024Y69136D01*
X599637Y69268D01*
X599219Y69370D01*
X598772Y69442D01*
X598296Y69486D01*
X597790Y69501D01*
X591983Y69501D01*
X591983Y57160D01*
X593656Y57160D01*
X593656Y62284D01*
G37*
G36*
X612580Y58500D02*
X609576Y58500D01*
X609576Y69501D01*
X608122Y69501D01*
X605205Y67495D01*
X605205Y66006D01*
X607991Y67994D01*
X607991Y58500D01*
X604846Y58500D01*
X604846Y57160D01*
X612580Y57160D01*
X612580Y58500D01*
G37*
%LPC*%
G36*
X593656Y63606D02*
X593656Y68161D01*
X597623Y68161D01*
X597957Y68152D01*
X598270Y68125D01*
X598564Y68081D01*
X598837Y68020D01*
X599091Y67940D01*
X599324Y67843D01*
X599537Y67728D01*
X599730Y67596D01*
X599901Y67447D01*
X600050Y67281D01*
X600175Y67100D01*
X600278Y66903D01*
X600358Y66690D01*
X600415Y66460D01*
X600450Y66215D01*
X600461Y65954D01*
X600450Y65683D01*
X600416Y65428D01*
X600359Y65189D01*
X600280Y64965D01*
X600179Y64756D01*
X600055Y64563D01*
X599908Y64386D01*
X599738Y64224D01*
X599548Y64079D01*
X599340Y63954D01*
X599112Y63847D01*
X598866Y63761D01*
X598601Y63693D01*
X598317Y63645D01*
X598015Y63616D01*
X597693Y63606D01*
X593656Y63606D01*
G37*
%LPD*%
G36*
X609610Y123756D02*
X604486Y123756D01*
X604486Y127601D01*
X609610Y130806D01*
X609610Y132733D01*
X606557Y130721D01*
X604294Y129230D01*
X604221Y129573D01*
X604128Y129897D01*
X604012Y130202D01*
X603875Y130488D01*
X603783Y130644D01*
X603717Y130755D01*
X603537Y131002D01*
X603335Y131231D01*
X603111Y131441D01*
X602870Y131629D01*
X602615Y131792D01*
X602347Y131930D01*
X602065Y132042D01*
X601769Y132130D01*
X601459Y132193D01*
X601136Y132230D01*
X600799Y132243D01*
X600394Y132225D01*
X600013Y132172D01*
X599654Y132083D01*
X599318Y131959D01*
X599004Y131800D01*
X598714Y131605D01*
X598447Y131374D01*
X598202Y131108D01*
X597983Y130810D01*
X597794Y130482D01*
X597634Y130124D01*
X597502Y129737D01*
X597400Y129319D01*
X597328Y128872D01*
X597284Y128396D01*
X597269Y127890D01*
X597269Y122083D01*
X609610Y122083D01*
X609610Y123756D01*
G37*
G36*
X609610Y142654D02*
X608270Y142654D01*
X608270Y136216D01*
X607960Y136369D01*
X607645Y136562D01*
X607323Y136798D01*
X606996Y137075D01*
X606655Y137398D01*
X606294Y137773D01*
X605913Y138200D01*
X605511Y138677D01*
X604815Y139519D01*
X604217Y140212D01*
X603716Y140758D01*
X603313Y141156D01*
X602958Y141460D01*
X602603Y141724D01*
X602248Y141949D01*
X601894Y142133D01*
X601538Y142276D01*
X601182Y142379D01*
X600825Y142441D01*
X600466Y142461D01*
X600073Y142445D01*
X599702Y142398D01*
X599355Y142320D01*
X599031Y142210D01*
X598730Y142069D01*
X598452Y141897D01*
X598197Y141693D01*
X597966Y141458D01*
X597759Y141194D01*
X597580Y140903D01*
X597429Y140585D01*
X597305Y140240D01*
X597209Y139868D01*
X597140Y139469D01*
X597099Y139043D01*
X597085Y138590D01*
X597099Y138175D01*
X597140Y137779D01*
X597208Y137402D01*
X597304Y137045D01*
X597427Y136707D01*
X597578Y136388D01*
X597756Y136089D01*
X597961Y135809D01*
X598190Y135553D01*
X598437Y135325D01*
X598703Y135125D01*
X598988Y134954D01*
X599292Y134811D01*
X599615Y134696D01*
X599957Y134610D01*
X600317Y134552D01*
X600466Y136164D01*
X600226Y136201D01*
X599999Y136254D01*
X599786Y136325D01*
X599587Y136412D01*
X599402Y136517D01*
X599230Y136638D01*
X599073Y136775D01*
X598929Y136930D01*
X598801Y137099D01*
X598689Y137279D01*
X598595Y137469D01*
X598518Y137671D01*
X598459Y137884D01*
X598416Y138108D01*
X598390Y138344D01*
X598382Y138590D01*
X598390Y138848D01*
X598417Y139091D01*
X598460Y139319D01*
X598522Y139534D01*
X598601Y139733D01*
X598697Y139918D01*
X598811Y140089D01*
X598942Y140245D01*
X599089Y140385D01*
X599251Y140506D01*
X599427Y140608D01*
X599617Y140692D01*
X599821Y140757D01*
X600039Y140804D01*
X600272Y140832D01*
X600519Y140841D01*
X600885Y140819D01*
X601232Y140754D01*
X601560Y140646D01*
X601867Y140495D01*
X602162Y140308D01*
X602450Y140095D01*
X602731Y139855D01*
X603006Y139588D01*
X603549Y138994D01*
X604092Y138332D01*
X604658Y137632D01*
X605270Y136926D01*
X605597Y136575D01*
X605942Y136233D01*
X606306Y135899D01*
X606689Y135573D01*
X607096Y135263D01*
X607533Y134978D01*
X608000Y134718D01*
X608498Y134482D01*
X609610Y134482D01*
X609610Y142654D01*
G37*
%LPC*%
G36*
X598609Y123756D02*
X598609Y127723D01*
X598618Y128057D01*
X598645Y128370D01*
X598689Y128664D01*
X598751Y128937D01*
X598830Y129191D01*
X598927Y129424D01*
X599042Y129637D01*
X599174Y129830D01*
X599323Y130001D01*
X599489Y130150D01*
X599670Y130275D01*
X599867Y130378D01*
X600081Y130458D01*
X600310Y130515D01*
X600555Y130550D01*
X600816Y130561D01*
X601087Y130550D01*
X601342Y130516D01*
X601581Y130459D01*
X601805Y130380D01*
X602014Y130279D01*
X602207Y130155D01*
X602384Y130008D01*
X602546Y129838D01*
X602691Y129648D01*
X602816Y129440D01*
X602923Y129212D01*
X603009Y128966D01*
X603077Y128701D01*
X603125Y128417D01*
X603154Y128115D01*
X603164Y127793D01*
X603164Y123756D01*
X598609Y123756D01*
G37*
%LPD*%
G36*
X757486Y24164D02*
X761331Y24164D01*
X764536Y19040D01*
X766463Y19040D01*
X764451Y22093D01*
X762960Y24356D01*
X763303Y24429D01*
X763627Y24522D01*
X763932Y24638D01*
X764218Y24775D01*
X764374Y24867D01*
X764485Y24933D01*
X764732Y25114D01*
X764961Y25315D01*
X765171Y25539D01*
X765359Y25780D01*
X765522Y26035D01*
X765660Y26303D01*
X765772Y26585D01*
X765860Y26881D01*
X765923Y27191D01*
X765960Y27514D01*
X765973Y27851D01*
X765955Y28256D01*
X765902Y28637D01*
X765813Y28996D01*
X765689Y29332D01*
X765530Y29646D01*
X765335Y29936D01*
X765104Y30203D01*
X764838Y30448D01*
X764540Y30667D01*
X764212Y30856D01*
X763854Y31016D01*
X763467Y31148D01*
X763049Y31250D01*
X762602Y31322D01*
X762126Y31366D01*
X761620Y31381D01*
X755813Y31381D01*
X755813Y19040D01*
X757486Y19040D01*
X757486Y24164D01*
G37*
G36*
X772800Y18880D02*
X773260Y18923D01*
X773691Y18997D01*
X774093Y19099D01*
X774467Y19231D01*
X774811Y19392D01*
X775126Y19582D01*
X775412Y19802D01*
X775666Y20048D01*
X775887Y20319D01*
X776073Y20613D01*
X776226Y20932D01*
X776345Y21275D01*
X776430Y21641D01*
X776481Y22032D01*
X776498Y22447D01*
X776486Y22736D01*
X776450Y23013D01*
X776389Y23277D01*
X776305Y23529D01*
X776197Y23768D01*
X776064Y23994D01*
X775908Y24208D01*
X775727Y24409D01*
X775525Y24594D01*
X775303Y24759D01*
X775063Y24905D01*
X774803Y25031D01*
X774524Y25137D01*
X774226Y25224D01*
X773909Y25290D01*
X773572Y25337D01*
X773572Y25372D01*
X773878Y25446D01*
X774165Y25534D01*
X774434Y25637D01*
X774684Y25755D01*
X774915Y25887D01*
X775127Y26035D01*
X775320Y26198D01*
X775495Y26375D01*
X775650Y26567D01*
X775784Y26773D01*
X775898Y26993D01*
X775991Y27226D01*
X776063Y27473D01*
X776115Y27734D01*
X776146Y28009D01*
X776156Y28298D01*
X776140Y28673D01*
X776092Y29026D01*
X776011Y29358D01*
X775899Y29670D01*
X775754Y29960D01*
X775577Y30228D01*
X775368Y30476D01*
X775127Y30702D01*
X774857Y30904D01*
X774561Y31079D01*
X774239Y31228D01*
X773891Y31349D01*
X773517Y31443D01*
X773118Y31511D01*
X772692Y31551D01*
X772241Y31565D01*
X771826Y31551D01*
X771430Y31512D01*
X771054Y31445D01*
X770696Y31352D01*
X770358Y31233D01*
X770040Y31087D01*
X769740Y30914D01*
X769460Y30715D01*
X769204Y30492D01*
X768976Y30249D01*
X768776Y29984D01*
X768605Y29699D01*
X768462Y29393D01*
X768348Y29066D01*
X768261Y28719D01*
X768203Y28350D01*
X769789Y28228D01*
X769823Y28464D01*
X769875Y28686D01*
X769943Y28895D01*
X770028Y29090D01*
X770130Y29272D01*
X770249Y29440D01*
X770385Y29594D01*
X770538Y29734D01*
X770705Y29859D01*
X770884Y29968D01*
X771076Y30060D01*
X771281Y30135D01*
X771498Y30193D01*
X771727Y30235D01*
X771969Y30260D01*
X772224Y30268D01*
X772502Y30259D01*
X772762Y30233D01*
X773005Y30188D01*
X773230Y30125D01*
X773437Y30044D01*
X773627Y29946D01*
X773799Y29829D01*
X773953Y29695D01*
X774090Y29545D01*
X774208Y29382D01*
X774308Y29206D01*
X774390Y29017D01*
X774454Y28815D01*
X774499Y28600D01*
X774527Y28372D01*
X774536Y28131D01*
X774525Y27889D01*
X774491Y27659D01*
X774435Y27443D01*
X774357Y27241D01*
X774257Y27053D01*
X774134Y26878D01*
X773989Y26716D01*
X773822Y26568D01*
X773634Y26436D01*
X773429Y26321D01*
X773205Y26224D01*
X772963Y26144D01*
X772702Y26082D01*
X772424Y26038D01*
X772127Y26012D01*
X771812Y26003D01*
X770954Y26003D01*
X770954Y24637D01*
X771847Y24637D01*
X772202Y24628D01*
X772535Y24601D01*
X772847Y24557D01*
X773138Y24495D01*
X773407Y24416D01*
X773654Y24319D01*
X773880Y24204D01*
X774085Y24072D01*
X774266Y23924D01*
X774424Y23762D01*
X774557Y23586D01*
X774666Y23396D01*
X774751Y23193D01*
X774811Y22976D01*
X774848Y22745D01*
X774860Y22500D01*
X774849Y22219D01*
X774817Y21957D01*
X774764Y21713D01*
X774690Y21486D01*
X774595Y21277D01*
X774478Y21086D01*
X774340Y20912D01*
X774181Y20757D01*
X774003Y20619D01*
X773810Y20500D01*
X773600Y20399D01*
X773374Y20317D01*
X773132Y20252D01*
X772875Y20207D01*
X772601Y20179D01*
X772311Y20170D01*
X772022Y20178D01*
X771750Y20204D01*
X771493Y20247D01*
X771253Y20307D01*
X771029Y20384D01*
X770820Y20478D01*
X770628Y20589D01*
X770452Y20717D01*
X770292Y20863D01*
X770148Y21025D01*
X770020Y21205D01*
X769909Y21402D01*
X769813Y21615D01*
X769733Y21846D01*
X769670Y22094D01*
X769622Y22359D01*
X767993Y22211D01*
X768060Y21809D01*
X768155Y21434D01*
X768278Y21083D01*
X768430Y20758D01*
X768610Y20458D01*
X768818Y20183D01*
X769055Y19934D01*
X769320Y19710D01*
X769611Y19512D01*
X769926Y19340D01*
X770264Y19195D01*
X770626Y19076D01*
X771012Y18984D01*
X771421Y18918D01*
X771854Y18878D01*
X772311Y18865D01*
X772800Y18880D01*
G37*
%LPC*%
G36*
X757486Y25486D02*
X757486Y30041D01*
X761453Y30041D01*
X761787Y30032D01*
X762100Y30005D01*
X762394Y29961D01*
X762667Y29900D01*
X762921Y29820D01*
X763154Y29723D01*
X763367Y29608D01*
X763560Y29476D01*
X763731Y29327D01*
X763880Y29161D01*
X764005Y28980D01*
X764108Y28783D01*
X764188Y28570D01*
X764245Y28340D01*
X764280Y28095D01*
X764291Y27834D01*
X764280Y27563D01*
X764246Y27308D01*
X764189Y27069D01*
X764110Y26845D01*
X764009Y26636D01*
X763885Y26443D01*
X763738Y26266D01*
X763568Y26104D01*
X763378Y25959D01*
X763170Y25834D01*
X762942Y25727D01*
X762696Y25641D01*
X762431Y25573D01*
X762147Y25525D01*
X761845Y25496D01*
X761523Y25486D01*
X757486Y25486D01*
G37*
%LPD*%
G36*
X847656Y25434D02*
X851501Y25434D01*
X854706Y20310D01*
X856633Y20310D01*
X854621Y23363D01*
X853130Y25626D01*
X853473Y25699D01*
X853797Y25792D01*
X854102Y25908D01*
X854388Y26045D01*
X854544Y26137D01*
X854655Y26203D01*
X854902Y26384D01*
X855131Y26585D01*
X855341Y26809D01*
X855529Y27050D01*
X855692Y27305D01*
X855830Y27573D01*
X855942Y27855D01*
X856030Y28151D01*
X856093Y28461D01*
X856130Y28784D01*
X856143Y29121D01*
X856125Y29526D01*
X856072Y29907D01*
X855983Y30266D01*
X855859Y30602D01*
X855700Y30916D01*
X855505Y31206D01*
X855274Y31473D01*
X855008Y31718D01*
X854710Y31937D01*
X854382Y32126D01*
X854024Y32286D01*
X853637Y32418D01*
X853219Y32520D01*
X852772Y32592D01*
X852296Y32636D01*
X851790Y32651D01*
X845983Y32651D01*
X845983Y20310D01*
X847656Y20310D01*
X847656Y25434D01*
G37*
G36*
X865196Y23104D02*
X866930Y23104D01*
X866930Y24348D01*
X865196Y24348D01*
X865196Y32651D01*
X863541Y32651D01*
X857892Y24330D01*
X857892Y23104D01*
X863707Y23104D01*
X863707Y20310D01*
X865196Y20310D01*
X865196Y23104D01*
G37*
%LPC*%
G36*
X847656Y26756D02*
X847656Y31311D01*
X851623Y31311D01*
X851957Y31302D01*
X852270Y31275D01*
X852564Y31231D01*
X852837Y31170D01*
X853091Y31090D01*
X853324Y30993D01*
X853537Y30878D01*
X853730Y30746D01*
X853901Y30597D01*
X854050Y30431D01*
X854175Y30250D01*
X854278Y30053D01*
X854358Y29840D01*
X854415Y29610D01*
X854450Y29365D01*
X854461Y29104D01*
X854450Y28833D01*
X854416Y28578D01*
X854359Y28339D01*
X854280Y28115D01*
X854179Y27906D01*
X854055Y27713D01*
X853908Y27536D01*
X853738Y27374D01*
X853548Y27229D01*
X853340Y27104D01*
X853112Y26997D01*
X852866Y26911D01*
X852601Y26843D01*
X852317Y26795D01*
X852015Y26766D01*
X851693Y26756D01*
X847656Y26756D01*
G37*
G36*
X859346Y24348D02*
X859486Y24523D01*
X859959Y25171D01*
X863121Y29831D01*
X863462Y30409D01*
X863707Y30873D01*
X863707Y24348D01*
X859346Y24348D01*
G37*
%LPD*%
G36*
X1009358Y97104D02*
X1009834Y97262D01*
X1010280Y97455D01*
X1010694Y97682D01*
X1011078Y97943D01*
X1011431Y98238D01*
X1011752Y98567D01*
X1012043Y98930D01*
X1012303Y99327D01*
X1012532Y99759D01*
X1012730Y100224D01*
X1012897Y100724D01*
X1013033Y101258D01*
X1013138Y101826D01*
X1013212Y102428D01*
X1013255Y103064D01*
X1015242Y103064D01*
X1015242Y104585D01*
X1013255Y104585D01*
X1013204Y105247D01*
X1013119Y105870D01*
X1013000Y106454D01*
X1012847Y106999D01*
X1012659Y107506D01*
X1012438Y107974D01*
X1012183Y108403D01*
X1011893Y108793D01*
X1011574Y109141D01*
X1011230Y109443D01*
X1010861Y109698D01*
X1010467Y109907D01*
X1010048Y110069D01*
X1009604Y110185D01*
X1009135Y110255D01*
X1008642Y110278D01*
X1008161Y110260D01*
X1007713Y110207D01*
X1007296Y110119D01*
X1006912Y109996D01*
X1006556Y109839D01*
X1006225Y109649D01*
X1005918Y109428D01*
X1005636Y109174D01*
X1005373Y108880D01*
X1005124Y108537D01*
X1004889Y108147D01*
X1004667Y107708D01*
X1004447Y107165D01*
X1004216Y106464D01*
X1003975Y105604D01*
X1003722Y104585D01*
X998263Y104585D01*
X998305Y104934D01*
X998362Y105260D01*
X998436Y105565D01*
X998525Y105849D01*
X998631Y106111D01*
X998752Y106352D01*
X998889Y106571D01*
X999042Y106769D01*
X999211Y106948D01*
X999396Y107112D01*
X999597Y107260D01*
X999813Y107392D01*
X1000046Y107508D01*
X1000295Y107609D01*
X1000559Y107694D01*
X1000839Y107763D01*
X1000435Y109898D01*
X999960Y109757D01*
X999518Y109594D01*
X999108Y109408D01*
X998731Y109198D01*
X998386Y108966D01*
X998073Y108711D01*
X997793Y108432D01*
X997545Y108131D01*
X997327Y107802D01*
X997133Y107440D01*
X996965Y107046D01*
X996823Y106619D01*
X996706Y106159D01*
X996615Y105667D01*
X996549Y105143D01*
X996509Y104585D01*
X994902Y104585D01*
X994902Y103064D01*
X996509Y103064D01*
X996551Y102447D01*
X996624Y101867D01*
X996727Y101323D01*
X996860Y100815D01*
X997023Y100343D01*
X997216Y99907D01*
X997439Y99508D01*
X997693Y99145D01*
X997974Y98821D01*
X998281Y98541D01*
X998614Y98304D01*
X998973Y98109D01*
X999358Y97959D01*
X999769Y97851D01*
X1000205Y97786D01*
X1000668Y97764D01*
X1001099Y97779D01*
X1001499Y97821D01*
X1001866Y97892D01*
X1002201Y97991D01*
X1002515Y98123D01*
X1002819Y98289D01*
X1003113Y98491D01*
X1003397Y98727D01*
X1003668Y99002D01*
X1003923Y99316D01*
X1004162Y99671D01*
X1004385Y100065D01*
X1004606Y100563D01*
X1004728Y100908D01*
X1004842Y101229D01*
X1005091Y102062D01*
X1005354Y103064D01*
X1011439Y103064D01*
X1011402Y102641D01*
X1011395Y102594D01*
X1011345Y102241D01*
X1011268Y101866D01*
X1011172Y101514D01*
X1011057Y101186D01*
X1010921Y100882D01*
X1010767Y100603D01*
X1010592Y100347D01*
X1010397Y100113D01*
X1010179Y99901D01*
X1009939Y99709D01*
X1009675Y99539D01*
X1009390Y99389D01*
X1009081Y99260D01*
X1008750Y99152D01*
X1008397Y99065D01*
X1008850Y96979D01*
X1009358Y97104D01*
G37*
G36*
X1007719Y80505D02*
X1008202Y80546D01*
X1008667Y80614D01*
X1009114Y80709D01*
X1009544Y80832D01*
X1009956Y80981D01*
X1010351Y81158D01*
X1010727Y81363D01*
X1011085Y81591D01*
X1011420Y81843D01*
X1011733Y82116D01*
X1012025Y82411D01*
X1012295Y82729D01*
X1012542Y83069D01*
X1012768Y83432D01*
X1012973Y83816D01*
X1013154Y84220D01*
X1013311Y84641D01*
X1013443Y85079D01*
X1013552Y85534D01*
X1013637Y86005D01*
X1013697Y86494D01*
X1013733Y86999D01*
X1013745Y87521D01*
X1013733Y88064D01*
X1013695Y88589D01*
X1013632Y89095D01*
X1013544Y89584D01*
X1013432Y90054D01*
X1013293Y90506D01*
X1013130Y90939D01*
X1012942Y91355D01*
X1012730Y91750D01*
X1012495Y92122D01*
X1012238Y92470D01*
X1011959Y92796D01*
X1011657Y93099D01*
X1011333Y93379D01*
X1010986Y93636D01*
X1010617Y93870D01*
X1010228Y94078D01*
X1009820Y94259D01*
X1009395Y94412D01*
X1008952Y94537D01*
X1008490Y94634D01*
X1008011Y94704D01*
X1007513Y94745D01*
X1006998Y94759D01*
X996214Y94759D01*
X996214Y92428D01*
X1006863Y92428D01*
X1007455Y92408D01*
X1008010Y92347D01*
X1008529Y92246D01*
X1009011Y92105D01*
X1009457Y91923D01*
X1009866Y91700D01*
X1010238Y91437D01*
X1010574Y91134D01*
X1010872Y90794D01*
X1011130Y90422D01*
X1011348Y90018D01*
X1011526Y89581D01*
X1011665Y89111D01*
X1011764Y88609D01*
X1011824Y88075D01*
X1011844Y87509D01*
X1011825Y86958D01*
X1011767Y86441D01*
X1011671Y85957D01*
X1011537Y85506D01*
X1011365Y85089D01*
X1011154Y84705D01*
X1010905Y84354D01*
X1010617Y84037D01*
X1010293Y83755D01*
X1009932Y83511D01*
X1009536Y83304D01*
X1009105Y83135D01*
X1008638Y83004D01*
X1008135Y82910D01*
X1007597Y82853D01*
X1007022Y82835D01*
X996214Y82835D01*
X996214Y80491D01*
X1007219Y80491D01*
X1007719Y80505D01*
G37*
G36*
X1013500Y123425D02*
X1011623Y123425D01*
X1011623Y119217D01*
X996214Y119217D01*
X996214Y117180D01*
X999024Y113095D01*
X1001109Y113095D01*
X998324Y116996D01*
X1011623Y116996D01*
X1011623Y112592D01*
X1013500Y112592D01*
X1013500Y123425D01*
G37*
%LPC*%
G36*
X1005710Y104585D02*
X1005929Y105385D01*
X1006135Y106042D01*
X1006325Y106557D01*
X1006501Y106929D01*
X1006681Y107212D01*
X1006883Y107459D01*
X1007107Y107672D01*
X1007354Y107849D01*
X1007629Y107988D01*
X1007940Y108088D01*
X1008285Y108148D01*
X1008666Y108168D01*
X1008971Y108153D01*
X1009258Y108110D01*
X1009529Y108037D01*
X1009783Y107936D01*
X1010020Y107806D01*
X1010240Y107647D01*
X1010443Y107459D01*
X1010629Y107242D01*
X1010798Y106997D01*
X1010948Y106728D01*
X1011078Y106434D01*
X1011191Y106114D01*
X1011284Y105770D01*
X1011358Y105400D01*
X1011397Y105131D01*
X1011414Y105005D01*
X1011451Y104585D01*
X1005710Y104585D01*
G37*
G36*
X1000372Y99887D02*
X1000117Y99924D01*
X999878Y99987D01*
X999656Y100074D01*
X999449Y100186D01*
X999258Y100323D01*
X999084Y100485D01*
X998926Y100672D01*
X998783Y100884D01*
X998657Y101121D01*
X998547Y101382D01*
X998453Y101669D01*
X998375Y101980D01*
X998314Y102317D01*
X998268Y102678D01*
X998239Y103064D01*
X1003403Y103064D01*
X1003232Y102431D01*
X1003060Y101891D01*
X1002888Y101446D01*
X1002716Y101095D01*
X1002535Y100810D01*
X1002333Y100563D01*
X1002111Y100353D01*
X1001878Y100187D01*
X1001870Y100181D01*
X1001605Y100047D01*
X1001312Y99951D01*
X1000991Y99894D01*
X1000643Y99875D01*
X1000372Y99887D01*
G37*
%LPD*%
G36*
X688019Y5299D02*
X688454Y5338D01*
X688875Y5403D01*
X689282Y5494D01*
X689675Y5611D01*
X690054Y5754D01*
X690420Y5923D01*
X690772Y6118D01*
X691107Y6338D01*
X691423Y6582D01*
X691720Y6849D01*
X691997Y7140D01*
X692255Y7456D01*
X692494Y7795D01*
X692713Y8157D01*
X692913Y8544D01*
X691547Y9227D01*
X691379Y8916D01*
X691201Y8626D01*
X691012Y8355D01*
X690814Y8104D01*
X690606Y7874D01*
X690387Y7663D01*
X690159Y7473D01*
X689920Y7302D01*
X689671Y7152D01*
X689413Y7022D01*
X689144Y6912D01*
X688865Y6821D01*
X688576Y6751D01*
X688277Y6701D01*
X687968Y6671D01*
X687649Y6661D01*
X687157Y6682D01*
X686690Y6747D01*
X686250Y6855D01*
X685835Y7006D01*
X685447Y7200D01*
X685085Y7437D01*
X684749Y7717D01*
X684439Y8040D01*
X684161Y8399D01*
X683920Y8786D01*
X683716Y9200D01*
X683549Y9642D01*
X683419Y10112D01*
X683327Y10610D01*
X683271Y11135D01*
X683253Y11688D01*
X683270Y12247D01*
X683324Y12775D01*
X683413Y13272D01*
X683537Y13739D01*
X683697Y14175D01*
X683893Y14581D01*
X684124Y14956D01*
X684391Y15301D01*
X684690Y15610D01*
X685017Y15878D01*
X685373Y16104D01*
X685757Y16290D01*
X686170Y16434D01*
X686611Y16537D01*
X687081Y16599D01*
X687579Y16619D01*
X687900Y16610D01*
X688210Y16584D01*
X688508Y16539D01*
X688796Y16477D01*
X689072Y16397D01*
X689337Y16299D01*
X689591Y16184D01*
X689835Y16050D01*
X690064Y15900D01*
X690277Y15734D01*
X690474Y15552D01*
X690655Y15354D01*
X690819Y15140D01*
X690967Y14910D01*
X691099Y14665D01*
X691214Y14403D01*
X692799Y14929D01*
X692633Y15296D01*
X692445Y15640D01*
X692234Y15961D01*
X692002Y16258D01*
X691748Y16532D01*
X691472Y16783D01*
X691175Y17011D01*
X690855Y17215D01*
X690514Y17396D01*
X690153Y17552D01*
X689772Y17685D01*
X689370Y17793D01*
X688949Y17877D01*
X688507Y17938D01*
X688044Y17974D01*
X687562Y17986D01*
X687214Y17979D01*
X686876Y17960D01*
X686547Y17927D01*
X686228Y17881D01*
X685919Y17822D01*
X685619Y17750D01*
X685329Y17666D01*
X685048Y17567D01*
X684777Y17456D01*
X684515Y17332D01*
X684263Y17195D01*
X684021Y17045D01*
X683565Y16705D01*
X683147Y16313D01*
X682774Y15875D01*
X682450Y15396D01*
X682176Y14878D01*
X682058Y14604D01*
X681952Y14320D01*
X681859Y14026D01*
X681778Y13722D01*
X681709Y13408D01*
X681653Y13084D01*
X681609Y12750D01*
X681578Y12406D01*
X681560Y12052D01*
X681553Y11688D01*
X681565Y11204D01*
X681598Y10736D01*
X681654Y10285D01*
X681732Y9850D01*
X681832Y9432D01*
X681955Y9030D01*
X682100Y8645D01*
X682267Y8277D01*
X682456Y7927D01*
X682665Y7598D01*
X682894Y7290D01*
X683143Y7003D01*
X683413Y6736D01*
X683703Y6490D01*
X684013Y6265D01*
X684343Y6061D01*
X684691Y5879D01*
X685055Y5722D01*
X685435Y5589D01*
X685831Y5480D01*
X686242Y5395D01*
X686669Y5334D01*
X687112Y5298D01*
X687571Y5286D01*
X688019Y5299D01*
G37*
G36*
X702685Y6801D02*
X696248Y6801D01*
X696400Y7111D01*
X696594Y7426D01*
X696829Y7748D01*
X697106Y8075D01*
X697429Y8416D01*
X697804Y8777D01*
X698231Y9158D01*
X698709Y9560D01*
X699550Y10256D01*
X700244Y10854D01*
X700789Y11355D01*
X701187Y11758D01*
X701491Y12113D01*
X701756Y12468D01*
X701980Y12823D01*
X702164Y13177D01*
X702308Y13533D01*
X702410Y13889D01*
X702472Y14246D01*
X702492Y14605D01*
X702477Y14998D01*
X702430Y15369D01*
X702351Y15716D01*
X702242Y16040D01*
X702101Y16341D01*
X701928Y16619D01*
X701725Y16874D01*
X701490Y17105D01*
X701225Y17312D01*
X700934Y17491D01*
X700616Y17642D01*
X700271Y17766D01*
X699899Y17862D01*
X699500Y17931D01*
X699074Y17972D01*
X698621Y17986D01*
X698206Y17972D01*
X697810Y17931D01*
X697434Y17863D01*
X697076Y17767D01*
X696738Y17644D01*
X696420Y17493D01*
X696120Y17315D01*
X695840Y17110D01*
X695584Y16881D01*
X695356Y16634D01*
X695157Y16368D01*
X694985Y16083D01*
X694842Y15779D01*
X694728Y15456D01*
X694641Y15114D01*
X694583Y14754D01*
X696195Y14605D01*
X696232Y14845D01*
X696286Y15072D01*
X696356Y15285D01*
X696444Y15484D01*
X696548Y15669D01*
X696669Y15841D01*
X696807Y15998D01*
X696961Y16142D01*
X697130Y16270D01*
X697310Y16382D01*
X697501Y16476D01*
X697703Y16553D01*
X697916Y16612D01*
X698140Y16655D01*
X698375Y16681D01*
X698621Y16689D01*
X698879Y16681D01*
X699122Y16654D01*
X699351Y16611D01*
X699565Y16549D01*
X699765Y16470D01*
X699950Y16374D01*
X700120Y16260D01*
X700277Y16129D01*
X700416Y15982D01*
X700537Y15820D01*
X700639Y15644D01*
X700723Y15454D01*
X700788Y15250D01*
X700835Y15032D01*
X700863Y14799D01*
X700872Y14552D01*
X700850Y14186D01*
X700786Y13839D01*
X700677Y13511D01*
X700526Y13204D01*
X700340Y12909D01*
X700127Y12621D01*
X699886Y12340D01*
X699620Y12065D01*
X699025Y11522D01*
X698363Y10979D01*
X697663Y10413D01*
X696957Y9801D01*
X696606Y9474D01*
X696264Y9129D01*
X695930Y8765D01*
X695604Y8382D01*
X695294Y7975D01*
X695009Y7538D01*
X694749Y7071D01*
X694513Y6573D01*
X694513Y5461D01*
X702685Y5461D01*
X702685Y6801D01*
G37*
G36*
X652117Y138005D02*
X652585Y138038D01*
X653036Y138094D01*
X653471Y138172D01*
X653889Y138272D01*
X654291Y138395D01*
X654676Y138540D01*
X655044Y138707D01*
X655394Y138896D01*
X655723Y139105D01*
X656031Y139334D01*
X656319Y139583D01*
X656585Y139853D01*
X656831Y140143D01*
X657056Y140453D01*
X657260Y140783D01*
X657442Y141131D01*
X657599Y141495D01*
X657732Y141875D01*
X657841Y142271D01*
X657926Y142682D01*
X657987Y143109D01*
X658023Y143552D01*
X658035Y144011D01*
X658022Y144459D01*
X657983Y144894D01*
X657918Y145315D01*
X657827Y145722D01*
X657710Y146115D01*
X657567Y146494D01*
X657398Y146860D01*
X657203Y147212D01*
X656983Y147547D01*
X656739Y147863D01*
X656472Y148160D01*
X656181Y148437D01*
X655865Y148695D01*
X655526Y148934D01*
X655164Y149153D01*
X654777Y149353D01*
X654094Y147987D01*
X654405Y147819D01*
X654695Y147641D01*
X654966Y147452D01*
X655217Y147254D01*
X655447Y147046D01*
X655658Y146827D01*
X655848Y146599D01*
X656019Y146360D01*
X656169Y146111D01*
X656299Y145853D01*
X656409Y145584D01*
X656500Y145305D01*
X656570Y145016D01*
X656620Y144717D01*
X656650Y144408D01*
X656660Y144089D01*
X656639Y143597D01*
X656574Y143130D01*
X656466Y142690D01*
X656315Y142275D01*
X656121Y141887D01*
X655884Y141525D01*
X655604Y141189D01*
X655281Y140879D01*
X654922Y140601D01*
X654535Y140360D01*
X654121Y140156D01*
X653679Y139989D01*
X653209Y139859D01*
X652711Y139767D01*
X652186Y139711D01*
X651633Y139693D01*
X651074Y139710D01*
X650546Y139764D01*
X650049Y139853D01*
X649582Y139977D01*
X649146Y140137D01*
X648740Y140333D01*
X648365Y140564D01*
X648020Y140831D01*
X647711Y141130D01*
X647443Y141457D01*
X647217Y141813D01*
X647031Y142197D01*
X646887Y142610D01*
X646784Y143051D01*
X646722Y143521D01*
X646702Y144019D01*
X646711Y144340D01*
X646737Y144650D01*
X646782Y144948D01*
X646844Y145236D01*
X646924Y145512D01*
X647022Y145777D01*
X647138Y146031D01*
X647271Y146275D01*
X647421Y146504D01*
X647587Y146717D01*
X647769Y146914D01*
X647967Y147095D01*
X648181Y147259D01*
X648411Y147407D01*
X648656Y147539D01*
X648918Y147654D01*
X648392Y149239D01*
X648025Y149073D01*
X647681Y148885D01*
X647360Y148674D01*
X647063Y148442D01*
X646789Y148188D01*
X646538Y147912D01*
X646310Y147615D01*
X646106Y147295D01*
X645925Y146954D01*
X645769Y146593D01*
X645636Y146212D01*
X645528Y145810D01*
X645444Y145389D01*
X645383Y144947D01*
X645347Y144484D01*
X645335Y144002D01*
X645342Y143654D01*
X645361Y143316D01*
X645394Y142987D01*
X645440Y142668D01*
X645499Y142359D01*
X645571Y142059D01*
X645656Y141769D01*
X645754Y141488D01*
X645865Y141217D01*
X645989Y140955D01*
X646126Y140703D01*
X646276Y140461D01*
X646616Y140005D01*
X647008Y139587D01*
X647446Y139214D01*
X647925Y138890D01*
X648443Y138616D01*
X648717Y138498D01*
X649001Y138392D01*
X649295Y138299D01*
X649599Y138218D01*
X649913Y138149D01*
X650237Y138093D01*
X650571Y138049D01*
X650915Y138018D01*
X651269Y138000D01*
X651633Y137993D01*
X652117Y138005D01*
G37*
G36*
X655091Y150801D02*
X655466Y150896D01*
X655817Y151020D01*
X656142Y151171D01*
X656442Y151351D01*
X656717Y151560D01*
X656966Y151796D01*
X657190Y152061D01*
X657388Y152352D01*
X657560Y152667D01*
X657705Y153005D01*
X657824Y153367D01*
X657916Y153753D01*
X657982Y154163D01*
X658022Y154596D01*
X658035Y155052D01*
X658021Y155541D01*
X657977Y156002D01*
X657903Y156433D01*
X657801Y156835D01*
X657669Y157208D01*
X657508Y157552D01*
X657318Y157867D01*
X657098Y158153D01*
X656852Y158407D01*
X656581Y158628D01*
X656287Y158815D01*
X655968Y158967D01*
X655626Y159086D01*
X655259Y159171D01*
X654868Y159222D01*
X654453Y159239D01*
X654164Y159227D01*
X653887Y159191D01*
X653623Y159131D01*
X653371Y159046D01*
X653132Y158938D01*
X652906Y158805D01*
X652692Y158649D01*
X652491Y158468D01*
X652306Y158266D01*
X652141Y158045D01*
X651995Y157804D01*
X651869Y157544D01*
X651763Y157265D01*
X651676Y156967D01*
X651610Y156650D01*
X651563Y156314D01*
X651528Y156314D01*
X651454Y156620D01*
X651366Y156907D01*
X651263Y157175D01*
X651146Y157425D01*
X651013Y157656D01*
X650865Y157868D01*
X650702Y158061D01*
X650525Y158236D01*
X650333Y158391D01*
X650127Y158525D01*
X649907Y158639D01*
X649674Y158732D01*
X649427Y158804D01*
X649166Y158856D01*
X648891Y158887D01*
X648602Y158897D01*
X648227Y158881D01*
X647874Y158833D01*
X647542Y158753D01*
X647230Y158640D01*
X646941Y158495D01*
X646672Y158318D01*
X646424Y158109D01*
X646198Y157868D01*
X645996Y157598D01*
X645821Y157302D01*
X645672Y156980D01*
X645551Y156632D01*
X645457Y156259D01*
X645389Y155859D01*
X645349Y155434D01*
X645335Y154982D01*
X645349Y154567D01*
X645388Y154171D01*
X645455Y153795D01*
X645548Y153438D01*
X645667Y153100D01*
X645813Y152781D01*
X645986Y152482D01*
X646185Y152201D01*
X646408Y151945D01*
X646651Y151717D01*
X646916Y151518D01*
X647201Y151346D01*
X647507Y151203D01*
X647834Y151089D01*
X648181Y151003D01*
X648550Y150945D01*
X648672Y152530D01*
X648436Y152565D01*
X648214Y152616D01*
X648005Y152684D01*
X647810Y152770D01*
X647628Y152872D01*
X647460Y152991D01*
X647306Y153126D01*
X647166Y153279D01*
X647041Y153446D01*
X646932Y153626D01*
X646840Y153818D01*
X646765Y154022D01*
X646707Y154239D01*
X646665Y154469D01*
X646640Y154710D01*
X646632Y154965D01*
X646641Y155243D01*
X646667Y155503D01*
X646712Y155746D01*
X646775Y155971D01*
X646856Y156178D01*
X646954Y156368D01*
X647071Y156540D01*
X647205Y156695D01*
X647355Y156831D01*
X647518Y156949D01*
X647694Y157050D01*
X647883Y157131D01*
X648085Y157195D01*
X648300Y157241D01*
X648528Y157268D01*
X648769Y157277D01*
X649012Y157266D01*
X649241Y157232D01*
X649457Y157177D01*
X649659Y157099D01*
X649847Y156998D01*
X650023Y156876D01*
X650184Y156731D01*
X650332Y156563D01*
X650464Y156376D01*
X650579Y156170D01*
X650676Y155946D01*
X650756Y155704D01*
X650818Y155443D01*
X650862Y155165D01*
X650888Y154868D01*
X650897Y154553D01*
X650897Y153695D01*
X652263Y153695D01*
X652263Y154588D01*
X652272Y154943D01*
X652299Y155277D01*
X652343Y155588D01*
X652405Y155879D01*
X652484Y156148D01*
X652581Y156395D01*
X652696Y156621D01*
X652828Y156826D01*
X652976Y157008D01*
X653138Y157165D01*
X653314Y157298D01*
X653504Y157407D01*
X653707Y157492D01*
X653924Y157553D01*
X654156Y157589D01*
X654400Y157601D01*
X654681Y157591D01*
X654943Y157559D01*
X655187Y157506D01*
X655414Y157431D01*
X655623Y157336D01*
X655814Y157219D01*
X655988Y157081D01*
X656143Y156922D01*
X656281Y156745D01*
X656400Y156551D01*
X656501Y156341D01*
X656583Y156115D01*
X656648Y155874D01*
X656694Y155616D01*
X656721Y155342D01*
X656730Y155052D01*
X656722Y154764D01*
X656696Y154491D01*
X656653Y154235D01*
X656593Y153994D01*
X656516Y153770D01*
X656422Y153562D01*
X656311Y153369D01*
X656183Y153193D01*
X656037Y153033D01*
X655875Y152889D01*
X655695Y152762D01*
X655499Y152650D01*
X655285Y152554D01*
X655054Y152474D01*
X654806Y152411D01*
X654541Y152364D01*
X654689Y150734D01*
X655091Y150801D01*
G37*
G36*
X165423Y139683D02*
X165414Y140764D01*
X165403Y141052D01*
X165388Y141171D01*
X165431Y141171D01*
X165531Y140972D01*
X165642Y140786D01*
X165764Y140612D01*
X165898Y140451D01*
X166043Y140303D01*
X166198Y140168D01*
X166365Y140046D01*
X166544Y139936D01*
X166733Y139840D01*
X166934Y139756D01*
X167146Y139686D01*
X167369Y139628D01*
X167604Y139583D01*
X167849Y139551D01*
X168106Y139531D01*
X168374Y139525D01*
X168796Y139544D01*
X169191Y139602D01*
X169559Y139699D01*
X169899Y139835D01*
X170213Y140009D01*
X170499Y140222D01*
X170757Y140474D01*
X170989Y140764D01*
X171193Y141093D01*
X171370Y141461D01*
X171520Y141868D01*
X171642Y142313D01*
X171738Y142797D01*
X171806Y143320D01*
X171847Y143882D01*
X171860Y144482D01*
X171847Y145090D01*
X171806Y145655D01*
X171738Y146179D01*
X171643Y146661D01*
X171522Y147101D01*
X171373Y147499D01*
X171196Y147855D01*
X170993Y148170D01*
X170763Y148445D01*
X170504Y148683D01*
X170218Y148885D01*
X169905Y149050D01*
X169564Y149178D01*
X169195Y149270D01*
X168798Y149325D01*
X168374Y149343D01*
X168099Y149337D01*
X167837Y149318D01*
X167589Y149286D01*
X167354Y149241D01*
X167133Y149184D01*
X166926Y149114D01*
X166732Y149031D01*
X166553Y148936D01*
X166384Y148827D01*
X166224Y148703D01*
X165929Y148411D01*
X165667Y148061D01*
X165440Y147653D01*
X165405Y147653D01*
X165383Y148266D01*
X165344Y148927D01*
X165318Y149177D01*
X163794Y149177D01*
X163817Y148878D01*
X163833Y148456D01*
X163846Y147241D01*
X163846Y135978D01*
X165423Y135978D01*
X165423Y139683D01*
G37*
G36*
X274748Y139544D02*
X275223Y139601D01*
X275667Y139696D01*
X276079Y139829D01*
X276461Y140000D01*
X276812Y140210D01*
X277133Y140457D01*
X277422Y140742D01*
X277678Y141066D01*
X277901Y141430D01*
X278089Y141834D01*
X278243Y142277D01*
X278363Y142760D01*
X278448Y143283D01*
X278499Y143845D01*
X278516Y144447D01*
X278500Y145055D01*
X278452Y145622D01*
X278372Y146147D01*
X278260Y146631D01*
X278116Y147074D01*
X277940Y147476D01*
X277732Y147837D01*
X277492Y148156D01*
X277218Y148437D01*
X276908Y148679D01*
X276562Y148885D01*
X276180Y149053D01*
X275763Y149184D01*
X275309Y149277D01*
X274820Y149333D01*
X274295Y149352D01*
X273780Y149333D01*
X273299Y149275D01*
X272851Y149179D01*
X272436Y149045D01*
X272055Y148873D01*
X271706Y148662D01*
X271391Y148413D01*
X271109Y148126D01*
X270860Y147800D01*
X270644Y147436D01*
X270462Y147034D01*
X270312Y146593D01*
X270196Y146114D01*
X270113Y145597D01*
X270064Y145041D01*
X270047Y144447D01*
X270064Y143867D01*
X270113Y143322D01*
X270196Y142812D01*
X270312Y142337D01*
X270461Y141898D01*
X270643Y141494D01*
X270858Y141124D01*
X271107Y140790D01*
X271388Y140494D01*
X271700Y140237D01*
X272044Y140019D01*
X272421Y139841D01*
X272828Y139703D01*
X273268Y139604D01*
X273739Y139545D01*
X274242Y139525D01*
X274748Y139544D01*
G37*
G36*
X156576Y139532D02*
X156847Y139553D01*
X157107Y139588D01*
X157356Y139638D01*
X157594Y139701D01*
X157821Y139779D01*
X158038Y139870D01*
X158244Y139976D01*
X158441Y140099D01*
X158632Y140241D01*
X158817Y140403D01*
X158996Y140586D01*
X159168Y140788D01*
X159335Y141010D01*
X159649Y141513D01*
X159702Y141513D01*
X159750Y141055D01*
X159790Y140851D01*
X159841Y140662D01*
X159903Y140490D01*
X159975Y140335D01*
X160059Y140195D01*
X160153Y140072D01*
X160260Y139964D01*
X160382Y139871D01*
X160519Y139792D01*
X160671Y139727D01*
X160838Y139677D01*
X161019Y139641D01*
X161216Y139620D01*
X161427Y139612D01*
X161737Y139621D01*
X162043Y139647D01*
X162345Y139691D01*
X162645Y139753D01*
X162645Y140734D01*
X162371Y140688D01*
X162128Y140672D01*
X161890Y140694D01*
X161694Y140761D01*
X161540Y140872D01*
X161427Y141027D01*
X161347Y141226D01*
X161289Y141468D01*
X161255Y141754D01*
X161243Y142082D01*
X161243Y146164D01*
X161229Y146540D01*
X161187Y146893D01*
X161117Y147224D01*
X161018Y147531D01*
X160891Y147816D01*
X160736Y148078D01*
X160553Y148317D01*
X160341Y148533D01*
X160102Y148725D01*
X159835Y148891D01*
X159540Y149032D01*
X159218Y149147D01*
X158868Y149237D01*
X158490Y149301D01*
X158085Y149339D01*
X157652Y149352D01*
X157239Y149342D01*
X156850Y149312D01*
X156483Y149262D01*
X156140Y149192D01*
X155821Y149102D01*
X155525Y148992D01*
X155252Y148862D01*
X155003Y148713D01*
X154777Y148543D01*
X154575Y148353D01*
X154395Y148143D01*
X154240Y147913D01*
X154108Y147664D01*
X153999Y147394D01*
X153913Y147104D01*
X153851Y146794D01*
X155498Y146646D01*
X155528Y146836D01*
X155570Y147013D01*
X155624Y147176D01*
X155690Y147327D01*
X155769Y147463D01*
X155859Y147587D01*
X155961Y147696D01*
X156076Y147793D01*
X156205Y147877D01*
X156353Y147950D01*
X156518Y148012D01*
X156702Y148062D01*
X156904Y148101D01*
X157124Y148130D01*
X157617Y148152D01*
X157871Y148144D01*
X158108Y148121D01*
X158327Y148082D01*
X158528Y148027D01*
X158712Y147957D01*
X158879Y147871D01*
X159027Y147770D01*
X159159Y147653D01*
X159274Y147518D01*
X159373Y147362D01*
X159458Y147186D01*
X159527Y146989D01*
X159580Y146772D01*
X159619Y146534D01*
X159642Y146276D01*
X159649Y145997D01*
X159649Y145481D01*
X157521Y145446D01*
X157001Y145421D01*
X156518Y145373D01*
X156072Y145303D01*
X155663Y145209D01*
X155291Y145093D01*
X154957Y144953D01*
X154659Y144790D01*
X154399Y144605D01*
X154172Y144397D01*
X153975Y144168D01*
X153809Y143918D01*
X153673Y143646D01*
X153567Y143353D01*
X153491Y143038D01*
X153446Y142702D01*
X153431Y142345D01*
X153442Y142025D01*
X153476Y141723D01*
X153532Y141439D01*
X153610Y141171D01*
X153711Y140922D01*
X153835Y140690D01*
X153981Y140475D01*
X154149Y140278D01*
X154340Y140102D01*
X154552Y139949D01*
X154787Y139819D01*
X155045Y139713D01*
X155324Y139631D01*
X155625Y139572D01*
X155949Y139537D01*
X156295Y139525D01*
X156576Y139532D01*
G37*
G36*
X176514Y139532D02*
X176784Y139553D01*
X177044Y139588D01*
X177293Y139638D01*
X177531Y139701D01*
X177759Y139779D01*
X177975Y139870D01*
X178181Y139976D01*
X178378Y140099D01*
X178569Y140241D01*
X178754Y140403D01*
X178933Y140586D01*
X179106Y140788D01*
X179272Y141010D01*
X179587Y141513D01*
X179639Y141513D01*
X179687Y141055D01*
X179727Y140851D01*
X179778Y140662D01*
X179840Y140490D01*
X179913Y140335D01*
X179996Y140195D01*
X180090Y140072D01*
X180198Y139964D01*
X180320Y139871D01*
X180456Y139792D01*
X180608Y139727D01*
X180775Y139677D01*
X180957Y139641D01*
X181153Y139620D01*
X181365Y139612D01*
X181674Y139621D01*
X181980Y139647D01*
X182283Y139691D01*
X182582Y139753D01*
X182582Y140734D01*
X182309Y140688D01*
X182065Y140672D01*
X181828Y140694D01*
X181632Y140761D01*
X181478Y140872D01*
X181365Y141027D01*
X181284Y141226D01*
X181227Y141468D01*
X181192Y141754D01*
X181181Y142082D01*
X181181Y146164D01*
X181167Y146540D01*
X181124Y146893D01*
X181054Y147224D01*
X180955Y147531D01*
X180828Y147816D01*
X180673Y148078D01*
X180490Y148317D01*
X180279Y148533D01*
X180039Y148725D01*
X179772Y148891D01*
X179478Y149032D01*
X179155Y149147D01*
X178806Y149237D01*
X178428Y149301D01*
X178023Y149339D01*
X177590Y149352D01*
X177177Y149342D01*
X176787Y149312D01*
X176421Y149262D01*
X176078Y149192D01*
X175758Y149102D01*
X175462Y148992D01*
X175190Y148862D01*
X174940Y148713D01*
X174715Y148543D01*
X174512Y148353D01*
X174333Y148143D01*
X174177Y147913D01*
X174045Y147664D01*
X173936Y147394D01*
X173851Y147104D01*
X173789Y146794D01*
X175435Y146646D01*
X175465Y146836D01*
X175508Y147013D01*
X175562Y147176D01*
X175628Y147327D01*
X175706Y147463D01*
X175797Y147587D01*
X175899Y147696D01*
X176013Y147793D01*
X176143Y147877D01*
X176290Y147950D01*
X176456Y148012D01*
X176640Y148062D01*
X176841Y148101D01*
X177061Y148130D01*
X177555Y148152D01*
X177809Y148144D01*
X178045Y148121D01*
X178264Y148082D01*
X178466Y148027D01*
X178650Y147957D01*
X178816Y147871D01*
X178965Y147770D01*
X179096Y147653D01*
X179211Y147518D01*
X179311Y147362D01*
X179395Y147186D01*
X179464Y146989D01*
X179518Y146772D01*
X179556Y146534D01*
X179579Y146276D01*
X179587Y145997D01*
X179587Y145481D01*
X177458Y145446D01*
X176938Y145421D01*
X176455Y145373D01*
X176009Y145303D01*
X175601Y145209D01*
X175229Y145093D01*
X174894Y144953D01*
X174597Y144790D01*
X174336Y144605D01*
X174109Y144397D01*
X173913Y144168D01*
X173746Y143918D01*
X173610Y143646D01*
X173504Y143353D01*
X173429Y143038D01*
X173383Y142702D01*
X173368Y142345D01*
X173379Y142025D01*
X173413Y141723D01*
X173469Y141439D01*
X173548Y141171D01*
X173649Y140922D01*
X173772Y140690D01*
X173918Y140475D01*
X174086Y140278D01*
X174277Y140102D01*
X174490Y139949D01*
X174725Y139819D01*
X174982Y139713D01*
X175261Y139631D01*
X175563Y139572D01*
X175886Y139537D01*
X176232Y139525D01*
X176514Y139532D01*
G37*
G36*
X218912Y139534D02*
X219263Y139560D01*
X219597Y139604D01*
X219915Y139665D01*
X220216Y139744D01*
X220499Y139840D01*
X220766Y139954D01*
X221016Y140085D01*
X221249Y140234D01*
X221465Y140401D01*
X221664Y140585D01*
X221846Y140786D01*
X222012Y141005D01*
X222160Y141242D01*
X222292Y141496D01*
X222406Y141767D01*
X221022Y142161D01*
X220888Y141860D01*
X220704Y141585D01*
X220470Y141338D01*
X220186Y141119D01*
X220025Y141022D01*
X219852Y140939D01*
X219666Y140868D01*
X219467Y140810D01*
X219255Y140765D01*
X219031Y140733D01*
X218794Y140714D01*
X218544Y140707D01*
X218229Y140721D01*
X217934Y140763D01*
X217659Y140832D01*
X217403Y140928D01*
X217166Y141053D01*
X216949Y141205D01*
X216751Y141385D01*
X216573Y141592D01*
X216415Y141825D01*
X216278Y142081D01*
X216162Y142360D01*
X216067Y142663D01*
X215993Y142988D01*
X215941Y143338D01*
X215909Y143710D01*
X215899Y144106D01*
X222660Y144106D01*
X222660Y144316D01*
X222644Y144926D01*
X222595Y145496D01*
X222513Y146027D01*
X222399Y146519D01*
X222252Y146972D01*
X222073Y147385D01*
X221861Y147758D01*
X221616Y148093D01*
X221338Y148388D01*
X221028Y148644D01*
X220686Y148860D01*
X220310Y149037D01*
X219902Y149175D01*
X219462Y149273D01*
X218988Y149332D01*
X218482Y149352D01*
X217987Y149332D01*
X217521Y149274D01*
X217084Y149176D01*
X216677Y149039D01*
X216299Y148863D01*
X215951Y148647D01*
X215632Y148393D01*
X215342Y148099D01*
X215085Y147769D01*
X214862Y147405D01*
X214673Y147006D01*
X214518Y146573D01*
X214398Y146106D01*
X214312Y145605D01*
X214260Y145069D01*
X214243Y144500D01*
X214260Y143901D01*
X214312Y143341D01*
X214398Y142818D01*
X214518Y142334D01*
X214673Y141888D01*
X214862Y141480D01*
X215085Y141109D01*
X215342Y140777D01*
X215633Y140484D01*
X215955Y140229D01*
X216308Y140014D01*
X216692Y139838D01*
X217108Y139701D01*
X217555Y139603D01*
X218034Y139544D01*
X218544Y139525D01*
X218912Y139534D01*
G37*
G36*
X245818Y139534D02*
X246169Y139560D01*
X246504Y139604D01*
X246821Y139665D01*
X247122Y139744D01*
X247405Y139840D01*
X247672Y139954D01*
X247922Y140085D01*
X248155Y140234D01*
X248371Y140401D01*
X248570Y140585D01*
X248752Y140786D01*
X248918Y141005D01*
X249066Y141242D01*
X249198Y141496D01*
X249312Y141767D01*
X247929Y142161D01*
X247794Y141860D01*
X247610Y141585D01*
X247376Y141338D01*
X247092Y141119D01*
X246931Y141022D01*
X246758Y140939D01*
X246572Y140868D01*
X246373Y140810D01*
X246161Y140765D01*
X245937Y140733D01*
X245700Y140714D01*
X245450Y140707D01*
X245136Y140721D01*
X244841Y140763D01*
X244565Y140832D01*
X244309Y140928D01*
X244073Y141053D01*
X243855Y141205D01*
X243658Y141385D01*
X243479Y141592D01*
X243321Y141825D01*
X243184Y142081D01*
X243068Y142360D01*
X242973Y142663D01*
X242900Y142988D01*
X242847Y143338D01*
X242815Y143710D01*
X242805Y144106D01*
X249566Y144106D01*
X249566Y144316D01*
X249550Y144926D01*
X249501Y145496D01*
X249420Y146027D01*
X249305Y146519D01*
X249158Y146972D01*
X248979Y147385D01*
X248767Y147758D01*
X248522Y148093D01*
X248245Y148388D01*
X247934Y148644D01*
X247592Y148860D01*
X247216Y149037D01*
X246808Y149175D01*
X246368Y149273D01*
X245895Y149332D01*
X245389Y149352D01*
X244893Y149332D01*
X244427Y149274D01*
X243990Y149176D01*
X243583Y149039D01*
X243205Y148863D01*
X242857Y148647D01*
X242538Y148393D01*
X242249Y148099D01*
X241991Y147769D01*
X241768Y147405D01*
X241579Y147006D01*
X241424Y146573D01*
X241304Y146106D01*
X241218Y145605D01*
X241167Y145069D01*
X241149Y144500D01*
X241167Y143901D01*
X241218Y143341D01*
X241304Y142818D01*
X241424Y142334D01*
X241579Y141888D01*
X241768Y141480D01*
X241991Y141109D01*
X242249Y140777D01*
X242539Y140484D01*
X242861Y140229D01*
X243214Y140014D01*
X243599Y139838D01*
X244014Y139701D01*
X244462Y139603D01*
X244940Y139544D01*
X245450Y139525D01*
X245818Y139534D01*
G37*
G36*
X235052Y139540D02*
X235607Y139583D01*
X236128Y139657D01*
X236616Y139759D01*
X237069Y139891D01*
X237488Y140052D01*
X237873Y140242D01*
X238224Y140462D01*
X238537Y140708D01*
X238808Y140979D01*
X239038Y141273D01*
X239226Y141592D01*
X239372Y141935D01*
X239476Y142301D01*
X239539Y142692D01*
X239560Y143107D01*
X239548Y143433D01*
X239513Y143738D01*
X239454Y144020D01*
X239371Y144281D01*
X239268Y144522D01*
X239147Y144747D01*
X239008Y144956D01*
X238850Y145148D01*
X238676Y145325D01*
X238488Y145487D01*
X238284Y145636D01*
X238066Y145770D01*
X237599Y146007D01*
X237098Y146212D01*
X236570Y146387D01*
X236017Y146536D01*
X234883Y146803D01*
X234104Y146984D01*
X233466Y147150D01*
X232969Y147302D01*
X232614Y147438D01*
X232346Y147574D01*
X232112Y147725D01*
X231910Y147890D01*
X231743Y148069D01*
X231610Y148267D01*
X231516Y148490D01*
X231459Y148738D01*
X231440Y149010D01*
X231453Y149246D01*
X231489Y149466D01*
X231550Y149672D01*
X231635Y149862D01*
X231745Y150037D01*
X231879Y150198D01*
X232037Y150343D01*
X232220Y150473D01*
X232426Y150588D01*
X232654Y150688D01*
X232903Y150772D01*
X233175Y150841D01*
X233468Y150895D01*
X233783Y150933D01*
X234121Y150956D01*
X234480Y150963D01*
X234808Y150957D01*
X235117Y150936D01*
X235409Y150901D01*
X235682Y150853D01*
X235936Y150791D01*
X236173Y150715D01*
X236391Y150625D01*
X236590Y150521D01*
X236773Y150402D01*
X236941Y150266D01*
X237093Y150114D01*
X237230Y149944D01*
X237351Y149758D01*
X237458Y149555D01*
X237548Y149335D01*
X237624Y149098D01*
X239271Y149387D01*
X239149Y149760D01*
X239006Y150105D01*
X238842Y150422D01*
X238657Y150711D01*
X238452Y150971D01*
X238226Y151202D01*
X237979Y151406D01*
X237712Y151581D01*
X237418Y151732D01*
X237094Y151863D01*
X236738Y151973D01*
X236352Y152064D01*
X235935Y152134D01*
X235486Y152184D01*
X235007Y152215D01*
X234497Y152225D01*
X233949Y152211D01*
X233433Y152171D01*
X232950Y152104D01*
X232499Y152010D01*
X232081Y151889D01*
X231696Y151742D01*
X231344Y151568D01*
X231024Y151366D01*
X230740Y151140D01*
X230494Y150892D01*
X230285Y150620D01*
X230115Y150326D01*
X229982Y150009D01*
X229887Y149670D01*
X229830Y149308D01*
X229811Y148923D01*
X229826Y148587D01*
X229869Y148270D01*
X229942Y147974D01*
X230043Y147697D01*
X230172Y147438D01*
X230327Y147196D01*
X230507Y146972D01*
X230713Y146764D01*
X230952Y146569D01*
X231231Y146384D01*
X231550Y146208D01*
X231909Y146041D01*
X232332Y145879D01*
X232843Y145717D01*
X233442Y145555D01*
X234129Y145393D01*
X235662Y145034D01*
X235996Y144946D01*
X236306Y144848D01*
X236592Y144740D01*
X236853Y144622D01*
X237089Y144491D01*
X237297Y144344D01*
X237476Y144181D01*
X237628Y144000D01*
X237749Y143798D01*
X237835Y143567D01*
X237887Y143307D01*
X237904Y143019D01*
X237891Y142758D01*
X237849Y142513D01*
X237780Y142285D01*
X237684Y142072D01*
X237560Y141876D01*
X237409Y141697D01*
X237230Y141533D01*
X237024Y141386D01*
X236792Y141256D01*
X236538Y141143D01*
X236260Y141047D01*
X235959Y140969D01*
X235635Y140908D01*
X235287Y140865D01*
X234917Y140839D01*
X234523Y140830D01*
X234142Y140838D01*
X233781Y140862D01*
X233440Y140903D01*
X233120Y140960D01*
X232820Y141033D01*
X232541Y141123D01*
X232283Y141229D01*
X232045Y141351D01*
X231827Y141491D01*
X231629Y141649D01*
X231450Y141825D01*
X231292Y142020D01*
X231153Y142233D01*
X231033Y142465D01*
X230934Y142716D01*
X230854Y142984D01*
X229233Y142660D01*
X229338Y142281D01*
X229472Y141925D01*
X229636Y141595D01*
X229829Y141289D01*
X230053Y141007D01*
X230305Y140750D01*
X230588Y140517D01*
X230900Y140309D01*
X231241Y140125D01*
X231612Y139966D01*
X232013Y139831D01*
X232444Y139721D01*
X232904Y139635D01*
X233394Y139574D01*
X233913Y139537D01*
X234462Y139525D01*
X235052Y139540D01*
G37*
G36*
X147077Y139538D02*
X147511Y139577D01*
X147932Y139642D01*
X148339Y139733D01*
X148732Y139850D01*
X149112Y139993D01*
X149477Y140162D01*
X149829Y140357D01*
X150164Y140577D01*
X150480Y140821D01*
X150777Y141088D01*
X151054Y141379D01*
X151312Y141695D01*
X151551Y142034D01*
X151771Y142396D01*
X151971Y142783D01*
X150604Y143466D01*
X150436Y143155D01*
X150258Y142865D01*
X150070Y142594D01*
X149871Y142343D01*
X149663Y142113D01*
X149445Y141902D01*
X149216Y141712D01*
X148977Y141541D01*
X148729Y141391D01*
X148470Y141261D01*
X148201Y141151D01*
X147923Y141060D01*
X147634Y140990D01*
X147335Y140940D01*
X147026Y140910D01*
X146707Y140900D01*
X146214Y140921D01*
X145748Y140986D01*
X145307Y141094D01*
X144893Y141245D01*
X144505Y141439D01*
X144142Y141676D01*
X143807Y141956D01*
X143497Y142279D01*
X143219Y142638D01*
X142978Y143025D01*
X142774Y143439D01*
X142607Y143881D01*
X142477Y144351D01*
X142384Y144849D01*
X142329Y145374D01*
X142310Y145927D01*
X142328Y146486D01*
X142381Y147014D01*
X142470Y147511D01*
X142595Y147978D01*
X142755Y148414D01*
X142951Y148820D01*
X143182Y149195D01*
X143449Y149540D01*
X143748Y149849D01*
X144075Y150117D01*
X144431Y150343D01*
X144815Y150529D01*
X145228Y150673D01*
X145669Y150776D01*
X146139Y150838D01*
X146637Y150858D01*
X146957Y150849D01*
X147267Y150823D01*
X147566Y150778D01*
X147853Y150716D01*
X148129Y150636D01*
X148395Y150538D01*
X148649Y150423D01*
X148892Y150289D01*
X149122Y150139D01*
X149335Y149973D01*
X149532Y149791D01*
X149712Y149593D01*
X149876Y149379D01*
X150024Y149149D01*
X150156Y148904D01*
X150272Y148642D01*
X151857Y149168D01*
X151690Y149535D01*
X151502Y149879D01*
X151292Y150200D01*
X151060Y150497D01*
X150806Y150771D01*
X150530Y151022D01*
X150232Y151250D01*
X149912Y151454D01*
X149572Y151635D01*
X149211Y151791D01*
X148829Y151924D01*
X148428Y152032D01*
X148006Y152116D01*
X147564Y152177D01*
X147102Y152213D01*
X146619Y152225D01*
X146272Y152218D01*
X145933Y152199D01*
X145605Y152166D01*
X145286Y152120D01*
X144976Y152061D01*
X144676Y151989D01*
X144386Y151905D01*
X144106Y151806D01*
X143834Y151695D01*
X143573Y151571D01*
X143321Y151434D01*
X143079Y151284D01*
X142623Y150944D01*
X142205Y150552D01*
X141831Y150114D01*
X141508Y149635D01*
X141234Y149117D01*
X141115Y148843D01*
X141009Y148559D01*
X140916Y148265D01*
X140835Y147961D01*
X140767Y147647D01*
X140711Y147323D01*
X140667Y146989D01*
X140636Y146645D01*
X140617Y146291D01*
X140611Y145927D01*
X140622Y145443D01*
X140656Y144975D01*
X140711Y144524D01*
X140789Y144089D01*
X140890Y143671D01*
X141012Y143269D01*
X141157Y142884D01*
X141325Y142516D01*
X141513Y142166D01*
X141722Y141837D01*
X141951Y141529D01*
X142201Y141242D01*
X142470Y140975D01*
X142760Y140729D01*
X143070Y140504D01*
X143400Y140300D01*
X143749Y140118D01*
X144113Y139961D01*
X144493Y139828D01*
X144888Y139719D01*
X145300Y139634D01*
X145727Y139573D01*
X146169Y139537D01*
X146628Y139525D01*
X147077Y139538D01*
G37*
G36*
X253177Y145192D02*
X253187Y145528D01*
X253218Y145846D01*
X253269Y146145D01*
X253341Y146424D01*
X253433Y146685D01*
X253546Y146927D01*
X253679Y147151D01*
X253833Y147355D01*
X254005Y147538D01*
X254192Y147696D01*
X254394Y147830D01*
X254611Y147940D01*
X254843Y148025D01*
X255090Y148086D01*
X255352Y148122D01*
X255629Y148134D01*
X255995Y148120D01*
X256314Y148078D01*
X256586Y148006D01*
X256811Y147907D01*
X256999Y147775D01*
X257159Y147607D01*
X257292Y147403D01*
X257398Y147162D01*
X257479Y146878D01*
X257536Y146540D01*
X257571Y146151D01*
X257582Y145708D01*
X257582Y139700D01*
X259167Y139700D01*
X259167Y146015D01*
X259156Y146446D01*
X259122Y146845D01*
X259066Y147213D01*
X258987Y147549D01*
X258885Y147853D01*
X258761Y148126D01*
X258614Y148367D01*
X258445Y148577D01*
X258251Y148758D01*
X258031Y148916D01*
X257785Y149049D01*
X257513Y149158D01*
X257215Y149243D01*
X256890Y149303D01*
X256540Y149340D01*
X256163Y149352D01*
X255904Y149346D01*
X255655Y149326D01*
X255417Y149295D01*
X255190Y149250D01*
X254974Y149193D01*
X254768Y149123D01*
X254573Y149040D01*
X254390Y148945D01*
X254214Y148834D01*
X254043Y148705D01*
X253878Y148559D01*
X253718Y148394D01*
X253415Y148011D01*
X253133Y147556D01*
X253106Y147556D01*
X253076Y148498D01*
X253054Y148940D01*
X253036Y149177D01*
X251547Y149177D01*
X251570Y148912D01*
X251587Y148487D01*
X251600Y147154D01*
X251600Y139700D01*
X253177Y139700D01*
X253177Y145192D01*
G37*
G36*
X265243Y139536D02*
X265661Y139570D01*
X266053Y139627D01*
X266420Y139707D01*
X266761Y139809D01*
X267078Y139934D01*
X267368Y140081D01*
X267634Y140252D01*
X267871Y140443D01*
X268077Y140654D01*
X268250Y140883D01*
X268393Y141132D01*
X268503Y141400D01*
X268582Y141687D01*
X268630Y141993D01*
X268646Y142319D01*
X268635Y142583D01*
X268602Y142832D01*
X268547Y143067D01*
X268470Y143287D01*
X268374Y143493D01*
X268259Y143686D01*
X268126Y143867D01*
X267976Y144035D01*
X267801Y144194D01*
X267598Y144345D01*
X267366Y144490D01*
X267104Y144627D01*
X266784Y144763D01*
X266377Y144906D01*
X265882Y145054D01*
X265300Y145209D01*
X264205Y145498D01*
X263828Y145616D01*
X263566Y145717D01*
X263372Y145814D01*
X263204Y145921D01*
X263061Y146037D01*
X262944Y146164D01*
X262852Y146304D01*
X262786Y146462D01*
X262747Y146637D01*
X262734Y146829D01*
X262742Y146988D01*
X262765Y147137D01*
X262805Y147275D01*
X262861Y147403D01*
X262932Y147521D01*
X263019Y147628D01*
X263123Y147724D01*
X263242Y147810D01*
X263377Y147886D01*
X263531Y147952D01*
X263701Y148008D01*
X263890Y148053D01*
X264319Y148114D01*
X264818Y148134D01*
X265275Y148113D01*
X265684Y148050D01*
X266044Y147945D01*
X266355Y147797D01*
X266614Y147610D01*
X266818Y147387D01*
X266900Y147261D01*
X266967Y147126D01*
X267021Y146983D01*
X267060Y146829D01*
X268479Y147005D01*
X268407Y147299D01*
X268314Y147572D01*
X268200Y147824D01*
X268064Y148056D01*
X267908Y148266D01*
X267730Y148456D01*
X267530Y148626D01*
X267310Y148774D01*
X267069Y148903D01*
X266808Y149015D01*
X266526Y149110D01*
X266225Y149188D01*
X265903Y149248D01*
X265562Y149291D01*
X265200Y149317D01*
X264818Y149326D01*
X264389Y149315D01*
X263986Y149283D01*
X263610Y149230D01*
X263260Y149156D01*
X262937Y149060D01*
X262640Y148944D01*
X262369Y148806D01*
X262125Y148647D01*
X261908Y148468D01*
X261721Y148269D01*
X261562Y148051D01*
X261432Y147814D01*
X261331Y147557D01*
X261259Y147281D01*
X261215Y146986D01*
X261201Y146672D01*
X261221Y146335D01*
X261282Y146026D01*
X261383Y145744D01*
X261525Y145489D01*
X261703Y145258D01*
X261911Y145044D01*
X262151Y144848D01*
X262423Y144670D01*
X262759Y144501D01*
X263192Y144330D01*
X263724Y144157D01*
X264354Y143983D01*
X265484Y143685D01*
X265883Y143564D01*
X266224Y143427D01*
X266505Y143275D01*
X266727Y143107D01*
X266896Y142919D01*
X267017Y142704D01*
X267089Y142463D01*
X267113Y142196D01*
X267104Y142018D01*
X267078Y141851D01*
X267035Y141696D01*
X266974Y141552D01*
X266896Y141420D01*
X266800Y141300D01*
X266687Y141190D01*
X266557Y141093D01*
X266408Y141006D01*
X266238Y140932D01*
X266049Y140868D01*
X265840Y140817D01*
X265610Y140776D01*
X265360Y140748D01*
X265091Y140730D01*
X264801Y140725D01*
X264271Y140747D01*
X263802Y140813D01*
X263591Y140863D01*
X263395Y140924D01*
X263214Y140996D01*
X263049Y141079D01*
X262898Y141175D01*
X262760Y141282D01*
X262636Y141403D01*
X262526Y141536D01*
X262428Y141682D01*
X262344Y141841D01*
X262274Y142012D01*
X262217Y142196D01*
X260824Y141925D01*
X260907Y141626D01*
X261011Y141348D01*
X261135Y141090D01*
X261281Y140853D01*
X261447Y140636D01*
X261635Y140439D01*
X261843Y140263D01*
X262072Y140107D01*
X262325Y139971D01*
X262602Y139852D01*
X262906Y139752D01*
X263234Y139670D01*
X263588Y139607D01*
X263967Y139561D01*
X264371Y139534D01*
X264801Y139525D01*
X265243Y139536D01*
G37*
%LPC*%
G36*
X273909Y140704D02*
X273616Y140749D01*
X273344Y140822D01*
X273094Y140925D01*
X272866Y141058D01*
X272659Y141219D01*
X272474Y141411D01*
X272311Y141631D01*
X272168Y141881D01*
X272045Y142160D01*
X271940Y142469D01*
X271855Y142806D01*
X271788Y143173D01*
X271740Y143568D01*
X271712Y143993D01*
X271702Y144447D01*
X271712Y144913D01*
X271741Y145347D01*
X271789Y145749D01*
X271857Y146119D01*
X271944Y146457D01*
X272050Y146763D01*
X272175Y147038D01*
X272320Y147281D01*
X272486Y147493D01*
X272676Y147677D01*
X272891Y147833D01*
X273129Y147960D01*
X273391Y148060D01*
X273677Y148130D01*
X273987Y148173D01*
X274321Y148187D01*
X274653Y148173D01*
X274959Y148131D01*
X275241Y148062D01*
X275498Y147965D01*
X275730Y147840D01*
X275938Y147687D01*
X276121Y147506D01*
X276279Y147298D01*
X276415Y147059D01*
X276534Y146786D01*
X276634Y146480D01*
X276716Y146141D01*
X276779Y145768D01*
X276825Y145361D01*
X276852Y144921D01*
X276861Y144447D01*
X276852Y143979D01*
X276823Y143543D01*
X276776Y143140D01*
X276709Y142768D01*
X276623Y142428D01*
X276519Y142120D01*
X276395Y141844D01*
X276252Y141601D01*
X276088Y141387D01*
X275897Y141202D01*
X275682Y141046D01*
X275441Y140917D01*
X275175Y140818D01*
X274884Y140747D01*
X274567Y140704D01*
X274225Y140690D01*
X273909Y140704D01*
G37*
G36*
X167631Y140704D02*
X167330Y140745D01*
X167054Y140814D01*
X166800Y140911D01*
X166570Y141035D01*
X166363Y141187D01*
X166179Y141367D01*
X166018Y141574D01*
X165879Y141811D01*
X165758Y142078D01*
X165655Y142376D01*
X165572Y142704D01*
X165506Y143063D01*
X165460Y143453D01*
X165432Y143873D01*
X165423Y144325D01*
X165440Y144963D01*
X165492Y145539D01*
X165578Y146051D01*
X165699Y146501D01*
X165852Y146892D01*
X166038Y147227D01*
X166255Y147507D01*
X166504Y147732D01*
X166643Y147824D01*
X166795Y147904D01*
X166959Y147972D01*
X167136Y148027D01*
X167326Y148070D01*
X167528Y148101D01*
X167744Y148120D01*
X167971Y148126D01*
X168253Y148112D01*
X168514Y148073D01*
X168756Y148006D01*
X168979Y147913D01*
X169181Y147794D01*
X169364Y147648D01*
X169527Y147475D01*
X169671Y147276D01*
X169796Y147046D01*
X169904Y146781D01*
X169996Y146480D01*
X170071Y146144D01*
X170130Y145773D01*
X170171Y145366D01*
X170197Y144924D01*
X170205Y144447D01*
X170196Y143957D01*
X170171Y143504D01*
X170129Y143088D01*
X170070Y142707D01*
X169994Y142364D01*
X169902Y142057D01*
X169792Y141786D01*
X169666Y141552D01*
X169522Y141350D01*
X169357Y141175D01*
X169173Y141027D01*
X168969Y140905D01*
X168745Y140811D01*
X168501Y140744D01*
X168237Y140703D01*
X167954Y140690D01*
X167631Y140704D01*
G37*
%LPD*%
G36*
X187787Y139538D02*
X188139Y139576D01*
X188474Y139639D01*
X188794Y139728D01*
X189096Y139843D01*
X189383Y139983D01*
X189652Y140148D01*
X189906Y140339D01*
X190139Y140552D01*
X190347Y140781D01*
X190530Y141028D01*
X190688Y141292D01*
X190821Y141573D01*
X190929Y141872D01*
X191012Y142187D01*
X191071Y142520D01*
X189477Y142625D01*
X189437Y142397D01*
X189384Y142183D01*
X189317Y141985D01*
X189237Y141802D01*
X189143Y141635D01*
X189036Y141482D01*
X188915Y141346D01*
X188780Y141224D01*
X188635Y141117D01*
X188481Y141025D01*
X188318Y140946D01*
X188147Y140882D01*
X187967Y140833D01*
X187778Y140797D01*
X187581Y140776D01*
X187375Y140769D01*
X187084Y140783D01*
X186812Y140825D01*
X186560Y140897D01*
X186326Y140996D01*
X186111Y141124D01*
X185915Y141281D01*
X185738Y141466D01*
X185579Y141679D01*
X185440Y141922D01*
X185319Y142196D01*
X185216Y142501D01*
X185132Y142836D01*
X185067Y143201D01*
X185021Y143598D01*
X184993Y144025D01*
X184984Y144482D01*
X184992Y144957D01*
X185019Y145396D01*
X185062Y145800D01*
X185124Y146168D01*
X185203Y146501D01*
X185299Y146798D01*
X185413Y147059D01*
X185544Y147285D01*
X185695Y147480D01*
X185868Y147649D01*
X186062Y147792D01*
X186278Y147909D01*
X186515Y148000D01*
X186774Y148065D01*
X187055Y148104D01*
X187357Y148117D01*
X187581Y148110D01*
X187791Y148088D01*
X187988Y148052D01*
X188172Y148001D01*
X188343Y147936D01*
X188500Y147856D01*
X188645Y147762D01*
X188776Y147653D01*
X189002Y147400D01*
X189181Y147108D01*
X189313Y146774D01*
X189398Y146400D01*
X191018Y146523D01*
X190946Y146845D01*
X190851Y147149D01*
X190734Y147435D01*
X190595Y147703D01*
X190433Y147954D01*
X190249Y148186D01*
X190043Y148401D01*
X189814Y148599D01*
X189566Y148775D01*
X189303Y148928D01*
X189025Y149058D01*
X188731Y149164D01*
X188422Y149246D01*
X188097Y149305D01*
X187757Y149340D01*
X187401Y149352D01*
X186925Y149332D01*
X186477Y149273D01*
X186058Y149175D01*
X185667Y149038D01*
X185304Y148861D01*
X184970Y148645D01*
X184665Y148390D01*
X184388Y148095D01*
X184142Y147763D01*
X183928Y147396D01*
X183748Y146993D01*
X183600Y146555D01*
X183485Y146081D01*
X183403Y145572D01*
X183353Y145027D01*
X183337Y144447D01*
X183353Y143863D01*
X183402Y143315D01*
X183484Y142803D01*
X183599Y142326D01*
X183746Y141886D01*
X183926Y141482D01*
X184138Y141114D01*
X184384Y140782D01*
X184660Y140487D01*
X184966Y140232D01*
X185301Y140016D01*
X185666Y139839D01*
X186060Y139702D01*
X186483Y139603D01*
X186936Y139544D01*
X187418Y139525D01*
X187787Y139538D01*
G37*
G36*
X213420Y149177D02*
X211747Y149177D01*
X209592Y142993D01*
X209251Y141960D01*
X208944Y140935D01*
X208340Y143011D01*
X206255Y149177D01*
X204574Y149177D01*
X208016Y139700D01*
X209881Y139700D01*
X213420Y149177D01*
G37*
G36*
X199207Y139573D02*
X199608Y139612D01*
X200004Y139678D01*
X200396Y139770D01*
X200396Y140935D01*
X199870Y140843D01*
X199485Y140812D01*
X199230Y140830D01*
X199015Y140881D01*
X198842Y140968D01*
X198710Y141088D01*
X198612Y141252D01*
X198542Y141466D01*
X198501Y141731D01*
X198487Y142047D01*
X198487Y148029D01*
X200238Y148029D01*
X200238Y149177D01*
X198487Y149177D01*
X198487Y151296D01*
X197436Y151296D01*
X196971Y149177D01*
X195815Y149177D01*
X195815Y148029D01*
X196910Y148029D01*
X196910Y141706D01*
X196917Y141446D01*
X196940Y141203D01*
X196977Y140976D01*
X197028Y140767D01*
X197095Y140574D01*
X197176Y140398D01*
X197272Y140239D01*
X197383Y140096D01*
X197509Y139971D01*
X197649Y139862D01*
X197804Y139769D01*
X197974Y139694D01*
X198159Y139635D01*
X198359Y139593D01*
X198573Y139568D01*
X198802Y139560D01*
X199207Y139573D01*
G37*
G36*
X282083Y144640D02*
X282091Y145023D01*
X282115Y145382D01*
X282155Y145719D01*
X282212Y146034D01*
X282285Y146325D01*
X282373Y146593D01*
X282478Y146839D01*
X282600Y147062D01*
X282736Y147260D01*
X282887Y147431D01*
X283052Y147577D01*
X283232Y147695D01*
X283427Y147788D01*
X283636Y147854D01*
X283859Y147894D01*
X284097Y147907D01*
X284570Y147885D01*
X284767Y147857D01*
X284938Y147819D01*
X284938Y149264D01*
X284616Y149330D01*
X284299Y149352D01*
X284082Y149345D01*
X283877Y149324D01*
X283685Y149289D01*
X283506Y149240D01*
X283339Y149177D01*
X283185Y149101D01*
X283044Y149010D01*
X282915Y148905D01*
X282794Y148782D01*
X282677Y148634D01*
X282453Y148266D01*
X282243Y147802D01*
X282048Y147241D01*
X282013Y147241D01*
X281943Y149177D01*
X280454Y149177D01*
X280493Y148021D01*
X280506Y146970D01*
X280506Y139700D01*
X282083Y139700D01*
X282083Y144640D01*
G37*
G36*
X194320Y149177D02*
X192744Y149177D01*
X192744Y139700D01*
X194320Y139700D01*
X194320Y149177D01*
G37*
G36*
X203289Y149177D02*
X201712Y149177D01*
X201712Y139700D01*
X203289Y139700D01*
X203289Y149177D01*
G37*
%LPC*%
G36*
X156467Y140714D02*
X156291Y140734D01*
X156126Y140766D01*
X155972Y140812D01*
X155829Y140871D01*
X155697Y140944D01*
X155577Y141029D01*
X155467Y141128D01*
X155370Y141238D01*
X155285Y141360D01*
X155214Y141492D01*
X155155Y141636D01*
X155110Y141790D01*
X155077Y141955D01*
X155058Y142132D01*
X155051Y142319D01*
X155070Y142657D01*
X155128Y142960D01*
X155224Y143230D01*
X155358Y143466D01*
X155528Y143671D01*
X155731Y143847D01*
X155968Y143995D01*
X156238Y144114D01*
X156558Y144207D01*
X156946Y144276D01*
X157401Y144321D01*
X157924Y144342D01*
X159649Y144377D01*
X159649Y143598D01*
X159625Y143237D01*
X159552Y142880D01*
X159430Y142529D01*
X159260Y142183D01*
X159047Y141858D01*
X158799Y141569D01*
X158515Y141317D01*
X158195Y141101D01*
X157846Y140929D01*
X157473Y140806D01*
X157075Y140732D01*
X156868Y140713D01*
X156654Y140707D01*
X156467Y140714D01*
G37*
G36*
X176404Y140714D02*
X176228Y140734D01*
X176063Y140766D01*
X175909Y140812D01*
X175767Y140871D01*
X175635Y140944D01*
X175514Y141029D01*
X175405Y141128D01*
X175307Y141238D01*
X175223Y141360D01*
X175151Y141492D01*
X175093Y141636D01*
X175047Y141790D01*
X175015Y141955D01*
X174995Y142132D01*
X174989Y142319D01*
X175008Y142657D01*
X175065Y142960D01*
X175161Y143230D01*
X175295Y143466D01*
X175465Y143671D01*
X175668Y143847D01*
X175905Y143995D01*
X176175Y144114D01*
X176496Y144207D01*
X176884Y144276D01*
X177339Y144321D01*
X177861Y144342D01*
X179587Y144377D01*
X179587Y143598D01*
X179562Y143237D01*
X179489Y142880D01*
X179368Y142529D01*
X179197Y142183D01*
X178984Y141858D01*
X178736Y141569D01*
X178452Y141317D01*
X178133Y141101D01*
X177784Y140929D01*
X177410Y140806D01*
X177013Y140732D01*
X176805Y140713D01*
X176591Y140707D01*
X176404Y140714D01*
G37*
G36*
X215916Y145314D02*
X215939Y145640D01*
X215981Y145948D01*
X216042Y146239D01*
X216123Y146511D01*
X216223Y146765D01*
X216342Y147002D01*
X216481Y147220D01*
X216639Y147421D01*
X216814Y147600D01*
X217004Y147756D01*
X217208Y147888D01*
X217428Y147995D01*
X217663Y148079D01*
X217912Y148139D01*
X218177Y148175D01*
X218456Y148187D01*
X218743Y148176D01*
X219013Y148144D01*
X219265Y148090D01*
X219501Y148015D01*
X219719Y147918D01*
X219919Y147800D01*
X220103Y147661D01*
X220269Y147499D01*
X220419Y147315D01*
X220553Y147105D01*
X220672Y146870D01*
X220775Y146609D01*
X220862Y146324D01*
X220934Y146012D01*
X220990Y145676D01*
X221031Y145314D01*
X215916Y145314D01*
G37*
G36*
X242822Y145314D02*
X242845Y145640D01*
X242887Y145948D01*
X242949Y146239D01*
X243029Y146511D01*
X243129Y146765D01*
X243249Y147002D01*
X243387Y147220D01*
X243545Y147421D01*
X243720Y147600D01*
X243910Y147756D01*
X244115Y147888D01*
X244334Y147995D01*
X244569Y148079D01*
X244819Y148139D01*
X245083Y148175D01*
X245362Y148187D01*
X245649Y148176D01*
X245919Y148144D01*
X246172Y148090D01*
X246407Y148015D01*
X246625Y147918D01*
X246826Y147800D01*
X247009Y147661D01*
X247175Y147499D01*
X247325Y147315D01*
X247459Y147105D01*
X247578Y146870D01*
X247681Y146609D01*
X247769Y146324D01*
X247840Y146012D01*
X247897Y145676D01*
X247937Y145314D01*
X242822Y145314D01*
G37*
%LPD*%
G36*
X194320Y152698D02*
X192744Y152698D01*
X192744Y151191D01*
X194320Y151191D01*
X194320Y152698D01*
G37*
G36*
X203289Y152698D02*
X201712Y152698D01*
X201712Y151191D01*
X203289Y151191D01*
X203289Y152698D01*
G37*
G36*
X707997Y96095D02*
X708465Y96128D01*
X708916Y96184D01*
X709351Y96262D01*
X709769Y96362D01*
X710171Y96485D01*
X710556Y96630D01*
X710924Y96797D01*
X711274Y96986D01*
X711603Y97195D01*
X711911Y97424D01*
X712199Y97673D01*
X712465Y97943D01*
X712711Y98233D01*
X712936Y98543D01*
X713140Y98873D01*
X713322Y99221D01*
X713479Y99585D01*
X713612Y99965D01*
X713721Y100361D01*
X713806Y100772D01*
X713867Y101199D01*
X713903Y101642D01*
X713915Y102101D01*
X713902Y102549D01*
X713863Y102984D01*
X713798Y103405D01*
X713707Y103812D01*
X713590Y104205D01*
X713447Y104584D01*
X713278Y104950D01*
X713083Y105302D01*
X712863Y105637D01*
X712619Y105953D01*
X712352Y106250D01*
X712061Y106527D01*
X711745Y106785D01*
X711406Y107024D01*
X711044Y107243D01*
X710657Y107443D01*
X709974Y106077D01*
X710285Y105909D01*
X710575Y105731D01*
X710846Y105542D01*
X711097Y105344D01*
X711327Y105136D01*
X711538Y104917D01*
X711728Y104689D01*
X711899Y104450D01*
X712049Y104201D01*
X712179Y103943D01*
X712289Y103674D01*
X712380Y103395D01*
X712450Y103106D01*
X712500Y102807D01*
X712530Y102498D01*
X712540Y102179D01*
X712519Y101687D01*
X712454Y101220D01*
X712346Y100780D01*
X712195Y100365D01*
X712001Y99977D01*
X711764Y99615D01*
X711484Y99279D01*
X711161Y98969D01*
X710802Y98691D01*
X710415Y98450D01*
X710001Y98246D01*
X709559Y98079D01*
X709089Y97949D01*
X708591Y97857D01*
X708066Y97801D01*
X707513Y97783D01*
X706954Y97800D01*
X706426Y97854D01*
X705929Y97943D01*
X705462Y98067D01*
X705026Y98227D01*
X704620Y98423D01*
X704245Y98654D01*
X703900Y98921D01*
X703591Y99220D01*
X703323Y99547D01*
X703097Y99903D01*
X702911Y100287D01*
X702767Y100700D01*
X702664Y101141D01*
X702602Y101611D01*
X702582Y102109D01*
X702591Y102430D01*
X702617Y102740D01*
X702662Y103038D01*
X702724Y103326D01*
X702804Y103602D01*
X702902Y103867D01*
X703018Y104121D01*
X703151Y104365D01*
X703301Y104594D01*
X703467Y104807D01*
X703649Y105004D01*
X703847Y105185D01*
X704061Y105349D01*
X704291Y105497D01*
X704536Y105629D01*
X704798Y105744D01*
X704272Y107329D01*
X703905Y107163D01*
X703561Y106975D01*
X703240Y106764D01*
X702943Y106532D01*
X702669Y106278D01*
X702418Y106002D01*
X702190Y105705D01*
X701986Y105385D01*
X701805Y105044D01*
X701649Y104683D01*
X701516Y104302D01*
X701408Y103900D01*
X701324Y103479D01*
X701263Y103037D01*
X701227Y102574D01*
X701215Y102092D01*
X701222Y101744D01*
X701241Y101406D01*
X701274Y101077D01*
X701320Y100758D01*
X701379Y100449D01*
X701451Y100149D01*
X701536Y99859D01*
X701634Y99578D01*
X701745Y99307D01*
X701869Y99045D01*
X702006Y98793D01*
X702156Y98551D01*
X702496Y98095D01*
X702888Y97677D01*
X703326Y97304D01*
X703805Y96980D01*
X704323Y96706D01*
X704597Y96588D01*
X704881Y96482D01*
X705175Y96389D01*
X705479Y96308D01*
X705793Y96239D01*
X706117Y96183D01*
X706451Y96139D01*
X706795Y96108D01*
X707149Y96090D01*
X707513Y96083D01*
X707997Y96095D01*
G37*
G36*
X713740Y117215D02*
X712400Y117215D01*
X712400Y110778D01*
X712090Y110930D01*
X711775Y111124D01*
X711453Y111359D01*
X711126Y111636D01*
X710785Y111959D01*
X710424Y112334D01*
X710043Y112761D01*
X709641Y113239D01*
X708945Y114080D01*
X708347Y114774D01*
X707846Y115319D01*
X707443Y115717D01*
X707088Y116021D01*
X706733Y116286D01*
X706378Y116510D01*
X706024Y116694D01*
X705668Y116838D01*
X705312Y116940D01*
X704955Y117002D01*
X704596Y117022D01*
X704203Y117007D01*
X703832Y116960D01*
X703485Y116881D01*
X703161Y116772D01*
X702860Y116631D01*
X702582Y116458D01*
X702327Y116255D01*
X702096Y116020D01*
X701889Y115755D01*
X701710Y115464D01*
X701559Y115146D01*
X701435Y114801D01*
X701339Y114429D01*
X701270Y114030D01*
X701229Y113604D01*
X701215Y113151D01*
X701229Y112736D01*
X701270Y112340D01*
X701338Y111964D01*
X701434Y111606D01*
X701557Y111268D01*
X701708Y110950D01*
X701886Y110650D01*
X702091Y110370D01*
X702320Y110114D01*
X702567Y109886D01*
X702833Y109687D01*
X703118Y109515D01*
X703422Y109372D01*
X703745Y109258D01*
X704087Y109171D01*
X704447Y109113D01*
X704596Y110725D01*
X704356Y110762D01*
X704129Y110816D01*
X703916Y110886D01*
X703717Y110974D01*
X703532Y111078D01*
X703360Y111199D01*
X703203Y111337D01*
X703059Y111491D01*
X702931Y111660D01*
X702819Y111840D01*
X702725Y112031D01*
X702648Y112233D01*
X702589Y112446D01*
X702546Y112670D01*
X702520Y112905D01*
X702512Y113151D01*
X702520Y113409D01*
X702547Y113652D01*
X702590Y113881D01*
X702652Y114095D01*
X702731Y114295D01*
X702827Y114480D01*
X702941Y114650D01*
X703072Y114807D01*
X703219Y114946D01*
X703381Y115067D01*
X703557Y115169D01*
X703747Y115253D01*
X703951Y115318D01*
X704169Y115365D01*
X704402Y115393D01*
X704649Y115402D01*
X705015Y115380D01*
X705362Y115316D01*
X705690Y115207D01*
X705997Y115056D01*
X706292Y114870D01*
X706580Y114657D01*
X706861Y114416D01*
X707136Y114150D01*
X707679Y113555D01*
X708222Y112893D01*
X708788Y112193D01*
X709400Y111487D01*
X709727Y111136D01*
X710072Y110794D01*
X710436Y110460D01*
X710819Y110134D01*
X711226Y109824D01*
X711663Y109539D01*
X712130Y109279D01*
X712628Y109043D01*
X713740Y109043D01*
X713740Y117215D01*
G37*
G36*
X713740Y93532D02*
X701399Y93532D01*
X701399Y91859D01*
X713740Y91859D01*
X713740Y93532D01*
G37*
G36*
X810867Y98618D02*
X811335Y98651D01*
X811786Y98707D01*
X812221Y98785D01*
X812639Y98885D01*
X813041Y99008D01*
X813426Y99153D01*
X813794Y99320D01*
X814144Y99509D01*
X814473Y99718D01*
X814781Y99947D01*
X815069Y100196D01*
X815335Y100466D01*
X815581Y100756D01*
X815806Y101066D01*
X816010Y101396D01*
X816192Y101744D01*
X816349Y102109D01*
X816482Y102488D01*
X816591Y102884D01*
X816676Y103295D01*
X816737Y103722D01*
X816773Y104165D01*
X816785Y104624D01*
X816772Y105072D01*
X816733Y105507D01*
X816668Y105928D01*
X816577Y106335D01*
X816460Y106728D01*
X816317Y107108D01*
X816148Y107473D01*
X815953Y107825D01*
X815733Y108160D01*
X815489Y108476D01*
X815222Y108773D01*
X814931Y109050D01*
X814615Y109308D01*
X814276Y109547D01*
X813914Y109766D01*
X813527Y109966D01*
X812844Y108600D01*
X813155Y108432D01*
X813445Y108254D01*
X813716Y108065D01*
X813967Y107867D01*
X814197Y107659D01*
X814408Y107440D01*
X814598Y107212D01*
X814769Y106973D01*
X814919Y106724D01*
X815049Y106466D01*
X815159Y106197D01*
X815250Y105918D01*
X815320Y105629D01*
X815370Y105330D01*
X815400Y105021D01*
X815410Y104702D01*
X815389Y104210D01*
X815324Y103743D01*
X815216Y103303D01*
X815065Y102888D01*
X814871Y102500D01*
X814634Y102138D01*
X814354Y101802D01*
X814031Y101492D01*
X813672Y101214D01*
X813285Y100973D01*
X812871Y100769D01*
X812429Y100602D01*
X811959Y100473D01*
X811461Y100380D01*
X810936Y100324D01*
X810383Y100306D01*
X809824Y100323D01*
X809296Y100377D01*
X808799Y100466D01*
X808332Y100590D01*
X807896Y100750D01*
X807490Y100946D01*
X807115Y101177D01*
X806770Y101444D01*
X806461Y101743D01*
X806193Y102071D01*
X805967Y102426D01*
X805781Y102811D01*
X805637Y103223D01*
X805534Y103665D01*
X805472Y104134D01*
X805452Y104632D01*
X805461Y104953D01*
X805487Y105263D01*
X805532Y105561D01*
X805594Y105849D01*
X805674Y106125D01*
X805772Y106390D01*
X805888Y106645D01*
X806021Y106888D01*
X806171Y107117D01*
X806337Y107330D01*
X806519Y107527D01*
X806717Y107708D01*
X806931Y107872D01*
X807161Y108020D01*
X807406Y108152D01*
X807668Y108267D01*
X807142Y109852D01*
X806775Y109686D01*
X806431Y109498D01*
X806110Y109288D01*
X805813Y109055D01*
X805539Y108801D01*
X805288Y108526D01*
X805060Y108228D01*
X804856Y107908D01*
X804675Y107567D01*
X804519Y107206D01*
X804386Y106825D01*
X804278Y106424D01*
X804194Y106002D01*
X804133Y105560D01*
X804097Y105097D01*
X804085Y104615D01*
X804092Y104267D01*
X804111Y103929D01*
X804144Y103600D01*
X804190Y103281D01*
X804249Y102972D01*
X804321Y102672D01*
X804406Y102382D01*
X804504Y102101D01*
X804615Y101830D01*
X804739Y101569D01*
X804876Y101317D01*
X805026Y101074D01*
X805366Y100618D01*
X805758Y100201D01*
X806196Y99827D01*
X806675Y99503D01*
X807193Y99229D01*
X807467Y99111D01*
X807751Y99005D01*
X808045Y98912D01*
X808349Y98831D01*
X808663Y98762D01*
X808987Y98706D01*
X809321Y98663D01*
X809665Y98631D01*
X810019Y98613D01*
X810383Y98607D01*
X810867Y98618D01*
G37*
G36*
X816610Y119765D02*
X815270Y119765D01*
X815270Y116760D01*
X804269Y116760D01*
X804269Y115306D01*
X806275Y112390D01*
X807764Y112390D01*
X805776Y115175D01*
X815270Y115175D01*
X815270Y112031D01*
X816610Y112031D01*
X816610Y119765D01*
G37*
G36*
X816610Y96055D02*
X804269Y96055D01*
X804269Y94382D01*
X816610Y94382D01*
X816610Y96055D01*
G37*
D10*
X608838Y19050D02*
X608838Y25400D01*
X608838Y31750D01*
D11*
X608838Y25400D02*
X621030Y25400D01*
D10*
X602488Y25400D02*
X602488Y19050D01*
X602488Y25400D02*
X602488Y31750D01*
D11*
X602488Y25400D02*
X590550Y25400D01*
X642620Y15240D02*
X642620Y35560D01*
X640080Y38100D02*
X571500Y38100D01*
X568960Y35560D02*
X568960Y15240D01*
X571500Y12700D02*
X640080Y12700D01*
X571500Y12700D02*
X571400Y12702D01*
X571301Y12708D01*
X571201Y12718D01*
X571103Y12731D01*
X571004Y12749D01*
X570907Y12770D01*
X570811Y12795D01*
X570715Y12824D01*
X570621Y12857D01*
X570528Y12893D01*
X570437Y12933D01*
X570347Y12977D01*
X570259Y13024D01*
X570173Y13074D01*
X570089Y13128D01*
X570007Y13185D01*
X569928Y13245D01*
X569850Y13309D01*
X569776Y13375D01*
X569704Y13444D01*
X569635Y13516D01*
X569569Y13590D01*
X569505Y13668D01*
X569445Y13747D01*
X569388Y13829D01*
X569334Y13913D01*
X569284Y13999D01*
X569237Y14087D01*
X569193Y14177D01*
X569153Y14268D01*
X569117Y14361D01*
X569084Y14455D01*
X569055Y14551D01*
X569030Y14647D01*
X569009Y14744D01*
X568991Y14843D01*
X568978Y14941D01*
X568968Y15041D01*
X568962Y15140D01*
X568960Y15240D01*
X568960Y35560D02*
X568962Y35660D01*
X568968Y35759D01*
X568978Y35859D01*
X568991Y35957D01*
X569009Y36056D01*
X569030Y36153D01*
X569055Y36249D01*
X569084Y36345D01*
X569117Y36439D01*
X569153Y36532D01*
X569193Y36623D01*
X569237Y36713D01*
X569284Y36801D01*
X569334Y36887D01*
X569388Y36971D01*
X569445Y37053D01*
X569505Y37132D01*
X569569Y37210D01*
X569635Y37284D01*
X569704Y37356D01*
X569776Y37425D01*
X569850Y37491D01*
X569928Y37555D01*
X570007Y37615D01*
X570089Y37672D01*
X570173Y37726D01*
X570259Y37776D01*
X570347Y37823D01*
X570437Y37867D01*
X570528Y37907D01*
X570621Y37943D01*
X570715Y37976D01*
X570811Y38005D01*
X570907Y38030D01*
X571004Y38051D01*
X571103Y38069D01*
X571201Y38082D01*
X571301Y38092D01*
X571400Y38098D01*
X571500Y38100D01*
X640080Y38100D02*
X640180Y38098D01*
X640279Y38092D01*
X640379Y38082D01*
X640477Y38069D01*
X640576Y38051D01*
X640673Y38030D01*
X640769Y38005D01*
X640865Y37976D01*
X640959Y37943D01*
X641052Y37907D01*
X641143Y37867D01*
X641233Y37823D01*
X641321Y37776D01*
X641407Y37726D01*
X641491Y37672D01*
X641573Y37615D01*
X641652Y37555D01*
X641730Y37491D01*
X641804Y37425D01*
X641876Y37356D01*
X641945Y37284D01*
X642011Y37210D01*
X642075Y37132D01*
X642135Y37053D01*
X642192Y36971D01*
X642246Y36887D01*
X642296Y36801D01*
X642343Y36713D01*
X642387Y36623D01*
X642427Y36532D01*
X642463Y36439D01*
X642496Y36345D01*
X642525Y36249D01*
X642550Y36153D01*
X642571Y36056D01*
X642589Y35957D01*
X642602Y35859D01*
X642612Y35759D01*
X642618Y35660D01*
X642620Y35560D01*
X642620Y15240D02*
X642618Y15140D01*
X642612Y15041D01*
X642602Y14941D01*
X642589Y14843D01*
X642571Y14744D01*
X642550Y14647D01*
X642525Y14551D01*
X642496Y14455D01*
X642463Y14361D01*
X642427Y14268D01*
X642387Y14177D01*
X642343Y14087D01*
X642296Y13999D01*
X642246Y13913D01*
X642192Y13829D01*
X642135Y13747D01*
X642075Y13668D01*
X642011Y13590D01*
X641945Y13516D01*
X641876Y13444D01*
X641804Y13375D01*
X641730Y13309D01*
X641652Y13245D01*
X641573Y13185D01*
X641491Y13128D01*
X641407Y13074D01*
X641321Y13024D01*
X641233Y12977D01*
X641143Y12933D01*
X641052Y12893D01*
X640959Y12857D01*
X640865Y12824D01*
X640769Y12795D01*
X640673Y12770D01*
X640576Y12749D01*
X640477Y12731D01*
X640379Y12718D01*
X640279Y12708D01*
X640180Y12702D01*
X640080Y12700D01*
D12*
X563880Y109220D02*
X563880Y147320D01*
X571500Y147320D01*
X579120Y147320D01*
X579120Y109220D01*
X571500Y109220D01*
X563880Y109220D01*
X571500Y147320D02*
X571500Y149860D01*
X571500Y109220D02*
X571500Y106680D01*
X565150Y140970D02*
X577850Y140970D01*
D11*
X851906Y195074D02*
X893806Y195074D01*
D13*
X848138Y166845D02*
X849380Y167429D01*
X849379Y167428D02*
X849659Y166856D01*
X849953Y166291D01*
X850261Y165733D01*
X850582Y165183D01*
X850917Y164641D01*
X851265Y164107D01*
X851626Y163582D01*
X852000Y163066D01*
X852386Y162560D01*
X852784Y162063D01*
X853195Y161575D01*
X853617Y161098D01*
X854051Y160632D01*
X854497Y160176D01*
X854953Y159732D01*
X855420Y159299D01*
X855898Y158877D01*
X856385Y158467D01*
X856883Y158069D01*
X857390Y157684D01*
X857907Y157311D01*
X858433Y156951D01*
X858967Y156604D01*
X859509Y156270D01*
X860060Y155949D01*
X860618Y155642D01*
X861184Y155349D01*
X861757Y155070D01*
X862336Y154805D01*
X862922Y154554D01*
X863513Y154318D01*
X864110Y154096D01*
X864713Y153889D01*
X865320Y153697D01*
X865932Y153519D01*
X866548Y153357D01*
X867168Y153210D01*
X867792Y153078D01*
X868418Y152962D01*
X869047Y152861D01*
X869678Y152775D01*
X870312Y152705D01*
X870946Y152650D01*
X871582Y152611D01*
X872219Y152588D01*
X872856Y152580D01*
X873493Y152588D01*
X874130Y152611D01*
X874766Y152650D01*
X875400Y152705D01*
X876034Y152775D01*
X876665Y152861D01*
X877294Y152962D01*
X877920Y153078D01*
X878544Y153210D01*
X879164Y153357D01*
X879780Y153519D01*
X880392Y153697D01*
X880999Y153889D01*
X881602Y154096D01*
X882199Y154318D01*
X882790Y154554D01*
X883376Y154805D01*
X883955Y155070D01*
X884528Y155349D01*
X885094Y155642D01*
X885652Y155949D01*
X886203Y156270D01*
X886745Y156604D01*
X887279Y156951D01*
X887805Y157311D01*
X888322Y157684D01*
X888829Y158069D01*
X889327Y158467D01*
X889814Y158877D01*
X890292Y159299D01*
X890759Y159732D01*
X891215Y160176D01*
X891661Y160632D01*
X892095Y161098D01*
X892517Y161575D01*
X892928Y162063D01*
X893326Y162560D01*
X893712Y163066D01*
X894086Y163582D01*
X894447Y164107D01*
X894795Y164641D01*
X895130Y165183D01*
X895451Y165733D01*
X895759Y166291D01*
X896053Y166856D01*
X896333Y167428D01*
X897574Y166845D01*
X897574Y166844D01*
X897279Y166241D01*
X896970Y165646D01*
X896646Y165059D01*
X896308Y164480D01*
X895955Y163909D01*
X895589Y163347D01*
X895209Y162794D01*
X894816Y162251D01*
X894409Y161717D01*
X893989Y161194D01*
X893557Y160681D01*
X893112Y160178D01*
X892656Y159687D01*
X892187Y159207D01*
X891706Y158739D01*
X891214Y158283D01*
X890712Y157839D01*
X890198Y157407D01*
X889674Y156989D01*
X889140Y156583D01*
X888596Y156190D01*
X888043Y155811D01*
X887480Y155445D01*
X886909Y155094D01*
X886329Y154756D01*
X885741Y154433D01*
X885146Y154124D01*
X884543Y153830D01*
X883933Y153551D01*
X883316Y153287D01*
X882693Y153038D01*
X882064Y152804D01*
X881430Y152586D01*
X880790Y152384D01*
X880146Y152197D01*
X879497Y152026D01*
X878845Y151872D01*
X878188Y151733D01*
X877529Y151610D01*
X876867Y151504D01*
X876202Y151413D01*
X875535Y151340D01*
X874867Y151282D01*
X874197Y151241D01*
X873527Y151216D01*
X872856Y151208D01*
X872185Y151216D01*
X871515Y151241D01*
X870845Y151282D01*
X870177Y151340D01*
X869510Y151413D01*
X868845Y151504D01*
X868183Y151610D01*
X867524Y151733D01*
X866867Y151872D01*
X866215Y152026D01*
X865566Y152197D01*
X864922Y152384D01*
X864282Y152586D01*
X863648Y152804D01*
X863019Y153038D01*
X862396Y153287D01*
X861779Y153551D01*
X861169Y153830D01*
X860566Y154124D01*
X859971Y154433D01*
X859383Y154756D01*
X858803Y155094D01*
X858232Y155445D01*
X857669Y155811D01*
X857116Y156190D01*
X856572Y156583D01*
X856038Y156989D01*
X855514Y157407D01*
X855000Y157839D01*
X854498Y158283D01*
X854006Y158739D01*
X853525Y159207D01*
X853056Y159687D01*
X852600Y160178D01*
X852155Y160681D01*
X851723Y161194D01*
X851303Y161717D01*
X850896Y162251D01*
X850503Y162794D01*
X850123Y163347D01*
X849757Y163909D01*
X849404Y164480D01*
X849066Y165059D01*
X848742Y165646D01*
X848433Y166241D01*
X848138Y166844D01*
X848267Y166905D01*
X848560Y166306D01*
X848868Y165714D01*
X849191Y165129D01*
X849527Y164553D01*
X849878Y163985D01*
X850242Y163426D01*
X850620Y162876D01*
X851011Y162336D01*
X851416Y161805D01*
X851833Y161284D01*
X852263Y160774D01*
X852706Y160274D01*
X853160Y159786D01*
X853627Y159308D01*
X854104Y158843D01*
X854594Y158389D01*
X855094Y157947D01*
X855605Y157518D01*
X856126Y157101D01*
X856657Y156697D01*
X857198Y156307D01*
X857749Y155930D01*
X858308Y155566D01*
X858877Y155216D01*
X859453Y154880D01*
X860038Y154559D01*
X860631Y154252D01*
X861230Y153959D01*
X861837Y153682D01*
X862451Y153419D01*
X863070Y153171D01*
X863696Y152939D01*
X864327Y152722D01*
X864963Y152521D01*
X865604Y152335D01*
X866249Y152165D01*
X866899Y152011D01*
X867552Y151873D01*
X868208Y151751D01*
X868866Y151645D01*
X869528Y151555D01*
X870191Y151482D01*
X870856Y151425D01*
X871522Y151384D01*
X872189Y151359D01*
X872856Y151351D01*
X873523Y151359D01*
X874190Y151384D01*
X874856Y151425D01*
X875521Y151482D01*
X876184Y151555D01*
X876846Y151645D01*
X877504Y151751D01*
X878160Y151873D01*
X878813Y152011D01*
X879463Y152165D01*
X880108Y152335D01*
X880749Y152521D01*
X881385Y152722D01*
X882016Y152939D01*
X882642Y153171D01*
X883261Y153419D01*
X883875Y153682D01*
X884482Y153959D01*
X885081Y154252D01*
X885674Y154559D01*
X886259Y154880D01*
X886835Y155216D01*
X887404Y155566D01*
X887963Y155930D01*
X888514Y156307D01*
X889055Y156697D01*
X889586Y157101D01*
X890107Y157518D01*
X890618Y157947D01*
X891118Y158389D01*
X891608Y158843D01*
X892085Y159308D01*
X892552Y159786D01*
X893006Y160274D01*
X893449Y160774D01*
X893879Y161284D01*
X894296Y161805D01*
X894701Y162336D01*
X895092Y162876D01*
X895470Y163426D01*
X895834Y163985D01*
X896185Y164553D01*
X896521Y165129D01*
X896844Y165714D01*
X897152Y166306D01*
X897445Y166905D01*
X897316Y166966D01*
X897024Y166370D01*
X896718Y165781D01*
X896397Y165199D01*
X896062Y164626D01*
X895713Y164061D01*
X895351Y163505D01*
X894975Y162958D01*
X894586Y162421D01*
X894183Y161893D01*
X893768Y161375D01*
X893340Y160867D01*
X892900Y160370D01*
X892448Y159884D01*
X891984Y159409D01*
X891509Y158946D01*
X891022Y158495D01*
X890525Y158055D01*
X890016Y157628D01*
X889498Y157214D01*
X888969Y156812D01*
X888431Y156424D01*
X887884Y156048D01*
X887327Y155687D01*
X886762Y155339D01*
X886188Y155005D01*
X885606Y154685D01*
X885017Y154379D01*
X884420Y154089D01*
X883817Y153812D01*
X883207Y153551D01*
X882590Y153305D01*
X881968Y153074D01*
X881340Y152858D01*
X880707Y152658D01*
X880070Y152473D01*
X879428Y152304D01*
X878782Y152151D01*
X878133Y152013D01*
X877480Y151892D01*
X876825Y151786D01*
X876167Y151697D01*
X875507Y151624D01*
X874846Y151567D01*
X874183Y151527D01*
X873520Y151502D01*
X872856Y151494D01*
X872192Y151502D01*
X871529Y151527D01*
X870866Y151567D01*
X870205Y151624D01*
X869545Y151697D01*
X868887Y151786D01*
X868232Y151892D01*
X867579Y152013D01*
X866930Y152151D01*
X866284Y152304D01*
X865642Y152473D01*
X865005Y152658D01*
X864372Y152858D01*
X863744Y153074D01*
X863122Y153305D01*
X862505Y153551D01*
X861895Y153812D01*
X861292Y154089D01*
X860695Y154379D01*
X860106Y154685D01*
X859524Y155005D01*
X858950Y155339D01*
X858385Y155687D01*
X857828Y156048D01*
X857281Y156424D01*
X856743Y156812D01*
X856214Y157214D01*
X855696Y157628D01*
X855187Y158055D01*
X854690Y158495D01*
X854203Y158946D01*
X853728Y159409D01*
X853264Y159884D01*
X852812Y160370D01*
X852372Y160867D01*
X851944Y161375D01*
X851529Y161893D01*
X851126Y162421D01*
X850737Y162958D01*
X850361Y163505D01*
X849999Y164061D01*
X849650Y164626D01*
X849315Y165199D01*
X848994Y165781D01*
X848688Y166370D01*
X848396Y166966D01*
X848526Y167027D01*
X848816Y166434D01*
X849121Y165848D01*
X849440Y165270D01*
X849773Y164700D01*
X850120Y164138D01*
X850480Y163585D01*
X850854Y163040D01*
X851241Y162506D01*
X851642Y161981D01*
X852055Y161465D01*
X852480Y160960D01*
X852918Y160466D01*
X853368Y159983D01*
X853829Y159510D01*
X854302Y159050D01*
X854786Y158601D01*
X855281Y158164D01*
X855786Y157739D01*
X856302Y157326D01*
X856828Y156927D01*
X857363Y156540D01*
X857908Y156167D01*
X858462Y155807D01*
X859024Y155461D01*
X859594Y155129D01*
X860173Y154811D01*
X860759Y154507D01*
X861353Y154218D01*
X861953Y153943D01*
X862560Y153683D01*
X863173Y153438D01*
X863792Y153208D01*
X864417Y152994D01*
X865046Y152794D01*
X865680Y152611D01*
X866319Y152443D01*
X866961Y152290D01*
X867607Y152153D01*
X868257Y152033D01*
X868908Y151928D01*
X869563Y151839D01*
X870219Y151766D01*
X870877Y151710D01*
X871536Y151669D01*
X872196Y151645D01*
X872856Y151637D01*
X873516Y151645D01*
X874176Y151669D01*
X874835Y151710D01*
X875493Y151766D01*
X876149Y151839D01*
X876804Y151928D01*
X877455Y152033D01*
X878105Y152153D01*
X878751Y152290D01*
X879393Y152443D01*
X880032Y152611D01*
X880666Y152794D01*
X881295Y152994D01*
X881920Y153208D01*
X882539Y153438D01*
X883152Y153683D01*
X883759Y153943D01*
X884359Y154218D01*
X884953Y154507D01*
X885539Y154811D01*
X886118Y155129D01*
X886688Y155461D01*
X887250Y155807D01*
X887804Y156167D01*
X888349Y156540D01*
X888884Y156927D01*
X889410Y157326D01*
X889926Y157739D01*
X890431Y158164D01*
X890926Y158601D01*
X891410Y159050D01*
X891883Y159510D01*
X892344Y159983D01*
X892794Y160466D01*
X893232Y160960D01*
X893657Y161465D01*
X894070Y161981D01*
X894471Y162506D01*
X894858Y163040D01*
X895232Y163585D01*
X895592Y164138D01*
X895939Y164700D01*
X896272Y165270D01*
X896591Y165848D01*
X896896Y166434D01*
X897186Y167027D01*
X897057Y167088D01*
X896768Y166498D01*
X896465Y165915D01*
X896148Y165340D01*
X895817Y164773D01*
X895472Y164214D01*
X895113Y163664D01*
X894741Y163123D01*
X894356Y162591D01*
X893958Y162068D01*
X893547Y161556D01*
X893124Y161054D01*
X892688Y160562D01*
X892241Y160081D01*
X891782Y159611D01*
X891311Y159153D01*
X890830Y158706D01*
X890338Y158272D01*
X889835Y157849D01*
X889322Y157439D01*
X888799Y157042D01*
X888266Y156657D01*
X887725Y156286D01*
X887174Y155928D01*
X886615Y155584D01*
X886047Y155253D01*
X885471Y154937D01*
X884888Y154635D01*
X884298Y154347D01*
X883701Y154074D01*
X883097Y153815D01*
X882487Y153572D01*
X881871Y153343D01*
X881250Y153129D01*
X880624Y152931D01*
X879993Y152748D01*
X879358Y152581D01*
X878719Y152430D01*
X878077Y152294D01*
X877431Y152174D01*
X876783Y152069D01*
X876132Y151981D01*
X875479Y151909D01*
X874825Y151852D01*
X874169Y151812D01*
X873513Y151788D01*
X872856Y151780D01*
X872199Y151788D01*
X871543Y151812D01*
X870887Y151852D01*
X870233Y151909D01*
X869580Y151981D01*
X868929Y152069D01*
X868281Y152174D01*
X867635Y152294D01*
X866993Y152430D01*
X866354Y152581D01*
X865719Y152748D01*
X865088Y152931D01*
X864462Y153129D01*
X863841Y153343D01*
X863225Y153572D01*
X862615Y153815D01*
X862011Y154074D01*
X861414Y154347D01*
X860824Y154635D01*
X860241Y154937D01*
X859665Y155253D01*
X859097Y155584D01*
X858538Y155928D01*
X857987Y156286D01*
X857446Y156657D01*
X856913Y157042D01*
X856390Y157439D01*
X855877Y157849D01*
X855374Y158272D01*
X854882Y158706D01*
X854401Y159153D01*
X853930Y159611D01*
X853471Y160081D01*
X853024Y160562D01*
X852588Y161054D01*
X852165Y161556D01*
X851754Y162068D01*
X851356Y162591D01*
X850971Y163123D01*
X850599Y163664D01*
X850240Y164214D01*
X849895Y164773D01*
X849564Y165340D01*
X849247Y165915D01*
X848944Y166498D01*
X848655Y167088D01*
X848785Y167149D01*
X849072Y166562D01*
X849373Y165982D01*
X849689Y165410D01*
X850018Y164846D01*
X850361Y164290D01*
X850718Y163743D01*
X851088Y163205D01*
X851471Y162676D01*
X851867Y162156D01*
X852276Y161646D01*
X852697Y161147D01*
X853130Y160658D01*
X853575Y160180D01*
X854032Y159712D01*
X854499Y159257D01*
X854978Y158812D01*
X855468Y158380D01*
X855968Y157960D01*
X856478Y157552D01*
X856998Y157156D01*
X857528Y156774D01*
X858067Y156405D01*
X858615Y156049D01*
X859171Y155706D01*
X859736Y155378D01*
X860308Y155063D01*
X860888Y154762D01*
X861475Y154476D01*
X862069Y154204D01*
X862670Y153947D01*
X863276Y153705D01*
X863889Y153477D01*
X864507Y153265D01*
X865129Y153068D01*
X865757Y152886D01*
X866389Y152720D01*
X867024Y152569D01*
X867663Y152434D01*
X868306Y152315D01*
X868951Y152211D01*
X869598Y152123D01*
X870247Y152051D01*
X870898Y151995D01*
X871550Y151955D01*
X872203Y151931D01*
X872856Y151923D01*
X873509Y151931D01*
X874162Y151955D01*
X874814Y151995D01*
X875465Y152051D01*
X876114Y152123D01*
X876761Y152211D01*
X877406Y152315D01*
X878049Y152434D01*
X878688Y152569D01*
X879323Y152720D01*
X879955Y152886D01*
X880583Y153068D01*
X881205Y153265D01*
X881823Y153477D01*
X882436Y153705D01*
X883042Y153947D01*
X883643Y154204D01*
X884237Y154476D01*
X884824Y154762D01*
X885404Y155063D01*
X885976Y155378D01*
X886541Y155706D01*
X887097Y156049D01*
X887645Y156405D01*
X888184Y156774D01*
X888714Y157156D01*
X889234Y157552D01*
X889744Y157960D01*
X890244Y158380D01*
X890734Y158812D01*
X891213Y159257D01*
X891680Y159712D01*
X892137Y160180D01*
X892582Y160658D01*
X893015Y161147D01*
X893436Y161646D01*
X893845Y162156D01*
X894241Y162676D01*
X894624Y163205D01*
X894994Y163743D01*
X895351Y164290D01*
X895694Y164846D01*
X896023Y165410D01*
X896339Y165982D01*
X896640Y166562D01*
X896927Y167149D01*
X896798Y167210D01*
X896512Y166626D01*
X896213Y166049D01*
X895899Y165481D01*
X895571Y164920D01*
X895230Y164367D01*
X894875Y163822D01*
X894507Y163287D01*
X894126Y162761D01*
X893732Y162244D01*
X893325Y161737D01*
X892907Y161240D01*
X892476Y160754D01*
X892033Y160278D01*
X891579Y159813D01*
X891114Y159360D01*
X890638Y158918D01*
X890150Y158488D01*
X889653Y158070D01*
X889146Y157664D01*
X888628Y157271D01*
X888101Y156891D01*
X887565Y156524D01*
X887021Y156170D01*
X886467Y155829D01*
X885906Y155502D01*
X885336Y155189D01*
X884760Y154890D01*
X884176Y154605D01*
X883585Y154335D01*
X882987Y154079D01*
X882384Y153838D01*
X881775Y153612D01*
X881160Y153401D01*
X880541Y153205D01*
X879917Y153024D01*
X879289Y152859D01*
X878656Y152709D01*
X878021Y152574D01*
X877382Y152455D01*
X876740Y152352D01*
X876097Y152265D01*
X875451Y152193D01*
X874804Y152138D01*
X874155Y152098D01*
X873506Y152074D01*
X872856Y152066D01*
X872206Y152074D01*
X871557Y152098D01*
X870908Y152138D01*
X870261Y152193D01*
X869615Y152265D01*
X868972Y152352D01*
X868330Y152455D01*
X867691Y152574D01*
X867056Y152709D01*
X866423Y152859D01*
X865795Y153024D01*
X865171Y153205D01*
X864552Y153401D01*
X863937Y153612D01*
X863328Y153838D01*
X862725Y154079D01*
X862127Y154335D01*
X861536Y154605D01*
X860952Y154890D01*
X860376Y155189D01*
X859806Y155502D01*
X859245Y155829D01*
X858691Y156170D01*
X858147Y156524D01*
X857611Y156891D01*
X857084Y157271D01*
X856566Y157664D01*
X856059Y158070D01*
X855562Y158488D01*
X855074Y158918D01*
X854598Y159360D01*
X854133Y159813D01*
X853679Y160278D01*
X853236Y160754D01*
X852805Y161240D01*
X852387Y161737D01*
X851980Y162244D01*
X851586Y162761D01*
X851205Y163287D01*
X850837Y163822D01*
X850482Y164367D01*
X850141Y164920D01*
X849813Y165481D01*
X849499Y166049D01*
X849200Y166626D01*
X848914Y167210D01*
X849043Y167270D01*
X849327Y166690D01*
X849626Y166117D01*
X849938Y165551D01*
X850264Y164993D01*
X850603Y164443D01*
X850956Y163902D01*
X851322Y163369D01*
X851701Y162846D01*
X852093Y162332D01*
X852497Y161828D01*
X852914Y161333D01*
X853342Y160850D01*
X853782Y160377D01*
X854234Y159914D01*
X854697Y159463D01*
X855171Y159024D01*
X855655Y158596D01*
X856150Y158180D01*
X856655Y157777D01*
X857169Y157386D01*
X857693Y157008D01*
X858226Y156642D01*
X858768Y156290D01*
X859318Y155952D01*
X859877Y155627D01*
X860443Y155315D01*
X861017Y155018D01*
X861598Y154735D01*
X862185Y154466D01*
X862779Y154211D01*
X863380Y153972D01*
X863985Y153747D01*
X864596Y153537D01*
X865213Y153342D01*
X865833Y153162D01*
X866458Y152997D01*
X867087Y152848D01*
X867719Y152714D01*
X868355Y152596D01*
X868993Y152494D01*
X869633Y152407D01*
X870275Y152336D01*
X870919Y152280D01*
X871564Y152241D01*
X872210Y152217D01*
X872856Y152209D01*
X873502Y152217D01*
X874148Y152241D01*
X874793Y152280D01*
X875437Y152336D01*
X876079Y152407D01*
X876719Y152494D01*
X877357Y152596D01*
X877993Y152714D01*
X878625Y152848D01*
X879254Y152997D01*
X879879Y153162D01*
X880499Y153342D01*
X881116Y153537D01*
X881727Y153747D01*
X882332Y153972D01*
X882933Y154211D01*
X883527Y154466D01*
X884114Y154735D01*
X884695Y155018D01*
X885269Y155315D01*
X885835Y155627D01*
X886394Y155952D01*
X886944Y156290D01*
X887486Y156642D01*
X888019Y157008D01*
X888543Y157386D01*
X889057Y157777D01*
X889562Y158180D01*
X890057Y158596D01*
X890541Y159024D01*
X891015Y159463D01*
X891478Y159914D01*
X891930Y160377D01*
X892370Y160850D01*
X892798Y161333D01*
X893215Y161828D01*
X893619Y162332D01*
X894011Y162846D01*
X894390Y163369D01*
X894756Y163902D01*
X895109Y164443D01*
X895448Y164993D01*
X895774Y165551D01*
X896086Y166117D01*
X896385Y166690D01*
X896669Y167270D01*
X896539Y167331D01*
X896257Y166754D01*
X895960Y166184D01*
X895650Y165621D01*
X895325Y165066D01*
X894988Y164519D01*
X894637Y163981D01*
X894273Y163451D01*
X893896Y162931D01*
X893506Y162420D01*
X893104Y161918D01*
X892690Y161427D01*
X892264Y160946D01*
X891826Y160475D01*
X891377Y160015D01*
X890916Y159567D01*
X890445Y159130D01*
X889963Y158704D01*
X889471Y158291D01*
X888969Y157890D01*
X888458Y157501D01*
X887936Y157125D01*
X887406Y156761D01*
X886867Y156411D01*
X886320Y156074D01*
X885765Y155751D01*
X885201Y155441D01*
X884631Y155146D01*
X884053Y154864D01*
X883469Y154596D01*
X882878Y154343D01*
X882281Y154105D01*
X881678Y153881D01*
X881071Y153672D01*
X880458Y153479D01*
X879841Y153300D01*
X879219Y153136D01*
X878594Y152988D01*
X877965Y152855D01*
X877333Y152737D01*
X876698Y152635D01*
X876062Y152549D01*
X875423Y152478D01*
X874782Y152423D01*
X874141Y152384D01*
X873499Y152360D01*
X872856Y152352D01*
X872213Y152360D01*
X871571Y152384D01*
X870930Y152423D01*
X870289Y152478D01*
X869650Y152549D01*
X869014Y152635D01*
X868379Y152737D01*
X867747Y152855D01*
X867118Y152988D01*
X866493Y153136D01*
X865871Y153300D01*
X865254Y153479D01*
X864641Y153672D01*
X864034Y153881D01*
X863431Y154105D01*
X862834Y154343D01*
X862243Y154596D01*
X861659Y154864D01*
X861081Y155146D01*
X860511Y155441D01*
X859947Y155751D01*
X859392Y156074D01*
X858845Y156411D01*
X858306Y156761D01*
X857776Y157125D01*
X857254Y157501D01*
X856743Y157890D01*
X856241Y158291D01*
X855749Y158704D01*
X855267Y159130D01*
X854796Y159567D01*
X854335Y160015D01*
X853886Y160475D01*
X853448Y160946D01*
X853022Y161427D01*
X852608Y161918D01*
X852206Y162420D01*
X851816Y162931D01*
X851439Y163451D01*
X851075Y163981D01*
X850724Y164519D01*
X850387Y165066D01*
X850062Y165621D01*
X849752Y166184D01*
X849455Y166754D01*
X849173Y167331D01*
X849302Y167392D01*
X849583Y166818D01*
X849878Y166251D01*
X850187Y165691D01*
X850509Y165139D01*
X850845Y164596D01*
X851194Y164060D01*
X851556Y163533D01*
X851931Y163016D01*
X852319Y162507D01*
X852719Y162009D01*
X853131Y161520D01*
X853554Y161041D01*
X853990Y160574D01*
X854437Y160116D01*
X854894Y159670D01*
X855363Y159236D01*
X855842Y158813D01*
X856331Y158401D01*
X856831Y158002D01*
X857340Y157616D01*
X857858Y157241D01*
X858385Y156880D01*
X858921Y156532D01*
X859466Y156197D01*
X860018Y155875D01*
X860578Y155567D01*
X861146Y155273D01*
X861720Y154993D01*
X862301Y154727D01*
X862889Y154476D01*
X863483Y154238D01*
X864082Y154016D01*
X864686Y153808D01*
X865296Y153615D01*
X865910Y153437D01*
X866528Y153275D01*
X867150Y153127D01*
X867775Y152995D01*
X868403Y152878D01*
X869035Y152777D01*
X869668Y152691D01*
X870303Y152620D01*
X870940Y152565D01*
X871578Y152526D01*
X872217Y152503D01*
X872856Y152495D01*
X873495Y152503D01*
X874134Y152526D01*
X874772Y152565D01*
X875409Y152620D01*
X876044Y152691D01*
X876677Y152777D01*
X877309Y152878D01*
X877937Y152995D01*
X878562Y153127D01*
X879184Y153275D01*
X879802Y153437D01*
X880416Y153615D01*
X881026Y153808D01*
X881630Y154016D01*
X882229Y154238D01*
X882823Y154476D01*
X883411Y154727D01*
X883992Y154993D01*
X884566Y155273D01*
X885134Y155567D01*
X885694Y155875D01*
X886246Y156197D01*
X886791Y156532D01*
X887327Y156880D01*
X887854Y157241D01*
X888372Y157616D01*
X888881Y158002D01*
X889381Y158401D01*
X889870Y158813D01*
X890349Y159236D01*
X890818Y159670D01*
X891275Y160116D01*
X891722Y160574D01*
X892158Y161041D01*
X892581Y161520D01*
X892993Y162009D01*
X893393Y162507D01*
X893781Y163016D01*
X894156Y163533D01*
X894518Y164060D01*
X894867Y164596D01*
X895203Y165139D01*
X895525Y165691D01*
X895834Y166251D01*
X896129Y166818D01*
X896410Y167392D01*
X897578Y190283D02*
X896337Y189699D01*
X896338Y189699D02*
X896085Y190217D01*
X895821Y190729D01*
X895545Y191235D01*
X895259Y191735D01*
X894961Y192228D01*
X894653Y192715D01*
X894334Y193195D01*
X894004Y193667D01*
X893664Y194132D01*
X893314Y194589D01*
X894391Y195438D01*
X894391Y195439D01*
X894761Y194957D01*
X895119Y194466D01*
X895467Y193968D01*
X895803Y193463D01*
X896128Y192950D01*
X896442Y192430D01*
X896744Y191903D01*
X897034Y191369D01*
X897313Y190830D01*
X897579Y190284D01*
X897449Y190223D01*
X897185Y190766D01*
X896908Y191303D01*
X896619Y191833D01*
X896319Y192357D01*
X896007Y192875D01*
X895683Y193385D01*
X895349Y193888D01*
X895003Y194383D01*
X894646Y194871D01*
X894279Y195350D01*
X894167Y195262D01*
X894532Y194785D01*
X894887Y194300D01*
X895231Y193807D01*
X895563Y193307D01*
X895885Y192799D01*
X896195Y192285D01*
X896494Y191764D01*
X896781Y191236D01*
X897057Y190702D01*
X897320Y190162D01*
X897191Y190101D01*
X896929Y190638D01*
X896655Y191169D01*
X896369Y191694D01*
X896072Y192213D01*
X895763Y192724D01*
X895444Y193229D01*
X895113Y193726D01*
X894771Y194216D01*
X894418Y194699D01*
X894055Y195173D01*
X893942Y195085D01*
X894304Y194613D01*
X894654Y194133D01*
X894995Y193646D01*
X895324Y193151D01*
X895642Y192649D01*
X895949Y192140D01*
X896244Y191624D01*
X896528Y191102D01*
X896801Y190574D01*
X897061Y190040D01*
X896932Y189979D01*
X896673Y190510D01*
X896402Y191036D01*
X896119Y191555D01*
X895825Y192068D01*
X895520Y192574D01*
X895204Y193073D01*
X894876Y193565D01*
X894538Y194050D01*
X894189Y194527D01*
X893830Y194996D01*
X893718Y194908D01*
X894075Y194441D01*
X894422Y193966D01*
X894758Y193484D01*
X895084Y192995D01*
X895399Y192499D01*
X895702Y191995D01*
X895994Y191485D01*
X896275Y190969D01*
X896545Y190447D01*
X896803Y189918D01*
X896673Y189857D01*
X896417Y190383D01*
X896149Y190902D01*
X895870Y191416D01*
X895579Y191923D01*
X895277Y192423D01*
X894964Y192917D01*
X894640Y193404D01*
X894306Y193883D01*
X893961Y194355D01*
X893605Y194819D01*
X893493Y194731D01*
X893846Y194269D01*
X894190Y193800D01*
X894522Y193323D01*
X894844Y192839D01*
X895155Y192348D01*
X895456Y191850D01*
X895745Y191346D01*
X896022Y190836D01*
X896289Y190319D01*
X896544Y189797D01*
X896414Y189736D01*
X896161Y190255D01*
X895896Y190769D01*
X895620Y191277D01*
X895332Y191778D01*
X895034Y192273D01*
X894724Y192761D01*
X894404Y193242D01*
X894073Y193717D01*
X893732Y194183D01*
X893381Y194642D01*
D11*
X896916Y179834D02*
X899596Y179834D01*
X861496Y179834D02*
X858816Y179834D01*
D13*
X851321Y195438D02*
X852399Y194589D01*
X852398Y194589D02*
X852032Y194111D01*
X851678Y193625D01*
X851334Y193130D01*
X851003Y192628D01*
X850683Y192118D01*
X850375Y191601D01*
X850079Y191077D01*
X849795Y190546D01*
X849524Y190008D01*
X849265Y189465D01*
X848018Y190036D01*
X848018Y190037D01*
X848290Y190610D01*
X848576Y191176D01*
X848876Y191736D01*
X849188Y192289D01*
X849512Y192834D01*
X849850Y193371D01*
X850199Y193901D01*
X850561Y194422D01*
X850935Y194935D01*
X851321Y195439D01*
X851433Y195350D01*
X851049Y194849D01*
X850677Y194339D01*
X850318Y193820D01*
X849970Y193294D01*
X849634Y192759D01*
X849311Y192217D01*
X849001Y191667D01*
X848703Y191111D01*
X848419Y190547D01*
X848148Y189977D01*
X848278Y189918D01*
X848547Y190484D01*
X848830Y191045D01*
X849126Y191599D01*
X849435Y192145D01*
X849756Y192685D01*
X850090Y193216D01*
X850436Y193740D01*
X850794Y194256D01*
X851164Y194763D01*
X851545Y195262D01*
X851657Y195173D01*
X851278Y194677D01*
X850910Y194173D01*
X850554Y193660D01*
X850210Y193139D01*
X849878Y192610D01*
X849559Y192074D01*
X849252Y191530D01*
X848957Y190979D01*
X848676Y190422D01*
X848408Y189858D01*
X848537Y189798D01*
X848804Y190359D01*
X849084Y190913D01*
X849377Y191461D01*
X849682Y192002D01*
X850000Y192535D01*
X850330Y193061D01*
X850673Y193580D01*
X851027Y194090D01*
X851392Y194591D01*
X851770Y195085D01*
X851882Y194996D01*
X851507Y194506D01*
X851143Y194007D01*
X850791Y193499D01*
X850451Y192984D01*
X850122Y192461D01*
X849806Y191930D01*
X849503Y191392D01*
X849211Y190848D01*
X848933Y190296D01*
X848667Y189739D01*
X848797Y189679D01*
X849062Y190234D01*
X849338Y190782D01*
X849628Y191324D01*
X849930Y191858D01*
X850244Y192386D01*
X850571Y192906D01*
X850909Y193419D01*
X851259Y193924D01*
X851621Y194420D01*
X851994Y194908D01*
X852107Y194819D01*
X851736Y194334D01*
X851376Y193840D01*
X851027Y193339D01*
X850691Y192829D01*
X850366Y192312D01*
X850054Y191787D01*
X849753Y191255D01*
X849465Y190716D01*
X849190Y190171D01*
X848927Y189620D01*
X849057Y189560D01*
X849319Y190108D01*
X849592Y190651D01*
X849879Y191186D01*
X850177Y191715D01*
X850488Y192237D01*
X850811Y192751D01*
X851146Y193258D01*
X851492Y193757D01*
X851850Y194248D01*
X852219Y194731D01*
X852331Y194642D01*
X851964Y194162D01*
X851608Y193674D01*
X851264Y193178D01*
X850931Y192674D01*
X850610Y192162D01*
X850301Y191643D01*
X850004Y191117D01*
X849719Y190585D01*
X849447Y190046D01*
X849187Y189500D01*
D14*
X631200Y73650D02*
X631200Y53350D01*
X631200Y73650D02*
X588000Y73650D01*
X588000Y53350D01*
X631200Y53350D01*
X631200Y63500D02*
X636960Y63500D01*
X588000Y63500D02*
X582240Y63500D01*
X593100Y118100D02*
X613400Y118100D01*
X613400Y161300D01*
X593100Y161300D01*
X593100Y118100D01*
X603250Y118100D02*
X603250Y112340D01*
X603250Y161300D02*
X603250Y167060D01*
X753100Y35550D02*
X753100Y15250D01*
X796300Y15250D01*
X796300Y35550D01*
X753100Y35550D01*
X753100Y25400D02*
X747340Y25400D01*
X796300Y25400D02*
X802060Y25400D01*
X842000Y35550D02*
X842000Y15250D01*
X885200Y15250D01*
X885200Y35550D01*
X842000Y35550D01*
X842000Y25400D02*
X836240Y25400D01*
X885200Y25400D02*
X890960Y25400D01*
D11*
X910000Y179050D02*
X995000Y179050D01*
X995000Y24150D01*
X910000Y24150D01*
X910000Y179050D01*
D10*
X693928Y25781D02*
X693928Y19431D01*
X693928Y25781D02*
X693928Y32131D01*
D11*
X693928Y25781D02*
X706120Y25781D01*
D10*
X687578Y25781D02*
X687578Y19431D01*
X687578Y25781D02*
X687578Y32131D01*
D11*
X687578Y25781D02*
X675640Y25781D01*
X727710Y15621D02*
X727710Y35941D01*
X725170Y38481D02*
X656590Y38481D01*
X654050Y35941D02*
X654050Y15621D01*
X656590Y13081D02*
X725170Y13081D01*
X656590Y13081D02*
X656490Y13083D01*
X656391Y13089D01*
X656291Y13099D01*
X656193Y13112D01*
X656094Y13130D01*
X655997Y13151D01*
X655901Y13176D01*
X655805Y13205D01*
X655711Y13238D01*
X655618Y13274D01*
X655527Y13314D01*
X655437Y13358D01*
X655349Y13405D01*
X655263Y13455D01*
X655179Y13509D01*
X655097Y13566D01*
X655018Y13626D01*
X654940Y13690D01*
X654866Y13756D01*
X654794Y13825D01*
X654725Y13897D01*
X654659Y13971D01*
X654595Y14049D01*
X654535Y14128D01*
X654478Y14210D01*
X654424Y14294D01*
X654374Y14380D01*
X654327Y14468D01*
X654283Y14558D01*
X654243Y14649D01*
X654207Y14742D01*
X654174Y14836D01*
X654145Y14932D01*
X654120Y15028D01*
X654099Y15125D01*
X654081Y15224D01*
X654068Y15322D01*
X654058Y15422D01*
X654052Y15521D01*
X654050Y15621D01*
X654050Y35941D02*
X654052Y36041D01*
X654058Y36140D01*
X654068Y36240D01*
X654081Y36338D01*
X654099Y36437D01*
X654120Y36534D01*
X654145Y36630D01*
X654174Y36726D01*
X654207Y36820D01*
X654243Y36913D01*
X654283Y37004D01*
X654327Y37094D01*
X654374Y37182D01*
X654424Y37268D01*
X654478Y37352D01*
X654535Y37434D01*
X654595Y37513D01*
X654659Y37591D01*
X654725Y37665D01*
X654794Y37737D01*
X654866Y37806D01*
X654940Y37872D01*
X655018Y37936D01*
X655097Y37996D01*
X655179Y38053D01*
X655263Y38107D01*
X655349Y38157D01*
X655437Y38204D01*
X655527Y38248D01*
X655618Y38288D01*
X655711Y38324D01*
X655805Y38357D01*
X655901Y38386D01*
X655997Y38411D01*
X656094Y38432D01*
X656193Y38450D01*
X656291Y38463D01*
X656391Y38473D01*
X656490Y38479D01*
X656590Y38481D01*
X725170Y38481D02*
X725270Y38479D01*
X725369Y38473D01*
X725469Y38463D01*
X725567Y38450D01*
X725666Y38432D01*
X725763Y38411D01*
X725859Y38386D01*
X725955Y38357D01*
X726049Y38324D01*
X726142Y38288D01*
X726233Y38248D01*
X726323Y38204D01*
X726411Y38157D01*
X726497Y38107D01*
X726581Y38053D01*
X726663Y37996D01*
X726742Y37936D01*
X726820Y37872D01*
X726894Y37806D01*
X726966Y37737D01*
X727035Y37665D01*
X727101Y37591D01*
X727165Y37513D01*
X727225Y37434D01*
X727282Y37352D01*
X727336Y37268D01*
X727386Y37182D01*
X727433Y37094D01*
X727477Y37004D01*
X727517Y36913D01*
X727553Y36820D01*
X727586Y36726D01*
X727615Y36630D01*
X727640Y36534D01*
X727661Y36437D01*
X727679Y36338D01*
X727692Y36240D01*
X727702Y36140D01*
X727708Y36041D01*
X727710Y35941D01*
X727710Y15621D02*
X727708Y15521D01*
X727702Y15422D01*
X727692Y15322D01*
X727679Y15224D01*
X727661Y15125D01*
X727640Y15028D01*
X727615Y14932D01*
X727586Y14836D01*
X727553Y14742D01*
X727517Y14649D01*
X727477Y14558D01*
X727433Y14468D01*
X727386Y14380D01*
X727336Y14294D01*
X727282Y14210D01*
X727225Y14128D01*
X727165Y14049D01*
X727101Y13971D01*
X727035Y13897D01*
X726966Y13825D01*
X726894Y13756D01*
X726820Y13690D01*
X726742Y13626D01*
X726663Y13566D01*
X726581Y13509D01*
X726497Y13455D01*
X726411Y13405D01*
X726323Y13358D01*
X726233Y13314D01*
X726142Y13274D01*
X726049Y13238D01*
X725955Y13205D01*
X725859Y13176D01*
X725763Y13151D01*
X725666Y13130D01*
X725567Y13112D01*
X725469Y13099D01*
X725369Y13089D01*
X725270Y13083D01*
X725170Y13081D01*
D10*
X641350Y154178D02*
X635000Y154178D01*
X628650Y154178D01*
D11*
X635000Y154178D02*
X635000Y166370D01*
D10*
X635000Y147828D02*
X641350Y147828D01*
X635000Y147828D02*
X628650Y147828D01*
D11*
X635000Y147828D02*
X635000Y135890D01*
X645160Y187960D02*
X624840Y187960D01*
X622300Y185420D02*
X622300Y116840D01*
X624840Y114300D02*
X645160Y114300D01*
X647700Y116840D02*
X647700Y185420D01*
X647700Y116840D02*
X647698Y116740D01*
X647692Y116641D01*
X647682Y116541D01*
X647669Y116443D01*
X647651Y116344D01*
X647630Y116247D01*
X647605Y116151D01*
X647576Y116055D01*
X647543Y115961D01*
X647507Y115868D01*
X647467Y115777D01*
X647423Y115687D01*
X647376Y115599D01*
X647326Y115513D01*
X647272Y115429D01*
X647215Y115347D01*
X647155Y115268D01*
X647091Y115190D01*
X647025Y115116D01*
X646956Y115044D01*
X646884Y114975D01*
X646810Y114909D01*
X646732Y114845D01*
X646653Y114785D01*
X646571Y114728D01*
X646487Y114674D01*
X646401Y114624D01*
X646313Y114577D01*
X646223Y114533D01*
X646132Y114493D01*
X646039Y114457D01*
X645945Y114424D01*
X645849Y114395D01*
X645753Y114370D01*
X645656Y114349D01*
X645557Y114331D01*
X645459Y114318D01*
X645359Y114308D01*
X645260Y114302D01*
X645160Y114300D01*
X624840Y114300D02*
X624740Y114302D01*
X624641Y114308D01*
X624541Y114318D01*
X624443Y114331D01*
X624344Y114349D01*
X624247Y114370D01*
X624151Y114395D01*
X624055Y114424D01*
X623961Y114457D01*
X623868Y114493D01*
X623777Y114533D01*
X623687Y114577D01*
X623599Y114624D01*
X623513Y114674D01*
X623429Y114728D01*
X623347Y114785D01*
X623268Y114845D01*
X623190Y114909D01*
X623116Y114975D01*
X623044Y115044D01*
X622975Y115116D01*
X622909Y115190D01*
X622845Y115268D01*
X622785Y115347D01*
X622728Y115429D01*
X622674Y115513D01*
X622624Y115599D01*
X622577Y115687D01*
X622533Y115777D01*
X622493Y115868D01*
X622457Y115961D01*
X622424Y116055D01*
X622395Y116151D01*
X622370Y116247D01*
X622349Y116344D01*
X622331Y116443D01*
X622318Y116541D01*
X622308Y116641D01*
X622302Y116740D01*
X622300Y116840D01*
X622300Y185420D02*
X622302Y185520D01*
X622308Y185619D01*
X622318Y185719D01*
X622331Y185817D01*
X622349Y185916D01*
X622370Y186013D01*
X622395Y186109D01*
X622424Y186205D01*
X622457Y186299D01*
X622493Y186392D01*
X622533Y186483D01*
X622577Y186573D01*
X622624Y186661D01*
X622674Y186747D01*
X622728Y186831D01*
X622785Y186913D01*
X622845Y186992D01*
X622909Y187070D01*
X622975Y187144D01*
X623044Y187216D01*
X623116Y187285D01*
X623190Y187351D01*
X623268Y187415D01*
X623347Y187475D01*
X623429Y187532D01*
X623513Y187586D01*
X623599Y187636D01*
X623687Y187683D01*
X623777Y187727D01*
X623868Y187767D01*
X623961Y187803D01*
X624055Y187836D01*
X624151Y187865D01*
X624247Y187890D01*
X624344Y187911D01*
X624443Y187929D01*
X624541Y187942D01*
X624641Y187952D01*
X624740Y187958D01*
X624840Y187960D01*
X645160Y187960D02*
X645260Y187958D01*
X645359Y187952D01*
X645459Y187942D01*
X645557Y187929D01*
X645656Y187911D01*
X645753Y187890D01*
X645849Y187865D01*
X645945Y187836D01*
X646039Y187803D01*
X646132Y187767D01*
X646223Y187727D01*
X646313Y187683D01*
X646401Y187636D01*
X646487Y187586D01*
X646571Y187532D01*
X646653Y187475D01*
X646732Y187415D01*
X646810Y187351D01*
X646884Y187285D01*
X646956Y187216D01*
X647025Y187144D01*
X647091Y187070D01*
X647155Y186992D01*
X647215Y186913D01*
X647272Y186831D01*
X647326Y186747D01*
X647376Y186661D01*
X647423Y186573D01*
X647467Y186483D01*
X647507Y186392D01*
X647543Y186299D01*
X647576Y186205D01*
X647605Y186109D01*
X647630Y186013D01*
X647651Y185916D01*
X647669Y185817D01*
X647682Y185719D01*
X647692Y185619D01*
X647698Y185520D01*
X647700Y185420D01*
X660400Y72390D02*
X762000Y72390D01*
X762000Y130810D02*
X660400Y130810D01*
X660400Y72390D01*
X762000Y72390D02*
X762000Y91440D01*
X762000Y111760D02*
X762000Y130810D01*
X762000Y111760D02*
X761753Y111757D01*
X761505Y111748D01*
X761258Y111733D01*
X761012Y111712D01*
X760766Y111685D01*
X760521Y111652D01*
X760276Y111613D01*
X760033Y111568D01*
X759791Y111517D01*
X759550Y111460D01*
X759311Y111398D01*
X759073Y111329D01*
X758837Y111255D01*
X758603Y111175D01*
X758371Y111090D01*
X758141Y110998D01*
X757913Y110902D01*
X757688Y110799D01*
X757465Y110692D01*
X757245Y110578D01*
X757028Y110460D01*
X756813Y110336D01*
X756602Y110207D01*
X756394Y110073D01*
X756189Y109934D01*
X755988Y109790D01*
X755790Y109642D01*
X755596Y109488D01*
X755406Y109330D01*
X755220Y109167D01*
X755038Y109000D01*
X754860Y108828D01*
X754686Y108652D01*
X754516Y108472D01*
X754351Y108287D01*
X754191Y108099D01*
X754035Y107907D01*
X753883Y107711D01*
X753737Y107512D01*
X753595Y107309D01*
X753459Y107102D01*
X753327Y106893D01*
X753201Y106680D01*
X753080Y106464D01*
X752964Y106246D01*
X752854Y106024D01*
X752749Y105800D01*
X752649Y105574D01*
X752555Y105345D01*
X752467Y105114D01*
X752384Y104880D01*
X752307Y104645D01*
X752236Y104408D01*
X752170Y104170D01*
X752111Y103930D01*
X752057Y103688D01*
X752009Y103445D01*
X751967Y103202D01*
X751931Y102957D01*
X751901Y102711D01*
X751877Y102465D01*
X751859Y102218D01*
X751847Y101971D01*
X751841Y101724D01*
X751841Y101476D01*
X751847Y101229D01*
X751859Y100982D01*
X751877Y100735D01*
X751901Y100489D01*
X751931Y100243D01*
X751967Y99998D01*
X752009Y99755D01*
X752057Y99512D01*
X752111Y99270D01*
X752170Y99030D01*
X752236Y98792D01*
X752307Y98555D01*
X752384Y98320D01*
X752467Y98086D01*
X752555Y97855D01*
X752649Y97626D01*
X752749Y97400D01*
X752854Y97176D01*
X752964Y96954D01*
X753080Y96736D01*
X753201Y96520D01*
X753327Y96307D01*
X753459Y96098D01*
X753595Y95891D01*
X753737Y95688D01*
X753883Y95489D01*
X754035Y95293D01*
X754191Y95101D01*
X754351Y94913D01*
X754516Y94728D01*
X754686Y94548D01*
X754860Y94372D01*
X755038Y94200D01*
X755220Y94033D01*
X755406Y93870D01*
X755596Y93712D01*
X755790Y93558D01*
X755988Y93410D01*
X756189Y93266D01*
X756394Y93127D01*
X756602Y92993D01*
X756813Y92864D01*
X757028Y92740D01*
X757245Y92622D01*
X757465Y92508D01*
X757688Y92401D01*
X757913Y92298D01*
X758141Y92202D01*
X758371Y92110D01*
X758603Y92025D01*
X758837Y91945D01*
X759073Y91871D01*
X759311Y91802D01*
X759550Y91740D01*
X759791Y91683D01*
X760033Y91632D01*
X760276Y91587D01*
X760521Y91548D01*
X760766Y91515D01*
X761012Y91488D01*
X761258Y91467D01*
X761505Y91452D01*
X761753Y91443D01*
X762000Y91440D01*
X774700Y72390D02*
X876300Y72390D01*
X876300Y130810D02*
X774700Y130810D01*
X774700Y72390D01*
X876300Y72390D02*
X876300Y91440D01*
X876300Y111760D02*
X876300Y130810D01*
X876300Y111760D02*
X876053Y111757D01*
X875805Y111748D01*
X875558Y111733D01*
X875312Y111712D01*
X875066Y111685D01*
X874821Y111652D01*
X874576Y111613D01*
X874333Y111568D01*
X874091Y111517D01*
X873850Y111460D01*
X873611Y111398D01*
X873373Y111329D01*
X873137Y111255D01*
X872903Y111175D01*
X872671Y111090D01*
X872441Y110998D01*
X872213Y110902D01*
X871988Y110799D01*
X871765Y110692D01*
X871545Y110578D01*
X871328Y110460D01*
X871113Y110336D01*
X870902Y110207D01*
X870694Y110073D01*
X870489Y109934D01*
X870288Y109790D01*
X870090Y109642D01*
X869896Y109488D01*
X869706Y109330D01*
X869520Y109167D01*
X869338Y109000D01*
X869160Y108828D01*
X868986Y108652D01*
X868816Y108472D01*
X868651Y108287D01*
X868491Y108099D01*
X868335Y107907D01*
X868183Y107711D01*
X868037Y107512D01*
X867895Y107309D01*
X867759Y107102D01*
X867627Y106893D01*
X867501Y106680D01*
X867380Y106464D01*
X867264Y106246D01*
X867154Y106024D01*
X867049Y105800D01*
X866949Y105574D01*
X866855Y105345D01*
X866767Y105114D01*
X866684Y104880D01*
X866607Y104645D01*
X866536Y104408D01*
X866470Y104170D01*
X866411Y103930D01*
X866357Y103688D01*
X866309Y103445D01*
X866267Y103202D01*
X866231Y102957D01*
X866201Y102711D01*
X866177Y102465D01*
X866159Y102218D01*
X866147Y101971D01*
X866141Y101724D01*
X866141Y101476D01*
X866147Y101229D01*
X866159Y100982D01*
X866177Y100735D01*
X866201Y100489D01*
X866231Y100243D01*
X866267Y99998D01*
X866309Y99755D01*
X866357Y99512D01*
X866411Y99270D01*
X866470Y99030D01*
X866536Y98792D01*
X866607Y98555D01*
X866684Y98320D01*
X866767Y98086D01*
X866855Y97855D01*
X866949Y97626D01*
X867049Y97400D01*
X867154Y97176D01*
X867264Y96954D01*
X867380Y96736D01*
X867501Y96520D01*
X867627Y96307D01*
X867759Y96098D01*
X867895Y95891D01*
X868037Y95688D01*
X868183Y95489D01*
X868335Y95293D01*
X868491Y95101D01*
X868651Y94913D01*
X868816Y94728D01*
X868986Y94548D01*
X869160Y94372D01*
X869338Y94200D01*
X869520Y94033D01*
X869706Y93870D01*
X869896Y93712D01*
X870090Y93558D01*
X870288Y93410D01*
X870489Y93266D01*
X870694Y93127D01*
X870902Y92993D01*
X871113Y92864D01*
X871328Y92740D01*
X871545Y92622D01*
X871765Y92508D01*
X871988Y92401D01*
X872213Y92298D01*
X872441Y92202D01*
X872671Y92110D01*
X872903Y92025D01*
X873137Y91945D01*
X873373Y91871D01*
X873611Y91802D01*
X873850Y91740D01*
X874091Y91683D01*
X874333Y91632D01*
X874576Y91587D01*
X874821Y91548D01*
X875066Y91515D01*
X875312Y91488D01*
X875558Y91467D01*
X875805Y91452D01*
X876053Y91443D01*
X876300Y91440D01*
M02*
