G04 EAGLE Gerber RS-274X export*
G75*
%MOMM*%
%FSLAX34Y34*%
%LPD*%
%INSilkscreen Top*%
%IPPOS*%
%AMOC8*
5,1,8,0,0,1.08239X$1,22.5*%
G01*
G04 Define Apertures*
%ADD10C,0.304800*%
%ADD11C,0.152400*%
%ADD12C,0.203200*%
%ADD13C,0.015238*%
%ADD14C,0.127000*%
G36*
X606739Y-4861D02*
X607174Y-4822D01*
X607595Y-4757D01*
X608002Y-4666D01*
X608395Y-4549D01*
X608774Y-4406D01*
X609140Y-4237D01*
X609492Y-4042D01*
X609827Y-3822D01*
X610143Y-3578D01*
X610440Y-3311D01*
X610717Y-3020D01*
X610975Y-2704D01*
X611214Y-2365D01*
X611433Y-2003D01*
X611633Y-1616D01*
X610267Y-933D01*
X610099Y-1244D01*
X609921Y-1534D01*
X609732Y-1805D01*
X609534Y-2056D01*
X609326Y-2286D01*
X609107Y-2497D01*
X608879Y-2687D01*
X608640Y-2858D01*
X608391Y-3008D01*
X608133Y-3138D01*
X607864Y-3248D01*
X607585Y-3339D01*
X607296Y-3409D01*
X606997Y-3459D01*
X606688Y-3489D01*
X606369Y-3499D01*
X605877Y-3478D01*
X605410Y-3413D01*
X604970Y-3305D01*
X604555Y-3154D01*
X604167Y-2960D01*
X603805Y-2723D01*
X603469Y-2443D01*
X603159Y-2120D01*
X602881Y-1761D01*
X602640Y-1374D01*
X602436Y-960D01*
X602269Y-518D01*
X602139Y-48D01*
X602047Y450D01*
X601991Y975D01*
X601973Y1528D01*
X601990Y2087D01*
X602044Y2615D01*
X602133Y3112D01*
X602257Y3579D01*
X602417Y4015D01*
X602613Y4421D01*
X602844Y4796D01*
X603111Y5141D01*
X603410Y5450D01*
X603737Y5718D01*
X604093Y5944D01*
X604477Y6130D01*
X604890Y6274D01*
X605331Y6377D01*
X605801Y6439D01*
X606299Y6459D01*
X606620Y6450D01*
X606930Y6424D01*
X607228Y6379D01*
X607516Y6317D01*
X607792Y6237D01*
X608057Y6139D01*
X608311Y6024D01*
X608555Y5890D01*
X608784Y5740D01*
X608997Y5574D01*
X609194Y5392D01*
X609375Y5194D01*
X609539Y4980D01*
X609687Y4750D01*
X609819Y4505D01*
X609934Y4243D01*
X611519Y4769D01*
X611353Y5136D01*
X611165Y5480D01*
X610954Y5801D01*
X610722Y6098D01*
X610468Y6372D01*
X610192Y6623D01*
X609895Y6851D01*
X609575Y7055D01*
X609234Y7236D01*
X608873Y7392D01*
X608492Y7525D01*
X608090Y7633D01*
X607669Y7717D01*
X607227Y7778D01*
X606764Y7814D01*
X606282Y7826D01*
X605934Y7819D01*
X605596Y7800D01*
X605267Y7767D01*
X604948Y7721D01*
X604639Y7662D01*
X604339Y7590D01*
X604049Y7506D01*
X603768Y7407D01*
X603497Y7296D01*
X603235Y7172D01*
X602983Y7035D01*
X602741Y6885D01*
X602285Y6545D01*
X601867Y6153D01*
X601494Y5715D01*
X601170Y5236D01*
X600896Y4718D01*
X600778Y4444D01*
X600672Y4160D01*
X600579Y3866D01*
X600498Y3562D01*
X600429Y3248D01*
X600373Y2924D01*
X600329Y2590D01*
X600298Y2246D01*
X600280Y1892D01*
X600273Y1528D01*
X600285Y1044D01*
X600318Y576D01*
X600374Y125D01*
X600452Y-310D01*
X600552Y-728D01*
X600675Y-1130D01*
X600820Y-1515D01*
X600987Y-1883D01*
X601176Y-2233D01*
X601385Y-2562D01*
X601614Y-2870D01*
X601863Y-3158D01*
X602133Y-3424D01*
X602423Y-3670D01*
X602733Y-3895D01*
X603063Y-4099D01*
X603411Y-4281D01*
X603775Y-4438D01*
X604155Y-4571D01*
X604551Y-4680D01*
X604962Y-4765D01*
X605389Y-4826D01*
X605832Y-4862D01*
X606291Y-4874D01*
X606739Y-4861D01*
G37*
G36*
X621431Y-3359D02*
X618427Y-3359D01*
X618427Y7642D01*
X616973Y7642D01*
X614057Y5636D01*
X614057Y4147D01*
X616842Y6135D01*
X616842Y-3359D01*
X613698Y-3359D01*
X613698Y-4699D01*
X621431Y-4699D01*
X621431Y-3359D01*
G37*
G36*
X542290Y112767D02*
X542278Y113207D01*
X542242Y113634D01*
X542183Y114048D01*
X542100Y114449D01*
X541992Y114836D01*
X541861Y115211D01*
X541707Y115572D01*
X541528Y115920D01*
X541327Y116252D01*
X541105Y116565D01*
X540862Y116858D01*
X540599Y117131D01*
X540314Y117385D01*
X540008Y117620D01*
X539682Y117835D01*
X539334Y118031D01*
X538969Y118206D01*
X538588Y118357D01*
X538193Y118485D01*
X537783Y118589D01*
X537358Y118671D01*
X536917Y118729D01*
X536463Y118764D01*
X535993Y118776D01*
X535635Y118769D01*
X535289Y118749D01*
X534952Y118716D01*
X534626Y118669D01*
X534310Y118609D01*
X534005Y118536D01*
X533710Y118449D01*
X533425Y118350D01*
X533151Y118237D01*
X532887Y118110D01*
X532634Y117970D01*
X532390Y117817D01*
X532158Y117651D01*
X531935Y117471D01*
X531723Y117278D01*
X531521Y117072D01*
X531331Y116853D01*
X531153Y116624D01*
X530987Y116383D01*
X530834Y116131D01*
X530692Y115867D01*
X530563Y115593D01*
X530447Y115307D01*
X530342Y115010D01*
X530250Y114702D01*
X530170Y114383D01*
X530103Y114053D01*
X530048Y113711D01*
X530005Y113358D01*
X529974Y112994D01*
X529955Y112619D01*
X529949Y112233D01*
X529949Y108151D01*
X542290Y108151D01*
X542290Y112767D01*
G37*
%LPC*%
G36*
X531289Y109824D02*
X531289Y112198D01*
X531308Y112776D01*
X531365Y113319D01*
X531459Y113826D01*
X531590Y114299D01*
X531760Y114736D01*
X531967Y115138D01*
X532211Y115505D01*
X532494Y115837D01*
X532812Y116132D01*
X533164Y116387D01*
X533550Y116603D01*
X533971Y116780D01*
X534425Y116917D01*
X534913Y117015D01*
X535436Y117074D01*
X535993Y117094D01*
X536367Y117085D01*
X536729Y117059D01*
X537079Y117016D01*
X537416Y116956D01*
X537740Y116878D01*
X538052Y116784D01*
X538351Y116671D01*
X538638Y116542D01*
X538910Y116397D01*
X539165Y116236D01*
X539405Y116061D01*
X539627Y115871D01*
X539834Y115666D01*
X540024Y115446D01*
X540197Y115211D01*
X540354Y114961D01*
X540494Y114699D01*
X540615Y114426D01*
X540717Y114143D01*
X540801Y113850D01*
X540866Y113546D01*
X540913Y113233D01*
X540941Y112909D01*
X540950Y112575D01*
X540950Y109824D01*
X531289Y109824D01*
G37*
%LPD*%
G36*
X542290Y128749D02*
X540950Y128749D01*
X540950Y125745D01*
X529949Y125745D01*
X529949Y124291D01*
X531955Y121374D01*
X533444Y121374D01*
X531456Y124159D01*
X540950Y124159D01*
X540950Y121015D01*
X542290Y121015D01*
X542290Y128749D01*
G37*
G36*
X885797Y80838D02*
X886265Y80871D01*
X886716Y80927D01*
X887151Y81005D01*
X887569Y81105D01*
X887971Y81228D01*
X888356Y81373D01*
X888724Y81540D01*
X889074Y81729D01*
X889403Y81938D01*
X889711Y82167D01*
X889999Y82416D01*
X890265Y82686D01*
X890511Y82976D01*
X890736Y83286D01*
X890940Y83616D01*
X891122Y83964D01*
X891279Y84329D01*
X891412Y84708D01*
X891521Y85104D01*
X891606Y85515D01*
X891667Y85942D01*
X891703Y86385D01*
X891715Y86844D01*
X891702Y87292D01*
X891663Y87727D01*
X891598Y88148D01*
X891507Y88555D01*
X891390Y88948D01*
X891247Y89328D01*
X891078Y89693D01*
X890883Y90045D01*
X890663Y90380D01*
X890419Y90696D01*
X890152Y90993D01*
X889861Y91270D01*
X889545Y91528D01*
X889206Y91767D01*
X888844Y91986D01*
X888457Y92186D01*
X887774Y90820D01*
X888085Y90652D01*
X888375Y90474D01*
X888646Y90285D01*
X888897Y90087D01*
X889127Y89879D01*
X889338Y89660D01*
X889528Y89432D01*
X889699Y89193D01*
X889849Y88944D01*
X889979Y88686D01*
X890089Y88417D01*
X890180Y88138D01*
X890250Y87849D01*
X890300Y87550D01*
X890330Y87241D01*
X890340Y86922D01*
X890319Y86430D01*
X890254Y85963D01*
X890146Y85523D01*
X889995Y85108D01*
X889801Y84720D01*
X889564Y84358D01*
X889284Y84022D01*
X888961Y83712D01*
X888602Y83434D01*
X888215Y83193D01*
X887801Y82989D01*
X887359Y82822D01*
X886889Y82693D01*
X886391Y82600D01*
X885866Y82544D01*
X885313Y82526D01*
X884754Y82543D01*
X884226Y82597D01*
X883729Y82686D01*
X883262Y82810D01*
X882826Y82970D01*
X882420Y83166D01*
X882045Y83397D01*
X881700Y83664D01*
X881391Y83963D01*
X881123Y84291D01*
X880897Y84646D01*
X880711Y85031D01*
X880567Y85443D01*
X880464Y85885D01*
X880402Y86354D01*
X880382Y86852D01*
X880391Y87173D01*
X880417Y87483D01*
X880462Y87781D01*
X880524Y88069D01*
X880604Y88345D01*
X880702Y88610D01*
X880818Y88865D01*
X880951Y89108D01*
X881101Y89337D01*
X881267Y89550D01*
X881449Y89747D01*
X881647Y89928D01*
X881861Y90092D01*
X882091Y90240D01*
X882336Y90372D01*
X882598Y90487D01*
X882072Y92072D01*
X881705Y91906D01*
X881361Y91718D01*
X881040Y91508D01*
X880743Y91275D01*
X880469Y91021D01*
X880218Y90746D01*
X879990Y90448D01*
X879786Y90128D01*
X879605Y89787D01*
X879449Y89426D01*
X879316Y89045D01*
X879208Y88644D01*
X879124Y88222D01*
X879063Y87780D01*
X879027Y87317D01*
X879015Y86835D01*
X879022Y86487D01*
X879041Y86149D01*
X879074Y85820D01*
X879120Y85501D01*
X879179Y85192D01*
X879251Y84892D01*
X879336Y84602D01*
X879434Y84321D01*
X879545Y84050D01*
X879669Y83789D01*
X879806Y83537D01*
X879956Y83294D01*
X880296Y82838D01*
X880688Y82421D01*
X881126Y82047D01*
X881605Y81723D01*
X882123Y81449D01*
X882397Y81331D01*
X882681Y81225D01*
X882975Y81132D01*
X883279Y81051D01*
X883593Y80982D01*
X883917Y80926D01*
X884251Y80883D01*
X884595Y80851D01*
X884949Y80833D01*
X885313Y80827D01*
X885797Y80838D01*
G37*
G36*
X891540Y101985D02*
X890200Y101985D01*
X890200Y98980D01*
X879199Y98980D01*
X879199Y97526D01*
X881205Y94610D01*
X882694Y94610D01*
X880706Y97395D01*
X890200Y97395D01*
X890200Y94251D01*
X891540Y94251D01*
X891540Y101985D01*
G37*
G36*
X891540Y78275D02*
X879199Y78275D01*
X879199Y76602D01*
X891540Y76602D01*
X891540Y78275D01*
G37*
G36*
X908095Y122522D02*
X908530Y122561D01*
X908951Y122626D01*
X909358Y122717D01*
X909751Y122834D01*
X910130Y122977D01*
X910496Y123146D01*
X910848Y123341D01*
X911183Y123561D01*
X911499Y123805D01*
X911796Y124072D01*
X912073Y124363D01*
X912331Y124679D01*
X912570Y125018D01*
X912789Y125380D01*
X912989Y125767D01*
X911623Y126450D01*
X911455Y126139D01*
X911277Y125849D01*
X911088Y125578D01*
X910890Y125327D01*
X910682Y125097D01*
X910463Y124886D01*
X910235Y124696D01*
X909996Y124525D01*
X909747Y124375D01*
X909489Y124245D01*
X909220Y124135D01*
X908941Y124044D01*
X908652Y123974D01*
X908353Y123924D01*
X908044Y123894D01*
X907725Y123884D01*
X907233Y123905D01*
X906766Y123970D01*
X906326Y124078D01*
X905911Y124229D01*
X905523Y124423D01*
X905161Y124660D01*
X904825Y124940D01*
X904515Y125263D01*
X904237Y125622D01*
X903996Y126009D01*
X903792Y126423D01*
X903625Y126865D01*
X903495Y127335D01*
X903403Y127833D01*
X903347Y128358D01*
X903329Y128911D01*
X903346Y129470D01*
X903400Y129998D01*
X903489Y130495D01*
X903613Y130962D01*
X903773Y131398D01*
X903969Y131804D01*
X904200Y132179D01*
X904467Y132524D01*
X904766Y132833D01*
X905093Y133101D01*
X905449Y133327D01*
X905833Y133513D01*
X906246Y133657D01*
X906687Y133760D01*
X907157Y133822D01*
X907655Y133842D01*
X907976Y133833D01*
X908286Y133807D01*
X908584Y133762D01*
X908872Y133700D01*
X909148Y133620D01*
X909413Y133522D01*
X909667Y133407D01*
X909911Y133273D01*
X910140Y133123D01*
X910353Y132957D01*
X910550Y132775D01*
X910731Y132577D01*
X910895Y132363D01*
X911043Y132133D01*
X911175Y131888D01*
X911290Y131626D01*
X912875Y132152D01*
X912709Y132519D01*
X912521Y132863D01*
X912310Y133184D01*
X912078Y133481D01*
X911824Y133755D01*
X911548Y134006D01*
X911251Y134234D01*
X910931Y134438D01*
X910590Y134619D01*
X910229Y134775D01*
X909848Y134908D01*
X909446Y135016D01*
X909025Y135100D01*
X908583Y135161D01*
X908120Y135197D01*
X907638Y135209D01*
X907290Y135202D01*
X906952Y135183D01*
X906623Y135150D01*
X906304Y135104D01*
X905995Y135045D01*
X905695Y134973D01*
X905405Y134889D01*
X905124Y134790D01*
X904853Y134679D01*
X904591Y134555D01*
X904339Y134418D01*
X904097Y134268D01*
X903641Y133928D01*
X903223Y133536D01*
X902850Y133098D01*
X902526Y132619D01*
X902252Y132101D01*
X902134Y131827D01*
X902028Y131543D01*
X901935Y131249D01*
X901854Y130945D01*
X901785Y130631D01*
X901729Y130307D01*
X901685Y129973D01*
X901654Y129629D01*
X901636Y129275D01*
X901629Y128911D01*
X901641Y128427D01*
X901674Y127959D01*
X901730Y127508D01*
X901808Y127073D01*
X901908Y126655D01*
X902031Y126253D01*
X902176Y125868D01*
X902343Y125500D01*
X902532Y125150D01*
X902741Y124821D01*
X902970Y124513D01*
X903219Y124226D01*
X903489Y123959D01*
X903779Y123713D01*
X904089Y123488D01*
X904419Y123284D01*
X904767Y123102D01*
X905131Y122945D01*
X905511Y122812D01*
X905907Y122703D01*
X906318Y122618D01*
X906745Y122557D01*
X907188Y122521D01*
X907647Y122509D01*
X908095Y122522D01*
G37*
G36*
X919177Y122524D02*
X919638Y122567D01*
X920069Y122641D01*
X920471Y122743D01*
X920844Y122875D01*
X921188Y123036D01*
X921503Y123226D01*
X921789Y123446D01*
X922043Y123692D01*
X922264Y123963D01*
X922451Y124257D01*
X922603Y124576D01*
X922722Y124919D01*
X922807Y125285D01*
X922858Y125676D01*
X922875Y126091D01*
X922863Y126380D01*
X922827Y126657D01*
X922767Y126921D01*
X922682Y127173D01*
X922574Y127412D01*
X922441Y127638D01*
X922285Y127852D01*
X922104Y128053D01*
X921902Y128238D01*
X921681Y128403D01*
X921440Y128549D01*
X921180Y128675D01*
X920901Y128781D01*
X920603Y128868D01*
X920286Y128934D01*
X919950Y128981D01*
X919950Y129016D01*
X920256Y129090D01*
X920543Y129178D01*
X920811Y129281D01*
X921061Y129399D01*
X921292Y129531D01*
X921504Y129679D01*
X921697Y129842D01*
X921872Y130019D01*
X922027Y130211D01*
X922161Y130417D01*
X922275Y130637D01*
X922368Y130870D01*
X922440Y131117D01*
X922492Y131378D01*
X922523Y131653D01*
X922533Y131942D01*
X922517Y132317D01*
X922469Y132670D01*
X922389Y133002D01*
X922276Y133314D01*
X922131Y133604D01*
X921954Y133872D01*
X921745Y134120D01*
X921504Y134346D01*
X921234Y134548D01*
X920938Y134723D01*
X920616Y134872D01*
X920268Y134993D01*
X919895Y135087D01*
X919495Y135155D01*
X919070Y135195D01*
X918618Y135209D01*
X918203Y135195D01*
X917807Y135156D01*
X917431Y135089D01*
X917074Y134996D01*
X916736Y134877D01*
X916417Y134731D01*
X916118Y134558D01*
X915837Y134359D01*
X915581Y134136D01*
X915353Y133893D01*
X915154Y133628D01*
X914982Y133343D01*
X914839Y133037D01*
X914725Y132710D01*
X914639Y132363D01*
X914581Y131994D01*
X916166Y131872D01*
X916201Y132108D01*
X916252Y132330D01*
X916320Y132539D01*
X916406Y132734D01*
X916508Y132916D01*
X916627Y133084D01*
X916762Y133238D01*
X916915Y133378D01*
X917082Y133503D01*
X917262Y133612D01*
X917454Y133704D01*
X917658Y133779D01*
X917875Y133837D01*
X918105Y133879D01*
X918346Y133904D01*
X918601Y133912D01*
X918879Y133903D01*
X919139Y133877D01*
X919382Y133832D01*
X919607Y133769D01*
X919814Y133688D01*
X920004Y133590D01*
X920176Y133473D01*
X920331Y133339D01*
X920467Y133189D01*
X920585Y133026D01*
X920686Y132850D01*
X920767Y132661D01*
X920831Y132459D01*
X920877Y132244D01*
X920904Y132016D01*
X920913Y131775D01*
X920902Y131533D01*
X920868Y131303D01*
X920813Y131087D01*
X920735Y130885D01*
X920634Y130697D01*
X920512Y130522D01*
X920367Y130360D01*
X920199Y130212D01*
X920012Y130080D01*
X919806Y129965D01*
X919582Y129868D01*
X919340Y129788D01*
X919079Y129726D01*
X918801Y129682D01*
X918504Y129656D01*
X918189Y129647D01*
X917331Y129647D01*
X917331Y128281D01*
X918224Y128281D01*
X918579Y128272D01*
X918913Y128245D01*
X919224Y128201D01*
X919515Y128139D01*
X919784Y128060D01*
X920031Y127963D01*
X920257Y127848D01*
X920462Y127716D01*
X920644Y127568D01*
X920801Y127406D01*
X920934Y127230D01*
X921043Y127040D01*
X921128Y126837D01*
X921189Y126620D01*
X921225Y126389D01*
X921237Y126144D01*
X921227Y125863D01*
X921195Y125601D01*
X921142Y125357D01*
X921067Y125130D01*
X920972Y124921D01*
X920855Y124730D01*
X920717Y124556D01*
X920558Y124401D01*
X920381Y124263D01*
X920187Y124144D01*
X919977Y124043D01*
X919751Y123961D01*
X919510Y123896D01*
X919252Y123851D01*
X918978Y123823D01*
X918688Y123814D01*
X918400Y123822D01*
X918127Y123848D01*
X917871Y123891D01*
X917630Y123951D01*
X917406Y124028D01*
X917198Y124122D01*
X917005Y124233D01*
X916829Y124361D01*
X916669Y124507D01*
X916525Y124669D01*
X916398Y124849D01*
X916286Y125046D01*
X916190Y125259D01*
X916110Y125490D01*
X916047Y125738D01*
X916000Y126003D01*
X914370Y125855D01*
X914437Y125453D01*
X914532Y125078D01*
X914656Y124727D01*
X914807Y124402D01*
X914987Y124102D01*
X915196Y123827D01*
X915432Y123578D01*
X915697Y123354D01*
X915988Y123156D01*
X916303Y122984D01*
X916641Y122839D01*
X917003Y122720D01*
X917389Y122628D01*
X917799Y122562D01*
X918232Y122522D01*
X918688Y122509D01*
X919177Y122524D01*
G37*
G36*
X899078Y135025D02*
X897405Y135025D01*
X897405Y122684D01*
X899078Y122684D01*
X899078Y135025D01*
G37*
G36*
X588576Y26724D02*
X592421Y26724D01*
X595626Y21600D01*
X597553Y21600D01*
X595541Y24653D01*
X594050Y26916D01*
X594393Y26989D01*
X594717Y27082D01*
X595022Y27198D01*
X595308Y27335D01*
X595464Y27427D01*
X595575Y27493D01*
X595822Y27674D01*
X596051Y27875D01*
X596261Y28099D01*
X596449Y28340D01*
X596612Y28595D01*
X596750Y28863D01*
X596862Y29145D01*
X596950Y29441D01*
X597013Y29751D01*
X597050Y30074D01*
X597063Y30411D01*
X597045Y30816D01*
X596992Y31197D01*
X596903Y31556D01*
X596779Y31892D01*
X596620Y32206D01*
X596425Y32496D01*
X596194Y32763D01*
X595928Y33008D01*
X595630Y33227D01*
X595302Y33416D01*
X594944Y33576D01*
X594557Y33708D01*
X594139Y33810D01*
X593692Y33882D01*
X593216Y33926D01*
X592710Y33941D01*
X586903Y33941D01*
X586903Y21600D01*
X588576Y21600D01*
X588576Y26724D01*
G37*
G36*
X607500Y22940D02*
X604496Y22940D01*
X604496Y33941D01*
X603042Y33941D01*
X600125Y31935D01*
X600125Y30446D01*
X602911Y32434D01*
X602911Y22940D01*
X599766Y22940D01*
X599766Y21600D01*
X607500Y21600D01*
X607500Y22940D01*
G37*
%LPC*%
G36*
X588576Y28046D02*
X588576Y32601D01*
X592543Y32601D01*
X592877Y32592D01*
X593190Y32565D01*
X593484Y32521D01*
X593757Y32460D01*
X594011Y32380D01*
X594244Y32283D01*
X594457Y32168D01*
X594650Y32036D01*
X594821Y31887D01*
X594970Y31721D01*
X595095Y31540D01*
X595198Y31343D01*
X595278Y31130D01*
X595335Y30900D01*
X595370Y30655D01*
X595381Y30394D01*
X595370Y30123D01*
X595336Y29868D01*
X595279Y29629D01*
X595200Y29405D01*
X595099Y29196D01*
X594975Y29003D01*
X594828Y28826D01*
X594658Y28664D01*
X594468Y28519D01*
X594260Y28394D01*
X594032Y28287D01*
X593786Y28201D01*
X593521Y28133D01*
X593237Y28085D01*
X592935Y28056D01*
X592613Y28046D01*
X588576Y28046D01*
G37*
%LPD*%
G36*
X574050Y119946D02*
X568926Y119946D01*
X568926Y123791D01*
X574050Y126996D01*
X574050Y128923D01*
X570997Y126911D01*
X568734Y125420D01*
X568661Y125763D01*
X568568Y126087D01*
X568452Y126392D01*
X568315Y126678D01*
X568223Y126834D01*
X568157Y126945D01*
X567977Y127192D01*
X567775Y127421D01*
X567551Y127631D01*
X567310Y127819D01*
X567055Y127982D01*
X566787Y128120D01*
X566505Y128232D01*
X566209Y128320D01*
X565899Y128383D01*
X565576Y128420D01*
X565239Y128433D01*
X564834Y128415D01*
X564453Y128362D01*
X564094Y128273D01*
X563758Y128149D01*
X563444Y127990D01*
X563154Y127795D01*
X562887Y127564D01*
X562642Y127298D01*
X562423Y127000D01*
X562234Y126672D01*
X562074Y126314D01*
X561942Y125927D01*
X561840Y125509D01*
X561768Y125062D01*
X561724Y124586D01*
X561709Y124080D01*
X561709Y118273D01*
X574050Y118273D01*
X574050Y119946D01*
G37*
G36*
X574050Y138844D02*
X572710Y138844D01*
X572710Y132406D01*
X572400Y132559D01*
X572085Y132752D01*
X571763Y132988D01*
X571436Y133265D01*
X571095Y133588D01*
X570734Y133963D01*
X570353Y134390D01*
X569951Y134867D01*
X569255Y135709D01*
X568657Y136402D01*
X568156Y136948D01*
X567753Y137346D01*
X567398Y137650D01*
X567043Y137914D01*
X566688Y138139D01*
X566334Y138323D01*
X565978Y138466D01*
X565622Y138569D01*
X565265Y138631D01*
X564906Y138651D01*
X564513Y138635D01*
X564142Y138588D01*
X563795Y138510D01*
X563471Y138400D01*
X563170Y138259D01*
X562892Y138087D01*
X562637Y137883D01*
X562406Y137648D01*
X562199Y137384D01*
X562020Y137093D01*
X561869Y136775D01*
X561745Y136430D01*
X561649Y136058D01*
X561580Y135659D01*
X561539Y135233D01*
X561525Y134780D01*
X561539Y134365D01*
X561580Y133969D01*
X561648Y133592D01*
X561744Y133235D01*
X561867Y132897D01*
X562018Y132578D01*
X562196Y132279D01*
X562401Y131999D01*
X562630Y131743D01*
X562877Y131515D01*
X563143Y131315D01*
X563428Y131144D01*
X563732Y131001D01*
X564055Y130886D01*
X564397Y130800D01*
X564757Y130742D01*
X564906Y132354D01*
X564666Y132391D01*
X564439Y132444D01*
X564226Y132515D01*
X564027Y132602D01*
X563842Y132707D01*
X563670Y132828D01*
X563513Y132965D01*
X563369Y133120D01*
X563241Y133289D01*
X563129Y133469D01*
X563035Y133659D01*
X562958Y133861D01*
X562899Y134074D01*
X562856Y134298D01*
X562830Y134534D01*
X562822Y134780D01*
X562830Y135038D01*
X562857Y135281D01*
X562900Y135509D01*
X562962Y135724D01*
X563041Y135923D01*
X563137Y136108D01*
X563251Y136279D01*
X563382Y136435D01*
X563529Y136575D01*
X563691Y136696D01*
X563867Y136798D01*
X564057Y136882D01*
X564261Y136947D01*
X564479Y136994D01*
X564712Y137022D01*
X564959Y137031D01*
X565325Y137009D01*
X565672Y136944D01*
X566000Y136836D01*
X566307Y136685D01*
X566602Y136498D01*
X566890Y136285D01*
X567171Y136045D01*
X567446Y135778D01*
X567989Y135184D01*
X568532Y134522D01*
X569098Y133822D01*
X569710Y133116D01*
X570037Y132765D01*
X570382Y132423D01*
X570746Y132089D01*
X571129Y131763D01*
X571536Y131453D01*
X571973Y131168D01*
X572440Y130908D01*
X572938Y130672D01*
X574050Y130672D01*
X574050Y138844D01*
G37*
%LPC*%
G36*
X563049Y119946D02*
X563049Y123913D01*
X563058Y124247D01*
X563085Y124560D01*
X563129Y124854D01*
X563191Y125127D01*
X563270Y125381D01*
X563367Y125614D01*
X563482Y125827D01*
X563614Y126020D01*
X563763Y126191D01*
X563929Y126340D01*
X564110Y126465D01*
X564307Y126568D01*
X564521Y126648D01*
X564750Y126705D01*
X564995Y126740D01*
X565256Y126751D01*
X565527Y126740D01*
X565782Y126706D01*
X566021Y126649D01*
X566245Y126570D01*
X566454Y126469D01*
X566647Y126345D01*
X566824Y126198D01*
X566986Y126028D01*
X567131Y125838D01*
X567256Y125630D01*
X567363Y125402D01*
X567449Y125156D01*
X567517Y124891D01*
X567565Y124607D01*
X567594Y124305D01*
X567604Y123983D01*
X567604Y119946D01*
X563049Y119946D01*
G37*
%LPD*%
G36*
X766376Y47024D02*
X770221Y47024D01*
X773426Y41900D01*
X775353Y41900D01*
X773341Y44953D01*
X771850Y47216D01*
X772193Y47289D01*
X772517Y47382D01*
X772822Y47498D01*
X773108Y47635D01*
X773264Y47727D01*
X773375Y47793D01*
X773622Y47974D01*
X773851Y48175D01*
X774061Y48399D01*
X774249Y48640D01*
X774412Y48895D01*
X774550Y49163D01*
X774662Y49445D01*
X774750Y49741D01*
X774813Y50051D01*
X774850Y50374D01*
X774863Y50711D01*
X774845Y51116D01*
X774792Y51497D01*
X774703Y51856D01*
X774579Y52192D01*
X774420Y52506D01*
X774225Y52796D01*
X773994Y53063D01*
X773728Y53308D01*
X773430Y53527D01*
X773102Y53716D01*
X772744Y53876D01*
X772357Y54008D01*
X771939Y54110D01*
X771492Y54182D01*
X771016Y54226D01*
X770510Y54241D01*
X764703Y54241D01*
X764703Y41900D01*
X766376Y41900D01*
X766376Y47024D01*
G37*
G36*
X781690Y41740D02*
X782150Y41783D01*
X782581Y41857D01*
X782983Y41959D01*
X783357Y42091D01*
X783701Y42252D01*
X784016Y42442D01*
X784302Y42662D01*
X784556Y42908D01*
X784777Y43179D01*
X784963Y43473D01*
X785116Y43792D01*
X785235Y44135D01*
X785320Y44501D01*
X785371Y44892D01*
X785388Y45307D01*
X785376Y45596D01*
X785340Y45873D01*
X785279Y46137D01*
X785195Y46389D01*
X785087Y46628D01*
X784954Y46854D01*
X784798Y47068D01*
X784617Y47269D01*
X784415Y47454D01*
X784193Y47619D01*
X783953Y47765D01*
X783693Y47891D01*
X783414Y47997D01*
X783116Y48084D01*
X782799Y48150D01*
X782462Y48197D01*
X782462Y48232D01*
X782768Y48306D01*
X783055Y48394D01*
X783324Y48497D01*
X783574Y48615D01*
X783805Y48747D01*
X784017Y48895D01*
X784210Y49058D01*
X784385Y49235D01*
X784540Y49427D01*
X784674Y49633D01*
X784788Y49853D01*
X784881Y50086D01*
X784953Y50333D01*
X785005Y50594D01*
X785036Y50869D01*
X785046Y51158D01*
X785030Y51533D01*
X784982Y51886D01*
X784901Y52218D01*
X784789Y52530D01*
X784644Y52820D01*
X784467Y53088D01*
X784258Y53336D01*
X784017Y53562D01*
X783747Y53764D01*
X783451Y53939D01*
X783129Y54088D01*
X782781Y54209D01*
X782407Y54303D01*
X782008Y54371D01*
X781582Y54411D01*
X781131Y54425D01*
X780716Y54411D01*
X780320Y54372D01*
X779944Y54305D01*
X779586Y54212D01*
X779248Y54093D01*
X778930Y53947D01*
X778630Y53774D01*
X778350Y53575D01*
X778094Y53352D01*
X777866Y53109D01*
X777666Y52844D01*
X777495Y52559D01*
X777352Y52253D01*
X777238Y51926D01*
X777151Y51579D01*
X777093Y51210D01*
X778679Y51088D01*
X778713Y51324D01*
X778765Y51546D01*
X778833Y51755D01*
X778918Y51950D01*
X779020Y52132D01*
X779139Y52300D01*
X779275Y52454D01*
X779428Y52594D01*
X779595Y52719D01*
X779774Y52828D01*
X779966Y52920D01*
X780171Y52995D01*
X780388Y53053D01*
X780617Y53095D01*
X780859Y53120D01*
X781114Y53128D01*
X781392Y53119D01*
X781652Y53093D01*
X781895Y53048D01*
X782120Y52985D01*
X782327Y52904D01*
X782517Y52806D01*
X782689Y52689D01*
X782843Y52555D01*
X782980Y52405D01*
X783098Y52242D01*
X783198Y52066D01*
X783280Y51877D01*
X783344Y51675D01*
X783389Y51460D01*
X783417Y51232D01*
X783426Y50991D01*
X783415Y50749D01*
X783381Y50519D01*
X783325Y50303D01*
X783247Y50101D01*
X783147Y49913D01*
X783024Y49738D01*
X782879Y49576D01*
X782712Y49428D01*
X782524Y49296D01*
X782319Y49181D01*
X782095Y49084D01*
X781853Y49004D01*
X781592Y48942D01*
X781314Y48898D01*
X781017Y48872D01*
X780702Y48863D01*
X779844Y48863D01*
X779844Y47497D01*
X780737Y47497D01*
X781092Y47488D01*
X781425Y47461D01*
X781737Y47417D01*
X782028Y47355D01*
X782297Y47276D01*
X782544Y47179D01*
X782770Y47064D01*
X782975Y46932D01*
X783156Y46784D01*
X783314Y46622D01*
X783447Y46446D01*
X783556Y46256D01*
X783641Y46053D01*
X783701Y45836D01*
X783738Y45605D01*
X783750Y45360D01*
X783739Y45079D01*
X783707Y44817D01*
X783654Y44573D01*
X783580Y44346D01*
X783485Y44137D01*
X783368Y43946D01*
X783230Y43772D01*
X783071Y43617D01*
X782893Y43479D01*
X782700Y43360D01*
X782490Y43259D01*
X782264Y43177D01*
X782022Y43112D01*
X781765Y43067D01*
X781491Y43039D01*
X781201Y43030D01*
X780912Y43038D01*
X780640Y43064D01*
X780383Y43107D01*
X780143Y43167D01*
X779919Y43244D01*
X779710Y43338D01*
X779518Y43449D01*
X779342Y43577D01*
X779182Y43723D01*
X779038Y43885D01*
X778910Y44065D01*
X778799Y44262D01*
X778703Y44475D01*
X778623Y44706D01*
X778560Y44954D01*
X778512Y45219D01*
X776883Y45071D01*
X776950Y44669D01*
X777045Y44294D01*
X777168Y43943D01*
X777320Y43618D01*
X777500Y43318D01*
X777708Y43043D01*
X777945Y42794D01*
X778210Y42570D01*
X778501Y42372D01*
X778816Y42200D01*
X779154Y42055D01*
X779516Y41936D01*
X779902Y41844D01*
X780311Y41778D01*
X780744Y41738D01*
X781201Y41725D01*
X781690Y41740D01*
G37*
%LPC*%
G36*
X766376Y48346D02*
X766376Y52901D01*
X770343Y52901D01*
X770677Y52892D01*
X770990Y52865D01*
X771284Y52821D01*
X771557Y52760D01*
X771811Y52680D01*
X772044Y52583D01*
X772257Y52468D01*
X772450Y52336D01*
X772621Y52187D01*
X772770Y52021D01*
X772895Y51840D01*
X772998Y51643D01*
X773078Y51430D01*
X773135Y51200D01*
X773170Y50955D01*
X773181Y50694D01*
X773170Y50423D01*
X773136Y50168D01*
X773079Y49929D01*
X773000Y49705D01*
X772899Y49496D01*
X772775Y49303D01*
X772628Y49126D01*
X772458Y48964D01*
X772268Y48819D01*
X772060Y48694D01*
X771832Y48587D01*
X771586Y48501D01*
X771321Y48433D01*
X771037Y48385D01*
X770735Y48356D01*
X770413Y48346D01*
X766376Y48346D01*
G37*
%LPD*%
G36*
X855276Y47024D02*
X859121Y47024D01*
X862326Y41900D01*
X864253Y41900D01*
X862241Y44953D01*
X860750Y47216D01*
X861093Y47289D01*
X861417Y47382D01*
X861722Y47498D01*
X862008Y47635D01*
X862164Y47727D01*
X862275Y47793D01*
X862522Y47974D01*
X862751Y48175D01*
X862961Y48399D01*
X863149Y48640D01*
X863312Y48895D01*
X863450Y49163D01*
X863562Y49445D01*
X863650Y49741D01*
X863713Y50051D01*
X863750Y50374D01*
X863763Y50711D01*
X863745Y51116D01*
X863692Y51497D01*
X863603Y51856D01*
X863479Y52192D01*
X863320Y52506D01*
X863125Y52796D01*
X862894Y53063D01*
X862628Y53308D01*
X862330Y53527D01*
X862002Y53716D01*
X861644Y53876D01*
X861257Y54008D01*
X860839Y54110D01*
X860392Y54182D01*
X859916Y54226D01*
X859410Y54241D01*
X853603Y54241D01*
X853603Y41900D01*
X855276Y41900D01*
X855276Y47024D01*
G37*
G36*
X872816Y44694D02*
X874550Y44694D01*
X874550Y45938D01*
X872816Y45938D01*
X872816Y54241D01*
X871161Y54241D01*
X865512Y45920D01*
X865512Y44694D01*
X871327Y44694D01*
X871327Y41900D01*
X872816Y41900D01*
X872816Y44694D01*
G37*
%LPC*%
G36*
X855276Y48346D02*
X855276Y52901D01*
X859243Y52901D01*
X859577Y52892D01*
X859890Y52865D01*
X860184Y52821D01*
X860457Y52760D01*
X860711Y52680D01*
X860944Y52583D01*
X861157Y52468D01*
X861350Y52336D01*
X861521Y52187D01*
X861670Y52021D01*
X861795Y51840D01*
X861898Y51643D01*
X861978Y51430D01*
X862035Y51200D01*
X862070Y50955D01*
X862081Y50694D01*
X862070Y50423D01*
X862036Y50168D01*
X861979Y49929D01*
X861900Y49705D01*
X861799Y49496D01*
X861675Y49303D01*
X861528Y49126D01*
X861358Y48964D01*
X861168Y48819D01*
X860960Y48694D01*
X860732Y48587D01*
X860486Y48501D01*
X860221Y48433D01*
X859937Y48385D01*
X859635Y48356D01*
X859313Y48346D01*
X855276Y48346D01*
G37*
G36*
X866966Y45938D02*
X867106Y46113D01*
X867579Y46761D01*
X870741Y51421D01*
X871082Y51999D01*
X871327Y52463D01*
X871327Y45938D01*
X866966Y45938D01*
G37*
%LPD*%
G36*
X1009358Y97104D02*
X1009834Y97262D01*
X1010280Y97455D01*
X1010694Y97682D01*
X1011078Y97943D01*
X1011431Y98238D01*
X1011752Y98567D01*
X1012043Y98930D01*
X1012303Y99327D01*
X1012532Y99759D01*
X1012730Y100224D01*
X1012897Y100724D01*
X1013033Y101258D01*
X1013138Y101826D01*
X1013212Y102428D01*
X1013255Y103064D01*
X1015242Y103064D01*
X1015242Y104585D01*
X1013255Y104585D01*
X1013204Y105247D01*
X1013119Y105870D01*
X1013000Y106454D01*
X1012847Y106999D01*
X1012659Y107506D01*
X1012438Y107974D01*
X1012183Y108403D01*
X1011893Y108793D01*
X1011574Y109141D01*
X1011230Y109443D01*
X1010861Y109698D01*
X1010467Y109907D01*
X1010048Y110069D01*
X1009604Y110185D01*
X1009135Y110255D01*
X1008642Y110278D01*
X1008161Y110260D01*
X1007713Y110207D01*
X1007296Y110119D01*
X1006912Y109996D01*
X1006556Y109839D01*
X1006225Y109649D01*
X1005918Y109428D01*
X1005636Y109174D01*
X1005373Y108880D01*
X1005124Y108537D01*
X1004889Y108147D01*
X1004667Y107708D01*
X1004447Y107165D01*
X1004216Y106464D01*
X1003975Y105604D01*
X1003722Y104585D01*
X998263Y104585D01*
X998305Y104934D01*
X998362Y105260D01*
X998436Y105565D01*
X998525Y105849D01*
X998631Y106111D01*
X998752Y106352D01*
X998889Y106571D01*
X999042Y106769D01*
X999211Y106948D01*
X999396Y107112D01*
X999597Y107260D01*
X999813Y107392D01*
X1000046Y107508D01*
X1000295Y107609D01*
X1000559Y107694D01*
X1000839Y107763D01*
X1000435Y109898D01*
X999960Y109757D01*
X999518Y109594D01*
X999108Y109408D01*
X998731Y109198D01*
X998386Y108966D01*
X998073Y108711D01*
X997793Y108432D01*
X997545Y108131D01*
X997327Y107802D01*
X997133Y107440D01*
X996965Y107046D01*
X996823Y106619D01*
X996706Y106159D01*
X996615Y105667D01*
X996549Y105143D01*
X996509Y104585D01*
X994902Y104585D01*
X994902Y103064D01*
X996509Y103064D01*
X996551Y102447D01*
X996624Y101867D01*
X996727Y101323D01*
X996860Y100815D01*
X997023Y100343D01*
X997216Y99907D01*
X997439Y99508D01*
X997693Y99145D01*
X997974Y98821D01*
X998281Y98541D01*
X998614Y98304D01*
X998973Y98109D01*
X999358Y97959D01*
X999769Y97851D01*
X1000205Y97786D01*
X1000668Y97764D01*
X1001099Y97779D01*
X1001499Y97821D01*
X1001866Y97892D01*
X1002201Y97991D01*
X1002515Y98123D01*
X1002819Y98289D01*
X1003113Y98491D01*
X1003397Y98727D01*
X1003668Y99002D01*
X1003923Y99316D01*
X1004162Y99671D01*
X1004385Y100065D01*
X1004606Y100563D01*
X1004728Y100908D01*
X1004842Y101229D01*
X1005091Y102062D01*
X1005354Y103064D01*
X1011439Y103064D01*
X1011402Y102641D01*
X1011395Y102594D01*
X1011345Y102241D01*
X1011268Y101866D01*
X1011172Y101514D01*
X1011057Y101186D01*
X1010921Y100882D01*
X1010767Y100603D01*
X1010592Y100347D01*
X1010397Y100113D01*
X1010179Y99901D01*
X1009939Y99709D01*
X1009675Y99539D01*
X1009390Y99389D01*
X1009081Y99260D01*
X1008750Y99152D01*
X1008397Y99065D01*
X1008850Y96979D01*
X1009358Y97104D01*
G37*
G36*
X1007719Y80505D02*
X1008202Y80546D01*
X1008667Y80614D01*
X1009114Y80709D01*
X1009544Y80832D01*
X1009956Y80981D01*
X1010351Y81158D01*
X1010727Y81363D01*
X1011085Y81591D01*
X1011420Y81843D01*
X1011733Y82116D01*
X1012025Y82411D01*
X1012295Y82729D01*
X1012542Y83069D01*
X1012768Y83432D01*
X1012973Y83816D01*
X1013154Y84220D01*
X1013311Y84641D01*
X1013443Y85079D01*
X1013552Y85534D01*
X1013637Y86005D01*
X1013697Y86494D01*
X1013733Y86999D01*
X1013745Y87521D01*
X1013733Y88064D01*
X1013695Y88589D01*
X1013632Y89095D01*
X1013544Y89584D01*
X1013432Y90054D01*
X1013293Y90506D01*
X1013130Y90939D01*
X1012942Y91355D01*
X1012730Y91750D01*
X1012495Y92122D01*
X1012238Y92470D01*
X1011959Y92796D01*
X1011657Y93099D01*
X1011333Y93379D01*
X1010986Y93636D01*
X1010617Y93870D01*
X1010228Y94078D01*
X1009820Y94259D01*
X1009395Y94412D01*
X1008952Y94537D01*
X1008490Y94634D01*
X1008011Y94704D01*
X1007513Y94745D01*
X1006998Y94759D01*
X996214Y94759D01*
X996214Y92428D01*
X1006863Y92428D01*
X1007455Y92408D01*
X1008010Y92347D01*
X1008529Y92246D01*
X1009011Y92105D01*
X1009457Y91923D01*
X1009866Y91700D01*
X1010238Y91437D01*
X1010574Y91134D01*
X1010872Y90794D01*
X1011130Y90422D01*
X1011348Y90018D01*
X1011526Y89581D01*
X1011665Y89111D01*
X1011764Y88609D01*
X1011824Y88075D01*
X1011844Y87509D01*
X1011825Y86958D01*
X1011767Y86441D01*
X1011671Y85957D01*
X1011537Y85506D01*
X1011365Y85089D01*
X1011154Y84705D01*
X1010905Y84354D01*
X1010617Y84037D01*
X1010293Y83755D01*
X1009932Y83511D01*
X1009536Y83304D01*
X1009105Y83135D01*
X1008638Y83004D01*
X1008135Y82910D01*
X1007597Y82853D01*
X1007022Y82835D01*
X996214Y82835D01*
X996214Y80491D01*
X1007219Y80491D01*
X1007719Y80505D01*
G37*
G36*
X1013500Y123425D02*
X1011623Y123425D01*
X1011623Y119217D01*
X996214Y119217D01*
X996214Y117180D01*
X999024Y113095D01*
X1001109Y113095D01*
X998324Y116996D01*
X1011623Y116996D01*
X1011623Y112592D01*
X1013500Y112592D01*
X1013500Y123425D01*
G37*
%LPC*%
G36*
X1005710Y104585D02*
X1005929Y105385D01*
X1006135Y106042D01*
X1006325Y106557D01*
X1006501Y106929D01*
X1006681Y107212D01*
X1006883Y107459D01*
X1007107Y107672D01*
X1007354Y107849D01*
X1007629Y107988D01*
X1007940Y108088D01*
X1008285Y108148D01*
X1008666Y108168D01*
X1008971Y108153D01*
X1009258Y108110D01*
X1009529Y108037D01*
X1009783Y107936D01*
X1010020Y107806D01*
X1010240Y107647D01*
X1010443Y107459D01*
X1010629Y107242D01*
X1010798Y106997D01*
X1010948Y106728D01*
X1011078Y106434D01*
X1011191Y106114D01*
X1011284Y105770D01*
X1011358Y105400D01*
X1011397Y105131D01*
X1011414Y105005D01*
X1011451Y104585D01*
X1005710Y104585D01*
G37*
G36*
X1000372Y99887D02*
X1000117Y99924D01*
X999878Y99987D01*
X999656Y100074D01*
X999449Y100186D01*
X999258Y100323D01*
X999084Y100485D01*
X998926Y100672D01*
X998783Y100884D01*
X998657Y101121D01*
X998547Y101382D01*
X998453Y101669D01*
X998375Y101980D01*
X998314Y102317D01*
X998268Y102678D01*
X998239Y103064D01*
X1003403Y103064D01*
X1003232Y102431D01*
X1003060Y101891D01*
X1002888Y101446D01*
X1002716Y101095D01*
X1002535Y100810D01*
X1002333Y100563D01*
X1002111Y100353D01*
X1001878Y100187D01*
X1001870Y100181D01*
X1001605Y100047D01*
X1001312Y99951D01*
X1000991Y99894D01*
X1000643Y99875D01*
X1000372Y99887D01*
G37*
%LPD*%
G36*
X691829Y-4861D02*
X692264Y-4822D01*
X692685Y-4757D01*
X693092Y-4666D01*
X693485Y-4549D01*
X693864Y-4406D01*
X694230Y-4237D01*
X694582Y-4042D01*
X694917Y-3822D01*
X695233Y-3578D01*
X695530Y-3311D01*
X695807Y-3020D01*
X696065Y-2704D01*
X696304Y-2365D01*
X696523Y-2003D01*
X696723Y-1616D01*
X695357Y-933D01*
X695189Y-1244D01*
X695011Y-1534D01*
X694822Y-1805D01*
X694624Y-2056D01*
X694416Y-2286D01*
X694197Y-2497D01*
X693969Y-2687D01*
X693730Y-2858D01*
X693481Y-3008D01*
X693223Y-3138D01*
X692954Y-3248D01*
X692675Y-3339D01*
X692386Y-3409D01*
X692087Y-3459D01*
X691778Y-3489D01*
X691459Y-3499D01*
X690967Y-3478D01*
X690500Y-3413D01*
X690060Y-3305D01*
X689645Y-3154D01*
X689257Y-2960D01*
X688895Y-2723D01*
X688559Y-2443D01*
X688249Y-2120D01*
X687971Y-1761D01*
X687730Y-1374D01*
X687526Y-960D01*
X687359Y-518D01*
X687229Y-48D01*
X687137Y450D01*
X687081Y975D01*
X687063Y1528D01*
X687080Y2087D01*
X687134Y2615D01*
X687223Y3112D01*
X687347Y3579D01*
X687507Y4015D01*
X687703Y4421D01*
X687934Y4796D01*
X688201Y5141D01*
X688500Y5450D01*
X688827Y5718D01*
X689183Y5944D01*
X689567Y6130D01*
X689980Y6274D01*
X690421Y6377D01*
X690891Y6439D01*
X691389Y6459D01*
X691710Y6450D01*
X692020Y6424D01*
X692318Y6379D01*
X692606Y6317D01*
X692882Y6237D01*
X693147Y6139D01*
X693401Y6024D01*
X693645Y5890D01*
X693874Y5740D01*
X694087Y5574D01*
X694284Y5392D01*
X694465Y5194D01*
X694629Y4980D01*
X694777Y4750D01*
X694909Y4505D01*
X695024Y4243D01*
X696609Y4769D01*
X696443Y5136D01*
X696255Y5480D01*
X696044Y5801D01*
X695812Y6098D01*
X695558Y6372D01*
X695282Y6623D01*
X694985Y6851D01*
X694665Y7055D01*
X694324Y7236D01*
X693963Y7392D01*
X693582Y7525D01*
X693180Y7633D01*
X692759Y7717D01*
X692317Y7778D01*
X691854Y7814D01*
X691372Y7826D01*
X691024Y7819D01*
X690686Y7800D01*
X690357Y7767D01*
X690038Y7721D01*
X689729Y7662D01*
X689429Y7590D01*
X689139Y7506D01*
X688858Y7407D01*
X688587Y7296D01*
X688325Y7172D01*
X688073Y7035D01*
X687831Y6885D01*
X687375Y6545D01*
X686957Y6153D01*
X686584Y5715D01*
X686260Y5236D01*
X685986Y4718D01*
X685868Y4444D01*
X685762Y4160D01*
X685669Y3866D01*
X685588Y3562D01*
X685519Y3248D01*
X685463Y2924D01*
X685419Y2590D01*
X685388Y2246D01*
X685370Y1892D01*
X685363Y1528D01*
X685375Y1044D01*
X685408Y576D01*
X685464Y125D01*
X685542Y-310D01*
X685642Y-728D01*
X685765Y-1130D01*
X685910Y-1515D01*
X686077Y-1883D01*
X686266Y-2233D01*
X686475Y-2562D01*
X686704Y-2870D01*
X686953Y-3158D01*
X687223Y-3424D01*
X687513Y-3670D01*
X687823Y-3895D01*
X688153Y-4099D01*
X688501Y-4281D01*
X688865Y-4438D01*
X689245Y-4571D01*
X689641Y-4680D01*
X690052Y-4765D01*
X690479Y-4826D01*
X690922Y-4862D01*
X691381Y-4874D01*
X691829Y-4861D01*
G37*
G36*
X706495Y-3359D02*
X700058Y-3359D01*
X700210Y-3049D01*
X700404Y-2734D01*
X700639Y-2412D01*
X700916Y-2085D01*
X701239Y-1744D01*
X701614Y-1383D01*
X702041Y-1002D01*
X702519Y-600D01*
X703360Y96D01*
X704054Y694D01*
X704599Y1195D01*
X704997Y1598D01*
X705301Y1953D01*
X705566Y2308D01*
X705790Y2663D01*
X705974Y3017D01*
X706118Y3373D01*
X706220Y3729D01*
X706282Y4086D01*
X706302Y4445D01*
X706287Y4838D01*
X706240Y5209D01*
X706161Y5556D01*
X706052Y5880D01*
X705911Y6181D01*
X705738Y6459D01*
X705535Y6714D01*
X705300Y6945D01*
X705035Y7152D01*
X704744Y7331D01*
X704426Y7482D01*
X704081Y7606D01*
X703709Y7702D01*
X703310Y7771D01*
X702884Y7812D01*
X702431Y7826D01*
X702016Y7812D01*
X701620Y7771D01*
X701244Y7703D01*
X700886Y7607D01*
X700548Y7484D01*
X700230Y7333D01*
X699930Y7155D01*
X699650Y6950D01*
X699394Y6721D01*
X699166Y6474D01*
X698967Y6208D01*
X698795Y5923D01*
X698652Y5619D01*
X698538Y5296D01*
X698451Y4954D01*
X698393Y4594D01*
X700005Y4445D01*
X700042Y4685D01*
X700096Y4912D01*
X700166Y5125D01*
X700254Y5324D01*
X700358Y5509D01*
X700479Y5681D01*
X700617Y5838D01*
X700771Y5982D01*
X700940Y6110D01*
X701120Y6222D01*
X701311Y6316D01*
X701513Y6393D01*
X701726Y6452D01*
X701950Y6495D01*
X702185Y6521D01*
X702431Y6529D01*
X702689Y6521D01*
X702932Y6494D01*
X703161Y6451D01*
X703375Y6389D01*
X703575Y6310D01*
X703760Y6214D01*
X703930Y6100D01*
X704087Y5969D01*
X704226Y5822D01*
X704347Y5660D01*
X704449Y5484D01*
X704533Y5294D01*
X704598Y5090D01*
X704645Y4872D01*
X704673Y4639D01*
X704682Y4392D01*
X704660Y4026D01*
X704596Y3679D01*
X704487Y3351D01*
X704336Y3044D01*
X704150Y2749D01*
X703937Y2461D01*
X703696Y2180D01*
X703430Y1905D01*
X702835Y1362D01*
X702173Y819D01*
X701473Y253D01*
X700767Y-359D01*
X700416Y-686D01*
X700074Y-1031D01*
X699740Y-1395D01*
X699414Y-1778D01*
X699104Y-2185D01*
X698819Y-2622D01*
X698559Y-3089D01*
X698323Y-3587D01*
X698323Y-4699D01*
X706495Y-4699D01*
X706495Y-3359D01*
G37*
G36*
X647037Y132925D02*
X647505Y132958D01*
X647956Y133014D01*
X648391Y133092D01*
X648809Y133192D01*
X649211Y133315D01*
X649596Y133460D01*
X649964Y133627D01*
X650314Y133816D01*
X650643Y134025D01*
X650951Y134254D01*
X651239Y134503D01*
X651505Y134773D01*
X651751Y135063D01*
X651976Y135373D01*
X652180Y135703D01*
X652362Y136051D01*
X652519Y136415D01*
X652652Y136795D01*
X652761Y137191D01*
X652846Y137602D01*
X652907Y138029D01*
X652943Y138472D01*
X652955Y138931D01*
X652942Y139379D01*
X652903Y139814D01*
X652838Y140235D01*
X652747Y140642D01*
X652630Y141035D01*
X652487Y141414D01*
X652318Y141780D01*
X652123Y142132D01*
X651903Y142467D01*
X651659Y142783D01*
X651392Y143080D01*
X651101Y143357D01*
X650785Y143615D01*
X650446Y143854D01*
X650084Y144073D01*
X649697Y144273D01*
X649014Y142907D01*
X649325Y142739D01*
X649615Y142561D01*
X649886Y142372D01*
X650137Y142174D01*
X650367Y141966D01*
X650578Y141747D01*
X650768Y141519D01*
X650939Y141280D01*
X651089Y141031D01*
X651219Y140773D01*
X651329Y140504D01*
X651420Y140225D01*
X651490Y139936D01*
X651540Y139637D01*
X651570Y139328D01*
X651580Y139009D01*
X651559Y138517D01*
X651494Y138050D01*
X651386Y137610D01*
X651235Y137195D01*
X651041Y136807D01*
X650804Y136445D01*
X650524Y136109D01*
X650201Y135799D01*
X649842Y135521D01*
X649455Y135280D01*
X649041Y135076D01*
X648599Y134909D01*
X648129Y134779D01*
X647631Y134687D01*
X647106Y134631D01*
X646553Y134613D01*
X645994Y134630D01*
X645466Y134684D01*
X644969Y134773D01*
X644502Y134897D01*
X644066Y135057D01*
X643660Y135253D01*
X643285Y135484D01*
X642940Y135751D01*
X642631Y136050D01*
X642363Y136377D01*
X642137Y136733D01*
X641951Y137117D01*
X641807Y137530D01*
X641704Y137971D01*
X641642Y138441D01*
X641622Y138939D01*
X641631Y139260D01*
X641657Y139570D01*
X641702Y139868D01*
X641764Y140156D01*
X641844Y140432D01*
X641942Y140697D01*
X642058Y140951D01*
X642191Y141195D01*
X642341Y141424D01*
X642507Y141637D01*
X642689Y141834D01*
X642887Y142015D01*
X643101Y142179D01*
X643331Y142327D01*
X643576Y142459D01*
X643838Y142574D01*
X643312Y144159D01*
X642945Y143993D01*
X642601Y143805D01*
X642280Y143594D01*
X641983Y143362D01*
X641709Y143108D01*
X641458Y142832D01*
X641230Y142535D01*
X641026Y142215D01*
X640845Y141874D01*
X640689Y141513D01*
X640556Y141132D01*
X640448Y140730D01*
X640364Y140309D01*
X640303Y139867D01*
X640267Y139404D01*
X640255Y138922D01*
X640262Y138574D01*
X640281Y138236D01*
X640314Y137907D01*
X640360Y137588D01*
X640419Y137279D01*
X640491Y136979D01*
X640576Y136689D01*
X640674Y136408D01*
X640785Y136137D01*
X640909Y135875D01*
X641046Y135623D01*
X641196Y135381D01*
X641536Y134925D01*
X641928Y134507D01*
X642366Y134134D01*
X642845Y133810D01*
X643363Y133536D01*
X643637Y133418D01*
X643921Y133312D01*
X644215Y133219D01*
X644519Y133138D01*
X644833Y133069D01*
X645157Y133013D01*
X645491Y132969D01*
X645835Y132938D01*
X646189Y132920D01*
X646553Y132913D01*
X647037Y132925D01*
G37*
G36*
X650011Y145721D02*
X650386Y145816D01*
X650737Y145940D01*
X651062Y146091D01*
X651362Y146271D01*
X651637Y146480D01*
X651886Y146716D01*
X652110Y146981D01*
X652308Y147272D01*
X652480Y147587D01*
X652625Y147925D01*
X652744Y148287D01*
X652836Y148673D01*
X652902Y149083D01*
X652942Y149516D01*
X652955Y149972D01*
X652941Y150461D01*
X652897Y150922D01*
X652823Y151353D01*
X652721Y151755D01*
X652589Y152128D01*
X652428Y152472D01*
X652238Y152787D01*
X652018Y153073D01*
X651772Y153327D01*
X651501Y153548D01*
X651207Y153735D01*
X650888Y153887D01*
X650546Y154006D01*
X650179Y154091D01*
X649788Y154142D01*
X649373Y154159D01*
X649084Y154147D01*
X648807Y154111D01*
X648543Y154051D01*
X648291Y153966D01*
X648052Y153858D01*
X647826Y153725D01*
X647612Y153569D01*
X647411Y153388D01*
X647226Y153186D01*
X647061Y152965D01*
X646915Y152724D01*
X646789Y152464D01*
X646683Y152185D01*
X646596Y151887D01*
X646530Y151570D01*
X646483Y151234D01*
X646448Y151234D01*
X646374Y151540D01*
X646286Y151827D01*
X646183Y152095D01*
X646066Y152345D01*
X645933Y152576D01*
X645785Y152788D01*
X645622Y152981D01*
X645445Y153156D01*
X645253Y153311D01*
X645047Y153445D01*
X644827Y153559D01*
X644594Y153652D01*
X644347Y153724D01*
X644086Y153776D01*
X643811Y153807D01*
X643522Y153817D01*
X643147Y153801D01*
X642794Y153753D01*
X642462Y153673D01*
X642150Y153560D01*
X641861Y153415D01*
X641592Y153238D01*
X641344Y153029D01*
X641118Y152788D01*
X640916Y152518D01*
X640741Y152222D01*
X640592Y151900D01*
X640471Y151552D01*
X640377Y151179D01*
X640309Y150779D01*
X640269Y150354D01*
X640255Y149902D01*
X640269Y149487D01*
X640308Y149091D01*
X640375Y148715D01*
X640468Y148358D01*
X640587Y148020D01*
X640733Y147701D01*
X640906Y147402D01*
X641105Y147121D01*
X641328Y146865D01*
X641571Y146637D01*
X641836Y146438D01*
X642121Y146266D01*
X642427Y146123D01*
X642754Y146009D01*
X643101Y145923D01*
X643470Y145865D01*
X643592Y147450D01*
X643356Y147485D01*
X643134Y147536D01*
X642925Y147604D01*
X642730Y147690D01*
X642548Y147792D01*
X642380Y147911D01*
X642226Y148046D01*
X642086Y148199D01*
X641961Y148366D01*
X641852Y148546D01*
X641760Y148738D01*
X641685Y148942D01*
X641627Y149159D01*
X641585Y149389D01*
X641560Y149630D01*
X641552Y149885D01*
X641561Y150163D01*
X641587Y150423D01*
X641632Y150666D01*
X641695Y150891D01*
X641776Y151098D01*
X641874Y151288D01*
X641991Y151460D01*
X642125Y151615D01*
X642275Y151751D01*
X642438Y151869D01*
X642614Y151970D01*
X642803Y152051D01*
X643005Y152115D01*
X643220Y152161D01*
X643448Y152188D01*
X643689Y152197D01*
X643932Y152186D01*
X644161Y152152D01*
X644377Y152097D01*
X644579Y152019D01*
X644767Y151918D01*
X644943Y151796D01*
X645104Y151651D01*
X645252Y151483D01*
X645384Y151296D01*
X645499Y151090D01*
X645596Y150866D01*
X645676Y150624D01*
X645738Y150363D01*
X645782Y150085D01*
X645808Y149788D01*
X645817Y149473D01*
X645817Y148615D01*
X647183Y148615D01*
X647183Y149508D01*
X647192Y149863D01*
X647219Y150197D01*
X647263Y150508D01*
X647325Y150799D01*
X647404Y151068D01*
X647501Y151315D01*
X647616Y151541D01*
X647748Y151746D01*
X647896Y151928D01*
X648058Y152085D01*
X648234Y152218D01*
X648424Y152327D01*
X648627Y152412D01*
X648844Y152473D01*
X649076Y152509D01*
X649320Y152521D01*
X649601Y152511D01*
X649863Y152479D01*
X650107Y152426D01*
X650334Y152351D01*
X650543Y152256D01*
X650734Y152139D01*
X650908Y152001D01*
X651063Y151842D01*
X651201Y151665D01*
X651320Y151471D01*
X651421Y151261D01*
X651503Y151035D01*
X651568Y150794D01*
X651614Y150536D01*
X651641Y150262D01*
X651650Y149972D01*
X651642Y149684D01*
X651616Y149411D01*
X651573Y149155D01*
X651513Y148914D01*
X651436Y148690D01*
X651342Y148482D01*
X651231Y148289D01*
X651103Y148113D01*
X650957Y147953D01*
X650795Y147809D01*
X650615Y147682D01*
X650419Y147570D01*
X650205Y147474D01*
X649974Y147394D01*
X649726Y147331D01*
X649461Y147284D01*
X649609Y145654D01*
X650011Y145721D01*
G37*
G36*
X761746Y114369D02*
X764540Y114369D01*
X764540Y115858D01*
X761746Y115858D01*
X761746Y117592D01*
X760502Y117592D01*
X760502Y115858D01*
X752199Y115858D01*
X752199Y114202D01*
X760520Y108553D01*
X761746Y108553D01*
X761746Y114369D01*
G37*
G36*
X758797Y96095D02*
X759265Y96128D01*
X759716Y96184D01*
X760151Y96262D01*
X760569Y96362D01*
X760971Y96485D01*
X761356Y96630D01*
X761724Y96797D01*
X762074Y96986D01*
X762403Y97195D01*
X762711Y97424D01*
X762999Y97673D01*
X763265Y97943D01*
X763511Y98233D01*
X763736Y98543D01*
X763940Y98873D01*
X764122Y99221D01*
X764279Y99585D01*
X764412Y99965D01*
X764521Y100361D01*
X764606Y100772D01*
X764667Y101199D01*
X764703Y101642D01*
X764715Y102101D01*
X764702Y102549D01*
X764663Y102984D01*
X764598Y103405D01*
X764507Y103812D01*
X764390Y104205D01*
X764247Y104584D01*
X764078Y104950D01*
X763883Y105302D01*
X763663Y105637D01*
X763419Y105953D01*
X763152Y106250D01*
X762861Y106527D01*
X762545Y106785D01*
X762206Y107024D01*
X761844Y107243D01*
X761457Y107443D01*
X760774Y106077D01*
X761085Y105909D01*
X761375Y105731D01*
X761646Y105542D01*
X761897Y105344D01*
X762127Y105136D01*
X762338Y104917D01*
X762528Y104689D01*
X762699Y104450D01*
X762849Y104201D01*
X762979Y103943D01*
X763089Y103674D01*
X763180Y103395D01*
X763250Y103106D01*
X763300Y102807D01*
X763330Y102498D01*
X763340Y102179D01*
X763319Y101687D01*
X763254Y101220D01*
X763146Y100780D01*
X762995Y100365D01*
X762801Y99977D01*
X762564Y99615D01*
X762284Y99279D01*
X761961Y98969D01*
X761602Y98691D01*
X761215Y98450D01*
X760801Y98246D01*
X760359Y98079D01*
X759889Y97949D01*
X759391Y97857D01*
X758866Y97801D01*
X758313Y97783D01*
X757754Y97800D01*
X757226Y97854D01*
X756729Y97943D01*
X756262Y98067D01*
X755826Y98227D01*
X755420Y98423D01*
X755045Y98654D01*
X754700Y98921D01*
X754391Y99220D01*
X754123Y99547D01*
X753897Y99903D01*
X753711Y100287D01*
X753567Y100700D01*
X753464Y101141D01*
X753402Y101611D01*
X753382Y102109D01*
X753391Y102430D01*
X753417Y102740D01*
X753462Y103038D01*
X753524Y103326D01*
X753604Y103602D01*
X753702Y103867D01*
X753818Y104121D01*
X753951Y104365D01*
X754101Y104594D01*
X754267Y104807D01*
X754449Y105004D01*
X754647Y105185D01*
X754861Y105349D01*
X755091Y105497D01*
X755336Y105629D01*
X755598Y105744D01*
X755072Y107329D01*
X754705Y107163D01*
X754361Y106975D01*
X754040Y106764D01*
X753743Y106532D01*
X753469Y106278D01*
X753218Y106002D01*
X752990Y105705D01*
X752786Y105385D01*
X752605Y105044D01*
X752449Y104683D01*
X752316Y104302D01*
X752208Y103900D01*
X752124Y103479D01*
X752063Y103037D01*
X752027Y102574D01*
X752015Y102092D01*
X752022Y101744D01*
X752041Y101406D01*
X752074Y101077D01*
X752120Y100758D01*
X752179Y100449D01*
X752251Y100149D01*
X752336Y99859D01*
X752434Y99578D01*
X752545Y99307D01*
X752669Y99045D01*
X752806Y98793D01*
X752956Y98551D01*
X753296Y98095D01*
X753688Y97677D01*
X754126Y97304D01*
X754605Y96980D01*
X755123Y96706D01*
X755397Y96588D01*
X755681Y96482D01*
X755975Y96389D01*
X756279Y96308D01*
X756593Y96239D01*
X756917Y96183D01*
X757251Y96139D01*
X757595Y96108D01*
X757949Y96090D01*
X758313Y96083D01*
X758797Y96095D01*
G37*
G36*
X764540Y93532D02*
X752199Y93532D01*
X752199Y91859D01*
X764540Y91859D01*
X764540Y93532D01*
G37*
%LPC*%
G36*
X760327Y110147D02*
X759679Y110620D01*
X755019Y113782D01*
X754441Y114123D01*
X753977Y114369D01*
X760502Y114369D01*
X760502Y110007D01*
X760327Y110147D01*
G37*
%LPD*%
G36*
X165423Y139683D02*
X165414Y140764D01*
X165403Y141052D01*
X165388Y141171D01*
X165431Y141171D01*
X165531Y140972D01*
X165642Y140786D01*
X165764Y140612D01*
X165898Y140451D01*
X166043Y140303D01*
X166198Y140168D01*
X166365Y140046D01*
X166544Y139936D01*
X166733Y139840D01*
X166934Y139756D01*
X167146Y139686D01*
X167369Y139628D01*
X167604Y139583D01*
X167849Y139551D01*
X168106Y139531D01*
X168374Y139525D01*
X168796Y139544D01*
X169191Y139602D01*
X169559Y139699D01*
X169899Y139835D01*
X170213Y140009D01*
X170499Y140222D01*
X170757Y140474D01*
X170989Y140764D01*
X171193Y141093D01*
X171370Y141461D01*
X171520Y141868D01*
X171642Y142313D01*
X171738Y142797D01*
X171806Y143320D01*
X171847Y143882D01*
X171860Y144482D01*
X171847Y145090D01*
X171806Y145655D01*
X171738Y146179D01*
X171643Y146661D01*
X171522Y147101D01*
X171373Y147499D01*
X171196Y147855D01*
X170993Y148170D01*
X170763Y148445D01*
X170504Y148683D01*
X170218Y148885D01*
X169905Y149050D01*
X169564Y149178D01*
X169195Y149270D01*
X168798Y149325D01*
X168374Y149343D01*
X168099Y149337D01*
X167837Y149318D01*
X167589Y149286D01*
X167354Y149241D01*
X167133Y149184D01*
X166926Y149114D01*
X166732Y149031D01*
X166553Y148936D01*
X166384Y148827D01*
X166224Y148703D01*
X165929Y148411D01*
X165667Y148061D01*
X165440Y147653D01*
X165405Y147653D01*
X165383Y148266D01*
X165344Y148927D01*
X165318Y149177D01*
X163794Y149177D01*
X163817Y148878D01*
X163833Y148456D01*
X163846Y147241D01*
X163846Y135978D01*
X165423Y135978D01*
X165423Y139683D01*
G37*
G36*
X274748Y139544D02*
X275223Y139601D01*
X275667Y139696D01*
X276079Y139829D01*
X276461Y140000D01*
X276812Y140210D01*
X277133Y140457D01*
X277422Y140742D01*
X277678Y141066D01*
X277901Y141430D01*
X278089Y141834D01*
X278243Y142277D01*
X278363Y142760D01*
X278448Y143283D01*
X278499Y143845D01*
X278516Y144447D01*
X278500Y145055D01*
X278452Y145622D01*
X278372Y146147D01*
X278260Y146631D01*
X278116Y147074D01*
X277940Y147476D01*
X277732Y147837D01*
X277492Y148156D01*
X277218Y148437D01*
X276908Y148679D01*
X276562Y148885D01*
X276180Y149053D01*
X275763Y149184D01*
X275309Y149277D01*
X274820Y149333D01*
X274295Y149352D01*
X273780Y149333D01*
X273299Y149275D01*
X272851Y149179D01*
X272436Y149045D01*
X272055Y148873D01*
X271706Y148662D01*
X271391Y148413D01*
X271109Y148126D01*
X270860Y147800D01*
X270644Y147436D01*
X270462Y147034D01*
X270312Y146593D01*
X270196Y146114D01*
X270113Y145597D01*
X270064Y145041D01*
X270047Y144447D01*
X270064Y143867D01*
X270113Y143322D01*
X270196Y142812D01*
X270312Y142337D01*
X270461Y141898D01*
X270643Y141494D01*
X270858Y141124D01*
X271107Y140790D01*
X271388Y140494D01*
X271700Y140237D01*
X272044Y140019D01*
X272421Y139841D01*
X272828Y139703D01*
X273268Y139604D01*
X273739Y139545D01*
X274242Y139525D01*
X274748Y139544D01*
G37*
G36*
X156576Y139532D02*
X156847Y139553D01*
X157107Y139588D01*
X157356Y139638D01*
X157594Y139701D01*
X157821Y139779D01*
X158038Y139870D01*
X158244Y139976D01*
X158441Y140099D01*
X158632Y140241D01*
X158817Y140403D01*
X158996Y140586D01*
X159168Y140788D01*
X159335Y141010D01*
X159649Y141513D01*
X159702Y141513D01*
X159750Y141055D01*
X159790Y140851D01*
X159841Y140662D01*
X159903Y140490D01*
X159975Y140335D01*
X160059Y140195D01*
X160153Y140072D01*
X160260Y139964D01*
X160382Y139871D01*
X160519Y139792D01*
X160671Y139727D01*
X160838Y139677D01*
X161019Y139641D01*
X161216Y139620D01*
X161427Y139612D01*
X161737Y139621D01*
X162043Y139647D01*
X162345Y139691D01*
X162645Y139753D01*
X162645Y140734D01*
X162371Y140688D01*
X162128Y140672D01*
X161890Y140694D01*
X161694Y140761D01*
X161540Y140872D01*
X161427Y141027D01*
X161347Y141226D01*
X161289Y141468D01*
X161255Y141754D01*
X161243Y142082D01*
X161243Y146164D01*
X161229Y146540D01*
X161187Y146893D01*
X161117Y147224D01*
X161018Y147531D01*
X160891Y147816D01*
X160736Y148078D01*
X160553Y148317D01*
X160341Y148533D01*
X160102Y148725D01*
X159835Y148891D01*
X159540Y149032D01*
X159218Y149147D01*
X158868Y149237D01*
X158490Y149301D01*
X158085Y149339D01*
X157652Y149352D01*
X157239Y149342D01*
X156850Y149312D01*
X156483Y149262D01*
X156140Y149192D01*
X155821Y149102D01*
X155525Y148992D01*
X155252Y148862D01*
X155003Y148713D01*
X154777Y148543D01*
X154575Y148353D01*
X154395Y148143D01*
X154240Y147913D01*
X154108Y147664D01*
X153999Y147394D01*
X153913Y147104D01*
X153851Y146794D01*
X155498Y146646D01*
X155528Y146836D01*
X155570Y147013D01*
X155624Y147176D01*
X155690Y147327D01*
X155769Y147463D01*
X155859Y147587D01*
X155961Y147696D01*
X156076Y147793D01*
X156205Y147877D01*
X156353Y147950D01*
X156518Y148012D01*
X156702Y148062D01*
X156904Y148101D01*
X157124Y148130D01*
X157617Y148152D01*
X157871Y148144D01*
X158108Y148121D01*
X158327Y148082D01*
X158528Y148027D01*
X158712Y147957D01*
X158879Y147871D01*
X159027Y147770D01*
X159159Y147653D01*
X159274Y147518D01*
X159373Y147362D01*
X159458Y147186D01*
X159527Y146989D01*
X159580Y146772D01*
X159619Y146534D01*
X159642Y146276D01*
X159649Y145997D01*
X159649Y145481D01*
X157521Y145446D01*
X157001Y145421D01*
X156518Y145373D01*
X156072Y145303D01*
X155663Y145209D01*
X155291Y145093D01*
X154957Y144953D01*
X154659Y144790D01*
X154399Y144605D01*
X154172Y144397D01*
X153975Y144168D01*
X153809Y143918D01*
X153673Y143646D01*
X153567Y143353D01*
X153491Y143038D01*
X153446Y142702D01*
X153431Y142345D01*
X153442Y142025D01*
X153476Y141723D01*
X153532Y141439D01*
X153610Y141171D01*
X153711Y140922D01*
X153835Y140690D01*
X153981Y140475D01*
X154149Y140278D01*
X154340Y140102D01*
X154552Y139949D01*
X154787Y139819D01*
X155045Y139713D01*
X155324Y139631D01*
X155625Y139572D01*
X155949Y139537D01*
X156295Y139525D01*
X156576Y139532D01*
G37*
G36*
X176514Y139532D02*
X176784Y139553D01*
X177044Y139588D01*
X177293Y139638D01*
X177531Y139701D01*
X177759Y139779D01*
X177975Y139870D01*
X178181Y139976D01*
X178378Y140099D01*
X178569Y140241D01*
X178754Y140403D01*
X178933Y140586D01*
X179106Y140788D01*
X179272Y141010D01*
X179587Y141513D01*
X179639Y141513D01*
X179687Y141055D01*
X179727Y140851D01*
X179778Y140662D01*
X179840Y140490D01*
X179913Y140335D01*
X179996Y140195D01*
X180090Y140072D01*
X180198Y139964D01*
X180320Y139871D01*
X180456Y139792D01*
X180608Y139727D01*
X180775Y139677D01*
X180957Y139641D01*
X181153Y139620D01*
X181365Y139612D01*
X181674Y139621D01*
X181980Y139647D01*
X182283Y139691D01*
X182582Y139753D01*
X182582Y140734D01*
X182309Y140688D01*
X182065Y140672D01*
X181828Y140694D01*
X181632Y140761D01*
X181478Y140872D01*
X181365Y141027D01*
X181284Y141226D01*
X181227Y141468D01*
X181192Y141754D01*
X181181Y142082D01*
X181181Y146164D01*
X181167Y146540D01*
X181124Y146893D01*
X181054Y147224D01*
X180955Y147531D01*
X180828Y147816D01*
X180673Y148078D01*
X180490Y148317D01*
X180279Y148533D01*
X180039Y148725D01*
X179772Y148891D01*
X179478Y149032D01*
X179155Y149147D01*
X178806Y149237D01*
X178428Y149301D01*
X178023Y149339D01*
X177590Y149352D01*
X177177Y149342D01*
X176787Y149312D01*
X176421Y149262D01*
X176078Y149192D01*
X175758Y149102D01*
X175462Y148992D01*
X175190Y148862D01*
X174940Y148713D01*
X174715Y148543D01*
X174512Y148353D01*
X174333Y148143D01*
X174177Y147913D01*
X174045Y147664D01*
X173936Y147394D01*
X173851Y147104D01*
X173789Y146794D01*
X175435Y146646D01*
X175465Y146836D01*
X175508Y147013D01*
X175562Y147176D01*
X175628Y147327D01*
X175706Y147463D01*
X175797Y147587D01*
X175899Y147696D01*
X176013Y147793D01*
X176143Y147877D01*
X176290Y147950D01*
X176456Y148012D01*
X176640Y148062D01*
X176841Y148101D01*
X177061Y148130D01*
X177555Y148152D01*
X177809Y148144D01*
X178045Y148121D01*
X178264Y148082D01*
X178466Y148027D01*
X178650Y147957D01*
X178816Y147871D01*
X178965Y147770D01*
X179096Y147653D01*
X179211Y147518D01*
X179311Y147362D01*
X179395Y147186D01*
X179464Y146989D01*
X179518Y146772D01*
X179556Y146534D01*
X179579Y146276D01*
X179587Y145997D01*
X179587Y145481D01*
X177458Y145446D01*
X176938Y145421D01*
X176455Y145373D01*
X176009Y145303D01*
X175601Y145209D01*
X175229Y145093D01*
X174894Y144953D01*
X174597Y144790D01*
X174336Y144605D01*
X174109Y144397D01*
X173913Y144168D01*
X173746Y143918D01*
X173610Y143646D01*
X173504Y143353D01*
X173429Y143038D01*
X173383Y142702D01*
X173368Y142345D01*
X173379Y142025D01*
X173413Y141723D01*
X173469Y141439D01*
X173548Y141171D01*
X173649Y140922D01*
X173772Y140690D01*
X173918Y140475D01*
X174086Y140278D01*
X174277Y140102D01*
X174490Y139949D01*
X174725Y139819D01*
X174982Y139713D01*
X175261Y139631D01*
X175563Y139572D01*
X175886Y139537D01*
X176232Y139525D01*
X176514Y139532D01*
G37*
G36*
X218912Y139534D02*
X219263Y139560D01*
X219597Y139604D01*
X219915Y139665D01*
X220216Y139744D01*
X220499Y139840D01*
X220766Y139954D01*
X221016Y140085D01*
X221249Y140234D01*
X221465Y140401D01*
X221664Y140585D01*
X221846Y140786D01*
X222012Y141005D01*
X222160Y141242D01*
X222292Y141496D01*
X222406Y141767D01*
X221022Y142161D01*
X220888Y141860D01*
X220704Y141585D01*
X220470Y141338D01*
X220186Y141119D01*
X220025Y141022D01*
X219852Y140939D01*
X219666Y140868D01*
X219467Y140810D01*
X219255Y140765D01*
X219031Y140733D01*
X218794Y140714D01*
X218544Y140707D01*
X218229Y140721D01*
X217934Y140763D01*
X217659Y140832D01*
X217403Y140928D01*
X217166Y141053D01*
X216949Y141205D01*
X216751Y141385D01*
X216573Y141592D01*
X216415Y141825D01*
X216278Y142081D01*
X216162Y142360D01*
X216067Y142663D01*
X215993Y142988D01*
X215941Y143338D01*
X215909Y143710D01*
X215899Y144106D01*
X222660Y144106D01*
X222660Y144316D01*
X222644Y144926D01*
X222595Y145496D01*
X222513Y146027D01*
X222399Y146519D01*
X222252Y146972D01*
X222073Y147385D01*
X221861Y147758D01*
X221616Y148093D01*
X221338Y148388D01*
X221028Y148644D01*
X220686Y148860D01*
X220310Y149037D01*
X219902Y149175D01*
X219462Y149273D01*
X218988Y149332D01*
X218482Y149352D01*
X217987Y149332D01*
X217521Y149274D01*
X217084Y149176D01*
X216677Y149039D01*
X216299Y148863D01*
X215951Y148647D01*
X215632Y148393D01*
X215342Y148099D01*
X215085Y147769D01*
X214862Y147405D01*
X214673Y147006D01*
X214518Y146573D01*
X214398Y146106D01*
X214312Y145605D01*
X214260Y145069D01*
X214243Y144500D01*
X214260Y143901D01*
X214312Y143341D01*
X214398Y142818D01*
X214518Y142334D01*
X214673Y141888D01*
X214862Y141480D01*
X215085Y141109D01*
X215342Y140777D01*
X215633Y140484D01*
X215955Y140229D01*
X216308Y140014D01*
X216692Y139838D01*
X217108Y139701D01*
X217555Y139603D01*
X218034Y139544D01*
X218544Y139525D01*
X218912Y139534D01*
G37*
G36*
X245818Y139534D02*
X246169Y139560D01*
X246504Y139604D01*
X246821Y139665D01*
X247122Y139744D01*
X247405Y139840D01*
X247672Y139954D01*
X247922Y140085D01*
X248155Y140234D01*
X248371Y140401D01*
X248570Y140585D01*
X248752Y140786D01*
X248918Y141005D01*
X249066Y141242D01*
X249198Y141496D01*
X249312Y141767D01*
X247929Y142161D01*
X247794Y141860D01*
X247610Y141585D01*
X247376Y141338D01*
X247092Y141119D01*
X246931Y141022D01*
X246758Y140939D01*
X246572Y140868D01*
X246373Y140810D01*
X246161Y140765D01*
X245937Y140733D01*
X245700Y140714D01*
X245450Y140707D01*
X245136Y140721D01*
X244841Y140763D01*
X244565Y140832D01*
X244309Y140928D01*
X244073Y141053D01*
X243855Y141205D01*
X243658Y141385D01*
X243479Y141592D01*
X243321Y141825D01*
X243184Y142081D01*
X243068Y142360D01*
X242973Y142663D01*
X242900Y142988D01*
X242847Y143338D01*
X242815Y143710D01*
X242805Y144106D01*
X249566Y144106D01*
X249566Y144316D01*
X249550Y144926D01*
X249501Y145496D01*
X249420Y146027D01*
X249305Y146519D01*
X249158Y146972D01*
X248979Y147385D01*
X248767Y147758D01*
X248522Y148093D01*
X248245Y148388D01*
X247934Y148644D01*
X247592Y148860D01*
X247216Y149037D01*
X246808Y149175D01*
X246368Y149273D01*
X245895Y149332D01*
X245389Y149352D01*
X244893Y149332D01*
X244427Y149274D01*
X243990Y149176D01*
X243583Y149039D01*
X243205Y148863D01*
X242857Y148647D01*
X242538Y148393D01*
X242249Y148099D01*
X241991Y147769D01*
X241768Y147405D01*
X241579Y147006D01*
X241424Y146573D01*
X241304Y146106D01*
X241218Y145605D01*
X241167Y145069D01*
X241149Y144500D01*
X241167Y143901D01*
X241218Y143341D01*
X241304Y142818D01*
X241424Y142334D01*
X241579Y141888D01*
X241768Y141480D01*
X241991Y141109D01*
X242249Y140777D01*
X242539Y140484D01*
X242861Y140229D01*
X243214Y140014D01*
X243599Y139838D01*
X244014Y139701D01*
X244462Y139603D01*
X244940Y139544D01*
X245450Y139525D01*
X245818Y139534D01*
G37*
G36*
X235052Y139540D02*
X235607Y139583D01*
X236128Y139657D01*
X236616Y139759D01*
X237069Y139891D01*
X237488Y140052D01*
X237873Y140242D01*
X238224Y140462D01*
X238537Y140708D01*
X238808Y140979D01*
X239038Y141273D01*
X239226Y141592D01*
X239372Y141935D01*
X239476Y142301D01*
X239539Y142692D01*
X239560Y143107D01*
X239548Y143433D01*
X239513Y143738D01*
X239454Y144020D01*
X239371Y144281D01*
X239268Y144522D01*
X239147Y144747D01*
X239008Y144956D01*
X238850Y145148D01*
X238676Y145325D01*
X238488Y145487D01*
X238284Y145636D01*
X238066Y145770D01*
X237599Y146007D01*
X237098Y146212D01*
X236570Y146387D01*
X236017Y146536D01*
X234883Y146803D01*
X234104Y146984D01*
X233466Y147150D01*
X232969Y147302D01*
X232614Y147438D01*
X232346Y147574D01*
X232112Y147725D01*
X231910Y147890D01*
X231743Y148069D01*
X231610Y148267D01*
X231516Y148490D01*
X231459Y148738D01*
X231440Y149010D01*
X231453Y149246D01*
X231489Y149466D01*
X231550Y149672D01*
X231635Y149862D01*
X231745Y150037D01*
X231879Y150198D01*
X232037Y150343D01*
X232220Y150473D01*
X232426Y150588D01*
X232654Y150688D01*
X232903Y150772D01*
X233175Y150841D01*
X233468Y150895D01*
X233783Y150933D01*
X234121Y150956D01*
X234480Y150963D01*
X234808Y150957D01*
X235117Y150936D01*
X235409Y150901D01*
X235682Y150853D01*
X235936Y150791D01*
X236173Y150715D01*
X236391Y150625D01*
X236590Y150521D01*
X236773Y150402D01*
X236941Y150266D01*
X237093Y150114D01*
X237230Y149944D01*
X237351Y149758D01*
X237458Y149555D01*
X237548Y149335D01*
X237624Y149098D01*
X239271Y149387D01*
X239149Y149760D01*
X239006Y150105D01*
X238842Y150422D01*
X238657Y150711D01*
X238452Y150971D01*
X238226Y151202D01*
X237979Y151406D01*
X237712Y151581D01*
X237418Y151732D01*
X237094Y151863D01*
X236738Y151973D01*
X236352Y152064D01*
X235935Y152134D01*
X235486Y152184D01*
X235007Y152215D01*
X234497Y152225D01*
X233949Y152211D01*
X233433Y152171D01*
X232950Y152104D01*
X232499Y152010D01*
X232081Y151889D01*
X231696Y151742D01*
X231344Y151568D01*
X231024Y151366D01*
X230740Y151140D01*
X230494Y150892D01*
X230285Y150620D01*
X230115Y150326D01*
X229982Y150009D01*
X229887Y149670D01*
X229830Y149308D01*
X229811Y148923D01*
X229826Y148587D01*
X229869Y148270D01*
X229942Y147974D01*
X230043Y147697D01*
X230172Y147438D01*
X230327Y147196D01*
X230507Y146972D01*
X230713Y146764D01*
X230952Y146569D01*
X231231Y146384D01*
X231550Y146208D01*
X231909Y146041D01*
X232332Y145879D01*
X232843Y145717D01*
X233442Y145555D01*
X234129Y145393D01*
X235662Y145034D01*
X235996Y144946D01*
X236306Y144848D01*
X236592Y144740D01*
X236853Y144622D01*
X237089Y144491D01*
X237297Y144344D01*
X237476Y144181D01*
X237628Y144000D01*
X237749Y143798D01*
X237835Y143567D01*
X237887Y143307D01*
X237904Y143019D01*
X237891Y142758D01*
X237849Y142513D01*
X237780Y142285D01*
X237684Y142072D01*
X237560Y141876D01*
X237409Y141697D01*
X237230Y141533D01*
X237024Y141386D01*
X236792Y141256D01*
X236538Y141143D01*
X236260Y141047D01*
X235959Y140969D01*
X235635Y140908D01*
X235287Y140865D01*
X234917Y140839D01*
X234523Y140830D01*
X234142Y140838D01*
X233781Y140862D01*
X233440Y140903D01*
X233120Y140960D01*
X232820Y141033D01*
X232541Y141123D01*
X232283Y141229D01*
X232045Y141351D01*
X231827Y141491D01*
X231629Y141649D01*
X231450Y141825D01*
X231292Y142020D01*
X231153Y142233D01*
X231033Y142465D01*
X230934Y142716D01*
X230854Y142984D01*
X229233Y142660D01*
X229338Y142281D01*
X229472Y141925D01*
X229636Y141595D01*
X229829Y141289D01*
X230053Y141007D01*
X230305Y140750D01*
X230588Y140517D01*
X230900Y140309D01*
X231241Y140125D01*
X231612Y139966D01*
X232013Y139831D01*
X232444Y139721D01*
X232904Y139635D01*
X233394Y139574D01*
X233913Y139537D01*
X234462Y139525D01*
X235052Y139540D01*
G37*
G36*
X147077Y139538D02*
X147511Y139577D01*
X147932Y139642D01*
X148339Y139733D01*
X148732Y139850D01*
X149112Y139993D01*
X149477Y140162D01*
X149829Y140357D01*
X150164Y140577D01*
X150480Y140821D01*
X150777Y141088D01*
X151054Y141379D01*
X151312Y141695D01*
X151551Y142034D01*
X151771Y142396D01*
X151971Y142783D01*
X150604Y143466D01*
X150436Y143155D01*
X150258Y142865D01*
X150070Y142594D01*
X149871Y142343D01*
X149663Y142113D01*
X149445Y141902D01*
X149216Y141712D01*
X148977Y141541D01*
X148729Y141391D01*
X148470Y141261D01*
X148201Y141151D01*
X147923Y141060D01*
X147634Y140990D01*
X147335Y140940D01*
X147026Y140910D01*
X146707Y140900D01*
X146214Y140921D01*
X145748Y140986D01*
X145307Y141094D01*
X144893Y141245D01*
X144505Y141439D01*
X144142Y141676D01*
X143807Y141956D01*
X143497Y142279D01*
X143219Y142638D01*
X142978Y143025D01*
X142774Y143439D01*
X142607Y143881D01*
X142477Y144351D01*
X142384Y144849D01*
X142329Y145374D01*
X142310Y145927D01*
X142328Y146486D01*
X142381Y147014D01*
X142470Y147511D01*
X142595Y147978D01*
X142755Y148414D01*
X142951Y148820D01*
X143182Y149195D01*
X143449Y149540D01*
X143748Y149849D01*
X144075Y150117D01*
X144431Y150343D01*
X144815Y150529D01*
X145228Y150673D01*
X145669Y150776D01*
X146139Y150838D01*
X146637Y150858D01*
X146957Y150849D01*
X147267Y150823D01*
X147566Y150778D01*
X147853Y150716D01*
X148129Y150636D01*
X148395Y150538D01*
X148649Y150423D01*
X148892Y150289D01*
X149122Y150139D01*
X149335Y149973D01*
X149532Y149791D01*
X149712Y149593D01*
X149876Y149379D01*
X150024Y149149D01*
X150156Y148904D01*
X150272Y148642D01*
X151857Y149168D01*
X151690Y149535D01*
X151502Y149879D01*
X151292Y150200D01*
X151060Y150497D01*
X150806Y150771D01*
X150530Y151022D01*
X150232Y151250D01*
X149912Y151454D01*
X149572Y151635D01*
X149211Y151791D01*
X148829Y151924D01*
X148428Y152032D01*
X148006Y152116D01*
X147564Y152177D01*
X147102Y152213D01*
X146619Y152225D01*
X146272Y152218D01*
X145933Y152199D01*
X145605Y152166D01*
X145286Y152120D01*
X144976Y152061D01*
X144676Y151989D01*
X144386Y151905D01*
X144106Y151806D01*
X143834Y151695D01*
X143573Y151571D01*
X143321Y151434D01*
X143079Y151284D01*
X142623Y150944D01*
X142205Y150552D01*
X141831Y150114D01*
X141508Y149635D01*
X141234Y149117D01*
X141115Y148843D01*
X141009Y148559D01*
X140916Y148265D01*
X140835Y147961D01*
X140767Y147647D01*
X140711Y147323D01*
X140667Y146989D01*
X140636Y146645D01*
X140617Y146291D01*
X140611Y145927D01*
X140622Y145443D01*
X140656Y144975D01*
X140711Y144524D01*
X140789Y144089D01*
X140890Y143671D01*
X141012Y143269D01*
X141157Y142884D01*
X141325Y142516D01*
X141513Y142166D01*
X141722Y141837D01*
X141951Y141529D01*
X142201Y141242D01*
X142470Y140975D01*
X142760Y140729D01*
X143070Y140504D01*
X143400Y140300D01*
X143749Y140118D01*
X144113Y139961D01*
X144493Y139828D01*
X144888Y139719D01*
X145300Y139634D01*
X145727Y139573D01*
X146169Y139537D01*
X146628Y139525D01*
X147077Y139538D01*
G37*
G36*
X253177Y145192D02*
X253187Y145528D01*
X253218Y145846D01*
X253269Y146145D01*
X253341Y146424D01*
X253433Y146685D01*
X253546Y146927D01*
X253679Y147151D01*
X253833Y147355D01*
X254005Y147538D01*
X254192Y147696D01*
X254394Y147830D01*
X254611Y147940D01*
X254843Y148025D01*
X255090Y148086D01*
X255352Y148122D01*
X255629Y148134D01*
X255995Y148120D01*
X256314Y148078D01*
X256586Y148006D01*
X256811Y147907D01*
X256999Y147775D01*
X257159Y147607D01*
X257292Y147403D01*
X257398Y147162D01*
X257479Y146878D01*
X257536Y146540D01*
X257571Y146151D01*
X257582Y145708D01*
X257582Y139700D01*
X259167Y139700D01*
X259167Y146015D01*
X259156Y146446D01*
X259122Y146845D01*
X259066Y147213D01*
X258987Y147549D01*
X258885Y147853D01*
X258761Y148126D01*
X258614Y148367D01*
X258445Y148577D01*
X258251Y148758D01*
X258031Y148916D01*
X257785Y149049D01*
X257513Y149158D01*
X257215Y149243D01*
X256890Y149303D01*
X256540Y149340D01*
X256163Y149352D01*
X255904Y149346D01*
X255655Y149326D01*
X255417Y149295D01*
X255190Y149250D01*
X254974Y149193D01*
X254768Y149123D01*
X254573Y149040D01*
X254390Y148945D01*
X254214Y148834D01*
X254043Y148705D01*
X253878Y148559D01*
X253718Y148394D01*
X253415Y148011D01*
X253133Y147556D01*
X253106Y147556D01*
X253076Y148498D01*
X253054Y148940D01*
X253036Y149177D01*
X251547Y149177D01*
X251570Y148912D01*
X251587Y148487D01*
X251600Y147154D01*
X251600Y139700D01*
X253177Y139700D01*
X253177Y145192D01*
G37*
G36*
X265243Y139536D02*
X265661Y139570D01*
X266053Y139627D01*
X266420Y139707D01*
X266761Y139809D01*
X267078Y139934D01*
X267368Y140081D01*
X267634Y140252D01*
X267871Y140443D01*
X268077Y140654D01*
X268250Y140883D01*
X268393Y141132D01*
X268503Y141400D01*
X268582Y141687D01*
X268630Y141993D01*
X268646Y142319D01*
X268635Y142583D01*
X268602Y142832D01*
X268547Y143067D01*
X268470Y143287D01*
X268374Y143493D01*
X268259Y143686D01*
X268126Y143867D01*
X267976Y144035D01*
X267801Y144194D01*
X267598Y144345D01*
X267366Y144490D01*
X267104Y144627D01*
X266784Y144763D01*
X266377Y144906D01*
X265882Y145054D01*
X265300Y145209D01*
X264205Y145498D01*
X263828Y145616D01*
X263566Y145717D01*
X263372Y145814D01*
X263204Y145921D01*
X263061Y146037D01*
X262944Y146164D01*
X262852Y146304D01*
X262786Y146462D01*
X262747Y146637D01*
X262734Y146829D01*
X262742Y146988D01*
X262765Y147137D01*
X262805Y147275D01*
X262861Y147403D01*
X262932Y147521D01*
X263019Y147628D01*
X263123Y147724D01*
X263242Y147810D01*
X263377Y147886D01*
X263531Y147952D01*
X263701Y148008D01*
X263890Y148053D01*
X264319Y148114D01*
X264818Y148134D01*
X265275Y148113D01*
X265684Y148050D01*
X266044Y147945D01*
X266355Y147797D01*
X266614Y147610D01*
X266818Y147387D01*
X266900Y147261D01*
X266967Y147126D01*
X267021Y146983D01*
X267060Y146829D01*
X268479Y147005D01*
X268407Y147299D01*
X268314Y147572D01*
X268200Y147824D01*
X268064Y148056D01*
X267908Y148266D01*
X267730Y148456D01*
X267530Y148626D01*
X267310Y148774D01*
X267069Y148903D01*
X266808Y149015D01*
X266526Y149110D01*
X266225Y149188D01*
X265903Y149248D01*
X265562Y149291D01*
X265200Y149317D01*
X264818Y149326D01*
X264389Y149315D01*
X263986Y149283D01*
X263610Y149230D01*
X263260Y149156D01*
X262937Y149060D01*
X262640Y148944D01*
X262369Y148806D01*
X262125Y148647D01*
X261908Y148468D01*
X261721Y148269D01*
X261562Y148051D01*
X261432Y147814D01*
X261331Y147557D01*
X261259Y147281D01*
X261215Y146986D01*
X261201Y146672D01*
X261221Y146335D01*
X261282Y146026D01*
X261383Y145744D01*
X261525Y145489D01*
X261703Y145258D01*
X261911Y145044D01*
X262151Y144848D01*
X262423Y144670D01*
X262759Y144501D01*
X263192Y144330D01*
X263724Y144157D01*
X264354Y143983D01*
X265484Y143685D01*
X265883Y143564D01*
X266224Y143427D01*
X266505Y143275D01*
X266727Y143107D01*
X266896Y142919D01*
X267017Y142704D01*
X267089Y142463D01*
X267113Y142196D01*
X267104Y142018D01*
X267078Y141851D01*
X267035Y141696D01*
X266974Y141552D01*
X266896Y141420D01*
X266800Y141300D01*
X266687Y141190D01*
X266557Y141093D01*
X266408Y141006D01*
X266238Y140932D01*
X266049Y140868D01*
X265840Y140817D01*
X265610Y140776D01*
X265360Y140748D01*
X265091Y140730D01*
X264801Y140725D01*
X264271Y140747D01*
X263802Y140813D01*
X263591Y140863D01*
X263395Y140924D01*
X263214Y140996D01*
X263049Y141079D01*
X262898Y141175D01*
X262760Y141282D01*
X262636Y141403D01*
X262526Y141536D01*
X262428Y141682D01*
X262344Y141841D01*
X262274Y142012D01*
X262217Y142196D01*
X260824Y141925D01*
X260907Y141626D01*
X261011Y141348D01*
X261135Y141090D01*
X261281Y140853D01*
X261447Y140636D01*
X261635Y140439D01*
X261843Y140263D01*
X262072Y140107D01*
X262325Y139971D01*
X262602Y139852D01*
X262906Y139752D01*
X263234Y139670D01*
X263588Y139607D01*
X263967Y139561D01*
X264371Y139534D01*
X264801Y139525D01*
X265243Y139536D01*
G37*
%LPC*%
G36*
X273909Y140704D02*
X273616Y140749D01*
X273344Y140822D01*
X273094Y140925D01*
X272866Y141058D01*
X272659Y141219D01*
X272474Y141411D01*
X272311Y141631D01*
X272168Y141881D01*
X272045Y142160D01*
X271940Y142469D01*
X271855Y142806D01*
X271788Y143173D01*
X271740Y143568D01*
X271712Y143993D01*
X271702Y144447D01*
X271712Y144913D01*
X271741Y145347D01*
X271789Y145749D01*
X271857Y146119D01*
X271944Y146457D01*
X272050Y146763D01*
X272175Y147038D01*
X272320Y147281D01*
X272486Y147493D01*
X272676Y147677D01*
X272891Y147833D01*
X273129Y147960D01*
X273391Y148060D01*
X273677Y148130D01*
X273987Y148173D01*
X274321Y148187D01*
X274653Y148173D01*
X274959Y148131D01*
X275241Y148062D01*
X275498Y147965D01*
X275730Y147840D01*
X275938Y147687D01*
X276121Y147506D01*
X276279Y147298D01*
X276415Y147059D01*
X276534Y146786D01*
X276634Y146480D01*
X276716Y146141D01*
X276779Y145768D01*
X276825Y145361D01*
X276852Y144921D01*
X276861Y144447D01*
X276852Y143979D01*
X276823Y143543D01*
X276776Y143140D01*
X276709Y142768D01*
X276623Y142428D01*
X276519Y142120D01*
X276395Y141844D01*
X276252Y141601D01*
X276088Y141387D01*
X275897Y141202D01*
X275682Y141046D01*
X275441Y140917D01*
X275175Y140818D01*
X274884Y140747D01*
X274567Y140704D01*
X274225Y140690D01*
X273909Y140704D01*
G37*
G36*
X167631Y140704D02*
X167330Y140745D01*
X167054Y140814D01*
X166800Y140911D01*
X166570Y141035D01*
X166363Y141187D01*
X166179Y141367D01*
X166018Y141574D01*
X165879Y141811D01*
X165758Y142078D01*
X165655Y142376D01*
X165572Y142704D01*
X165506Y143063D01*
X165460Y143453D01*
X165432Y143873D01*
X165423Y144325D01*
X165440Y144963D01*
X165492Y145539D01*
X165578Y146051D01*
X165699Y146501D01*
X165852Y146892D01*
X166038Y147227D01*
X166255Y147507D01*
X166504Y147732D01*
X166643Y147824D01*
X166795Y147904D01*
X166959Y147972D01*
X167136Y148027D01*
X167326Y148070D01*
X167528Y148101D01*
X167744Y148120D01*
X167971Y148126D01*
X168253Y148112D01*
X168514Y148073D01*
X168756Y148006D01*
X168979Y147913D01*
X169181Y147794D01*
X169364Y147648D01*
X169527Y147475D01*
X169671Y147276D01*
X169796Y147046D01*
X169904Y146781D01*
X169996Y146480D01*
X170071Y146144D01*
X170130Y145773D01*
X170171Y145366D01*
X170197Y144924D01*
X170205Y144447D01*
X170196Y143957D01*
X170171Y143504D01*
X170129Y143088D01*
X170070Y142707D01*
X169994Y142364D01*
X169902Y142057D01*
X169792Y141786D01*
X169666Y141552D01*
X169522Y141350D01*
X169357Y141175D01*
X169173Y141027D01*
X168969Y140905D01*
X168745Y140811D01*
X168501Y140744D01*
X168237Y140703D01*
X167954Y140690D01*
X167631Y140704D01*
G37*
%LPD*%
G36*
X187787Y139538D02*
X188139Y139576D01*
X188474Y139639D01*
X188794Y139728D01*
X189096Y139843D01*
X189383Y139983D01*
X189652Y140148D01*
X189906Y140339D01*
X190139Y140552D01*
X190347Y140781D01*
X190530Y141028D01*
X190688Y141292D01*
X190821Y141573D01*
X190929Y141872D01*
X191012Y142187D01*
X191071Y142520D01*
X189477Y142625D01*
X189437Y142397D01*
X189384Y142183D01*
X189317Y141985D01*
X189237Y141802D01*
X189143Y141635D01*
X189036Y141482D01*
X188915Y141346D01*
X188780Y141224D01*
X188635Y141117D01*
X188481Y141025D01*
X188318Y140946D01*
X188147Y140882D01*
X187967Y140833D01*
X187778Y140797D01*
X187581Y140776D01*
X187375Y140769D01*
X187084Y140783D01*
X186812Y140825D01*
X186560Y140897D01*
X186326Y140996D01*
X186111Y141124D01*
X185915Y141281D01*
X185738Y141466D01*
X185579Y141679D01*
X185440Y141922D01*
X185319Y142196D01*
X185216Y142501D01*
X185132Y142836D01*
X185067Y143201D01*
X185021Y143598D01*
X184993Y144025D01*
X184984Y144482D01*
X184992Y144957D01*
X185019Y145396D01*
X185062Y145800D01*
X185124Y146168D01*
X185203Y146501D01*
X185299Y146798D01*
X185413Y147059D01*
X185544Y147285D01*
X185695Y147480D01*
X185868Y147649D01*
X186062Y147792D01*
X186278Y147909D01*
X186515Y148000D01*
X186774Y148065D01*
X187055Y148104D01*
X187357Y148117D01*
X187581Y148110D01*
X187791Y148088D01*
X187988Y148052D01*
X188172Y148001D01*
X188343Y147936D01*
X188500Y147856D01*
X188645Y147762D01*
X188776Y147653D01*
X189002Y147400D01*
X189181Y147108D01*
X189313Y146774D01*
X189398Y146400D01*
X191018Y146523D01*
X190946Y146845D01*
X190851Y147149D01*
X190734Y147435D01*
X190595Y147703D01*
X190433Y147954D01*
X190249Y148186D01*
X190043Y148401D01*
X189814Y148599D01*
X189566Y148775D01*
X189303Y148928D01*
X189025Y149058D01*
X188731Y149164D01*
X188422Y149246D01*
X188097Y149305D01*
X187757Y149340D01*
X187401Y149352D01*
X186925Y149332D01*
X186477Y149273D01*
X186058Y149175D01*
X185667Y149038D01*
X185304Y148861D01*
X184970Y148645D01*
X184665Y148390D01*
X184388Y148095D01*
X184142Y147763D01*
X183928Y147396D01*
X183748Y146993D01*
X183600Y146555D01*
X183485Y146081D01*
X183403Y145572D01*
X183353Y145027D01*
X183337Y144447D01*
X183353Y143863D01*
X183402Y143315D01*
X183484Y142803D01*
X183599Y142326D01*
X183746Y141886D01*
X183926Y141482D01*
X184138Y141114D01*
X184384Y140782D01*
X184660Y140487D01*
X184966Y140232D01*
X185301Y140016D01*
X185666Y139839D01*
X186060Y139702D01*
X186483Y139603D01*
X186936Y139544D01*
X187418Y139525D01*
X187787Y139538D01*
G37*
G36*
X213420Y149177D02*
X211747Y149177D01*
X209592Y142993D01*
X209251Y141960D01*
X208944Y140935D01*
X208340Y143011D01*
X206255Y149177D01*
X204574Y149177D01*
X208016Y139700D01*
X209881Y139700D01*
X213420Y149177D01*
G37*
G36*
X199207Y139573D02*
X199608Y139612D01*
X200004Y139678D01*
X200396Y139770D01*
X200396Y140935D01*
X199870Y140843D01*
X199485Y140812D01*
X199230Y140830D01*
X199015Y140881D01*
X198842Y140968D01*
X198710Y141088D01*
X198612Y141252D01*
X198542Y141466D01*
X198501Y141731D01*
X198487Y142047D01*
X198487Y148029D01*
X200238Y148029D01*
X200238Y149177D01*
X198487Y149177D01*
X198487Y151296D01*
X197436Y151296D01*
X196971Y149177D01*
X195815Y149177D01*
X195815Y148029D01*
X196910Y148029D01*
X196910Y141706D01*
X196917Y141446D01*
X196940Y141203D01*
X196977Y140976D01*
X197028Y140767D01*
X197095Y140574D01*
X197176Y140398D01*
X197272Y140239D01*
X197383Y140096D01*
X197509Y139971D01*
X197649Y139862D01*
X197804Y139769D01*
X197974Y139694D01*
X198159Y139635D01*
X198359Y139593D01*
X198573Y139568D01*
X198802Y139560D01*
X199207Y139573D01*
G37*
G36*
X282083Y144640D02*
X282091Y145023D01*
X282115Y145382D01*
X282155Y145719D01*
X282212Y146034D01*
X282285Y146325D01*
X282373Y146593D01*
X282478Y146839D01*
X282600Y147062D01*
X282736Y147260D01*
X282887Y147431D01*
X283052Y147577D01*
X283232Y147695D01*
X283427Y147788D01*
X283636Y147854D01*
X283859Y147894D01*
X284097Y147907D01*
X284570Y147885D01*
X284767Y147857D01*
X284938Y147819D01*
X284938Y149264D01*
X284616Y149330D01*
X284299Y149352D01*
X284082Y149345D01*
X283877Y149324D01*
X283685Y149289D01*
X283506Y149240D01*
X283339Y149177D01*
X283185Y149101D01*
X283044Y149010D01*
X282915Y148905D01*
X282794Y148782D01*
X282677Y148634D01*
X282453Y148266D01*
X282243Y147802D01*
X282048Y147241D01*
X282013Y147241D01*
X281943Y149177D01*
X280454Y149177D01*
X280493Y148021D01*
X280506Y146970D01*
X280506Y139700D01*
X282083Y139700D01*
X282083Y144640D01*
G37*
G36*
X194320Y149177D02*
X192744Y149177D01*
X192744Y139700D01*
X194320Y139700D01*
X194320Y149177D01*
G37*
G36*
X203289Y149177D02*
X201712Y149177D01*
X201712Y139700D01*
X203289Y139700D01*
X203289Y149177D01*
G37*
%LPC*%
G36*
X156467Y140714D02*
X156291Y140734D01*
X156126Y140766D01*
X155972Y140812D01*
X155829Y140871D01*
X155697Y140944D01*
X155577Y141029D01*
X155467Y141128D01*
X155370Y141238D01*
X155285Y141360D01*
X155214Y141492D01*
X155155Y141636D01*
X155110Y141790D01*
X155077Y141955D01*
X155058Y142132D01*
X155051Y142319D01*
X155070Y142657D01*
X155128Y142960D01*
X155224Y143230D01*
X155358Y143466D01*
X155528Y143671D01*
X155731Y143847D01*
X155968Y143995D01*
X156238Y144114D01*
X156558Y144207D01*
X156946Y144276D01*
X157401Y144321D01*
X157924Y144342D01*
X159649Y144377D01*
X159649Y143598D01*
X159625Y143237D01*
X159552Y142880D01*
X159430Y142529D01*
X159260Y142183D01*
X159047Y141858D01*
X158799Y141569D01*
X158515Y141317D01*
X158195Y141101D01*
X157846Y140929D01*
X157473Y140806D01*
X157075Y140732D01*
X156868Y140713D01*
X156654Y140707D01*
X156467Y140714D01*
G37*
G36*
X176404Y140714D02*
X176228Y140734D01*
X176063Y140766D01*
X175909Y140812D01*
X175767Y140871D01*
X175635Y140944D01*
X175514Y141029D01*
X175405Y141128D01*
X175307Y141238D01*
X175223Y141360D01*
X175151Y141492D01*
X175093Y141636D01*
X175047Y141790D01*
X175015Y141955D01*
X174995Y142132D01*
X174989Y142319D01*
X175008Y142657D01*
X175065Y142960D01*
X175161Y143230D01*
X175295Y143466D01*
X175465Y143671D01*
X175668Y143847D01*
X175905Y143995D01*
X176175Y144114D01*
X176496Y144207D01*
X176884Y144276D01*
X177339Y144321D01*
X177861Y144342D01*
X179587Y144377D01*
X179587Y143598D01*
X179562Y143237D01*
X179489Y142880D01*
X179368Y142529D01*
X179197Y142183D01*
X178984Y141858D01*
X178736Y141569D01*
X178452Y141317D01*
X178133Y141101D01*
X177784Y140929D01*
X177410Y140806D01*
X177013Y140732D01*
X176805Y140713D01*
X176591Y140707D01*
X176404Y140714D01*
G37*
G36*
X215916Y145314D02*
X215939Y145640D01*
X215981Y145948D01*
X216042Y146239D01*
X216123Y146511D01*
X216223Y146765D01*
X216342Y147002D01*
X216481Y147220D01*
X216639Y147421D01*
X216814Y147600D01*
X217004Y147756D01*
X217208Y147888D01*
X217428Y147995D01*
X217663Y148079D01*
X217912Y148139D01*
X218177Y148175D01*
X218456Y148187D01*
X218743Y148176D01*
X219013Y148144D01*
X219265Y148090D01*
X219501Y148015D01*
X219719Y147918D01*
X219919Y147800D01*
X220103Y147661D01*
X220269Y147499D01*
X220419Y147315D01*
X220553Y147105D01*
X220672Y146870D01*
X220775Y146609D01*
X220862Y146324D01*
X220934Y146012D01*
X220990Y145676D01*
X221031Y145314D01*
X215916Y145314D01*
G37*
G36*
X242822Y145314D02*
X242845Y145640D01*
X242887Y145948D01*
X242949Y146239D01*
X243029Y146511D01*
X243129Y146765D01*
X243249Y147002D01*
X243387Y147220D01*
X243545Y147421D01*
X243720Y147600D01*
X243910Y147756D01*
X244115Y147888D01*
X244334Y147995D01*
X244569Y148079D01*
X244819Y148139D01*
X245083Y148175D01*
X245362Y148187D01*
X245649Y148176D01*
X245919Y148144D01*
X246172Y148090D01*
X246407Y148015D01*
X246625Y147918D01*
X246826Y147800D01*
X247009Y147661D01*
X247175Y147499D01*
X247325Y147315D01*
X247459Y147105D01*
X247578Y146870D01*
X247681Y146609D01*
X247769Y146324D01*
X247840Y146012D01*
X247897Y145676D01*
X247937Y145314D01*
X242822Y145314D01*
G37*
%LPD*%
G36*
X194320Y152698D02*
X192744Y152698D01*
X192744Y151191D01*
X194320Y151191D01*
X194320Y152698D01*
G37*
G36*
X203289Y152698D02*
X201712Y152698D01*
X201712Y151191D01*
X203289Y151191D01*
X203289Y152698D01*
G37*
D10*
X608838Y19431D02*
X608838Y25781D01*
X608838Y32131D01*
D11*
X608838Y25781D02*
X621030Y25781D01*
D10*
X602488Y25781D02*
X602488Y19431D01*
X602488Y25781D02*
X602488Y32131D01*
D11*
X602488Y25781D02*
X590550Y25781D01*
X642620Y15621D02*
X642620Y35941D01*
X640080Y38481D02*
X571500Y38481D01*
X568960Y35941D02*
X568960Y15621D01*
X571500Y13081D02*
X640080Y13081D01*
X571500Y13081D02*
X571400Y13083D01*
X571301Y13089D01*
X571201Y13099D01*
X571103Y13112D01*
X571004Y13130D01*
X570907Y13151D01*
X570811Y13176D01*
X570715Y13205D01*
X570621Y13238D01*
X570528Y13274D01*
X570437Y13314D01*
X570347Y13358D01*
X570259Y13405D01*
X570173Y13455D01*
X570089Y13509D01*
X570007Y13566D01*
X569928Y13626D01*
X569850Y13690D01*
X569776Y13756D01*
X569704Y13825D01*
X569635Y13897D01*
X569569Y13971D01*
X569505Y14049D01*
X569445Y14128D01*
X569388Y14210D01*
X569334Y14294D01*
X569284Y14380D01*
X569237Y14468D01*
X569193Y14558D01*
X569153Y14649D01*
X569117Y14742D01*
X569084Y14836D01*
X569055Y14932D01*
X569030Y15028D01*
X569009Y15125D01*
X568991Y15224D01*
X568978Y15322D01*
X568968Y15422D01*
X568962Y15521D01*
X568960Y15621D01*
X568960Y35941D02*
X568962Y36041D01*
X568968Y36140D01*
X568978Y36240D01*
X568991Y36338D01*
X569009Y36437D01*
X569030Y36534D01*
X569055Y36630D01*
X569084Y36726D01*
X569117Y36820D01*
X569153Y36913D01*
X569193Y37004D01*
X569237Y37094D01*
X569284Y37182D01*
X569334Y37268D01*
X569388Y37352D01*
X569445Y37434D01*
X569505Y37513D01*
X569569Y37591D01*
X569635Y37665D01*
X569704Y37737D01*
X569776Y37806D01*
X569850Y37872D01*
X569928Y37936D01*
X570007Y37996D01*
X570089Y38053D01*
X570173Y38107D01*
X570259Y38157D01*
X570347Y38204D01*
X570437Y38248D01*
X570528Y38288D01*
X570621Y38324D01*
X570715Y38357D01*
X570811Y38386D01*
X570907Y38411D01*
X571004Y38432D01*
X571103Y38450D01*
X571201Y38463D01*
X571301Y38473D01*
X571400Y38479D01*
X571500Y38481D01*
X640080Y38481D02*
X640180Y38479D01*
X640279Y38473D01*
X640379Y38463D01*
X640477Y38450D01*
X640576Y38432D01*
X640673Y38411D01*
X640769Y38386D01*
X640865Y38357D01*
X640959Y38324D01*
X641052Y38288D01*
X641143Y38248D01*
X641233Y38204D01*
X641321Y38157D01*
X641407Y38107D01*
X641491Y38053D01*
X641573Y37996D01*
X641652Y37936D01*
X641730Y37872D01*
X641804Y37806D01*
X641876Y37737D01*
X641945Y37665D01*
X642011Y37591D01*
X642075Y37513D01*
X642135Y37434D01*
X642192Y37352D01*
X642246Y37268D01*
X642296Y37182D01*
X642343Y37094D01*
X642387Y37004D01*
X642427Y36913D01*
X642463Y36820D01*
X642496Y36726D01*
X642525Y36630D01*
X642550Y36534D01*
X642571Y36437D01*
X642589Y36338D01*
X642602Y36240D01*
X642612Y36140D01*
X642618Y36041D01*
X642620Y35941D01*
X642620Y15621D02*
X642618Y15521D01*
X642612Y15422D01*
X642602Y15322D01*
X642589Y15224D01*
X642571Y15125D01*
X642550Y15028D01*
X642525Y14932D01*
X642496Y14836D01*
X642463Y14742D01*
X642427Y14649D01*
X642387Y14558D01*
X642343Y14468D01*
X642296Y14380D01*
X642246Y14294D01*
X642192Y14210D01*
X642135Y14128D01*
X642075Y14049D01*
X642011Y13971D01*
X641945Y13897D01*
X641876Y13825D01*
X641804Y13756D01*
X641730Y13690D01*
X641652Y13626D01*
X641573Y13566D01*
X641491Y13509D01*
X641407Y13455D01*
X641321Y13405D01*
X641233Y13358D01*
X641143Y13314D01*
X641052Y13274D01*
X640959Y13238D01*
X640865Y13205D01*
X640769Y13176D01*
X640673Y13151D01*
X640576Y13130D01*
X640477Y13112D01*
X640379Y13099D01*
X640279Y13089D01*
X640180Y13083D01*
X640080Y13081D01*
D12*
X551180Y101600D02*
X551180Y152400D01*
X558800Y152400D01*
X566420Y152400D01*
X566420Y101600D01*
X558800Y101600D01*
X551180Y101600D01*
X558800Y152400D02*
X558800Y154940D01*
X558800Y101600D02*
X558800Y99060D01*
X552450Y146050D02*
X565150Y146050D01*
D11*
X774700Y59690D02*
X876300Y59690D01*
X876300Y118110D02*
X774700Y118110D01*
X774700Y59690D01*
X876300Y59690D02*
X876300Y78740D01*
X876300Y99060D02*
X876300Y118110D01*
X876300Y99060D02*
X876053Y99057D01*
X875805Y99048D01*
X875558Y99033D01*
X875312Y99012D01*
X875066Y98985D01*
X874821Y98952D01*
X874576Y98913D01*
X874333Y98868D01*
X874091Y98817D01*
X873850Y98760D01*
X873611Y98698D01*
X873373Y98629D01*
X873137Y98555D01*
X872903Y98475D01*
X872671Y98390D01*
X872441Y98298D01*
X872213Y98202D01*
X871988Y98099D01*
X871765Y97992D01*
X871545Y97878D01*
X871328Y97760D01*
X871113Y97636D01*
X870902Y97507D01*
X870694Y97373D01*
X870489Y97234D01*
X870288Y97090D01*
X870090Y96942D01*
X869896Y96788D01*
X869706Y96630D01*
X869520Y96467D01*
X869338Y96300D01*
X869160Y96128D01*
X868986Y95952D01*
X868816Y95772D01*
X868651Y95587D01*
X868491Y95399D01*
X868335Y95207D01*
X868183Y95011D01*
X868037Y94812D01*
X867895Y94609D01*
X867759Y94402D01*
X867627Y94193D01*
X867501Y93980D01*
X867380Y93764D01*
X867264Y93546D01*
X867154Y93324D01*
X867049Y93100D01*
X866949Y92874D01*
X866855Y92645D01*
X866767Y92414D01*
X866684Y92180D01*
X866607Y91945D01*
X866536Y91708D01*
X866470Y91470D01*
X866411Y91230D01*
X866357Y90988D01*
X866309Y90745D01*
X866267Y90502D01*
X866231Y90257D01*
X866201Y90011D01*
X866177Y89765D01*
X866159Y89518D01*
X866147Y89271D01*
X866141Y89024D01*
X866141Y88776D01*
X866147Y88529D01*
X866159Y88282D01*
X866177Y88035D01*
X866201Y87789D01*
X866231Y87543D01*
X866267Y87298D01*
X866309Y87055D01*
X866357Y86812D01*
X866411Y86570D01*
X866470Y86330D01*
X866536Y86092D01*
X866607Y85855D01*
X866684Y85620D01*
X866767Y85386D01*
X866855Y85155D01*
X866949Y84926D01*
X867049Y84700D01*
X867154Y84476D01*
X867264Y84254D01*
X867380Y84036D01*
X867501Y83820D01*
X867627Y83607D01*
X867759Y83398D01*
X867895Y83191D01*
X868037Y82988D01*
X868183Y82789D01*
X868335Y82593D01*
X868491Y82401D01*
X868651Y82213D01*
X868816Y82028D01*
X868986Y81848D01*
X869160Y81672D01*
X869338Y81500D01*
X869520Y81333D01*
X869706Y81170D01*
X869896Y81012D01*
X870090Y80858D01*
X870288Y80710D01*
X870489Y80566D01*
X870694Y80427D01*
X870902Y80293D01*
X871113Y80164D01*
X871328Y80040D01*
X871545Y79922D01*
X871765Y79808D01*
X871988Y79701D01*
X872213Y79598D01*
X872441Y79502D01*
X872671Y79410D01*
X872903Y79325D01*
X873137Y79245D01*
X873373Y79171D01*
X873611Y79102D01*
X873850Y79040D01*
X874091Y78983D01*
X874333Y78932D01*
X874576Y78887D01*
X874821Y78848D01*
X875066Y78815D01*
X875312Y78788D01*
X875558Y78767D01*
X875805Y78752D01*
X876053Y78743D01*
X876300Y78740D01*
X877306Y182374D02*
X919206Y182374D01*
D13*
X873538Y154145D02*
X874780Y154729D01*
X874779Y154728D02*
X875059Y154156D01*
X875353Y153591D01*
X875661Y153033D01*
X875982Y152483D01*
X876317Y151941D01*
X876665Y151407D01*
X877026Y150882D01*
X877400Y150366D01*
X877786Y149860D01*
X878184Y149363D01*
X878595Y148875D01*
X879017Y148398D01*
X879451Y147932D01*
X879897Y147476D01*
X880353Y147032D01*
X880820Y146599D01*
X881298Y146177D01*
X881785Y145767D01*
X882283Y145369D01*
X882790Y144984D01*
X883307Y144611D01*
X883833Y144251D01*
X884367Y143904D01*
X884909Y143570D01*
X885460Y143249D01*
X886018Y142942D01*
X886584Y142649D01*
X887157Y142370D01*
X887736Y142105D01*
X888322Y141854D01*
X888913Y141618D01*
X889510Y141396D01*
X890113Y141189D01*
X890720Y140997D01*
X891332Y140819D01*
X891948Y140657D01*
X892568Y140510D01*
X893192Y140378D01*
X893818Y140262D01*
X894447Y140161D01*
X895078Y140075D01*
X895712Y140005D01*
X896346Y139950D01*
X896982Y139911D01*
X897619Y139888D01*
X898256Y139880D01*
X898893Y139888D01*
X899530Y139911D01*
X900166Y139950D01*
X900800Y140005D01*
X901434Y140075D01*
X902065Y140161D01*
X902694Y140262D01*
X903320Y140378D01*
X903944Y140510D01*
X904564Y140657D01*
X905180Y140819D01*
X905792Y140997D01*
X906399Y141189D01*
X907002Y141396D01*
X907599Y141618D01*
X908190Y141854D01*
X908776Y142105D01*
X909355Y142370D01*
X909928Y142649D01*
X910494Y142942D01*
X911052Y143249D01*
X911603Y143570D01*
X912145Y143904D01*
X912679Y144251D01*
X913205Y144611D01*
X913722Y144984D01*
X914229Y145369D01*
X914727Y145767D01*
X915214Y146177D01*
X915692Y146599D01*
X916159Y147032D01*
X916615Y147476D01*
X917061Y147932D01*
X917495Y148398D01*
X917917Y148875D01*
X918328Y149363D01*
X918726Y149860D01*
X919112Y150366D01*
X919486Y150882D01*
X919847Y151407D01*
X920195Y151941D01*
X920530Y152483D01*
X920851Y153033D01*
X921159Y153591D01*
X921453Y154156D01*
X921733Y154728D01*
X922974Y154145D01*
X922974Y154144D01*
X922679Y153541D01*
X922370Y152946D01*
X922046Y152359D01*
X921708Y151780D01*
X921355Y151209D01*
X920989Y150647D01*
X920609Y150094D01*
X920216Y149551D01*
X919809Y149017D01*
X919389Y148494D01*
X918957Y147981D01*
X918512Y147478D01*
X918056Y146987D01*
X917587Y146507D01*
X917106Y146039D01*
X916614Y145583D01*
X916112Y145139D01*
X915598Y144707D01*
X915074Y144289D01*
X914540Y143883D01*
X913996Y143490D01*
X913443Y143111D01*
X912880Y142745D01*
X912309Y142394D01*
X911729Y142056D01*
X911141Y141733D01*
X910546Y141424D01*
X909943Y141130D01*
X909333Y140851D01*
X908716Y140587D01*
X908093Y140338D01*
X907464Y140104D01*
X906830Y139886D01*
X906190Y139684D01*
X905546Y139497D01*
X904897Y139326D01*
X904245Y139172D01*
X903588Y139033D01*
X902929Y138910D01*
X902267Y138804D01*
X901602Y138713D01*
X900935Y138640D01*
X900267Y138582D01*
X899597Y138541D01*
X898927Y138516D01*
X898256Y138508D01*
X897585Y138516D01*
X896915Y138541D01*
X896245Y138582D01*
X895577Y138640D01*
X894910Y138713D01*
X894245Y138804D01*
X893583Y138910D01*
X892924Y139033D01*
X892267Y139172D01*
X891615Y139326D01*
X890966Y139497D01*
X890322Y139684D01*
X889682Y139886D01*
X889048Y140104D01*
X888419Y140338D01*
X887796Y140587D01*
X887179Y140851D01*
X886569Y141130D01*
X885966Y141424D01*
X885371Y141733D01*
X884783Y142056D01*
X884203Y142394D01*
X883632Y142745D01*
X883069Y143111D01*
X882516Y143490D01*
X881972Y143883D01*
X881438Y144289D01*
X880914Y144707D01*
X880400Y145139D01*
X879898Y145583D01*
X879406Y146039D01*
X878925Y146507D01*
X878456Y146987D01*
X878000Y147478D01*
X877555Y147981D01*
X877123Y148494D01*
X876703Y149017D01*
X876296Y149551D01*
X875903Y150094D01*
X875523Y150647D01*
X875157Y151209D01*
X874804Y151780D01*
X874466Y152359D01*
X874142Y152946D01*
X873833Y153541D01*
X873538Y154144D01*
X873667Y154205D01*
X873960Y153606D01*
X874268Y153014D01*
X874591Y152429D01*
X874927Y151853D01*
X875278Y151285D01*
X875642Y150726D01*
X876020Y150176D01*
X876411Y149636D01*
X876816Y149105D01*
X877233Y148584D01*
X877663Y148074D01*
X878106Y147574D01*
X878560Y147086D01*
X879027Y146608D01*
X879504Y146143D01*
X879994Y145689D01*
X880494Y145247D01*
X881005Y144818D01*
X881526Y144401D01*
X882057Y143997D01*
X882598Y143607D01*
X883149Y143230D01*
X883708Y142866D01*
X884277Y142516D01*
X884853Y142180D01*
X885438Y141859D01*
X886031Y141552D01*
X886630Y141259D01*
X887237Y140982D01*
X887851Y140719D01*
X888470Y140471D01*
X889096Y140239D01*
X889727Y140022D01*
X890363Y139821D01*
X891004Y139635D01*
X891649Y139465D01*
X892299Y139311D01*
X892952Y139173D01*
X893608Y139051D01*
X894266Y138945D01*
X894928Y138855D01*
X895591Y138782D01*
X896256Y138725D01*
X896922Y138684D01*
X897589Y138659D01*
X898256Y138651D01*
X898923Y138659D01*
X899590Y138684D01*
X900256Y138725D01*
X900921Y138782D01*
X901584Y138855D01*
X902246Y138945D01*
X902904Y139051D01*
X903560Y139173D01*
X904213Y139311D01*
X904863Y139465D01*
X905508Y139635D01*
X906149Y139821D01*
X906785Y140022D01*
X907416Y140239D01*
X908042Y140471D01*
X908661Y140719D01*
X909275Y140982D01*
X909882Y141259D01*
X910481Y141552D01*
X911074Y141859D01*
X911659Y142180D01*
X912235Y142516D01*
X912804Y142866D01*
X913363Y143230D01*
X913914Y143607D01*
X914455Y143997D01*
X914986Y144401D01*
X915507Y144818D01*
X916018Y145247D01*
X916518Y145689D01*
X917008Y146143D01*
X917485Y146608D01*
X917952Y147086D01*
X918406Y147574D01*
X918849Y148074D01*
X919279Y148584D01*
X919696Y149105D01*
X920101Y149636D01*
X920492Y150176D01*
X920870Y150726D01*
X921234Y151285D01*
X921585Y151853D01*
X921921Y152429D01*
X922244Y153014D01*
X922552Y153606D01*
X922845Y154205D01*
X922716Y154266D01*
X922424Y153670D01*
X922118Y153081D01*
X921797Y152499D01*
X921462Y151926D01*
X921113Y151361D01*
X920751Y150805D01*
X920375Y150258D01*
X919986Y149721D01*
X919583Y149193D01*
X919168Y148675D01*
X918740Y148167D01*
X918300Y147670D01*
X917848Y147184D01*
X917384Y146709D01*
X916909Y146246D01*
X916422Y145795D01*
X915925Y145355D01*
X915416Y144928D01*
X914898Y144514D01*
X914369Y144112D01*
X913831Y143724D01*
X913284Y143348D01*
X912727Y142987D01*
X912162Y142639D01*
X911588Y142305D01*
X911006Y141985D01*
X910417Y141679D01*
X909820Y141389D01*
X909217Y141112D01*
X908607Y140851D01*
X907990Y140605D01*
X907368Y140374D01*
X906740Y140158D01*
X906107Y139958D01*
X905470Y139773D01*
X904828Y139604D01*
X904182Y139451D01*
X903533Y139313D01*
X902880Y139192D01*
X902225Y139086D01*
X901567Y138997D01*
X900907Y138924D01*
X900246Y138867D01*
X899583Y138827D01*
X898920Y138802D01*
X898256Y138794D01*
X897592Y138802D01*
X896929Y138827D01*
X896266Y138867D01*
X895605Y138924D01*
X894945Y138997D01*
X894287Y139086D01*
X893632Y139192D01*
X892979Y139313D01*
X892330Y139451D01*
X891684Y139604D01*
X891042Y139773D01*
X890405Y139958D01*
X889772Y140158D01*
X889144Y140374D01*
X888522Y140605D01*
X887905Y140851D01*
X887295Y141112D01*
X886692Y141389D01*
X886095Y141679D01*
X885506Y141985D01*
X884924Y142305D01*
X884350Y142639D01*
X883785Y142987D01*
X883228Y143348D01*
X882681Y143724D01*
X882143Y144112D01*
X881614Y144514D01*
X881096Y144928D01*
X880587Y145355D01*
X880090Y145795D01*
X879603Y146246D01*
X879128Y146709D01*
X878664Y147184D01*
X878212Y147670D01*
X877772Y148167D01*
X877344Y148675D01*
X876929Y149193D01*
X876526Y149721D01*
X876137Y150258D01*
X875761Y150805D01*
X875399Y151361D01*
X875050Y151926D01*
X874715Y152499D01*
X874394Y153081D01*
X874088Y153670D01*
X873796Y154266D01*
X873926Y154327D01*
X874216Y153734D01*
X874521Y153148D01*
X874840Y152570D01*
X875173Y152000D01*
X875520Y151438D01*
X875880Y150885D01*
X876254Y150340D01*
X876641Y149806D01*
X877042Y149281D01*
X877455Y148765D01*
X877880Y148260D01*
X878318Y147766D01*
X878768Y147283D01*
X879229Y146810D01*
X879702Y146350D01*
X880186Y145901D01*
X880681Y145464D01*
X881186Y145039D01*
X881702Y144626D01*
X882228Y144227D01*
X882763Y143840D01*
X883308Y143467D01*
X883862Y143107D01*
X884424Y142761D01*
X884994Y142429D01*
X885573Y142111D01*
X886159Y141807D01*
X886753Y141518D01*
X887353Y141243D01*
X887960Y140983D01*
X888573Y140738D01*
X889192Y140508D01*
X889817Y140294D01*
X890446Y140094D01*
X891080Y139911D01*
X891719Y139743D01*
X892361Y139590D01*
X893007Y139453D01*
X893657Y139333D01*
X894308Y139228D01*
X894963Y139139D01*
X895619Y139066D01*
X896277Y139010D01*
X896936Y138969D01*
X897596Y138945D01*
X898256Y138937D01*
X898916Y138945D01*
X899576Y138969D01*
X900235Y139010D01*
X900893Y139066D01*
X901549Y139139D01*
X902204Y139228D01*
X902855Y139333D01*
X903505Y139453D01*
X904151Y139590D01*
X904793Y139743D01*
X905432Y139911D01*
X906066Y140094D01*
X906695Y140294D01*
X907320Y140508D01*
X907939Y140738D01*
X908552Y140983D01*
X909159Y141243D01*
X909759Y141518D01*
X910353Y141807D01*
X910939Y142111D01*
X911518Y142429D01*
X912088Y142761D01*
X912650Y143107D01*
X913204Y143467D01*
X913749Y143840D01*
X914284Y144227D01*
X914810Y144626D01*
X915326Y145039D01*
X915831Y145464D01*
X916326Y145901D01*
X916810Y146350D01*
X917283Y146810D01*
X917744Y147283D01*
X918194Y147766D01*
X918632Y148260D01*
X919057Y148765D01*
X919470Y149281D01*
X919871Y149806D01*
X920258Y150340D01*
X920632Y150885D01*
X920992Y151438D01*
X921339Y152000D01*
X921672Y152570D01*
X921991Y153148D01*
X922296Y153734D01*
X922586Y154327D01*
X922457Y154388D01*
X922168Y153798D01*
X921865Y153215D01*
X921548Y152640D01*
X921217Y152073D01*
X920872Y151514D01*
X920513Y150964D01*
X920141Y150423D01*
X919756Y149891D01*
X919358Y149368D01*
X918947Y148856D01*
X918524Y148354D01*
X918088Y147862D01*
X917641Y147381D01*
X917182Y146911D01*
X916711Y146453D01*
X916230Y146006D01*
X915738Y145572D01*
X915235Y145149D01*
X914722Y144739D01*
X914199Y144342D01*
X913666Y143957D01*
X913125Y143586D01*
X912574Y143228D01*
X912015Y142884D01*
X911447Y142553D01*
X910871Y142237D01*
X910288Y141935D01*
X909698Y141647D01*
X909101Y141374D01*
X908497Y141115D01*
X907887Y140872D01*
X907271Y140643D01*
X906650Y140429D01*
X906024Y140231D01*
X905393Y140048D01*
X904758Y139881D01*
X904119Y139730D01*
X903477Y139594D01*
X902831Y139474D01*
X902183Y139369D01*
X901532Y139281D01*
X900879Y139209D01*
X900225Y139152D01*
X899569Y139112D01*
X898913Y139088D01*
X898256Y139080D01*
X897599Y139088D01*
X896943Y139112D01*
X896287Y139152D01*
X895633Y139209D01*
X894980Y139281D01*
X894329Y139369D01*
X893681Y139474D01*
X893035Y139594D01*
X892393Y139730D01*
X891754Y139881D01*
X891119Y140048D01*
X890488Y140231D01*
X889862Y140429D01*
X889241Y140643D01*
X888625Y140872D01*
X888015Y141115D01*
X887411Y141374D01*
X886814Y141647D01*
X886224Y141935D01*
X885641Y142237D01*
X885065Y142553D01*
X884497Y142884D01*
X883938Y143228D01*
X883387Y143586D01*
X882846Y143957D01*
X882313Y144342D01*
X881790Y144739D01*
X881277Y145149D01*
X880774Y145572D01*
X880282Y146006D01*
X879801Y146453D01*
X879330Y146911D01*
X878871Y147381D01*
X878424Y147862D01*
X877988Y148354D01*
X877565Y148856D01*
X877154Y149368D01*
X876756Y149891D01*
X876371Y150423D01*
X875999Y150964D01*
X875640Y151514D01*
X875295Y152073D01*
X874964Y152640D01*
X874647Y153215D01*
X874344Y153798D01*
X874055Y154388D01*
X874185Y154449D01*
X874472Y153862D01*
X874773Y153282D01*
X875089Y152710D01*
X875418Y152146D01*
X875761Y151590D01*
X876118Y151043D01*
X876488Y150505D01*
X876871Y149976D01*
X877267Y149456D01*
X877676Y148946D01*
X878097Y148447D01*
X878530Y147958D01*
X878975Y147480D01*
X879432Y147012D01*
X879899Y146557D01*
X880378Y146112D01*
X880868Y145680D01*
X881368Y145260D01*
X881878Y144852D01*
X882398Y144456D01*
X882928Y144074D01*
X883467Y143705D01*
X884015Y143349D01*
X884571Y143006D01*
X885136Y142678D01*
X885708Y142363D01*
X886288Y142062D01*
X886875Y141776D01*
X887469Y141504D01*
X888070Y141247D01*
X888676Y141005D01*
X889289Y140777D01*
X889907Y140565D01*
X890529Y140368D01*
X891157Y140186D01*
X891789Y140020D01*
X892424Y139869D01*
X893063Y139734D01*
X893706Y139615D01*
X894351Y139511D01*
X894998Y139423D01*
X895647Y139351D01*
X896298Y139295D01*
X896950Y139255D01*
X897603Y139231D01*
X898256Y139223D01*
X898909Y139231D01*
X899562Y139255D01*
X900214Y139295D01*
X900865Y139351D01*
X901514Y139423D01*
X902161Y139511D01*
X902806Y139615D01*
X903449Y139734D01*
X904088Y139869D01*
X904723Y140020D01*
X905355Y140186D01*
X905983Y140368D01*
X906605Y140565D01*
X907223Y140777D01*
X907836Y141005D01*
X908442Y141247D01*
X909043Y141504D01*
X909637Y141776D01*
X910224Y142062D01*
X910804Y142363D01*
X911376Y142678D01*
X911941Y143006D01*
X912497Y143349D01*
X913045Y143705D01*
X913584Y144074D01*
X914114Y144456D01*
X914634Y144852D01*
X915144Y145260D01*
X915644Y145680D01*
X916134Y146112D01*
X916613Y146557D01*
X917080Y147012D01*
X917537Y147480D01*
X917982Y147958D01*
X918415Y148447D01*
X918836Y148946D01*
X919245Y149456D01*
X919641Y149976D01*
X920024Y150505D01*
X920394Y151043D01*
X920751Y151590D01*
X921094Y152146D01*
X921423Y152710D01*
X921739Y153282D01*
X922040Y153862D01*
X922327Y154449D01*
X922198Y154510D01*
X921912Y153926D01*
X921613Y153349D01*
X921299Y152781D01*
X920971Y152220D01*
X920630Y151667D01*
X920275Y151122D01*
X919907Y150587D01*
X919526Y150061D01*
X919132Y149544D01*
X918725Y149037D01*
X918307Y148540D01*
X917876Y148054D01*
X917433Y147578D01*
X916979Y147113D01*
X916514Y146660D01*
X916038Y146218D01*
X915550Y145788D01*
X915053Y145370D01*
X914546Y144964D01*
X914028Y144571D01*
X913501Y144191D01*
X912965Y143824D01*
X912421Y143470D01*
X911867Y143129D01*
X911306Y142802D01*
X910736Y142489D01*
X910160Y142190D01*
X909576Y141905D01*
X908985Y141635D01*
X908387Y141379D01*
X907784Y141138D01*
X907175Y140912D01*
X906560Y140701D01*
X905941Y140505D01*
X905317Y140324D01*
X904689Y140159D01*
X904056Y140009D01*
X903421Y139874D01*
X902782Y139755D01*
X902140Y139652D01*
X901497Y139565D01*
X900851Y139493D01*
X900204Y139438D01*
X899555Y139398D01*
X898906Y139374D01*
X898256Y139366D01*
X897606Y139374D01*
X896957Y139398D01*
X896308Y139438D01*
X895661Y139493D01*
X895015Y139565D01*
X894372Y139652D01*
X893730Y139755D01*
X893091Y139874D01*
X892456Y140009D01*
X891823Y140159D01*
X891195Y140324D01*
X890571Y140505D01*
X889952Y140701D01*
X889337Y140912D01*
X888728Y141138D01*
X888125Y141379D01*
X887527Y141635D01*
X886936Y141905D01*
X886352Y142190D01*
X885776Y142489D01*
X885206Y142802D01*
X884645Y143129D01*
X884091Y143470D01*
X883547Y143824D01*
X883011Y144191D01*
X882484Y144571D01*
X881966Y144964D01*
X881459Y145370D01*
X880962Y145788D01*
X880474Y146218D01*
X879998Y146660D01*
X879533Y147113D01*
X879079Y147578D01*
X878636Y148054D01*
X878205Y148540D01*
X877787Y149037D01*
X877380Y149544D01*
X876986Y150061D01*
X876605Y150587D01*
X876237Y151122D01*
X875882Y151667D01*
X875541Y152220D01*
X875213Y152781D01*
X874899Y153349D01*
X874600Y153926D01*
X874314Y154510D01*
X874443Y154570D01*
X874727Y153990D01*
X875026Y153417D01*
X875338Y152851D01*
X875664Y152293D01*
X876003Y151743D01*
X876356Y151202D01*
X876722Y150669D01*
X877101Y150146D01*
X877493Y149632D01*
X877897Y149128D01*
X878314Y148633D01*
X878742Y148150D01*
X879182Y147677D01*
X879634Y147214D01*
X880097Y146763D01*
X880571Y146324D01*
X881055Y145896D01*
X881550Y145480D01*
X882055Y145077D01*
X882569Y144686D01*
X883093Y144308D01*
X883626Y143942D01*
X884168Y143590D01*
X884718Y143252D01*
X885277Y142927D01*
X885843Y142615D01*
X886417Y142318D01*
X886998Y142035D01*
X887585Y141766D01*
X888179Y141511D01*
X888780Y141272D01*
X889385Y141047D01*
X889996Y140837D01*
X890613Y140642D01*
X891233Y140462D01*
X891858Y140297D01*
X892487Y140148D01*
X893119Y140014D01*
X893755Y139896D01*
X894393Y139794D01*
X895033Y139707D01*
X895675Y139636D01*
X896319Y139580D01*
X896964Y139541D01*
X897610Y139517D01*
X898256Y139509D01*
X898902Y139517D01*
X899548Y139541D01*
X900193Y139580D01*
X900837Y139636D01*
X901479Y139707D01*
X902119Y139794D01*
X902757Y139896D01*
X903393Y140014D01*
X904025Y140148D01*
X904654Y140297D01*
X905279Y140462D01*
X905899Y140642D01*
X906516Y140837D01*
X907127Y141047D01*
X907732Y141272D01*
X908333Y141511D01*
X908927Y141766D01*
X909514Y142035D01*
X910095Y142318D01*
X910669Y142615D01*
X911235Y142927D01*
X911794Y143252D01*
X912344Y143590D01*
X912886Y143942D01*
X913419Y144308D01*
X913943Y144686D01*
X914457Y145077D01*
X914962Y145480D01*
X915457Y145896D01*
X915941Y146324D01*
X916415Y146763D01*
X916878Y147214D01*
X917330Y147677D01*
X917770Y148150D01*
X918198Y148633D01*
X918615Y149128D01*
X919019Y149632D01*
X919411Y150146D01*
X919790Y150669D01*
X920156Y151202D01*
X920509Y151743D01*
X920848Y152293D01*
X921174Y152851D01*
X921486Y153417D01*
X921785Y153990D01*
X922069Y154570D01*
X921939Y154631D01*
X921657Y154054D01*
X921360Y153484D01*
X921050Y152921D01*
X920725Y152366D01*
X920388Y151819D01*
X920037Y151281D01*
X919673Y150751D01*
X919296Y150231D01*
X918906Y149720D01*
X918504Y149218D01*
X918090Y148727D01*
X917664Y148246D01*
X917226Y147775D01*
X916777Y147315D01*
X916316Y146867D01*
X915845Y146430D01*
X915363Y146004D01*
X914871Y145591D01*
X914369Y145190D01*
X913858Y144801D01*
X913336Y144425D01*
X912806Y144061D01*
X912267Y143711D01*
X911720Y143374D01*
X911165Y143051D01*
X910601Y142741D01*
X910031Y142446D01*
X909453Y142164D01*
X908869Y141896D01*
X908278Y141643D01*
X907681Y141405D01*
X907078Y141181D01*
X906471Y140972D01*
X905858Y140779D01*
X905241Y140600D01*
X904619Y140436D01*
X903994Y140288D01*
X903365Y140155D01*
X902733Y140037D01*
X902098Y139935D01*
X901462Y139849D01*
X900823Y139778D01*
X900182Y139723D01*
X899541Y139684D01*
X898899Y139660D01*
X898256Y139652D01*
X897613Y139660D01*
X896971Y139684D01*
X896330Y139723D01*
X895689Y139778D01*
X895050Y139849D01*
X894414Y139935D01*
X893779Y140037D01*
X893147Y140155D01*
X892518Y140288D01*
X891893Y140436D01*
X891271Y140600D01*
X890654Y140779D01*
X890041Y140972D01*
X889434Y141181D01*
X888831Y141405D01*
X888234Y141643D01*
X887643Y141896D01*
X887059Y142164D01*
X886481Y142446D01*
X885911Y142741D01*
X885347Y143051D01*
X884792Y143374D01*
X884245Y143711D01*
X883706Y144061D01*
X883176Y144425D01*
X882654Y144801D01*
X882143Y145190D01*
X881641Y145591D01*
X881149Y146004D01*
X880667Y146430D01*
X880196Y146867D01*
X879735Y147315D01*
X879286Y147775D01*
X878848Y148246D01*
X878422Y148727D01*
X878008Y149218D01*
X877606Y149720D01*
X877216Y150231D01*
X876839Y150751D01*
X876475Y151281D01*
X876124Y151819D01*
X875787Y152366D01*
X875462Y152921D01*
X875152Y153484D01*
X874855Y154054D01*
X874573Y154631D01*
X874702Y154692D01*
X874983Y154118D01*
X875278Y153551D01*
X875587Y152991D01*
X875909Y152439D01*
X876245Y151896D01*
X876594Y151360D01*
X876956Y150833D01*
X877331Y150316D01*
X877719Y149807D01*
X878119Y149309D01*
X878531Y148820D01*
X878954Y148341D01*
X879390Y147874D01*
X879837Y147416D01*
X880294Y146970D01*
X880763Y146536D01*
X881242Y146113D01*
X881731Y145701D01*
X882231Y145302D01*
X882740Y144916D01*
X883258Y144541D01*
X883785Y144180D01*
X884321Y143832D01*
X884866Y143497D01*
X885418Y143175D01*
X885978Y142867D01*
X886546Y142573D01*
X887120Y142293D01*
X887701Y142027D01*
X888289Y141776D01*
X888883Y141538D01*
X889482Y141316D01*
X890086Y141108D01*
X890696Y140915D01*
X891310Y140737D01*
X891928Y140575D01*
X892550Y140427D01*
X893175Y140295D01*
X893803Y140178D01*
X894435Y140077D01*
X895068Y139991D01*
X895703Y139920D01*
X896340Y139865D01*
X896978Y139826D01*
X897617Y139803D01*
X898256Y139795D01*
X898895Y139803D01*
X899534Y139826D01*
X900172Y139865D01*
X900809Y139920D01*
X901444Y139991D01*
X902077Y140077D01*
X902709Y140178D01*
X903337Y140295D01*
X903962Y140427D01*
X904584Y140575D01*
X905202Y140737D01*
X905816Y140915D01*
X906426Y141108D01*
X907030Y141316D01*
X907629Y141538D01*
X908223Y141776D01*
X908811Y142027D01*
X909392Y142293D01*
X909966Y142573D01*
X910534Y142867D01*
X911094Y143175D01*
X911646Y143497D01*
X912191Y143832D01*
X912727Y144180D01*
X913254Y144541D01*
X913772Y144916D01*
X914281Y145302D01*
X914781Y145701D01*
X915270Y146113D01*
X915749Y146536D01*
X916218Y146970D01*
X916675Y147416D01*
X917122Y147874D01*
X917558Y148341D01*
X917981Y148820D01*
X918393Y149309D01*
X918793Y149807D01*
X919181Y150316D01*
X919556Y150833D01*
X919918Y151360D01*
X920267Y151896D01*
X920603Y152439D01*
X920925Y152991D01*
X921234Y153551D01*
X921529Y154118D01*
X921810Y154692D01*
X922978Y177583D02*
X921737Y176999D01*
X921738Y176999D02*
X921485Y177517D01*
X921221Y178029D01*
X920945Y178535D01*
X920659Y179035D01*
X920361Y179528D01*
X920053Y180015D01*
X919734Y180495D01*
X919404Y180967D01*
X919064Y181432D01*
X918714Y181889D01*
X919791Y182738D01*
X919791Y182739D01*
X920161Y182257D01*
X920519Y181766D01*
X920867Y181268D01*
X921203Y180763D01*
X921528Y180250D01*
X921842Y179730D01*
X922144Y179203D01*
X922434Y178669D01*
X922713Y178130D01*
X922979Y177584D01*
X922849Y177523D01*
X922585Y178066D01*
X922308Y178603D01*
X922019Y179133D01*
X921719Y179657D01*
X921407Y180175D01*
X921083Y180685D01*
X920749Y181188D01*
X920403Y181683D01*
X920046Y182171D01*
X919679Y182650D01*
X919567Y182562D01*
X919932Y182085D01*
X920287Y181600D01*
X920631Y181107D01*
X920963Y180607D01*
X921285Y180099D01*
X921595Y179585D01*
X921894Y179064D01*
X922181Y178536D01*
X922457Y178002D01*
X922720Y177462D01*
X922591Y177401D01*
X922329Y177938D01*
X922055Y178469D01*
X921769Y178994D01*
X921472Y179513D01*
X921163Y180024D01*
X920844Y180529D01*
X920513Y181026D01*
X920171Y181516D01*
X919818Y181999D01*
X919455Y182473D01*
X919342Y182385D01*
X919704Y181913D01*
X920054Y181433D01*
X920395Y180946D01*
X920724Y180451D01*
X921042Y179949D01*
X921349Y179440D01*
X921644Y178924D01*
X921928Y178402D01*
X922201Y177874D01*
X922461Y177340D01*
X922332Y177279D01*
X922073Y177810D01*
X921802Y178336D01*
X921519Y178855D01*
X921225Y179368D01*
X920920Y179874D01*
X920604Y180373D01*
X920276Y180865D01*
X919938Y181350D01*
X919589Y181827D01*
X919230Y182296D01*
X919118Y182208D01*
X919475Y181741D01*
X919822Y181266D01*
X920158Y180784D01*
X920484Y180295D01*
X920799Y179799D01*
X921102Y179295D01*
X921394Y178785D01*
X921675Y178269D01*
X921945Y177747D01*
X922203Y177218D01*
X922073Y177157D01*
X921817Y177683D01*
X921549Y178202D01*
X921270Y178716D01*
X920979Y179223D01*
X920677Y179723D01*
X920364Y180217D01*
X920040Y180704D01*
X919706Y181183D01*
X919361Y181655D01*
X919005Y182119D01*
X918893Y182031D01*
X919246Y181569D01*
X919590Y181100D01*
X919922Y180623D01*
X920244Y180139D01*
X920555Y179648D01*
X920856Y179150D01*
X921145Y178646D01*
X921422Y178136D01*
X921689Y177619D01*
X921944Y177097D01*
X921814Y177036D01*
X921561Y177555D01*
X921296Y178069D01*
X921020Y178577D01*
X920732Y179078D01*
X920434Y179573D01*
X920124Y180061D01*
X919804Y180542D01*
X919473Y181017D01*
X919132Y181483D01*
X918781Y181942D01*
D11*
X912296Y167134D02*
X909616Y167134D01*
X886896Y167134D02*
X884216Y167134D01*
D13*
X876721Y182738D02*
X877799Y181889D01*
X877798Y181889D02*
X877432Y181411D01*
X877078Y180925D01*
X876734Y180430D01*
X876403Y179928D01*
X876083Y179418D01*
X875775Y178901D01*
X875479Y178377D01*
X875195Y177846D01*
X874924Y177308D01*
X874665Y176765D01*
X873418Y177336D01*
X873418Y177337D01*
X873690Y177910D01*
X873976Y178476D01*
X874276Y179036D01*
X874588Y179589D01*
X874912Y180134D01*
X875250Y180671D01*
X875599Y181201D01*
X875961Y181722D01*
X876335Y182235D01*
X876721Y182739D01*
X876833Y182650D01*
X876449Y182149D01*
X876077Y181639D01*
X875718Y181120D01*
X875370Y180594D01*
X875034Y180059D01*
X874711Y179517D01*
X874401Y178967D01*
X874103Y178411D01*
X873819Y177847D01*
X873548Y177277D01*
X873678Y177218D01*
X873947Y177784D01*
X874230Y178345D01*
X874526Y178899D01*
X874835Y179445D01*
X875156Y179985D01*
X875490Y180516D01*
X875836Y181040D01*
X876194Y181556D01*
X876564Y182063D01*
X876945Y182562D01*
X877057Y182473D01*
X876678Y181977D01*
X876310Y181473D01*
X875954Y180960D01*
X875610Y180439D01*
X875278Y179910D01*
X874959Y179374D01*
X874652Y178830D01*
X874357Y178279D01*
X874076Y177722D01*
X873808Y177158D01*
X873937Y177098D01*
X874204Y177659D01*
X874484Y178213D01*
X874777Y178761D01*
X875082Y179302D01*
X875400Y179835D01*
X875730Y180361D01*
X876073Y180880D01*
X876427Y181390D01*
X876792Y181891D01*
X877170Y182385D01*
X877282Y182296D01*
X876907Y181806D01*
X876543Y181307D01*
X876191Y180799D01*
X875851Y180284D01*
X875522Y179761D01*
X875206Y179230D01*
X874903Y178692D01*
X874611Y178148D01*
X874333Y177596D01*
X874067Y177039D01*
X874197Y176979D01*
X874462Y177534D01*
X874738Y178082D01*
X875028Y178624D01*
X875330Y179158D01*
X875644Y179686D01*
X875971Y180206D01*
X876309Y180719D01*
X876659Y181224D01*
X877021Y181720D01*
X877394Y182208D01*
X877507Y182119D01*
X877136Y181634D01*
X876776Y181140D01*
X876427Y180639D01*
X876091Y180129D01*
X875766Y179612D01*
X875454Y179087D01*
X875153Y178555D01*
X874865Y178016D01*
X874590Y177471D01*
X874327Y176920D01*
X874457Y176860D01*
X874719Y177408D01*
X874992Y177951D01*
X875279Y178486D01*
X875577Y179015D01*
X875888Y179537D01*
X876211Y180051D01*
X876546Y180558D01*
X876892Y181057D01*
X877250Y181548D01*
X877619Y182031D01*
X877731Y181942D01*
X877364Y181462D01*
X877008Y180974D01*
X876664Y180478D01*
X876331Y179974D01*
X876010Y179462D01*
X875701Y178943D01*
X875404Y178417D01*
X875119Y177885D01*
X874847Y177346D01*
X874587Y176800D01*
D14*
X618500Y60950D02*
X618500Y40650D01*
X618500Y60950D02*
X575300Y60950D01*
X575300Y40650D01*
X618500Y40650D01*
X618500Y50800D02*
X624260Y50800D01*
X575300Y50800D02*
X569540Y50800D01*
X580400Y106670D02*
X600700Y106670D01*
X600700Y149870D01*
X580400Y149870D01*
X580400Y106670D01*
X590550Y106670D02*
X590550Y100910D01*
X590550Y149870D02*
X590550Y155630D01*
X753100Y35550D02*
X753100Y15250D01*
X796300Y15250D01*
X796300Y35550D01*
X753100Y35550D01*
X753100Y25400D02*
X747340Y25400D01*
X796300Y25400D02*
X802060Y25400D01*
X842000Y35550D02*
X842000Y15250D01*
X885200Y15250D01*
X885200Y35550D01*
X842000Y35550D01*
X842000Y25400D02*
X836240Y25400D01*
X885200Y25400D02*
X890960Y25400D01*
D11*
X910000Y179050D02*
X995000Y179050D01*
X995000Y24150D01*
X910000Y24150D01*
X910000Y179050D01*
D10*
X693928Y25781D02*
X693928Y19431D01*
X693928Y25781D02*
X693928Y32131D01*
D11*
X693928Y25781D02*
X706120Y25781D01*
D10*
X687578Y25781D02*
X687578Y19431D01*
X687578Y25781D02*
X687578Y32131D01*
D11*
X687578Y25781D02*
X675640Y25781D01*
X727710Y15621D02*
X727710Y35941D01*
X725170Y38481D02*
X656590Y38481D01*
X654050Y35941D02*
X654050Y15621D01*
X656590Y13081D02*
X725170Y13081D01*
X656590Y13081D02*
X656490Y13083D01*
X656391Y13089D01*
X656291Y13099D01*
X656193Y13112D01*
X656094Y13130D01*
X655997Y13151D01*
X655901Y13176D01*
X655805Y13205D01*
X655711Y13238D01*
X655618Y13274D01*
X655527Y13314D01*
X655437Y13358D01*
X655349Y13405D01*
X655263Y13455D01*
X655179Y13509D01*
X655097Y13566D01*
X655018Y13626D01*
X654940Y13690D01*
X654866Y13756D01*
X654794Y13825D01*
X654725Y13897D01*
X654659Y13971D01*
X654595Y14049D01*
X654535Y14128D01*
X654478Y14210D01*
X654424Y14294D01*
X654374Y14380D01*
X654327Y14468D01*
X654283Y14558D01*
X654243Y14649D01*
X654207Y14742D01*
X654174Y14836D01*
X654145Y14932D01*
X654120Y15028D01*
X654099Y15125D01*
X654081Y15224D01*
X654068Y15322D01*
X654058Y15422D01*
X654052Y15521D01*
X654050Y15621D01*
X654050Y35941D02*
X654052Y36041D01*
X654058Y36140D01*
X654068Y36240D01*
X654081Y36338D01*
X654099Y36437D01*
X654120Y36534D01*
X654145Y36630D01*
X654174Y36726D01*
X654207Y36820D01*
X654243Y36913D01*
X654283Y37004D01*
X654327Y37094D01*
X654374Y37182D01*
X654424Y37268D01*
X654478Y37352D01*
X654535Y37434D01*
X654595Y37513D01*
X654659Y37591D01*
X654725Y37665D01*
X654794Y37737D01*
X654866Y37806D01*
X654940Y37872D01*
X655018Y37936D01*
X655097Y37996D01*
X655179Y38053D01*
X655263Y38107D01*
X655349Y38157D01*
X655437Y38204D01*
X655527Y38248D01*
X655618Y38288D01*
X655711Y38324D01*
X655805Y38357D01*
X655901Y38386D01*
X655997Y38411D01*
X656094Y38432D01*
X656193Y38450D01*
X656291Y38463D01*
X656391Y38473D01*
X656490Y38479D01*
X656590Y38481D01*
X725170Y38481D02*
X725270Y38479D01*
X725369Y38473D01*
X725469Y38463D01*
X725567Y38450D01*
X725666Y38432D01*
X725763Y38411D01*
X725859Y38386D01*
X725955Y38357D01*
X726049Y38324D01*
X726142Y38288D01*
X726233Y38248D01*
X726323Y38204D01*
X726411Y38157D01*
X726497Y38107D01*
X726581Y38053D01*
X726663Y37996D01*
X726742Y37936D01*
X726820Y37872D01*
X726894Y37806D01*
X726966Y37737D01*
X727035Y37665D01*
X727101Y37591D01*
X727165Y37513D01*
X727225Y37434D01*
X727282Y37352D01*
X727336Y37268D01*
X727386Y37182D01*
X727433Y37094D01*
X727477Y37004D01*
X727517Y36913D01*
X727553Y36820D01*
X727586Y36726D01*
X727615Y36630D01*
X727640Y36534D01*
X727661Y36437D01*
X727679Y36338D01*
X727692Y36240D01*
X727702Y36140D01*
X727708Y36041D01*
X727710Y35941D01*
X727710Y15621D02*
X727708Y15521D01*
X727702Y15422D01*
X727692Y15322D01*
X727679Y15224D01*
X727661Y15125D01*
X727640Y15028D01*
X727615Y14932D01*
X727586Y14836D01*
X727553Y14742D01*
X727517Y14649D01*
X727477Y14558D01*
X727433Y14468D01*
X727386Y14380D01*
X727336Y14294D01*
X727282Y14210D01*
X727225Y14128D01*
X727165Y14049D01*
X727101Y13971D01*
X727035Y13897D01*
X726966Y13825D01*
X726894Y13756D01*
X726820Y13690D01*
X726742Y13626D01*
X726663Y13566D01*
X726581Y13509D01*
X726497Y13455D01*
X726411Y13405D01*
X726323Y13358D01*
X726233Y13314D01*
X726142Y13274D01*
X726049Y13238D01*
X725955Y13205D01*
X725859Y13176D01*
X725763Y13151D01*
X725666Y13130D01*
X725567Y13112D01*
X725469Y13099D01*
X725369Y13089D01*
X725270Y13083D01*
X725170Y13081D01*
D10*
X628650Y141478D02*
X622300Y141478D01*
X615950Y141478D01*
D11*
X622300Y141478D02*
X622300Y153670D01*
D10*
X622300Y135128D02*
X628650Y135128D01*
X622300Y135128D02*
X615950Y135128D01*
D11*
X622300Y135128D02*
X622300Y123190D01*
X632460Y175260D02*
X612140Y175260D01*
X609600Y172720D02*
X609600Y104140D01*
X612140Y101600D02*
X632460Y101600D01*
X635000Y104140D02*
X635000Y172720D01*
X635000Y104140D02*
X634998Y104040D01*
X634992Y103941D01*
X634982Y103841D01*
X634969Y103743D01*
X634951Y103644D01*
X634930Y103547D01*
X634905Y103451D01*
X634876Y103355D01*
X634843Y103261D01*
X634807Y103168D01*
X634767Y103077D01*
X634723Y102987D01*
X634676Y102899D01*
X634626Y102813D01*
X634572Y102729D01*
X634515Y102647D01*
X634455Y102568D01*
X634391Y102490D01*
X634325Y102416D01*
X634256Y102344D01*
X634184Y102275D01*
X634110Y102209D01*
X634032Y102145D01*
X633953Y102085D01*
X633871Y102028D01*
X633787Y101974D01*
X633701Y101924D01*
X633613Y101877D01*
X633523Y101833D01*
X633432Y101793D01*
X633339Y101757D01*
X633245Y101724D01*
X633149Y101695D01*
X633053Y101670D01*
X632956Y101649D01*
X632857Y101631D01*
X632759Y101618D01*
X632659Y101608D01*
X632560Y101602D01*
X632460Y101600D01*
X612140Y101600D02*
X612040Y101602D01*
X611941Y101608D01*
X611841Y101618D01*
X611743Y101631D01*
X611644Y101649D01*
X611547Y101670D01*
X611451Y101695D01*
X611355Y101724D01*
X611261Y101757D01*
X611168Y101793D01*
X611077Y101833D01*
X610987Y101877D01*
X610899Y101924D01*
X610813Y101974D01*
X610729Y102028D01*
X610647Y102085D01*
X610568Y102145D01*
X610490Y102209D01*
X610416Y102275D01*
X610344Y102344D01*
X610275Y102416D01*
X610209Y102490D01*
X610145Y102568D01*
X610085Y102647D01*
X610028Y102729D01*
X609974Y102813D01*
X609924Y102899D01*
X609877Y102987D01*
X609833Y103077D01*
X609793Y103168D01*
X609757Y103261D01*
X609724Y103355D01*
X609695Y103451D01*
X609670Y103547D01*
X609649Y103644D01*
X609631Y103743D01*
X609618Y103841D01*
X609608Y103941D01*
X609602Y104040D01*
X609600Y104140D01*
X609600Y172720D02*
X609602Y172820D01*
X609608Y172919D01*
X609618Y173019D01*
X609631Y173117D01*
X609649Y173216D01*
X609670Y173313D01*
X609695Y173409D01*
X609724Y173505D01*
X609757Y173599D01*
X609793Y173692D01*
X609833Y173783D01*
X609877Y173873D01*
X609924Y173961D01*
X609974Y174047D01*
X610028Y174131D01*
X610085Y174213D01*
X610145Y174292D01*
X610209Y174370D01*
X610275Y174444D01*
X610344Y174516D01*
X610416Y174585D01*
X610490Y174651D01*
X610568Y174715D01*
X610647Y174775D01*
X610729Y174832D01*
X610813Y174886D01*
X610899Y174936D01*
X610987Y174983D01*
X611077Y175027D01*
X611168Y175067D01*
X611261Y175103D01*
X611355Y175136D01*
X611451Y175165D01*
X611547Y175190D01*
X611644Y175211D01*
X611743Y175229D01*
X611841Y175242D01*
X611941Y175252D01*
X612040Y175258D01*
X612140Y175260D01*
X632460Y175260D02*
X632560Y175258D01*
X632659Y175252D01*
X632759Y175242D01*
X632857Y175229D01*
X632956Y175211D01*
X633053Y175190D01*
X633149Y175165D01*
X633245Y175136D01*
X633339Y175103D01*
X633432Y175067D01*
X633523Y175027D01*
X633613Y174983D01*
X633701Y174936D01*
X633787Y174886D01*
X633871Y174832D01*
X633953Y174775D01*
X634032Y174715D01*
X634110Y174651D01*
X634184Y174585D01*
X634256Y174516D01*
X634325Y174444D01*
X634391Y174370D01*
X634455Y174292D01*
X634515Y174213D01*
X634572Y174131D01*
X634626Y174047D01*
X634676Y173961D01*
X634723Y173873D01*
X634767Y173783D01*
X634807Y173692D01*
X634843Y173599D01*
X634876Y173505D01*
X634905Y173409D01*
X634930Y173313D01*
X634951Y173216D01*
X634969Y173117D01*
X634982Y173019D01*
X634992Y172919D01*
X634998Y172820D01*
X635000Y172720D01*
X647700Y59690D02*
X749300Y59690D01*
X749300Y118110D02*
X647700Y118110D01*
X647700Y59690D01*
X749300Y59690D02*
X749300Y78740D01*
X749300Y99060D02*
X749300Y118110D01*
X749300Y99060D02*
X749053Y99057D01*
X748805Y99048D01*
X748558Y99033D01*
X748312Y99012D01*
X748066Y98985D01*
X747821Y98952D01*
X747576Y98913D01*
X747333Y98868D01*
X747091Y98817D01*
X746850Y98760D01*
X746611Y98698D01*
X746373Y98629D01*
X746137Y98555D01*
X745903Y98475D01*
X745671Y98390D01*
X745441Y98298D01*
X745213Y98202D01*
X744988Y98099D01*
X744765Y97992D01*
X744545Y97878D01*
X744328Y97760D01*
X744113Y97636D01*
X743902Y97507D01*
X743694Y97373D01*
X743489Y97234D01*
X743288Y97090D01*
X743090Y96942D01*
X742896Y96788D01*
X742706Y96630D01*
X742520Y96467D01*
X742338Y96300D01*
X742160Y96128D01*
X741986Y95952D01*
X741816Y95772D01*
X741651Y95587D01*
X741491Y95399D01*
X741335Y95207D01*
X741183Y95011D01*
X741037Y94812D01*
X740895Y94609D01*
X740759Y94402D01*
X740627Y94193D01*
X740501Y93980D01*
X740380Y93764D01*
X740264Y93546D01*
X740154Y93324D01*
X740049Y93100D01*
X739949Y92874D01*
X739855Y92645D01*
X739767Y92414D01*
X739684Y92180D01*
X739607Y91945D01*
X739536Y91708D01*
X739470Y91470D01*
X739411Y91230D01*
X739357Y90988D01*
X739309Y90745D01*
X739267Y90502D01*
X739231Y90257D01*
X739201Y90011D01*
X739177Y89765D01*
X739159Y89518D01*
X739147Y89271D01*
X739141Y89024D01*
X739141Y88776D01*
X739147Y88529D01*
X739159Y88282D01*
X739177Y88035D01*
X739201Y87789D01*
X739231Y87543D01*
X739267Y87298D01*
X739309Y87055D01*
X739357Y86812D01*
X739411Y86570D01*
X739470Y86330D01*
X739536Y86092D01*
X739607Y85855D01*
X739684Y85620D01*
X739767Y85386D01*
X739855Y85155D01*
X739949Y84926D01*
X740049Y84700D01*
X740154Y84476D01*
X740264Y84254D01*
X740380Y84036D01*
X740501Y83820D01*
X740627Y83607D01*
X740759Y83398D01*
X740895Y83191D01*
X741037Y82988D01*
X741183Y82789D01*
X741335Y82593D01*
X741491Y82401D01*
X741651Y82213D01*
X741816Y82028D01*
X741986Y81848D01*
X742160Y81672D01*
X742338Y81500D01*
X742520Y81333D01*
X742706Y81170D01*
X742896Y81012D01*
X743090Y80858D01*
X743288Y80710D01*
X743489Y80566D01*
X743694Y80427D01*
X743902Y80293D01*
X744113Y80164D01*
X744328Y80040D01*
X744545Y79922D01*
X744765Y79808D01*
X744988Y79701D01*
X745213Y79598D01*
X745441Y79502D01*
X745671Y79410D01*
X745903Y79325D01*
X746137Y79245D01*
X746373Y79171D01*
X746611Y79102D01*
X746850Y79040D01*
X747091Y78983D01*
X747333Y78932D01*
X747576Y78887D01*
X747821Y78848D01*
X748066Y78815D01*
X748312Y78788D01*
X748558Y78767D01*
X748805Y78752D01*
X749053Y78743D01*
X749300Y78740D01*
M02*
