M48
;GenerationSoftware,Autodesk,EAGLE,9.7.0*%
;CreationDate,2021-05-16T17:55:42Z*%
FMAT,2
ICI,OFF
METRIC,TZ,000.000
T4C0.650
T3C0.800
T2C1.200
%
G90
M71
T2
X95250Y10160
X95250Y15240
X95250Y5080
T3
X86360Y6350
X74930Y13970
X72390Y13970
X69850Y13970
X67310Y13970
X67310Y6350
X69850Y6350
X72390Y6350
X74930Y6350
X86360Y13970
X83820Y13970
X81280Y13970
X78740Y13970
X78740Y6350
X81280Y6350
X83820Y6350
T4
X63119Y2540
X63500Y17653
X63500Y12573
X58039Y2540
X57150Y10160
X57150Y15240
X84746Y17856
X89826Y17856
X87286Y17856
X64580Y6350
X57340Y6350
X60325Y10350
X60325Y17590
X73850Y2540
X81090Y2540
X82740Y2540
X89980Y2540
X71628Y2578
X66548Y2578
M30