M48
;GenerationSoftware,Autodesk,EAGLE,9.7.0*%
;CreationDate,2021-05-13T19:34:43Z*%
FMAT,2
ICI,OFF
METRIC,TZ,000.000
T6C0.660
T5C0.800
T4C0.813
T3C0.900
T2C1.200
%
G90
M71
T2
X95250Y10160
X95250Y5080
X95250Y15240
T3
X55880Y8890
X55880Y16510
T4
X63119Y2578
X58039Y2578
X62230Y16383
X62230Y11303
X73660Y12700
X71120Y12700
X71120Y5080
X73660Y5080
X68580Y12700
X66040Y12700
X87286Y16586
X92366Y16586
X89826Y16586
X68580Y5080
X66040Y5080
X71628Y2578
X66548Y2578
T5
X86360Y12700
X83820Y12700
X81280Y12700
X78740Y12700
X78740Y5080
X81280Y5080
X83820Y5080
X86360Y5080
T6
X63310Y5080
X56070Y5080
X81090Y2540
X82740Y2540
X89980Y2540
X59055Y16447
X59055Y9207
X73850Y2540
M30