G04 EAGLE Gerber RS-274X export*
G75*
%MOMM*%
%FSLAX34Y34*%
%LPD*%
%INTop Copper*%
%IPPOS*%
%AMOC8*
5,1,8,0,0,1.08239X$1,22.5*%
G01*
%ADD10C,0.130000*%
%ADD11C,0.152400*%
%ADD12C,1.524000*%
%ADD13C,1.524000*%
%ADD14C,1.500000*%
%ADD15C,1.308000*%
%ADD16C,0.600000*%

G36*
X446098Y10164D02*
X446098Y10164D01*
X446117Y10162D01*
X446219Y10184D01*
X446321Y10200D01*
X446338Y10210D01*
X446358Y10214D01*
X446447Y10267D01*
X446538Y10316D01*
X446552Y10330D01*
X446569Y10340D01*
X446636Y10419D01*
X446708Y10494D01*
X446716Y10512D01*
X446729Y10527D01*
X446768Y10623D01*
X446811Y10717D01*
X446813Y10737D01*
X446821Y10755D01*
X446839Y10922D01*
X446839Y455678D01*
X446836Y455698D01*
X446838Y455717D01*
X446816Y455819D01*
X446800Y455921D01*
X446790Y455938D01*
X446786Y455958D01*
X446733Y456047D01*
X446684Y456138D01*
X446670Y456152D01*
X446660Y456169D01*
X446581Y456236D01*
X446506Y456308D01*
X446488Y456316D01*
X446473Y456329D01*
X446377Y456368D01*
X446283Y456411D01*
X446263Y456413D01*
X446245Y456421D01*
X446078Y456439D01*
X10922Y456439D01*
X10902Y456436D01*
X10883Y456438D01*
X10781Y456416D01*
X10679Y456400D01*
X10662Y456390D01*
X10642Y456386D01*
X10553Y456333D01*
X10462Y456284D01*
X10448Y456270D01*
X10431Y456260D01*
X10364Y456181D01*
X10292Y456106D01*
X10284Y456088D01*
X10271Y456073D01*
X10232Y455977D01*
X10189Y455883D01*
X10187Y455863D01*
X10179Y455845D01*
X10161Y455678D01*
X10161Y435022D01*
X10164Y435002D01*
X10162Y434983D01*
X10184Y434881D01*
X10200Y434779D01*
X10210Y434762D01*
X10214Y434742D01*
X10267Y434653D01*
X10316Y434562D01*
X10330Y434548D01*
X10340Y434531D01*
X10419Y434464D01*
X10494Y434392D01*
X10512Y434384D01*
X10527Y434371D01*
X10623Y434332D01*
X10717Y434289D01*
X10737Y434287D01*
X10755Y434279D01*
X10922Y434261D01*
X15716Y434261D01*
X21288Y431953D01*
X25553Y427688D01*
X27861Y422116D01*
X27861Y416084D01*
X25553Y410512D01*
X21288Y406247D01*
X15716Y403939D01*
X10922Y403939D01*
X10902Y403936D01*
X10883Y403938D01*
X10781Y403916D01*
X10679Y403900D01*
X10662Y403890D01*
X10642Y403886D01*
X10553Y403833D01*
X10462Y403784D01*
X10448Y403770D01*
X10431Y403760D01*
X10364Y403681D01*
X10292Y403606D01*
X10284Y403588D01*
X10271Y403573D01*
X10232Y403477D01*
X10189Y403383D01*
X10187Y403363D01*
X10179Y403345D01*
X10161Y403178D01*
X10161Y181022D01*
X10164Y181002D01*
X10162Y180983D01*
X10184Y180881D01*
X10200Y180779D01*
X10210Y180762D01*
X10214Y180742D01*
X10267Y180653D01*
X10316Y180562D01*
X10330Y180548D01*
X10340Y180531D01*
X10419Y180464D01*
X10494Y180392D01*
X10512Y180384D01*
X10527Y180371D01*
X10623Y180332D01*
X10717Y180289D01*
X10737Y180287D01*
X10755Y180279D01*
X10922Y180261D01*
X15716Y180261D01*
X21288Y177953D01*
X25553Y173688D01*
X27861Y168116D01*
X27861Y162084D01*
X25553Y156512D01*
X21288Y152247D01*
X15716Y149939D01*
X10922Y149939D01*
X10902Y149936D01*
X10883Y149938D01*
X10781Y149916D01*
X10679Y149900D01*
X10662Y149890D01*
X10642Y149886D01*
X10553Y149833D01*
X10462Y149784D01*
X10448Y149770D01*
X10431Y149760D01*
X10364Y149681D01*
X10292Y149606D01*
X10284Y149588D01*
X10271Y149573D01*
X10232Y149477D01*
X10189Y149383D01*
X10187Y149363D01*
X10179Y149345D01*
X10161Y149178D01*
X10161Y10922D01*
X10164Y10902D01*
X10162Y10883D01*
X10184Y10781D01*
X10200Y10679D01*
X10210Y10662D01*
X10214Y10642D01*
X10267Y10553D01*
X10316Y10462D01*
X10330Y10448D01*
X10340Y10431D01*
X10419Y10364D01*
X10494Y10292D01*
X10512Y10284D01*
X10527Y10271D01*
X10623Y10232D01*
X10717Y10189D01*
X10737Y10187D01*
X10755Y10179D01*
X10922Y10161D01*
X446078Y10161D01*
X446098Y10164D01*
G37*
%LPC*%
G36*
X378676Y31495D02*
X378676Y31495D01*
X374381Y33274D01*
X371094Y36561D01*
X369315Y40856D01*
X369315Y60744D01*
X371094Y65039D01*
X374220Y68165D01*
X374273Y68239D01*
X374333Y68308D01*
X374345Y68339D01*
X374364Y68365D01*
X374391Y68452D01*
X374425Y68537D01*
X374429Y68578D01*
X374436Y68600D01*
X374435Y68632D01*
X374443Y68703D01*
X374443Y146238D01*
X374436Y146283D01*
X374438Y146329D01*
X374416Y146404D01*
X374404Y146481D01*
X374382Y146521D01*
X374369Y146565D01*
X374325Y146629D01*
X374288Y146698D01*
X374255Y146730D01*
X374229Y146767D01*
X374167Y146814D01*
X374110Y146867D01*
X374068Y146887D01*
X374032Y146914D01*
X373958Y146938D01*
X373887Y146971D01*
X373841Y146976D01*
X373798Y146990D01*
X373720Y146990D01*
X373643Y146998D01*
X373598Y146988D01*
X373552Y146988D01*
X373420Y146950D01*
X373402Y146946D01*
X373398Y146943D01*
X373391Y146941D01*
X370624Y145795D01*
X365976Y145795D01*
X361681Y147574D01*
X358394Y150861D01*
X356615Y155156D01*
X356615Y175044D01*
X358394Y179339D01*
X361681Y182626D01*
X365976Y184405D01*
X370624Y184405D01*
X373391Y183259D01*
X373435Y183248D01*
X373477Y183229D01*
X373554Y183220D01*
X373630Y183203D01*
X373676Y183207D01*
X373721Y183202D01*
X373798Y183218D01*
X373875Y183226D01*
X373917Y183244D01*
X373962Y183254D01*
X374029Y183294D01*
X374100Y183326D01*
X374134Y183357D01*
X374173Y183380D01*
X374224Y183439D01*
X374281Y183492D01*
X374303Y183532D01*
X374333Y183567D01*
X374362Y183639D01*
X374399Y183708D01*
X374408Y183753D01*
X374425Y183795D01*
X374440Y183931D01*
X374443Y183950D01*
X374442Y183955D01*
X374443Y183962D01*
X374443Y243721D01*
X375519Y246318D01*
X377075Y247874D01*
X377086Y247890D01*
X377102Y247902D01*
X377158Y247990D01*
X377218Y248073D01*
X377224Y248092D01*
X377235Y248109D01*
X377260Y248210D01*
X377291Y248309D01*
X377290Y248328D01*
X377295Y248348D01*
X377287Y248451D01*
X377284Y248554D01*
X377277Y248573D01*
X377276Y248593D01*
X377235Y248688D01*
X377200Y248785D01*
X377187Y248801D01*
X377179Y248819D01*
X377103Y248915D01*
X377098Y248923D01*
X377093Y248927D01*
X377075Y248950D01*
X320313Y305712D01*
X320239Y305765D01*
X320169Y305825D01*
X320139Y305837D01*
X320113Y305856D01*
X320026Y305883D01*
X319941Y305917D01*
X319900Y305921D01*
X319878Y305928D01*
X319846Y305927D01*
X319774Y305935D01*
X315200Y305935D01*
X310949Y307696D01*
X308179Y310466D01*
X308105Y310519D01*
X308035Y310579D01*
X308005Y310591D01*
X307979Y310610D01*
X307892Y310637D01*
X307807Y310671D01*
X307766Y310675D01*
X307744Y310682D01*
X307712Y310681D01*
X307640Y310689D01*
X276729Y310689D01*
X276639Y310675D01*
X276548Y310667D01*
X276518Y310655D01*
X276487Y310650D01*
X276406Y310607D01*
X276322Y310571D01*
X276290Y310545D01*
X276269Y310534D01*
X276247Y310511D01*
X276191Y310466D01*
X273319Y307594D01*
X269024Y305815D01*
X264376Y305815D01*
X260081Y307594D01*
X256794Y310881D01*
X255015Y315176D01*
X255015Y319824D01*
X256794Y324119D01*
X260081Y327406D01*
X264376Y329185D01*
X269024Y329185D01*
X273319Y327406D01*
X275683Y325042D01*
X275757Y324989D01*
X275826Y324929D01*
X275856Y324917D01*
X275883Y324898D01*
X275970Y324871D01*
X276055Y324837D01*
X276095Y324833D01*
X276118Y324826D01*
X276150Y324827D01*
X276221Y324819D01*
X308148Y324819D01*
X308239Y324833D01*
X308329Y324841D01*
X308359Y324853D01*
X308391Y324858D01*
X308472Y324901D01*
X308556Y324937D01*
X308588Y324963D01*
X308609Y324974D01*
X308631Y324997D01*
X308687Y325042D01*
X310212Y326567D01*
X310265Y326641D01*
X310325Y326711D01*
X310337Y326741D01*
X310356Y326767D01*
X310383Y326854D01*
X310417Y326939D01*
X310421Y326980D01*
X310428Y327002D01*
X310427Y327034D01*
X310435Y327106D01*
X310435Y401705D01*
X310421Y401795D01*
X310413Y401886D01*
X310401Y401915D01*
X310396Y401947D01*
X310353Y402028D01*
X310317Y402112D01*
X310291Y402144D01*
X310280Y402165D01*
X310257Y402187D01*
X310212Y402243D01*
X307594Y404861D01*
X305815Y409156D01*
X305815Y429044D01*
X307594Y433339D01*
X310881Y436626D01*
X315176Y438405D01*
X319824Y438405D01*
X324119Y436626D01*
X327406Y433339D01*
X329185Y429044D01*
X329185Y409156D01*
X327406Y404861D01*
X324788Y402243D01*
X324735Y402169D01*
X324675Y402100D01*
X324663Y402069D01*
X324644Y402043D01*
X324617Y401956D01*
X324583Y401871D01*
X324579Y401830D01*
X324572Y401808D01*
X324573Y401776D01*
X324565Y401705D01*
X324565Y327106D01*
X324579Y327015D01*
X324587Y326925D01*
X324599Y326895D01*
X324604Y326863D01*
X324647Y326782D01*
X324683Y326698D01*
X324709Y326666D01*
X324720Y326645D01*
X324743Y326623D01*
X324788Y326567D01*
X327304Y324051D01*
X329065Y319800D01*
X329065Y317258D01*
X329079Y317168D01*
X329087Y317077D01*
X329099Y317047D01*
X329104Y317015D01*
X329147Y316934D01*
X329183Y316850D01*
X329209Y316818D01*
X329220Y316797D01*
X329243Y316775D01*
X329288Y316719D01*
X387066Y258941D01*
X387082Y258930D01*
X387094Y258914D01*
X387182Y258858D01*
X387265Y258798D01*
X387284Y258792D01*
X387301Y258781D01*
X387402Y258756D01*
X387501Y258725D01*
X387520Y258726D01*
X387540Y258721D01*
X387643Y258729D01*
X387746Y258732D01*
X387765Y258739D01*
X387785Y258740D01*
X387880Y258781D01*
X387977Y258816D01*
X387993Y258829D01*
X388011Y258837D01*
X388142Y258941D01*
X388634Y259433D01*
X388702Y259527D01*
X388772Y259622D01*
X388774Y259628D01*
X388778Y259633D01*
X388812Y259744D01*
X388848Y259856D01*
X388848Y259862D01*
X388850Y259868D01*
X388847Y259985D01*
X388846Y260102D01*
X388844Y260109D01*
X388844Y260114D01*
X388837Y260131D01*
X388799Y260263D01*
X387095Y264376D01*
X387095Y269024D01*
X388874Y273319D01*
X392161Y276606D01*
X396456Y278385D01*
X416344Y278385D01*
X420639Y276606D01*
X423926Y273319D01*
X425705Y269024D01*
X425705Y264376D01*
X423926Y260081D01*
X420639Y256794D01*
X416344Y255015D01*
X404514Y255015D01*
X404424Y255001D01*
X404333Y254993D01*
X404303Y254981D01*
X404271Y254976D01*
X404190Y254933D01*
X404106Y254897D01*
X404074Y254871D01*
X404053Y254860D01*
X404031Y254837D01*
X403975Y254792D01*
X393700Y244517D01*
X391499Y242316D01*
X388796Y239613D01*
X388743Y239539D01*
X388683Y239469D01*
X388671Y239439D01*
X388652Y239413D01*
X388625Y239326D01*
X388591Y239241D01*
X388587Y239200D01*
X388580Y239178D01*
X388581Y239146D01*
X388573Y239074D01*
X388573Y67687D01*
X388587Y67597D01*
X388595Y67506D01*
X388607Y67477D01*
X388612Y67445D01*
X388655Y67364D01*
X388691Y67280D01*
X388717Y67248D01*
X388728Y67227D01*
X388751Y67205D01*
X388796Y67149D01*
X390906Y65039D01*
X392685Y60744D01*
X392685Y40856D01*
X390906Y36561D01*
X387619Y33274D01*
X383324Y31495D01*
X378676Y31495D01*
G37*
%LPD*%
%LPC*%
G36*
X137591Y300355D02*
X137591Y300355D01*
X133693Y301970D01*
X130710Y304953D01*
X130048Y306549D01*
X129985Y306652D01*
X129923Y306754D01*
X129921Y306756D01*
X129919Y306759D01*
X129825Y306836D01*
X129735Y306912D01*
X129732Y306913D01*
X129729Y306915D01*
X129617Y306959D01*
X129506Y307002D01*
X129503Y307002D01*
X129500Y307004D01*
X129380Y307009D01*
X129260Y307015D01*
X129257Y307014D01*
X129254Y307014D01*
X129140Y306981D01*
X129023Y306948D01*
X129021Y306946D01*
X129018Y306945D01*
X128920Y306877D01*
X128820Y306809D01*
X128818Y306807D01*
X128816Y306805D01*
X128809Y306796D01*
X128712Y306681D01*
X127703Y305171D01*
X126439Y303907D01*
X124951Y302913D01*
X123299Y302228D01*
X122173Y302004D01*
X122173Y316738D01*
X122170Y316758D01*
X122172Y316777D01*
X122150Y316879D01*
X122133Y316981D01*
X122124Y316998D01*
X122120Y317018D01*
X122067Y317107D01*
X122018Y317198D01*
X122004Y317212D01*
X121994Y317229D01*
X121915Y317296D01*
X121840Y317367D01*
X121822Y317376D01*
X121807Y317389D01*
X121711Y317427D01*
X121617Y317471D01*
X121597Y317473D01*
X121579Y317481D01*
X121412Y317499D01*
X120649Y317499D01*
X120649Y317501D01*
X121412Y317501D01*
X121432Y317504D01*
X121451Y317502D01*
X121553Y317524D01*
X121655Y317541D01*
X121672Y317550D01*
X121692Y317554D01*
X121781Y317607D01*
X121872Y317656D01*
X121886Y317670D01*
X121903Y317680D01*
X121970Y317759D01*
X122041Y317834D01*
X122050Y317852D01*
X122063Y317867D01*
X122102Y317963D01*
X122145Y318057D01*
X122147Y318077D01*
X122155Y318095D01*
X122173Y318262D01*
X122173Y332996D01*
X123299Y332772D01*
X124951Y332087D01*
X126439Y331093D01*
X127703Y329829D01*
X128712Y328319D01*
X128795Y328230D01*
X128875Y328143D01*
X128878Y328141D01*
X128880Y328139D01*
X128986Y328082D01*
X129091Y328024D01*
X129094Y328024D01*
X129097Y328022D01*
X129213Y328002D01*
X129333Y327981D01*
X129336Y327981D01*
X129339Y327981D01*
X129456Y327999D01*
X129576Y328016D01*
X129579Y328018D01*
X129582Y328018D01*
X129688Y328073D01*
X129795Y328128D01*
X129798Y328130D01*
X129800Y328132D01*
X129882Y328217D01*
X129968Y328304D01*
X129969Y328307D01*
X129971Y328309D01*
X129976Y328318D01*
X130048Y328451D01*
X130710Y330047D01*
X133693Y333030D01*
X137591Y334645D01*
X141809Y334645D01*
X145707Y333030D01*
X148687Y330051D01*
X148703Y330039D01*
X148715Y330023D01*
X148803Y329967D01*
X148886Y329907D01*
X148905Y329901D01*
X148922Y329890D01*
X149023Y329865D01*
X149122Y329835D01*
X149141Y329835D01*
X149161Y329830D01*
X149264Y329838D01*
X149367Y329841D01*
X149386Y329848D01*
X149406Y329850D01*
X149501Y329890D01*
X149598Y329926D01*
X149614Y329938D01*
X149632Y329946D01*
X149763Y330051D01*
X152743Y333030D01*
X156641Y334645D01*
X160859Y334645D01*
X164757Y333030D01*
X167740Y330047D01*
X169355Y326149D01*
X169355Y308851D01*
X167740Y304953D01*
X164757Y301970D01*
X160859Y300355D01*
X156641Y300355D01*
X152743Y301970D01*
X149763Y304949D01*
X149747Y304961D01*
X149735Y304977D01*
X149647Y305033D01*
X149564Y305093D01*
X149545Y305099D01*
X149528Y305110D01*
X149427Y305135D01*
X149328Y305165D01*
X149309Y305165D01*
X149289Y305170D01*
X149186Y305162D01*
X149083Y305159D01*
X149064Y305152D01*
X149044Y305150D01*
X148949Y305110D01*
X148852Y305074D01*
X148836Y305062D01*
X148818Y305054D01*
X148687Y304949D01*
X145707Y301970D01*
X141809Y300355D01*
X137591Y300355D01*
G37*
%LPD*%
%LPC*%
G36*
X162776Y399795D02*
X162776Y399795D01*
X158481Y401574D01*
X155194Y404861D01*
X153415Y409156D01*
X153415Y429044D01*
X155194Y433339D01*
X158481Y436626D01*
X162776Y438405D01*
X167424Y438405D01*
X171719Y436626D01*
X175006Y433339D01*
X176785Y429044D01*
X176785Y409156D01*
X175006Y404861D01*
X171719Y401574D01*
X167424Y399795D01*
X162776Y399795D01*
G37*
%LPD*%
%LPC*%
G36*
X264376Y399795D02*
X264376Y399795D01*
X260081Y401574D01*
X256794Y404861D01*
X255015Y409156D01*
X255015Y429044D01*
X256794Y433339D01*
X260081Y436626D01*
X264376Y438405D01*
X269024Y438405D01*
X273319Y436626D01*
X276606Y433339D01*
X278385Y429044D01*
X278385Y409156D01*
X276606Y404861D01*
X273319Y401574D01*
X269024Y399795D01*
X264376Y399795D01*
G37*
%LPD*%
%LPC*%
G36*
X213576Y399795D02*
X213576Y399795D01*
X209281Y401574D01*
X205994Y404861D01*
X204215Y409156D01*
X204215Y429044D01*
X205994Y433339D01*
X209281Y436626D01*
X213576Y438405D01*
X218224Y438405D01*
X222519Y436626D01*
X225806Y433339D01*
X227585Y429044D01*
X227585Y409156D01*
X225806Y404861D01*
X222519Y401574D01*
X218224Y399795D01*
X213576Y399795D01*
G37*
%LPD*%
%LPC*%
G36*
X365976Y399795D02*
X365976Y399795D01*
X361681Y401574D01*
X358394Y404861D01*
X356615Y409156D01*
X356615Y429044D01*
X358394Y433339D01*
X361681Y436626D01*
X365976Y438405D01*
X370624Y438405D01*
X374919Y436626D01*
X378206Y433339D01*
X379985Y429044D01*
X379985Y409156D01*
X378206Y404861D01*
X374919Y401574D01*
X370624Y399795D01*
X365976Y399795D01*
G37*
%LPD*%
%LPC*%
G36*
X340576Y399795D02*
X340576Y399795D01*
X336281Y401574D01*
X332994Y404861D01*
X331215Y409156D01*
X331215Y429044D01*
X332994Y433339D01*
X336281Y436626D01*
X340576Y438405D01*
X345224Y438405D01*
X349519Y436626D01*
X352806Y433339D01*
X354585Y429044D01*
X354585Y409156D01*
X352806Y404861D01*
X349519Y401574D01*
X345224Y399795D01*
X340576Y399795D01*
G37*
%LPD*%
%LPC*%
G36*
X188176Y399795D02*
X188176Y399795D01*
X183881Y401574D01*
X180594Y404861D01*
X178815Y409156D01*
X178815Y429044D01*
X180594Y433339D01*
X183881Y436626D01*
X188176Y438405D01*
X192824Y438405D01*
X197119Y436626D01*
X200406Y433339D01*
X202185Y429044D01*
X202185Y409156D01*
X200406Y404861D01*
X197119Y401574D01*
X192824Y399795D01*
X188176Y399795D01*
G37*
%LPD*%
%LPC*%
G36*
X137376Y399795D02*
X137376Y399795D01*
X133081Y401574D01*
X129794Y404861D01*
X128015Y409156D01*
X128015Y429044D01*
X129794Y433339D01*
X133081Y436626D01*
X137376Y438405D01*
X142024Y438405D01*
X146319Y436626D01*
X149606Y433339D01*
X151385Y429044D01*
X151385Y409156D01*
X149606Y404861D01*
X146319Y401574D01*
X142024Y399795D01*
X137376Y399795D01*
G37*
%LPD*%
%LPC*%
G36*
X111976Y399795D02*
X111976Y399795D01*
X107681Y401574D01*
X104394Y404861D01*
X102615Y409156D01*
X102615Y429044D01*
X104394Y433339D01*
X107681Y436626D01*
X111976Y438405D01*
X116624Y438405D01*
X120919Y436626D01*
X124206Y433339D01*
X125985Y429044D01*
X125985Y409156D01*
X124206Y404861D01*
X120919Y401574D01*
X116624Y399795D01*
X111976Y399795D01*
G37*
%LPD*%
%LPC*%
G36*
X86576Y399795D02*
X86576Y399795D01*
X82281Y401574D01*
X78994Y404861D01*
X77215Y409156D01*
X77215Y429044D01*
X78994Y433339D01*
X82281Y436626D01*
X86576Y438405D01*
X91224Y438405D01*
X95519Y436626D01*
X98806Y433339D01*
X100585Y429044D01*
X100585Y409156D01*
X98806Y404861D01*
X95519Y401574D01*
X91224Y399795D01*
X86576Y399795D01*
G37*
%LPD*%
%LPC*%
G36*
X289776Y399795D02*
X289776Y399795D01*
X285481Y401574D01*
X282194Y404861D01*
X280415Y409156D01*
X280415Y429044D01*
X282194Y433339D01*
X285481Y436626D01*
X289776Y438405D01*
X294424Y438405D01*
X298719Y436626D01*
X302006Y433339D01*
X303785Y429044D01*
X303785Y409156D01*
X302006Y404861D01*
X298719Y401574D01*
X294424Y399795D01*
X289776Y399795D01*
G37*
%LPD*%
%LPC*%
G36*
X61176Y399795D02*
X61176Y399795D01*
X56881Y401574D01*
X53594Y404861D01*
X51815Y409156D01*
X51815Y429044D01*
X53594Y433339D01*
X56881Y436626D01*
X61176Y438405D01*
X65824Y438405D01*
X70119Y436626D01*
X73406Y433339D01*
X75185Y429044D01*
X75185Y409156D01*
X73406Y404861D01*
X70119Y401574D01*
X65824Y399795D01*
X61176Y399795D01*
G37*
%LPD*%
%LPC*%
G36*
X238976Y399795D02*
X238976Y399795D01*
X234681Y401574D01*
X231394Y404861D01*
X229615Y409156D01*
X229615Y429044D01*
X231394Y433339D01*
X234681Y436626D01*
X238976Y438405D01*
X243624Y438405D01*
X247919Y436626D01*
X251206Y433339D01*
X252985Y429044D01*
X252985Y409156D01*
X251206Y404861D01*
X247919Y401574D01*
X243624Y399795D01*
X238976Y399795D01*
G37*
%LPD*%
%LPC*%
G36*
X396456Y331215D02*
X396456Y331215D01*
X392161Y332994D01*
X388874Y336281D01*
X387095Y340576D01*
X387095Y345224D01*
X388874Y349519D01*
X392161Y352806D01*
X396456Y354585D01*
X416344Y354585D01*
X420639Y352806D01*
X423926Y349519D01*
X425705Y345224D01*
X425705Y340576D01*
X423926Y336281D01*
X420639Y332994D01*
X416344Y331215D01*
X396456Y331215D01*
G37*
%LPD*%
%LPC*%
G36*
X315176Y145795D02*
X315176Y145795D01*
X310881Y147574D01*
X307594Y150861D01*
X305815Y155156D01*
X305815Y175044D01*
X307594Y179339D01*
X310881Y182626D01*
X315176Y184405D01*
X319824Y184405D01*
X324119Y182626D01*
X327406Y179339D01*
X329185Y175044D01*
X329185Y155156D01*
X327406Y150861D01*
X324119Y147574D01*
X319824Y145795D01*
X315176Y145795D01*
G37*
%LPD*%
%LPC*%
G36*
X289776Y145795D02*
X289776Y145795D01*
X285481Y147574D01*
X282194Y150861D01*
X280415Y155156D01*
X280415Y175044D01*
X282194Y179339D01*
X285481Y182626D01*
X289776Y184405D01*
X294424Y184405D01*
X298719Y182626D01*
X302006Y179339D01*
X303785Y175044D01*
X303785Y155156D01*
X302006Y150861D01*
X298719Y147574D01*
X294424Y145795D01*
X289776Y145795D01*
G37*
%LPD*%
%LPC*%
G36*
X396456Y305815D02*
X396456Y305815D01*
X392161Y307594D01*
X388874Y310881D01*
X387095Y315176D01*
X387095Y319824D01*
X388874Y324119D01*
X392161Y327406D01*
X396456Y329185D01*
X416344Y329185D01*
X420639Y327406D01*
X423926Y324119D01*
X425705Y319824D01*
X425705Y315176D01*
X423926Y310881D01*
X420639Y307594D01*
X416344Y305815D01*
X396456Y305815D01*
G37*
%LPD*%
%LPC*%
G36*
X264376Y145795D02*
X264376Y145795D01*
X260081Y147574D01*
X256794Y150861D01*
X255015Y155156D01*
X255015Y175044D01*
X256794Y179339D01*
X260081Y182626D01*
X264376Y184405D01*
X269024Y184405D01*
X273319Y182626D01*
X276606Y179339D01*
X278385Y175044D01*
X278385Y155156D01*
X276606Y150861D01*
X273319Y147574D01*
X269024Y145795D01*
X264376Y145795D01*
G37*
%LPD*%
%LPC*%
G36*
X213576Y145795D02*
X213576Y145795D01*
X209281Y147574D01*
X205994Y150861D01*
X204215Y155156D01*
X204215Y175044D01*
X205994Y179339D01*
X209281Y182626D01*
X213576Y184405D01*
X218224Y184405D01*
X222519Y182626D01*
X225806Y179339D01*
X227585Y175044D01*
X227585Y155156D01*
X225806Y150861D01*
X222519Y147574D01*
X218224Y145795D01*
X213576Y145795D01*
G37*
%LPD*%
%LPC*%
G36*
X396456Y280415D02*
X396456Y280415D01*
X392161Y282194D01*
X388874Y285481D01*
X387095Y289776D01*
X387095Y294424D01*
X388874Y298719D01*
X392161Y302006D01*
X396456Y303785D01*
X416344Y303785D01*
X420639Y302006D01*
X423926Y298719D01*
X425705Y294424D01*
X425705Y289776D01*
X423926Y285481D01*
X420639Y282194D01*
X416344Y280415D01*
X396456Y280415D01*
G37*
%LPD*%
%LPC*%
G36*
X111976Y145795D02*
X111976Y145795D01*
X107681Y147574D01*
X104394Y150861D01*
X102615Y155156D01*
X102615Y175044D01*
X104394Y179339D01*
X107681Y182626D01*
X111976Y184405D01*
X116624Y184405D01*
X120919Y182626D01*
X124206Y179339D01*
X125985Y175044D01*
X125985Y155156D01*
X124206Y150861D01*
X120919Y147574D01*
X116624Y145795D01*
X111976Y145795D01*
G37*
%LPD*%
%LPC*%
G36*
X86576Y145795D02*
X86576Y145795D01*
X82281Y147574D01*
X78994Y150861D01*
X77215Y155156D01*
X77215Y175044D01*
X78994Y179339D01*
X82281Y182626D01*
X86576Y184405D01*
X91224Y184405D01*
X95519Y182626D01*
X98806Y179339D01*
X100585Y175044D01*
X100585Y155156D01*
X98806Y150861D01*
X95519Y147574D01*
X91224Y145795D01*
X86576Y145795D01*
G37*
%LPD*%
%LPC*%
G36*
X61176Y145795D02*
X61176Y145795D01*
X56881Y147574D01*
X53594Y150861D01*
X51815Y155156D01*
X51815Y175044D01*
X53594Y179339D01*
X56881Y182626D01*
X61176Y184405D01*
X65824Y184405D01*
X70119Y182626D01*
X73406Y179339D01*
X75185Y175044D01*
X75185Y155156D01*
X73406Y150861D01*
X70119Y147574D01*
X65824Y145795D01*
X61176Y145795D01*
G37*
%LPD*%
%LPC*%
G36*
X353276Y31495D02*
X353276Y31495D01*
X348981Y33274D01*
X345694Y36561D01*
X343915Y40856D01*
X343915Y60744D01*
X345694Y65039D01*
X348981Y68326D01*
X353276Y70105D01*
X357924Y70105D01*
X362219Y68326D01*
X365506Y65039D01*
X367285Y60744D01*
X367285Y40856D01*
X365506Y36561D01*
X362219Y33274D01*
X357924Y31495D01*
X353276Y31495D01*
G37*
%LPD*%
%LPC*%
G36*
X327876Y31495D02*
X327876Y31495D01*
X323581Y33274D01*
X320294Y36561D01*
X318515Y40856D01*
X318515Y60744D01*
X320294Y65039D01*
X323581Y68326D01*
X327876Y70105D01*
X332524Y70105D01*
X336819Y68326D01*
X340106Y65039D01*
X341885Y60744D01*
X341885Y40856D01*
X340106Y36561D01*
X336819Y33274D01*
X332524Y31495D01*
X327876Y31495D01*
G37*
%LPD*%
%LPC*%
G36*
X226276Y31495D02*
X226276Y31495D01*
X221981Y33274D01*
X218694Y36561D01*
X216915Y40856D01*
X216915Y60744D01*
X218694Y65039D01*
X221981Y68326D01*
X226276Y70105D01*
X230924Y70105D01*
X235219Y68326D01*
X238506Y65039D01*
X240285Y60744D01*
X240285Y40856D01*
X238506Y36561D01*
X235219Y33274D01*
X230924Y31495D01*
X226276Y31495D01*
G37*
%LPD*%
%LPC*%
G36*
X73876Y31495D02*
X73876Y31495D01*
X69581Y33274D01*
X66294Y36561D01*
X64515Y40856D01*
X64515Y60744D01*
X66294Y65039D01*
X69581Y68326D01*
X73876Y70105D01*
X78524Y70105D01*
X82819Y68326D01*
X86106Y65039D01*
X87885Y60744D01*
X87885Y40856D01*
X86106Y36561D01*
X82819Y33274D01*
X78524Y31495D01*
X73876Y31495D01*
G37*
%LPD*%
%LPC*%
G36*
X238976Y145795D02*
X238976Y145795D01*
X234681Y147574D01*
X231394Y150861D01*
X229615Y155156D01*
X229615Y175044D01*
X231394Y179339D01*
X234681Y182626D01*
X238976Y184405D01*
X243624Y184405D01*
X247919Y182626D01*
X251206Y179339D01*
X252985Y175044D01*
X252985Y155156D01*
X251206Y150861D01*
X247919Y147574D01*
X243624Y145795D01*
X238976Y145795D01*
G37*
%LPD*%
%LPC*%
G36*
X137376Y145795D02*
X137376Y145795D01*
X133081Y147574D01*
X129794Y150861D01*
X128015Y155156D01*
X128015Y175044D01*
X129794Y179339D01*
X133081Y182626D01*
X137376Y184405D01*
X142024Y184405D01*
X146319Y182626D01*
X149606Y179339D01*
X151385Y175044D01*
X151385Y155156D01*
X149606Y150861D01*
X146319Y147574D01*
X142024Y145795D01*
X137376Y145795D01*
G37*
%LPD*%
%LPC*%
G36*
X188176Y145795D02*
X188176Y145795D01*
X183881Y147574D01*
X180594Y150861D01*
X178815Y155156D01*
X178815Y175044D01*
X180594Y179339D01*
X183881Y182626D01*
X188176Y184405D01*
X192824Y184405D01*
X197119Y182626D01*
X200406Y179339D01*
X202185Y175044D01*
X202185Y155156D01*
X200406Y150861D01*
X197119Y147574D01*
X192824Y145795D01*
X188176Y145795D01*
G37*
%LPD*%
%LPC*%
G36*
X162776Y145795D02*
X162776Y145795D01*
X158481Y147574D01*
X155194Y150861D01*
X153415Y155156D01*
X153415Y175044D01*
X155194Y179339D01*
X158481Y182626D01*
X162776Y184405D01*
X167424Y184405D01*
X171719Y182626D01*
X175006Y179339D01*
X176785Y175044D01*
X176785Y155156D01*
X175006Y150861D01*
X171719Y147574D01*
X167424Y145795D01*
X162776Y145795D01*
G37*
%LPD*%
%LPC*%
G36*
X238976Y305815D02*
X238976Y305815D01*
X234681Y307594D01*
X231394Y310881D01*
X229615Y315176D01*
X229615Y319824D01*
X231394Y324119D01*
X234681Y327406D01*
X238976Y329185D01*
X243624Y329185D01*
X247919Y327406D01*
X251206Y324119D01*
X252985Y319824D01*
X252985Y315176D01*
X251206Y310881D01*
X247919Y307594D01*
X243624Y305815D01*
X238976Y305815D01*
G37*
%LPD*%
%LPC*%
G36*
X213576Y305815D02*
X213576Y305815D01*
X209281Y307594D01*
X205994Y310881D01*
X204215Y315176D01*
X204215Y319824D01*
X205994Y324119D01*
X209281Y327406D01*
X213576Y329185D01*
X218224Y329185D01*
X222519Y327406D01*
X225806Y324119D01*
X227585Y319824D01*
X227585Y315176D01*
X225806Y310881D01*
X222519Y307594D01*
X218224Y305815D01*
X213576Y305815D01*
G37*
%LPD*%
%LPC*%
G36*
X315200Y204335D02*
X315200Y204335D01*
X310949Y206096D01*
X307696Y209349D01*
X305935Y213600D01*
X305935Y218200D01*
X307696Y222451D01*
X310949Y225704D01*
X315200Y227465D01*
X319800Y227465D01*
X324051Y225704D01*
X327304Y222451D01*
X329065Y218200D01*
X329065Y213600D01*
X327304Y209349D01*
X324051Y206096D01*
X319800Y204335D01*
X315200Y204335D01*
G37*
%LPD*%
%LPC*%
G36*
X188200Y242435D02*
X188200Y242435D01*
X183949Y244196D01*
X180696Y247449D01*
X178935Y251700D01*
X178935Y256300D01*
X180696Y260551D01*
X183949Y263804D01*
X188200Y265565D01*
X192800Y265565D01*
X197051Y263804D01*
X200304Y260551D01*
X202065Y256300D01*
X202065Y251700D01*
X200304Y247449D01*
X197051Y244196D01*
X192800Y242435D01*
X188200Y242435D01*
G37*
%LPD*%
%LPC*%
G36*
X344423Y166623D02*
X344423Y166623D01*
X344423Y182766D01*
X345279Y182631D01*
X346800Y182136D01*
X348225Y181410D01*
X349519Y180470D01*
X350650Y179339D01*
X351590Y178045D01*
X352316Y176620D01*
X352811Y175099D01*
X353061Y173520D01*
X353061Y166623D01*
X344423Y166623D01*
G37*
%LPD*%
%LPC*%
G36*
X103123Y52323D02*
X103123Y52323D01*
X103123Y68466D01*
X103979Y68331D01*
X105500Y67836D01*
X106925Y67110D01*
X108219Y66170D01*
X109350Y65039D01*
X110290Y63745D01*
X111016Y62320D01*
X111511Y60799D01*
X111761Y59220D01*
X111761Y52323D01*
X103123Y52323D01*
G37*
%LPD*%
%LPC*%
G36*
X204723Y52323D02*
X204723Y52323D01*
X204723Y68466D01*
X205579Y68331D01*
X207100Y67836D01*
X208525Y67110D01*
X209819Y66170D01*
X210950Y65039D01*
X211890Y63745D01*
X212616Y62320D01*
X213111Y60799D01*
X213361Y59220D01*
X213361Y52323D01*
X204723Y52323D01*
G37*
%LPD*%
%LPC*%
G36*
X344423Y163577D02*
X344423Y163577D01*
X353061Y163577D01*
X353061Y156680D01*
X352811Y155101D01*
X352316Y153580D01*
X351590Y152155D01*
X350650Y150861D01*
X349519Y149730D01*
X348225Y148790D01*
X346800Y148064D01*
X345279Y147569D01*
X344423Y147434D01*
X344423Y163577D01*
G37*
%LPD*%
%LPC*%
G36*
X204723Y49277D02*
X204723Y49277D01*
X213361Y49277D01*
X213361Y42380D01*
X213111Y40801D01*
X212616Y39280D01*
X211890Y37855D01*
X210950Y36561D01*
X209819Y35430D01*
X208525Y34490D01*
X207100Y33764D01*
X205579Y33269D01*
X204723Y33134D01*
X204723Y49277D01*
G37*
%LPD*%
%LPC*%
G36*
X103123Y49277D02*
X103123Y49277D01*
X111761Y49277D01*
X111761Y42380D01*
X111511Y40801D01*
X111016Y39280D01*
X110290Y37855D01*
X109350Y36561D01*
X108219Y35430D01*
X106925Y34490D01*
X105500Y33764D01*
X103979Y33269D01*
X103123Y33134D01*
X103123Y49277D01*
G37*
%LPD*%
%LPC*%
G36*
X91439Y52323D02*
X91439Y52323D01*
X91439Y59220D01*
X91689Y60799D01*
X92184Y62320D01*
X92910Y63745D01*
X93850Y65039D01*
X94981Y66170D01*
X96275Y67110D01*
X97700Y67836D01*
X99221Y68331D01*
X100077Y68466D01*
X100077Y52323D01*
X91439Y52323D01*
G37*
%LPD*%
%LPC*%
G36*
X332739Y166623D02*
X332739Y166623D01*
X332739Y173520D01*
X332989Y175099D01*
X333484Y176620D01*
X334210Y178045D01*
X335150Y179339D01*
X336281Y180470D01*
X337575Y181410D01*
X339000Y182136D01*
X340521Y182631D01*
X341377Y182766D01*
X341377Y166623D01*
X332739Y166623D01*
G37*
%LPD*%
%LPC*%
G36*
X193039Y52323D02*
X193039Y52323D01*
X193039Y59220D01*
X193289Y60799D01*
X193784Y62320D01*
X194510Y63745D01*
X195450Y65039D01*
X196581Y66170D01*
X197875Y67110D01*
X199300Y67836D01*
X200821Y68331D01*
X201677Y68466D01*
X201677Y52323D01*
X193039Y52323D01*
G37*
%LPD*%
%LPC*%
G36*
X340521Y147569D02*
X340521Y147569D01*
X339000Y148064D01*
X337575Y148790D01*
X336281Y149730D01*
X335150Y150861D01*
X334210Y152155D01*
X333484Y153580D01*
X332989Y155101D01*
X332739Y156680D01*
X332739Y163577D01*
X341377Y163577D01*
X341377Y147434D01*
X340521Y147569D01*
G37*
%LPD*%
%LPC*%
G36*
X200821Y33269D02*
X200821Y33269D01*
X199300Y33764D01*
X197875Y34490D01*
X196581Y35430D01*
X195450Y36561D01*
X194510Y37855D01*
X193784Y39280D01*
X193289Y40801D01*
X193039Y42380D01*
X193039Y49277D01*
X201677Y49277D01*
X201677Y33134D01*
X200821Y33269D01*
G37*
%LPD*%
%LPC*%
G36*
X99221Y33269D02*
X99221Y33269D01*
X97700Y33764D01*
X96275Y34490D01*
X94981Y35430D01*
X93850Y36561D01*
X92910Y37855D01*
X92184Y39280D01*
X91689Y40801D01*
X91439Y42380D01*
X91439Y49277D01*
X100077Y49277D01*
X100077Y33134D01*
X99221Y33269D01*
G37*
%LPD*%
%LPC*%
G36*
X111569Y319023D02*
X111569Y319023D01*
X111569Y324934D01*
X111918Y326689D01*
X112603Y328341D01*
X113597Y329829D01*
X114861Y331093D01*
X116349Y332087D01*
X118001Y332772D01*
X119127Y332996D01*
X119127Y319023D01*
X111569Y319023D01*
G37*
%LPD*%
%LPC*%
G36*
X118001Y302228D02*
X118001Y302228D01*
X116349Y302913D01*
X114861Y303907D01*
X113597Y305171D01*
X112603Y306659D01*
X111918Y308311D01*
X111569Y310066D01*
X111569Y315977D01*
X119127Y315977D01*
X119127Y302004D01*
X118001Y302228D01*
G37*
%LPD*%
%LPC*%
G36*
X90423Y255523D02*
X90423Y255523D01*
X90423Y263925D01*
X91251Y263794D01*
X92754Y263305D01*
X94163Y262588D01*
X95441Y261659D01*
X96559Y260541D01*
X97488Y259263D01*
X98205Y257854D01*
X98694Y256351D01*
X98825Y255523D01*
X90423Y255523D01*
G37*
%LPD*%
%LPC*%
G36*
X78975Y255523D02*
X78975Y255523D01*
X79106Y256351D01*
X79595Y257854D01*
X80312Y259263D01*
X81241Y260541D01*
X82359Y261659D01*
X83637Y262588D01*
X85046Y263305D01*
X86549Y263794D01*
X87377Y263925D01*
X87377Y255523D01*
X78975Y255523D01*
G37*
%LPD*%
%LPC*%
G36*
X90423Y252477D02*
X90423Y252477D01*
X98825Y252477D01*
X98694Y251649D01*
X98205Y250146D01*
X97488Y248737D01*
X96559Y247459D01*
X95441Y246341D01*
X94163Y245412D01*
X92754Y244695D01*
X91251Y244206D01*
X90423Y244075D01*
X90423Y252477D01*
G37*
%LPD*%
%LPC*%
G36*
X86549Y244206D02*
X86549Y244206D01*
X85046Y244695D01*
X83637Y245412D01*
X82359Y246341D01*
X81241Y247459D01*
X80312Y248737D01*
X79595Y250146D01*
X79106Y251649D01*
X78975Y252477D01*
X87377Y252477D01*
X87377Y244075D01*
X86549Y244206D01*
G37*
%LPD*%
%LPC*%
G36*
X88899Y253999D02*
X88899Y253999D01*
X88899Y254001D01*
X88901Y254001D01*
X88901Y253999D01*
X88899Y253999D01*
G37*
%LPD*%
%LPC*%
G36*
X342899Y165099D02*
X342899Y165099D01*
X342899Y165101D01*
X342901Y165101D01*
X342901Y165099D01*
X342899Y165099D01*
G37*
%LPD*%
%LPC*%
G36*
X203199Y50799D02*
X203199Y50799D01*
X203199Y50801D01*
X203201Y50801D01*
X203201Y50799D01*
X203199Y50799D01*
G37*
%LPD*%
%LPC*%
G36*
X101599Y50799D02*
X101599Y50799D01*
X101599Y50801D01*
X101601Y50801D01*
X101601Y50799D01*
X101599Y50799D01*
G37*
%LPD*%
D10*
X0Y-25400D02*
X0Y-70300D01*
X457200Y-70300D02*
X457200Y-25400D01*
X456550Y-50800D02*
X650Y-50800D01*
X26000Y-47608D01*
X26000Y-53992D01*
X650Y-50800D01*
X26000Y-49500D01*
X26000Y-52100D02*
X650Y-50800D01*
X26000Y-48200D01*
X26000Y-53400D02*
X650Y-50800D01*
X431200Y-47608D02*
X456550Y-50800D01*
X431200Y-47608D02*
X431200Y-53992D01*
X456550Y-50800D01*
X431200Y-49500D01*
X431200Y-52100D02*
X456550Y-50800D01*
X431200Y-48200D01*
X431200Y-53400D02*
X456550Y-50800D01*
D11*
X209108Y-28037D02*
X204593Y-31649D01*
X209108Y-28037D02*
X209108Y-44293D01*
X204593Y-44293D02*
X213624Y-44293D01*
X219599Y-44293D02*
X219599Y-43390D01*
X220502Y-43390D01*
X220502Y-44293D01*
X219599Y-44293D01*
X226476Y-39777D02*
X226478Y-39644D01*
X226484Y-39512D01*
X226494Y-39380D01*
X226507Y-39248D01*
X226525Y-39116D01*
X226546Y-38986D01*
X226571Y-38855D01*
X226600Y-38726D01*
X226633Y-38598D01*
X226669Y-38470D01*
X226709Y-38344D01*
X226753Y-38219D01*
X226801Y-38095D01*
X226852Y-37973D01*
X226907Y-37852D01*
X226965Y-37733D01*
X227027Y-37615D01*
X227092Y-37500D01*
X227161Y-37386D01*
X227232Y-37275D01*
X227308Y-37166D01*
X227386Y-37059D01*
X227467Y-36954D01*
X227552Y-36852D01*
X227639Y-36752D01*
X227729Y-36655D01*
X227822Y-36560D01*
X227918Y-36469D01*
X228016Y-36380D01*
X228117Y-36294D01*
X228221Y-36211D01*
X228327Y-36131D01*
X228435Y-36055D01*
X228545Y-35981D01*
X228658Y-35911D01*
X228772Y-35844D01*
X228889Y-35781D01*
X229007Y-35721D01*
X229127Y-35664D01*
X229249Y-35611D01*
X229372Y-35562D01*
X229496Y-35516D01*
X229622Y-35474D01*
X229749Y-35436D01*
X229877Y-35401D01*
X230006Y-35370D01*
X230135Y-35343D01*
X230266Y-35320D01*
X230397Y-35300D01*
X230529Y-35285D01*
X230661Y-35273D01*
X230793Y-35265D01*
X230926Y-35261D01*
X231058Y-35261D01*
X231191Y-35265D01*
X231323Y-35273D01*
X231455Y-35285D01*
X231587Y-35300D01*
X231718Y-35320D01*
X231849Y-35343D01*
X231978Y-35370D01*
X232107Y-35401D01*
X232235Y-35436D01*
X232362Y-35474D01*
X232488Y-35516D01*
X232612Y-35562D01*
X232735Y-35611D01*
X232857Y-35664D01*
X232977Y-35721D01*
X233095Y-35781D01*
X233212Y-35844D01*
X233326Y-35911D01*
X233439Y-35981D01*
X233549Y-36055D01*
X233657Y-36131D01*
X233763Y-36211D01*
X233867Y-36294D01*
X233968Y-36380D01*
X234066Y-36469D01*
X234162Y-36560D01*
X234255Y-36655D01*
X234345Y-36752D01*
X234432Y-36852D01*
X234517Y-36954D01*
X234598Y-37059D01*
X234676Y-37166D01*
X234752Y-37275D01*
X234823Y-37386D01*
X234892Y-37500D01*
X234957Y-37615D01*
X235019Y-37733D01*
X235077Y-37852D01*
X235132Y-37973D01*
X235183Y-38095D01*
X235231Y-38219D01*
X235275Y-38344D01*
X235315Y-38470D01*
X235351Y-38598D01*
X235384Y-38726D01*
X235413Y-38855D01*
X235438Y-38986D01*
X235459Y-39116D01*
X235477Y-39248D01*
X235490Y-39380D01*
X235500Y-39512D01*
X235506Y-39644D01*
X235508Y-39777D01*
X235506Y-39910D01*
X235500Y-40042D01*
X235490Y-40174D01*
X235477Y-40306D01*
X235459Y-40438D01*
X235438Y-40568D01*
X235413Y-40699D01*
X235384Y-40828D01*
X235351Y-40956D01*
X235315Y-41084D01*
X235275Y-41210D01*
X235231Y-41335D01*
X235183Y-41459D01*
X235132Y-41581D01*
X235077Y-41702D01*
X235019Y-41821D01*
X234957Y-41939D01*
X234892Y-42054D01*
X234823Y-42168D01*
X234752Y-42279D01*
X234676Y-42388D01*
X234598Y-42495D01*
X234517Y-42600D01*
X234432Y-42702D01*
X234345Y-42802D01*
X234255Y-42899D01*
X234162Y-42994D01*
X234066Y-43085D01*
X233968Y-43174D01*
X233867Y-43260D01*
X233763Y-43343D01*
X233657Y-43423D01*
X233549Y-43499D01*
X233439Y-43573D01*
X233326Y-43643D01*
X233212Y-43710D01*
X233095Y-43773D01*
X232977Y-43833D01*
X232857Y-43890D01*
X232735Y-43943D01*
X232612Y-43992D01*
X232488Y-44038D01*
X232362Y-44080D01*
X232235Y-44118D01*
X232107Y-44153D01*
X231978Y-44184D01*
X231849Y-44211D01*
X231718Y-44234D01*
X231587Y-44254D01*
X231455Y-44269D01*
X231323Y-44281D01*
X231191Y-44289D01*
X231058Y-44293D01*
X230926Y-44293D01*
X230793Y-44289D01*
X230661Y-44281D01*
X230529Y-44269D01*
X230397Y-44254D01*
X230266Y-44234D01*
X230135Y-44211D01*
X230006Y-44184D01*
X229877Y-44153D01*
X229749Y-44118D01*
X229622Y-44080D01*
X229496Y-44038D01*
X229372Y-43992D01*
X229249Y-43943D01*
X229127Y-43890D01*
X229007Y-43833D01*
X228889Y-43773D01*
X228772Y-43710D01*
X228658Y-43643D01*
X228545Y-43573D01*
X228435Y-43499D01*
X228327Y-43423D01*
X228221Y-43343D01*
X228117Y-43260D01*
X228016Y-43174D01*
X227918Y-43085D01*
X227822Y-42994D01*
X227729Y-42899D01*
X227639Y-42802D01*
X227552Y-42702D01*
X227467Y-42600D01*
X227386Y-42495D01*
X227308Y-42388D01*
X227232Y-42279D01*
X227161Y-42168D01*
X227092Y-42054D01*
X227027Y-41939D01*
X226965Y-41821D01*
X226907Y-41702D01*
X226852Y-41581D01*
X226801Y-41459D01*
X226753Y-41335D01*
X226709Y-41210D01*
X226669Y-41084D01*
X226633Y-40956D01*
X226600Y-40828D01*
X226571Y-40699D01*
X226546Y-40568D01*
X226525Y-40438D01*
X226507Y-40306D01*
X226494Y-40174D01*
X226484Y-40042D01*
X226478Y-39910D01*
X226476Y-39777D01*
X227380Y-31649D02*
X227382Y-31530D01*
X227388Y-31410D01*
X227398Y-31291D01*
X227412Y-31173D01*
X227429Y-31054D01*
X227451Y-30937D01*
X227476Y-30820D01*
X227506Y-30705D01*
X227539Y-30590D01*
X227576Y-30476D01*
X227616Y-30364D01*
X227661Y-30253D01*
X227709Y-30144D01*
X227760Y-30036D01*
X227815Y-29930D01*
X227874Y-29826D01*
X227936Y-29724D01*
X228001Y-29624D01*
X228070Y-29526D01*
X228142Y-29430D01*
X228217Y-29337D01*
X228294Y-29247D01*
X228375Y-29159D01*
X228459Y-29074D01*
X228546Y-28992D01*
X228635Y-28912D01*
X228727Y-28836D01*
X228821Y-28762D01*
X228918Y-28692D01*
X229016Y-28625D01*
X229117Y-28561D01*
X229221Y-28501D01*
X229326Y-28444D01*
X229433Y-28391D01*
X229541Y-28341D01*
X229651Y-28295D01*
X229763Y-28253D01*
X229876Y-28214D01*
X229990Y-28179D01*
X230105Y-28148D01*
X230222Y-28120D01*
X230339Y-28097D01*
X230456Y-28077D01*
X230575Y-28061D01*
X230694Y-28049D01*
X230813Y-28041D01*
X230932Y-28037D01*
X231052Y-28037D01*
X231171Y-28041D01*
X231290Y-28049D01*
X231409Y-28061D01*
X231528Y-28077D01*
X231645Y-28097D01*
X231762Y-28120D01*
X231879Y-28148D01*
X231994Y-28179D01*
X232108Y-28214D01*
X232221Y-28253D01*
X232333Y-28295D01*
X232443Y-28341D01*
X232551Y-28391D01*
X232658Y-28444D01*
X232763Y-28501D01*
X232867Y-28561D01*
X232968Y-28625D01*
X233066Y-28692D01*
X233163Y-28762D01*
X233257Y-28836D01*
X233349Y-28912D01*
X233438Y-28992D01*
X233525Y-29074D01*
X233609Y-29159D01*
X233690Y-29247D01*
X233767Y-29337D01*
X233842Y-29430D01*
X233914Y-29526D01*
X233983Y-29624D01*
X234048Y-29724D01*
X234110Y-29826D01*
X234169Y-29930D01*
X234224Y-30036D01*
X234275Y-30144D01*
X234323Y-30253D01*
X234368Y-30364D01*
X234408Y-30476D01*
X234445Y-30590D01*
X234478Y-30705D01*
X234508Y-30820D01*
X234533Y-30937D01*
X234555Y-31054D01*
X234572Y-31173D01*
X234586Y-31291D01*
X234596Y-31410D01*
X234602Y-31530D01*
X234604Y-31649D01*
X234602Y-31768D01*
X234596Y-31888D01*
X234586Y-32007D01*
X234572Y-32125D01*
X234555Y-32244D01*
X234533Y-32361D01*
X234508Y-32478D01*
X234478Y-32593D01*
X234445Y-32708D01*
X234408Y-32822D01*
X234368Y-32934D01*
X234323Y-33045D01*
X234275Y-33154D01*
X234224Y-33262D01*
X234169Y-33368D01*
X234110Y-33472D01*
X234048Y-33574D01*
X233983Y-33674D01*
X233914Y-33772D01*
X233842Y-33868D01*
X233767Y-33961D01*
X233690Y-34051D01*
X233609Y-34139D01*
X233525Y-34224D01*
X233438Y-34306D01*
X233349Y-34386D01*
X233257Y-34462D01*
X233163Y-34536D01*
X233066Y-34606D01*
X232968Y-34673D01*
X232867Y-34737D01*
X232763Y-34797D01*
X232658Y-34854D01*
X232551Y-34907D01*
X232443Y-34957D01*
X232333Y-35003D01*
X232221Y-35045D01*
X232108Y-35084D01*
X231994Y-35119D01*
X231879Y-35150D01*
X231762Y-35178D01*
X231645Y-35201D01*
X231528Y-35221D01*
X231409Y-35237D01*
X231290Y-35249D01*
X231171Y-35257D01*
X231052Y-35261D01*
X230932Y-35261D01*
X230813Y-35257D01*
X230694Y-35249D01*
X230575Y-35237D01*
X230456Y-35221D01*
X230339Y-35201D01*
X230222Y-35178D01*
X230105Y-35150D01*
X229990Y-35119D01*
X229876Y-35084D01*
X229763Y-35045D01*
X229651Y-35003D01*
X229541Y-34957D01*
X229433Y-34907D01*
X229326Y-34854D01*
X229221Y-34797D01*
X229117Y-34737D01*
X229016Y-34673D01*
X228918Y-34606D01*
X228821Y-34536D01*
X228727Y-34462D01*
X228635Y-34386D01*
X228546Y-34306D01*
X228459Y-34224D01*
X228375Y-34139D01*
X228294Y-34051D01*
X228217Y-33961D01*
X228142Y-33868D01*
X228070Y-33772D01*
X228001Y-33674D01*
X227936Y-33574D01*
X227874Y-33472D01*
X227815Y-33368D01*
X227760Y-33262D01*
X227709Y-33154D01*
X227661Y-33045D01*
X227616Y-32934D01*
X227576Y-32822D01*
X227539Y-32708D01*
X227506Y-32593D01*
X227476Y-32478D01*
X227451Y-32361D01*
X227429Y-32244D01*
X227412Y-32125D01*
X227398Y-32007D01*
X227388Y-31888D01*
X227382Y-31768D01*
X227380Y-31649D01*
X242108Y-36165D02*
X242112Y-35845D01*
X242123Y-35526D01*
X242142Y-35206D01*
X242169Y-34888D01*
X242203Y-34570D01*
X242245Y-34253D01*
X242295Y-33937D01*
X242352Y-33622D01*
X242416Y-33309D01*
X242488Y-32997D01*
X242567Y-32687D01*
X242654Y-32380D01*
X242748Y-32074D01*
X242849Y-31771D01*
X242958Y-31470D01*
X243073Y-31172D01*
X243196Y-30876D01*
X243326Y-30584D01*
X243463Y-30295D01*
X243463Y-30294D02*
X243502Y-30186D01*
X243545Y-30079D01*
X243591Y-29974D01*
X243641Y-29871D01*
X243695Y-29769D01*
X243752Y-29669D01*
X243813Y-29571D01*
X243877Y-29475D01*
X243944Y-29382D01*
X244014Y-29291D01*
X244088Y-29202D01*
X244164Y-29116D01*
X244244Y-29033D01*
X244326Y-28952D01*
X244411Y-28874D01*
X244498Y-28800D01*
X244589Y-28728D01*
X244681Y-28659D01*
X244776Y-28594D01*
X244873Y-28532D01*
X244972Y-28473D01*
X245073Y-28418D01*
X245176Y-28367D01*
X245281Y-28319D01*
X245387Y-28274D01*
X245494Y-28233D01*
X245603Y-28196D01*
X245714Y-28163D01*
X245825Y-28134D01*
X245937Y-28108D01*
X246050Y-28086D01*
X246164Y-28069D01*
X246278Y-28055D01*
X246393Y-28045D01*
X246508Y-28039D01*
X246623Y-28037D01*
X246738Y-28039D01*
X246853Y-28045D01*
X246968Y-28055D01*
X247082Y-28069D01*
X247196Y-28086D01*
X247309Y-28108D01*
X247421Y-28134D01*
X247533Y-28163D01*
X247643Y-28196D01*
X247752Y-28233D01*
X247860Y-28274D01*
X247966Y-28319D01*
X248071Y-28367D01*
X248173Y-28418D01*
X248275Y-28474D01*
X248374Y-28532D01*
X248471Y-28594D01*
X248566Y-28660D01*
X248658Y-28728D01*
X248748Y-28800D01*
X248836Y-28874D01*
X248921Y-28952D01*
X249003Y-29033D01*
X249082Y-29116D01*
X249159Y-29202D01*
X249232Y-29291D01*
X249303Y-29382D01*
X249370Y-29476D01*
X249434Y-29571D01*
X249495Y-29669D01*
X249552Y-29769D01*
X249605Y-29871D01*
X249656Y-29975D01*
X249702Y-30080D01*
X249745Y-30187D01*
X249784Y-30295D01*
X249783Y-30295D02*
X249920Y-30584D01*
X250050Y-30876D01*
X250173Y-31172D01*
X250288Y-31470D01*
X250397Y-31771D01*
X250498Y-32074D01*
X250592Y-32380D01*
X250679Y-32687D01*
X250758Y-32997D01*
X250830Y-33309D01*
X250894Y-33622D01*
X250951Y-33937D01*
X251001Y-34253D01*
X251043Y-34570D01*
X251077Y-34888D01*
X251104Y-35206D01*
X251123Y-35526D01*
X251134Y-35845D01*
X251138Y-36165D01*
X242108Y-36165D02*
X242112Y-36485D01*
X242123Y-36804D01*
X242142Y-37124D01*
X242169Y-37442D01*
X242203Y-37760D01*
X242245Y-38077D01*
X242295Y-38393D01*
X242352Y-38708D01*
X242416Y-39021D01*
X242488Y-39333D01*
X242567Y-39643D01*
X242654Y-39950D01*
X242748Y-40256D01*
X242849Y-40559D01*
X242958Y-40860D01*
X243073Y-41158D01*
X243196Y-41454D01*
X243326Y-41746D01*
X243463Y-42035D01*
X243462Y-42036D02*
X243501Y-42144D01*
X243544Y-42251D01*
X243590Y-42356D01*
X243641Y-42460D01*
X243694Y-42562D01*
X243751Y-42662D01*
X243812Y-42760D01*
X243876Y-42855D01*
X243943Y-42949D01*
X244014Y-43040D01*
X244087Y-43129D01*
X244164Y-43215D01*
X244243Y-43298D01*
X244325Y-43379D01*
X244410Y-43457D01*
X244498Y-43531D01*
X244588Y-43603D01*
X244681Y-43672D01*
X244775Y-43737D01*
X244872Y-43799D01*
X244972Y-43857D01*
X245073Y-43913D01*
X245175Y-43964D01*
X245280Y-44012D01*
X245386Y-44057D01*
X245494Y-44098D01*
X245603Y-44135D01*
X245713Y-44168D01*
X245825Y-44197D01*
X245937Y-44223D01*
X246050Y-44245D01*
X246164Y-44262D01*
X246278Y-44276D01*
X246393Y-44286D01*
X246508Y-44292D01*
X246623Y-44294D01*
X249783Y-42035D02*
X249920Y-41746D01*
X250050Y-41454D01*
X250173Y-41158D01*
X250288Y-40860D01*
X250397Y-40559D01*
X250498Y-40256D01*
X250592Y-39950D01*
X250679Y-39643D01*
X250758Y-39333D01*
X250830Y-39021D01*
X250894Y-38708D01*
X250951Y-38393D01*
X251001Y-38077D01*
X251043Y-37760D01*
X251077Y-37442D01*
X251104Y-37124D01*
X251123Y-36804D01*
X251134Y-36485D01*
X251138Y-36165D01*
X249784Y-42035D02*
X249745Y-42143D01*
X249702Y-42250D01*
X249656Y-42355D01*
X249605Y-42459D01*
X249552Y-42561D01*
X249495Y-42661D01*
X249434Y-42759D01*
X249370Y-42854D01*
X249303Y-42948D01*
X249232Y-43039D01*
X249159Y-43128D01*
X249082Y-43214D01*
X249003Y-43297D01*
X248921Y-43378D01*
X248836Y-43456D01*
X248748Y-43530D01*
X248658Y-43602D01*
X248565Y-43671D01*
X248471Y-43736D01*
X248374Y-43798D01*
X248274Y-43856D01*
X248173Y-43912D01*
X248070Y-43963D01*
X247966Y-44011D01*
X247860Y-44056D01*
X247752Y-44097D01*
X247643Y-44134D01*
X247533Y-44167D01*
X247421Y-44196D01*
X247309Y-44222D01*
X247196Y-44244D01*
X247082Y-44261D01*
X246968Y-44275D01*
X246853Y-44285D01*
X246738Y-44291D01*
X246623Y-44293D01*
X243011Y-40681D02*
X250236Y-31649D01*
D10*
X-18600Y0D02*
X-63500Y0D01*
X-63500Y457200D02*
X-18600Y457200D01*
X-38100Y456550D02*
X-38100Y650D01*
X-41292Y26000D01*
X-34908Y26000D01*
X-38100Y650D01*
X-39400Y26000D01*
X-36800Y26000D02*
X-38100Y650D01*
X-40700Y26000D01*
X-35500Y26000D02*
X-38100Y650D01*
X-41292Y431200D02*
X-38100Y456550D01*
X-41292Y431200D02*
X-34908Y431200D01*
X-38100Y456550D01*
X-39400Y431200D01*
X-36800Y431200D02*
X-38100Y456550D01*
X-40700Y431200D01*
X-35500Y431200D02*
X-38100Y456550D01*
D11*
X-60863Y209108D02*
X-57251Y204593D01*
X-60863Y209108D02*
X-44607Y209108D01*
X-44607Y204593D02*
X-44607Y213624D01*
X-44607Y219599D02*
X-45510Y219599D01*
X-45510Y220502D01*
X-44607Y220502D01*
X-44607Y219599D01*
X-49123Y226476D02*
X-49256Y226478D01*
X-49388Y226484D01*
X-49520Y226494D01*
X-49652Y226507D01*
X-49784Y226525D01*
X-49914Y226546D01*
X-50045Y226571D01*
X-50174Y226600D01*
X-50302Y226633D01*
X-50430Y226669D01*
X-50556Y226709D01*
X-50681Y226753D01*
X-50805Y226801D01*
X-50927Y226852D01*
X-51048Y226907D01*
X-51167Y226965D01*
X-51285Y227027D01*
X-51400Y227092D01*
X-51514Y227161D01*
X-51625Y227232D01*
X-51734Y227308D01*
X-51841Y227386D01*
X-51946Y227467D01*
X-52048Y227552D01*
X-52148Y227639D01*
X-52245Y227729D01*
X-52340Y227822D01*
X-52431Y227918D01*
X-52520Y228016D01*
X-52606Y228117D01*
X-52689Y228221D01*
X-52769Y228327D01*
X-52845Y228435D01*
X-52919Y228545D01*
X-52989Y228658D01*
X-53056Y228772D01*
X-53119Y228889D01*
X-53179Y229007D01*
X-53236Y229127D01*
X-53289Y229249D01*
X-53338Y229372D01*
X-53384Y229496D01*
X-53426Y229622D01*
X-53464Y229749D01*
X-53499Y229877D01*
X-53530Y230006D01*
X-53557Y230135D01*
X-53580Y230266D01*
X-53600Y230397D01*
X-53615Y230529D01*
X-53627Y230661D01*
X-53635Y230793D01*
X-53639Y230926D01*
X-53639Y231058D01*
X-53635Y231191D01*
X-53627Y231323D01*
X-53615Y231455D01*
X-53600Y231587D01*
X-53580Y231718D01*
X-53557Y231849D01*
X-53530Y231978D01*
X-53499Y232107D01*
X-53464Y232235D01*
X-53426Y232362D01*
X-53384Y232488D01*
X-53338Y232612D01*
X-53289Y232735D01*
X-53236Y232857D01*
X-53179Y232977D01*
X-53119Y233095D01*
X-53056Y233212D01*
X-52989Y233326D01*
X-52919Y233439D01*
X-52845Y233549D01*
X-52769Y233657D01*
X-52689Y233763D01*
X-52606Y233867D01*
X-52520Y233968D01*
X-52431Y234066D01*
X-52340Y234162D01*
X-52245Y234255D01*
X-52148Y234345D01*
X-52048Y234432D01*
X-51946Y234517D01*
X-51841Y234598D01*
X-51734Y234676D01*
X-51625Y234752D01*
X-51514Y234823D01*
X-51400Y234892D01*
X-51285Y234957D01*
X-51167Y235019D01*
X-51048Y235077D01*
X-50927Y235132D01*
X-50805Y235183D01*
X-50681Y235231D01*
X-50556Y235275D01*
X-50430Y235315D01*
X-50302Y235351D01*
X-50174Y235384D01*
X-50045Y235413D01*
X-49914Y235438D01*
X-49784Y235459D01*
X-49652Y235477D01*
X-49520Y235490D01*
X-49388Y235500D01*
X-49256Y235506D01*
X-49123Y235508D01*
X-48990Y235506D01*
X-48858Y235500D01*
X-48726Y235490D01*
X-48594Y235477D01*
X-48462Y235459D01*
X-48332Y235438D01*
X-48201Y235413D01*
X-48072Y235384D01*
X-47944Y235351D01*
X-47816Y235315D01*
X-47690Y235275D01*
X-47565Y235231D01*
X-47441Y235183D01*
X-47319Y235132D01*
X-47198Y235077D01*
X-47079Y235019D01*
X-46961Y234957D01*
X-46846Y234892D01*
X-46732Y234823D01*
X-46621Y234752D01*
X-46512Y234676D01*
X-46405Y234598D01*
X-46300Y234517D01*
X-46198Y234432D01*
X-46098Y234345D01*
X-46001Y234255D01*
X-45906Y234162D01*
X-45815Y234066D01*
X-45726Y233968D01*
X-45640Y233867D01*
X-45557Y233763D01*
X-45477Y233657D01*
X-45401Y233549D01*
X-45327Y233439D01*
X-45257Y233326D01*
X-45190Y233212D01*
X-45127Y233095D01*
X-45067Y232977D01*
X-45010Y232857D01*
X-44957Y232735D01*
X-44908Y232612D01*
X-44862Y232488D01*
X-44820Y232362D01*
X-44782Y232235D01*
X-44747Y232107D01*
X-44716Y231978D01*
X-44689Y231849D01*
X-44666Y231718D01*
X-44646Y231587D01*
X-44631Y231455D01*
X-44619Y231323D01*
X-44611Y231191D01*
X-44607Y231058D01*
X-44607Y230926D01*
X-44611Y230793D01*
X-44619Y230661D01*
X-44631Y230529D01*
X-44646Y230397D01*
X-44666Y230266D01*
X-44689Y230135D01*
X-44716Y230006D01*
X-44747Y229877D01*
X-44782Y229749D01*
X-44820Y229622D01*
X-44862Y229496D01*
X-44908Y229372D01*
X-44957Y229249D01*
X-45010Y229127D01*
X-45067Y229007D01*
X-45127Y228889D01*
X-45190Y228772D01*
X-45257Y228658D01*
X-45327Y228545D01*
X-45401Y228435D01*
X-45477Y228327D01*
X-45557Y228221D01*
X-45640Y228117D01*
X-45726Y228016D01*
X-45815Y227918D01*
X-45906Y227822D01*
X-46001Y227729D01*
X-46098Y227639D01*
X-46198Y227552D01*
X-46300Y227467D01*
X-46405Y227386D01*
X-46512Y227308D01*
X-46621Y227232D01*
X-46732Y227161D01*
X-46846Y227092D01*
X-46961Y227027D01*
X-47079Y226965D01*
X-47198Y226907D01*
X-47319Y226852D01*
X-47441Y226801D01*
X-47565Y226753D01*
X-47690Y226709D01*
X-47816Y226669D01*
X-47944Y226633D01*
X-48072Y226600D01*
X-48201Y226571D01*
X-48332Y226546D01*
X-48462Y226525D01*
X-48594Y226507D01*
X-48726Y226494D01*
X-48858Y226484D01*
X-48990Y226478D01*
X-49123Y226476D01*
X-57251Y227380D02*
X-57370Y227382D01*
X-57490Y227388D01*
X-57609Y227398D01*
X-57727Y227412D01*
X-57846Y227429D01*
X-57963Y227451D01*
X-58080Y227476D01*
X-58195Y227506D01*
X-58310Y227539D01*
X-58424Y227576D01*
X-58536Y227616D01*
X-58647Y227661D01*
X-58756Y227709D01*
X-58864Y227760D01*
X-58970Y227815D01*
X-59074Y227874D01*
X-59176Y227936D01*
X-59276Y228001D01*
X-59374Y228070D01*
X-59470Y228142D01*
X-59563Y228217D01*
X-59653Y228294D01*
X-59741Y228375D01*
X-59826Y228459D01*
X-59908Y228546D01*
X-59988Y228635D01*
X-60064Y228727D01*
X-60138Y228821D01*
X-60208Y228918D01*
X-60275Y229016D01*
X-60339Y229117D01*
X-60399Y229221D01*
X-60456Y229326D01*
X-60509Y229433D01*
X-60559Y229541D01*
X-60605Y229651D01*
X-60647Y229763D01*
X-60686Y229876D01*
X-60721Y229990D01*
X-60752Y230105D01*
X-60780Y230222D01*
X-60803Y230339D01*
X-60823Y230456D01*
X-60839Y230575D01*
X-60851Y230694D01*
X-60859Y230813D01*
X-60863Y230932D01*
X-60863Y231052D01*
X-60859Y231171D01*
X-60851Y231290D01*
X-60839Y231409D01*
X-60823Y231528D01*
X-60803Y231645D01*
X-60780Y231762D01*
X-60752Y231879D01*
X-60721Y231994D01*
X-60686Y232108D01*
X-60647Y232221D01*
X-60605Y232333D01*
X-60559Y232443D01*
X-60509Y232551D01*
X-60456Y232658D01*
X-60399Y232763D01*
X-60339Y232867D01*
X-60275Y232968D01*
X-60208Y233066D01*
X-60138Y233163D01*
X-60064Y233257D01*
X-59988Y233349D01*
X-59908Y233438D01*
X-59826Y233525D01*
X-59741Y233609D01*
X-59653Y233690D01*
X-59563Y233767D01*
X-59470Y233842D01*
X-59374Y233914D01*
X-59276Y233983D01*
X-59176Y234048D01*
X-59074Y234110D01*
X-58970Y234169D01*
X-58864Y234224D01*
X-58756Y234275D01*
X-58647Y234323D01*
X-58536Y234368D01*
X-58424Y234408D01*
X-58310Y234445D01*
X-58195Y234478D01*
X-58080Y234508D01*
X-57963Y234533D01*
X-57846Y234555D01*
X-57727Y234572D01*
X-57609Y234586D01*
X-57490Y234596D01*
X-57370Y234602D01*
X-57251Y234604D01*
X-57132Y234602D01*
X-57012Y234596D01*
X-56893Y234586D01*
X-56775Y234572D01*
X-56656Y234555D01*
X-56539Y234533D01*
X-56422Y234508D01*
X-56307Y234478D01*
X-56192Y234445D01*
X-56078Y234408D01*
X-55966Y234368D01*
X-55855Y234323D01*
X-55746Y234275D01*
X-55638Y234224D01*
X-55532Y234169D01*
X-55428Y234110D01*
X-55326Y234048D01*
X-55226Y233983D01*
X-55128Y233914D01*
X-55032Y233842D01*
X-54939Y233767D01*
X-54849Y233690D01*
X-54761Y233609D01*
X-54676Y233525D01*
X-54594Y233438D01*
X-54514Y233349D01*
X-54438Y233257D01*
X-54364Y233163D01*
X-54294Y233066D01*
X-54227Y232968D01*
X-54163Y232867D01*
X-54103Y232763D01*
X-54046Y232658D01*
X-53993Y232551D01*
X-53943Y232443D01*
X-53897Y232333D01*
X-53855Y232221D01*
X-53816Y232108D01*
X-53781Y231994D01*
X-53750Y231879D01*
X-53722Y231762D01*
X-53699Y231645D01*
X-53679Y231528D01*
X-53663Y231409D01*
X-53651Y231290D01*
X-53643Y231171D01*
X-53639Y231052D01*
X-53639Y230932D01*
X-53643Y230813D01*
X-53651Y230694D01*
X-53663Y230575D01*
X-53679Y230456D01*
X-53699Y230339D01*
X-53722Y230222D01*
X-53750Y230105D01*
X-53781Y229990D01*
X-53816Y229876D01*
X-53855Y229763D01*
X-53897Y229651D01*
X-53943Y229541D01*
X-53993Y229433D01*
X-54046Y229326D01*
X-54103Y229221D01*
X-54163Y229117D01*
X-54227Y229016D01*
X-54294Y228918D01*
X-54364Y228821D01*
X-54438Y228727D01*
X-54514Y228635D01*
X-54594Y228546D01*
X-54676Y228459D01*
X-54761Y228375D01*
X-54849Y228294D01*
X-54939Y228217D01*
X-55032Y228142D01*
X-55128Y228070D01*
X-55226Y228001D01*
X-55326Y227936D01*
X-55428Y227874D01*
X-55532Y227815D01*
X-55638Y227760D01*
X-55746Y227709D01*
X-55855Y227661D01*
X-55966Y227616D01*
X-56078Y227576D01*
X-56192Y227539D01*
X-56307Y227506D01*
X-56422Y227476D01*
X-56539Y227451D01*
X-56656Y227429D01*
X-56775Y227412D01*
X-56893Y227398D01*
X-57012Y227388D01*
X-57132Y227382D01*
X-57251Y227380D01*
X-52735Y242108D02*
X-53055Y242112D01*
X-53374Y242123D01*
X-53694Y242142D01*
X-54012Y242169D01*
X-54330Y242203D01*
X-54647Y242245D01*
X-54963Y242295D01*
X-55278Y242352D01*
X-55591Y242416D01*
X-55903Y242488D01*
X-56213Y242567D01*
X-56520Y242654D01*
X-56826Y242748D01*
X-57129Y242849D01*
X-57430Y242958D01*
X-57728Y243073D01*
X-58024Y243196D01*
X-58316Y243326D01*
X-58605Y243463D01*
X-58606Y243462D02*
X-58714Y243501D01*
X-58821Y243544D01*
X-58926Y243590D01*
X-59030Y243641D01*
X-59132Y243694D01*
X-59232Y243751D01*
X-59330Y243812D01*
X-59425Y243876D01*
X-59519Y243943D01*
X-59610Y244014D01*
X-59699Y244087D01*
X-59785Y244164D01*
X-59868Y244243D01*
X-59949Y244325D01*
X-60027Y244410D01*
X-60101Y244498D01*
X-60173Y244588D01*
X-60241Y244680D01*
X-60307Y244775D01*
X-60369Y244872D01*
X-60427Y244971D01*
X-60483Y245073D01*
X-60534Y245175D01*
X-60582Y245280D01*
X-60627Y245386D01*
X-60668Y245494D01*
X-60705Y245603D01*
X-60738Y245713D01*
X-60767Y245825D01*
X-60793Y245937D01*
X-60815Y246050D01*
X-60832Y246164D01*
X-60846Y246278D01*
X-60856Y246393D01*
X-60862Y246508D01*
X-60864Y246623D01*
X-60863Y246623D02*
X-60861Y246738D01*
X-60855Y246853D01*
X-60845Y246968D01*
X-60831Y247082D01*
X-60814Y247196D01*
X-60792Y247309D01*
X-60766Y247421D01*
X-60737Y247533D01*
X-60704Y247643D01*
X-60667Y247752D01*
X-60626Y247860D01*
X-60581Y247966D01*
X-60533Y248071D01*
X-60482Y248173D01*
X-60426Y248274D01*
X-60368Y248374D01*
X-60306Y248471D01*
X-60241Y248565D01*
X-60172Y248658D01*
X-60100Y248748D01*
X-60026Y248836D01*
X-59948Y248921D01*
X-59867Y249003D01*
X-59784Y249082D01*
X-59698Y249159D01*
X-59609Y249232D01*
X-59518Y249303D01*
X-59424Y249370D01*
X-59329Y249434D01*
X-59231Y249495D01*
X-59131Y249552D01*
X-59029Y249605D01*
X-58925Y249656D01*
X-58820Y249702D01*
X-58713Y249745D01*
X-58605Y249784D01*
X-58316Y249921D01*
X-58024Y250051D01*
X-57728Y250174D01*
X-57430Y250289D01*
X-57129Y250398D01*
X-56826Y250499D01*
X-56520Y250593D01*
X-56213Y250680D01*
X-55903Y250759D01*
X-55591Y250831D01*
X-55278Y250895D01*
X-54963Y250952D01*
X-54647Y251002D01*
X-54330Y251044D01*
X-54012Y251078D01*
X-53694Y251105D01*
X-53374Y251124D01*
X-53055Y251135D01*
X-52735Y251139D01*
X-52735Y242108D02*
X-52415Y242112D01*
X-52096Y242123D01*
X-51776Y242142D01*
X-51458Y242169D01*
X-51140Y242203D01*
X-50823Y242245D01*
X-50507Y242295D01*
X-50192Y242352D01*
X-49879Y242416D01*
X-49567Y242488D01*
X-49257Y242567D01*
X-48950Y242654D01*
X-48644Y242748D01*
X-48341Y242849D01*
X-48040Y242958D01*
X-47742Y243073D01*
X-47446Y243196D01*
X-47154Y243326D01*
X-46865Y243463D01*
X-46865Y243462D02*
X-46757Y243501D01*
X-46650Y243544D01*
X-46545Y243590D01*
X-46441Y243641D01*
X-46339Y243694D01*
X-46239Y243751D01*
X-46141Y243812D01*
X-46046Y243876D01*
X-45952Y243943D01*
X-45861Y244014D01*
X-45772Y244087D01*
X-45686Y244164D01*
X-45603Y244243D01*
X-45522Y244325D01*
X-45444Y244410D01*
X-45370Y244498D01*
X-45298Y244588D01*
X-45229Y244681D01*
X-45164Y244775D01*
X-45102Y244872D01*
X-45044Y244972D01*
X-44988Y245073D01*
X-44937Y245175D01*
X-44889Y245280D01*
X-44844Y245386D01*
X-44803Y245494D01*
X-44766Y245603D01*
X-44733Y245713D01*
X-44704Y245825D01*
X-44678Y245937D01*
X-44656Y246050D01*
X-44639Y246164D01*
X-44625Y246278D01*
X-44615Y246393D01*
X-44609Y246508D01*
X-44607Y246623D01*
X-46865Y249783D02*
X-47154Y249920D01*
X-47446Y250050D01*
X-47742Y250173D01*
X-48040Y250288D01*
X-48341Y250397D01*
X-48644Y250498D01*
X-48950Y250592D01*
X-49257Y250679D01*
X-49567Y250758D01*
X-49879Y250830D01*
X-50192Y250894D01*
X-50507Y250951D01*
X-50823Y251001D01*
X-51140Y251043D01*
X-51458Y251077D01*
X-51776Y251104D01*
X-52096Y251123D01*
X-52415Y251134D01*
X-52735Y251138D01*
X-46865Y249784D02*
X-46757Y249745D01*
X-46650Y249702D01*
X-46545Y249656D01*
X-46441Y249605D01*
X-46339Y249552D01*
X-46239Y249495D01*
X-46141Y249434D01*
X-46046Y249370D01*
X-45952Y249303D01*
X-45861Y249232D01*
X-45772Y249159D01*
X-45686Y249082D01*
X-45603Y249003D01*
X-45522Y248921D01*
X-45444Y248836D01*
X-45370Y248748D01*
X-45298Y248658D01*
X-45229Y248565D01*
X-45164Y248471D01*
X-45102Y248374D01*
X-45044Y248274D01*
X-44988Y248173D01*
X-44937Y248070D01*
X-44889Y247966D01*
X-44844Y247860D01*
X-44803Y247752D01*
X-44766Y247643D01*
X-44733Y247533D01*
X-44704Y247421D01*
X-44678Y247309D01*
X-44656Y247196D01*
X-44639Y247082D01*
X-44625Y246968D01*
X-44615Y246853D01*
X-44609Y246738D01*
X-44607Y246623D01*
X-48219Y243011D02*
X-57251Y250236D01*
D12*
X266700Y317500D03*
X241300Y317500D03*
X215900Y317500D03*
D13*
X63500Y172720D02*
X63500Y157480D01*
X88900Y157480D02*
X88900Y172720D01*
X114300Y172720D02*
X114300Y157480D01*
X139700Y157480D02*
X139700Y172720D01*
X165100Y172720D02*
X165100Y157480D01*
X190500Y157480D02*
X190500Y172720D01*
X215900Y172720D02*
X215900Y157480D01*
X241300Y157480D02*
X241300Y172720D01*
X266700Y172720D02*
X266700Y157480D01*
X292100Y157480D02*
X292100Y172720D01*
X317500Y172720D02*
X317500Y157480D01*
X342900Y157480D02*
X342900Y172720D01*
X368300Y172720D02*
X368300Y157480D01*
X63500Y411480D02*
X63500Y426720D01*
X88900Y426720D02*
X88900Y411480D01*
X114300Y411480D02*
X114300Y426720D01*
X139700Y426720D02*
X139700Y411480D01*
X165100Y411480D02*
X165100Y426720D01*
X190500Y426720D02*
X190500Y411480D01*
X215900Y411480D02*
X215900Y426720D01*
X241300Y426720D02*
X241300Y411480D01*
X266700Y411480D02*
X266700Y426720D01*
X292100Y426720D02*
X292100Y411480D01*
X317500Y411480D02*
X317500Y426720D01*
X342900Y426720D02*
X342900Y411480D01*
X368300Y411480D02*
X368300Y426720D01*
D14*
X88900Y254000D03*
X190500Y254000D03*
D15*
X139700Y310960D02*
X139700Y324040D01*
X120650Y324040D02*
X120650Y310960D01*
X158750Y310960D02*
X158750Y324040D01*
D14*
X317500Y317500D03*
X317500Y215900D03*
D13*
X381000Y58420D02*
X381000Y43180D01*
X355600Y43180D02*
X355600Y58420D01*
X330200Y58420D02*
X330200Y43180D01*
X228600Y43180D02*
X228600Y58420D01*
X203200Y58420D02*
X203200Y43180D01*
X101600Y43180D02*
X101600Y58420D01*
X76200Y58420D02*
X76200Y43180D01*
X398780Y292100D02*
X414020Y292100D01*
X414020Y317500D02*
X398780Y317500D01*
X398780Y342900D02*
X414020Y342900D01*
X414020Y266700D02*
X398780Y266700D01*
D16*
X317500Y317754D02*
X267208Y317754D01*
X317500Y317754D02*
X317500Y317500D01*
X267208Y317754D02*
X266700Y317500D01*
X317500Y317500D02*
X317500Y419100D01*
X381508Y242316D02*
X381508Y51054D01*
X387604Y248412D02*
X405892Y266700D01*
X387604Y248412D02*
X381508Y242316D01*
X381508Y51054D02*
X381000Y50800D01*
X405892Y266700D02*
X406400Y266700D01*
X387604Y248412D02*
X319786Y316230D01*
X317500Y317500D01*
M02*
