G04 EAGLE Gerber RS-274X export*
G75*
%MOMM*%
%FSLAX34Y34*%
%LPD*%
%INBottom Copper*%
%IPPOS*%
%AMOC8*
5,1,8,0,0,1.08239X$1,22.5*%
G01*
%ADD10C,1.524000*%
%ADD11C,1.524000*%
%ADD12C,1.500000*%
%ADD13C,1.308000*%
%ADD14C,0.600000*%

G36*
X446098Y10164D02*
X446098Y10164D01*
X446117Y10162D01*
X446219Y10184D01*
X446321Y10200D01*
X446338Y10210D01*
X446358Y10214D01*
X446447Y10267D01*
X446538Y10316D01*
X446552Y10330D01*
X446569Y10340D01*
X446636Y10419D01*
X446708Y10494D01*
X446716Y10512D01*
X446729Y10527D01*
X446768Y10623D01*
X446811Y10717D01*
X446813Y10737D01*
X446821Y10755D01*
X446839Y10922D01*
X446839Y455678D01*
X446836Y455698D01*
X446838Y455717D01*
X446816Y455819D01*
X446800Y455921D01*
X446790Y455938D01*
X446786Y455958D01*
X446733Y456047D01*
X446684Y456138D01*
X446670Y456152D01*
X446660Y456169D01*
X446581Y456236D01*
X446506Y456308D01*
X446488Y456316D01*
X446473Y456329D01*
X446377Y456368D01*
X446283Y456411D01*
X446263Y456413D01*
X446245Y456421D01*
X446078Y456439D01*
X10922Y456439D01*
X10902Y456436D01*
X10883Y456438D01*
X10781Y456416D01*
X10679Y456400D01*
X10662Y456390D01*
X10642Y456386D01*
X10553Y456333D01*
X10462Y456284D01*
X10448Y456270D01*
X10431Y456260D01*
X10364Y456181D01*
X10292Y456106D01*
X10284Y456088D01*
X10271Y456073D01*
X10232Y455977D01*
X10189Y455883D01*
X10187Y455863D01*
X10179Y455845D01*
X10161Y455678D01*
X10161Y435022D01*
X10164Y435002D01*
X10162Y434983D01*
X10184Y434881D01*
X10200Y434779D01*
X10210Y434762D01*
X10214Y434742D01*
X10267Y434653D01*
X10316Y434562D01*
X10330Y434548D01*
X10340Y434531D01*
X10419Y434464D01*
X10494Y434392D01*
X10512Y434384D01*
X10527Y434371D01*
X10623Y434332D01*
X10717Y434289D01*
X10737Y434287D01*
X10755Y434279D01*
X10922Y434261D01*
X15716Y434261D01*
X21288Y431953D01*
X25553Y427688D01*
X27861Y422116D01*
X27861Y416084D01*
X25553Y410512D01*
X21288Y406247D01*
X15716Y403939D01*
X10922Y403939D01*
X10902Y403936D01*
X10883Y403938D01*
X10781Y403916D01*
X10679Y403900D01*
X10662Y403890D01*
X10642Y403886D01*
X10553Y403833D01*
X10462Y403784D01*
X10448Y403770D01*
X10431Y403760D01*
X10364Y403681D01*
X10292Y403606D01*
X10284Y403588D01*
X10271Y403573D01*
X10232Y403477D01*
X10189Y403383D01*
X10187Y403363D01*
X10179Y403345D01*
X10161Y403178D01*
X10161Y181022D01*
X10164Y181002D01*
X10162Y180983D01*
X10184Y180881D01*
X10200Y180779D01*
X10210Y180762D01*
X10214Y180742D01*
X10267Y180653D01*
X10316Y180562D01*
X10330Y180548D01*
X10340Y180531D01*
X10419Y180464D01*
X10494Y180392D01*
X10512Y180384D01*
X10527Y180371D01*
X10623Y180332D01*
X10717Y180289D01*
X10737Y180287D01*
X10755Y180279D01*
X10922Y180261D01*
X15716Y180261D01*
X21288Y177953D01*
X25553Y173688D01*
X27861Y168116D01*
X27861Y162084D01*
X25553Y156512D01*
X21288Y152247D01*
X15716Y149939D01*
X10922Y149939D01*
X10902Y149936D01*
X10883Y149938D01*
X10781Y149916D01*
X10679Y149900D01*
X10662Y149890D01*
X10642Y149886D01*
X10553Y149833D01*
X10462Y149784D01*
X10448Y149770D01*
X10431Y149760D01*
X10364Y149681D01*
X10292Y149606D01*
X10284Y149588D01*
X10271Y149573D01*
X10232Y149477D01*
X10189Y149383D01*
X10187Y149363D01*
X10179Y149345D01*
X10161Y149178D01*
X10161Y10922D01*
X10164Y10902D01*
X10162Y10883D01*
X10184Y10781D01*
X10200Y10679D01*
X10210Y10662D01*
X10214Y10642D01*
X10267Y10553D01*
X10316Y10462D01*
X10330Y10448D01*
X10340Y10431D01*
X10419Y10364D01*
X10494Y10292D01*
X10512Y10284D01*
X10527Y10271D01*
X10623Y10232D01*
X10717Y10189D01*
X10737Y10187D01*
X10755Y10179D01*
X10922Y10161D01*
X446078Y10161D01*
X446098Y10164D01*
G37*
%LPC*%
G36*
X353276Y31495D02*
X353276Y31495D01*
X348981Y33274D01*
X345694Y36561D01*
X343915Y40856D01*
X343915Y60744D01*
X345694Y65039D01*
X348312Y67657D01*
X348365Y67731D01*
X348425Y67800D01*
X348437Y67831D01*
X348456Y67857D01*
X348483Y67944D01*
X348517Y68029D01*
X348521Y68070D01*
X348528Y68092D01*
X348527Y68124D01*
X348535Y68195D01*
X348535Y147705D01*
X348523Y147780D01*
X348520Y147856D01*
X348503Y147901D01*
X348496Y147948D01*
X348460Y148015D01*
X348433Y148086D01*
X348403Y148123D01*
X348380Y148166D01*
X348326Y148218D01*
X348278Y148276D01*
X348237Y148302D01*
X348202Y148335D01*
X348133Y148367D01*
X348069Y148407D01*
X348023Y148418D01*
X347979Y148439D01*
X347904Y148447D01*
X347830Y148465D01*
X347782Y148460D01*
X347735Y148466D01*
X347661Y148450D01*
X347585Y148443D01*
X347525Y148420D01*
X347494Y148413D01*
X347472Y148400D01*
X347428Y148384D01*
X346800Y148064D01*
X345279Y147569D01*
X344423Y147434D01*
X344423Y164338D01*
X344420Y164358D01*
X344422Y164377D01*
X344400Y164479D01*
X344383Y164581D01*
X344374Y164598D01*
X344370Y164618D01*
X344317Y164707D01*
X344268Y164798D01*
X344254Y164812D01*
X344244Y164829D01*
X344165Y164896D01*
X344090Y164967D01*
X344072Y164976D01*
X344057Y164989D01*
X343961Y165027D01*
X343867Y165071D01*
X343847Y165073D01*
X343829Y165081D01*
X343662Y165099D01*
X342899Y165099D01*
X342899Y165101D01*
X343662Y165101D01*
X343682Y165104D01*
X343701Y165102D01*
X343803Y165124D01*
X343905Y165141D01*
X343922Y165150D01*
X343942Y165154D01*
X344031Y165207D01*
X344122Y165256D01*
X344136Y165270D01*
X344153Y165280D01*
X344220Y165359D01*
X344291Y165434D01*
X344300Y165452D01*
X344313Y165467D01*
X344352Y165563D01*
X344395Y165657D01*
X344397Y165677D01*
X344405Y165695D01*
X344423Y165862D01*
X344423Y182766D01*
X345279Y182631D01*
X346800Y182136D01*
X347428Y181816D01*
X347500Y181793D01*
X347569Y181761D01*
X347617Y181756D01*
X347663Y181742D01*
X347738Y181743D01*
X347813Y181734D01*
X347861Y181745D01*
X347909Y181745D01*
X347980Y181771D01*
X348054Y181787D01*
X348095Y181811D01*
X348141Y181827D01*
X348200Y181874D01*
X348265Y181913D01*
X348296Y181949D01*
X348334Y181979D01*
X348376Y182042D01*
X348425Y182100D01*
X348443Y182144D01*
X348469Y182185D01*
X348489Y182258D01*
X348517Y182328D01*
X348524Y182393D01*
X348532Y182422D01*
X348530Y182448D01*
X348535Y182495D01*
X348535Y242959D01*
X348634Y243198D01*
X348661Y243311D01*
X348689Y243425D01*
X348689Y243432D01*
X348690Y243438D01*
X348679Y243554D01*
X348670Y243670D01*
X348668Y243676D01*
X348667Y243682D01*
X348619Y243790D01*
X348574Y243897D01*
X348569Y243903D01*
X348567Y243907D01*
X348554Y243921D01*
X348469Y244028D01*
X278879Y313618D01*
X278842Y313645D01*
X278811Y313679D01*
X278742Y313716D01*
X278679Y313762D01*
X278635Y313775D01*
X278595Y313797D01*
X278518Y313811D01*
X278444Y313834D01*
X278398Y313833D01*
X278353Y313841D01*
X278276Y313830D01*
X278198Y313828D01*
X278155Y313812D01*
X278110Y313805D01*
X278040Y313770D01*
X277967Y313743D01*
X277931Y313715D01*
X277890Y313694D01*
X277836Y313638D01*
X277775Y313590D01*
X277750Y313551D01*
X277718Y313518D01*
X277652Y313398D01*
X277642Y313383D01*
X277641Y313378D01*
X277637Y313371D01*
X276606Y310881D01*
X273319Y307594D01*
X269024Y305815D01*
X264376Y305815D01*
X260081Y307594D01*
X256794Y310881D01*
X255015Y315176D01*
X255015Y319824D01*
X255846Y321829D01*
X255856Y321873D01*
X255875Y321915D01*
X255884Y321992D01*
X255902Y322068D01*
X255897Y322114D01*
X255902Y322159D01*
X255886Y322236D01*
X255879Y322313D01*
X255860Y322355D01*
X255850Y322400D01*
X255810Y322467D01*
X255779Y322538D01*
X255748Y322572D01*
X255724Y322611D01*
X255665Y322662D01*
X255612Y322719D01*
X255572Y322741D01*
X255537Y322771D01*
X255465Y322800D01*
X255397Y322837D01*
X255352Y322846D01*
X255309Y322863D01*
X255173Y322878D01*
X255155Y322881D01*
X255150Y322880D01*
X255142Y322881D01*
X252858Y322881D01*
X252812Y322874D01*
X252767Y322876D01*
X252692Y322854D01*
X252615Y322842D01*
X252574Y322820D01*
X252530Y322807D01*
X252466Y322763D01*
X252398Y322726D01*
X252366Y322693D01*
X252328Y322667D01*
X252282Y322605D01*
X252228Y322548D01*
X252209Y322506D01*
X252182Y322470D01*
X252157Y322396D01*
X252125Y322325D01*
X252120Y322279D01*
X252105Y322236D01*
X252106Y322158D01*
X252098Y322081D01*
X252107Y322036D01*
X252108Y321990D01*
X252146Y321858D01*
X252150Y321840D01*
X252152Y321836D01*
X252154Y321829D01*
X252985Y319824D01*
X252985Y315176D01*
X251206Y310881D01*
X248588Y308263D01*
X248535Y308189D01*
X248475Y308120D01*
X248463Y308090D01*
X248444Y308063D01*
X248417Y307976D01*
X248383Y307891D01*
X248379Y307851D01*
X248372Y307828D01*
X248373Y307796D01*
X248365Y307725D01*
X248365Y182495D01*
X248379Y182405D01*
X248387Y182314D01*
X248399Y182285D01*
X248404Y182253D01*
X248447Y182172D01*
X248483Y182088D01*
X248509Y182056D01*
X248520Y182035D01*
X248543Y182013D01*
X248588Y181957D01*
X251206Y179339D01*
X252985Y175044D01*
X252985Y155156D01*
X251206Y150861D01*
X247919Y147574D01*
X243624Y145795D01*
X238976Y145795D01*
X234681Y147574D01*
X231394Y150861D01*
X229615Y155156D01*
X229615Y175044D01*
X231394Y179339D01*
X234012Y181957D01*
X234065Y182031D01*
X234125Y182100D01*
X234137Y182131D01*
X234156Y182157D01*
X234183Y182244D01*
X234217Y182329D01*
X234221Y182370D01*
X234228Y182392D01*
X234227Y182424D01*
X234235Y182495D01*
X234235Y307725D01*
X234221Y307815D01*
X234213Y307906D01*
X234201Y307936D01*
X234196Y307967D01*
X234153Y308048D01*
X234117Y308132D01*
X234091Y308164D01*
X234080Y308185D01*
X234057Y308207D01*
X234012Y308263D01*
X231394Y310881D01*
X230512Y313012D01*
X230487Y313051D01*
X230472Y313094D01*
X230423Y313155D01*
X230382Y313221D01*
X230347Y313250D01*
X230318Y313286D01*
X230253Y313328D01*
X230192Y313378D01*
X230150Y313394D01*
X230111Y313419D01*
X230035Y313438D01*
X229963Y313466D01*
X229917Y313468D01*
X229872Y313479D01*
X229795Y313473D01*
X229717Y313476D01*
X229673Y313464D01*
X229627Y313460D01*
X229556Y313430D01*
X229481Y313408D01*
X229443Y313382D01*
X229401Y313364D01*
X229315Y313295D01*
X226577Y312161D01*
X226500Y312113D01*
X226418Y312072D01*
X226396Y312049D01*
X226368Y312031D01*
X226310Y311961D01*
X226246Y311896D01*
X226226Y311860D01*
X226211Y311842D01*
X226200Y311812D01*
X226165Y311749D01*
X225806Y310881D01*
X222519Y307594D01*
X218224Y305815D01*
X213576Y305815D01*
X209281Y307594D01*
X206409Y310466D01*
X206335Y310519D01*
X206266Y310579D01*
X206236Y310591D01*
X206209Y310610D01*
X206122Y310637D01*
X206037Y310671D01*
X205997Y310675D01*
X205974Y310682D01*
X205942Y310681D01*
X205871Y310689D01*
X170116Y310689D01*
X170096Y310686D01*
X170077Y310688D01*
X169975Y310666D01*
X169873Y310650D01*
X169856Y310640D01*
X169836Y310636D01*
X169747Y310583D01*
X169656Y310534D01*
X169642Y310520D01*
X169625Y310510D01*
X169558Y310431D01*
X169486Y310356D01*
X169478Y310338D01*
X169465Y310323D01*
X169426Y310227D01*
X169383Y310133D01*
X169381Y310113D01*
X169373Y310095D01*
X169355Y309928D01*
X169355Y308851D01*
X167740Y304953D01*
X164757Y301970D01*
X160859Y300355D01*
X156641Y300355D01*
X156334Y300482D01*
X156239Y300505D01*
X156146Y300533D01*
X156120Y300532D01*
X156094Y300538D01*
X155998Y300529D01*
X155900Y300527D01*
X155876Y300518D01*
X155850Y300515D01*
X155761Y300476D01*
X155669Y300442D01*
X155649Y300426D01*
X155625Y300415D01*
X155553Y300350D01*
X155477Y300289D01*
X155463Y300267D01*
X155444Y300249D01*
X155397Y300164D01*
X155344Y300082D01*
X155338Y300056D01*
X155325Y300033D01*
X155308Y299937D01*
X155284Y299843D01*
X155286Y299817D01*
X155281Y299791D01*
X155296Y299695D01*
X155303Y299598D01*
X155313Y299574D01*
X155317Y299548D01*
X155361Y299461D01*
X155400Y299372D01*
X155420Y299346D01*
X155429Y299329D01*
X155452Y299306D01*
X155504Y299241D01*
X188957Y265788D01*
X189031Y265735D01*
X189101Y265675D01*
X189131Y265663D01*
X189157Y265644D01*
X189244Y265617D01*
X189329Y265583D01*
X189370Y265579D01*
X189392Y265572D01*
X189424Y265573D01*
X189496Y265565D01*
X192800Y265565D01*
X197051Y263804D01*
X200304Y260551D01*
X202065Y256300D01*
X202065Y251700D01*
X200304Y247449D01*
X197051Y244196D01*
X192800Y242435D01*
X188200Y242435D01*
X183949Y244196D01*
X180696Y247449D01*
X178935Y251700D01*
X178935Y255512D01*
X178921Y255602D01*
X178913Y255693D01*
X178901Y255723D01*
X178896Y255755D01*
X178853Y255836D01*
X178817Y255920D01*
X178791Y255952D01*
X178780Y255973D01*
X178757Y255995D01*
X178712Y256051D01*
X133965Y300798D01*
X133387Y302194D01*
X133352Y302250D01*
X133326Y302310D01*
X133275Y302375D01*
X133257Y302403D01*
X133242Y302416D01*
X133222Y302441D01*
X130710Y304953D01*
X130048Y306549D01*
X129985Y306652D01*
X129923Y306754D01*
X129921Y306756D01*
X129919Y306759D01*
X129825Y306836D01*
X129735Y306912D01*
X129732Y306913D01*
X129729Y306915D01*
X129617Y306959D01*
X129506Y307002D01*
X129503Y307002D01*
X129500Y307004D01*
X129380Y307009D01*
X129260Y307015D01*
X129257Y307014D01*
X129254Y307014D01*
X129140Y306981D01*
X129023Y306948D01*
X129021Y306946D01*
X129018Y306945D01*
X128920Y306877D01*
X128820Y306809D01*
X128818Y306807D01*
X128816Y306805D01*
X128809Y306796D01*
X128712Y306681D01*
X127703Y305171D01*
X126439Y303907D01*
X124951Y302913D01*
X123299Y302228D01*
X122173Y302004D01*
X122173Y316738D01*
X122170Y316758D01*
X122172Y316777D01*
X122150Y316879D01*
X122133Y316981D01*
X122124Y316998D01*
X122120Y317018D01*
X122067Y317107D01*
X122018Y317198D01*
X122004Y317212D01*
X121994Y317229D01*
X121915Y317296D01*
X121840Y317367D01*
X121822Y317376D01*
X121807Y317389D01*
X121711Y317427D01*
X121617Y317471D01*
X121597Y317473D01*
X121579Y317481D01*
X121412Y317499D01*
X120649Y317499D01*
X120649Y317501D01*
X121412Y317501D01*
X121432Y317504D01*
X121451Y317502D01*
X121553Y317524D01*
X121655Y317541D01*
X121672Y317550D01*
X121692Y317554D01*
X121781Y317607D01*
X121872Y317656D01*
X121886Y317670D01*
X121903Y317680D01*
X121970Y317759D01*
X122041Y317834D01*
X122050Y317852D01*
X122063Y317867D01*
X122102Y317963D01*
X122145Y318057D01*
X122147Y318077D01*
X122155Y318095D01*
X122173Y318262D01*
X122173Y332996D01*
X123299Y332772D01*
X124951Y332087D01*
X126439Y331093D01*
X127703Y329829D01*
X128712Y328319D01*
X128795Y328230D01*
X128875Y328143D01*
X128878Y328141D01*
X128880Y328139D01*
X128986Y328082D01*
X129091Y328024D01*
X129094Y328024D01*
X129097Y328022D01*
X129213Y328002D01*
X129333Y327981D01*
X129336Y327981D01*
X129339Y327981D01*
X129456Y327999D01*
X129576Y328016D01*
X129579Y328018D01*
X129582Y328018D01*
X129688Y328073D01*
X129795Y328128D01*
X129798Y328130D01*
X129800Y328132D01*
X129882Y328217D01*
X129968Y328304D01*
X129969Y328307D01*
X129971Y328309D01*
X129976Y328318D01*
X130048Y328451D01*
X130710Y330047D01*
X132666Y332004D01*
X132719Y332078D01*
X132779Y332147D01*
X132791Y332177D01*
X132810Y332203D01*
X132837Y332290D01*
X132871Y332375D01*
X132875Y332416D01*
X132882Y332438D01*
X132881Y332471D01*
X132889Y332542D01*
X132889Y401451D01*
X132887Y401467D01*
X132888Y401483D01*
X132874Y401549D01*
X132867Y401632D01*
X132855Y401661D01*
X132850Y401693D01*
X132837Y401716D01*
X132836Y401723D01*
X132817Y401754D01*
X132807Y401774D01*
X132771Y401858D01*
X132745Y401890D01*
X132734Y401911D01*
X132711Y401933D01*
X132666Y401989D01*
X129794Y404861D01*
X128015Y409156D01*
X128015Y429044D01*
X129794Y433339D01*
X133081Y436626D01*
X137376Y438405D01*
X142024Y438405D01*
X146319Y436626D01*
X149606Y433339D01*
X151385Y429044D01*
X151385Y409156D01*
X149606Y404861D01*
X147242Y402497D01*
X147189Y402423D01*
X147129Y402354D01*
X147117Y402323D01*
X147098Y402297D01*
X147071Y402210D01*
X147037Y402125D01*
X147033Y402084D01*
X147026Y402062D01*
X147027Y402030D01*
X147019Y401959D01*
X147019Y332034D01*
X147033Y331944D01*
X147041Y331853D01*
X147053Y331823D01*
X147058Y331791D01*
X147101Y331711D01*
X147137Y331627D01*
X147163Y331594D01*
X147174Y331574D01*
X147197Y331552D01*
X147242Y331496D01*
X148687Y330051D01*
X148703Y330039D01*
X148715Y330023D01*
X148803Y329967D01*
X148886Y329907D01*
X148905Y329901D01*
X148922Y329890D01*
X149023Y329865D01*
X149122Y329835D01*
X149141Y329835D01*
X149161Y329830D01*
X149264Y329838D01*
X149367Y329841D01*
X149386Y329848D01*
X149406Y329850D01*
X149501Y329890D01*
X149598Y329926D01*
X149614Y329938D01*
X149632Y329946D01*
X149763Y330051D01*
X152743Y333030D01*
X156641Y334645D01*
X160859Y334645D01*
X164757Y333030D01*
X167740Y330047D01*
X169355Y326149D01*
X169355Y325580D01*
X169358Y325560D01*
X169356Y325541D01*
X169378Y325439D01*
X169394Y325337D01*
X169404Y325320D01*
X169408Y325300D01*
X169461Y325211D01*
X169510Y325120D01*
X169524Y325106D01*
X169534Y325089D01*
X169613Y325022D01*
X169688Y324950D01*
X169706Y324942D01*
X169721Y324929D01*
X169817Y324890D01*
X169911Y324847D01*
X169931Y324845D01*
X169949Y324837D01*
X170116Y324819D01*
X206379Y324819D01*
X206469Y324833D01*
X206560Y324841D01*
X206590Y324853D01*
X206621Y324858D01*
X206702Y324901D01*
X206786Y324937D01*
X206818Y324963D01*
X206839Y324974D01*
X206861Y324997D01*
X206917Y325042D01*
X209281Y327406D01*
X213576Y329185D01*
X218224Y329185D01*
X222593Y327375D01*
X222638Y327343D01*
X222657Y327337D01*
X222674Y327326D01*
X222774Y327301D01*
X222873Y327270D01*
X222893Y327271D01*
X222913Y327266D01*
X223015Y327274D01*
X223119Y327277D01*
X223138Y327283D01*
X223158Y327285D01*
X223253Y327325D01*
X223350Y327361D01*
X223366Y327373D01*
X223384Y327381D01*
X223515Y327486D01*
X229870Y333841D01*
X231964Y335935D01*
X234561Y337011D01*
X273947Y337011D01*
X276544Y335935D01*
X357729Y254750D01*
X357745Y254739D01*
X357757Y254723D01*
X357845Y254667D01*
X357928Y254607D01*
X357947Y254601D01*
X357964Y254590D01*
X358065Y254565D01*
X358164Y254534D01*
X358183Y254535D01*
X358203Y254530D01*
X358306Y254538D01*
X358409Y254541D01*
X358428Y254548D01*
X358448Y254549D01*
X358543Y254590D01*
X358640Y254625D01*
X358656Y254638D01*
X358674Y254646D01*
X358805Y254750D01*
X388708Y284653D01*
X388776Y284747D01*
X388846Y284842D01*
X388848Y284848D01*
X388852Y284853D01*
X388886Y284964D01*
X388922Y285076D01*
X388922Y285082D01*
X388924Y285088D01*
X388921Y285205D01*
X388920Y285322D01*
X388918Y285329D01*
X388918Y285334D01*
X388911Y285352D01*
X388873Y285483D01*
X387095Y289776D01*
X387095Y294424D01*
X388874Y298719D01*
X392161Y302006D01*
X396456Y303785D01*
X416344Y303785D01*
X420639Y302006D01*
X423926Y298719D01*
X425705Y294424D01*
X425705Y289776D01*
X423926Y285481D01*
X420639Y282194D01*
X416344Y280415D01*
X404768Y280415D01*
X404678Y280401D01*
X404587Y280393D01*
X404557Y280381D01*
X404525Y280376D01*
X404444Y280333D01*
X404360Y280297D01*
X404328Y280271D01*
X404308Y280260D01*
X404298Y280250D01*
X404297Y280250D01*
X404283Y280235D01*
X404229Y280192D01*
X403721Y279684D01*
X403679Y279626D01*
X403630Y279574D01*
X403608Y279527D01*
X403578Y279485D01*
X403557Y279416D01*
X403526Y279351D01*
X403521Y279299D01*
X403505Y279249D01*
X403507Y279178D01*
X403499Y279107D01*
X403510Y279056D01*
X403512Y279004D01*
X403536Y278936D01*
X403552Y278866D01*
X403578Y278821D01*
X403596Y278773D01*
X403641Y278717D01*
X403678Y278655D01*
X403717Y278621D01*
X403750Y278581D01*
X403810Y278542D01*
X403865Y278495D01*
X403913Y278476D01*
X403957Y278448D01*
X404026Y278430D01*
X404093Y278403D01*
X404164Y278395D01*
X404195Y278387D01*
X404219Y278389D01*
X404260Y278385D01*
X416344Y278385D01*
X420639Y276606D01*
X423926Y273319D01*
X425705Y269024D01*
X425705Y264376D01*
X423926Y260081D01*
X420639Y256794D01*
X416344Y255015D01*
X396456Y255015D01*
X392161Y256794D01*
X388874Y260081D01*
X387917Y262392D01*
X387893Y262431D01*
X387877Y262474D01*
X387829Y262535D01*
X387788Y262601D01*
X387752Y262630D01*
X387724Y262666D01*
X387658Y262708D01*
X387598Y262757D01*
X387555Y262774D01*
X387517Y262799D01*
X387441Y262818D01*
X387368Y262846D01*
X387323Y262848D01*
X387278Y262859D01*
X387201Y262853D01*
X387123Y262856D01*
X387079Y262843D01*
X387033Y262840D01*
X386961Y262809D01*
X386886Y262787D01*
X386849Y262761D01*
X386807Y262743D01*
X386700Y262658D01*
X386684Y262647D01*
X386681Y262643D01*
X386676Y262639D01*
X362888Y238851D01*
X362835Y238777D01*
X362775Y238707D01*
X362763Y238677D01*
X362744Y238651D01*
X362717Y238564D01*
X362683Y238479D01*
X362679Y238438D01*
X362672Y238416D01*
X362673Y238384D01*
X362665Y238312D01*
X362665Y184173D01*
X362672Y184127D01*
X362670Y184081D01*
X362692Y184007D01*
X362704Y183930D01*
X362726Y183889D01*
X362739Y183845D01*
X362783Y183781D01*
X362820Y183712D01*
X362853Y183681D01*
X362879Y183643D01*
X362942Y183597D01*
X362998Y183543D01*
X363040Y183524D01*
X363076Y183496D01*
X363150Y183472D01*
X363221Y183439D01*
X363267Y183434D01*
X363310Y183420D01*
X363388Y183421D01*
X363465Y183412D01*
X363510Y183422D01*
X363556Y183423D01*
X363688Y183461D01*
X363706Y183465D01*
X363710Y183467D01*
X363717Y183469D01*
X365976Y184405D01*
X370624Y184405D01*
X374919Y182626D01*
X378206Y179339D01*
X379985Y175044D01*
X379985Y155156D01*
X378206Y150861D01*
X374919Y147574D01*
X370624Y145795D01*
X365976Y145795D01*
X363717Y146731D01*
X363673Y146741D01*
X363631Y146761D01*
X363554Y146769D01*
X363478Y146787D01*
X363432Y146783D01*
X363387Y146788D01*
X363310Y146771D01*
X363233Y146764D01*
X363191Y146745D01*
X363146Y146735D01*
X363079Y146695D01*
X363008Y146664D01*
X362974Y146633D01*
X362935Y146609D01*
X362884Y146550D01*
X362827Y146497D01*
X362805Y146457D01*
X362775Y146422D01*
X362746Y146350D01*
X362709Y146282D01*
X362700Y146237D01*
X362683Y146194D01*
X362668Y146058D01*
X362665Y146040D01*
X362666Y146035D01*
X362665Y146027D01*
X362665Y68195D01*
X362679Y68105D01*
X362687Y68014D01*
X362699Y67985D01*
X362704Y67953D01*
X362747Y67872D01*
X362783Y67788D01*
X362809Y67756D01*
X362820Y67735D01*
X362843Y67713D01*
X362888Y67657D01*
X365506Y65039D01*
X367285Y60744D01*
X367285Y40856D01*
X365506Y36561D01*
X362219Y33274D01*
X357924Y31495D01*
X353276Y31495D01*
G37*
%LPD*%
%LPC*%
G36*
X396456Y305815D02*
X396456Y305815D01*
X392161Y307594D01*
X389289Y310466D01*
X389215Y310519D01*
X389146Y310579D01*
X389115Y310591D01*
X389089Y310610D01*
X389002Y310637D01*
X388917Y310671D01*
X388876Y310675D01*
X388854Y310682D01*
X388822Y310681D01*
X388751Y310689D01*
X367149Y310689D01*
X364552Y311765D01*
X274569Y401748D01*
X274553Y401759D01*
X274540Y401775D01*
X274453Y401831D01*
X274369Y401891D01*
X274350Y401897D01*
X274334Y401908D01*
X274233Y401933D01*
X274134Y401964D01*
X274114Y401963D01*
X274095Y401968D01*
X273992Y401960D01*
X273888Y401957D01*
X273870Y401950D01*
X273850Y401949D01*
X273755Y401909D01*
X273657Y401873D01*
X273642Y401860D01*
X273624Y401853D01*
X273493Y401748D01*
X273319Y401574D01*
X269024Y399795D01*
X264376Y399795D01*
X260081Y401574D01*
X256794Y404861D01*
X255015Y409156D01*
X255015Y429044D01*
X256794Y433339D01*
X260081Y436626D01*
X264376Y438405D01*
X269024Y438405D01*
X273319Y436626D01*
X276606Y433339D01*
X278385Y429044D01*
X278385Y418230D01*
X278399Y418140D01*
X278407Y418049D01*
X278419Y418019D01*
X278424Y417987D01*
X278467Y417906D01*
X278503Y417822D01*
X278529Y417790D01*
X278540Y417770D01*
X278563Y417747D01*
X278608Y417691D01*
X279116Y417183D01*
X279174Y417141D01*
X279226Y417092D01*
X279273Y417070D01*
X279315Y417040D01*
X279384Y417019D01*
X279449Y416988D01*
X279501Y416983D01*
X279551Y416967D01*
X279622Y416969D01*
X279693Y416961D01*
X279744Y416972D01*
X279796Y416974D01*
X279864Y416998D01*
X279934Y417014D01*
X279979Y417040D01*
X280027Y417058D01*
X280083Y417103D01*
X280145Y417140D01*
X280179Y417179D01*
X280219Y417212D01*
X280258Y417272D01*
X280305Y417327D01*
X280324Y417375D01*
X280352Y417419D01*
X280370Y417488D01*
X280397Y417555D01*
X280405Y417626D01*
X280413Y417657D01*
X280411Y417681D01*
X280415Y417722D01*
X280415Y429044D01*
X282194Y433339D01*
X285481Y436626D01*
X289776Y438405D01*
X294424Y438405D01*
X298719Y436626D01*
X302006Y433339D01*
X303785Y429044D01*
X303785Y417976D01*
X303799Y417886D01*
X303807Y417795D01*
X303819Y417765D01*
X303824Y417733D01*
X303867Y417652D01*
X303903Y417568D01*
X303929Y417536D01*
X303940Y417515D01*
X303963Y417493D01*
X304008Y417437D01*
X304516Y416929D01*
X304574Y416887D01*
X304626Y416838D01*
X304673Y416816D01*
X304715Y416786D01*
X304784Y416765D01*
X304849Y416734D01*
X304901Y416729D01*
X304951Y416713D01*
X305022Y416715D01*
X305093Y416707D01*
X305144Y416718D01*
X305196Y416720D01*
X305264Y416744D01*
X305334Y416760D01*
X305378Y416786D01*
X305427Y416804D01*
X305483Y416849D01*
X305545Y416886D01*
X305579Y416925D01*
X305619Y416958D01*
X305658Y417018D01*
X305705Y417073D01*
X305724Y417121D01*
X305752Y417165D01*
X305770Y417234D01*
X305797Y417301D01*
X305805Y417372D01*
X305813Y417403D01*
X305811Y417427D01*
X305815Y417468D01*
X305815Y429044D01*
X307594Y433339D01*
X310881Y436626D01*
X315176Y438405D01*
X319824Y438405D01*
X324119Y436626D01*
X327406Y433339D01*
X329185Y429044D01*
X329185Y409156D01*
X327406Y404861D01*
X324119Y401574D01*
X322168Y400766D01*
X322129Y400742D01*
X322086Y400726D01*
X322025Y400677D01*
X321959Y400636D01*
X321929Y400601D01*
X321893Y400572D01*
X321851Y400507D01*
X321802Y400447D01*
X321785Y400404D01*
X321760Y400365D01*
X321741Y400290D01*
X321714Y400217D01*
X321712Y400171D01*
X321700Y400127D01*
X321706Y400049D01*
X321703Y399971D01*
X321716Y399927D01*
X321720Y399882D01*
X321750Y399810D01*
X321772Y399735D01*
X321798Y399698D01*
X321816Y399655D01*
X321901Y399549D01*
X321912Y399533D01*
X321916Y399530D01*
X321921Y399524D01*
X371257Y350188D01*
X371331Y350135D01*
X371401Y350075D01*
X371431Y350063D01*
X371457Y350044D01*
X371544Y350017D01*
X371629Y349983D01*
X371670Y349979D01*
X371692Y349972D01*
X371724Y349973D01*
X371796Y349965D01*
X389005Y349965D01*
X389095Y349979D01*
X389186Y349987D01*
X389215Y349999D01*
X389247Y350004D01*
X389328Y350047D01*
X389412Y350083D01*
X389444Y350109D01*
X389465Y350120D01*
X389487Y350143D01*
X389543Y350188D01*
X392161Y352806D01*
X396456Y354585D01*
X416344Y354585D01*
X420639Y352806D01*
X423926Y349519D01*
X425705Y345224D01*
X425705Y340576D01*
X423926Y336281D01*
X420639Y332994D01*
X416344Y331215D01*
X396456Y331215D01*
X392161Y332994D01*
X389543Y335612D01*
X389469Y335665D01*
X389400Y335725D01*
X389369Y335737D01*
X389343Y335756D01*
X389256Y335783D01*
X389171Y335817D01*
X389130Y335821D01*
X389108Y335828D01*
X389076Y335827D01*
X389005Y335835D01*
X367149Y335835D01*
X364552Y336911D01*
X299842Y401621D01*
X299826Y401632D01*
X299813Y401648D01*
X299726Y401704D01*
X299642Y401764D01*
X299623Y401770D01*
X299607Y401781D01*
X299506Y401806D01*
X299407Y401837D01*
X299387Y401836D01*
X299368Y401841D01*
X299265Y401833D01*
X299161Y401830D01*
X299143Y401824D01*
X299123Y401822D01*
X299028Y401782D01*
X298930Y401746D01*
X298915Y401733D01*
X298896Y401726D01*
X298765Y401621D01*
X298719Y401574D01*
X296947Y400840D01*
X296908Y400816D01*
X296865Y400800D01*
X296804Y400752D01*
X296738Y400711D01*
X296709Y400675D01*
X296673Y400647D01*
X296631Y400581D01*
X296581Y400521D01*
X296565Y400478D01*
X296540Y400440D01*
X296521Y400364D01*
X296493Y400292D01*
X296491Y400246D01*
X296480Y400201D01*
X296486Y400124D01*
X296483Y400046D01*
X296496Y400002D01*
X296499Y399956D01*
X296530Y399885D01*
X296551Y399810D01*
X296578Y399772D01*
X296595Y399730D01*
X296681Y399623D01*
X296692Y399608D01*
X296696Y399605D01*
X296700Y399599D01*
X371257Y325042D01*
X371331Y324989D01*
X371401Y324929D01*
X371431Y324917D01*
X371457Y324898D01*
X371544Y324871D01*
X371629Y324837D01*
X371670Y324833D01*
X371692Y324826D01*
X371724Y324827D01*
X371796Y324819D01*
X389259Y324819D01*
X389349Y324833D01*
X389440Y324841D01*
X389469Y324853D01*
X389501Y324858D01*
X389582Y324901D01*
X389666Y324937D01*
X389698Y324963D01*
X389719Y324974D01*
X389741Y324997D01*
X389797Y325042D01*
X392161Y327406D01*
X396456Y329185D01*
X416344Y329185D01*
X420639Y327406D01*
X423926Y324119D01*
X425705Y319824D01*
X425705Y315176D01*
X423926Y310881D01*
X420639Y307594D01*
X416344Y305815D01*
X396456Y305815D01*
G37*
%LPD*%
%LPC*%
G36*
X226276Y31495D02*
X226276Y31495D01*
X221981Y33274D01*
X218694Y36561D01*
X216915Y40856D01*
X216915Y52178D01*
X216901Y52268D01*
X216893Y52359D01*
X216881Y52389D01*
X216876Y52421D01*
X216833Y52502D01*
X216797Y52586D01*
X216771Y52618D01*
X216760Y52638D01*
X216737Y52661D01*
X216692Y52717D01*
X214660Y54749D01*
X214602Y54791D01*
X214550Y54840D01*
X214503Y54862D01*
X214461Y54892D01*
X214392Y54913D01*
X214327Y54944D01*
X214275Y54949D01*
X214225Y54965D01*
X214154Y54963D01*
X214083Y54971D01*
X214032Y54960D01*
X213980Y54958D01*
X213912Y54934D01*
X213842Y54918D01*
X213797Y54892D01*
X213749Y54874D01*
X213693Y54829D01*
X213631Y54792D01*
X213597Y54753D01*
X213557Y54720D01*
X213518Y54660D01*
X213471Y54605D01*
X213452Y54557D01*
X213424Y54513D01*
X213406Y54444D01*
X213379Y54377D01*
X213371Y54306D01*
X213363Y54275D01*
X213365Y54251D01*
X213361Y54210D01*
X213361Y52323D01*
X203962Y52323D01*
X203942Y52320D01*
X203923Y52322D01*
X203821Y52300D01*
X203719Y52283D01*
X203702Y52274D01*
X203682Y52270D01*
X203593Y52217D01*
X203502Y52168D01*
X203488Y52154D01*
X203471Y52144D01*
X203404Y52065D01*
X203333Y51990D01*
X203324Y51972D01*
X203311Y51957D01*
X203273Y51861D01*
X203229Y51767D01*
X203227Y51747D01*
X203219Y51729D01*
X203201Y51562D01*
X203201Y50799D01*
X203199Y50799D01*
X203199Y51562D01*
X203196Y51582D01*
X203198Y51601D01*
X203176Y51703D01*
X203159Y51805D01*
X203150Y51822D01*
X203146Y51842D01*
X203093Y51931D01*
X203044Y52022D01*
X203030Y52036D01*
X203020Y52053D01*
X202941Y52120D01*
X202866Y52191D01*
X202848Y52200D01*
X202833Y52213D01*
X202737Y52252D01*
X202643Y52295D01*
X202623Y52297D01*
X202605Y52305D01*
X202438Y52323D01*
X193039Y52323D01*
X193039Y59220D01*
X193289Y60799D01*
X193784Y62320D01*
X194510Y63745D01*
X195450Y65039D01*
X196581Y66170D01*
X197875Y67110D01*
X199300Y67836D01*
X199834Y68010D01*
X199901Y68044D01*
X199972Y68070D01*
X200010Y68101D01*
X200052Y68123D01*
X200105Y68177D01*
X200164Y68224D01*
X200190Y68265D01*
X200224Y68299D01*
X200256Y68367D01*
X200297Y68431D01*
X200309Y68478D01*
X200330Y68521D01*
X200339Y68596D01*
X200357Y68670D01*
X200353Y68718D01*
X200359Y68765D01*
X200344Y68840D01*
X200338Y68915D01*
X200319Y68959D01*
X200309Y69006D01*
X200271Y69072D01*
X200242Y69141D01*
X200201Y69192D01*
X200185Y69219D01*
X200166Y69236D01*
X200137Y69272D01*
X121915Y147494D01*
X121899Y147506D01*
X121886Y147521D01*
X121799Y147577D01*
X121715Y147637D01*
X121696Y147643D01*
X121679Y147654D01*
X121579Y147679D01*
X121480Y147710D01*
X121460Y147709D01*
X121441Y147714D01*
X121338Y147706D01*
X121234Y147703D01*
X121215Y147696D01*
X121195Y147695D01*
X121101Y147654D01*
X121003Y147619D01*
X120988Y147606D01*
X120969Y147598D01*
X120960Y147591D01*
X116624Y145795D01*
X111976Y145795D01*
X107681Y147574D01*
X104394Y150861D01*
X102615Y155156D01*
X102615Y175044D01*
X104394Y179339D01*
X107681Y182626D01*
X111976Y184405D01*
X116624Y184405D01*
X120919Y182626D01*
X124206Y179339D01*
X125985Y175044D01*
X125985Y163722D01*
X125999Y163632D01*
X126007Y163541D01*
X126019Y163511D01*
X126024Y163479D01*
X126067Y163398D01*
X126103Y163314D01*
X126129Y163282D01*
X126140Y163262D01*
X126163Y163239D01*
X126208Y163183D01*
X126716Y162675D01*
X126774Y162633D01*
X126826Y162584D01*
X126873Y162562D01*
X126915Y162532D01*
X126984Y162511D01*
X127049Y162480D01*
X127101Y162475D01*
X127151Y162459D01*
X127222Y162461D01*
X127293Y162453D01*
X127344Y162464D01*
X127396Y162466D01*
X127464Y162490D01*
X127534Y162506D01*
X127579Y162532D01*
X127627Y162550D01*
X127683Y162595D01*
X127745Y162632D01*
X127779Y162671D01*
X127819Y162704D01*
X127858Y162764D01*
X127905Y162819D01*
X127924Y162867D01*
X127952Y162911D01*
X127970Y162980D01*
X127997Y163047D01*
X128005Y163118D01*
X128013Y163149D01*
X128011Y163173D01*
X128015Y163214D01*
X128015Y175044D01*
X129794Y179339D01*
X133081Y182626D01*
X137376Y184405D01*
X142024Y184405D01*
X146319Y182626D01*
X149606Y179339D01*
X151385Y175044D01*
X151385Y155156D01*
X149606Y150861D01*
X146319Y147574D01*
X144188Y146692D01*
X144149Y146667D01*
X144106Y146652D01*
X144045Y146603D01*
X143979Y146562D01*
X143950Y146527D01*
X143914Y146498D01*
X143872Y146432D01*
X143822Y146372D01*
X143806Y146330D01*
X143781Y146291D01*
X143762Y146215D01*
X143734Y146143D01*
X143732Y146097D01*
X143721Y146052D01*
X143727Y145975D01*
X143724Y145897D01*
X143736Y145853D01*
X143740Y145807D01*
X143770Y145736D01*
X143792Y145661D01*
X143818Y145623D01*
X143836Y145581D01*
X143922Y145474D01*
X143932Y145459D01*
X143936Y145456D01*
X143941Y145450D01*
X220985Y68406D01*
X221001Y68394D01*
X221014Y68379D01*
X221101Y68323D01*
X221185Y68263D01*
X221204Y68257D01*
X221221Y68246D01*
X221321Y68221D01*
X221420Y68190D01*
X221440Y68191D01*
X221459Y68186D01*
X221562Y68194D01*
X221666Y68197D01*
X221685Y68204D01*
X221705Y68205D01*
X221799Y68246D01*
X221897Y68281D01*
X221912Y68294D01*
X221931Y68302D01*
X221940Y68309D01*
X226276Y70105D01*
X230924Y70105D01*
X235219Y68326D01*
X238506Y65039D01*
X240285Y60744D01*
X240285Y40856D01*
X238506Y36561D01*
X235219Y33274D01*
X230924Y31495D01*
X226276Y31495D01*
G37*
%LPD*%
%LPC*%
G36*
X327876Y31495D02*
X327876Y31495D01*
X323581Y33274D01*
X320294Y36561D01*
X318515Y40856D01*
X318515Y60744D01*
X320294Y65039D01*
X322404Y67149D01*
X322457Y67223D01*
X322517Y67292D01*
X322529Y67323D01*
X322548Y67349D01*
X322575Y67436D01*
X322609Y67521D01*
X322613Y67562D01*
X322620Y67584D01*
X322619Y67616D01*
X322627Y67687D01*
X322627Y145817D01*
X322620Y145862D01*
X322622Y145908D01*
X322600Y145983D01*
X322588Y146060D01*
X322566Y146100D01*
X322553Y146144D01*
X322509Y146208D01*
X322472Y146277D01*
X322439Y146309D01*
X322413Y146346D01*
X322351Y146393D01*
X322294Y146447D01*
X322252Y146466D01*
X322216Y146493D01*
X322142Y146517D01*
X322071Y146550D01*
X322025Y146555D01*
X321982Y146569D01*
X321904Y146569D01*
X321827Y146577D01*
X321782Y146568D01*
X321736Y146567D01*
X321604Y146529D01*
X321586Y146525D01*
X321582Y146522D01*
X321575Y146520D01*
X319824Y145795D01*
X315176Y145795D01*
X310881Y147574D01*
X307594Y150861D01*
X305815Y155156D01*
X305815Y175044D01*
X307594Y179339D01*
X310212Y181957D01*
X310265Y182031D01*
X310325Y182100D01*
X310337Y182131D01*
X310356Y182157D01*
X310383Y182244D01*
X310417Y182329D01*
X310421Y182370D01*
X310428Y182392D01*
X310427Y182424D01*
X310435Y182495D01*
X310435Y206294D01*
X310421Y206385D01*
X310413Y206475D01*
X310401Y206505D01*
X310396Y206537D01*
X310353Y206618D01*
X310317Y206702D01*
X310291Y206734D01*
X310280Y206755D01*
X310257Y206777D01*
X310212Y206833D01*
X307696Y209349D01*
X305935Y213600D01*
X305935Y218200D01*
X307696Y222451D01*
X310949Y225704D01*
X315200Y227465D01*
X319800Y227465D01*
X324051Y225704D01*
X327304Y222451D01*
X329065Y218200D01*
X329065Y213600D01*
X327304Y209349D01*
X324788Y206833D01*
X324735Y206759D01*
X324675Y206689D01*
X324663Y206659D01*
X324644Y206633D01*
X324617Y206546D01*
X324583Y206461D01*
X324579Y206420D01*
X324572Y206398D01*
X324573Y206366D01*
X324565Y206294D01*
X324565Y182495D01*
X324579Y182405D01*
X324587Y182314D01*
X324599Y182285D01*
X324604Y182253D01*
X324647Y182172D01*
X324683Y182088D01*
X324709Y182056D01*
X324720Y182035D01*
X324743Y182013D01*
X324788Y181957D01*
X327406Y179339D01*
X329185Y175044D01*
X329185Y161690D01*
X329199Y161600D01*
X329207Y161509D01*
X329219Y161479D01*
X329224Y161447D01*
X329267Y161366D01*
X329303Y161282D01*
X329329Y161250D01*
X329340Y161230D01*
X329363Y161207D01*
X329408Y161151D01*
X331440Y159119D01*
X331498Y159077D01*
X331550Y159028D01*
X331597Y159006D01*
X331639Y158976D01*
X331708Y158955D01*
X331773Y158924D01*
X331825Y158919D01*
X331875Y158903D01*
X331946Y158905D01*
X332017Y158897D01*
X332068Y158908D01*
X332120Y158910D01*
X332188Y158934D01*
X332258Y158950D01*
X332303Y158976D01*
X332351Y158994D01*
X332407Y159039D01*
X332469Y159076D01*
X332503Y159115D01*
X332543Y159148D01*
X332582Y159208D01*
X332629Y159263D01*
X332648Y159311D01*
X332676Y159355D01*
X332694Y159424D01*
X332721Y159491D01*
X332729Y159562D01*
X332737Y159593D01*
X332735Y159617D01*
X332739Y159658D01*
X332739Y163577D01*
X341377Y163577D01*
X341377Y147434D01*
X340521Y147569D01*
X339000Y148064D01*
X337864Y148643D01*
X337792Y148666D01*
X337723Y148697D01*
X337675Y148703D01*
X337629Y148717D01*
X337554Y148716D01*
X337479Y148724D01*
X337431Y148714D01*
X337383Y148714D01*
X337312Y148688D01*
X337238Y148672D01*
X337197Y148648D01*
X337151Y148631D01*
X337092Y148585D01*
X337027Y148546D01*
X336996Y148509D01*
X336958Y148480D01*
X336916Y148417D01*
X336867Y148359D01*
X336849Y148314D01*
X336823Y148274D01*
X336804Y148201D01*
X336775Y148131D01*
X336768Y148066D01*
X336760Y148036D01*
X336762Y148011D01*
X336757Y147964D01*
X336757Y68703D01*
X336771Y68613D01*
X336779Y68522D01*
X336791Y68493D01*
X336796Y68461D01*
X336839Y68380D01*
X336875Y68296D01*
X336901Y68264D01*
X336912Y68243D01*
X336935Y68221D01*
X336980Y68165D01*
X340106Y65039D01*
X341885Y60744D01*
X341885Y40856D01*
X340106Y36561D01*
X336819Y33274D01*
X332524Y31495D01*
X327876Y31495D01*
G37*
%LPD*%
%LPC*%
G36*
X73876Y31495D02*
X73876Y31495D01*
X69581Y33274D01*
X66294Y36561D01*
X64515Y40856D01*
X64515Y60744D01*
X66294Y65039D01*
X69420Y68165D01*
X69473Y68239D01*
X69533Y68308D01*
X69545Y68339D01*
X69564Y68365D01*
X69591Y68452D01*
X69625Y68537D01*
X69629Y68578D01*
X69636Y68600D01*
X69635Y68632D01*
X69643Y68703D01*
X69643Y146238D01*
X69636Y146283D01*
X69638Y146329D01*
X69616Y146404D01*
X69604Y146481D01*
X69582Y146521D01*
X69569Y146565D01*
X69525Y146629D01*
X69488Y146698D01*
X69455Y146730D01*
X69429Y146767D01*
X69367Y146814D01*
X69310Y146867D01*
X69268Y146887D01*
X69232Y146914D01*
X69158Y146938D01*
X69087Y146971D01*
X69041Y146976D01*
X68998Y146990D01*
X68920Y146990D01*
X68843Y146998D01*
X68798Y146988D01*
X68752Y146988D01*
X68620Y146950D01*
X68602Y146946D01*
X68598Y146943D01*
X68591Y146941D01*
X65824Y145795D01*
X61176Y145795D01*
X56881Y147574D01*
X53594Y150861D01*
X51815Y155156D01*
X51815Y175044D01*
X53594Y179339D01*
X56881Y182626D01*
X61176Y184405D01*
X65824Y184405D01*
X70119Y182626D01*
X73406Y179339D01*
X75185Y175044D01*
X75185Y162706D01*
X75196Y162635D01*
X75198Y162563D01*
X75216Y162514D01*
X75224Y162463D01*
X75258Y162400D01*
X75283Y162332D01*
X75315Y162291D01*
X75340Y162245D01*
X75392Y162196D01*
X75436Y162140D01*
X75480Y162112D01*
X75518Y162076D01*
X75583Y162046D01*
X75643Y162007D01*
X75694Y161994D01*
X75741Y161972D01*
X75812Y161965D01*
X75882Y161947D01*
X75934Y161951D01*
X75985Y161945D01*
X76056Y161961D01*
X76127Y161966D01*
X76175Y161987D01*
X76226Y161998D01*
X76287Y162034D01*
X76353Y162062D01*
X76409Y162107D01*
X76437Y162124D01*
X76452Y162142D01*
X76484Y162167D01*
X76992Y162675D01*
X77041Y162743D01*
X77042Y162744D01*
X77042Y162745D01*
X77046Y162750D01*
X77105Y162819D01*
X77117Y162849D01*
X77136Y162875D01*
X77163Y162962D01*
X77197Y163047D01*
X77201Y163088D01*
X77208Y163110D01*
X77207Y163142D01*
X77215Y163214D01*
X77215Y175044D01*
X78994Y179339D01*
X82281Y182626D01*
X86576Y184405D01*
X91224Y184405D01*
X95519Y182626D01*
X98806Y179339D01*
X100585Y175044D01*
X100585Y155156D01*
X98806Y150861D01*
X95519Y147574D01*
X91224Y145795D01*
X86576Y145795D01*
X84825Y146520D01*
X84781Y146531D01*
X84739Y146550D01*
X84662Y146559D01*
X84586Y146577D01*
X84540Y146572D01*
X84495Y146577D01*
X84418Y146561D01*
X84341Y146553D01*
X84299Y146535D01*
X84254Y146525D01*
X84187Y146485D01*
X84116Y146453D01*
X84082Y146422D01*
X84043Y146399D01*
X83992Y146340D01*
X83935Y146287D01*
X83913Y146247D01*
X83883Y146212D01*
X83854Y146140D01*
X83817Y146072D01*
X83808Y146026D01*
X83791Y145984D01*
X83776Y145848D01*
X83773Y145829D01*
X83774Y145824D01*
X83773Y145817D01*
X83773Y67687D01*
X83787Y67597D01*
X83795Y67506D01*
X83807Y67477D01*
X83812Y67445D01*
X83855Y67364D01*
X83891Y67280D01*
X83917Y67248D01*
X83928Y67227D01*
X83951Y67205D01*
X83996Y67149D01*
X86106Y65039D01*
X87885Y60744D01*
X87885Y40856D01*
X86106Y36561D01*
X82819Y33274D01*
X78524Y31495D01*
X73876Y31495D01*
G37*
%LPD*%
%LPC*%
G36*
X61176Y399795D02*
X61176Y399795D01*
X56881Y401574D01*
X53594Y404861D01*
X51815Y409156D01*
X51815Y429044D01*
X53594Y433339D01*
X56881Y436626D01*
X61176Y438405D01*
X65824Y438405D01*
X70119Y436626D01*
X73406Y433339D01*
X75185Y429044D01*
X75185Y409156D01*
X73406Y404861D01*
X70119Y401574D01*
X65824Y399795D01*
X61176Y399795D01*
G37*
%LPD*%
%LPC*%
G36*
X213576Y399795D02*
X213576Y399795D01*
X209281Y401574D01*
X205994Y404861D01*
X204215Y409156D01*
X204215Y429044D01*
X205994Y433339D01*
X209281Y436626D01*
X213576Y438405D01*
X218224Y438405D01*
X222519Y436626D01*
X225806Y433339D01*
X227585Y429044D01*
X227585Y409156D01*
X225806Y404861D01*
X222519Y401574D01*
X218224Y399795D01*
X213576Y399795D01*
G37*
%LPD*%
%LPC*%
G36*
X162776Y399795D02*
X162776Y399795D01*
X158481Y401574D01*
X155194Y404861D01*
X153415Y409156D01*
X153415Y429044D01*
X155194Y433339D01*
X158481Y436626D01*
X162776Y438405D01*
X167424Y438405D01*
X171719Y436626D01*
X175006Y433339D01*
X176785Y429044D01*
X176785Y409156D01*
X175006Y404861D01*
X171719Y401574D01*
X167424Y399795D01*
X162776Y399795D01*
G37*
%LPD*%
%LPC*%
G36*
X188176Y399795D02*
X188176Y399795D01*
X183881Y401574D01*
X180594Y404861D01*
X178815Y409156D01*
X178815Y429044D01*
X180594Y433339D01*
X183881Y436626D01*
X188176Y438405D01*
X192824Y438405D01*
X197119Y436626D01*
X200406Y433339D01*
X202185Y429044D01*
X202185Y409156D01*
X200406Y404861D01*
X197119Y401574D01*
X192824Y399795D01*
X188176Y399795D01*
G37*
%LPD*%
%LPC*%
G36*
X238976Y399795D02*
X238976Y399795D01*
X234681Y401574D01*
X231394Y404861D01*
X229615Y409156D01*
X229615Y429044D01*
X231394Y433339D01*
X234681Y436626D01*
X238976Y438405D01*
X243624Y438405D01*
X247919Y436626D01*
X251206Y433339D01*
X252985Y429044D01*
X252985Y409156D01*
X251206Y404861D01*
X247919Y401574D01*
X243624Y399795D01*
X238976Y399795D01*
G37*
%LPD*%
%LPC*%
G36*
X111976Y399795D02*
X111976Y399795D01*
X107681Y401574D01*
X104394Y404861D01*
X102615Y409156D01*
X102615Y429044D01*
X104394Y433339D01*
X107681Y436626D01*
X111976Y438405D01*
X116624Y438405D01*
X120919Y436626D01*
X124206Y433339D01*
X125985Y429044D01*
X125985Y409156D01*
X124206Y404861D01*
X120919Y401574D01*
X116624Y399795D01*
X111976Y399795D01*
G37*
%LPD*%
%LPC*%
G36*
X340576Y399795D02*
X340576Y399795D01*
X336281Y401574D01*
X332994Y404861D01*
X331215Y409156D01*
X331215Y429044D01*
X332994Y433339D01*
X336281Y436626D01*
X340576Y438405D01*
X345224Y438405D01*
X349519Y436626D01*
X352806Y433339D01*
X354585Y429044D01*
X354585Y409156D01*
X352806Y404861D01*
X349519Y401574D01*
X345224Y399795D01*
X340576Y399795D01*
G37*
%LPD*%
%LPC*%
G36*
X365976Y399795D02*
X365976Y399795D01*
X361681Y401574D01*
X358394Y404861D01*
X356615Y409156D01*
X356615Y429044D01*
X358394Y433339D01*
X361681Y436626D01*
X365976Y438405D01*
X370624Y438405D01*
X374919Y436626D01*
X378206Y433339D01*
X379985Y429044D01*
X379985Y409156D01*
X378206Y404861D01*
X374919Y401574D01*
X370624Y399795D01*
X365976Y399795D01*
G37*
%LPD*%
%LPC*%
G36*
X86576Y399795D02*
X86576Y399795D01*
X82281Y401574D01*
X78994Y404861D01*
X77215Y409156D01*
X77215Y429044D01*
X78994Y433339D01*
X82281Y436626D01*
X86576Y438405D01*
X91224Y438405D01*
X95519Y436626D01*
X98806Y433339D01*
X100585Y429044D01*
X100585Y409156D01*
X98806Y404861D01*
X95519Y401574D01*
X91224Y399795D01*
X86576Y399795D01*
G37*
%LPD*%
%LPC*%
G36*
X188176Y145795D02*
X188176Y145795D01*
X183881Y147574D01*
X180594Y150861D01*
X178815Y155156D01*
X178815Y175044D01*
X180594Y179339D01*
X183881Y182626D01*
X188176Y184405D01*
X192824Y184405D01*
X197119Y182626D01*
X200406Y179339D01*
X202185Y175044D01*
X202185Y155156D01*
X200406Y150861D01*
X197119Y147574D01*
X192824Y145795D01*
X188176Y145795D01*
G37*
%LPD*%
%LPC*%
G36*
X213576Y145795D02*
X213576Y145795D01*
X209281Y147574D01*
X205994Y150861D01*
X204215Y155156D01*
X204215Y175044D01*
X205994Y179339D01*
X209281Y182626D01*
X213576Y184405D01*
X218224Y184405D01*
X222519Y182626D01*
X225806Y179339D01*
X227585Y175044D01*
X227585Y155156D01*
X225806Y150861D01*
X222519Y147574D01*
X218224Y145795D01*
X213576Y145795D01*
G37*
%LPD*%
%LPC*%
G36*
X264376Y145795D02*
X264376Y145795D01*
X260081Y147574D01*
X256794Y150861D01*
X255015Y155156D01*
X255015Y175044D01*
X256794Y179339D01*
X260081Y182626D01*
X264376Y184405D01*
X269024Y184405D01*
X273319Y182626D01*
X276606Y179339D01*
X278385Y175044D01*
X278385Y155156D01*
X276606Y150861D01*
X273319Y147574D01*
X269024Y145795D01*
X264376Y145795D01*
G37*
%LPD*%
%LPC*%
G36*
X289776Y145795D02*
X289776Y145795D01*
X285481Y147574D01*
X282194Y150861D01*
X280415Y155156D01*
X280415Y175044D01*
X282194Y179339D01*
X285481Y182626D01*
X289776Y184405D01*
X294424Y184405D01*
X298719Y182626D01*
X302006Y179339D01*
X303785Y175044D01*
X303785Y155156D01*
X302006Y150861D01*
X298719Y147574D01*
X294424Y145795D01*
X289776Y145795D01*
G37*
%LPD*%
%LPC*%
G36*
X162776Y145795D02*
X162776Y145795D01*
X158481Y147574D01*
X155194Y150861D01*
X153415Y155156D01*
X153415Y175044D01*
X155194Y179339D01*
X158481Y182626D01*
X162776Y184405D01*
X167424Y184405D01*
X171719Y182626D01*
X175006Y179339D01*
X176785Y175044D01*
X176785Y155156D01*
X175006Y150861D01*
X171719Y147574D01*
X167424Y145795D01*
X162776Y145795D01*
G37*
%LPD*%
%LPC*%
G36*
X378676Y31495D02*
X378676Y31495D01*
X374381Y33274D01*
X371094Y36561D01*
X369315Y40856D01*
X369315Y60744D01*
X371094Y65039D01*
X374381Y68326D01*
X378676Y70105D01*
X383324Y70105D01*
X387619Y68326D01*
X390906Y65039D01*
X392685Y60744D01*
X392685Y40856D01*
X390906Y36561D01*
X387619Y33274D01*
X383324Y31495D01*
X378676Y31495D01*
G37*
%LPD*%
%LPC*%
G36*
X315200Y305935D02*
X315200Y305935D01*
X310949Y307696D01*
X307696Y310949D01*
X305935Y315200D01*
X305935Y319800D01*
X307696Y324051D01*
X310949Y327304D01*
X315200Y329065D01*
X319800Y329065D01*
X324051Y327304D01*
X327304Y324051D01*
X329065Y319800D01*
X329065Y315200D01*
X327304Y310949D01*
X324051Y307696D01*
X319800Y305935D01*
X315200Y305935D01*
G37*
%LPD*%
%LPC*%
G36*
X103123Y52323D02*
X103123Y52323D01*
X103123Y68466D01*
X103979Y68331D01*
X105500Y67836D01*
X106925Y67110D01*
X108219Y66170D01*
X109350Y65039D01*
X110290Y63745D01*
X111016Y62320D01*
X111511Y60799D01*
X111761Y59220D01*
X111761Y52323D01*
X103123Y52323D01*
G37*
%LPD*%
%LPC*%
G36*
X204723Y49277D02*
X204723Y49277D01*
X213361Y49277D01*
X213361Y42380D01*
X213111Y40801D01*
X212616Y39280D01*
X211890Y37855D01*
X210950Y36561D01*
X209819Y35430D01*
X208525Y34490D01*
X207100Y33764D01*
X205579Y33269D01*
X204723Y33134D01*
X204723Y49277D01*
G37*
%LPD*%
%LPC*%
G36*
X103123Y49277D02*
X103123Y49277D01*
X111761Y49277D01*
X111761Y42380D01*
X111511Y40801D01*
X111016Y39280D01*
X110290Y37855D01*
X109350Y36561D01*
X108219Y35430D01*
X106925Y34490D01*
X105500Y33764D01*
X103979Y33269D01*
X103123Y33134D01*
X103123Y49277D01*
G37*
%LPD*%
%LPC*%
G36*
X332739Y166623D02*
X332739Y166623D01*
X332739Y173520D01*
X332989Y175099D01*
X333484Y176620D01*
X334210Y178045D01*
X335150Y179339D01*
X336281Y180470D01*
X337575Y181410D01*
X339000Y182136D01*
X340521Y182631D01*
X341377Y182766D01*
X341377Y166623D01*
X332739Y166623D01*
G37*
%LPD*%
%LPC*%
G36*
X91439Y52323D02*
X91439Y52323D01*
X91439Y59220D01*
X91689Y60799D01*
X92184Y62320D01*
X92910Y63745D01*
X93850Y65039D01*
X94981Y66170D01*
X96275Y67110D01*
X97700Y67836D01*
X99221Y68331D01*
X100077Y68466D01*
X100077Y52323D01*
X91439Y52323D01*
G37*
%LPD*%
%LPC*%
G36*
X200821Y33269D02*
X200821Y33269D01*
X199300Y33764D01*
X197875Y34490D01*
X196581Y35430D01*
X195450Y36561D01*
X194510Y37855D01*
X193784Y39280D01*
X193289Y40801D01*
X193039Y42380D01*
X193039Y49277D01*
X201677Y49277D01*
X201677Y33134D01*
X200821Y33269D01*
G37*
%LPD*%
%LPC*%
G36*
X99221Y33269D02*
X99221Y33269D01*
X97700Y33764D01*
X96275Y34490D01*
X94981Y35430D01*
X93850Y36561D01*
X92910Y37855D01*
X92184Y39280D01*
X91689Y40801D01*
X91439Y42380D01*
X91439Y49277D01*
X100077Y49277D01*
X100077Y33134D01*
X99221Y33269D01*
G37*
%LPD*%
%LPC*%
G36*
X111569Y319023D02*
X111569Y319023D01*
X111569Y324934D01*
X111918Y326689D01*
X112603Y328341D01*
X113597Y329829D01*
X114861Y331093D01*
X116349Y332087D01*
X118001Y332772D01*
X119127Y332996D01*
X119127Y319023D01*
X111569Y319023D01*
G37*
%LPD*%
%LPC*%
G36*
X118001Y302228D02*
X118001Y302228D01*
X116349Y302913D01*
X114861Y303907D01*
X113597Y305171D01*
X112603Y306659D01*
X111918Y308311D01*
X111569Y310066D01*
X111569Y315977D01*
X119127Y315977D01*
X119127Y302004D01*
X118001Y302228D01*
G37*
%LPD*%
%LPC*%
G36*
X90423Y255523D02*
X90423Y255523D01*
X90423Y263925D01*
X91251Y263794D01*
X92754Y263305D01*
X94163Y262588D01*
X95441Y261659D01*
X96559Y260541D01*
X97488Y259263D01*
X98205Y257854D01*
X98694Y256351D01*
X98825Y255523D01*
X90423Y255523D01*
G37*
%LPD*%
%LPC*%
G36*
X90423Y252477D02*
X90423Y252477D01*
X98825Y252477D01*
X98694Y251649D01*
X98205Y250146D01*
X97488Y248737D01*
X96559Y247459D01*
X95441Y246341D01*
X94163Y245412D01*
X92754Y244695D01*
X91251Y244206D01*
X90423Y244075D01*
X90423Y252477D01*
G37*
%LPD*%
%LPC*%
G36*
X78975Y255523D02*
X78975Y255523D01*
X79106Y256351D01*
X79595Y257854D01*
X80312Y259263D01*
X81241Y260541D01*
X82359Y261659D01*
X83637Y262588D01*
X85046Y263305D01*
X86549Y263794D01*
X87377Y263925D01*
X87377Y255523D01*
X78975Y255523D01*
G37*
%LPD*%
%LPC*%
G36*
X86549Y244206D02*
X86549Y244206D01*
X85046Y244695D01*
X83637Y245412D01*
X82359Y246341D01*
X81241Y247459D01*
X80312Y248737D01*
X79595Y250146D01*
X79106Y251649D01*
X78975Y252477D01*
X87377Y252477D01*
X87377Y244075D01*
X86549Y244206D01*
G37*
%LPD*%
%LPC*%
G36*
X101599Y50799D02*
X101599Y50799D01*
X101599Y50801D01*
X101601Y50801D01*
X101601Y50799D01*
X101599Y50799D01*
G37*
%LPD*%
%LPC*%
G36*
X88899Y253999D02*
X88899Y253999D01*
X88899Y254001D01*
X88901Y254001D01*
X88901Y253999D01*
X88899Y253999D01*
G37*
%LPD*%
D10*
X266700Y317500D03*
X241300Y317500D03*
X215900Y317500D03*
D11*
X63500Y172720D02*
X63500Y157480D01*
X88900Y157480D02*
X88900Y172720D01*
X114300Y172720D02*
X114300Y157480D01*
X139700Y157480D02*
X139700Y172720D01*
X165100Y172720D02*
X165100Y157480D01*
X190500Y157480D02*
X190500Y172720D01*
X215900Y172720D02*
X215900Y157480D01*
X241300Y157480D02*
X241300Y172720D01*
X266700Y172720D02*
X266700Y157480D01*
X292100Y157480D02*
X292100Y172720D01*
X317500Y172720D02*
X317500Y157480D01*
X342900Y157480D02*
X342900Y172720D01*
X368300Y172720D02*
X368300Y157480D01*
X63500Y411480D02*
X63500Y426720D01*
X88900Y426720D02*
X88900Y411480D01*
X114300Y411480D02*
X114300Y426720D01*
X139700Y426720D02*
X139700Y411480D01*
X165100Y411480D02*
X165100Y426720D01*
X190500Y426720D02*
X190500Y411480D01*
X215900Y411480D02*
X215900Y426720D01*
X241300Y426720D02*
X241300Y411480D01*
X266700Y411480D02*
X266700Y426720D01*
X292100Y426720D02*
X292100Y411480D01*
X317500Y411480D02*
X317500Y426720D01*
X342900Y426720D02*
X342900Y411480D01*
X368300Y411480D02*
X368300Y426720D01*
D12*
X88900Y254000D03*
X190500Y254000D03*
D13*
X139700Y310960D02*
X139700Y324040D01*
X120650Y324040D02*
X120650Y310960D01*
X158750Y310960D02*
X158750Y324040D01*
D12*
X317500Y317500D03*
X317500Y215900D03*
D11*
X381000Y58420D02*
X381000Y43180D01*
X355600Y43180D02*
X355600Y58420D01*
X330200Y58420D02*
X330200Y43180D01*
X228600Y43180D02*
X228600Y58420D01*
X203200Y58420D02*
X203200Y43180D01*
X101600Y43180D02*
X101600Y58420D01*
X76200Y58420D02*
X76200Y43180D01*
X398780Y292100D02*
X414020Y292100D01*
X414020Y317500D02*
X398780Y317500D01*
X398780Y342900D02*
X414020Y342900D01*
X414020Y266700D02*
X398780Y266700D01*
D14*
X139954Y304800D02*
X139954Y316992D01*
X139954Y304800D02*
X190246Y254508D01*
X139954Y316992D02*
X139700Y317500D01*
X190246Y254508D02*
X190500Y254000D01*
X139954Y320040D02*
X139954Y419100D01*
X139700Y419100D01*
X139954Y320040D02*
X139700Y317500D01*
X368554Y342900D02*
X406400Y342900D01*
X368554Y342900D02*
X292354Y419100D01*
X292100Y419100D01*
X241300Y317500D02*
X241300Y165100D01*
X76708Y152400D02*
X76708Y51054D01*
X76708Y152400D02*
X88900Y164592D01*
X76708Y51054D02*
X76200Y50800D01*
X88900Y164592D02*
X88900Y165100D01*
X114300Y165100D02*
X228600Y50800D01*
X120142Y285750D02*
X120142Y316992D01*
X120142Y285750D02*
X88900Y254508D01*
X120142Y316992D02*
X120650Y317500D01*
X88900Y254508D02*
X88900Y254000D01*
X101854Y51054D02*
X203200Y51054D01*
X101854Y51054D02*
X101600Y50800D01*
X203200Y51054D02*
X203200Y50800D01*
X342646Y38100D02*
X342646Y164592D01*
X342646Y38100D02*
X335026Y30480D01*
X223012Y30480D01*
X204724Y48768D01*
X342646Y164592D02*
X342900Y165100D01*
X203200Y50800D02*
X204724Y48768D01*
X90424Y188976D02*
X90424Y251460D01*
X90424Y188976D02*
X101092Y178308D01*
X101092Y53340D01*
X90424Y251460D02*
X88900Y254000D01*
X101092Y53340D02*
X101600Y50800D01*
X317500Y165100D02*
X317500Y215900D01*
X329692Y150876D02*
X329692Y51054D01*
X329692Y150876D02*
X318262Y162306D01*
X329692Y51054D02*
X330200Y50800D01*
X318262Y162306D02*
X317500Y165100D01*
X215392Y317754D02*
X159004Y317754D01*
X158750Y317500D01*
X215392Y317754D02*
X215900Y317500D01*
X355600Y241554D02*
X355600Y50800D01*
X358267Y244221D02*
X405892Y291846D01*
X358267Y244221D02*
X355600Y241554D01*
X405892Y291846D02*
X406400Y292100D01*
X225298Y319278D02*
X218440Y319278D01*
X225298Y319278D02*
X235966Y329946D01*
X272542Y329946D01*
X358267Y244221D01*
X218440Y319278D02*
X215900Y317500D01*
X368554Y317754D02*
X405892Y317754D01*
X368554Y317754D02*
X267208Y419100D01*
X405892Y317754D02*
X406400Y317500D01*
X267208Y419100D02*
X266700Y419100D01*
M02*
