G04 EAGLE Gerber RS-274X export*
G75*
%MOMM*%
%FSLAX34Y34*%
%LPD*%
%INBottom Copper*%
%IPPOS*%
%AMOC8*
5,1,8,0,0,1.08239X$1,22.5*%
G01*
%ADD10C,1.524000*%
%ADD11C,1.524000*%
%ADD12C,1.500000*%
%ADD13C,1.308000*%
%ADD14C,0.600000*%

G36*
X573098Y467364D02*
X573098Y467364D01*
X573117Y467362D01*
X573219Y467384D01*
X573321Y467400D01*
X573338Y467410D01*
X573358Y467414D01*
X573447Y467467D01*
X573538Y467516D01*
X573552Y467530D01*
X573569Y467540D01*
X573636Y467619D01*
X573708Y467694D01*
X573716Y467712D01*
X573729Y467727D01*
X573768Y467823D01*
X573811Y467917D01*
X573813Y467937D01*
X573821Y467955D01*
X573839Y468122D01*
X573839Y912878D01*
X573836Y912898D01*
X573838Y912917D01*
X573816Y913019D01*
X573800Y913121D01*
X573790Y913138D01*
X573786Y913158D01*
X573733Y913247D01*
X573684Y913338D01*
X573670Y913352D01*
X573660Y913369D01*
X573581Y913436D01*
X573506Y913508D01*
X573488Y913516D01*
X573473Y913529D01*
X573377Y913568D01*
X573283Y913611D01*
X573263Y913613D01*
X573245Y913621D01*
X573078Y913639D01*
X112522Y913639D01*
X112502Y913636D01*
X112483Y913638D01*
X112381Y913616D01*
X112279Y913600D01*
X112262Y913590D01*
X112242Y913586D01*
X112153Y913533D01*
X112062Y913484D01*
X112048Y913470D01*
X112031Y913460D01*
X111964Y913381D01*
X111892Y913306D01*
X111884Y913288D01*
X111871Y913273D01*
X111832Y913177D01*
X111789Y913083D01*
X111787Y913063D01*
X111779Y913045D01*
X111761Y912878D01*
X111761Y892222D01*
X111764Y892202D01*
X111762Y892183D01*
X111784Y892081D01*
X111800Y891979D01*
X111810Y891962D01*
X111814Y891942D01*
X111867Y891853D01*
X111916Y891762D01*
X111930Y891748D01*
X111940Y891731D01*
X112019Y891664D01*
X112094Y891592D01*
X112112Y891584D01*
X112127Y891571D01*
X112223Y891532D01*
X112317Y891489D01*
X112337Y891487D01*
X112355Y891479D01*
X112522Y891461D01*
X117316Y891461D01*
X122888Y889153D01*
X127153Y884888D01*
X129461Y879316D01*
X129461Y873284D01*
X127153Y867712D01*
X122888Y863447D01*
X117316Y861139D01*
X112522Y861139D01*
X112502Y861136D01*
X112483Y861138D01*
X112381Y861116D01*
X112279Y861100D01*
X112262Y861090D01*
X112242Y861086D01*
X112153Y861033D01*
X112062Y860984D01*
X112048Y860970D01*
X112031Y860960D01*
X111964Y860881D01*
X111892Y860806D01*
X111884Y860788D01*
X111871Y860773D01*
X111832Y860677D01*
X111789Y860583D01*
X111787Y860563D01*
X111779Y860545D01*
X111761Y860378D01*
X111761Y638222D01*
X111764Y638202D01*
X111762Y638183D01*
X111784Y638081D01*
X111800Y637979D01*
X111810Y637962D01*
X111814Y637942D01*
X111867Y637853D01*
X111916Y637762D01*
X111930Y637748D01*
X111940Y637731D01*
X112019Y637664D01*
X112094Y637592D01*
X112112Y637584D01*
X112127Y637571D01*
X112223Y637532D01*
X112317Y637489D01*
X112337Y637487D01*
X112355Y637479D01*
X112522Y637461D01*
X117316Y637461D01*
X122888Y635153D01*
X127153Y630888D01*
X129461Y625316D01*
X129461Y619284D01*
X127153Y613712D01*
X122888Y609447D01*
X117316Y607139D01*
X112522Y607139D01*
X112502Y607136D01*
X112483Y607138D01*
X112381Y607116D01*
X112279Y607100D01*
X112262Y607090D01*
X112242Y607086D01*
X112153Y607033D01*
X112062Y606984D01*
X112048Y606970D01*
X112031Y606960D01*
X111964Y606881D01*
X111892Y606806D01*
X111884Y606788D01*
X111871Y606773D01*
X111832Y606677D01*
X111789Y606583D01*
X111787Y606563D01*
X111779Y606545D01*
X111761Y606378D01*
X111761Y468122D01*
X111764Y468102D01*
X111762Y468083D01*
X111784Y467981D01*
X111800Y467879D01*
X111810Y467862D01*
X111814Y467842D01*
X111867Y467753D01*
X111916Y467662D01*
X111930Y467648D01*
X111940Y467631D01*
X112019Y467564D01*
X112094Y467492D01*
X112112Y467484D01*
X112127Y467471D01*
X112223Y467432D01*
X112317Y467389D01*
X112337Y467387D01*
X112355Y467379D01*
X112522Y467361D01*
X573078Y467361D01*
X573098Y467364D01*
G37*
%LPC*%
G36*
X454876Y488695D02*
X454876Y488695D01*
X450581Y490474D01*
X447294Y493761D01*
X445515Y498056D01*
X445515Y517944D01*
X447294Y522239D01*
X449912Y524857D01*
X449965Y524931D01*
X450025Y525000D01*
X450037Y525031D01*
X450056Y525057D01*
X450083Y525144D01*
X450117Y525229D01*
X450121Y525270D01*
X450128Y525292D01*
X450127Y525324D01*
X450135Y525395D01*
X450135Y604905D01*
X450123Y604980D01*
X450120Y605056D01*
X450103Y605101D01*
X450096Y605148D01*
X450060Y605215D01*
X450033Y605286D01*
X450003Y605323D01*
X449980Y605366D01*
X449926Y605418D01*
X449878Y605476D01*
X449837Y605502D01*
X449802Y605535D01*
X449733Y605567D01*
X449669Y605607D01*
X449623Y605618D01*
X449579Y605639D01*
X449504Y605647D01*
X449430Y605665D01*
X449382Y605660D01*
X449335Y605666D01*
X449261Y605650D01*
X449185Y605643D01*
X449125Y605620D01*
X449094Y605613D01*
X449072Y605600D01*
X449028Y605584D01*
X448400Y605264D01*
X446879Y604769D01*
X446023Y604634D01*
X446023Y621538D01*
X446020Y621558D01*
X446022Y621577D01*
X446000Y621679D01*
X445983Y621781D01*
X445974Y621798D01*
X445970Y621818D01*
X445917Y621907D01*
X445868Y621998D01*
X445854Y622012D01*
X445844Y622029D01*
X445765Y622096D01*
X445690Y622167D01*
X445672Y622176D01*
X445657Y622189D01*
X445561Y622227D01*
X445467Y622271D01*
X445447Y622273D01*
X445429Y622281D01*
X445262Y622299D01*
X444499Y622299D01*
X444499Y622301D01*
X445262Y622301D01*
X445282Y622304D01*
X445301Y622302D01*
X445403Y622324D01*
X445505Y622341D01*
X445522Y622350D01*
X445542Y622354D01*
X445631Y622407D01*
X445722Y622456D01*
X445736Y622470D01*
X445753Y622480D01*
X445820Y622559D01*
X445891Y622634D01*
X445900Y622652D01*
X445913Y622667D01*
X445952Y622763D01*
X445995Y622857D01*
X445997Y622877D01*
X446005Y622895D01*
X446023Y623062D01*
X446023Y639966D01*
X446879Y639831D01*
X448400Y639336D01*
X449028Y639016D01*
X449100Y638993D01*
X449169Y638961D01*
X449217Y638956D01*
X449263Y638942D01*
X449338Y638943D01*
X449413Y638934D01*
X449461Y638945D01*
X449509Y638945D01*
X449580Y638971D01*
X449654Y638987D01*
X449695Y639011D01*
X449741Y639027D01*
X449800Y639074D01*
X449865Y639113D01*
X449896Y639149D01*
X449934Y639179D01*
X449976Y639242D01*
X450025Y639300D01*
X450043Y639344D01*
X450069Y639385D01*
X450089Y639458D01*
X450117Y639528D01*
X450124Y639593D01*
X450132Y639622D01*
X450130Y639648D01*
X450135Y639695D01*
X450135Y700159D01*
X450234Y700398D01*
X450261Y700511D01*
X450289Y700625D01*
X450289Y700632D01*
X450290Y700638D01*
X450279Y700754D01*
X450270Y700870D01*
X450268Y700876D01*
X450267Y700882D01*
X450219Y700990D01*
X450174Y701097D01*
X450169Y701103D01*
X450167Y701107D01*
X450154Y701121D01*
X450069Y701228D01*
X380479Y770818D01*
X380442Y770845D01*
X380411Y770879D01*
X380342Y770916D01*
X380279Y770962D01*
X380235Y770975D01*
X380195Y770997D01*
X380118Y771011D01*
X380044Y771034D01*
X379998Y771033D01*
X379953Y771041D01*
X379876Y771030D01*
X379798Y771028D01*
X379755Y771012D01*
X379710Y771005D01*
X379640Y770970D01*
X379567Y770943D01*
X379531Y770915D01*
X379490Y770894D01*
X379436Y770838D01*
X379375Y770790D01*
X379350Y770751D01*
X379318Y770718D01*
X379252Y770598D01*
X379242Y770583D01*
X379241Y770578D01*
X379237Y770571D01*
X378206Y768081D01*
X374919Y764794D01*
X370624Y763015D01*
X365976Y763015D01*
X361681Y764794D01*
X358394Y768081D01*
X356615Y772376D01*
X356615Y777024D01*
X357446Y779029D01*
X357456Y779073D01*
X357475Y779115D01*
X357484Y779192D01*
X357502Y779268D01*
X357497Y779314D01*
X357502Y779359D01*
X357486Y779436D01*
X357479Y779513D01*
X357460Y779555D01*
X357450Y779600D01*
X357410Y779667D01*
X357379Y779738D01*
X357348Y779772D01*
X357324Y779811D01*
X357265Y779862D01*
X357212Y779919D01*
X357172Y779941D01*
X357137Y779971D01*
X357065Y780000D01*
X356997Y780037D01*
X356952Y780046D01*
X356909Y780063D01*
X356773Y780078D01*
X356755Y780081D01*
X356750Y780080D01*
X356742Y780081D01*
X354458Y780081D01*
X354412Y780074D01*
X354367Y780076D01*
X354292Y780054D01*
X354215Y780042D01*
X354174Y780020D01*
X354130Y780007D01*
X354066Y779963D01*
X353998Y779926D01*
X353966Y779893D01*
X353928Y779867D01*
X353882Y779805D01*
X353828Y779748D01*
X353809Y779706D01*
X353782Y779670D01*
X353757Y779596D01*
X353725Y779525D01*
X353720Y779479D01*
X353705Y779436D01*
X353706Y779358D01*
X353698Y779281D01*
X353707Y779236D01*
X353708Y779190D01*
X353746Y779058D01*
X353750Y779040D01*
X353752Y779036D01*
X353754Y779029D01*
X354585Y777024D01*
X354585Y772376D01*
X352806Y768081D01*
X350188Y765463D01*
X350135Y765389D01*
X350075Y765320D01*
X350063Y765290D01*
X350044Y765263D01*
X350017Y765176D01*
X349983Y765091D01*
X349979Y765051D01*
X349972Y765028D01*
X349973Y764996D01*
X349965Y764925D01*
X349965Y639695D01*
X349979Y639605D01*
X349987Y639514D01*
X349999Y639485D01*
X350004Y639453D01*
X350047Y639372D01*
X350083Y639288D01*
X350109Y639256D01*
X350120Y639235D01*
X350143Y639213D01*
X350188Y639157D01*
X352806Y636539D01*
X354585Y632244D01*
X354585Y612356D01*
X352806Y608061D01*
X349519Y604774D01*
X345224Y602995D01*
X340576Y602995D01*
X336281Y604774D01*
X332994Y608061D01*
X331215Y612356D01*
X331215Y632244D01*
X332994Y636539D01*
X335612Y639157D01*
X335665Y639231D01*
X335725Y639300D01*
X335737Y639331D01*
X335756Y639357D01*
X335783Y639444D01*
X335817Y639529D01*
X335821Y639570D01*
X335828Y639592D01*
X335827Y639624D01*
X335835Y639695D01*
X335835Y764925D01*
X335821Y765015D01*
X335813Y765106D01*
X335801Y765136D01*
X335796Y765167D01*
X335753Y765248D01*
X335717Y765332D01*
X335691Y765364D01*
X335680Y765385D01*
X335657Y765407D01*
X335612Y765463D01*
X332994Y768081D01*
X332112Y770212D01*
X332087Y770251D01*
X332072Y770294D01*
X332023Y770355D01*
X331982Y770421D01*
X331947Y770450D01*
X331918Y770486D01*
X331853Y770528D01*
X331792Y770578D01*
X331750Y770594D01*
X331711Y770619D01*
X331635Y770638D01*
X331563Y770666D01*
X331517Y770668D01*
X331472Y770679D01*
X331395Y770673D01*
X331317Y770676D01*
X331273Y770664D01*
X331227Y770660D01*
X331156Y770630D01*
X331081Y770608D01*
X331043Y770582D01*
X331001Y770564D01*
X330915Y770495D01*
X328177Y769361D01*
X328100Y769313D01*
X328018Y769272D01*
X327996Y769249D01*
X327968Y769231D01*
X327910Y769161D01*
X327846Y769096D01*
X327826Y769060D01*
X327811Y769042D01*
X327800Y769012D01*
X327765Y768949D01*
X327406Y768081D01*
X324119Y764794D01*
X319824Y763015D01*
X315176Y763015D01*
X310881Y764794D01*
X308009Y767666D01*
X307935Y767719D01*
X307866Y767779D01*
X307836Y767791D01*
X307809Y767810D01*
X307722Y767837D01*
X307637Y767871D01*
X307597Y767875D01*
X307574Y767882D01*
X307542Y767881D01*
X307471Y767889D01*
X271716Y767889D01*
X271696Y767886D01*
X271677Y767888D01*
X271575Y767866D01*
X271473Y767850D01*
X271456Y767840D01*
X271436Y767836D01*
X271347Y767783D01*
X271256Y767734D01*
X271242Y767720D01*
X271225Y767710D01*
X271158Y767631D01*
X271086Y767556D01*
X271078Y767538D01*
X271065Y767523D01*
X271026Y767427D01*
X270983Y767333D01*
X270981Y767313D01*
X270973Y767295D01*
X270955Y767128D01*
X270955Y766051D01*
X269340Y762153D01*
X266357Y759170D01*
X262459Y757555D01*
X258241Y757555D01*
X257934Y757682D01*
X257839Y757705D01*
X257746Y757733D01*
X257720Y757732D01*
X257694Y757738D01*
X257598Y757729D01*
X257500Y757727D01*
X257476Y757718D01*
X257450Y757715D01*
X257361Y757676D01*
X257269Y757642D01*
X257249Y757626D01*
X257225Y757615D01*
X257153Y757550D01*
X257077Y757489D01*
X257063Y757467D01*
X257044Y757449D01*
X256997Y757364D01*
X256944Y757282D01*
X256938Y757256D01*
X256925Y757233D01*
X256908Y757137D01*
X256884Y757043D01*
X256886Y757017D01*
X256881Y756991D01*
X256896Y756895D01*
X256903Y756798D01*
X256913Y756774D01*
X256917Y756748D01*
X256961Y756661D01*
X257000Y756572D01*
X257020Y756546D01*
X257029Y756529D01*
X257052Y756506D01*
X257104Y756441D01*
X290557Y722988D01*
X290631Y722935D01*
X290701Y722875D01*
X290731Y722863D01*
X290757Y722844D01*
X290844Y722817D01*
X290929Y722783D01*
X290970Y722779D01*
X290992Y722772D01*
X291024Y722773D01*
X291096Y722765D01*
X294400Y722765D01*
X298651Y721004D01*
X301904Y717751D01*
X303665Y713500D01*
X303665Y708900D01*
X301904Y704649D01*
X298651Y701396D01*
X294400Y699635D01*
X289800Y699635D01*
X285549Y701396D01*
X282296Y704649D01*
X280535Y708900D01*
X280535Y712712D01*
X280521Y712802D01*
X280513Y712893D01*
X280501Y712923D01*
X280496Y712955D01*
X280453Y713036D01*
X280417Y713120D01*
X280391Y713152D01*
X280380Y713173D01*
X280357Y713195D01*
X280312Y713251D01*
X235565Y757998D01*
X234987Y759394D01*
X234952Y759450D01*
X234926Y759510D01*
X234875Y759575D01*
X234857Y759603D01*
X234842Y759616D01*
X234822Y759641D01*
X232310Y762153D01*
X231648Y763749D01*
X231585Y763852D01*
X231523Y763954D01*
X231521Y763956D01*
X231519Y763959D01*
X231425Y764036D01*
X231335Y764112D01*
X231332Y764113D01*
X231329Y764115D01*
X231217Y764159D01*
X231106Y764202D01*
X231103Y764202D01*
X231100Y764204D01*
X230980Y764209D01*
X230860Y764215D01*
X230857Y764214D01*
X230854Y764214D01*
X230740Y764181D01*
X230623Y764148D01*
X230621Y764146D01*
X230618Y764145D01*
X230520Y764077D01*
X230420Y764009D01*
X230418Y764007D01*
X230416Y764005D01*
X230409Y763996D01*
X230312Y763881D01*
X229303Y762371D01*
X228039Y761107D01*
X226551Y760113D01*
X224899Y759428D01*
X223773Y759204D01*
X223773Y773938D01*
X223770Y773958D01*
X223772Y773977D01*
X223750Y774079D01*
X223733Y774181D01*
X223724Y774198D01*
X223720Y774218D01*
X223667Y774307D01*
X223618Y774398D01*
X223604Y774412D01*
X223594Y774429D01*
X223515Y774496D01*
X223440Y774567D01*
X223422Y774576D01*
X223407Y774589D01*
X223311Y774627D01*
X223217Y774671D01*
X223197Y774673D01*
X223179Y774681D01*
X223012Y774699D01*
X222249Y774699D01*
X222249Y774701D01*
X223012Y774701D01*
X223032Y774704D01*
X223051Y774702D01*
X223153Y774724D01*
X223255Y774741D01*
X223272Y774750D01*
X223292Y774754D01*
X223381Y774807D01*
X223472Y774856D01*
X223486Y774870D01*
X223503Y774880D01*
X223570Y774959D01*
X223641Y775034D01*
X223650Y775052D01*
X223663Y775067D01*
X223702Y775163D01*
X223745Y775257D01*
X223747Y775277D01*
X223755Y775295D01*
X223773Y775462D01*
X223773Y790196D01*
X224899Y789972D01*
X226551Y789287D01*
X228039Y788293D01*
X229303Y787029D01*
X230312Y785519D01*
X230395Y785430D01*
X230475Y785343D01*
X230478Y785341D01*
X230480Y785339D01*
X230586Y785282D01*
X230691Y785224D01*
X230694Y785224D01*
X230697Y785222D01*
X230813Y785202D01*
X230933Y785181D01*
X230936Y785181D01*
X230939Y785181D01*
X231056Y785199D01*
X231176Y785216D01*
X231179Y785218D01*
X231182Y785218D01*
X231288Y785273D01*
X231395Y785328D01*
X231398Y785330D01*
X231400Y785332D01*
X231482Y785417D01*
X231568Y785504D01*
X231569Y785507D01*
X231571Y785509D01*
X231576Y785518D01*
X231648Y785651D01*
X232310Y787247D01*
X234266Y789204D01*
X234319Y789278D01*
X234379Y789347D01*
X234391Y789377D01*
X234410Y789403D01*
X234437Y789490D01*
X234471Y789575D01*
X234475Y789616D01*
X234482Y789638D01*
X234481Y789671D01*
X234489Y789742D01*
X234489Y858651D01*
X234487Y858667D01*
X234488Y858683D01*
X234474Y858749D01*
X234467Y858832D01*
X234455Y858861D01*
X234450Y858893D01*
X234437Y858916D01*
X234436Y858923D01*
X234417Y858954D01*
X234407Y858974D01*
X234371Y859058D01*
X234345Y859090D01*
X234334Y859111D01*
X234311Y859133D01*
X234266Y859189D01*
X231394Y862061D01*
X229615Y866356D01*
X229615Y886244D01*
X231394Y890539D01*
X234681Y893826D01*
X238976Y895605D01*
X243624Y895605D01*
X247919Y893826D01*
X251206Y890539D01*
X252985Y886244D01*
X252985Y866356D01*
X251206Y862061D01*
X248842Y859697D01*
X248789Y859623D01*
X248729Y859554D01*
X248717Y859523D01*
X248698Y859497D01*
X248671Y859410D01*
X248637Y859325D01*
X248633Y859284D01*
X248626Y859262D01*
X248627Y859230D01*
X248619Y859159D01*
X248619Y789234D01*
X248633Y789144D01*
X248641Y789053D01*
X248653Y789023D01*
X248658Y788991D01*
X248701Y788911D01*
X248737Y788827D01*
X248763Y788794D01*
X248774Y788774D01*
X248797Y788752D01*
X248842Y788696D01*
X250287Y787251D01*
X250303Y787239D01*
X250315Y787223D01*
X250403Y787167D01*
X250486Y787107D01*
X250505Y787101D01*
X250522Y787090D01*
X250623Y787065D01*
X250722Y787035D01*
X250741Y787035D01*
X250761Y787030D01*
X250864Y787038D01*
X250967Y787041D01*
X250986Y787048D01*
X251006Y787050D01*
X251101Y787090D01*
X251198Y787126D01*
X251214Y787138D01*
X251232Y787146D01*
X251363Y787251D01*
X254343Y790230D01*
X258241Y791845D01*
X262459Y791845D01*
X266357Y790230D01*
X269340Y787247D01*
X270955Y783349D01*
X270955Y782780D01*
X270958Y782760D01*
X270956Y782741D01*
X270978Y782639D01*
X270994Y782537D01*
X271004Y782520D01*
X271008Y782500D01*
X271061Y782411D01*
X271110Y782320D01*
X271124Y782306D01*
X271134Y782289D01*
X271213Y782222D01*
X271288Y782150D01*
X271306Y782142D01*
X271321Y782129D01*
X271417Y782090D01*
X271511Y782047D01*
X271531Y782045D01*
X271549Y782037D01*
X271716Y782019D01*
X307979Y782019D01*
X308069Y782033D01*
X308160Y782041D01*
X308190Y782053D01*
X308221Y782058D01*
X308302Y782101D01*
X308386Y782137D01*
X308418Y782163D01*
X308439Y782174D01*
X308461Y782197D01*
X308517Y782242D01*
X310881Y784606D01*
X315176Y786385D01*
X319824Y786385D01*
X324193Y784575D01*
X324238Y784543D01*
X324257Y784537D01*
X324274Y784526D01*
X324374Y784501D01*
X324473Y784470D01*
X324493Y784471D01*
X324513Y784466D01*
X324615Y784474D01*
X324719Y784477D01*
X324738Y784483D01*
X324758Y784485D01*
X324853Y784525D01*
X324950Y784561D01*
X324966Y784573D01*
X324984Y784581D01*
X325115Y784686D01*
X331470Y791041D01*
X333564Y793135D01*
X336161Y794211D01*
X375547Y794211D01*
X378144Y793135D01*
X459329Y711950D01*
X459345Y711939D01*
X459357Y711923D01*
X459445Y711867D01*
X459528Y711807D01*
X459547Y711801D01*
X459564Y711790D01*
X459665Y711765D01*
X459764Y711734D01*
X459783Y711735D01*
X459803Y711730D01*
X459906Y711738D01*
X460009Y711741D01*
X460028Y711748D01*
X460048Y711749D01*
X460143Y711790D01*
X460240Y711825D01*
X460256Y711838D01*
X460274Y711846D01*
X460405Y711950D01*
X490308Y741853D01*
X490376Y741947D01*
X490446Y742042D01*
X490448Y742048D01*
X490452Y742053D01*
X490486Y742164D01*
X490522Y742276D01*
X490522Y742282D01*
X490524Y742288D01*
X490521Y742405D01*
X490520Y742522D01*
X490518Y742529D01*
X490518Y742534D01*
X490511Y742552D01*
X490473Y742683D01*
X488695Y746976D01*
X488695Y751624D01*
X490474Y755919D01*
X493761Y759206D01*
X498056Y760985D01*
X517944Y760985D01*
X522239Y759206D01*
X525526Y755919D01*
X527305Y751624D01*
X527305Y746976D01*
X525526Y742681D01*
X522239Y739394D01*
X517944Y737615D01*
X506368Y737615D01*
X506278Y737601D01*
X506187Y737593D01*
X506157Y737581D01*
X506125Y737576D01*
X506044Y737533D01*
X505960Y737497D01*
X505928Y737471D01*
X505908Y737460D01*
X505898Y737450D01*
X505897Y737450D01*
X505883Y737435D01*
X505829Y737392D01*
X505321Y736884D01*
X505279Y736826D01*
X505230Y736774D01*
X505208Y736727D01*
X505178Y736685D01*
X505157Y736616D01*
X505126Y736551D01*
X505121Y736499D01*
X505105Y736449D01*
X505107Y736378D01*
X505099Y736307D01*
X505110Y736256D01*
X505112Y736204D01*
X505136Y736136D01*
X505152Y736066D01*
X505178Y736021D01*
X505196Y735973D01*
X505241Y735917D01*
X505278Y735855D01*
X505317Y735821D01*
X505350Y735781D01*
X505410Y735742D01*
X505465Y735695D01*
X505513Y735676D01*
X505557Y735648D01*
X505626Y735630D01*
X505693Y735603D01*
X505764Y735595D01*
X505795Y735587D01*
X505819Y735589D01*
X505860Y735585D01*
X517944Y735585D01*
X522239Y733806D01*
X525526Y730519D01*
X527305Y726224D01*
X527305Y721576D01*
X525526Y717281D01*
X522239Y713994D01*
X517944Y712215D01*
X498056Y712215D01*
X493761Y713994D01*
X490474Y717281D01*
X489517Y719592D01*
X489493Y719631D01*
X489477Y719674D01*
X489429Y719735D01*
X489388Y719801D01*
X489352Y719830D01*
X489324Y719866D01*
X489258Y719908D01*
X489198Y719957D01*
X489155Y719974D01*
X489117Y719999D01*
X489041Y720018D01*
X488968Y720046D01*
X488923Y720048D01*
X488878Y720059D01*
X488801Y720053D01*
X488723Y720056D01*
X488679Y720043D01*
X488633Y720040D01*
X488561Y720009D01*
X488486Y719987D01*
X488449Y719961D01*
X488407Y719943D01*
X488300Y719858D01*
X488284Y719847D01*
X488281Y719843D01*
X488276Y719839D01*
X464488Y696051D01*
X464435Y695977D01*
X464375Y695907D01*
X464363Y695877D01*
X464344Y695851D01*
X464317Y695764D01*
X464283Y695679D01*
X464279Y695638D01*
X464272Y695616D01*
X464273Y695584D01*
X464265Y695512D01*
X464265Y641373D01*
X464272Y641327D01*
X464270Y641281D01*
X464292Y641207D01*
X464304Y641130D01*
X464326Y641089D01*
X464339Y641045D01*
X464383Y640981D01*
X464420Y640912D01*
X464453Y640881D01*
X464479Y640843D01*
X464542Y640797D01*
X464598Y640743D01*
X464640Y640724D01*
X464676Y640696D01*
X464750Y640672D01*
X464821Y640639D01*
X464867Y640634D01*
X464910Y640620D01*
X464988Y640621D01*
X465065Y640612D01*
X465110Y640622D01*
X465156Y640623D01*
X465288Y640661D01*
X465306Y640665D01*
X465310Y640667D01*
X465317Y640669D01*
X467576Y641605D01*
X472224Y641605D01*
X476519Y639826D01*
X479806Y636539D01*
X481585Y632244D01*
X481585Y612356D01*
X479806Y608061D01*
X476519Y604774D01*
X472224Y602995D01*
X467576Y602995D01*
X465317Y603931D01*
X465273Y603941D01*
X465231Y603961D01*
X465154Y603969D01*
X465078Y603987D01*
X465032Y603983D01*
X464987Y603988D01*
X464910Y603971D01*
X464833Y603964D01*
X464791Y603945D01*
X464746Y603935D01*
X464679Y603895D01*
X464608Y603864D01*
X464574Y603833D01*
X464535Y603809D01*
X464484Y603750D01*
X464427Y603697D01*
X464405Y603657D01*
X464375Y603622D01*
X464346Y603550D01*
X464309Y603482D01*
X464300Y603437D01*
X464283Y603394D01*
X464268Y603258D01*
X464265Y603240D01*
X464266Y603235D01*
X464265Y603227D01*
X464265Y525395D01*
X464279Y525305D01*
X464287Y525214D01*
X464299Y525185D01*
X464304Y525153D01*
X464347Y525072D01*
X464383Y524988D01*
X464409Y524956D01*
X464420Y524935D01*
X464443Y524913D01*
X464488Y524857D01*
X467106Y522239D01*
X468885Y517944D01*
X468885Y498056D01*
X467106Y493761D01*
X463819Y490474D01*
X459524Y488695D01*
X454876Y488695D01*
G37*
%LPD*%
%LPC*%
G36*
X498056Y763015D02*
X498056Y763015D01*
X493761Y764794D01*
X490889Y767666D01*
X490815Y767719D01*
X490746Y767779D01*
X490715Y767791D01*
X490689Y767810D01*
X490602Y767837D01*
X490517Y767871D01*
X490476Y767875D01*
X490454Y767882D01*
X490422Y767881D01*
X490351Y767889D01*
X468749Y767889D01*
X466152Y768965D01*
X376169Y858948D01*
X376153Y858959D01*
X376140Y858975D01*
X376053Y859031D01*
X375969Y859091D01*
X375950Y859097D01*
X375934Y859108D01*
X375833Y859133D01*
X375734Y859164D01*
X375714Y859163D01*
X375695Y859168D01*
X375592Y859160D01*
X375488Y859157D01*
X375470Y859150D01*
X375450Y859149D01*
X375355Y859109D01*
X375257Y859073D01*
X375242Y859060D01*
X375224Y859053D01*
X375093Y858948D01*
X374919Y858774D01*
X370624Y856995D01*
X365976Y856995D01*
X361681Y858774D01*
X358394Y862061D01*
X356615Y866356D01*
X356615Y886244D01*
X358394Y890539D01*
X361681Y893826D01*
X365976Y895605D01*
X370624Y895605D01*
X374919Y893826D01*
X378206Y890539D01*
X379985Y886244D01*
X379985Y875430D01*
X379999Y875340D01*
X380007Y875249D01*
X380019Y875219D01*
X380024Y875187D01*
X380067Y875106D01*
X380103Y875022D01*
X380129Y874990D01*
X380140Y874970D01*
X380163Y874947D01*
X380208Y874891D01*
X380716Y874383D01*
X380774Y874341D01*
X380826Y874292D01*
X380873Y874270D01*
X380915Y874240D01*
X380984Y874219D01*
X381049Y874188D01*
X381101Y874183D01*
X381151Y874167D01*
X381222Y874169D01*
X381293Y874161D01*
X381344Y874172D01*
X381396Y874174D01*
X381464Y874198D01*
X381534Y874214D01*
X381579Y874240D01*
X381627Y874258D01*
X381683Y874303D01*
X381745Y874340D01*
X381779Y874379D01*
X381819Y874412D01*
X381858Y874472D01*
X381905Y874527D01*
X381924Y874575D01*
X381952Y874619D01*
X381970Y874688D01*
X381997Y874755D01*
X382005Y874826D01*
X382013Y874857D01*
X382011Y874881D01*
X382015Y874922D01*
X382015Y886244D01*
X383794Y890539D01*
X387081Y893826D01*
X391376Y895605D01*
X396024Y895605D01*
X400319Y893826D01*
X403606Y890539D01*
X405385Y886244D01*
X405385Y875176D01*
X405399Y875086D01*
X405407Y874995D01*
X405419Y874965D01*
X405424Y874933D01*
X405467Y874852D01*
X405503Y874768D01*
X405529Y874736D01*
X405540Y874715D01*
X405563Y874693D01*
X405608Y874637D01*
X406116Y874129D01*
X406174Y874087D01*
X406226Y874038D01*
X406273Y874016D01*
X406315Y873986D01*
X406384Y873965D01*
X406449Y873934D01*
X406501Y873929D01*
X406551Y873913D01*
X406622Y873915D01*
X406693Y873907D01*
X406744Y873918D01*
X406796Y873920D01*
X406864Y873944D01*
X406934Y873960D01*
X406978Y873986D01*
X407027Y874004D01*
X407083Y874049D01*
X407145Y874086D01*
X407179Y874125D01*
X407219Y874158D01*
X407258Y874218D01*
X407305Y874273D01*
X407324Y874321D01*
X407352Y874365D01*
X407370Y874434D01*
X407397Y874501D01*
X407405Y874572D01*
X407413Y874603D01*
X407411Y874627D01*
X407415Y874668D01*
X407415Y886244D01*
X409194Y890539D01*
X412481Y893826D01*
X416776Y895605D01*
X421424Y895605D01*
X425719Y893826D01*
X429006Y890539D01*
X430785Y886244D01*
X430785Y866356D01*
X429006Y862061D01*
X425719Y858774D01*
X423768Y857966D01*
X423729Y857942D01*
X423686Y857926D01*
X423625Y857877D01*
X423559Y857836D01*
X423529Y857801D01*
X423493Y857772D01*
X423451Y857707D01*
X423402Y857647D01*
X423385Y857604D01*
X423360Y857565D01*
X423341Y857490D01*
X423314Y857417D01*
X423312Y857371D01*
X423300Y857327D01*
X423306Y857249D01*
X423303Y857171D01*
X423316Y857127D01*
X423320Y857082D01*
X423350Y857010D01*
X423372Y856935D01*
X423398Y856898D01*
X423416Y856855D01*
X423501Y856749D01*
X423512Y856733D01*
X423516Y856730D01*
X423521Y856724D01*
X472857Y807388D01*
X472931Y807335D01*
X473001Y807275D01*
X473031Y807263D01*
X473057Y807244D01*
X473144Y807217D01*
X473229Y807183D01*
X473270Y807179D01*
X473292Y807172D01*
X473324Y807173D01*
X473396Y807165D01*
X490605Y807165D01*
X490695Y807179D01*
X490786Y807187D01*
X490815Y807199D01*
X490847Y807204D01*
X490928Y807247D01*
X491012Y807283D01*
X491044Y807309D01*
X491065Y807320D01*
X491087Y807343D01*
X491143Y807388D01*
X493761Y810006D01*
X498056Y811785D01*
X517944Y811785D01*
X522239Y810006D01*
X525526Y806719D01*
X527305Y802424D01*
X527305Y797776D01*
X525526Y793481D01*
X522239Y790194D01*
X517944Y788415D01*
X498056Y788415D01*
X493761Y790194D01*
X491143Y792812D01*
X491069Y792865D01*
X491000Y792925D01*
X490969Y792937D01*
X490943Y792956D01*
X490856Y792983D01*
X490771Y793017D01*
X490730Y793021D01*
X490708Y793028D01*
X490676Y793027D01*
X490605Y793035D01*
X468749Y793035D01*
X466152Y794111D01*
X401442Y858821D01*
X401426Y858832D01*
X401413Y858848D01*
X401326Y858904D01*
X401242Y858964D01*
X401223Y858970D01*
X401207Y858981D01*
X401106Y859006D01*
X401007Y859037D01*
X400987Y859036D01*
X400968Y859041D01*
X400865Y859033D01*
X400761Y859030D01*
X400743Y859024D01*
X400723Y859022D01*
X400628Y858982D01*
X400530Y858946D01*
X400515Y858933D01*
X400496Y858926D01*
X400365Y858821D01*
X400319Y858774D01*
X398547Y858040D01*
X398508Y858016D01*
X398465Y858000D01*
X398404Y857952D01*
X398338Y857911D01*
X398309Y857875D01*
X398273Y857847D01*
X398231Y857781D01*
X398181Y857721D01*
X398165Y857678D01*
X398140Y857640D01*
X398121Y857564D01*
X398093Y857492D01*
X398091Y857446D01*
X398080Y857401D01*
X398086Y857324D01*
X398083Y857246D01*
X398096Y857202D01*
X398099Y857156D01*
X398130Y857085D01*
X398151Y857010D01*
X398178Y856972D01*
X398195Y856930D01*
X398281Y856823D01*
X398292Y856808D01*
X398296Y856805D01*
X398300Y856799D01*
X472857Y782242D01*
X472931Y782189D01*
X473001Y782129D01*
X473031Y782117D01*
X473057Y782098D01*
X473144Y782071D01*
X473229Y782037D01*
X473270Y782033D01*
X473292Y782026D01*
X473324Y782027D01*
X473396Y782019D01*
X490859Y782019D01*
X490949Y782033D01*
X491040Y782041D01*
X491069Y782053D01*
X491101Y782058D01*
X491182Y782101D01*
X491266Y782137D01*
X491298Y782163D01*
X491319Y782174D01*
X491341Y782197D01*
X491397Y782242D01*
X493761Y784606D01*
X498056Y786385D01*
X517944Y786385D01*
X522239Y784606D01*
X525526Y781319D01*
X527305Y777024D01*
X527305Y772376D01*
X525526Y768081D01*
X522239Y764794D01*
X517944Y763015D01*
X498056Y763015D01*
G37*
%LPD*%
%LPC*%
G36*
X327876Y488695D02*
X327876Y488695D01*
X323581Y490474D01*
X320294Y493761D01*
X318515Y498056D01*
X318515Y509378D01*
X318501Y509468D01*
X318493Y509559D01*
X318481Y509589D01*
X318476Y509621D01*
X318433Y509702D01*
X318397Y509786D01*
X318371Y509818D01*
X318360Y509838D01*
X318337Y509861D01*
X318292Y509917D01*
X316260Y511949D01*
X316202Y511991D01*
X316150Y512040D01*
X316103Y512062D01*
X316061Y512092D01*
X315992Y512113D01*
X315927Y512144D01*
X315875Y512149D01*
X315825Y512165D01*
X315754Y512163D01*
X315683Y512171D01*
X315632Y512160D01*
X315580Y512158D01*
X315512Y512134D01*
X315442Y512118D01*
X315397Y512092D01*
X315349Y512074D01*
X315293Y512029D01*
X315231Y511992D01*
X315197Y511953D01*
X315157Y511920D01*
X315118Y511860D01*
X315071Y511805D01*
X315052Y511757D01*
X315024Y511713D01*
X315006Y511644D01*
X314979Y511577D01*
X314971Y511506D01*
X314963Y511475D01*
X314965Y511451D01*
X314961Y511410D01*
X314961Y509523D01*
X305562Y509523D01*
X305542Y509520D01*
X305523Y509522D01*
X305421Y509500D01*
X305319Y509483D01*
X305302Y509474D01*
X305282Y509470D01*
X305193Y509417D01*
X305102Y509368D01*
X305088Y509354D01*
X305071Y509344D01*
X305004Y509265D01*
X304933Y509190D01*
X304924Y509172D01*
X304911Y509157D01*
X304873Y509061D01*
X304829Y508967D01*
X304827Y508947D01*
X304819Y508929D01*
X304801Y508762D01*
X304801Y507999D01*
X304799Y507999D01*
X304799Y508762D01*
X304796Y508782D01*
X304798Y508801D01*
X304776Y508903D01*
X304759Y509005D01*
X304750Y509022D01*
X304746Y509042D01*
X304693Y509131D01*
X304644Y509222D01*
X304630Y509236D01*
X304620Y509253D01*
X304541Y509320D01*
X304466Y509391D01*
X304448Y509400D01*
X304433Y509413D01*
X304337Y509452D01*
X304243Y509495D01*
X304223Y509497D01*
X304205Y509505D01*
X304038Y509523D01*
X294639Y509523D01*
X294639Y516420D01*
X294889Y517999D01*
X295384Y519520D01*
X296110Y520945D01*
X297050Y522239D01*
X298181Y523370D01*
X299475Y524310D01*
X300900Y525036D01*
X301434Y525210D01*
X301501Y525244D01*
X301572Y525270D01*
X301610Y525301D01*
X301652Y525323D01*
X301705Y525377D01*
X301764Y525424D01*
X301790Y525465D01*
X301824Y525499D01*
X301856Y525567D01*
X301897Y525631D01*
X301909Y525678D01*
X301930Y525721D01*
X301939Y525796D01*
X301957Y525870D01*
X301953Y525918D01*
X301959Y525965D01*
X301944Y526040D01*
X301938Y526115D01*
X301919Y526159D01*
X301909Y526206D01*
X301871Y526272D01*
X301842Y526341D01*
X301801Y526392D01*
X301785Y526419D01*
X301766Y526436D01*
X301737Y526472D01*
X223515Y604694D01*
X223499Y604706D01*
X223486Y604721D01*
X223399Y604777D01*
X223315Y604837D01*
X223296Y604843D01*
X223279Y604854D01*
X223179Y604879D01*
X223080Y604910D01*
X223060Y604909D01*
X223041Y604914D01*
X222938Y604906D01*
X222834Y604903D01*
X222815Y604896D01*
X222795Y604895D01*
X222701Y604854D01*
X222603Y604819D01*
X222588Y604806D01*
X222569Y604798D01*
X222560Y604791D01*
X218224Y602995D01*
X213576Y602995D01*
X209281Y604774D01*
X205994Y608061D01*
X204215Y612356D01*
X204215Y632244D01*
X205994Y636539D01*
X209281Y639826D01*
X213576Y641605D01*
X218224Y641605D01*
X222519Y639826D01*
X225806Y636539D01*
X227585Y632244D01*
X227585Y620922D01*
X227599Y620832D01*
X227607Y620741D01*
X227619Y620711D01*
X227624Y620679D01*
X227667Y620598D01*
X227703Y620514D01*
X227729Y620482D01*
X227740Y620462D01*
X227763Y620439D01*
X227808Y620383D01*
X228316Y619875D01*
X228374Y619833D01*
X228426Y619784D01*
X228473Y619762D01*
X228515Y619732D01*
X228584Y619711D01*
X228649Y619680D01*
X228701Y619675D01*
X228751Y619659D01*
X228822Y619661D01*
X228893Y619653D01*
X228944Y619664D01*
X228996Y619666D01*
X229064Y619690D01*
X229134Y619706D01*
X229179Y619732D01*
X229227Y619750D01*
X229283Y619795D01*
X229345Y619832D01*
X229379Y619871D01*
X229419Y619904D01*
X229458Y619964D01*
X229505Y620019D01*
X229524Y620067D01*
X229552Y620111D01*
X229570Y620180D01*
X229597Y620247D01*
X229605Y620318D01*
X229613Y620349D01*
X229611Y620373D01*
X229615Y620414D01*
X229615Y632244D01*
X231394Y636539D01*
X234681Y639826D01*
X238976Y641605D01*
X243624Y641605D01*
X247919Y639826D01*
X251206Y636539D01*
X252985Y632244D01*
X252985Y612356D01*
X251206Y608061D01*
X247919Y604774D01*
X245788Y603892D01*
X245749Y603867D01*
X245706Y603852D01*
X245645Y603803D01*
X245579Y603762D01*
X245550Y603727D01*
X245514Y603698D01*
X245472Y603632D01*
X245422Y603572D01*
X245406Y603530D01*
X245381Y603491D01*
X245362Y603415D01*
X245334Y603343D01*
X245332Y603297D01*
X245321Y603252D01*
X245327Y603175D01*
X245324Y603097D01*
X245336Y603053D01*
X245340Y603007D01*
X245370Y602936D01*
X245392Y602861D01*
X245418Y602823D01*
X245436Y602781D01*
X245522Y602674D01*
X245532Y602659D01*
X245536Y602656D01*
X245541Y602650D01*
X322585Y525606D01*
X322601Y525594D01*
X322614Y525579D01*
X322701Y525523D01*
X322785Y525463D01*
X322804Y525457D01*
X322821Y525446D01*
X322921Y525421D01*
X323020Y525390D01*
X323040Y525391D01*
X323059Y525386D01*
X323162Y525394D01*
X323266Y525397D01*
X323285Y525404D01*
X323305Y525405D01*
X323399Y525446D01*
X323497Y525481D01*
X323512Y525494D01*
X323531Y525502D01*
X323540Y525509D01*
X327876Y527305D01*
X332524Y527305D01*
X336819Y525526D01*
X340106Y522239D01*
X341885Y517944D01*
X341885Y498056D01*
X340106Y493761D01*
X336819Y490474D01*
X332524Y488695D01*
X327876Y488695D01*
G37*
%LPD*%
%LPC*%
G36*
X429476Y488695D02*
X429476Y488695D01*
X425181Y490474D01*
X421894Y493761D01*
X420115Y498056D01*
X420115Y517944D01*
X421894Y522239D01*
X424004Y524349D01*
X424057Y524423D01*
X424117Y524492D01*
X424129Y524523D01*
X424148Y524549D01*
X424175Y524636D01*
X424209Y524721D01*
X424213Y524762D01*
X424220Y524784D01*
X424219Y524816D01*
X424227Y524887D01*
X424227Y603017D01*
X424220Y603062D01*
X424222Y603108D01*
X424200Y603183D01*
X424188Y603260D01*
X424166Y603300D01*
X424153Y603344D01*
X424109Y603408D01*
X424072Y603477D01*
X424039Y603509D01*
X424013Y603546D01*
X423951Y603593D01*
X423894Y603647D01*
X423852Y603666D01*
X423816Y603693D01*
X423742Y603717D01*
X423671Y603750D01*
X423625Y603755D01*
X423582Y603769D01*
X423504Y603769D01*
X423427Y603777D01*
X423382Y603768D01*
X423336Y603767D01*
X423204Y603729D01*
X423186Y603725D01*
X423182Y603722D01*
X423175Y603720D01*
X421424Y602995D01*
X416776Y602995D01*
X412481Y604774D01*
X409194Y608061D01*
X407415Y612356D01*
X407415Y632244D01*
X409194Y636539D01*
X411812Y639157D01*
X411865Y639231D01*
X411925Y639300D01*
X411937Y639331D01*
X411956Y639357D01*
X411983Y639444D01*
X412017Y639529D01*
X412021Y639570D01*
X412028Y639592D01*
X412027Y639624D01*
X412035Y639695D01*
X412035Y663494D01*
X412021Y663585D01*
X412013Y663675D01*
X412001Y663705D01*
X411996Y663737D01*
X411953Y663818D01*
X411917Y663902D01*
X411891Y663934D01*
X411880Y663955D01*
X411857Y663977D01*
X411812Y664033D01*
X409296Y666549D01*
X407535Y670800D01*
X407535Y675400D01*
X409296Y679651D01*
X412549Y682904D01*
X416800Y684665D01*
X421400Y684665D01*
X425651Y682904D01*
X428904Y679651D01*
X430665Y675400D01*
X430665Y670800D01*
X428904Y666549D01*
X426388Y664033D01*
X426335Y663959D01*
X426275Y663889D01*
X426263Y663859D01*
X426244Y663833D01*
X426217Y663746D01*
X426183Y663661D01*
X426179Y663620D01*
X426172Y663598D01*
X426173Y663566D01*
X426165Y663494D01*
X426165Y639695D01*
X426179Y639605D01*
X426187Y639514D01*
X426199Y639485D01*
X426204Y639453D01*
X426247Y639372D01*
X426283Y639288D01*
X426309Y639256D01*
X426320Y639235D01*
X426343Y639213D01*
X426388Y639157D01*
X429006Y636539D01*
X430785Y632244D01*
X430785Y618890D01*
X430799Y618800D01*
X430807Y618709D01*
X430819Y618679D01*
X430824Y618647D01*
X430867Y618566D01*
X430903Y618482D01*
X430929Y618450D01*
X430940Y618430D01*
X430963Y618407D01*
X431008Y618351D01*
X433040Y616319D01*
X433098Y616277D01*
X433150Y616228D01*
X433197Y616206D01*
X433239Y616176D01*
X433308Y616155D01*
X433373Y616124D01*
X433425Y616119D01*
X433475Y616103D01*
X433546Y616105D01*
X433617Y616097D01*
X433668Y616108D01*
X433720Y616110D01*
X433788Y616134D01*
X433858Y616150D01*
X433903Y616176D01*
X433951Y616194D01*
X434007Y616239D01*
X434069Y616276D01*
X434103Y616315D01*
X434143Y616348D01*
X434182Y616408D01*
X434229Y616463D01*
X434248Y616511D01*
X434276Y616555D01*
X434294Y616624D01*
X434321Y616691D01*
X434329Y616762D01*
X434337Y616793D01*
X434335Y616817D01*
X434339Y616858D01*
X434339Y620777D01*
X442977Y620777D01*
X442977Y604634D01*
X442121Y604769D01*
X440600Y605264D01*
X439464Y605843D01*
X439392Y605866D01*
X439323Y605897D01*
X439275Y605903D01*
X439229Y605917D01*
X439154Y605916D01*
X439079Y605924D01*
X439031Y605914D01*
X438983Y605914D01*
X438912Y605888D01*
X438838Y605872D01*
X438797Y605848D01*
X438751Y605831D01*
X438692Y605785D01*
X438627Y605746D01*
X438596Y605709D01*
X438558Y605680D01*
X438516Y605617D01*
X438467Y605559D01*
X438449Y605514D01*
X438423Y605474D01*
X438404Y605401D01*
X438375Y605331D01*
X438368Y605266D01*
X438360Y605236D01*
X438362Y605211D01*
X438357Y605164D01*
X438357Y525903D01*
X438371Y525813D01*
X438379Y525722D01*
X438391Y525693D01*
X438396Y525661D01*
X438439Y525580D01*
X438475Y525496D01*
X438501Y525464D01*
X438512Y525443D01*
X438535Y525421D01*
X438580Y525365D01*
X441706Y522239D01*
X443485Y517944D01*
X443485Y498056D01*
X441706Y493761D01*
X438419Y490474D01*
X434124Y488695D01*
X429476Y488695D01*
G37*
%LPD*%
%LPC*%
G36*
X175476Y488695D02*
X175476Y488695D01*
X171181Y490474D01*
X167894Y493761D01*
X166115Y498056D01*
X166115Y517944D01*
X167894Y522239D01*
X171020Y525365D01*
X171073Y525439D01*
X171133Y525508D01*
X171145Y525539D01*
X171164Y525565D01*
X171191Y525652D01*
X171225Y525737D01*
X171229Y525778D01*
X171236Y525800D01*
X171235Y525832D01*
X171243Y525903D01*
X171243Y603438D01*
X171236Y603483D01*
X171238Y603529D01*
X171216Y603604D01*
X171204Y603681D01*
X171182Y603721D01*
X171169Y603765D01*
X171125Y603829D01*
X171088Y603898D01*
X171055Y603930D01*
X171029Y603967D01*
X170967Y604014D01*
X170910Y604067D01*
X170868Y604087D01*
X170832Y604114D01*
X170758Y604138D01*
X170687Y604171D01*
X170641Y604176D01*
X170598Y604190D01*
X170520Y604190D01*
X170443Y604198D01*
X170398Y604188D01*
X170352Y604188D01*
X170220Y604150D01*
X170202Y604146D01*
X170198Y604143D01*
X170191Y604141D01*
X167424Y602995D01*
X162776Y602995D01*
X158481Y604774D01*
X155194Y608061D01*
X153415Y612356D01*
X153415Y632244D01*
X155194Y636539D01*
X158481Y639826D01*
X162776Y641605D01*
X167424Y641605D01*
X171719Y639826D01*
X175006Y636539D01*
X176785Y632244D01*
X176785Y619906D01*
X176796Y619835D01*
X176798Y619763D01*
X176816Y619714D01*
X176824Y619663D01*
X176858Y619600D01*
X176883Y619532D01*
X176915Y619491D01*
X176940Y619445D01*
X176992Y619396D01*
X177036Y619340D01*
X177080Y619312D01*
X177118Y619276D01*
X177183Y619246D01*
X177243Y619207D01*
X177294Y619194D01*
X177341Y619172D01*
X177412Y619165D01*
X177482Y619147D01*
X177534Y619151D01*
X177585Y619145D01*
X177656Y619161D01*
X177727Y619166D01*
X177775Y619187D01*
X177826Y619198D01*
X177887Y619234D01*
X177953Y619262D01*
X178009Y619307D01*
X178037Y619324D01*
X178052Y619342D01*
X178084Y619367D01*
X178592Y619875D01*
X178641Y619943D01*
X178642Y619944D01*
X178642Y619945D01*
X178646Y619950D01*
X178705Y620019D01*
X178717Y620049D01*
X178736Y620075D01*
X178763Y620162D01*
X178797Y620247D01*
X178801Y620288D01*
X178808Y620310D01*
X178807Y620342D01*
X178815Y620414D01*
X178815Y632244D01*
X180594Y636539D01*
X183881Y639826D01*
X188176Y641605D01*
X192824Y641605D01*
X197119Y639826D01*
X200406Y636539D01*
X202185Y632244D01*
X202185Y612356D01*
X200406Y608061D01*
X197119Y604774D01*
X192824Y602995D01*
X188176Y602995D01*
X186425Y603720D01*
X186381Y603731D01*
X186339Y603750D01*
X186262Y603759D01*
X186186Y603777D01*
X186140Y603772D01*
X186095Y603777D01*
X186018Y603761D01*
X185941Y603753D01*
X185899Y603735D01*
X185854Y603725D01*
X185787Y603685D01*
X185716Y603653D01*
X185682Y603622D01*
X185643Y603599D01*
X185592Y603540D01*
X185535Y603487D01*
X185513Y603447D01*
X185483Y603412D01*
X185454Y603340D01*
X185417Y603272D01*
X185408Y603226D01*
X185391Y603184D01*
X185376Y603048D01*
X185373Y603029D01*
X185374Y603024D01*
X185373Y603017D01*
X185373Y524887D01*
X185387Y524797D01*
X185395Y524706D01*
X185407Y524677D01*
X185412Y524645D01*
X185455Y524564D01*
X185491Y524480D01*
X185517Y524448D01*
X185528Y524427D01*
X185551Y524405D01*
X185596Y524349D01*
X187706Y522239D01*
X189485Y517944D01*
X189485Y498056D01*
X187706Y493761D01*
X184419Y490474D01*
X180124Y488695D01*
X175476Y488695D01*
G37*
%LPD*%
%LPC*%
G36*
X162776Y856995D02*
X162776Y856995D01*
X158481Y858774D01*
X155194Y862061D01*
X153415Y866356D01*
X153415Y886244D01*
X155194Y890539D01*
X158481Y893826D01*
X162776Y895605D01*
X167424Y895605D01*
X171719Y893826D01*
X175006Y890539D01*
X176785Y886244D01*
X176785Y866356D01*
X175006Y862061D01*
X171719Y858774D01*
X167424Y856995D01*
X162776Y856995D01*
G37*
%LPD*%
%LPC*%
G36*
X315176Y856995D02*
X315176Y856995D01*
X310881Y858774D01*
X307594Y862061D01*
X305815Y866356D01*
X305815Y886244D01*
X307594Y890539D01*
X310881Y893826D01*
X315176Y895605D01*
X319824Y895605D01*
X324119Y893826D01*
X327406Y890539D01*
X329185Y886244D01*
X329185Y866356D01*
X327406Y862061D01*
X324119Y858774D01*
X319824Y856995D01*
X315176Y856995D01*
G37*
%LPD*%
%LPC*%
G36*
X264376Y856995D02*
X264376Y856995D01*
X260081Y858774D01*
X256794Y862061D01*
X255015Y866356D01*
X255015Y886244D01*
X256794Y890539D01*
X260081Y893826D01*
X264376Y895605D01*
X269024Y895605D01*
X273319Y893826D01*
X276606Y890539D01*
X278385Y886244D01*
X278385Y866356D01*
X276606Y862061D01*
X273319Y858774D01*
X269024Y856995D01*
X264376Y856995D01*
G37*
%LPD*%
%LPC*%
G36*
X289776Y856995D02*
X289776Y856995D01*
X285481Y858774D01*
X282194Y862061D01*
X280415Y866356D01*
X280415Y886244D01*
X282194Y890539D01*
X285481Y893826D01*
X289776Y895605D01*
X294424Y895605D01*
X298719Y893826D01*
X302006Y890539D01*
X303785Y886244D01*
X303785Y866356D01*
X302006Y862061D01*
X298719Y858774D01*
X294424Y856995D01*
X289776Y856995D01*
G37*
%LPD*%
%LPC*%
G36*
X340576Y856995D02*
X340576Y856995D01*
X336281Y858774D01*
X332994Y862061D01*
X331215Y866356D01*
X331215Y886244D01*
X332994Y890539D01*
X336281Y893826D01*
X340576Y895605D01*
X345224Y895605D01*
X349519Y893826D01*
X352806Y890539D01*
X354585Y886244D01*
X354585Y866356D01*
X352806Y862061D01*
X349519Y858774D01*
X345224Y856995D01*
X340576Y856995D01*
G37*
%LPD*%
%LPC*%
G36*
X213576Y856995D02*
X213576Y856995D01*
X209281Y858774D01*
X205994Y862061D01*
X204215Y866356D01*
X204215Y886244D01*
X205994Y890539D01*
X209281Y893826D01*
X213576Y895605D01*
X218224Y895605D01*
X222519Y893826D01*
X225806Y890539D01*
X227585Y886244D01*
X227585Y866356D01*
X225806Y862061D01*
X222519Y858774D01*
X218224Y856995D01*
X213576Y856995D01*
G37*
%LPD*%
%LPC*%
G36*
X442176Y856995D02*
X442176Y856995D01*
X437881Y858774D01*
X434594Y862061D01*
X432815Y866356D01*
X432815Y886244D01*
X434594Y890539D01*
X437881Y893826D01*
X442176Y895605D01*
X446824Y895605D01*
X451119Y893826D01*
X454406Y890539D01*
X456185Y886244D01*
X456185Y866356D01*
X454406Y862061D01*
X451119Y858774D01*
X446824Y856995D01*
X442176Y856995D01*
G37*
%LPD*%
%LPC*%
G36*
X467576Y856995D02*
X467576Y856995D01*
X463281Y858774D01*
X459994Y862061D01*
X458215Y866356D01*
X458215Y886244D01*
X459994Y890539D01*
X463281Y893826D01*
X467576Y895605D01*
X472224Y895605D01*
X476519Y893826D01*
X479806Y890539D01*
X481585Y886244D01*
X481585Y866356D01*
X479806Y862061D01*
X476519Y858774D01*
X472224Y856995D01*
X467576Y856995D01*
G37*
%LPD*%
%LPC*%
G36*
X188176Y856995D02*
X188176Y856995D01*
X183881Y858774D01*
X180594Y862061D01*
X178815Y866356D01*
X178815Y886244D01*
X180594Y890539D01*
X183881Y893826D01*
X188176Y895605D01*
X192824Y895605D01*
X197119Y893826D01*
X200406Y890539D01*
X202185Y886244D01*
X202185Y866356D01*
X200406Y862061D01*
X197119Y858774D01*
X192824Y856995D01*
X188176Y856995D01*
G37*
%LPD*%
%LPC*%
G36*
X289776Y602995D02*
X289776Y602995D01*
X285481Y604774D01*
X282194Y608061D01*
X280415Y612356D01*
X280415Y632244D01*
X282194Y636539D01*
X285481Y639826D01*
X289776Y641605D01*
X294424Y641605D01*
X298719Y639826D01*
X302006Y636539D01*
X303785Y632244D01*
X303785Y612356D01*
X302006Y608061D01*
X298719Y604774D01*
X294424Y602995D01*
X289776Y602995D01*
G37*
%LPD*%
%LPC*%
G36*
X315176Y602995D02*
X315176Y602995D01*
X310881Y604774D01*
X307594Y608061D01*
X305815Y612356D01*
X305815Y632244D01*
X307594Y636539D01*
X310881Y639826D01*
X315176Y641605D01*
X319824Y641605D01*
X324119Y639826D01*
X327406Y636539D01*
X329185Y632244D01*
X329185Y612356D01*
X327406Y608061D01*
X324119Y604774D01*
X319824Y602995D01*
X315176Y602995D01*
G37*
%LPD*%
%LPC*%
G36*
X365976Y602995D02*
X365976Y602995D01*
X361681Y604774D01*
X358394Y608061D01*
X356615Y612356D01*
X356615Y632244D01*
X358394Y636539D01*
X361681Y639826D01*
X365976Y641605D01*
X370624Y641605D01*
X374919Y639826D01*
X378206Y636539D01*
X379985Y632244D01*
X379985Y612356D01*
X378206Y608061D01*
X374919Y604774D01*
X370624Y602995D01*
X365976Y602995D01*
G37*
%LPD*%
%LPC*%
G36*
X391376Y602995D02*
X391376Y602995D01*
X387081Y604774D01*
X383794Y608061D01*
X382015Y612356D01*
X382015Y632244D01*
X383794Y636539D01*
X387081Y639826D01*
X391376Y641605D01*
X396024Y641605D01*
X400319Y639826D01*
X403606Y636539D01*
X405385Y632244D01*
X405385Y612356D01*
X403606Y608061D01*
X400319Y604774D01*
X396024Y602995D01*
X391376Y602995D01*
G37*
%LPD*%
%LPC*%
G36*
X264376Y602995D02*
X264376Y602995D01*
X260081Y604774D01*
X256794Y608061D01*
X255015Y612356D01*
X255015Y632244D01*
X256794Y636539D01*
X260081Y639826D01*
X264376Y641605D01*
X269024Y641605D01*
X273319Y639826D01*
X276606Y636539D01*
X278385Y632244D01*
X278385Y612356D01*
X276606Y608061D01*
X273319Y604774D01*
X269024Y602995D01*
X264376Y602995D01*
G37*
%LPD*%
%LPC*%
G36*
X480276Y488695D02*
X480276Y488695D01*
X475981Y490474D01*
X472694Y493761D01*
X470915Y498056D01*
X470915Y517944D01*
X472694Y522239D01*
X475981Y525526D01*
X480276Y527305D01*
X484924Y527305D01*
X489219Y525526D01*
X492506Y522239D01*
X494285Y517944D01*
X494285Y498056D01*
X492506Y493761D01*
X489219Y490474D01*
X484924Y488695D01*
X480276Y488695D01*
G37*
%LPD*%
%LPC*%
G36*
X416800Y763135D02*
X416800Y763135D01*
X412549Y764896D01*
X409296Y768149D01*
X407535Y772400D01*
X407535Y777000D01*
X409296Y781251D01*
X412549Y784504D01*
X416800Y786265D01*
X421400Y786265D01*
X425651Y784504D01*
X428904Y781251D01*
X430665Y777000D01*
X430665Y772400D01*
X428904Y768149D01*
X425651Y764896D01*
X421400Y763135D01*
X416800Y763135D01*
G37*
%LPD*%
%LPC*%
G36*
X204723Y509523D02*
X204723Y509523D01*
X204723Y525666D01*
X205579Y525531D01*
X207100Y525036D01*
X208525Y524310D01*
X209819Y523370D01*
X210950Y522239D01*
X211890Y520945D01*
X212616Y519520D01*
X213111Y517999D01*
X213361Y516420D01*
X213361Y509523D01*
X204723Y509523D01*
G37*
%LPD*%
%LPC*%
G36*
X306323Y506477D02*
X306323Y506477D01*
X314961Y506477D01*
X314961Y499580D01*
X314711Y498001D01*
X314216Y496480D01*
X313490Y495055D01*
X312550Y493761D01*
X311419Y492630D01*
X310125Y491690D01*
X308700Y490964D01*
X307179Y490469D01*
X306323Y490334D01*
X306323Y506477D01*
G37*
%LPD*%
%LPC*%
G36*
X204723Y506477D02*
X204723Y506477D01*
X213361Y506477D01*
X213361Y499580D01*
X213111Y498001D01*
X212616Y496480D01*
X211890Y495055D01*
X210950Y493761D01*
X209819Y492630D01*
X208525Y491690D01*
X207100Y490964D01*
X205579Y490469D01*
X204723Y490334D01*
X204723Y506477D01*
G37*
%LPD*%
%LPC*%
G36*
X434339Y623823D02*
X434339Y623823D01*
X434339Y630720D01*
X434589Y632299D01*
X435084Y633820D01*
X435810Y635245D01*
X436750Y636539D01*
X437881Y637670D01*
X439175Y638610D01*
X440600Y639336D01*
X442121Y639831D01*
X442977Y639966D01*
X442977Y623823D01*
X434339Y623823D01*
G37*
%LPD*%
%LPC*%
G36*
X193039Y509523D02*
X193039Y509523D01*
X193039Y516420D01*
X193289Y517999D01*
X193784Y519520D01*
X194510Y520945D01*
X195450Y522239D01*
X196581Y523370D01*
X197875Y524310D01*
X199300Y525036D01*
X200821Y525531D01*
X201677Y525666D01*
X201677Y509523D01*
X193039Y509523D01*
G37*
%LPD*%
%LPC*%
G36*
X302421Y490469D02*
X302421Y490469D01*
X300900Y490964D01*
X299475Y491690D01*
X298181Y492630D01*
X297050Y493761D01*
X296110Y495055D01*
X295384Y496480D01*
X294889Y498001D01*
X294639Y499580D01*
X294639Y506477D01*
X303277Y506477D01*
X303277Y490334D01*
X302421Y490469D01*
G37*
%LPD*%
%LPC*%
G36*
X200821Y490469D02*
X200821Y490469D01*
X199300Y490964D01*
X197875Y491690D01*
X196581Y492630D01*
X195450Y493761D01*
X194510Y495055D01*
X193784Y496480D01*
X193289Y498001D01*
X193039Y499580D01*
X193039Y506477D01*
X201677Y506477D01*
X201677Y490334D01*
X200821Y490469D01*
G37*
%LPD*%
%LPC*%
G36*
X213169Y776223D02*
X213169Y776223D01*
X213169Y782134D01*
X213518Y783889D01*
X214203Y785541D01*
X215197Y787029D01*
X216461Y788293D01*
X217949Y789287D01*
X219601Y789972D01*
X220727Y790196D01*
X220727Y776223D01*
X213169Y776223D01*
G37*
%LPD*%
%LPC*%
G36*
X219601Y759428D02*
X219601Y759428D01*
X217949Y760113D01*
X216461Y761107D01*
X215197Y762371D01*
X214203Y763859D01*
X213518Y765511D01*
X213169Y767266D01*
X213169Y773177D01*
X220727Y773177D01*
X220727Y759204D01*
X219601Y759428D01*
G37*
%LPD*%
%LPC*%
G36*
X192023Y712723D02*
X192023Y712723D01*
X192023Y721125D01*
X192851Y720994D01*
X194354Y720505D01*
X195763Y719788D01*
X197041Y718859D01*
X198159Y717741D01*
X199088Y716463D01*
X199805Y715054D01*
X200294Y713551D01*
X200425Y712723D01*
X192023Y712723D01*
G37*
%LPD*%
%LPC*%
G36*
X192023Y709677D02*
X192023Y709677D01*
X200425Y709677D01*
X200294Y708849D01*
X199805Y707346D01*
X199088Y705937D01*
X198159Y704659D01*
X197041Y703541D01*
X195763Y702612D01*
X194354Y701895D01*
X192851Y701406D01*
X192023Y701275D01*
X192023Y709677D01*
G37*
%LPD*%
%LPC*%
G36*
X180575Y712723D02*
X180575Y712723D01*
X180706Y713551D01*
X181195Y715054D01*
X181912Y716463D01*
X182841Y717741D01*
X183959Y718859D01*
X185237Y719788D01*
X186646Y720505D01*
X188149Y720994D01*
X188977Y721125D01*
X188977Y712723D01*
X180575Y712723D01*
G37*
%LPD*%
%LPC*%
G36*
X188149Y701406D02*
X188149Y701406D01*
X186646Y701895D01*
X185237Y702612D01*
X183959Y703541D01*
X182841Y704659D01*
X181912Y705937D01*
X181195Y707346D01*
X180706Y708849D01*
X180575Y709677D01*
X188977Y709677D01*
X188977Y701275D01*
X188149Y701406D01*
G37*
%LPD*%
%LPC*%
G36*
X203199Y507999D02*
X203199Y507999D01*
X203199Y508001D01*
X203201Y508001D01*
X203201Y507999D01*
X203199Y507999D01*
G37*
%LPD*%
%LPC*%
G36*
X190499Y711199D02*
X190499Y711199D01*
X190499Y711201D01*
X190501Y711201D01*
X190501Y711199D01*
X190499Y711199D01*
G37*
%LPD*%
D10*
X368300Y774700D03*
X342900Y774700D03*
X317500Y774700D03*
D11*
X165100Y629920D02*
X165100Y614680D01*
X190500Y614680D02*
X190500Y629920D01*
X215900Y629920D02*
X215900Y614680D01*
X241300Y614680D02*
X241300Y629920D01*
X266700Y629920D02*
X266700Y614680D01*
X292100Y614680D02*
X292100Y629920D01*
X317500Y629920D02*
X317500Y614680D01*
X342900Y614680D02*
X342900Y629920D01*
X368300Y629920D02*
X368300Y614680D01*
X393700Y614680D02*
X393700Y629920D01*
X419100Y629920D02*
X419100Y614680D01*
X444500Y614680D02*
X444500Y629920D01*
X469900Y629920D02*
X469900Y614680D01*
X165100Y868680D02*
X165100Y883920D01*
X190500Y883920D02*
X190500Y868680D01*
X215900Y868680D02*
X215900Y883920D01*
X241300Y883920D02*
X241300Y868680D01*
X266700Y868680D02*
X266700Y883920D01*
X292100Y883920D02*
X292100Y868680D01*
X317500Y868680D02*
X317500Y883920D01*
X342900Y883920D02*
X342900Y868680D01*
X368300Y868680D02*
X368300Y883920D01*
X393700Y883920D02*
X393700Y868680D01*
X419100Y868680D02*
X419100Y883920D01*
X444500Y883920D02*
X444500Y868680D01*
X469900Y868680D02*
X469900Y883920D01*
D12*
X190500Y711200D03*
X292100Y711200D03*
D13*
X241300Y768160D02*
X241300Y781240D01*
X222250Y781240D02*
X222250Y768160D01*
X260350Y768160D02*
X260350Y781240D01*
D12*
X419100Y774700D03*
X419100Y673100D03*
D11*
X482600Y515620D02*
X482600Y500380D01*
X457200Y500380D02*
X457200Y515620D01*
X431800Y515620D02*
X431800Y500380D01*
X330200Y500380D02*
X330200Y515620D01*
X304800Y515620D02*
X304800Y500380D01*
X203200Y500380D02*
X203200Y515620D01*
X177800Y515620D02*
X177800Y500380D01*
X500380Y749300D02*
X515620Y749300D01*
X515620Y774700D02*
X500380Y774700D01*
X500380Y800100D02*
X515620Y800100D01*
X515620Y723900D02*
X500380Y723900D01*
D14*
X241554Y762000D02*
X241554Y774192D01*
X241554Y762000D02*
X291846Y711708D01*
X241554Y774192D02*
X241300Y774700D01*
X291846Y711708D02*
X292100Y711200D01*
X241554Y777240D02*
X241554Y876300D01*
X241300Y876300D01*
X241554Y777240D02*
X241300Y774700D01*
X470154Y800100D02*
X508000Y800100D01*
X470154Y800100D02*
X393954Y876300D01*
X393700Y876300D01*
X342900Y774700D02*
X342900Y622300D01*
X178308Y609600D02*
X178308Y508254D01*
X178308Y609600D02*
X190500Y621792D01*
X178308Y508254D02*
X177800Y508000D01*
X190500Y621792D02*
X190500Y622300D01*
X215900Y622300D02*
X330200Y508000D01*
X221742Y742950D02*
X221742Y774192D01*
X221742Y742950D02*
X190500Y711708D01*
X221742Y774192D02*
X222250Y774700D01*
X190500Y711708D02*
X190500Y711200D01*
X203454Y508254D02*
X304800Y508254D01*
X203454Y508254D02*
X203200Y508000D01*
X304800Y508254D02*
X304800Y508000D01*
X444246Y495300D02*
X444246Y621792D01*
X444246Y495300D02*
X436626Y487680D01*
X324612Y487680D01*
X306324Y505968D01*
X444246Y621792D02*
X444500Y622300D01*
X304800Y508000D02*
X306324Y505968D01*
X192024Y646176D02*
X192024Y708660D01*
X192024Y646176D02*
X202692Y635508D01*
X202692Y510540D01*
X192024Y708660D02*
X190500Y711200D01*
X202692Y510540D02*
X203200Y508000D01*
X419100Y622300D02*
X419100Y673100D01*
X431292Y608076D02*
X431292Y508254D01*
X431292Y608076D02*
X419862Y619506D01*
X431292Y508254D02*
X431800Y508000D01*
X419862Y619506D02*
X419100Y622300D01*
X316992Y774954D02*
X260604Y774954D01*
X260350Y774700D01*
X316992Y774954D02*
X317500Y774700D01*
X457200Y698754D02*
X457200Y508000D01*
X459867Y701421D02*
X507492Y749046D01*
X459867Y701421D02*
X457200Y698754D01*
X507492Y749046D02*
X508000Y749300D01*
X326898Y776478D02*
X320040Y776478D01*
X326898Y776478D02*
X337566Y787146D01*
X374142Y787146D01*
X459867Y701421D01*
X320040Y776478D02*
X317500Y774700D01*
X470154Y774954D02*
X507492Y774954D01*
X470154Y774954D02*
X368808Y876300D01*
X507492Y774954D02*
X508000Y774700D01*
X368808Y876300D02*
X368300Y876300D01*
M02*
