G04 EAGLE Gerber RS-274X export*
G75*
%MOMM*%
%FSLAX34Y34*%
%LPD*%
%IN*%
%IPPOS*%
%AMOC8*
5,1,8,0,0,1.08239X$1,22.5*%
G01*
%ADD10C,0.254000*%


D10*
X0Y0D02*
X457000Y0D01*
X457000Y466600D01*
X0Y466600D01*
X0Y0D01*
X17700Y164819D02*
X17637Y164261D01*
X17512Y163714D01*
X17327Y163184D01*
X17083Y162678D01*
X16784Y162202D01*
X16434Y161763D01*
X16037Y161366D01*
X15598Y161016D01*
X15122Y160717D01*
X14616Y160473D01*
X14086Y160288D01*
X13539Y160163D01*
X12981Y160100D01*
X12419Y160100D01*
X11861Y160163D01*
X11314Y160288D01*
X10784Y160473D01*
X10278Y160717D01*
X9802Y161016D01*
X9363Y161366D01*
X8966Y161763D01*
X8616Y162202D01*
X8317Y162678D01*
X8073Y163184D01*
X7888Y163714D01*
X7763Y164261D01*
X7700Y164819D01*
X7700Y165381D01*
X7763Y165939D01*
X7888Y166486D01*
X8073Y167016D01*
X8317Y167522D01*
X8616Y167998D01*
X8966Y168437D01*
X9363Y168834D01*
X9802Y169184D01*
X10278Y169483D01*
X10784Y169727D01*
X11314Y169912D01*
X11861Y170037D01*
X12419Y170100D01*
X12981Y170100D01*
X13539Y170037D01*
X14086Y169912D01*
X14616Y169727D01*
X15122Y169483D01*
X15598Y169184D01*
X16037Y168834D01*
X16434Y168437D01*
X16784Y167998D01*
X17083Y167522D01*
X17327Y167016D01*
X17512Y166486D01*
X17637Y165939D01*
X17700Y165381D01*
X17700Y164819D01*
X17700Y418819D02*
X17637Y418261D01*
X17512Y417714D01*
X17327Y417184D01*
X17083Y416678D01*
X16784Y416202D01*
X16434Y415763D01*
X16037Y415366D01*
X15598Y415016D01*
X15122Y414717D01*
X14616Y414473D01*
X14086Y414288D01*
X13539Y414163D01*
X12981Y414100D01*
X12419Y414100D01*
X11861Y414163D01*
X11314Y414288D01*
X10784Y414473D01*
X10278Y414717D01*
X9802Y415016D01*
X9363Y415366D01*
X8966Y415763D01*
X8616Y416202D01*
X8317Y416678D01*
X8073Y417184D01*
X7888Y417714D01*
X7763Y418261D01*
X7700Y418819D01*
X7700Y419381D01*
X7763Y419939D01*
X7888Y420486D01*
X8073Y421016D01*
X8317Y421522D01*
X8616Y421998D01*
X8966Y422437D01*
X9363Y422834D01*
X9802Y423184D01*
X10278Y423483D01*
X10784Y423727D01*
X11314Y423912D01*
X11861Y424037D01*
X12419Y424100D01*
X12981Y424100D01*
X13539Y424037D01*
X14086Y423912D01*
X14616Y423727D01*
X15122Y423483D01*
X15598Y423184D01*
X16037Y422834D01*
X16434Y422437D01*
X16784Y421998D01*
X17083Y421522D01*
X17327Y421016D01*
X17512Y420486D01*
X17637Y419939D01*
X17700Y419381D01*
X17700Y418819D01*
M02*
