G04 EAGLE Gerber RS-274X export*
G75*
%MOMM*%
%FSLAX34Y34*%
%LPD*%
%IN*%
%IPPOS*%
%AMOC8*
5,1,8,0,0,1.08239X$1,22.5*%
G01*
%ADD10C,0.254000*%


D10*
X101600Y457200D02*
X584000Y457200D01*
X584000Y923800D01*
X101600Y923800D01*
X101600Y457200D01*
X119300Y622019D02*
X119237Y621461D01*
X119112Y620914D01*
X118927Y620384D01*
X118683Y619878D01*
X118384Y619402D01*
X118034Y618963D01*
X117637Y618566D01*
X117198Y618216D01*
X116722Y617917D01*
X116216Y617673D01*
X115686Y617488D01*
X115139Y617363D01*
X114581Y617300D01*
X114019Y617300D01*
X113461Y617363D01*
X112914Y617488D01*
X112384Y617673D01*
X111878Y617917D01*
X111402Y618216D01*
X110963Y618566D01*
X110566Y618963D01*
X110216Y619402D01*
X109917Y619878D01*
X109673Y620384D01*
X109488Y620914D01*
X109363Y621461D01*
X109300Y622019D01*
X109300Y622581D01*
X109363Y623139D01*
X109488Y623686D01*
X109673Y624216D01*
X109917Y624722D01*
X110216Y625198D01*
X110566Y625637D01*
X110963Y626034D01*
X111402Y626384D01*
X111878Y626683D01*
X112384Y626927D01*
X112914Y627112D01*
X113461Y627237D01*
X114019Y627300D01*
X114581Y627300D01*
X115139Y627237D01*
X115686Y627112D01*
X116216Y626927D01*
X116722Y626683D01*
X117198Y626384D01*
X117637Y626034D01*
X118034Y625637D01*
X118384Y625198D01*
X118683Y624722D01*
X118927Y624216D01*
X119112Y623686D01*
X119237Y623139D01*
X119300Y622581D01*
X119300Y622019D01*
X119300Y876019D02*
X119237Y875461D01*
X119112Y874914D01*
X118927Y874384D01*
X118683Y873878D01*
X118384Y873402D01*
X118034Y872963D01*
X117637Y872566D01*
X117198Y872216D01*
X116722Y871917D01*
X116216Y871673D01*
X115686Y871488D01*
X115139Y871363D01*
X114581Y871300D01*
X114019Y871300D01*
X113461Y871363D01*
X112914Y871488D01*
X112384Y871673D01*
X111878Y871917D01*
X111402Y872216D01*
X110963Y872566D01*
X110566Y872963D01*
X110216Y873402D01*
X109917Y873878D01*
X109673Y874384D01*
X109488Y874914D01*
X109363Y875461D01*
X109300Y876019D01*
X109300Y876581D01*
X109363Y877139D01*
X109488Y877686D01*
X109673Y878216D01*
X109917Y878722D01*
X110216Y879198D01*
X110566Y879637D01*
X110963Y880034D01*
X111402Y880384D01*
X111878Y880683D01*
X112384Y880927D01*
X112914Y881112D01*
X113461Y881237D01*
X114019Y881300D01*
X114581Y881300D01*
X115139Y881237D01*
X115686Y881112D01*
X116216Y880927D01*
X116722Y880683D01*
X117198Y880384D01*
X117637Y880034D01*
X118034Y879637D01*
X118384Y879198D01*
X118683Y878722D01*
X118927Y878216D01*
X119112Y877686D01*
X119237Y877139D01*
X119300Y876581D01*
X119300Y876019D01*
M02*
