G04 EAGLE Gerber RS-274X export*
G75*
%MOMM*%
%FSLAX34Y34*%
%LPD*%
%INSilkscreen Top*%
%IPPOS*%
%AMOC8*
5,1,8,0,0,1.08239X$1,22.5*%
G01*
%ADD10C,0.101600*%
%ADD11C,0.076200*%
%ADD12C,0.050800*%
%ADD13C,0.152400*%
%ADD14C,0.127000*%
%ADD15R,0.555000X0.600000*%
%ADD16R,0.600000X0.555000*%
%ADD17C,0.254000*%
%ADD18C,0.200000*%


D10*
X549148Y478028D02*
X560832Y481923D01*
X549148Y485817D01*
X560832Y491942D02*
X560832Y495187D01*
X560832Y491942D02*
X560830Y491855D01*
X560824Y491767D01*
X560814Y491681D01*
X560801Y491594D01*
X560783Y491509D01*
X560762Y491424D01*
X560737Y491340D01*
X560708Y491258D01*
X560675Y491177D01*
X560639Y491097D01*
X560600Y491019D01*
X560556Y490943D01*
X560510Y490869D01*
X560460Y490798D01*
X560407Y490728D01*
X560351Y490661D01*
X560292Y490597D01*
X560230Y490535D01*
X560166Y490476D01*
X560099Y490420D01*
X560029Y490367D01*
X559958Y490317D01*
X559884Y490271D01*
X559808Y490227D01*
X559730Y490188D01*
X559650Y490152D01*
X559569Y490119D01*
X559487Y490090D01*
X559403Y490065D01*
X559318Y490044D01*
X559233Y490026D01*
X559146Y490013D01*
X559060Y490003D01*
X558972Y489997D01*
X558885Y489995D01*
X558885Y489994D02*
X555639Y489994D01*
X555639Y489995D02*
X555538Y489997D01*
X555438Y490003D01*
X555338Y490013D01*
X555238Y490026D01*
X555139Y490044D01*
X555040Y490065D01*
X554943Y490090D01*
X554846Y490119D01*
X554751Y490152D01*
X554657Y490188D01*
X554565Y490228D01*
X554474Y490271D01*
X554385Y490318D01*
X554298Y490368D01*
X554212Y490422D01*
X554129Y490479D01*
X554049Y490539D01*
X553970Y490602D01*
X553894Y490669D01*
X553821Y490738D01*
X553751Y490810D01*
X553683Y490884D01*
X553618Y490961D01*
X553557Y491041D01*
X553498Y491123D01*
X553443Y491207D01*
X553391Y491293D01*
X553342Y491381D01*
X553297Y491471D01*
X553255Y491563D01*
X553217Y491656D01*
X553183Y491751D01*
X553152Y491846D01*
X553125Y491943D01*
X553102Y492041D01*
X553082Y492140D01*
X553067Y492240D01*
X553055Y492340D01*
X553047Y492440D01*
X553043Y492541D01*
X553043Y492641D01*
X553047Y492742D01*
X553055Y492842D01*
X553067Y492942D01*
X553082Y493042D01*
X553102Y493141D01*
X553125Y493239D01*
X553152Y493336D01*
X553183Y493431D01*
X553217Y493526D01*
X553255Y493619D01*
X553297Y493711D01*
X553342Y493801D01*
X553391Y493889D01*
X553443Y493975D01*
X553498Y494059D01*
X553557Y494141D01*
X553618Y494221D01*
X553683Y494298D01*
X553751Y494372D01*
X553821Y494444D01*
X553894Y494513D01*
X553970Y494580D01*
X554049Y494643D01*
X554129Y494703D01*
X554212Y494760D01*
X554298Y494814D01*
X554385Y494864D01*
X554474Y494911D01*
X554565Y494954D01*
X554657Y494994D01*
X554751Y495030D01*
X554846Y495063D01*
X554943Y495092D01*
X555040Y495117D01*
X555139Y495138D01*
X555238Y495156D01*
X555338Y495169D01*
X555438Y495179D01*
X555538Y495185D01*
X555639Y495187D01*
X556937Y495187D01*
X556937Y489994D01*
X556288Y500874D02*
X557586Y504119D01*
X556289Y500874D02*
X556256Y500799D01*
X556220Y500725D01*
X556181Y500653D01*
X556138Y500583D01*
X556092Y500516D01*
X556042Y500450D01*
X555990Y500388D01*
X555934Y500327D01*
X555876Y500270D01*
X555815Y500215D01*
X555751Y500164D01*
X555685Y500116D01*
X555616Y500071D01*
X555546Y500029D01*
X555473Y499991D01*
X555399Y499956D01*
X555323Y499925D01*
X555246Y499898D01*
X555167Y499875D01*
X555088Y499855D01*
X555007Y499840D01*
X554926Y499828D01*
X554844Y499820D01*
X554763Y499816D01*
X554681Y499817D01*
X554599Y499821D01*
X554517Y499829D01*
X554436Y499841D01*
X554356Y499857D01*
X554276Y499877D01*
X554198Y499901D01*
X554121Y499929D01*
X554045Y499960D01*
X553971Y499995D01*
X553899Y500033D01*
X553828Y500075D01*
X553760Y500121D01*
X553694Y500169D01*
X553631Y500221D01*
X553570Y500276D01*
X553512Y500334D01*
X553456Y500394D01*
X553404Y500457D01*
X553355Y500523D01*
X553309Y500591D01*
X553267Y500661D01*
X553227Y500733D01*
X553192Y500807D01*
X553160Y500882D01*
X553132Y500959D01*
X553108Y501037D01*
X553087Y501117D01*
X553070Y501197D01*
X553058Y501278D01*
X553049Y501359D01*
X553044Y501441D01*
X553043Y501523D01*
X553047Y501700D01*
X553056Y501877D01*
X553070Y502054D01*
X553087Y502231D01*
X553109Y502406D01*
X553134Y502582D01*
X553165Y502756D01*
X553199Y502930D01*
X553237Y503103D01*
X553280Y503275D01*
X553327Y503446D01*
X553377Y503616D01*
X553432Y503785D01*
X553491Y503952D01*
X553554Y504118D01*
X553621Y504282D01*
X553692Y504444D01*
X557586Y504119D02*
X557619Y504194D01*
X557655Y504268D01*
X557694Y504340D01*
X557737Y504410D01*
X557783Y504477D01*
X557833Y504543D01*
X557885Y504605D01*
X557941Y504666D01*
X557999Y504723D01*
X558060Y504778D01*
X558124Y504829D01*
X558190Y504877D01*
X558259Y504922D01*
X558329Y504964D01*
X558402Y505002D01*
X558476Y505037D01*
X558552Y505068D01*
X558629Y505095D01*
X558708Y505118D01*
X558788Y505138D01*
X558868Y505153D01*
X558949Y505165D01*
X559031Y505173D01*
X559112Y505177D01*
X559194Y505176D01*
X559276Y505172D01*
X559358Y505164D01*
X559439Y505152D01*
X559519Y505136D01*
X559599Y505116D01*
X559677Y505092D01*
X559754Y505064D01*
X559830Y505033D01*
X559904Y504998D01*
X559976Y504960D01*
X560047Y504918D01*
X560115Y504872D01*
X560181Y504824D01*
X560244Y504772D01*
X560305Y504717D01*
X560363Y504659D01*
X560419Y504599D01*
X560471Y504536D01*
X560520Y504470D01*
X560566Y504402D01*
X560608Y504332D01*
X560648Y504260D01*
X560683Y504186D01*
X560715Y504111D01*
X560743Y504034D01*
X560767Y503956D01*
X560788Y503876D01*
X560805Y503796D01*
X560817Y503715D01*
X560826Y503634D01*
X560831Y503552D01*
X560832Y503470D01*
X560832Y503471D02*
X560825Y503211D01*
X560812Y502951D01*
X560793Y502691D01*
X560768Y502432D01*
X560736Y502173D01*
X560699Y501916D01*
X560655Y501659D01*
X560606Y501403D01*
X560550Y501149D01*
X560489Y500896D01*
X560421Y500645D01*
X560347Y500395D01*
X560268Y500147D01*
X560183Y499901D01*
X553043Y508839D02*
X553043Y512734D01*
X549148Y510137D02*
X558885Y510137D01*
X558972Y510139D01*
X559060Y510145D01*
X559146Y510155D01*
X559233Y510168D01*
X559318Y510186D01*
X559403Y510207D01*
X559487Y510232D01*
X559569Y510261D01*
X559650Y510294D01*
X559730Y510330D01*
X559808Y510369D01*
X559884Y510413D01*
X559958Y510459D01*
X560029Y510509D01*
X560099Y510562D01*
X560166Y510618D01*
X560230Y510677D01*
X560292Y510739D01*
X560351Y510803D01*
X560407Y510870D01*
X560460Y510940D01*
X560510Y511011D01*
X560556Y511085D01*
X560600Y511161D01*
X560639Y511239D01*
X560675Y511319D01*
X560708Y511400D01*
X560737Y511482D01*
X560762Y511566D01*
X560783Y511651D01*
X560801Y511736D01*
X560814Y511823D01*
X560824Y511909D01*
X560830Y511997D01*
X560832Y512084D01*
X560832Y512734D01*
X560832Y517493D02*
X553043Y517493D01*
X553043Y521387D01*
X554341Y521387D01*
X555639Y525046D02*
X558236Y525046D01*
X555639Y525047D02*
X555538Y525049D01*
X555438Y525055D01*
X555338Y525065D01*
X555238Y525078D01*
X555139Y525096D01*
X555040Y525117D01*
X554943Y525142D01*
X554846Y525171D01*
X554751Y525204D01*
X554657Y525240D01*
X554565Y525280D01*
X554474Y525323D01*
X554385Y525370D01*
X554298Y525420D01*
X554212Y525474D01*
X554129Y525531D01*
X554049Y525591D01*
X553970Y525654D01*
X553894Y525721D01*
X553821Y525790D01*
X553751Y525862D01*
X553683Y525936D01*
X553618Y526013D01*
X553557Y526093D01*
X553498Y526175D01*
X553443Y526259D01*
X553391Y526345D01*
X553342Y526433D01*
X553297Y526523D01*
X553255Y526615D01*
X553217Y526708D01*
X553183Y526803D01*
X553152Y526898D01*
X553125Y526995D01*
X553102Y527093D01*
X553082Y527192D01*
X553067Y527292D01*
X553055Y527392D01*
X553047Y527492D01*
X553043Y527593D01*
X553043Y527693D01*
X553047Y527794D01*
X553055Y527894D01*
X553067Y527994D01*
X553082Y528094D01*
X553102Y528193D01*
X553125Y528291D01*
X553152Y528388D01*
X553183Y528483D01*
X553217Y528578D01*
X553255Y528671D01*
X553297Y528763D01*
X553342Y528853D01*
X553391Y528941D01*
X553443Y529027D01*
X553498Y529111D01*
X553557Y529193D01*
X553618Y529273D01*
X553683Y529350D01*
X553751Y529424D01*
X553821Y529496D01*
X553894Y529565D01*
X553970Y529632D01*
X554049Y529695D01*
X554129Y529755D01*
X554212Y529812D01*
X554298Y529866D01*
X554385Y529916D01*
X554474Y529963D01*
X554565Y530006D01*
X554657Y530046D01*
X554751Y530082D01*
X554846Y530115D01*
X554943Y530144D01*
X555040Y530169D01*
X555139Y530190D01*
X555238Y530208D01*
X555338Y530221D01*
X555438Y530231D01*
X555538Y530237D01*
X555639Y530239D01*
X558236Y530239D01*
X558337Y530237D01*
X558437Y530231D01*
X558537Y530221D01*
X558637Y530208D01*
X558736Y530190D01*
X558835Y530169D01*
X558932Y530144D01*
X559029Y530115D01*
X559124Y530082D01*
X559218Y530046D01*
X559310Y530006D01*
X559401Y529963D01*
X559490Y529916D01*
X559577Y529866D01*
X559663Y529812D01*
X559746Y529755D01*
X559826Y529695D01*
X559905Y529632D01*
X559981Y529565D01*
X560054Y529496D01*
X560124Y529424D01*
X560192Y529350D01*
X560257Y529273D01*
X560318Y529193D01*
X560377Y529111D01*
X560432Y529027D01*
X560484Y528941D01*
X560533Y528853D01*
X560578Y528763D01*
X560620Y528671D01*
X560658Y528578D01*
X560692Y528483D01*
X560723Y528388D01*
X560750Y528291D01*
X560773Y528193D01*
X560793Y528094D01*
X560808Y527994D01*
X560820Y527894D01*
X560828Y527794D01*
X560832Y527693D01*
X560832Y527593D01*
X560828Y527492D01*
X560820Y527392D01*
X560808Y527292D01*
X560793Y527192D01*
X560773Y527093D01*
X560750Y526995D01*
X560723Y526898D01*
X560692Y526803D01*
X560658Y526708D01*
X560620Y526615D01*
X560578Y526523D01*
X560533Y526433D01*
X560484Y526345D01*
X560432Y526259D01*
X560377Y526175D01*
X560318Y526093D01*
X560257Y526013D01*
X560192Y525936D01*
X560124Y525862D01*
X560054Y525790D01*
X559981Y525721D01*
X559905Y525654D01*
X559826Y525591D01*
X559746Y525531D01*
X559663Y525474D01*
X559577Y525420D01*
X559490Y525370D01*
X559401Y525323D01*
X559310Y525280D01*
X559218Y525240D01*
X559124Y525204D01*
X559029Y525171D01*
X558932Y525142D01*
X558835Y525117D01*
X558736Y525096D01*
X558637Y525078D01*
X558537Y525065D01*
X558437Y525055D01*
X558337Y525049D01*
X558236Y525047D01*
X560832Y535333D02*
X553043Y535333D01*
X553043Y538579D01*
X553045Y538666D01*
X553051Y538754D01*
X553061Y538840D01*
X553074Y538927D01*
X553092Y539012D01*
X553113Y539097D01*
X553138Y539181D01*
X553167Y539263D01*
X553200Y539344D01*
X553236Y539424D01*
X553275Y539502D01*
X553319Y539578D01*
X553365Y539652D01*
X553415Y539723D01*
X553468Y539793D01*
X553524Y539860D01*
X553583Y539924D01*
X553644Y539986D01*
X553709Y540045D01*
X553776Y540101D01*
X553846Y540154D01*
X553917Y540204D01*
X553991Y540250D01*
X554067Y540294D01*
X554145Y540333D01*
X554225Y540369D01*
X554306Y540402D01*
X554388Y540431D01*
X554472Y540456D01*
X554557Y540477D01*
X554642Y540495D01*
X554729Y540508D01*
X554815Y540518D01*
X554903Y540524D01*
X554990Y540526D01*
X560832Y540526D01*
X560832Y547509D02*
X560832Y550754D01*
X560832Y547509D02*
X560830Y547422D01*
X560824Y547334D01*
X560814Y547248D01*
X560801Y547161D01*
X560783Y547076D01*
X560762Y546991D01*
X560737Y546907D01*
X560708Y546825D01*
X560675Y546744D01*
X560639Y546664D01*
X560600Y546586D01*
X560556Y546510D01*
X560510Y546436D01*
X560460Y546365D01*
X560407Y546295D01*
X560351Y546228D01*
X560292Y546164D01*
X560230Y546102D01*
X560166Y546043D01*
X560099Y545987D01*
X560029Y545934D01*
X559958Y545884D01*
X559884Y545838D01*
X559808Y545794D01*
X559730Y545755D01*
X559650Y545719D01*
X559569Y545686D01*
X559487Y545657D01*
X559403Y545632D01*
X559318Y545611D01*
X559233Y545593D01*
X559146Y545580D01*
X559060Y545570D01*
X558972Y545564D01*
X558885Y545562D01*
X558885Y545561D02*
X554990Y545561D01*
X554990Y545562D02*
X554903Y545564D01*
X554815Y545570D01*
X554729Y545580D01*
X554642Y545593D01*
X554557Y545611D01*
X554472Y545632D01*
X554388Y545657D01*
X554306Y545686D01*
X554225Y545719D01*
X554145Y545755D01*
X554067Y545794D01*
X553991Y545838D01*
X553917Y545884D01*
X553846Y545934D01*
X553776Y545987D01*
X553709Y546043D01*
X553645Y546102D01*
X553583Y546164D01*
X553524Y546228D01*
X553468Y546295D01*
X553415Y546365D01*
X553365Y546436D01*
X553319Y546510D01*
X553275Y546586D01*
X553236Y546664D01*
X553200Y546744D01*
X553167Y546825D01*
X553138Y546907D01*
X553113Y546991D01*
X553092Y547076D01*
X553074Y547161D01*
X553061Y547248D01*
X553051Y547334D01*
X553045Y547422D01*
X553043Y547509D01*
X553043Y550754D01*
X562779Y550754D01*
X562866Y550752D01*
X562954Y550746D01*
X563040Y550736D01*
X563127Y550723D01*
X563212Y550705D01*
X563297Y550684D01*
X563381Y550659D01*
X563463Y550630D01*
X563544Y550597D01*
X563624Y550561D01*
X563702Y550522D01*
X563778Y550478D01*
X563852Y550432D01*
X563923Y550382D01*
X563993Y550329D01*
X564060Y550273D01*
X564124Y550214D01*
X564186Y550152D01*
X564245Y550088D01*
X564301Y550021D01*
X564354Y549951D01*
X564404Y549880D01*
X564450Y549806D01*
X564494Y549730D01*
X564533Y549652D01*
X564569Y549572D01*
X564602Y549491D01*
X564631Y549409D01*
X564656Y549325D01*
X564677Y549240D01*
X564695Y549155D01*
X564708Y549068D01*
X564718Y548982D01*
X564724Y548894D01*
X564726Y548807D01*
X564727Y548807D02*
X564727Y546210D01*
X560832Y565630D02*
X560830Y565729D01*
X560824Y565829D01*
X560815Y565928D01*
X560802Y566026D01*
X560785Y566124D01*
X560764Y566222D01*
X560739Y566318D01*
X560711Y566413D01*
X560679Y566507D01*
X560644Y566600D01*
X560605Y566692D01*
X560562Y566782D01*
X560517Y566870D01*
X560467Y566957D01*
X560415Y567041D01*
X560359Y567124D01*
X560301Y567204D01*
X560239Y567282D01*
X560174Y567357D01*
X560106Y567430D01*
X560036Y567500D01*
X559963Y567568D01*
X559888Y567633D01*
X559810Y567695D01*
X559730Y567753D01*
X559647Y567809D01*
X559563Y567861D01*
X559476Y567911D01*
X559388Y567956D01*
X559298Y567999D01*
X559206Y568038D01*
X559113Y568073D01*
X559019Y568105D01*
X558924Y568133D01*
X558828Y568158D01*
X558730Y568179D01*
X558632Y568196D01*
X558534Y568209D01*
X558435Y568218D01*
X558335Y568224D01*
X558236Y568226D01*
X560832Y565630D02*
X560830Y565486D01*
X560824Y565341D01*
X560815Y565197D01*
X560802Y565054D01*
X560785Y564910D01*
X560764Y564767D01*
X560739Y564625D01*
X560711Y564484D01*
X560679Y564343D01*
X560643Y564203D01*
X560604Y564064D01*
X560561Y563926D01*
X560514Y563790D01*
X560464Y563654D01*
X560410Y563520D01*
X560353Y563388D01*
X560292Y563257D01*
X560228Y563128D01*
X560160Y563000D01*
X560090Y562874D01*
X560015Y562750D01*
X559938Y562629D01*
X559857Y562509D01*
X559774Y562391D01*
X559687Y562276D01*
X559597Y562163D01*
X559504Y562052D01*
X559409Y561944D01*
X559310Y561838D01*
X559209Y561735D01*
X551744Y562060D02*
X551645Y562062D01*
X551545Y562068D01*
X551446Y562077D01*
X551348Y562090D01*
X551250Y562107D01*
X551152Y562128D01*
X551056Y562153D01*
X550961Y562181D01*
X550867Y562213D01*
X550774Y562248D01*
X550682Y562287D01*
X550592Y562330D01*
X550504Y562375D01*
X550417Y562425D01*
X550333Y562477D01*
X550250Y562533D01*
X550170Y562591D01*
X550092Y562653D01*
X550017Y562718D01*
X549944Y562786D01*
X549874Y562856D01*
X549806Y562929D01*
X549741Y563004D01*
X549679Y563082D01*
X549621Y563162D01*
X549565Y563245D01*
X549513Y563329D01*
X549463Y563416D01*
X549418Y563504D01*
X549375Y563594D01*
X549336Y563686D01*
X549301Y563779D01*
X549269Y563873D01*
X549241Y563968D01*
X549216Y564064D01*
X549195Y564162D01*
X549178Y564260D01*
X549165Y564358D01*
X549156Y564457D01*
X549150Y564557D01*
X549148Y564656D01*
X549150Y564792D01*
X549156Y564928D01*
X549165Y565064D01*
X549178Y565200D01*
X549196Y565335D01*
X549216Y565469D01*
X549241Y565603D01*
X549269Y565737D01*
X549302Y565869D01*
X549337Y566000D01*
X549377Y566131D01*
X549420Y566260D01*
X549466Y566388D01*
X549517Y566514D01*
X549570Y566640D01*
X549628Y566763D01*
X549688Y566885D01*
X549752Y567005D01*
X549820Y567124D01*
X549890Y567240D01*
X549964Y567354D01*
X550041Y567467D01*
X550122Y567577D01*
X554016Y563358D02*
X553963Y563272D01*
X553906Y563188D01*
X553847Y563106D01*
X553784Y563026D01*
X553718Y562949D01*
X553650Y562874D01*
X553578Y562802D01*
X553504Y562733D01*
X553427Y562667D01*
X553348Y562604D01*
X553266Y562544D01*
X553182Y562487D01*
X553096Y562433D01*
X553008Y562383D01*
X552918Y562336D01*
X552827Y562292D01*
X552733Y562253D01*
X552639Y562216D01*
X552543Y562184D01*
X552445Y562155D01*
X552347Y562130D01*
X552248Y562109D01*
X552148Y562091D01*
X552048Y562078D01*
X551947Y562068D01*
X551845Y562062D01*
X551744Y562060D01*
X555964Y566928D02*
X556017Y567014D01*
X556074Y567098D01*
X556133Y567180D01*
X556196Y567260D01*
X556262Y567337D01*
X556330Y567412D01*
X556402Y567484D01*
X556476Y567553D01*
X556553Y567619D01*
X556632Y567682D01*
X556714Y567742D01*
X556798Y567799D01*
X556884Y567853D01*
X556972Y567903D01*
X557062Y567950D01*
X557153Y567994D01*
X557247Y568033D01*
X557341Y568070D01*
X557437Y568102D01*
X557535Y568131D01*
X557633Y568156D01*
X557732Y568177D01*
X557832Y568195D01*
X557932Y568208D01*
X558033Y568218D01*
X558135Y568224D01*
X558236Y568226D01*
X555964Y566928D02*
X554016Y563358D01*
X560832Y574618D02*
X560832Y577864D01*
X560832Y574618D02*
X560830Y574531D01*
X560824Y574443D01*
X560814Y574357D01*
X560801Y574270D01*
X560783Y574185D01*
X560762Y574100D01*
X560737Y574016D01*
X560708Y573934D01*
X560675Y573853D01*
X560639Y573773D01*
X560600Y573695D01*
X560556Y573619D01*
X560510Y573545D01*
X560460Y573474D01*
X560407Y573404D01*
X560351Y573337D01*
X560292Y573273D01*
X560230Y573211D01*
X560166Y573152D01*
X560099Y573096D01*
X560029Y573043D01*
X559958Y572993D01*
X559884Y572947D01*
X559808Y572903D01*
X559730Y572864D01*
X559650Y572828D01*
X559569Y572795D01*
X559487Y572766D01*
X559403Y572741D01*
X559318Y572720D01*
X559233Y572702D01*
X559146Y572689D01*
X559060Y572679D01*
X558972Y572673D01*
X558885Y572671D01*
X555639Y572671D01*
X555639Y572672D02*
X555538Y572674D01*
X555438Y572680D01*
X555338Y572690D01*
X555238Y572703D01*
X555139Y572721D01*
X555040Y572742D01*
X554943Y572767D01*
X554846Y572796D01*
X554751Y572829D01*
X554657Y572865D01*
X554565Y572905D01*
X554474Y572948D01*
X554385Y572995D01*
X554298Y573045D01*
X554212Y573099D01*
X554129Y573156D01*
X554049Y573216D01*
X553970Y573279D01*
X553894Y573346D01*
X553821Y573415D01*
X553751Y573487D01*
X553683Y573561D01*
X553618Y573638D01*
X553557Y573718D01*
X553498Y573800D01*
X553443Y573884D01*
X553391Y573970D01*
X553342Y574058D01*
X553297Y574148D01*
X553255Y574240D01*
X553217Y574333D01*
X553183Y574428D01*
X553152Y574523D01*
X553125Y574620D01*
X553102Y574718D01*
X553082Y574817D01*
X553067Y574917D01*
X553055Y575017D01*
X553047Y575117D01*
X553043Y575218D01*
X553043Y575318D01*
X553047Y575419D01*
X553055Y575519D01*
X553067Y575619D01*
X553082Y575719D01*
X553102Y575818D01*
X553125Y575916D01*
X553152Y576013D01*
X553183Y576108D01*
X553217Y576203D01*
X553255Y576296D01*
X553297Y576388D01*
X553342Y576478D01*
X553391Y576566D01*
X553443Y576652D01*
X553498Y576736D01*
X553557Y576818D01*
X553618Y576898D01*
X553683Y576975D01*
X553751Y577049D01*
X553821Y577121D01*
X553894Y577190D01*
X553970Y577257D01*
X554049Y577320D01*
X554129Y577380D01*
X554212Y577437D01*
X554298Y577491D01*
X554385Y577541D01*
X554474Y577588D01*
X554565Y577631D01*
X554657Y577671D01*
X554751Y577707D01*
X554846Y577740D01*
X554943Y577769D01*
X555040Y577794D01*
X555139Y577815D01*
X555238Y577833D01*
X555338Y577846D01*
X555438Y577856D01*
X555538Y577862D01*
X555639Y577864D01*
X556937Y577864D01*
X556937Y572671D01*
X560832Y582958D02*
X553043Y582958D01*
X553043Y586204D01*
X553045Y586291D01*
X553051Y586379D01*
X553061Y586465D01*
X553074Y586552D01*
X553092Y586637D01*
X553113Y586722D01*
X553138Y586806D01*
X553167Y586888D01*
X553200Y586969D01*
X553236Y587049D01*
X553275Y587127D01*
X553319Y587203D01*
X553365Y587277D01*
X553415Y587348D01*
X553468Y587418D01*
X553524Y587485D01*
X553583Y587549D01*
X553644Y587611D01*
X553709Y587670D01*
X553776Y587726D01*
X553846Y587779D01*
X553917Y587829D01*
X553991Y587875D01*
X554067Y587919D01*
X554145Y587958D01*
X554225Y587994D01*
X554306Y588027D01*
X554388Y588056D01*
X554472Y588081D01*
X554557Y588102D01*
X554642Y588120D01*
X554729Y588133D01*
X554815Y588143D01*
X554903Y588149D01*
X554990Y588151D01*
X560832Y588151D01*
X556288Y594219D02*
X557586Y597464D01*
X556289Y594219D02*
X556256Y594144D01*
X556220Y594070D01*
X556181Y593998D01*
X556138Y593928D01*
X556092Y593861D01*
X556042Y593795D01*
X555990Y593733D01*
X555934Y593672D01*
X555876Y593615D01*
X555815Y593560D01*
X555751Y593509D01*
X555685Y593461D01*
X555616Y593416D01*
X555546Y593374D01*
X555473Y593336D01*
X555399Y593301D01*
X555323Y593270D01*
X555246Y593243D01*
X555167Y593220D01*
X555088Y593200D01*
X555007Y593185D01*
X554926Y593173D01*
X554844Y593165D01*
X554763Y593161D01*
X554681Y593162D01*
X554599Y593166D01*
X554517Y593174D01*
X554436Y593186D01*
X554356Y593202D01*
X554276Y593222D01*
X554198Y593246D01*
X554121Y593274D01*
X554045Y593305D01*
X553971Y593340D01*
X553899Y593378D01*
X553828Y593420D01*
X553760Y593466D01*
X553694Y593514D01*
X553631Y593566D01*
X553570Y593621D01*
X553512Y593679D01*
X553456Y593739D01*
X553404Y593802D01*
X553355Y593868D01*
X553309Y593936D01*
X553267Y594006D01*
X553227Y594078D01*
X553192Y594152D01*
X553160Y594227D01*
X553132Y594304D01*
X553108Y594382D01*
X553087Y594462D01*
X553070Y594542D01*
X553058Y594623D01*
X553049Y594704D01*
X553044Y594786D01*
X553043Y594868D01*
X553047Y595045D01*
X553056Y595222D01*
X553070Y595399D01*
X553087Y595576D01*
X553109Y595751D01*
X553134Y595927D01*
X553165Y596101D01*
X553199Y596275D01*
X553237Y596448D01*
X553280Y596620D01*
X553327Y596791D01*
X553377Y596961D01*
X553432Y597130D01*
X553491Y597297D01*
X553554Y597463D01*
X553621Y597627D01*
X553692Y597789D01*
X557586Y597464D02*
X557619Y597539D01*
X557655Y597613D01*
X557694Y597685D01*
X557737Y597755D01*
X557783Y597822D01*
X557833Y597888D01*
X557885Y597950D01*
X557941Y598011D01*
X557999Y598068D01*
X558060Y598123D01*
X558124Y598174D01*
X558190Y598222D01*
X558259Y598267D01*
X558329Y598309D01*
X558402Y598347D01*
X558476Y598382D01*
X558552Y598413D01*
X558629Y598440D01*
X558708Y598463D01*
X558788Y598483D01*
X558868Y598498D01*
X558949Y598510D01*
X559031Y598518D01*
X559112Y598522D01*
X559194Y598521D01*
X559276Y598517D01*
X559358Y598509D01*
X559439Y598497D01*
X559519Y598481D01*
X559599Y598461D01*
X559677Y598437D01*
X559754Y598409D01*
X559830Y598378D01*
X559904Y598343D01*
X559976Y598305D01*
X560047Y598263D01*
X560115Y598217D01*
X560181Y598169D01*
X560244Y598117D01*
X560305Y598062D01*
X560363Y598004D01*
X560419Y597944D01*
X560471Y597881D01*
X560520Y597815D01*
X560566Y597747D01*
X560608Y597677D01*
X560648Y597605D01*
X560683Y597531D01*
X560715Y597456D01*
X560743Y597379D01*
X560767Y597301D01*
X560788Y597221D01*
X560805Y597141D01*
X560817Y597060D01*
X560826Y596979D01*
X560831Y596897D01*
X560832Y596815D01*
X560825Y596555D01*
X560812Y596295D01*
X560793Y596035D01*
X560768Y595776D01*
X560736Y595517D01*
X560699Y595260D01*
X560655Y595003D01*
X560606Y594747D01*
X560550Y594493D01*
X560489Y594240D01*
X560421Y593989D01*
X560347Y593739D01*
X560268Y593491D01*
X560183Y593245D01*
X558236Y603151D02*
X555639Y603151D01*
X555639Y603152D02*
X555538Y603154D01*
X555438Y603160D01*
X555338Y603170D01*
X555238Y603183D01*
X555139Y603201D01*
X555040Y603222D01*
X554943Y603247D01*
X554846Y603276D01*
X554751Y603309D01*
X554657Y603345D01*
X554565Y603385D01*
X554474Y603428D01*
X554385Y603475D01*
X554298Y603525D01*
X554212Y603579D01*
X554129Y603636D01*
X554049Y603696D01*
X553970Y603759D01*
X553894Y603826D01*
X553821Y603895D01*
X553751Y603967D01*
X553683Y604041D01*
X553618Y604118D01*
X553557Y604198D01*
X553498Y604280D01*
X553443Y604364D01*
X553391Y604450D01*
X553342Y604538D01*
X553297Y604628D01*
X553255Y604720D01*
X553217Y604813D01*
X553183Y604908D01*
X553152Y605003D01*
X553125Y605100D01*
X553102Y605198D01*
X553082Y605297D01*
X553067Y605397D01*
X553055Y605497D01*
X553047Y605597D01*
X553043Y605698D01*
X553043Y605798D01*
X553047Y605899D01*
X553055Y605999D01*
X553067Y606099D01*
X553082Y606199D01*
X553102Y606298D01*
X553125Y606396D01*
X553152Y606493D01*
X553183Y606588D01*
X553217Y606683D01*
X553255Y606776D01*
X553297Y606868D01*
X553342Y606958D01*
X553391Y607046D01*
X553443Y607132D01*
X553498Y607216D01*
X553557Y607298D01*
X553618Y607378D01*
X553683Y607455D01*
X553751Y607529D01*
X553821Y607601D01*
X553894Y607670D01*
X553970Y607737D01*
X554049Y607800D01*
X554129Y607860D01*
X554212Y607917D01*
X554298Y607971D01*
X554385Y608021D01*
X554474Y608068D01*
X554565Y608111D01*
X554657Y608151D01*
X554751Y608187D01*
X554846Y608220D01*
X554943Y608249D01*
X555040Y608274D01*
X555139Y608295D01*
X555238Y608313D01*
X555338Y608326D01*
X555438Y608336D01*
X555538Y608342D01*
X555639Y608344D01*
X558236Y608344D01*
X558337Y608342D01*
X558437Y608336D01*
X558537Y608326D01*
X558637Y608313D01*
X558736Y608295D01*
X558835Y608274D01*
X558932Y608249D01*
X559029Y608220D01*
X559124Y608187D01*
X559218Y608151D01*
X559310Y608111D01*
X559401Y608068D01*
X559490Y608021D01*
X559577Y607971D01*
X559663Y607917D01*
X559746Y607860D01*
X559826Y607800D01*
X559905Y607737D01*
X559981Y607670D01*
X560054Y607601D01*
X560124Y607529D01*
X560192Y607455D01*
X560257Y607378D01*
X560318Y607298D01*
X560377Y607216D01*
X560432Y607132D01*
X560484Y607046D01*
X560533Y606958D01*
X560578Y606868D01*
X560620Y606776D01*
X560658Y606683D01*
X560692Y606588D01*
X560723Y606493D01*
X560750Y606396D01*
X560773Y606298D01*
X560793Y606199D01*
X560808Y606099D01*
X560820Y605999D01*
X560828Y605899D01*
X560832Y605798D01*
X560832Y605698D01*
X560828Y605597D01*
X560820Y605497D01*
X560808Y605397D01*
X560793Y605297D01*
X560773Y605198D01*
X560750Y605100D01*
X560723Y605003D01*
X560692Y604908D01*
X560658Y604813D01*
X560620Y604720D01*
X560578Y604628D01*
X560533Y604538D01*
X560484Y604450D01*
X560432Y604364D01*
X560377Y604280D01*
X560318Y604198D01*
X560257Y604118D01*
X560192Y604041D01*
X560124Y603967D01*
X560054Y603895D01*
X559981Y603826D01*
X559905Y603759D01*
X559826Y603696D01*
X559746Y603636D01*
X559663Y603579D01*
X559577Y603525D01*
X559490Y603475D01*
X559401Y603428D01*
X559310Y603385D01*
X559218Y603345D01*
X559124Y603309D01*
X559029Y603276D01*
X558932Y603247D01*
X558835Y603222D01*
X558736Y603201D01*
X558637Y603183D01*
X558537Y603170D01*
X558437Y603160D01*
X558337Y603154D01*
X558236Y603152D01*
X560832Y613505D02*
X553043Y613505D01*
X553043Y617399D01*
X554341Y617399D01*
X551744Y627267D02*
X549148Y630513D01*
X560832Y630513D01*
X560832Y633758D02*
X560832Y627267D01*
X560832Y638189D02*
X560183Y638189D01*
X560183Y638838D01*
X560832Y638838D01*
X560832Y638189D01*
X554990Y643269D02*
X554760Y643272D01*
X554530Y643280D01*
X554301Y643294D01*
X554072Y643313D01*
X553843Y643338D01*
X553615Y643368D01*
X553388Y643403D01*
X553162Y643444D01*
X552937Y643490D01*
X552713Y643542D01*
X552490Y643599D01*
X552269Y643661D01*
X552049Y643729D01*
X551831Y643802D01*
X551615Y643880D01*
X551401Y643963D01*
X551189Y644051D01*
X550978Y644144D01*
X550771Y644243D01*
X550771Y644242D02*
X550681Y644275D01*
X550592Y644311D01*
X550504Y644351D01*
X550419Y644395D01*
X550335Y644442D01*
X550253Y644492D01*
X550173Y644546D01*
X550096Y644602D01*
X550020Y644662D01*
X549947Y644725D01*
X549877Y644790D01*
X549809Y644859D01*
X549745Y644930D01*
X549683Y645003D01*
X549624Y645079D01*
X549568Y645157D01*
X549515Y645238D01*
X549466Y645320D01*
X549420Y645404D01*
X549377Y645491D01*
X549338Y645578D01*
X549302Y645668D01*
X549270Y645758D01*
X549242Y645850D01*
X549217Y645943D01*
X549196Y646037D01*
X549179Y646131D01*
X549165Y646226D01*
X549156Y646322D01*
X549150Y646418D01*
X549148Y646514D01*
X549150Y646610D01*
X549156Y646706D01*
X549165Y646802D01*
X549179Y646897D01*
X549196Y646991D01*
X549217Y647085D01*
X549242Y647178D01*
X549270Y647270D01*
X549302Y647360D01*
X549338Y647450D01*
X549377Y647538D01*
X549420Y647624D01*
X549466Y647708D01*
X549515Y647790D01*
X549568Y647871D01*
X549624Y647949D01*
X549683Y648025D01*
X549745Y648098D01*
X549809Y648169D01*
X549877Y648238D01*
X549947Y648303D01*
X550020Y648366D01*
X550096Y648426D01*
X550173Y648482D01*
X550253Y648536D01*
X550335Y648586D01*
X550419Y648633D01*
X550504Y648677D01*
X550592Y648717D01*
X550681Y648753D01*
X550771Y648786D01*
X550978Y648885D01*
X551189Y648978D01*
X551401Y649066D01*
X551615Y649149D01*
X551831Y649227D01*
X552049Y649300D01*
X552269Y649368D01*
X552490Y649430D01*
X552713Y649487D01*
X552937Y649539D01*
X553162Y649585D01*
X553388Y649626D01*
X553615Y649661D01*
X553843Y649691D01*
X554072Y649716D01*
X554301Y649735D01*
X554530Y649749D01*
X554760Y649757D01*
X554990Y649760D01*
X554990Y643269D02*
X555220Y643272D01*
X555450Y643280D01*
X555679Y643294D01*
X555908Y643313D01*
X556137Y643338D01*
X556365Y643368D01*
X556592Y643403D01*
X556818Y643444D01*
X557043Y643490D01*
X557267Y643542D01*
X557490Y643599D01*
X557711Y643661D01*
X557931Y643729D01*
X558149Y643802D01*
X558365Y643880D01*
X558579Y643963D01*
X558791Y644051D01*
X559002Y644144D01*
X559209Y644243D01*
X559209Y644242D02*
X559299Y644275D01*
X559388Y644311D01*
X559476Y644352D01*
X559561Y644395D01*
X559645Y644442D01*
X559727Y644492D01*
X559807Y644546D01*
X559884Y644602D01*
X559960Y644662D01*
X560033Y644725D01*
X560103Y644790D01*
X560171Y644859D01*
X560235Y644930D01*
X560297Y645003D01*
X560356Y645079D01*
X560412Y645157D01*
X560465Y645238D01*
X560514Y645320D01*
X560560Y645404D01*
X560603Y645491D01*
X560642Y645578D01*
X560678Y645668D01*
X560710Y645758D01*
X560738Y645850D01*
X560763Y645943D01*
X560784Y646037D01*
X560801Y646131D01*
X560815Y646226D01*
X560824Y646322D01*
X560830Y646418D01*
X560832Y646514D01*
X559209Y648786D02*
X559002Y648885D01*
X558791Y648978D01*
X558579Y649066D01*
X558365Y649149D01*
X558149Y649227D01*
X557931Y649300D01*
X557711Y649368D01*
X557490Y649430D01*
X557267Y649487D01*
X557043Y649539D01*
X556818Y649585D01*
X556592Y649626D01*
X556365Y649661D01*
X556137Y649691D01*
X555908Y649716D01*
X555679Y649735D01*
X555450Y649749D01*
X555220Y649757D01*
X554990Y649760D01*
X559209Y648786D02*
X559299Y648753D01*
X559388Y648717D01*
X559476Y648677D01*
X559561Y648633D01*
X559645Y648586D01*
X559727Y648536D01*
X559807Y648482D01*
X559884Y648426D01*
X559960Y648366D01*
X560033Y648303D01*
X560103Y648238D01*
X560171Y648169D01*
X560235Y648098D01*
X560297Y648025D01*
X560356Y647949D01*
X560412Y647871D01*
X560465Y647790D01*
X560514Y647708D01*
X560560Y647624D01*
X560603Y647537D01*
X560642Y647450D01*
X560678Y647360D01*
X560710Y647270D01*
X560738Y647178D01*
X560763Y647085D01*
X560784Y646991D01*
X560801Y646897D01*
X560815Y646802D01*
X560824Y646706D01*
X560830Y646610D01*
X560832Y646514D01*
X558236Y643918D02*
X551744Y649111D01*
D11*
X547822Y720471D02*
X545211Y720471D01*
X547822Y720471D02*
X547923Y720473D01*
X548024Y720479D01*
X548125Y720489D01*
X548225Y720502D01*
X548325Y720520D01*
X548424Y720541D01*
X548522Y720567D01*
X548619Y720596D01*
X548715Y720628D01*
X548809Y720665D01*
X548902Y720705D01*
X548994Y720749D01*
X549083Y720796D01*
X549171Y720847D01*
X549257Y720901D01*
X549340Y720958D01*
X549422Y721018D01*
X549500Y721082D01*
X549577Y721148D01*
X549650Y721218D01*
X549721Y721290D01*
X549789Y721365D01*
X549854Y721443D01*
X549916Y721523D01*
X549975Y721605D01*
X550031Y721690D01*
X550083Y721777D01*
X550132Y721865D01*
X550178Y721956D01*
X550219Y722048D01*
X550258Y722142D01*
X550292Y722237D01*
X550323Y722333D01*
X550350Y722431D01*
X550374Y722529D01*
X550393Y722629D01*
X550409Y722729D01*
X550421Y722829D01*
X550429Y722930D01*
X550433Y723031D01*
X550433Y723133D01*
X550429Y723234D01*
X550421Y723335D01*
X550409Y723435D01*
X550393Y723535D01*
X550374Y723635D01*
X550350Y723733D01*
X550323Y723831D01*
X550292Y723927D01*
X550258Y724022D01*
X550219Y724116D01*
X550178Y724208D01*
X550132Y724299D01*
X550083Y724388D01*
X550031Y724474D01*
X549975Y724559D01*
X549916Y724641D01*
X549854Y724721D01*
X549789Y724799D01*
X549721Y724874D01*
X549650Y724946D01*
X549577Y725016D01*
X549500Y725082D01*
X549422Y725146D01*
X549340Y725206D01*
X549257Y725263D01*
X549171Y725317D01*
X549083Y725368D01*
X548994Y725415D01*
X548902Y725459D01*
X548809Y725499D01*
X548715Y725536D01*
X548619Y725568D01*
X548522Y725597D01*
X548424Y725623D01*
X548325Y725644D01*
X548225Y725662D01*
X548125Y725675D01*
X548024Y725685D01*
X547923Y725691D01*
X547822Y725693D01*
X548344Y729869D02*
X545211Y729869D01*
X548344Y729869D02*
X548434Y729867D01*
X548523Y729861D01*
X548613Y729852D01*
X548702Y729838D01*
X548790Y729821D01*
X548877Y729800D01*
X548964Y729775D01*
X549049Y729746D01*
X549133Y729714D01*
X549215Y729679D01*
X549296Y729639D01*
X549375Y729597D01*
X549452Y729551D01*
X549527Y729501D01*
X549600Y729449D01*
X549671Y729393D01*
X549739Y729335D01*
X549804Y729273D01*
X549867Y729209D01*
X549927Y729142D01*
X549984Y729073D01*
X550038Y729001D01*
X550089Y728927D01*
X550137Y728851D01*
X550181Y728773D01*
X550222Y728693D01*
X550260Y728611D01*
X550294Y728528D01*
X550324Y728443D01*
X550351Y728357D01*
X550374Y728271D01*
X550393Y728183D01*
X550408Y728094D01*
X550420Y728005D01*
X550428Y727916D01*
X550432Y727826D01*
X550432Y727736D01*
X550428Y727646D01*
X550420Y727557D01*
X550408Y727468D01*
X550393Y727379D01*
X550374Y727291D01*
X550351Y727205D01*
X550324Y727119D01*
X550294Y727034D01*
X550260Y726951D01*
X550222Y726869D01*
X550181Y726789D01*
X550137Y726711D01*
X550089Y726635D01*
X550038Y726561D01*
X549984Y726489D01*
X549927Y726420D01*
X549867Y726353D01*
X549804Y726289D01*
X549739Y726227D01*
X549671Y726169D01*
X549600Y726113D01*
X549527Y726061D01*
X549452Y726011D01*
X549375Y725965D01*
X549296Y725923D01*
X549215Y725883D01*
X549133Y725848D01*
X549049Y725816D01*
X548964Y725787D01*
X548877Y725762D01*
X548790Y725741D01*
X548702Y725724D01*
X548613Y725710D01*
X548523Y725701D01*
X548434Y725695D01*
X548344Y725693D01*
X548344Y725692D02*
X546255Y725692D01*
X553833Y729869D02*
X556966Y720471D01*
X560098Y729869D01*
X563499Y720471D02*
X566109Y720471D01*
X566210Y720473D01*
X566311Y720479D01*
X566412Y720489D01*
X566512Y720502D01*
X566612Y720520D01*
X566711Y720541D01*
X566809Y720567D01*
X566906Y720596D01*
X567002Y720628D01*
X567096Y720665D01*
X567189Y720705D01*
X567281Y720749D01*
X567370Y720796D01*
X567458Y720847D01*
X567544Y720901D01*
X567627Y720958D01*
X567709Y721018D01*
X567787Y721082D01*
X567864Y721148D01*
X567937Y721218D01*
X568008Y721290D01*
X568076Y721365D01*
X568141Y721443D01*
X568203Y721523D01*
X568262Y721605D01*
X568318Y721690D01*
X568370Y721777D01*
X568419Y721865D01*
X568465Y721956D01*
X568506Y722048D01*
X568545Y722142D01*
X568579Y722237D01*
X568610Y722333D01*
X568637Y722431D01*
X568661Y722529D01*
X568680Y722629D01*
X568696Y722729D01*
X568708Y722829D01*
X568716Y722930D01*
X568720Y723031D01*
X568720Y723133D01*
X568716Y723234D01*
X568708Y723335D01*
X568696Y723435D01*
X568680Y723535D01*
X568661Y723635D01*
X568637Y723733D01*
X568610Y723831D01*
X568579Y723927D01*
X568545Y724022D01*
X568506Y724116D01*
X568465Y724208D01*
X568419Y724299D01*
X568370Y724388D01*
X568318Y724474D01*
X568262Y724559D01*
X568203Y724641D01*
X568141Y724721D01*
X568076Y724799D01*
X568008Y724874D01*
X567937Y724946D01*
X567864Y725016D01*
X567787Y725082D01*
X567709Y725146D01*
X567627Y725206D01*
X567544Y725263D01*
X567458Y725317D01*
X567370Y725368D01*
X567281Y725415D01*
X567189Y725459D01*
X567096Y725499D01*
X567002Y725536D01*
X566906Y725568D01*
X566809Y725597D01*
X566711Y725623D01*
X566612Y725644D01*
X566512Y725662D01*
X566412Y725675D01*
X566311Y725685D01*
X566210Y725691D01*
X566109Y725693D01*
X566632Y729869D02*
X563499Y729869D01*
X566632Y729869D02*
X566722Y729867D01*
X566811Y729861D01*
X566901Y729852D01*
X566990Y729838D01*
X567078Y729821D01*
X567165Y729800D01*
X567252Y729775D01*
X567337Y729746D01*
X567421Y729714D01*
X567503Y729679D01*
X567584Y729639D01*
X567663Y729597D01*
X567740Y729551D01*
X567815Y729501D01*
X567888Y729449D01*
X567959Y729393D01*
X568027Y729335D01*
X568092Y729273D01*
X568155Y729209D01*
X568215Y729142D01*
X568272Y729073D01*
X568326Y729001D01*
X568377Y728927D01*
X568425Y728851D01*
X568469Y728773D01*
X568510Y728693D01*
X568548Y728611D01*
X568582Y728528D01*
X568612Y728443D01*
X568639Y728357D01*
X568662Y728271D01*
X568681Y728183D01*
X568696Y728094D01*
X568708Y728005D01*
X568716Y727916D01*
X568720Y727826D01*
X568720Y727736D01*
X568716Y727646D01*
X568708Y727557D01*
X568696Y727468D01*
X568681Y727379D01*
X568662Y727291D01*
X568639Y727205D01*
X568612Y727119D01*
X568582Y727034D01*
X568548Y726951D01*
X568510Y726869D01*
X568469Y726789D01*
X568425Y726711D01*
X568377Y726635D01*
X568326Y726561D01*
X568272Y726489D01*
X568215Y726420D01*
X568155Y726353D01*
X568092Y726289D01*
X568027Y726227D01*
X567959Y726169D01*
X567888Y726113D01*
X567815Y726061D01*
X567740Y726011D01*
X567663Y725965D01*
X567584Y725923D01*
X567503Y725883D01*
X567421Y725848D01*
X567337Y725816D01*
X567252Y725787D01*
X567165Y725762D01*
X567078Y725741D01*
X566990Y725724D01*
X566901Y725710D01*
X566811Y725701D01*
X566722Y725695D01*
X566632Y725693D01*
X566632Y725692D02*
X564543Y725692D01*
X549162Y751092D02*
X547596Y751092D01*
X549162Y751092D02*
X549162Y745871D01*
X546029Y745871D01*
X545940Y745873D01*
X545852Y745879D01*
X545764Y745888D01*
X545676Y745901D01*
X545589Y745918D01*
X545503Y745938D01*
X545418Y745963D01*
X545333Y745990D01*
X545250Y746022D01*
X545169Y746056D01*
X545089Y746095D01*
X545011Y746136D01*
X544934Y746181D01*
X544860Y746229D01*
X544787Y746280D01*
X544717Y746334D01*
X544650Y746392D01*
X544584Y746452D01*
X544522Y746514D01*
X544462Y746580D01*
X544404Y746647D01*
X544350Y746717D01*
X544299Y746790D01*
X544251Y746864D01*
X544206Y746941D01*
X544165Y747019D01*
X544126Y747099D01*
X544092Y747180D01*
X544060Y747263D01*
X544033Y747348D01*
X544008Y747433D01*
X543988Y747519D01*
X543971Y747606D01*
X543958Y747694D01*
X543949Y747782D01*
X543943Y747870D01*
X543941Y747959D01*
X543941Y753181D01*
X543943Y753272D01*
X543949Y753363D01*
X543959Y753454D01*
X543973Y753544D01*
X543990Y753633D01*
X544012Y753721D01*
X544038Y753809D01*
X544067Y753895D01*
X544100Y753980D01*
X544137Y754063D01*
X544177Y754145D01*
X544221Y754225D01*
X544268Y754303D01*
X544319Y754379D01*
X544372Y754452D01*
X544429Y754523D01*
X544490Y754592D01*
X544553Y754657D01*
X544618Y754720D01*
X544687Y754780D01*
X544758Y754838D01*
X544831Y754891D01*
X544907Y754942D01*
X544985Y754989D01*
X545065Y755033D01*
X545147Y755073D01*
X545230Y755110D01*
X545315Y755143D01*
X545401Y755172D01*
X545489Y755198D01*
X545577Y755220D01*
X545666Y755237D01*
X545756Y755251D01*
X545847Y755261D01*
X545938Y755267D01*
X546029Y755269D01*
X549162Y755269D01*
X553695Y755269D02*
X553695Y745871D01*
X558916Y745871D02*
X553695Y755269D01*
X558916Y755269D02*
X558916Y745871D01*
X563448Y745871D02*
X563448Y755269D01*
X566059Y755269D01*
X566159Y755267D01*
X566259Y755261D01*
X566358Y755252D01*
X566458Y755238D01*
X566556Y755221D01*
X566654Y755200D01*
X566751Y755176D01*
X566847Y755147D01*
X566942Y755115D01*
X567035Y755080D01*
X567127Y755041D01*
X567218Y754998D01*
X567306Y754952D01*
X567393Y754902D01*
X567478Y754850D01*
X567561Y754794D01*
X567642Y754735D01*
X567720Y754672D01*
X567796Y754607D01*
X567870Y754539D01*
X567940Y754469D01*
X568008Y754395D01*
X568073Y754319D01*
X568136Y754241D01*
X568195Y754160D01*
X568251Y754077D01*
X568303Y753992D01*
X568353Y753905D01*
X568399Y753817D01*
X568442Y753726D01*
X568481Y753634D01*
X568516Y753541D01*
X568548Y753446D01*
X568577Y753350D01*
X568601Y753253D01*
X568622Y753155D01*
X568639Y753057D01*
X568653Y752957D01*
X568662Y752858D01*
X568668Y752758D01*
X568670Y752658D01*
X568669Y752658D02*
X568669Y748482D01*
X568670Y748482D02*
X568668Y748382D01*
X568662Y748282D01*
X568653Y748183D01*
X568639Y748083D01*
X568622Y747985D01*
X568601Y747887D01*
X568577Y747790D01*
X568548Y747694D01*
X568516Y747599D01*
X568481Y747506D01*
X568442Y747414D01*
X568399Y747323D01*
X568353Y747235D01*
X568303Y747148D01*
X568251Y747063D01*
X568195Y746980D01*
X568136Y746899D01*
X568073Y746821D01*
X568008Y746745D01*
X567940Y746671D01*
X567870Y746601D01*
X567796Y746533D01*
X567720Y746468D01*
X567642Y746405D01*
X567561Y746346D01*
X567478Y746290D01*
X567393Y746238D01*
X567306Y746188D01*
X567218Y746142D01*
X567127Y746099D01*
X567035Y746060D01*
X566942Y746025D01*
X566847Y745993D01*
X566751Y745964D01*
X566654Y745940D01*
X566556Y745919D01*
X566458Y745902D01*
X566358Y745888D01*
X566259Y745879D01*
X566159Y745873D01*
X566059Y745871D01*
X563448Y745871D01*
X547074Y771271D02*
X547163Y771273D01*
X547251Y771279D01*
X547339Y771288D01*
X547427Y771301D01*
X547514Y771318D01*
X547600Y771338D01*
X547685Y771363D01*
X547770Y771390D01*
X547853Y771422D01*
X547934Y771456D01*
X548014Y771495D01*
X548092Y771536D01*
X548169Y771581D01*
X548243Y771629D01*
X548316Y771680D01*
X548386Y771734D01*
X548453Y771792D01*
X548519Y771852D01*
X548581Y771914D01*
X548641Y771980D01*
X548699Y772047D01*
X548753Y772117D01*
X548804Y772190D01*
X548852Y772264D01*
X548897Y772341D01*
X548938Y772419D01*
X548977Y772499D01*
X549011Y772580D01*
X549043Y772663D01*
X549070Y772748D01*
X549095Y772833D01*
X549115Y772919D01*
X549132Y773006D01*
X549145Y773094D01*
X549154Y773182D01*
X549160Y773270D01*
X549162Y773359D01*
X547074Y771271D02*
X546945Y771273D01*
X546816Y771279D01*
X546687Y771288D01*
X546559Y771301D01*
X546431Y771318D01*
X546304Y771339D01*
X546177Y771363D01*
X546051Y771391D01*
X545926Y771423D01*
X545802Y771458D01*
X545679Y771497D01*
X545557Y771540D01*
X545437Y771586D01*
X545318Y771636D01*
X545200Y771689D01*
X545084Y771745D01*
X544970Y771805D01*
X544857Y771868D01*
X544747Y771935D01*
X544638Y772004D01*
X544532Y772077D01*
X544427Y772153D01*
X544325Y772232D01*
X544226Y772314D01*
X544128Y772398D01*
X544033Y772486D01*
X543941Y772576D01*
X544202Y778581D02*
X544204Y778670D01*
X544210Y778758D01*
X544219Y778846D01*
X544232Y778934D01*
X544249Y779021D01*
X544269Y779107D01*
X544294Y779192D01*
X544321Y779277D01*
X544353Y779360D01*
X544387Y779441D01*
X544426Y779521D01*
X544467Y779599D01*
X544512Y779676D01*
X544560Y779750D01*
X544611Y779823D01*
X544665Y779893D01*
X544723Y779960D01*
X544783Y780026D01*
X544845Y780088D01*
X544911Y780148D01*
X544978Y780206D01*
X545048Y780260D01*
X545121Y780311D01*
X545195Y780359D01*
X545272Y780404D01*
X545350Y780445D01*
X545430Y780484D01*
X545511Y780518D01*
X545594Y780550D01*
X545679Y780577D01*
X545764Y780602D01*
X545850Y780622D01*
X545937Y780639D01*
X546025Y780652D01*
X546113Y780661D01*
X546201Y780667D01*
X546290Y780669D01*
X546410Y780667D01*
X546530Y780662D01*
X546650Y780652D01*
X546769Y780640D01*
X546888Y780623D01*
X547006Y780603D01*
X547124Y780579D01*
X547240Y780552D01*
X547356Y780521D01*
X547471Y780487D01*
X547585Y780449D01*
X547698Y780407D01*
X547809Y780362D01*
X547919Y780314D01*
X548027Y780263D01*
X548134Y780208D01*
X548239Y780150D01*
X548342Y780088D01*
X548443Y780024D01*
X548543Y779956D01*
X548640Y779886D01*
X545246Y776754D02*
X545168Y776802D01*
X545092Y776854D01*
X545019Y776908D01*
X544948Y776966D01*
X544879Y777027D01*
X544813Y777091D01*
X544750Y777158D01*
X544690Y777227D01*
X544633Y777299D01*
X544579Y777373D01*
X544529Y777450D01*
X544481Y777529D01*
X544438Y777609D01*
X544397Y777692D01*
X544361Y777776D01*
X544328Y777861D01*
X544299Y777948D01*
X544273Y778037D01*
X544251Y778126D01*
X544234Y778216D01*
X544220Y778306D01*
X544210Y778398D01*
X544204Y778489D01*
X544202Y778581D01*
X548118Y775186D02*
X548196Y775138D01*
X548272Y775086D01*
X548345Y775032D01*
X548416Y774974D01*
X548485Y774913D01*
X548551Y774849D01*
X548614Y774782D01*
X548674Y774713D01*
X548731Y774641D01*
X548785Y774567D01*
X548835Y774490D01*
X548883Y774411D01*
X548926Y774331D01*
X548967Y774248D01*
X549003Y774164D01*
X549036Y774079D01*
X549065Y773992D01*
X549091Y773903D01*
X549113Y773814D01*
X549130Y773724D01*
X549144Y773634D01*
X549154Y773542D01*
X549160Y773451D01*
X549162Y773359D01*
X548118Y775187D02*
X545246Y776753D01*
X554843Y771271D02*
X556931Y771271D01*
X554843Y771271D02*
X554754Y771273D01*
X554666Y771279D01*
X554578Y771288D01*
X554490Y771301D01*
X554403Y771318D01*
X554317Y771338D01*
X554232Y771363D01*
X554147Y771390D01*
X554064Y771422D01*
X553983Y771456D01*
X553903Y771495D01*
X553825Y771536D01*
X553748Y771581D01*
X553674Y771629D01*
X553601Y771680D01*
X553531Y771734D01*
X553464Y771792D01*
X553398Y771852D01*
X553336Y771914D01*
X553276Y771980D01*
X553218Y772047D01*
X553164Y772117D01*
X553113Y772190D01*
X553065Y772264D01*
X553020Y772341D01*
X552979Y772419D01*
X552940Y772499D01*
X552906Y772580D01*
X552874Y772663D01*
X552847Y772748D01*
X552822Y772833D01*
X552802Y772919D01*
X552785Y773006D01*
X552772Y773094D01*
X552763Y773182D01*
X552757Y773270D01*
X552755Y773359D01*
X552754Y773359D02*
X552754Y778581D01*
X552755Y778581D02*
X552757Y778672D01*
X552763Y778763D01*
X552773Y778854D01*
X552787Y778944D01*
X552804Y779033D01*
X552826Y779121D01*
X552852Y779209D01*
X552881Y779295D01*
X552914Y779380D01*
X552951Y779463D01*
X552991Y779545D01*
X553035Y779625D01*
X553082Y779703D01*
X553133Y779779D01*
X553186Y779852D01*
X553243Y779923D01*
X553304Y779992D01*
X553367Y780057D01*
X553432Y780120D01*
X553501Y780180D01*
X553572Y780238D01*
X553645Y780291D01*
X553721Y780342D01*
X553799Y780389D01*
X553879Y780433D01*
X553961Y780473D01*
X554044Y780510D01*
X554129Y780543D01*
X554215Y780572D01*
X554303Y780598D01*
X554391Y780620D01*
X554480Y780637D01*
X554570Y780651D01*
X554661Y780661D01*
X554752Y780667D01*
X554843Y780669D01*
X556931Y780669D01*
X560722Y780669D02*
X560722Y771271D01*
X564899Y771271D01*
X547074Y796671D02*
X547163Y796673D01*
X547251Y796679D01*
X547339Y796688D01*
X547427Y796701D01*
X547514Y796718D01*
X547600Y796738D01*
X547685Y796763D01*
X547770Y796790D01*
X547853Y796822D01*
X547934Y796856D01*
X548014Y796895D01*
X548092Y796936D01*
X548169Y796981D01*
X548243Y797029D01*
X548316Y797080D01*
X548386Y797134D01*
X548453Y797192D01*
X548519Y797252D01*
X548581Y797314D01*
X548641Y797380D01*
X548699Y797447D01*
X548753Y797517D01*
X548804Y797590D01*
X548852Y797664D01*
X548897Y797741D01*
X548938Y797819D01*
X548977Y797899D01*
X549011Y797980D01*
X549043Y798063D01*
X549070Y798148D01*
X549095Y798233D01*
X549115Y798319D01*
X549132Y798406D01*
X549145Y798494D01*
X549154Y798582D01*
X549160Y798670D01*
X549162Y798759D01*
X547074Y796671D02*
X546945Y796673D01*
X546816Y796679D01*
X546687Y796688D01*
X546559Y796701D01*
X546431Y796718D01*
X546304Y796739D01*
X546177Y796763D01*
X546051Y796791D01*
X545926Y796823D01*
X545802Y796858D01*
X545679Y796897D01*
X545557Y796940D01*
X545437Y796986D01*
X545318Y797036D01*
X545200Y797089D01*
X545084Y797145D01*
X544970Y797205D01*
X544857Y797268D01*
X544747Y797335D01*
X544638Y797404D01*
X544532Y797477D01*
X544427Y797553D01*
X544325Y797632D01*
X544226Y797714D01*
X544128Y797798D01*
X544033Y797886D01*
X543941Y797976D01*
X544202Y803981D02*
X544204Y804070D01*
X544210Y804158D01*
X544219Y804246D01*
X544232Y804334D01*
X544249Y804421D01*
X544269Y804507D01*
X544294Y804592D01*
X544321Y804677D01*
X544353Y804760D01*
X544387Y804841D01*
X544426Y804921D01*
X544467Y804999D01*
X544512Y805076D01*
X544560Y805150D01*
X544611Y805223D01*
X544665Y805293D01*
X544723Y805360D01*
X544783Y805426D01*
X544845Y805488D01*
X544911Y805548D01*
X544978Y805606D01*
X545048Y805660D01*
X545121Y805711D01*
X545195Y805759D01*
X545272Y805804D01*
X545350Y805845D01*
X545430Y805884D01*
X545511Y805918D01*
X545594Y805950D01*
X545679Y805977D01*
X545764Y806002D01*
X545850Y806022D01*
X545937Y806039D01*
X546025Y806052D01*
X546113Y806061D01*
X546201Y806067D01*
X546290Y806069D01*
X546410Y806067D01*
X546530Y806062D01*
X546650Y806052D01*
X546769Y806040D01*
X546888Y806023D01*
X547006Y806003D01*
X547124Y805979D01*
X547240Y805952D01*
X547356Y805921D01*
X547471Y805887D01*
X547585Y805849D01*
X547698Y805807D01*
X547809Y805762D01*
X547919Y805714D01*
X548027Y805663D01*
X548134Y805608D01*
X548239Y805550D01*
X548342Y805488D01*
X548443Y805424D01*
X548543Y805356D01*
X548640Y805286D01*
X545246Y802154D02*
X545168Y802202D01*
X545092Y802254D01*
X545019Y802308D01*
X544948Y802366D01*
X544879Y802427D01*
X544813Y802491D01*
X544750Y802558D01*
X544690Y802627D01*
X544633Y802699D01*
X544579Y802773D01*
X544529Y802850D01*
X544481Y802929D01*
X544438Y803009D01*
X544397Y803092D01*
X544361Y803176D01*
X544328Y803261D01*
X544299Y803348D01*
X544273Y803437D01*
X544251Y803526D01*
X544234Y803616D01*
X544220Y803706D01*
X544210Y803798D01*
X544204Y803889D01*
X544202Y803981D01*
X548118Y800586D02*
X548196Y800538D01*
X548272Y800486D01*
X548345Y800432D01*
X548416Y800374D01*
X548485Y800313D01*
X548551Y800249D01*
X548614Y800182D01*
X548674Y800113D01*
X548731Y800041D01*
X548785Y799967D01*
X548835Y799890D01*
X548883Y799811D01*
X548926Y799731D01*
X548967Y799648D01*
X549003Y799564D01*
X549036Y799479D01*
X549065Y799392D01*
X549091Y799303D01*
X549113Y799214D01*
X549130Y799124D01*
X549144Y799034D01*
X549154Y798942D01*
X549160Y798851D01*
X549162Y798759D01*
X548118Y800587D02*
X545246Y802153D01*
X553085Y806069D02*
X553085Y796671D01*
X553085Y806069D02*
X555696Y806069D01*
X555796Y806067D01*
X555896Y806061D01*
X555995Y806052D01*
X556095Y806038D01*
X556193Y806021D01*
X556291Y806000D01*
X556388Y805976D01*
X556484Y805947D01*
X556579Y805915D01*
X556672Y805880D01*
X556764Y805841D01*
X556855Y805798D01*
X556943Y805752D01*
X557030Y805702D01*
X557115Y805650D01*
X557198Y805594D01*
X557279Y805535D01*
X557357Y805472D01*
X557433Y805407D01*
X557507Y805339D01*
X557577Y805269D01*
X557645Y805195D01*
X557710Y805119D01*
X557773Y805041D01*
X557832Y804960D01*
X557888Y804877D01*
X557940Y804792D01*
X557990Y804705D01*
X558036Y804617D01*
X558079Y804526D01*
X558118Y804434D01*
X558153Y804341D01*
X558185Y804246D01*
X558214Y804150D01*
X558238Y804053D01*
X558259Y803955D01*
X558276Y803857D01*
X558290Y803757D01*
X558299Y803658D01*
X558305Y803558D01*
X558307Y803458D01*
X558306Y803458D02*
X558306Y799282D01*
X558307Y799282D02*
X558305Y799182D01*
X558299Y799082D01*
X558290Y798983D01*
X558276Y798883D01*
X558259Y798785D01*
X558238Y798687D01*
X558214Y798590D01*
X558185Y798494D01*
X558153Y798399D01*
X558118Y798306D01*
X558079Y798214D01*
X558036Y798123D01*
X557990Y798035D01*
X557940Y797948D01*
X557888Y797863D01*
X557832Y797780D01*
X557773Y797699D01*
X557710Y797621D01*
X557645Y797545D01*
X557577Y797471D01*
X557507Y797401D01*
X557433Y797333D01*
X557357Y797268D01*
X557279Y797205D01*
X557198Y797146D01*
X557115Y797090D01*
X557030Y797038D01*
X556943Y796988D01*
X556855Y796942D01*
X556764Y796899D01*
X556672Y796860D01*
X556579Y796825D01*
X556484Y796793D01*
X556388Y796764D01*
X556291Y796740D01*
X556193Y796719D01*
X556095Y796702D01*
X555995Y796688D01*
X555896Y796679D01*
X555796Y796673D01*
X555696Y796671D01*
X553085Y796671D01*
X562012Y796671D02*
X565144Y806069D01*
X568277Y796671D01*
X567494Y799021D02*
X562795Y799021D01*
X372999Y733242D02*
X372999Y730631D01*
X372999Y733242D02*
X372997Y733343D01*
X372991Y733444D01*
X372981Y733545D01*
X372968Y733645D01*
X372950Y733745D01*
X372929Y733844D01*
X372903Y733942D01*
X372874Y734039D01*
X372842Y734135D01*
X372805Y734229D01*
X372765Y734322D01*
X372721Y734414D01*
X372674Y734503D01*
X372623Y734591D01*
X372569Y734677D01*
X372512Y734760D01*
X372452Y734842D01*
X372388Y734920D01*
X372322Y734997D01*
X372252Y735070D01*
X372180Y735141D01*
X372105Y735209D01*
X372027Y735274D01*
X371947Y735336D01*
X371865Y735395D01*
X371780Y735451D01*
X371694Y735503D01*
X371605Y735552D01*
X371514Y735598D01*
X371422Y735639D01*
X371328Y735678D01*
X371233Y735712D01*
X371137Y735743D01*
X371039Y735770D01*
X370941Y735794D01*
X370841Y735813D01*
X370741Y735829D01*
X370641Y735841D01*
X370540Y735849D01*
X370439Y735853D01*
X370337Y735853D01*
X370236Y735849D01*
X370135Y735841D01*
X370035Y735829D01*
X369935Y735813D01*
X369835Y735794D01*
X369737Y735770D01*
X369639Y735743D01*
X369543Y735712D01*
X369448Y735678D01*
X369354Y735639D01*
X369262Y735598D01*
X369171Y735552D01*
X369083Y735503D01*
X368996Y735451D01*
X368911Y735395D01*
X368829Y735336D01*
X368749Y735274D01*
X368671Y735209D01*
X368596Y735141D01*
X368524Y735070D01*
X368454Y734997D01*
X368388Y734920D01*
X368324Y734842D01*
X368264Y734760D01*
X368207Y734677D01*
X368153Y734591D01*
X368102Y734503D01*
X368055Y734414D01*
X368011Y734322D01*
X367971Y734229D01*
X367934Y734135D01*
X367902Y734039D01*
X367873Y733942D01*
X367847Y733844D01*
X367826Y733745D01*
X367808Y733645D01*
X367795Y733545D01*
X367785Y733444D01*
X367779Y733343D01*
X367777Y733242D01*
X363601Y733764D02*
X363601Y730631D01*
X363601Y733764D02*
X363603Y733854D01*
X363609Y733943D01*
X363618Y734033D01*
X363632Y734122D01*
X363649Y734210D01*
X363670Y734297D01*
X363695Y734384D01*
X363724Y734469D01*
X363756Y734553D01*
X363791Y734635D01*
X363831Y734716D01*
X363873Y734795D01*
X363919Y734872D01*
X363969Y734947D01*
X364021Y735020D01*
X364077Y735091D01*
X364135Y735159D01*
X364197Y735224D01*
X364261Y735287D01*
X364328Y735347D01*
X364397Y735404D01*
X364469Y735458D01*
X364543Y735509D01*
X364619Y735557D01*
X364697Y735601D01*
X364777Y735642D01*
X364859Y735680D01*
X364942Y735714D01*
X365027Y735744D01*
X365113Y735771D01*
X365199Y735794D01*
X365287Y735813D01*
X365376Y735828D01*
X365465Y735840D01*
X365554Y735848D01*
X365644Y735852D01*
X365734Y735852D01*
X365824Y735848D01*
X365913Y735840D01*
X366002Y735828D01*
X366091Y735813D01*
X366179Y735794D01*
X366265Y735771D01*
X366351Y735744D01*
X366436Y735714D01*
X366519Y735680D01*
X366601Y735642D01*
X366681Y735601D01*
X366759Y735557D01*
X366835Y735509D01*
X366909Y735458D01*
X366981Y735404D01*
X367050Y735347D01*
X367117Y735287D01*
X367181Y735224D01*
X367243Y735159D01*
X367301Y735091D01*
X367357Y735020D01*
X367409Y734947D01*
X367459Y734872D01*
X367505Y734795D01*
X367547Y734716D01*
X367587Y734635D01*
X367622Y734553D01*
X367654Y734469D01*
X367683Y734384D01*
X367708Y734297D01*
X367729Y734210D01*
X367746Y734122D01*
X367760Y734033D01*
X367769Y733943D01*
X367775Y733854D01*
X367777Y733764D01*
X367778Y733764D02*
X367778Y731675D01*
X363601Y739253D02*
X372999Y742386D01*
X363601Y745518D01*
X372999Y748919D02*
X372999Y751529D01*
X372997Y751630D01*
X372991Y751731D01*
X372981Y751832D01*
X372968Y751932D01*
X372950Y752032D01*
X372929Y752131D01*
X372903Y752229D01*
X372874Y752326D01*
X372842Y752422D01*
X372805Y752516D01*
X372765Y752609D01*
X372721Y752701D01*
X372674Y752790D01*
X372623Y752878D01*
X372569Y752964D01*
X372512Y753047D01*
X372452Y753129D01*
X372388Y753207D01*
X372322Y753284D01*
X372252Y753357D01*
X372180Y753428D01*
X372105Y753496D01*
X372027Y753561D01*
X371947Y753623D01*
X371865Y753682D01*
X371780Y753738D01*
X371694Y753790D01*
X371605Y753839D01*
X371514Y753885D01*
X371422Y753926D01*
X371328Y753965D01*
X371233Y753999D01*
X371137Y754030D01*
X371039Y754057D01*
X370941Y754081D01*
X370841Y754100D01*
X370741Y754116D01*
X370641Y754128D01*
X370540Y754136D01*
X370439Y754140D01*
X370337Y754140D01*
X370236Y754136D01*
X370135Y754128D01*
X370035Y754116D01*
X369935Y754100D01*
X369835Y754081D01*
X369737Y754057D01*
X369639Y754030D01*
X369543Y753999D01*
X369448Y753965D01*
X369354Y753926D01*
X369262Y753885D01*
X369171Y753839D01*
X369083Y753790D01*
X368996Y753738D01*
X368911Y753682D01*
X368829Y753623D01*
X368749Y753561D01*
X368671Y753496D01*
X368596Y753428D01*
X368524Y753357D01*
X368454Y753284D01*
X368388Y753207D01*
X368324Y753129D01*
X368264Y753047D01*
X368207Y752964D01*
X368153Y752878D01*
X368102Y752790D01*
X368055Y752701D01*
X368011Y752609D01*
X367971Y752516D01*
X367934Y752422D01*
X367902Y752326D01*
X367873Y752229D01*
X367847Y752131D01*
X367826Y752032D01*
X367808Y751932D01*
X367795Y751832D01*
X367785Y751731D01*
X367779Y751630D01*
X367777Y751529D01*
X363601Y752052D02*
X363601Y748919D01*
X363601Y752052D02*
X363603Y752142D01*
X363609Y752231D01*
X363618Y752321D01*
X363632Y752410D01*
X363649Y752498D01*
X363670Y752585D01*
X363695Y752672D01*
X363724Y752757D01*
X363756Y752841D01*
X363791Y752923D01*
X363831Y753004D01*
X363873Y753083D01*
X363919Y753160D01*
X363969Y753235D01*
X364021Y753308D01*
X364077Y753379D01*
X364135Y753447D01*
X364197Y753512D01*
X364261Y753575D01*
X364328Y753635D01*
X364397Y753692D01*
X364469Y753746D01*
X364543Y753797D01*
X364619Y753845D01*
X364697Y753889D01*
X364777Y753930D01*
X364859Y753968D01*
X364942Y754002D01*
X365027Y754032D01*
X365113Y754059D01*
X365199Y754082D01*
X365287Y754101D01*
X365376Y754116D01*
X365465Y754128D01*
X365554Y754136D01*
X365644Y754140D01*
X365734Y754140D01*
X365824Y754136D01*
X365913Y754128D01*
X366002Y754116D01*
X366091Y754101D01*
X366179Y754082D01*
X366265Y754059D01*
X366351Y754032D01*
X366436Y754002D01*
X366519Y753968D01*
X366601Y753930D01*
X366681Y753889D01*
X366759Y753845D01*
X366835Y753797D01*
X366909Y753746D01*
X366981Y753692D01*
X367050Y753635D01*
X367117Y753575D01*
X367181Y753512D01*
X367243Y753447D01*
X367301Y753379D01*
X367357Y753308D01*
X367409Y753235D01*
X367459Y753160D01*
X367505Y753083D01*
X367547Y753004D01*
X367587Y752923D01*
X367622Y752841D01*
X367654Y752757D01*
X367683Y752672D01*
X367708Y752585D01*
X367729Y752498D01*
X367746Y752410D01*
X367760Y752321D01*
X367769Y752231D01*
X367775Y752142D01*
X367777Y752052D01*
X367778Y752052D02*
X367778Y749963D01*
X316978Y732042D02*
X316978Y730476D01*
X316978Y732042D02*
X322199Y732042D01*
X322199Y728909D01*
X322197Y728820D01*
X322191Y728732D01*
X322182Y728644D01*
X322169Y728556D01*
X322152Y728469D01*
X322132Y728383D01*
X322107Y728298D01*
X322080Y728213D01*
X322048Y728130D01*
X322014Y728049D01*
X321975Y727969D01*
X321934Y727891D01*
X321889Y727814D01*
X321841Y727740D01*
X321790Y727667D01*
X321736Y727597D01*
X321678Y727530D01*
X321618Y727464D01*
X321556Y727402D01*
X321490Y727342D01*
X321423Y727284D01*
X321353Y727230D01*
X321280Y727179D01*
X321206Y727131D01*
X321129Y727086D01*
X321051Y727045D01*
X320971Y727006D01*
X320890Y726972D01*
X320807Y726940D01*
X320722Y726913D01*
X320637Y726888D01*
X320551Y726868D01*
X320464Y726851D01*
X320376Y726838D01*
X320288Y726829D01*
X320200Y726823D01*
X320111Y726821D01*
X314889Y726821D01*
X314798Y726823D01*
X314707Y726829D01*
X314616Y726839D01*
X314526Y726853D01*
X314437Y726871D01*
X314348Y726892D01*
X314261Y726918D01*
X314175Y726947D01*
X314090Y726980D01*
X314006Y727017D01*
X313924Y727057D01*
X313845Y727101D01*
X313767Y727148D01*
X313691Y727199D01*
X313617Y727253D01*
X313546Y727310D01*
X313478Y727370D01*
X313412Y727433D01*
X313349Y727499D01*
X313289Y727567D01*
X313232Y727638D01*
X313178Y727712D01*
X313127Y727788D01*
X313080Y727865D01*
X313036Y727945D01*
X312996Y728027D01*
X312959Y728111D01*
X312926Y728195D01*
X312897Y728282D01*
X312871Y728369D01*
X312850Y728458D01*
X312832Y728547D01*
X312818Y728637D01*
X312808Y728728D01*
X312802Y728819D01*
X312800Y728910D01*
X312801Y728909D02*
X312801Y732042D01*
X312801Y736575D02*
X322199Y736575D01*
X322199Y741796D02*
X312801Y736575D01*
X312801Y741796D02*
X322199Y741796D01*
X322199Y746328D02*
X312801Y746328D01*
X312801Y748939D01*
X312803Y749039D01*
X312809Y749139D01*
X312818Y749238D01*
X312832Y749338D01*
X312849Y749436D01*
X312870Y749534D01*
X312894Y749631D01*
X312923Y749727D01*
X312955Y749822D01*
X312990Y749915D01*
X313029Y750007D01*
X313072Y750098D01*
X313118Y750186D01*
X313168Y750273D01*
X313220Y750358D01*
X313276Y750441D01*
X313335Y750522D01*
X313398Y750600D01*
X313463Y750676D01*
X313531Y750750D01*
X313601Y750820D01*
X313675Y750888D01*
X313751Y750953D01*
X313829Y751016D01*
X313910Y751075D01*
X313993Y751131D01*
X314078Y751183D01*
X314165Y751233D01*
X314253Y751279D01*
X314344Y751322D01*
X314436Y751361D01*
X314529Y751396D01*
X314624Y751428D01*
X314720Y751457D01*
X314817Y751481D01*
X314915Y751502D01*
X315013Y751519D01*
X315113Y751533D01*
X315212Y751542D01*
X315312Y751548D01*
X315412Y751550D01*
X315412Y751549D02*
X319588Y751549D01*
X319588Y751550D02*
X319688Y751548D01*
X319788Y751542D01*
X319887Y751533D01*
X319987Y751519D01*
X320085Y751502D01*
X320183Y751481D01*
X320280Y751457D01*
X320376Y751428D01*
X320471Y751396D01*
X320564Y751361D01*
X320656Y751322D01*
X320747Y751279D01*
X320835Y751233D01*
X320922Y751183D01*
X321007Y751131D01*
X321090Y751075D01*
X321171Y751016D01*
X321249Y750953D01*
X321325Y750888D01*
X321399Y750820D01*
X321469Y750750D01*
X321537Y750676D01*
X321602Y750600D01*
X321665Y750522D01*
X321724Y750441D01*
X321780Y750358D01*
X321832Y750273D01*
X321882Y750186D01*
X321928Y750098D01*
X321971Y750007D01*
X322010Y749915D01*
X322045Y749822D01*
X322077Y749727D01*
X322106Y749631D01*
X322130Y749534D01*
X322151Y749436D01*
X322168Y749338D01*
X322182Y749238D01*
X322191Y749139D01*
X322197Y749039D01*
X322199Y748939D01*
X322199Y746328D01*
D12*
X431038Y461264D02*
X436626Y462506D01*
X432901Y463748D01*
X436626Y464989D01*
X431038Y466231D01*
X431038Y468632D02*
X436626Y468632D01*
X431038Y468632D02*
X431038Y470184D01*
X431040Y470261D01*
X431046Y470339D01*
X431055Y470415D01*
X431069Y470492D01*
X431086Y470567D01*
X431107Y470641D01*
X431132Y470715D01*
X431160Y470787D01*
X431192Y470857D01*
X431227Y470926D01*
X431266Y470993D01*
X431308Y471058D01*
X431353Y471121D01*
X431401Y471182D01*
X431452Y471240D01*
X431506Y471295D01*
X431563Y471348D01*
X431622Y471397D01*
X431684Y471444D01*
X431748Y471488D01*
X431814Y471528D01*
X431882Y471565D01*
X431952Y471599D01*
X432023Y471629D01*
X432096Y471655D01*
X432170Y471678D01*
X432245Y471697D01*
X432320Y471712D01*
X432397Y471724D01*
X432474Y471732D01*
X432551Y471736D01*
X432629Y471736D01*
X432706Y471732D01*
X432783Y471724D01*
X432860Y471712D01*
X432935Y471697D01*
X433010Y471678D01*
X433084Y471655D01*
X433157Y471629D01*
X433228Y471599D01*
X433298Y471565D01*
X433366Y471528D01*
X433432Y471488D01*
X433496Y471444D01*
X433558Y471397D01*
X433617Y471348D01*
X433674Y471295D01*
X433728Y471240D01*
X433779Y471182D01*
X433827Y471121D01*
X433872Y471058D01*
X433914Y470993D01*
X433953Y470926D01*
X433988Y470857D01*
X434020Y470787D01*
X434048Y470715D01*
X434073Y470641D01*
X434094Y470567D01*
X434111Y470492D01*
X434125Y470415D01*
X434134Y470339D01*
X434140Y470261D01*
X434142Y470184D01*
X434142Y468632D01*
X434142Y470495D02*
X436626Y471737D01*
X436626Y474276D02*
X436626Y476760D01*
X436626Y474276D02*
X431038Y474276D01*
X431038Y476760D01*
X433522Y476139D02*
X433522Y474276D01*
X486156Y467896D02*
X486156Y466344D01*
X486156Y467896D02*
X486154Y467973D01*
X486148Y468051D01*
X486139Y468127D01*
X486125Y468204D01*
X486108Y468279D01*
X486087Y468353D01*
X486062Y468427D01*
X486034Y468499D01*
X486002Y468569D01*
X485967Y468638D01*
X485928Y468705D01*
X485886Y468770D01*
X485841Y468833D01*
X485793Y468894D01*
X485742Y468952D01*
X485688Y469007D01*
X485631Y469060D01*
X485572Y469109D01*
X485510Y469156D01*
X485446Y469200D01*
X485380Y469240D01*
X485312Y469277D01*
X485242Y469311D01*
X485171Y469341D01*
X485098Y469367D01*
X485024Y469390D01*
X484949Y469409D01*
X484874Y469424D01*
X484797Y469436D01*
X484720Y469444D01*
X484643Y469448D01*
X484565Y469448D01*
X484488Y469444D01*
X484411Y469436D01*
X484334Y469424D01*
X484259Y469409D01*
X484184Y469390D01*
X484110Y469367D01*
X484037Y469341D01*
X483966Y469311D01*
X483896Y469277D01*
X483828Y469240D01*
X483762Y469200D01*
X483698Y469156D01*
X483636Y469109D01*
X483577Y469060D01*
X483520Y469007D01*
X483466Y468952D01*
X483415Y468894D01*
X483367Y468833D01*
X483322Y468770D01*
X483280Y468705D01*
X483241Y468638D01*
X483206Y468569D01*
X483174Y468499D01*
X483146Y468427D01*
X483121Y468353D01*
X483100Y468279D01*
X483083Y468204D01*
X483069Y468127D01*
X483060Y468051D01*
X483054Y467973D01*
X483052Y467896D01*
X480568Y468207D02*
X480568Y466344D01*
X480568Y468207D02*
X480570Y468277D01*
X480576Y468346D01*
X480586Y468415D01*
X480599Y468483D01*
X480617Y468551D01*
X480638Y468617D01*
X480663Y468682D01*
X480691Y468746D01*
X480723Y468808D01*
X480758Y468868D01*
X480797Y468926D01*
X480839Y468981D01*
X480884Y469035D01*
X480932Y469085D01*
X480982Y469133D01*
X481036Y469178D01*
X481091Y469220D01*
X481149Y469259D01*
X481209Y469294D01*
X481271Y469326D01*
X481335Y469354D01*
X481400Y469379D01*
X481466Y469400D01*
X481534Y469418D01*
X481602Y469431D01*
X481671Y469441D01*
X481740Y469447D01*
X481810Y469449D01*
X481880Y469447D01*
X481949Y469441D01*
X482018Y469431D01*
X482086Y469418D01*
X482154Y469400D01*
X482220Y469379D01*
X482285Y469354D01*
X482349Y469326D01*
X482411Y469294D01*
X482471Y469259D01*
X482529Y469220D01*
X482584Y469178D01*
X482638Y469133D01*
X482688Y469085D01*
X482736Y469035D01*
X482781Y468981D01*
X482823Y468926D01*
X482862Y468868D01*
X482897Y468808D01*
X482929Y468746D01*
X482957Y468682D01*
X482982Y468617D01*
X483003Y468551D01*
X483021Y468483D01*
X483034Y468415D01*
X483044Y468346D01*
X483050Y468277D01*
X483052Y468207D01*
X483052Y466965D01*
X480568Y471520D02*
X486156Y473383D01*
X480568Y475245D01*
X486156Y477317D02*
X486156Y478869D01*
X486154Y478946D01*
X486148Y479024D01*
X486139Y479100D01*
X486125Y479177D01*
X486108Y479252D01*
X486087Y479326D01*
X486062Y479400D01*
X486034Y479472D01*
X486002Y479542D01*
X485967Y479611D01*
X485928Y479678D01*
X485886Y479743D01*
X485841Y479806D01*
X485793Y479867D01*
X485742Y479925D01*
X485688Y479980D01*
X485631Y480033D01*
X485572Y480082D01*
X485510Y480129D01*
X485446Y480173D01*
X485380Y480213D01*
X485312Y480250D01*
X485242Y480284D01*
X485171Y480314D01*
X485098Y480340D01*
X485024Y480363D01*
X484949Y480382D01*
X484874Y480397D01*
X484797Y480409D01*
X484720Y480417D01*
X484643Y480421D01*
X484565Y480421D01*
X484488Y480417D01*
X484411Y480409D01*
X484334Y480397D01*
X484259Y480382D01*
X484184Y480363D01*
X484110Y480340D01*
X484037Y480314D01*
X483966Y480284D01*
X483896Y480250D01*
X483828Y480213D01*
X483762Y480173D01*
X483698Y480129D01*
X483636Y480082D01*
X483577Y480033D01*
X483520Y479980D01*
X483466Y479925D01*
X483415Y479867D01*
X483367Y479806D01*
X483322Y479743D01*
X483280Y479678D01*
X483241Y479611D01*
X483206Y479542D01*
X483174Y479472D01*
X483146Y479400D01*
X483121Y479326D01*
X483100Y479252D01*
X483083Y479177D01*
X483069Y479100D01*
X483060Y479024D01*
X483054Y478946D01*
X483052Y478869D01*
X480568Y479179D02*
X480568Y477317D01*
X480568Y479179D02*
X480570Y479249D01*
X480576Y479318D01*
X480586Y479387D01*
X480599Y479455D01*
X480617Y479523D01*
X480638Y479589D01*
X480663Y479654D01*
X480691Y479718D01*
X480723Y479780D01*
X480758Y479840D01*
X480797Y479898D01*
X480839Y479953D01*
X480884Y480007D01*
X480932Y480057D01*
X480982Y480105D01*
X481036Y480150D01*
X481091Y480192D01*
X481149Y480231D01*
X481209Y480266D01*
X481271Y480298D01*
X481335Y480326D01*
X481400Y480351D01*
X481466Y480372D01*
X481534Y480390D01*
X481602Y480403D01*
X481671Y480413D01*
X481740Y480419D01*
X481810Y480421D01*
X481880Y480419D01*
X481949Y480413D01*
X482018Y480403D01*
X482086Y480390D01*
X482154Y480372D01*
X482220Y480351D01*
X482285Y480326D01*
X482349Y480298D01*
X482411Y480266D01*
X482471Y480231D01*
X482529Y480192D01*
X482584Y480150D01*
X482638Y480105D01*
X482688Y480057D01*
X482736Y480007D01*
X482781Y479953D01*
X482823Y479898D01*
X482862Y479840D01*
X482897Y479780D01*
X482929Y479718D01*
X482957Y479654D01*
X482982Y479589D01*
X483003Y479523D01*
X483021Y479455D01*
X483034Y479387D01*
X483044Y479318D01*
X483050Y479249D01*
X483052Y479179D01*
X483052Y477938D01*
X457652Y466908D02*
X457652Y465977D01*
X457652Y466908D02*
X460756Y466908D01*
X460756Y465046D01*
X460754Y464976D01*
X460748Y464907D01*
X460738Y464838D01*
X460725Y464770D01*
X460707Y464702D01*
X460686Y464636D01*
X460661Y464571D01*
X460633Y464507D01*
X460601Y464445D01*
X460566Y464385D01*
X460527Y464327D01*
X460485Y464272D01*
X460440Y464218D01*
X460392Y464168D01*
X460342Y464120D01*
X460288Y464075D01*
X460233Y464033D01*
X460175Y463994D01*
X460115Y463959D01*
X460053Y463927D01*
X459989Y463899D01*
X459924Y463874D01*
X459858Y463853D01*
X459790Y463835D01*
X459722Y463822D01*
X459653Y463812D01*
X459584Y463806D01*
X459514Y463804D01*
X456410Y463804D01*
X456340Y463806D01*
X456271Y463812D01*
X456202Y463822D01*
X456134Y463835D01*
X456066Y463853D01*
X456000Y463874D01*
X455935Y463899D01*
X455871Y463927D01*
X455809Y463959D01*
X455749Y463994D01*
X455691Y464033D01*
X455636Y464075D01*
X455582Y464120D01*
X455532Y464168D01*
X455484Y464218D01*
X455439Y464272D01*
X455397Y464327D01*
X455358Y464385D01*
X455323Y464445D01*
X455291Y464507D01*
X455263Y464571D01*
X455238Y464636D01*
X455217Y464702D01*
X455199Y464770D01*
X455186Y464838D01*
X455176Y464907D01*
X455170Y464976D01*
X455168Y465046D01*
X455168Y466908D01*
X455168Y469656D02*
X460756Y469656D01*
X460756Y472761D02*
X455168Y469656D01*
X455168Y472761D02*
X460756Y472761D01*
X460756Y475508D02*
X455168Y475508D01*
X455168Y477060D01*
X455170Y477136D01*
X455175Y477212D01*
X455185Y477288D01*
X455198Y477363D01*
X455215Y477437D01*
X455235Y477511D01*
X455259Y477583D01*
X455286Y477654D01*
X455317Y477724D01*
X455351Y477792D01*
X455389Y477858D01*
X455430Y477922D01*
X455473Y477985D01*
X455520Y478045D01*
X455570Y478102D01*
X455623Y478157D01*
X455678Y478210D01*
X455735Y478260D01*
X455795Y478307D01*
X455858Y478350D01*
X455922Y478391D01*
X455988Y478429D01*
X456056Y478463D01*
X456126Y478494D01*
X456197Y478521D01*
X456270Y478545D01*
X456343Y478565D01*
X456417Y478582D01*
X456492Y478595D01*
X456568Y478605D01*
X456644Y478610D01*
X456720Y478612D01*
X456720Y478613D02*
X459204Y478613D01*
X459204Y478612D02*
X459280Y478610D01*
X459356Y478605D01*
X459432Y478595D01*
X459507Y478582D01*
X459581Y478565D01*
X459655Y478545D01*
X459727Y478521D01*
X459798Y478494D01*
X459868Y478463D01*
X459936Y478429D01*
X460002Y478391D01*
X460066Y478350D01*
X460129Y478307D01*
X460189Y478260D01*
X460246Y478210D01*
X460301Y478157D01*
X460354Y478102D01*
X460404Y478045D01*
X460451Y477985D01*
X460494Y477922D01*
X460535Y477858D01*
X460573Y477792D01*
X460607Y477724D01*
X460638Y477654D01*
X460665Y477583D01*
X460689Y477511D01*
X460709Y477437D01*
X460726Y477363D01*
X460739Y477288D01*
X460749Y477212D01*
X460754Y477136D01*
X460756Y477060D01*
X460756Y475508D01*
D13*
X374650Y762000D02*
X361950Y762000D01*
X355600Y768350D01*
X355600Y781050D01*
X361950Y787400D01*
X355600Y768350D02*
X349250Y762000D01*
X336550Y762000D01*
X330200Y768350D01*
X330200Y781050D01*
X336550Y787400D01*
X349250Y787400D01*
X355600Y781050D01*
X381000Y781050D02*
X381000Y768350D01*
X374650Y762000D01*
X381000Y781050D02*
X374650Y787400D01*
X361950Y787400D01*
X330200Y768350D02*
X323850Y762000D01*
X311150Y762000D01*
X304800Y768350D01*
X304800Y781050D01*
X311150Y787400D01*
X323850Y787400D01*
X330200Y781050D01*
D14*
X316738Y795147D02*
X316738Y806577D01*
X319913Y806577D01*
X320024Y806575D01*
X320134Y806569D01*
X320245Y806560D01*
X320355Y806546D01*
X320464Y806529D01*
X320573Y806508D01*
X320681Y806483D01*
X320788Y806454D01*
X320894Y806422D01*
X320999Y806386D01*
X321102Y806346D01*
X321204Y806303D01*
X321305Y806256D01*
X321404Y806205D01*
X321501Y806152D01*
X321595Y806095D01*
X321688Y806034D01*
X321779Y805971D01*
X321868Y805904D01*
X321954Y805834D01*
X322037Y805761D01*
X322119Y805686D01*
X322197Y805608D01*
X322272Y805526D01*
X322345Y805443D01*
X322415Y805357D01*
X322482Y805268D01*
X322545Y805177D01*
X322606Y805084D01*
X322663Y804990D01*
X322716Y804893D01*
X322767Y804794D01*
X322814Y804693D01*
X322857Y804591D01*
X322897Y804488D01*
X322933Y804383D01*
X322965Y804277D01*
X322994Y804170D01*
X323019Y804062D01*
X323040Y803953D01*
X323057Y803844D01*
X323071Y803734D01*
X323080Y803623D01*
X323086Y803513D01*
X323088Y803402D01*
X323088Y798322D01*
X323086Y798211D01*
X323080Y798101D01*
X323071Y797990D01*
X323057Y797880D01*
X323040Y797771D01*
X323019Y797662D01*
X322994Y797554D01*
X322965Y797447D01*
X322933Y797341D01*
X322897Y797236D01*
X322857Y797133D01*
X322814Y797031D01*
X322767Y796930D01*
X322716Y796831D01*
X322663Y796735D01*
X322606Y796640D01*
X322545Y796547D01*
X322482Y796456D01*
X322415Y796367D01*
X322345Y796281D01*
X322272Y796198D01*
X322197Y796116D01*
X322119Y796038D01*
X322037Y795963D01*
X321954Y795890D01*
X321868Y795820D01*
X321779Y795753D01*
X321688Y795690D01*
X321595Y795629D01*
X321501Y795572D01*
X321404Y795519D01*
X321305Y795468D01*
X321204Y795421D01*
X321102Y795378D01*
X320999Y795338D01*
X320894Y795302D01*
X320788Y795270D01*
X320681Y795241D01*
X320573Y795216D01*
X320464Y795195D01*
X320355Y795178D01*
X320245Y795164D01*
X320134Y795155D01*
X320024Y795149D01*
X319913Y795147D01*
X316738Y795147D01*
X328930Y795147D02*
X328930Y806577D01*
X328930Y801497D02*
X335280Y801497D01*
X335280Y806577D02*
X335280Y795147D01*
X343154Y795147D02*
X343154Y806577D01*
X339979Y806577D02*
X346329Y806577D01*
X354140Y806578D02*
X354244Y806576D01*
X354349Y806570D01*
X354453Y806561D01*
X354556Y806548D01*
X354659Y806530D01*
X354761Y806510D01*
X354863Y806485D01*
X354963Y806457D01*
X355063Y806425D01*
X355161Y806389D01*
X355258Y806350D01*
X355353Y806308D01*
X355447Y806262D01*
X355539Y806212D01*
X355629Y806160D01*
X355717Y806104D01*
X355803Y806044D01*
X355887Y805982D01*
X355968Y805917D01*
X356047Y805849D01*
X356124Y805777D01*
X356197Y805704D01*
X356269Y805627D01*
X356337Y805548D01*
X356402Y805467D01*
X356464Y805383D01*
X356524Y805297D01*
X356580Y805209D01*
X356632Y805119D01*
X356682Y805027D01*
X356728Y804933D01*
X356770Y804838D01*
X356809Y804741D01*
X356845Y804643D01*
X356877Y804543D01*
X356905Y804443D01*
X356930Y804341D01*
X356950Y804239D01*
X356968Y804136D01*
X356981Y804033D01*
X356990Y803929D01*
X356996Y803824D01*
X356998Y803720D01*
X354140Y806577D02*
X354022Y806575D01*
X353903Y806569D01*
X353785Y806560D01*
X353668Y806547D01*
X353551Y806529D01*
X353434Y806509D01*
X353318Y806484D01*
X353203Y806456D01*
X353090Y806423D01*
X352977Y806388D01*
X352865Y806348D01*
X352755Y806306D01*
X352646Y806259D01*
X352538Y806209D01*
X352433Y806156D01*
X352329Y806099D01*
X352227Y806039D01*
X352127Y805976D01*
X352029Y805909D01*
X351933Y805840D01*
X351840Y805767D01*
X351749Y805691D01*
X351660Y805613D01*
X351574Y805531D01*
X351491Y805447D01*
X351410Y805361D01*
X351333Y805271D01*
X351258Y805180D01*
X351186Y805086D01*
X351117Y804989D01*
X351052Y804891D01*
X350989Y804790D01*
X350930Y804687D01*
X350874Y804583D01*
X350822Y804477D01*
X350773Y804369D01*
X350728Y804260D01*
X350686Y804149D01*
X350648Y804037D01*
X356045Y801498D02*
X356121Y801573D01*
X356196Y801652D01*
X356267Y801733D01*
X356336Y801817D01*
X356401Y801903D01*
X356463Y801991D01*
X356523Y802081D01*
X356579Y802173D01*
X356632Y802268D01*
X356681Y802364D01*
X356727Y802462D01*
X356770Y802561D01*
X356809Y802662D01*
X356844Y802764D01*
X356876Y802867D01*
X356904Y802971D01*
X356929Y803076D01*
X356950Y803183D01*
X356967Y803289D01*
X356980Y803396D01*
X356989Y803504D01*
X356995Y803612D01*
X356997Y803720D01*
X356045Y801497D02*
X350647Y795147D01*
X356997Y795147D01*
X368428Y803720D02*
X368426Y803824D01*
X368420Y803929D01*
X368411Y804033D01*
X368398Y804136D01*
X368380Y804239D01*
X368360Y804341D01*
X368335Y804443D01*
X368307Y804543D01*
X368275Y804643D01*
X368239Y804741D01*
X368200Y804838D01*
X368158Y804933D01*
X368112Y805027D01*
X368062Y805119D01*
X368010Y805209D01*
X367954Y805297D01*
X367894Y805383D01*
X367832Y805467D01*
X367767Y805548D01*
X367699Y805627D01*
X367627Y805704D01*
X367554Y805777D01*
X367477Y805849D01*
X367398Y805917D01*
X367317Y805982D01*
X367233Y806044D01*
X367147Y806104D01*
X367059Y806160D01*
X366969Y806212D01*
X366877Y806262D01*
X366783Y806308D01*
X366688Y806350D01*
X366591Y806389D01*
X366493Y806425D01*
X366393Y806457D01*
X366293Y806485D01*
X366191Y806510D01*
X366089Y806530D01*
X365986Y806548D01*
X365883Y806561D01*
X365779Y806570D01*
X365674Y806576D01*
X365570Y806578D01*
X365570Y806577D02*
X365452Y806575D01*
X365333Y806569D01*
X365215Y806560D01*
X365098Y806547D01*
X364981Y806529D01*
X364864Y806509D01*
X364748Y806484D01*
X364633Y806456D01*
X364520Y806423D01*
X364407Y806388D01*
X364295Y806348D01*
X364185Y806306D01*
X364076Y806259D01*
X363968Y806209D01*
X363863Y806156D01*
X363759Y806099D01*
X363657Y806039D01*
X363557Y805976D01*
X363459Y805909D01*
X363363Y805840D01*
X363270Y805767D01*
X363179Y805691D01*
X363090Y805613D01*
X363004Y805531D01*
X362921Y805447D01*
X362840Y805361D01*
X362763Y805271D01*
X362688Y805180D01*
X362616Y805086D01*
X362547Y804989D01*
X362482Y804891D01*
X362419Y804790D01*
X362360Y804687D01*
X362304Y804583D01*
X362252Y804477D01*
X362203Y804369D01*
X362158Y804260D01*
X362116Y804149D01*
X362078Y804037D01*
X367475Y801498D02*
X367551Y801573D01*
X367626Y801652D01*
X367697Y801733D01*
X367766Y801817D01*
X367831Y801903D01*
X367893Y801991D01*
X367953Y802081D01*
X368009Y802173D01*
X368062Y802268D01*
X368111Y802364D01*
X368157Y802462D01*
X368200Y802561D01*
X368239Y802662D01*
X368274Y802764D01*
X368306Y802867D01*
X368334Y802971D01*
X368359Y803076D01*
X368380Y803183D01*
X368397Y803289D01*
X368410Y803396D01*
X368419Y803504D01*
X368425Y803612D01*
X368427Y803720D01*
X367475Y801497D02*
X362077Y795147D01*
X368427Y795147D01*
D13*
X438150Y635000D02*
X431800Y628650D01*
X438150Y635000D02*
X450850Y635000D01*
X457200Y628650D01*
X457200Y615950D01*
X450850Y609600D01*
X438150Y609600D01*
X431800Y615950D01*
X400050Y635000D02*
X387350Y635000D01*
X400050Y635000D02*
X406400Y628650D01*
X406400Y615950D01*
X400050Y609600D01*
X406400Y628650D02*
X412750Y635000D01*
X425450Y635000D01*
X431800Y628650D01*
X431800Y615950D01*
X425450Y609600D01*
X412750Y609600D01*
X406400Y615950D01*
X361950Y635000D02*
X355600Y628650D01*
X361950Y635000D02*
X374650Y635000D01*
X381000Y628650D01*
X381000Y615950D01*
X374650Y609600D01*
X361950Y609600D01*
X355600Y615950D01*
X381000Y628650D02*
X387350Y635000D01*
X381000Y615950D02*
X387350Y609600D01*
X400050Y609600D01*
X323850Y635000D02*
X311150Y635000D01*
X323850Y635000D02*
X330200Y628650D01*
X330200Y615950D01*
X323850Y609600D01*
X330200Y628650D02*
X336550Y635000D01*
X349250Y635000D01*
X355600Y628650D01*
X355600Y615950D01*
X349250Y609600D01*
X336550Y609600D01*
X330200Y615950D01*
X285750Y635000D02*
X279400Y628650D01*
X285750Y635000D02*
X298450Y635000D01*
X304800Y628650D01*
X304800Y615950D01*
X298450Y609600D01*
X285750Y609600D01*
X279400Y615950D01*
X304800Y628650D02*
X311150Y635000D01*
X304800Y615950D02*
X311150Y609600D01*
X323850Y609600D01*
X247650Y635000D02*
X234950Y635000D01*
X247650Y635000D02*
X254000Y628650D01*
X254000Y615950D01*
X247650Y609600D01*
X254000Y628650D02*
X260350Y635000D01*
X273050Y635000D01*
X279400Y628650D01*
X279400Y615950D01*
X273050Y609600D01*
X260350Y609600D01*
X254000Y615950D01*
X209550Y635000D02*
X203200Y628650D01*
X209550Y635000D02*
X222250Y635000D01*
X228600Y628650D01*
X228600Y615950D01*
X222250Y609600D01*
X209550Y609600D01*
X203200Y615950D01*
X228600Y628650D02*
X234950Y635000D01*
X228600Y615950D02*
X234950Y609600D01*
X247650Y609600D01*
X171450Y635000D02*
X158750Y635000D01*
X171450Y635000D02*
X177800Y628650D01*
X177800Y615950D01*
X171450Y609600D01*
X177800Y628650D02*
X184150Y635000D01*
X196850Y635000D01*
X203200Y628650D01*
X203200Y615950D01*
X196850Y609600D01*
X184150Y609600D01*
X177800Y615950D01*
X152400Y615950D02*
X152400Y628650D01*
X158750Y635000D01*
X152400Y615950D02*
X158750Y609600D01*
X171450Y609600D01*
X457200Y628650D02*
X463550Y635000D01*
X476250Y635000D01*
X482600Y628650D01*
X482600Y615950D01*
X476250Y609600D01*
X463550Y609600D01*
X457200Y615950D01*
D14*
X156083Y643763D02*
X156083Y652653D01*
X156083Y643763D02*
X156081Y643663D01*
X156075Y643564D01*
X156065Y643464D01*
X156052Y643366D01*
X156034Y643267D01*
X156013Y643170D01*
X155988Y643074D01*
X155959Y642978D01*
X155926Y642884D01*
X155890Y642791D01*
X155850Y642700D01*
X155806Y642610D01*
X155759Y642522D01*
X155709Y642436D01*
X155655Y642352D01*
X155598Y642270D01*
X155538Y642191D01*
X155474Y642113D01*
X155408Y642039D01*
X155339Y641967D01*
X155267Y641898D01*
X155193Y641832D01*
X155115Y641768D01*
X155036Y641708D01*
X154954Y641651D01*
X154870Y641597D01*
X154784Y641547D01*
X154696Y641500D01*
X154606Y641456D01*
X154515Y641416D01*
X154422Y641380D01*
X154328Y641347D01*
X154232Y641318D01*
X154136Y641293D01*
X154039Y641272D01*
X153940Y641254D01*
X153842Y641241D01*
X153742Y641231D01*
X153643Y641225D01*
X153543Y641223D01*
X152273Y641223D01*
X162063Y641223D02*
X162063Y652653D01*
X165238Y652653D01*
X165349Y652651D01*
X165459Y652645D01*
X165570Y652636D01*
X165680Y652622D01*
X165789Y652605D01*
X165898Y652584D01*
X166006Y652559D01*
X166113Y652530D01*
X166219Y652498D01*
X166324Y652462D01*
X166427Y652422D01*
X166529Y652379D01*
X166630Y652332D01*
X166729Y652281D01*
X166826Y652228D01*
X166920Y652171D01*
X167013Y652110D01*
X167104Y652047D01*
X167193Y651980D01*
X167279Y651910D01*
X167362Y651837D01*
X167444Y651762D01*
X167522Y651684D01*
X167597Y651602D01*
X167670Y651519D01*
X167740Y651433D01*
X167807Y651344D01*
X167870Y651253D01*
X167931Y651160D01*
X167988Y651065D01*
X168041Y650969D01*
X168092Y650870D01*
X168139Y650769D01*
X168182Y650667D01*
X168222Y650564D01*
X168258Y650459D01*
X168290Y650353D01*
X168319Y650246D01*
X168344Y650138D01*
X168365Y650029D01*
X168382Y649920D01*
X168396Y649810D01*
X168405Y649699D01*
X168411Y649589D01*
X168413Y649478D01*
X168411Y649367D01*
X168405Y649257D01*
X168396Y649146D01*
X168382Y649036D01*
X168365Y648927D01*
X168344Y648818D01*
X168319Y648710D01*
X168290Y648603D01*
X168258Y648497D01*
X168222Y648392D01*
X168182Y648289D01*
X168139Y648187D01*
X168092Y648086D01*
X168041Y647987D01*
X167988Y647891D01*
X167931Y647796D01*
X167870Y647703D01*
X167807Y647612D01*
X167740Y647523D01*
X167670Y647437D01*
X167597Y647354D01*
X167522Y647272D01*
X167444Y647194D01*
X167362Y647119D01*
X167279Y647046D01*
X167193Y646976D01*
X167104Y646909D01*
X167013Y646846D01*
X166920Y646785D01*
X166825Y646728D01*
X166729Y646675D01*
X166630Y646624D01*
X166529Y646577D01*
X166427Y646534D01*
X166324Y646494D01*
X166219Y646458D01*
X166113Y646426D01*
X166006Y646397D01*
X165898Y646372D01*
X165789Y646351D01*
X165680Y646334D01*
X165570Y646320D01*
X165459Y646311D01*
X165349Y646305D01*
X165238Y646303D01*
X162063Y646303D01*
X172922Y650113D02*
X176097Y652653D01*
X176097Y641223D01*
X172922Y641223D02*
X179272Y641223D01*
D13*
X431800Y882650D02*
X438150Y889000D01*
X450850Y889000D01*
X457200Y882650D01*
X457200Y869950D01*
X450850Y863600D01*
X438150Y863600D01*
X431800Y869950D01*
X400050Y889000D02*
X387350Y889000D01*
X400050Y889000D02*
X406400Y882650D01*
X406400Y869950D01*
X400050Y863600D01*
X406400Y882650D02*
X412750Y889000D01*
X425450Y889000D01*
X431800Y882650D01*
X431800Y869950D01*
X425450Y863600D01*
X412750Y863600D01*
X406400Y869950D01*
X361950Y889000D02*
X355600Y882650D01*
X361950Y889000D02*
X374650Y889000D01*
X381000Y882650D01*
X381000Y869950D01*
X374650Y863600D01*
X361950Y863600D01*
X355600Y869950D01*
X381000Y882650D02*
X387350Y889000D01*
X381000Y869950D02*
X387350Y863600D01*
X400050Y863600D01*
X323850Y889000D02*
X311150Y889000D01*
X323850Y889000D02*
X330200Y882650D01*
X330200Y869950D01*
X323850Y863600D01*
X330200Y882650D02*
X336550Y889000D01*
X349250Y889000D01*
X355600Y882650D01*
X355600Y869950D01*
X349250Y863600D01*
X336550Y863600D01*
X330200Y869950D01*
X285750Y889000D02*
X279400Y882650D01*
X285750Y889000D02*
X298450Y889000D01*
X304800Y882650D01*
X304800Y869950D01*
X298450Y863600D01*
X285750Y863600D01*
X279400Y869950D01*
X304800Y882650D02*
X311150Y889000D01*
X304800Y869950D02*
X311150Y863600D01*
X323850Y863600D01*
X247650Y889000D02*
X234950Y889000D01*
X247650Y889000D02*
X254000Y882650D01*
X254000Y869950D01*
X247650Y863600D01*
X254000Y882650D02*
X260350Y889000D01*
X273050Y889000D01*
X279400Y882650D01*
X279400Y869950D01*
X273050Y863600D01*
X260350Y863600D01*
X254000Y869950D01*
X209550Y889000D02*
X203200Y882650D01*
X209550Y889000D02*
X222250Y889000D01*
X228600Y882650D01*
X228600Y869950D01*
X222250Y863600D01*
X209550Y863600D01*
X203200Y869950D01*
X228600Y882650D02*
X234950Y889000D01*
X228600Y869950D02*
X234950Y863600D01*
X247650Y863600D01*
X171450Y889000D02*
X158750Y889000D01*
X171450Y889000D02*
X177800Y882650D01*
X177800Y869950D01*
X171450Y863600D01*
X177800Y882650D02*
X184150Y889000D01*
X196850Y889000D01*
X203200Y882650D01*
X203200Y869950D01*
X196850Y863600D01*
X184150Y863600D01*
X177800Y869950D01*
X152400Y869950D02*
X152400Y882650D01*
X158750Y889000D01*
X152400Y869950D02*
X158750Y863600D01*
X171450Y863600D01*
X457200Y882650D02*
X463550Y889000D01*
X476250Y889000D01*
X482600Y882650D01*
X482600Y869950D01*
X476250Y863600D01*
X463550Y863600D01*
X457200Y869950D01*
D14*
X156083Y897763D02*
X156083Y906653D01*
X156083Y897763D02*
X156081Y897663D01*
X156075Y897564D01*
X156065Y897464D01*
X156052Y897366D01*
X156034Y897267D01*
X156013Y897170D01*
X155988Y897074D01*
X155959Y896978D01*
X155926Y896884D01*
X155890Y896791D01*
X155850Y896700D01*
X155806Y896610D01*
X155759Y896522D01*
X155709Y896436D01*
X155655Y896352D01*
X155598Y896270D01*
X155538Y896191D01*
X155474Y896113D01*
X155408Y896039D01*
X155339Y895967D01*
X155267Y895898D01*
X155193Y895832D01*
X155115Y895768D01*
X155036Y895708D01*
X154954Y895651D01*
X154870Y895597D01*
X154784Y895547D01*
X154696Y895500D01*
X154606Y895456D01*
X154515Y895416D01*
X154422Y895380D01*
X154328Y895347D01*
X154232Y895318D01*
X154136Y895293D01*
X154039Y895272D01*
X153940Y895254D01*
X153842Y895241D01*
X153742Y895231D01*
X153643Y895225D01*
X153543Y895223D01*
X152273Y895223D01*
X162063Y895223D02*
X162063Y906653D01*
X165238Y906653D01*
X165349Y906651D01*
X165459Y906645D01*
X165570Y906636D01*
X165680Y906622D01*
X165789Y906605D01*
X165898Y906584D01*
X166006Y906559D01*
X166113Y906530D01*
X166219Y906498D01*
X166324Y906462D01*
X166427Y906422D01*
X166529Y906379D01*
X166630Y906332D01*
X166729Y906281D01*
X166826Y906228D01*
X166920Y906171D01*
X167013Y906110D01*
X167104Y906047D01*
X167193Y905980D01*
X167279Y905910D01*
X167362Y905837D01*
X167444Y905762D01*
X167522Y905684D01*
X167597Y905602D01*
X167670Y905519D01*
X167740Y905433D01*
X167807Y905344D01*
X167870Y905253D01*
X167931Y905160D01*
X167988Y905065D01*
X168041Y904969D01*
X168092Y904870D01*
X168139Y904769D01*
X168182Y904667D01*
X168222Y904564D01*
X168258Y904459D01*
X168290Y904353D01*
X168319Y904246D01*
X168344Y904138D01*
X168365Y904029D01*
X168382Y903920D01*
X168396Y903810D01*
X168405Y903699D01*
X168411Y903589D01*
X168413Y903478D01*
X168411Y903367D01*
X168405Y903257D01*
X168396Y903146D01*
X168382Y903036D01*
X168365Y902927D01*
X168344Y902818D01*
X168319Y902710D01*
X168290Y902603D01*
X168258Y902497D01*
X168222Y902392D01*
X168182Y902289D01*
X168139Y902187D01*
X168092Y902086D01*
X168041Y901987D01*
X167988Y901891D01*
X167931Y901796D01*
X167870Y901703D01*
X167807Y901612D01*
X167740Y901523D01*
X167670Y901437D01*
X167597Y901354D01*
X167522Y901272D01*
X167444Y901194D01*
X167362Y901119D01*
X167279Y901046D01*
X167193Y900976D01*
X167104Y900909D01*
X167013Y900846D01*
X166920Y900785D01*
X166825Y900728D01*
X166729Y900675D01*
X166630Y900624D01*
X166529Y900577D01*
X166427Y900534D01*
X166324Y900494D01*
X166219Y900458D01*
X166113Y900426D01*
X166006Y900397D01*
X165898Y900372D01*
X165789Y900351D01*
X165680Y900334D01*
X165570Y900320D01*
X165459Y900311D01*
X165349Y900305D01*
X165238Y900303D01*
X162063Y900303D01*
X176414Y906654D02*
X176518Y906652D01*
X176623Y906646D01*
X176727Y906637D01*
X176830Y906624D01*
X176933Y906606D01*
X177035Y906586D01*
X177137Y906561D01*
X177237Y906533D01*
X177337Y906501D01*
X177435Y906465D01*
X177532Y906426D01*
X177627Y906384D01*
X177721Y906338D01*
X177813Y906288D01*
X177903Y906236D01*
X177991Y906180D01*
X178077Y906120D01*
X178161Y906058D01*
X178242Y905993D01*
X178321Y905925D01*
X178398Y905853D01*
X178471Y905780D01*
X178543Y905703D01*
X178611Y905624D01*
X178676Y905543D01*
X178738Y905459D01*
X178798Y905373D01*
X178854Y905285D01*
X178906Y905195D01*
X178956Y905103D01*
X179002Y905009D01*
X179044Y904914D01*
X179083Y904817D01*
X179119Y904719D01*
X179151Y904619D01*
X179179Y904519D01*
X179204Y904417D01*
X179224Y904315D01*
X179242Y904212D01*
X179255Y904109D01*
X179264Y904005D01*
X179270Y903900D01*
X179272Y903796D01*
X176414Y906653D02*
X176296Y906651D01*
X176177Y906645D01*
X176059Y906636D01*
X175942Y906623D01*
X175825Y906605D01*
X175708Y906585D01*
X175592Y906560D01*
X175477Y906532D01*
X175364Y906499D01*
X175251Y906464D01*
X175139Y906424D01*
X175029Y906382D01*
X174920Y906335D01*
X174812Y906285D01*
X174707Y906232D01*
X174603Y906175D01*
X174501Y906115D01*
X174401Y906052D01*
X174303Y905985D01*
X174207Y905916D01*
X174114Y905843D01*
X174023Y905767D01*
X173934Y905689D01*
X173848Y905607D01*
X173765Y905523D01*
X173684Y905437D01*
X173607Y905347D01*
X173532Y905256D01*
X173460Y905162D01*
X173391Y905065D01*
X173326Y904967D01*
X173263Y904866D01*
X173204Y904763D01*
X173148Y904659D01*
X173096Y904553D01*
X173047Y904445D01*
X173002Y904336D01*
X172960Y904225D01*
X172922Y904113D01*
X178320Y901574D02*
X178396Y901649D01*
X178471Y901728D01*
X178542Y901809D01*
X178611Y901893D01*
X178676Y901979D01*
X178738Y902067D01*
X178798Y902157D01*
X178854Y902249D01*
X178907Y902344D01*
X178956Y902440D01*
X179002Y902538D01*
X179045Y902637D01*
X179084Y902738D01*
X179119Y902840D01*
X179151Y902943D01*
X179179Y903047D01*
X179204Y903152D01*
X179225Y903259D01*
X179242Y903365D01*
X179255Y903472D01*
X179264Y903580D01*
X179270Y903688D01*
X179272Y903796D01*
X178319Y901573D02*
X172922Y895223D01*
X179272Y895223D01*
D13*
X209500Y699950D02*
X273100Y699950D01*
X273100Y722450D02*
X209500Y722450D01*
X209500Y699950D01*
X273100Y699950D02*
X273100Y722450D01*
D15*
X205975Y711200D03*
X276625Y711200D03*
D14*
X230505Y696595D02*
X230505Y685165D01*
X230505Y696595D02*
X233680Y696595D01*
X233791Y696593D01*
X233901Y696587D01*
X234012Y696578D01*
X234122Y696564D01*
X234231Y696547D01*
X234340Y696526D01*
X234448Y696501D01*
X234555Y696472D01*
X234661Y696440D01*
X234766Y696404D01*
X234869Y696364D01*
X234971Y696321D01*
X235072Y696274D01*
X235171Y696223D01*
X235268Y696170D01*
X235362Y696113D01*
X235455Y696052D01*
X235546Y695989D01*
X235635Y695922D01*
X235721Y695852D01*
X235804Y695779D01*
X235886Y695704D01*
X235964Y695626D01*
X236039Y695544D01*
X236112Y695461D01*
X236182Y695375D01*
X236249Y695286D01*
X236312Y695195D01*
X236373Y695102D01*
X236430Y695007D01*
X236483Y694911D01*
X236534Y694812D01*
X236581Y694711D01*
X236624Y694609D01*
X236664Y694506D01*
X236700Y694401D01*
X236732Y694295D01*
X236761Y694188D01*
X236786Y694080D01*
X236807Y693971D01*
X236824Y693862D01*
X236838Y693752D01*
X236847Y693641D01*
X236853Y693531D01*
X236855Y693420D01*
X236853Y693309D01*
X236847Y693199D01*
X236838Y693088D01*
X236824Y692978D01*
X236807Y692869D01*
X236786Y692760D01*
X236761Y692652D01*
X236732Y692545D01*
X236700Y692439D01*
X236664Y692334D01*
X236624Y692231D01*
X236581Y692129D01*
X236534Y692028D01*
X236483Y691929D01*
X236430Y691833D01*
X236373Y691738D01*
X236312Y691645D01*
X236249Y691554D01*
X236182Y691465D01*
X236112Y691379D01*
X236039Y691296D01*
X235964Y691214D01*
X235886Y691136D01*
X235804Y691061D01*
X235721Y690988D01*
X235635Y690918D01*
X235546Y690851D01*
X235455Y690788D01*
X235362Y690727D01*
X235267Y690670D01*
X235171Y690617D01*
X235072Y690566D01*
X234971Y690519D01*
X234869Y690476D01*
X234766Y690436D01*
X234661Y690400D01*
X234555Y690368D01*
X234448Y690339D01*
X234340Y690314D01*
X234231Y690293D01*
X234122Y690276D01*
X234012Y690262D01*
X233901Y690253D01*
X233791Y690247D01*
X233680Y690245D01*
X230505Y690245D01*
X234315Y690245D02*
X236855Y685165D01*
X248203Y693738D02*
X248201Y693842D01*
X248195Y693947D01*
X248186Y694051D01*
X248173Y694154D01*
X248155Y694257D01*
X248135Y694359D01*
X248110Y694461D01*
X248082Y694561D01*
X248050Y694661D01*
X248014Y694759D01*
X247975Y694856D01*
X247933Y694951D01*
X247887Y695045D01*
X247837Y695137D01*
X247785Y695227D01*
X247729Y695315D01*
X247669Y695401D01*
X247607Y695485D01*
X247542Y695566D01*
X247474Y695645D01*
X247402Y695722D01*
X247329Y695795D01*
X247252Y695867D01*
X247173Y695935D01*
X247092Y696000D01*
X247008Y696062D01*
X246922Y696122D01*
X246834Y696178D01*
X246744Y696230D01*
X246652Y696280D01*
X246558Y696326D01*
X246463Y696368D01*
X246366Y696407D01*
X246268Y696443D01*
X246168Y696475D01*
X246068Y696503D01*
X245966Y696528D01*
X245864Y696548D01*
X245761Y696566D01*
X245658Y696579D01*
X245554Y696588D01*
X245449Y696594D01*
X245345Y696596D01*
X245345Y696595D02*
X245227Y696593D01*
X245108Y696587D01*
X244990Y696578D01*
X244873Y696565D01*
X244756Y696547D01*
X244639Y696527D01*
X244523Y696502D01*
X244408Y696474D01*
X244295Y696441D01*
X244182Y696406D01*
X244070Y696366D01*
X243960Y696324D01*
X243851Y696277D01*
X243743Y696227D01*
X243638Y696174D01*
X243534Y696117D01*
X243432Y696057D01*
X243332Y695994D01*
X243234Y695927D01*
X243138Y695858D01*
X243045Y695785D01*
X242954Y695709D01*
X242865Y695631D01*
X242779Y695549D01*
X242696Y695465D01*
X242615Y695379D01*
X242538Y695289D01*
X242463Y695198D01*
X242391Y695104D01*
X242322Y695007D01*
X242257Y694909D01*
X242194Y694808D01*
X242135Y694705D01*
X242079Y694601D01*
X242027Y694495D01*
X241978Y694387D01*
X241933Y694278D01*
X241891Y694167D01*
X241853Y694055D01*
X247250Y691516D02*
X247326Y691591D01*
X247401Y691670D01*
X247472Y691751D01*
X247541Y691835D01*
X247606Y691921D01*
X247668Y692009D01*
X247728Y692099D01*
X247784Y692191D01*
X247837Y692286D01*
X247886Y692382D01*
X247932Y692480D01*
X247975Y692579D01*
X248014Y692680D01*
X248049Y692782D01*
X248081Y692885D01*
X248109Y692989D01*
X248134Y693094D01*
X248155Y693201D01*
X248172Y693307D01*
X248185Y693414D01*
X248194Y693522D01*
X248200Y693630D01*
X248202Y693738D01*
X247250Y691515D02*
X241852Y685165D01*
X248202Y685165D01*
X238886Y714598D02*
X238884Y714702D01*
X238878Y714807D01*
X238869Y714911D01*
X238856Y715014D01*
X238838Y715117D01*
X238818Y715219D01*
X238793Y715321D01*
X238765Y715421D01*
X238733Y715521D01*
X238697Y715619D01*
X238658Y715716D01*
X238616Y715811D01*
X238570Y715905D01*
X238520Y715997D01*
X238468Y716087D01*
X238412Y716175D01*
X238352Y716261D01*
X238290Y716345D01*
X238225Y716426D01*
X238157Y716505D01*
X238085Y716582D01*
X238012Y716655D01*
X237935Y716727D01*
X237856Y716795D01*
X237775Y716860D01*
X237691Y716922D01*
X237605Y716982D01*
X237517Y717038D01*
X237427Y717090D01*
X237335Y717140D01*
X237241Y717186D01*
X237146Y717228D01*
X237049Y717267D01*
X236951Y717303D01*
X236851Y717335D01*
X236751Y717363D01*
X236649Y717388D01*
X236547Y717408D01*
X236444Y717426D01*
X236341Y717439D01*
X236237Y717448D01*
X236132Y717454D01*
X236028Y717456D01*
X236028Y717455D02*
X235910Y717453D01*
X235791Y717447D01*
X235673Y717438D01*
X235556Y717425D01*
X235439Y717407D01*
X235322Y717387D01*
X235206Y717362D01*
X235091Y717334D01*
X234978Y717301D01*
X234865Y717266D01*
X234753Y717226D01*
X234643Y717184D01*
X234534Y717137D01*
X234426Y717087D01*
X234321Y717034D01*
X234217Y716977D01*
X234115Y716917D01*
X234015Y716854D01*
X233917Y716787D01*
X233821Y716718D01*
X233728Y716645D01*
X233637Y716569D01*
X233548Y716491D01*
X233462Y716409D01*
X233379Y716325D01*
X233298Y716239D01*
X233221Y716149D01*
X233146Y716058D01*
X233074Y715964D01*
X233005Y715867D01*
X232940Y715769D01*
X232877Y715668D01*
X232818Y715565D01*
X232762Y715461D01*
X232710Y715355D01*
X232661Y715247D01*
X232616Y715138D01*
X232574Y715027D01*
X232536Y714915D01*
X237933Y712376D02*
X238009Y712451D01*
X238084Y712530D01*
X238155Y712611D01*
X238224Y712695D01*
X238289Y712781D01*
X238351Y712869D01*
X238411Y712959D01*
X238467Y713051D01*
X238520Y713146D01*
X238569Y713242D01*
X238615Y713340D01*
X238658Y713439D01*
X238697Y713540D01*
X238732Y713642D01*
X238764Y713745D01*
X238792Y713849D01*
X238817Y713954D01*
X238838Y714061D01*
X238855Y714167D01*
X238868Y714274D01*
X238877Y714382D01*
X238883Y714490D01*
X238885Y714598D01*
X237933Y712375D02*
X232535Y706025D01*
X238885Y706025D01*
X244537Y706025D02*
X244537Y717455D01*
X250887Y717455D02*
X244537Y710470D01*
X247077Y713010D02*
X250887Y706025D01*
X263525Y758825D02*
X263882Y759375D01*
X264225Y759933D01*
X264554Y760500D01*
X264869Y761074D01*
X265171Y761656D01*
X265457Y762245D01*
X265730Y762841D01*
X265987Y763443D01*
X266230Y764052D01*
X266458Y764666D01*
X266670Y765286D01*
X266868Y765911D01*
X267050Y766541D01*
X267216Y767174D01*
X267367Y767812D01*
X267502Y768453D01*
X267622Y769097D01*
X267725Y769745D01*
X267813Y770394D01*
X267884Y771045D01*
X267940Y771698D01*
X267980Y772352D01*
X268003Y773007D01*
X268011Y773662D01*
X268002Y774317D01*
X267978Y774972D01*
X267937Y775626D01*
X267881Y776279D01*
X267808Y776930D01*
X267719Y777579D01*
X267615Y778226D01*
X267494Y778870D01*
X267358Y779511D01*
X267206Y780149D01*
X267039Y780782D01*
X266856Y781411D01*
X266658Y782036D01*
X266444Y782656D01*
X266216Y783270D01*
X265972Y783878D01*
X265713Y784480D01*
X265440Y785076D01*
X265153Y785664D01*
X264850Y786246D01*
X264534Y786820D01*
X264204Y787386D01*
X263860Y787943D01*
X263502Y788492D01*
X263131Y789032D01*
X262747Y789563D01*
X262350Y790085D01*
X261941Y790596D01*
X261519Y791097D01*
X261084Y791588D01*
X260638Y792068D01*
X260180Y792537D01*
X259711Y792994D01*
X259231Y793440D01*
X258740Y793874D01*
X258238Y794295D01*
X257727Y794705D01*
X257205Y795101D01*
X256674Y795485D01*
X256134Y795856D01*
X255584Y796213D01*
X255026Y796556D01*
X254460Y796886D01*
X253886Y797202D01*
X253304Y797504D01*
X252715Y797791D01*
X252120Y798064D01*
X251517Y798322D01*
X250909Y798565D01*
X250295Y798793D01*
X249675Y799006D01*
X249050Y799204D01*
X248421Y799386D01*
X247787Y799553D01*
X247150Y799705D01*
X246509Y799840D01*
X245864Y799960D01*
X245217Y800064D01*
X244568Y800152D01*
X243917Y800225D01*
X243264Y800281D01*
X242610Y800321D01*
X241955Y800345D01*
X241300Y800353D01*
X240645Y800345D01*
X239990Y800321D01*
X239336Y800281D01*
X238683Y800225D01*
X238032Y800152D01*
X237383Y800064D01*
X236736Y799960D01*
X236091Y799840D01*
X235450Y799705D01*
X234813Y799553D01*
X234179Y799386D01*
X233550Y799204D01*
X232925Y799006D01*
X232305Y798793D01*
X231691Y798565D01*
X231083Y798322D01*
X230480Y798064D01*
X229885Y797791D01*
X229296Y797504D01*
X228714Y797202D01*
X228140Y796886D01*
X227574Y796556D01*
X227016Y796213D01*
X226466Y795856D01*
X225926Y795485D01*
X225395Y795101D01*
X224873Y794705D01*
X224362Y794295D01*
X223860Y793874D01*
X223369Y793440D01*
X222889Y792994D01*
X222420Y792537D01*
X221962Y792068D01*
X221516Y791588D01*
X221081Y791097D01*
X220659Y790596D01*
X220250Y790085D01*
X219853Y789563D01*
X219469Y789032D01*
X219098Y788492D01*
X218740Y787943D01*
X218396Y787386D01*
X218066Y786820D01*
X217750Y786246D01*
X217447Y785664D01*
X217160Y785076D01*
X216887Y784480D01*
X216628Y783878D01*
X216384Y783270D01*
X216156Y782656D01*
X215942Y782036D01*
X215744Y781411D01*
X215561Y780782D01*
X215394Y780149D01*
X215242Y779511D01*
X215106Y778870D01*
X214985Y778226D01*
X214881Y777579D01*
X214792Y776930D01*
X214719Y776279D01*
X214663Y775626D01*
X214622Y774972D01*
X214598Y774317D01*
X214589Y773662D01*
X214597Y773007D01*
X214620Y772352D01*
X214660Y771698D01*
X214716Y771045D01*
X214787Y770394D01*
X214875Y769745D01*
X214978Y769097D01*
X215098Y768453D01*
X215233Y767812D01*
X215384Y767174D01*
X215550Y766541D01*
X215732Y765911D01*
X215930Y765286D01*
X216142Y764666D01*
X216370Y764052D01*
X216613Y763443D01*
X216870Y762841D01*
X217143Y762245D01*
X217429Y761656D01*
X217731Y761074D01*
X218046Y760500D01*
X218375Y759933D01*
X218718Y759375D01*
X219075Y758825D01*
X263525Y758825D01*
D11*
X221503Y752920D02*
X221501Y753015D01*
X221495Y753109D01*
X221486Y753203D01*
X221473Y753297D01*
X221456Y753390D01*
X221435Y753482D01*
X221410Y753574D01*
X221382Y753664D01*
X221350Y753753D01*
X221315Y753841D01*
X221276Y753927D01*
X221234Y754012D01*
X221188Y754095D01*
X221139Y754176D01*
X221087Y754255D01*
X221032Y754332D01*
X220973Y754406D01*
X220912Y754478D01*
X220848Y754548D01*
X220781Y754615D01*
X220711Y754679D01*
X220639Y754740D01*
X220565Y754799D01*
X220488Y754854D01*
X220409Y754906D01*
X220328Y754955D01*
X220245Y755001D01*
X220160Y755043D01*
X220074Y755082D01*
X219986Y755117D01*
X219897Y755149D01*
X219807Y755177D01*
X219715Y755202D01*
X219623Y755223D01*
X219530Y755240D01*
X219436Y755253D01*
X219342Y755262D01*
X219248Y755268D01*
X219153Y755270D01*
X219153Y755269D02*
X219045Y755267D01*
X218936Y755261D01*
X218828Y755251D01*
X218721Y755238D01*
X218614Y755220D01*
X218507Y755199D01*
X218402Y755174D01*
X218297Y755145D01*
X218194Y755113D01*
X218092Y755076D01*
X217991Y755036D01*
X217892Y754993D01*
X217794Y754946D01*
X217698Y754895D01*
X217604Y754841D01*
X217512Y754784D01*
X217422Y754723D01*
X217334Y754659D01*
X217249Y754593D01*
X217166Y754523D01*
X217086Y754450D01*
X217008Y754374D01*
X216933Y754296D01*
X216861Y754215D01*
X216792Y754131D01*
X216726Y754045D01*
X216663Y753957D01*
X216604Y753866D01*
X216547Y753774D01*
X216494Y753679D01*
X216445Y753583D01*
X216399Y753484D01*
X216356Y753385D01*
X216317Y753283D01*
X216282Y753181D01*
X220719Y751092D02*
X220788Y751161D01*
X220854Y751232D01*
X220918Y751305D01*
X220979Y751381D01*
X221037Y751460D01*
X221091Y751540D01*
X221143Y751623D01*
X221191Y751707D01*
X221237Y751793D01*
X221278Y751881D01*
X221317Y751971D01*
X221352Y752062D01*
X221383Y752154D01*
X221411Y752247D01*
X221435Y752341D01*
X221455Y752436D01*
X221472Y752532D01*
X221485Y752629D01*
X221494Y752726D01*
X221500Y752823D01*
X221502Y752920D01*
X220719Y751092D02*
X216281Y745871D01*
X221502Y745871D01*
X225730Y745871D02*
X225730Y755269D01*
X230951Y745871D01*
X230951Y755269D01*
X235179Y755269D02*
X235179Y754225D01*
X235179Y755269D02*
X240400Y755269D01*
X237789Y745871D01*
X244322Y750570D02*
X244324Y750755D01*
X244331Y750940D01*
X244342Y751124D01*
X244357Y751308D01*
X244377Y751492D01*
X244401Y751676D01*
X244430Y751858D01*
X244463Y752040D01*
X244500Y752221D01*
X244542Y752401D01*
X244588Y752581D01*
X244638Y752759D01*
X244692Y752935D01*
X244751Y753111D01*
X244813Y753285D01*
X244880Y753457D01*
X244951Y753628D01*
X245026Y753797D01*
X245105Y753964D01*
X245135Y754044D01*
X245168Y754123D01*
X245205Y754200D01*
X245245Y754276D01*
X245288Y754350D01*
X245334Y754422D01*
X245384Y754491D01*
X245436Y754559D01*
X245492Y754624D01*
X245550Y754687D01*
X245612Y754746D01*
X245675Y754804D01*
X245742Y754858D01*
X245810Y754909D01*
X245881Y754957D01*
X245954Y755002D01*
X246028Y755044D01*
X246105Y755082D01*
X246183Y755117D01*
X246262Y755149D01*
X246343Y755177D01*
X246425Y755201D01*
X246509Y755222D01*
X246592Y755239D01*
X246677Y755252D01*
X246762Y755261D01*
X246847Y755267D01*
X246933Y755269D01*
X247019Y755267D01*
X247104Y755261D01*
X247189Y755252D01*
X247274Y755239D01*
X247357Y755222D01*
X247441Y755201D01*
X247523Y755177D01*
X247604Y755149D01*
X247683Y755117D01*
X247761Y755082D01*
X247838Y755044D01*
X247912Y755002D01*
X247985Y754957D01*
X248056Y754909D01*
X248124Y754858D01*
X248191Y754804D01*
X248254Y754746D01*
X248316Y754687D01*
X248374Y754624D01*
X248430Y754559D01*
X248482Y754491D01*
X248532Y754422D01*
X248578Y754350D01*
X248621Y754276D01*
X248661Y754200D01*
X248698Y754123D01*
X248731Y754044D01*
X248761Y753964D01*
X248840Y753797D01*
X248915Y753628D01*
X248986Y753457D01*
X249053Y753285D01*
X249115Y753111D01*
X249174Y752935D01*
X249228Y752759D01*
X249278Y752581D01*
X249324Y752401D01*
X249366Y752221D01*
X249403Y752040D01*
X249436Y751858D01*
X249465Y751676D01*
X249489Y751492D01*
X249509Y751308D01*
X249524Y751124D01*
X249535Y750940D01*
X249542Y750755D01*
X249544Y750570D01*
X244322Y750570D02*
X244324Y750385D01*
X244331Y750200D01*
X244342Y750016D01*
X244357Y749832D01*
X244377Y749648D01*
X244401Y749464D01*
X244430Y749282D01*
X244463Y749100D01*
X244500Y748919D01*
X244542Y748739D01*
X244588Y748559D01*
X244638Y748381D01*
X244692Y748205D01*
X244751Y748029D01*
X244813Y747855D01*
X244880Y747683D01*
X244951Y747512D01*
X245026Y747343D01*
X245105Y747176D01*
X245135Y747096D01*
X245168Y747017D01*
X245205Y746940D01*
X245245Y746864D01*
X245288Y746790D01*
X245334Y746718D01*
X245384Y746649D01*
X245437Y746581D01*
X245492Y746516D01*
X245551Y746453D01*
X245612Y746394D01*
X245675Y746336D01*
X245742Y746282D01*
X245810Y746231D01*
X245881Y746183D01*
X245954Y746138D01*
X246028Y746096D01*
X246105Y746058D01*
X246183Y746023D01*
X246262Y745991D01*
X246343Y745963D01*
X246425Y745939D01*
X246509Y745918D01*
X246592Y745901D01*
X246677Y745888D01*
X246762Y745879D01*
X246847Y745873D01*
X246933Y745871D01*
X248761Y747176D02*
X248840Y747343D01*
X248915Y747512D01*
X248986Y747683D01*
X249053Y747855D01*
X249115Y748029D01*
X249174Y748205D01*
X249228Y748381D01*
X249278Y748559D01*
X249324Y748739D01*
X249366Y748919D01*
X249403Y749100D01*
X249436Y749282D01*
X249465Y749464D01*
X249489Y749648D01*
X249509Y749832D01*
X249524Y750016D01*
X249535Y750200D01*
X249542Y750385D01*
X249544Y750570D01*
X248761Y747176D02*
X248731Y747096D01*
X248698Y747017D01*
X248661Y746940D01*
X248621Y746864D01*
X248578Y746790D01*
X248532Y746718D01*
X248482Y746649D01*
X248430Y746581D01*
X248374Y746516D01*
X248316Y746453D01*
X248254Y746394D01*
X248191Y746336D01*
X248124Y746282D01*
X248056Y746231D01*
X247985Y746183D01*
X247912Y746138D01*
X247838Y746096D01*
X247761Y746058D01*
X247683Y746023D01*
X247604Y745991D01*
X247523Y745963D01*
X247441Y745939D01*
X247357Y745918D01*
X247274Y745901D01*
X247189Y745888D01*
X247104Y745879D01*
X247019Y745873D01*
X246933Y745871D01*
X244845Y747959D02*
X249022Y753181D01*
X253466Y750570D02*
X253468Y750755D01*
X253475Y750940D01*
X253486Y751124D01*
X253501Y751308D01*
X253521Y751492D01*
X253545Y751676D01*
X253574Y751858D01*
X253607Y752040D01*
X253644Y752221D01*
X253686Y752401D01*
X253732Y752581D01*
X253782Y752759D01*
X253836Y752935D01*
X253895Y753111D01*
X253957Y753285D01*
X254024Y753457D01*
X254095Y753628D01*
X254170Y753797D01*
X254249Y753964D01*
X254279Y754044D01*
X254312Y754123D01*
X254349Y754200D01*
X254389Y754276D01*
X254432Y754350D01*
X254478Y754422D01*
X254528Y754491D01*
X254580Y754559D01*
X254636Y754624D01*
X254694Y754687D01*
X254756Y754746D01*
X254819Y754804D01*
X254886Y754858D01*
X254954Y754909D01*
X255025Y754957D01*
X255098Y755002D01*
X255172Y755044D01*
X255249Y755082D01*
X255327Y755117D01*
X255406Y755149D01*
X255487Y755177D01*
X255569Y755201D01*
X255653Y755222D01*
X255736Y755239D01*
X255821Y755252D01*
X255906Y755261D01*
X255991Y755267D01*
X256077Y755269D01*
X256163Y755267D01*
X256248Y755261D01*
X256333Y755252D01*
X256418Y755239D01*
X256501Y755222D01*
X256585Y755201D01*
X256667Y755177D01*
X256748Y755149D01*
X256827Y755117D01*
X256905Y755082D01*
X256982Y755044D01*
X257056Y755002D01*
X257129Y754957D01*
X257200Y754909D01*
X257268Y754858D01*
X257335Y754804D01*
X257398Y754746D01*
X257460Y754687D01*
X257518Y754624D01*
X257574Y754559D01*
X257626Y754491D01*
X257676Y754422D01*
X257722Y754350D01*
X257765Y754276D01*
X257805Y754200D01*
X257842Y754123D01*
X257875Y754044D01*
X257905Y753964D01*
X257984Y753797D01*
X258059Y753628D01*
X258130Y753457D01*
X258197Y753285D01*
X258259Y753111D01*
X258318Y752935D01*
X258372Y752759D01*
X258422Y752581D01*
X258468Y752401D01*
X258510Y752221D01*
X258547Y752040D01*
X258580Y751858D01*
X258609Y751676D01*
X258633Y751492D01*
X258653Y751308D01*
X258668Y751124D01*
X258679Y750940D01*
X258686Y750755D01*
X258688Y750570D01*
X253466Y750570D02*
X253468Y750385D01*
X253475Y750200D01*
X253486Y750016D01*
X253501Y749832D01*
X253521Y749648D01*
X253545Y749464D01*
X253574Y749282D01*
X253607Y749100D01*
X253644Y748919D01*
X253686Y748739D01*
X253732Y748559D01*
X253782Y748381D01*
X253836Y748205D01*
X253895Y748029D01*
X253957Y747855D01*
X254024Y747683D01*
X254095Y747512D01*
X254170Y747343D01*
X254249Y747176D01*
X254279Y747096D01*
X254312Y747017D01*
X254349Y746940D01*
X254389Y746864D01*
X254432Y746790D01*
X254478Y746718D01*
X254528Y746649D01*
X254581Y746581D01*
X254636Y746516D01*
X254695Y746453D01*
X254756Y746394D01*
X254819Y746336D01*
X254886Y746282D01*
X254954Y746231D01*
X255025Y746183D01*
X255098Y746138D01*
X255172Y746096D01*
X255249Y746058D01*
X255327Y746023D01*
X255406Y745991D01*
X255487Y745963D01*
X255569Y745939D01*
X255653Y745918D01*
X255736Y745901D01*
X255821Y745888D01*
X255906Y745879D01*
X255991Y745873D01*
X256077Y745871D01*
X257905Y747176D02*
X257984Y747343D01*
X258059Y747512D01*
X258130Y747683D01*
X258197Y747855D01*
X258259Y748029D01*
X258318Y748205D01*
X258372Y748381D01*
X258422Y748559D01*
X258468Y748739D01*
X258510Y748919D01*
X258547Y749100D01*
X258580Y749282D01*
X258609Y749464D01*
X258633Y749648D01*
X258653Y749832D01*
X258668Y750016D01*
X258679Y750200D01*
X258686Y750385D01*
X258688Y750570D01*
X257905Y747176D02*
X257875Y747096D01*
X257842Y747017D01*
X257805Y746940D01*
X257765Y746864D01*
X257722Y746790D01*
X257676Y746718D01*
X257626Y746649D01*
X257574Y746581D01*
X257518Y746516D01*
X257460Y746453D01*
X257398Y746394D01*
X257335Y746336D01*
X257268Y746282D01*
X257200Y746231D01*
X257129Y746183D01*
X257056Y746138D01*
X256982Y746096D01*
X256905Y746058D01*
X256827Y746023D01*
X256748Y745991D01*
X256667Y745963D01*
X256585Y745939D01*
X256501Y745918D01*
X256418Y745901D01*
X256333Y745888D01*
X256248Y745879D01*
X256163Y745873D01*
X256077Y745871D01*
X253989Y747959D02*
X258166Y753181D01*
X262610Y750570D02*
X262612Y750755D01*
X262619Y750940D01*
X262630Y751124D01*
X262645Y751308D01*
X262665Y751492D01*
X262689Y751676D01*
X262718Y751858D01*
X262751Y752040D01*
X262788Y752221D01*
X262830Y752401D01*
X262876Y752581D01*
X262926Y752759D01*
X262980Y752935D01*
X263039Y753111D01*
X263101Y753285D01*
X263168Y753457D01*
X263239Y753628D01*
X263314Y753797D01*
X263393Y753964D01*
X263423Y754044D01*
X263456Y754123D01*
X263493Y754200D01*
X263533Y754276D01*
X263576Y754350D01*
X263622Y754422D01*
X263672Y754491D01*
X263724Y754559D01*
X263780Y754624D01*
X263838Y754687D01*
X263900Y754746D01*
X263963Y754804D01*
X264030Y754858D01*
X264098Y754909D01*
X264169Y754957D01*
X264242Y755002D01*
X264316Y755044D01*
X264393Y755082D01*
X264471Y755117D01*
X264550Y755149D01*
X264631Y755177D01*
X264713Y755201D01*
X264797Y755222D01*
X264880Y755239D01*
X264965Y755252D01*
X265050Y755261D01*
X265135Y755267D01*
X265221Y755269D01*
X265307Y755267D01*
X265392Y755261D01*
X265477Y755252D01*
X265562Y755239D01*
X265645Y755222D01*
X265729Y755201D01*
X265811Y755177D01*
X265892Y755149D01*
X265971Y755117D01*
X266049Y755082D01*
X266126Y755044D01*
X266200Y755002D01*
X266273Y754957D01*
X266344Y754909D01*
X266412Y754858D01*
X266479Y754804D01*
X266542Y754746D01*
X266604Y754687D01*
X266662Y754624D01*
X266718Y754559D01*
X266770Y754491D01*
X266820Y754422D01*
X266866Y754350D01*
X266909Y754276D01*
X266949Y754200D01*
X266986Y754123D01*
X267019Y754044D01*
X267049Y753964D01*
X267128Y753797D01*
X267203Y753628D01*
X267274Y753457D01*
X267341Y753285D01*
X267403Y753111D01*
X267462Y752935D01*
X267516Y752759D01*
X267566Y752581D01*
X267612Y752401D01*
X267654Y752221D01*
X267691Y752040D01*
X267724Y751858D01*
X267753Y751676D01*
X267777Y751492D01*
X267797Y751308D01*
X267812Y751124D01*
X267823Y750940D01*
X267830Y750755D01*
X267832Y750570D01*
X262610Y750570D02*
X262612Y750385D01*
X262619Y750200D01*
X262630Y750016D01*
X262645Y749832D01*
X262665Y749648D01*
X262689Y749464D01*
X262718Y749282D01*
X262751Y749100D01*
X262788Y748919D01*
X262830Y748739D01*
X262876Y748559D01*
X262926Y748381D01*
X262980Y748205D01*
X263039Y748029D01*
X263101Y747855D01*
X263168Y747683D01*
X263239Y747512D01*
X263314Y747343D01*
X263393Y747176D01*
X263423Y747096D01*
X263456Y747017D01*
X263493Y746940D01*
X263533Y746864D01*
X263576Y746790D01*
X263622Y746718D01*
X263672Y746649D01*
X263725Y746581D01*
X263780Y746516D01*
X263839Y746453D01*
X263900Y746394D01*
X263963Y746336D01*
X264030Y746282D01*
X264098Y746231D01*
X264169Y746183D01*
X264242Y746138D01*
X264316Y746096D01*
X264393Y746058D01*
X264471Y746023D01*
X264550Y745991D01*
X264631Y745963D01*
X264713Y745939D01*
X264797Y745918D01*
X264880Y745901D01*
X264965Y745888D01*
X265050Y745879D01*
X265135Y745873D01*
X265221Y745871D01*
X267049Y747176D02*
X267128Y747343D01*
X267203Y747512D01*
X267274Y747683D01*
X267341Y747855D01*
X267403Y748029D01*
X267462Y748205D01*
X267516Y748381D01*
X267566Y748559D01*
X267612Y748739D01*
X267654Y748919D01*
X267691Y749100D01*
X267724Y749282D01*
X267753Y749464D01*
X267777Y749648D01*
X267797Y749832D01*
X267812Y750016D01*
X267823Y750200D01*
X267830Y750385D01*
X267832Y750570D01*
X267049Y747176D02*
X267019Y747096D01*
X266986Y747017D01*
X266949Y746940D01*
X266909Y746864D01*
X266866Y746790D01*
X266820Y746718D01*
X266770Y746649D01*
X266718Y746581D01*
X266662Y746516D01*
X266604Y746453D01*
X266542Y746394D01*
X266479Y746336D01*
X266412Y746282D01*
X266344Y746231D01*
X266273Y746183D01*
X266200Y746138D01*
X266126Y746096D01*
X266049Y746058D01*
X265971Y746023D01*
X265892Y745991D01*
X265811Y745963D01*
X265729Y745939D01*
X265645Y745918D01*
X265562Y745901D01*
X265477Y745888D01*
X265392Y745879D01*
X265307Y745873D01*
X265221Y745871D01*
X263133Y747959D02*
X267309Y753181D01*
D13*
X407850Y755700D02*
X407850Y692100D01*
X430350Y692100D02*
X430350Y755700D01*
X407850Y755700D01*
X407850Y692100D02*
X430350Y692100D01*
D16*
X419100Y759225D03*
X419100Y688575D03*
D14*
X404495Y718268D02*
X393065Y718268D01*
X393065Y721443D01*
X393067Y721554D01*
X393073Y721664D01*
X393082Y721775D01*
X393096Y721885D01*
X393113Y721994D01*
X393134Y722103D01*
X393159Y722211D01*
X393188Y722318D01*
X393220Y722424D01*
X393256Y722529D01*
X393296Y722632D01*
X393339Y722734D01*
X393386Y722835D01*
X393437Y722934D01*
X393490Y723031D01*
X393547Y723125D01*
X393608Y723218D01*
X393671Y723309D01*
X393738Y723398D01*
X393808Y723484D01*
X393881Y723567D01*
X393956Y723649D01*
X394034Y723727D01*
X394116Y723802D01*
X394199Y723875D01*
X394285Y723945D01*
X394374Y724012D01*
X394465Y724075D01*
X394558Y724136D01*
X394653Y724193D01*
X394749Y724246D01*
X394848Y724297D01*
X394949Y724344D01*
X395051Y724387D01*
X395154Y724427D01*
X395259Y724463D01*
X395365Y724495D01*
X395472Y724524D01*
X395580Y724549D01*
X395689Y724570D01*
X395798Y724587D01*
X395908Y724601D01*
X396019Y724610D01*
X396129Y724616D01*
X396240Y724618D01*
X396351Y724616D01*
X396461Y724610D01*
X396572Y724601D01*
X396682Y724587D01*
X396791Y724570D01*
X396900Y724549D01*
X397008Y724524D01*
X397115Y724495D01*
X397221Y724463D01*
X397326Y724427D01*
X397429Y724387D01*
X397531Y724344D01*
X397632Y724297D01*
X397731Y724246D01*
X397828Y724193D01*
X397922Y724136D01*
X398015Y724075D01*
X398106Y724012D01*
X398195Y723945D01*
X398281Y723875D01*
X398364Y723802D01*
X398446Y723727D01*
X398524Y723649D01*
X398599Y723567D01*
X398672Y723484D01*
X398742Y723398D01*
X398809Y723309D01*
X398872Y723218D01*
X398933Y723125D01*
X398990Y723031D01*
X399043Y722934D01*
X399094Y722835D01*
X399141Y722734D01*
X399184Y722632D01*
X399224Y722529D01*
X399260Y722424D01*
X399292Y722318D01*
X399321Y722211D01*
X399346Y722103D01*
X399367Y721994D01*
X399384Y721885D01*
X399398Y721775D01*
X399407Y721664D01*
X399413Y721554D01*
X399415Y721443D01*
X399415Y718268D01*
X399415Y722078D02*
X404495Y724618D01*
X395605Y729615D02*
X393065Y732790D01*
X404495Y732790D01*
X404495Y729615D02*
X404495Y735965D01*
X413925Y708472D02*
X422815Y705932D01*
X422815Y712282D01*
X420275Y710377D02*
X425355Y710377D01*
X425355Y716790D02*
X424720Y716790D01*
X424720Y717425D01*
X425355Y717425D01*
X425355Y716790D01*
X415195Y721934D02*
X413925Y721934D01*
X413925Y728284D01*
X425355Y725109D01*
X425355Y733935D02*
X413925Y733935D01*
X413925Y740285D02*
X420910Y733935D01*
X418370Y736475D02*
X425355Y740285D01*
D17*
X506700Y541925D02*
X506700Y484425D01*
X506700Y541925D02*
X407700Y541925D01*
X407700Y484425D01*
X506700Y484425D01*
X431200Y485000D02*
X431200Y490000D01*
X482200Y490000D02*
X482200Y485000D01*
D10*
X401142Y490648D02*
X391998Y490648D01*
X391998Y488108D02*
X391998Y493188D01*
X401142Y496967D02*
X401142Y501031D01*
X401142Y496967D02*
X391998Y496967D01*
X391998Y501031D01*
X396062Y500015D02*
X396062Y496967D01*
X391998Y504974D02*
X401142Y504974D01*
X397078Y508022D02*
X391998Y504974D01*
X397078Y508022D02*
X391998Y511070D01*
X401142Y511070D01*
X401142Y515997D02*
X391998Y515997D01*
X391998Y518537D01*
X392000Y518637D01*
X392006Y518736D01*
X392016Y518836D01*
X392029Y518934D01*
X392047Y519033D01*
X392068Y519130D01*
X392093Y519226D01*
X392122Y519322D01*
X392155Y519416D01*
X392191Y519509D01*
X392231Y519600D01*
X392275Y519690D01*
X392322Y519778D01*
X392372Y519864D01*
X392426Y519948D01*
X392483Y520030D01*
X392543Y520109D01*
X392607Y520187D01*
X392673Y520261D01*
X392742Y520333D01*
X392814Y520402D01*
X392888Y520468D01*
X392966Y520532D01*
X393045Y520592D01*
X393127Y520649D01*
X393211Y520703D01*
X393297Y520753D01*
X393385Y520800D01*
X393475Y520844D01*
X393566Y520884D01*
X393659Y520920D01*
X393753Y520953D01*
X393849Y520982D01*
X393945Y521007D01*
X394042Y521028D01*
X394141Y521046D01*
X394239Y521059D01*
X394339Y521069D01*
X394438Y521075D01*
X394538Y521077D01*
X394638Y521075D01*
X394737Y521069D01*
X394837Y521059D01*
X394935Y521046D01*
X395034Y521028D01*
X395131Y521007D01*
X395227Y520982D01*
X395323Y520953D01*
X395417Y520920D01*
X395510Y520884D01*
X395601Y520844D01*
X395691Y520800D01*
X395779Y520753D01*
X395865Y520703D01*
X395949Y520649D01*
X396031Y520592D01*
X396110Y520532D01*
X396188Y520468D01*
X396262Y520402D01*
X396334Y520333D01*
X396403Y520261D01*
X396469Y520187D01*
X396533Y520109D01*
X396593Y520030D01*
X396650Y519948D01*
X396704Y519864D01*
X396754Y519778D01*
X396801Y519690D01*
X396845Y519600D01*
X396885Y519509D01*
X396921Y519416D01*
X396954Y519322D01*
X396983Y519226D01*
X397008Y519130D01*
X397029Y519033D01*
X397047Y518934D01*
X397060Y518836D01*
X397070Y518736D01*
X397076Y518637D01*
X397078Y518537D01*
X397078Y515997D01*
D17*
X354500Y541925D02*
X354500Y484425D01*
X354500Y541925D02*
X280500Y541925D01*
X280500Y484425D01*
X354500Y484425D01*
D18*
X304500Y485000D02*
X304500Y490000D01*
X330500Y490000D02*
X330500Y485000D01*
X330500Y490000D02*
X304500Y490000D01*
D10*
X274442Y488108D02*
X265298Y488108D01*
X265298Y490648D01*
X265300Y490748D01*
X265306Y490847D01*
X265316Y490947D01*
X265329Y491045D01*
X265347Y491144D01*
X265368Y491241D01*
X265393Y491337D01*
X265422Y491433D01*
X265455Y491527D01*
X265491Y491620D01*
X265531Y491711D01*
X265575Y491801D01*
X265622Y491889D01*
X265672Y491975D01*
X265726Y492059D01*
X265783Y492141D01*
X265843Y492220D01*
X265907Y492298D01*
X265973Y492372D01*
X266042Y492444D01*
X266114Y492513D01*
X266188Y492579D01*
X266266Y492643D01*
X266345Y492703D01*
X266427Y492760D01*
X266511Y492814D01*
X266597Y492864D01*
X266685Y492911D01*
X266775Y492955D01*
X266866Y492995D01*
X266959Y493031D01*
X267053Y493064D01*
X267149Y493093D01*
X267245Y493118D01*
X267342Y493139D01*
X267441Y493157D01*
X267539Y493170D01*
X267639Y493180D01*
X267738Y493186D01*
X267838Y493188D01*
X267938Y493186D01*
X268037Y493180D01*
X268137Y493170D01*
X268235Y493157D01*
X268334Y493139D01*
X268431Y493118D01*
X268527Y493093D01*
X268623Y493064D01*
X268717Y493031D01*
X268810Y492995D01*
X268901Y492955D01*
X268991Y492911D01*
X269079Y492864D01*
X269165Y492814D01*
X269249Y492760D01*
X269331Y492703D01*
X269410Y492643D01*
X269488Y492579D01*
X269562Y492513D01*
X269634Y492444D01*
X269703Y492372D01*
X269769Y492298D01*
X269833Y492220D01*
X269893Y492141D01*
X269950Y492059D01*
X270004Y491975D01*
X270054Y491889D01*
X270101Y491801D01*
X270145Y491711D01*
X270185Y491620D01*
X270221Y491527D01*
X270254Y491433D01*
X270283Y491337D01*
X270308Y491241D01*
X270329Y491144D01*
X270347Y491045D01*
X270360Y490947D01*
X270370Y490847D01*
X270376Y490748D01*
X270378Y490648D01*
X270378Y488108D01*
X270378Y491156D02*
X274442Y493188D01*
X274442Y499929D02*
X274440Y500018D01*
X274434Y500106D01*
X274425Y500194D01*
X274411Y500282D01*
X274394Y500369D01*
X274373Y500455D01*
X274348Y500540D01*
X274319Y500624D01*
X274287Y500707D01*
X274252Y500788D01*
X274212Y500867D01*
X274170Y500945D01*
X274124Y501021D01*
X274075Y501095D01*
X274022Y501166D01*
X273967Y501235D01*
X273908Y501302D01*
X273847Y501366D01*
X273783Y501427D01*
X273716Y501486D01*
X273647Y501541D01*
X273576Y501594D01*
X273502Y501643D01*
X273426Y501689D01*
X273348Y501731D01*
X273269Y501771D01*
X273188Y501806D01*
X273105Y501838D01*
X273021Y501867D01*
X272936Y501892D01*
X272850Y501913D01*
X272763Y501930D01*
X272675Y501944D01*
X272587Y501953D01*
X272499Y501959D01*
X272410Y501961D01*
X274442Y499929D02*
X274440Y499799D01*
X274434Y499668D01*
X274424Y499538D01*
X274410Y499409D01*
X274393Y499280D01*
X274371Y499151D01*
X274345Y499023D01*
X274316Y498896D01*
X274283Y498770D01*
X274246Y498645D01*
X274205Y498521D01*
X274160Y498399D01*
X274112Y498278D01*
X274060Y498158D01*
X274004Y498040D01*
X273945Y497924D01*
X273882Y497810D01*
X273816Y497697D01*
X273747Y497587D01*
X273674Y497479D01*
X273598Y497373D01*
X273519Y497269D01*
X273437Y497168D01*
X273351Y497070D01*
X273263Y496974D01*
X273172Y496881D01*
X267330Y497135D02*
X267241Y497137D01*
X267153Y497143D01*
X267065Y497152D01*
X266977Y497166D01*
X266890Y497183D01*
X266804Y497204D01*
X266719Y497229D01*
X266635Y497258D01*
X266552Y497290D01*
X266471Y497325D01*
X266392Y497365D01*
X266314Y497407D01*
X266238Y497453D01*
X266164Y497502D01*
X266093Y497555D01*
X266024Y497610D01*
X265957Y497669D01*
X265893Y497730D01*
X265832Y497794D01*
X265773Y497861D01*
X265718Y497930D01*
X265665Y498001D01*
X265616Y498075D01*
X265570Y498151D01*
X265528Y498229D01*
X265488Y498308D01*
X265453Y498389D01*
X265421Y498472D01*
X265392Y498556D01*
X265367Y498641D01*
X265346Y498727D01*
X265329Y498814D01*
X265315Y498902D01*
X265306Y498990D01*
X265300Y499078D01*
X265298Y499167D01*
X265300Y499290D01*
X265306Y499412D01*
X265316Y499534D01*
X265330Y499656D01*
X265347Y499777D01*
X265369Y499898D01*
X265394Y500018D01*
X265424Y500137D01*
X265457Y500255D01*
X265494Y500372D01*
X265534Y500487D01*
X265578Y500602D01*
X265626Y500715D01*
X265678Y500826D01*
X265733Y500935D01*
X265792Y501043D01*
X265854Y501149D01*
X265919Y501252D01*
X265988Y501354D01*
X266060Y501453D01*
X269108Y498151D02*
X269061Y498075D01*
X269011Y498001D01*
X268958Y497930D01*
X268901Y497861D01*
X268842Y497794D01*
X268780Y497730D01*
X268715Y497668D01*
X268647Y497610D01*
X268577Y497555D01*
X268505Y497502D01*
X268431Y497453D01*
X268354Y497407D01*
X268276Y497364D01*
X268195Y497325D01*
X268113Y497289D01*
X268030Y497257D01*
X267946Y497229D01*
X267860Y497204D01*
X267773Y497183D01*
X267685Y497166D01*
X267597Y497152D01*
X267508Y497143D01*
X267419Y497137D01*
X267330Y497135D01*
X270632Y500945D02*
X270679Y501021D01*
X270729Y501095D01*
X270782Y501166D01*
X270839Y501235D01*
X270898Y501302D01*
X270960Y501366D01*
X271025Y501428D01*
X271093Y501486D01*
X271163Y501541D01*
X271235Y501594D01*
X271309Y501643D01*
X271386Y501689D01*
X271464Y501732D01*
X271545Y501771D01*
X271627Y501807D01*
X271710Y501839D01*
X271794Y501867D01*
X271880Y501892D01*
X271967Y501913D01*
X272055Y501930D01*
X272143Y501944D01*
X272232Y501953D01*
X272321Y501959D01*
X272410Y501961D01*
X270632Y500945D02*
X269108Y498151D01*
X265298Y507650D02*
X274442Y507650D01*
X265298Y505110D02*
X265298Y510190D01*
D17*
X227500Y484425D02*
X227500Y541925D01*
X153500Y541925D01*
X153500Y484425D01*
X227500Y484425D01*
D18*
X177500Y485000D02*
X177500Y490000D01*
X203500Y490000D02*
X203500Y485000D01*
X203500Y490000D02*
X177500Y490000D01*
D10*
X147442Y488108D02*
X138298Y488108D01*
X143378Y491156D01*
X138298Y494204D01*
X147442Y494204D01*
X144902Y498674D02*
X140838Y498674D01*
X140738Y498676D01*
X140639Y498682D01*
X140539Y498692D01*
X140441Y498705D01*
X140342Y498723D01*
X140245Y498744D01*
X140149Y498769D01*
X140053Y498798D01*
X139959Y498831D01*
X139866Y498867D01*
X139775Y498907D01*
X139685Y498951D01*
X139597Y498998D01*
X139511Y499048D01*
X139427Y499102D01*
X139345Y499159D01*
X139266Y499219D01*
X139188Y499283D01*
X139114Y499349D01*
X139042Y499418D01*
X138973Y499490D01*
X138907Y499564D01*
X138843Y499642D01*
X138783Y499721D01*
X138726Y499803D01*
X138672Y499887D01*
X138622Y499973D01*
X138575Y500061D01*
X138531Y500151D01*
X138491Y500242D01*
X138455Y500335D01*
X138422Y500429D01*
X138393Y500525D01*
X138368Y500621D01*
X138347Y500718D01*
X138329Y500817D01*
X138316Y500915D01*
X138306Y501015D01*
X138300Y501114D01*
X138298Y501214D01*
X138300Y501314D01*
X138306Y501413D01*
X138316Y501513D01*
X138329Y501611D01*
X138347Y501710D01*
X138368Y501807D01*
X138393Y501903D01*
X138422Y501999D01*
X138455Y502093D01*
X138491Y502186D01*
X138531Y502277D01*
X138575Y502367D01*
X138622Y502455D01*
X138672Y502541D01*
X138726Y502625D01*
X138783Y502707D01*
X138843Y502786D01*
X138907Y502864D01*
X138973Y502938D01*
X139042Y503010D01*
X139114Y503079D01*
X139188Y503145D01*
X139266Y503209D01*
X139345Y503269D01*
X139427Y503326D01*
X139511Y503380D01*
X139597Y503430D01*
X139685Y503477D01*
X139775Y503521D01*
X139866Y503561D01*
X139959Y503597D01*
X140053Y503630D01*
X140149Y503659D01*
X140245Y503684D01*
X140342Y503705D01*
X140441Y503723D01*
X140539Y503736D01*
X140639Y503746D01*
X140738Y503752D01*
X140838Y503754D01*
X144902Y503754D01*
X145002Y503752D01*
X145101Y503746D01*
X145201Y503736D01*
X145299Y503723D01*
X145398Y503705D01*
X145495Y503684D01*
X145591Y503659D01*
X145687Y503630D01*
X145781Y503597D01*
X145874Y503561D01*
X145965Y503521D01*
X146055Y503477D01*
X146143Y503430D01*
X146229Y503380D01*
X146313Y503326D01*
X146395Y503269D01*
X146474Y503209D01*
X146552Y503145D01*
X146626Y503079D01*
X146698Y503010D01*
X146767Y502938D01*
X146833Y502864D01*
X146897Y502786D01*
X146957Y502707D01*
X147014Y502625D01*
X147068Y502541D01*
X147118Y502455D01*
X147165Y502367D01*
X147209Y502277D01*
X147249Y502186D01*
X147285Y502093D01*
X147318Y501999D01*
X147347Y501903D01*
X147372Y501807D01*
X147393Y501710D01*
X147411Y501611D01*
X147424Y501513D01*
X147434Y501413D01*
X147440Y501314D01*
X147442Y501214D01*
X147440Y501114D01*
X147434Y501015D01*
X147424Y500915D01*
X147411Y500817D01*
X147393Y500718D01*
X147372Y500621D01*
X147347Y500525D01*
X147318Y500429D01*
X147285Y500335D01*
X147249Y500242D01*
X147209Y500151D01*
X147165Y500061D01*
X147118Y499973D01*
X147068Y499887D01*
X147014Y499803D01*
X146957Y499721D01*
X146897Y499642D01*
X146833Y499564D01*
X146767Y499490D01*
X146698Y499418D01*
X146626Y499349D01*
X146552Y499283D01*
X146474Y499219D01*
X146395Y499159D01*
X146313Y499102D01*
X146229Y499048D01*
X146143Y498998D01*
X146055Y498951D01*
X145965Y498907D01*
X145874Y498867D01*
X145781Y498831D01*
X145687Y498798D01*
X145591Y498769D01*
X145495Y498744D01*
X145398Y498723D01*
X145299Y498705D01*
X145201Y498692D01*
X145101Y498682D01*
X145002Y498676D01*
X144902Y498674D01*
X147442Y508123D02*
X138298Y508123D01*
X138298Y510663D01*
X138300Y510763D01*
X138306Y510862D01*
X138316Y510962D01*
X138329Y511060D01*
X138347Y511159D01*
X138368Y511256D01*
X138393Y511352D01*
X138422Y511448D01*
X138455Y511542D01*
X138491Y511635D01*
X138531Y511726D01*
X138575Y511816D01*
X138622Y511904D01*
X138672Y511990D01*
X138726Y512074D01*
X138783Y512156D01*
X138843Y512235D01*
X138907Y512313D01*
X138973Y512387D01*
X139042Y512459D01*
X139114Y512528D01*
X139188Y512594D01*
X139266Y512658D01*
X139345Y512718D01*
X139427Y512775D01*
X139511Y512829D01*
X139597Y512879D01*
X139685Y512926D01*
X139775Y512970D01*
X139866Y513010D01*
X139959Y513046D01*
X140053Y513079D01*
X140149Y513108D01*
X140245Y513133D01*
X140342Y513154D01*
X140441Y513172D01*
X140539Y513185D01*
X140639Y513195D01*
X140738Y513201D01*
X140838Y513203D01*
X144902Y513203D01*
X145002Y513201D01*
X145101Y513195D01*
X145201Y513185D01*
X145299Y513172D01*
X145398Y513154D01*
X145495Y513133D01*
X145591Y513108D01*
X145687Y513079D01*
X145781Y513046D01*
X145874Y513010D01*
X145965Y512970D01*
X146055Y512926D01*
X146143Y512879D01*
X146229Y512829D01*
X146313Y512775D01*
X146395Y512718D01*
X146474Y512658D01*
X146552Y512594D01*
X146626Y512528D01*
X146698Y512459D01*
X146767Y512387D01*
X146833Y512313D01*
X146897Y512235D01*
X146957Y512156D01*
X147014Y512074D01*
X147068Y511990D01*
X147118Y511904D01*
X147165Y511816D01*
X147209Y511726D01*
X147249Y511635D01*
X147285Y511542D01*
X147318Y511448D01*
X147347Y511352D01*
X147372Y511256D01*
X147393Y511159D01*
X147411Y511060D01*
X147424Y510962D01*
X147434Y510862D01*
X147440Y510763D01*
X147442Y510663D01*
X147442Y508123D01*
X147442Y517897D02*
X147442Y521961D01*
X147442Y517897D02*
X138298Y517897D01*
X138298Y521961D01*
X142362Y520945D02*
X142362Y517897D01*
D17*
X484425Y700000D02*
X541925Y700000D01*
X541925Y824000D01*
X484425Y824000D01*
X484425Y700000D01*
X485000Y800000D02*
X490000Y800000D01*
X490000Y723000D02*
X485000Y723000D01*
D10*
X487346Y829058D02*
X487435Y829060D01*
X487523Y829066D01*
X487611Y829075D01*
X487699Y829089D01*
X487786Y829106D01*
X487872Y829127D01*
X487957Y829152D01*
X488041Y829181D01*
X488124Y829213D01*
X488205Y829248D01*
X488284Y829288D01*
X488362Y829330D01*
X488438Y829376D01*
X488512Y829425D01*
X488583Y829478D01*
X488652Y829533D01*
X488719Y829592D01*
X488783Y829653D01*
X488844Y829717D01*
X488903Y829784D01*
X488958Y829853D01*
X489011Y829924D01*
X489060Y829998D01*
X489106Y830074D01*
X489148Y830152D01*
X489188Y830231D01*
X489223Y830312D01*
X489255Y830395D01*
X489284Y830479D01*
X489309Y830564D01*
X489330Y830650D01*
X489347Y830737D01*
X489361Y830825D01*
X489370Y830913D01*
X489376Y831001D01*
X489378Y831090D01*
X487346Y829058D02*
X487216Y829060D01*
X487085Y829066D01*
X486955Y829076D01*
X486826Y829090D01*
X486697Y829107D01*
X486568Y829129D01*
X486440Y829155D01*
X486313Y829184D01*
X486187Y829217D01*
X486062Y829254D01*
X485938Y829295D01*
X485816Y829340D01*
X485695Y829388D01*
X485575Y829440D01*
X485457Y829496D01*
X485341Y829555D01*
X485227Y829618D01*
X485114Y829684D01*
X485004Y829753D01*
X484896Y829826D01*
X484790Y829902D01*
X484686Y829981D01*
X484585Y830063D01*
X484487Y830149D01*
X484391Y830237D01*
X484298Y830328D01*
X484552Y836170D02*
X484554Y836259D01*
X484560Y836347D01*
X484569Y836435D01*
X484583Y836523D01*
X484600Y836610D01*
X484621Y836696D01*
X484646Y836781D01*
X484675Y836865D01*
X484707Y836948D01*
X484742Y837029D01*
X484782Y837108D01*
X484824Y837186D01*
X484870Y837262D01*
X484919Y837336D01*
X484972Y837407D01*
X485027Y837476D01*
X485086Y837543D01*
X485147Y837607D01*
X485211Y837668D01*
X485278Y837727D01*
X485347Y837782D01*
X485418Y837835D01*
X485492Y837884D01*
X485568Y837930D01*
X485646Y837972D01*
X485725Y838012D01*
X485806Y838047D01*
X485889Y838079D01*
X485973Y838108D01*
X486058Y838133D01*
X486144Y838154D01*
X486231Y838171D01*
X486319Y838185D01*
X486407Y838194D01*
X486495Y838200D01*
X486584Y838202D01*
X486707Y838200D01*
X486829Y838194D01*
X486951Y838184D01*
X487073Y838170D01*
X487194Y838153D01*
X487315Y838131D01*
X487435Y838106D01*
X487554Y838076D01*
X487672Y838043D01*
X487789Y838006D01*
X487904Y837966D01*
X488019Y837922D01*
X488132Y837874D01*
X488243Y837822D01*
X488352Y837767D01*
X488460Y837708D01*
X488566Y837646D01*
X488669Y837581D01*
X488771Y837512D01*
X488870Y837440D01*
X485568Y834392D02*
X485492Y834439D01*
X485418Y834489D01*
X485347Y834542D01*
X485278Y834599D01*
X485211Y834658D01*
X485147Y834720D01*
X485085Y834785D01*
X485027Y834853D01*
X484972Y834923D01*
X484919Y834995D01*
X484870Y835069D01*
X484824Y835146D01*
X484781Y835224D01*
X484742Y835305D01*
X484706Y835387D01*
X484674Y835470D01*
X484646Y835554D01*
X484621Y835640D01*
X484600Y835727D01*
X484583Y835815D01*
X484569Y835903D01*
X484560Y835992D01*
X484554Y836081D01*
X484552Y836170D01*
X488362Y832868D02*
X488438Y832821D01*
X488512Y832771D01*
X488583Y832718D01*
X488652Y832661D01*
X488719Y832602D01*
X488783Y832540D01*
X488845Y832475D01*
X488903Y832407D01*
X488958Y832337D01*
X489011Y832265D01*
X489060Y832191D01*
X489106Y832114D01*
X489149Y832036D01*
X489188Y831955D01*
X489224Y831873D01*
X489256Y831790D01*
X489284Y831706D01*
X489309Y831620D01*
X489330Y831533D01*
X489347Y831445D01*
X489361Y831357D01*
X489370Y831268D01*
X489376Y831179D01*
X489378Y831090D01*
X488362Y832868D02*
X485568Y834392D01*
X493462Y829058D02*
X497526Y829058D01*
X493462Y829058D02*
X493462Y838202D01*
X497526Y838202D01*
X496510Y834138D02*
X493462Y834138D01*
X501367Y838202D02*
X501367Y829058D01*
X506447Y829058D02*
X501367Y838202D01*
X506447Y838202D02*
X506447Y829058D01*
X513559Y829058D02*
X513648Y829060D01*
X513736Y829066D01*
X513824Y829075D01*
X513912Y829089D01*
X513999Y829106D01*
X514085Y829127D01*
X514170Y829152D01*
X514254Y829181D01*
X514337Y829213D01*
X514418Y829248D01*
X514497Y829288D01*
X514575Y829330D01*
X514651Y829376D01*
X514725Y829425D01*
X514796Y829478D01*
X514865Y829533D01*
X514932Y829592D01*
X514996Y829653D01*
X515057Y829717D01*
X515116Y829784D01*
X515171Y829853D01*
X515224Y829924D01*
X515273Y829998D01*
X515319Y830074D01*
X515361Y830152D01*
X515401Y830231D01*
X515436Y830312D01*
X515468Y830395D01*
X515497Y830479D01*
X515522Y830564D01*
X515543Y830650D01*
X515560Y830737D01*
X515574Y830825D01*
X515583Y830913D01*
X515589Y831001D01*
X515591Y831090D01*
X513559Y829058D02*
X513429Y829060D01*
X513298Y829066D01*
X513168Y829076D01*
X513039Y829090D01*
X512910Y829107D01*
X512781Y829129D01*
X512653Y829155D01*
X512526Y829184D01*
X512400Y829217D01*
X512275Y829254D01*
X512151Y829295D01*
X512029Y829340D01*
X511908Y829388D01*
X511788Y829440D01*
X511670Y829496D01*
X511554Y829555D01*
X511440Y829618D01*
X511327Y829684D01*
X511217Y829753D01*
X511109Y829826D01*
X511003Y829902D01*
X510899Y829981D01*
X510798Y830063D01*
X510700Y830149D01*
X510604Y830237D01*
X510511Y830328D01*
X510765Y836170D02*
X510767Y836259D01*
X510773Y836347D01*
X510782Y836435D01*
X510796Y836523D01*
X510813Y836610D01*
X510834Y836696D01*
X510859Y836781D01*
X510888Y836865D01*
X510920Y836948D01*
X510955Y837029D01*
X510995Y837108D01*
X511037Y837186D01*
X511083Y837262D01*
X511132Y837336D01*
X511185Y837407D01*
X511240Y837476D01*
X511299Y837543D01*
X511360Y837607D01*
X511424Y837668D01*
X511491Y837727D01*
X511560Y837782D01*
X511631Y837835D01*
X511705Y837884D01*
X511781Y837930D01*
X511859Y837972D01*
X511938Y838012D01*
X512019Y838047D01*
X512102Y838079D01*
X512186Y838108D01*
X512271Y838133D01*
X512357Y838154D01*
X512444Y838171D01*
X512532Y838185D01*
X512620Y838194D01*
X512708Y838200D01*
X512797Y838202D01*
X512920Y838200D01*
X513042Y838194D01*
X513164Y838184D01*
X513286Y838170D01*
X513407Y838153D01*
X513528Y838131D01*
X513648Y838106D01*
X513767Y838076D01*
X513885Y838043D01*
X514002Y838006D01*
X514117Y837966D01*
X514232Y837922D01*
X514345Y837874D01*
X514456Y837822D01*
X514565Y837767D01*
X514673Y837708D01*
X514779Y837646D01*
X514882Y837581D01*
X514984Y837512D01*
X515083Y837440D01*
X511780Y834392D02*
X511704Y834439D01*
X511630Y834489D01*
X511559Y834542D01*
X511490Y834599D01*
X511423Y834658D01*
X511359Y834720D01*
X511297Y834785D01*
X511239Y834853D01*
X511184Y834923D01*
X511131Y834995D01*
X511082Y835069D01*
X511036Y835146D01*
X510993Y835224D01*
X510954Y835305D01*
X510918Y835387D01*
X510886Y835470D01*
X510858Y835554D01*
X510833Y835640D01*
X510812Y835727D01*
X510795Y835815D01*
X510781Y835903D01*
X510772Y835992D01*
X510766Y836081D01*
X510764Y836170D01*
X514575Y832868D02*
X514651Y832821D01*
X514725Y832771D01*
X514796Y832718D01*
X514865Y832661D01*
X514932Y832602D01*
X514996Y832540D01*
X515058Y832475D01*
X515116Y832407D01*
X515171Y832337D01*
X515224Y832265D01*
X515273Y832191D01*
X515319Y832114D01*
X515362Y832036D01*
X515401Y831955D01*
X515437Y831873D01*
X515469Y831790D01*
X515497Y831706D01*
X515522Y831620D01*
X515543Y831533D01*
X515560Y831445D01*
X515574Y831357D01*
X515583Y831268D01*
X515589Y831179D01*
X515591Y831090D01*
X514575Y832868D02*
X511781Y834392D01*
X519350Y835662D02*
X519350Y831598D01*
X519350Y835662D02*
X519352Y835762D01*
X519358Y835861D01*
X519368Y835961D01*
X519381Y836059D01*
X519399Y836158D01*
X519420Y836255D01*
X519445Y836351D01*
X519474Y836447D01*
X519507Y836541D01*
X519543Y836634D01*
X519583Y836725D01*
X519627Y836815D01*
X519674Y836903D01*
X519724Y836989D01*
X519778Y837073D01*
X519835Y837155D01*
X519895Y837234D01*
X519959Y837312D01*
X520025Y837386D01*
X520094Y837458D01*
X520166Y837527D01*
X520240Y837593D01*
X520318Y837657D01*
X520397Y837717D01*
X520479Y837774D01*
X520563Y837828D01*
X520649Y837878D01*
X520737Y837925D01*
X520827Y837969D01*
X520918Y838009D01*
X521011Y838045D01*
X521105Y838078D01*
X521201Y838107D01*
X521297Y838132D01*
X521394Y838153D01*
X521493Y838171D01*
X521591Y838184D01*
X521691Y838194D01*
X521790Y838200D01*
X521890Y838202D01*
X521990Y838200D01*
X522089Y838194D01*
X522189Y838184D01*
X522287Y838171D01*
X522386Y838153D01*
X522483Y838132D01*
X522579Y838107D01*
X522675Y838078D01*
X522769Y838045D01*
X522862Y838009D01*
X522953Y837969D01*
X523043Y837925D01*
X523131Y837878D01*
X523217Y837828D01*
X523301Y837774D01*
X523383Y837717D01*
X523462Y837657D01*
X523540Y837593D01*
X523614Y837527D01*
X523686Y837458D01*
X523755Y837386D01*
X523821Y837312D01*
X523885Y837234D01*
X523945Y837155D01*
X524002Y837073D01*
X524056Y836989D01*
X524106Y836903D01*
X524153Y836815D01*
X524197Y836725D01*
X524237Y836634D01*
X524273Y836541D01*
X524306Y836447D01*
X524335Y836351D01*
X524360Y836255D01*
X524381Y836158D01*
X524399Y836059D01*
X524412Y835961D01*
X524422Y835861D01*
X524428Y835762D01*
X524430Y835662D01*
X524430Y831598D01*
X524428Y831498D01*
X524422Y831399D01*
X524412Y831299D01*
X524399Y831201D01*
X524381Y831102D01*
X524360Y831005D01*
X524335Y830909D01*
X524306Y830813D01*
X524273Y830719D01*
X524237Y830626D01*
X524197Y830535D01*
X524153Y830445D01*
X524106Y830357D01*
X524056Y830271D01*
X524002Y830187D01*
X523945Y830105D01*
X523885Y830026D01*
X523821Y829948D01*
X523755Y829874D01*
X523686Y829802D01*
X523614Y829733D01*
X523540Y829667D01*
X523462Y829603D01*
X523383Y829543D01*
X523301Y829486D01*
X523217Y829432D01*
X523131Y829382D01*
X523043Y829335D01*
X522953Y829291D01*
X522862Y829251D01*
X522769Y829215D01*
X522675Y829182D01*
X522579Y829153D01*
X522483Y829128D01*
X522386Y829107D01*
X522287Y829089D01*
X522189Y829076D01*
X522089Y829066D01*
X521990Y829060D01*
X521890Y829058D01*
X521790Y829060D01*
X521691Y829066D01*
X521591Y829076D01*
X521493Y829089D01*
X521394Y829107D01*
X521297Y829128D01*
X521201Y829153D01*
X521105Y829182D01*
X521011Y829215D01*
X520918Y829251D01*
X520827Y829291D01*
X520737Y829335D01*
X520649Y829382D01*
X520563Y829432D01*
X520479Y829486D01*
X520397Y829543D01*
X520318Y829603D01*
X520240Y829667D01*
X520166Y829733D01*
X520094Y829802D01*
X520025Y829874D01*
X519959Y829948D01*
X519895Y830026D01*
X519835Y830105D01*
X519778Y830187D01*
X519724Y830271D01*
X519674Y830357D01*
X519627Y830445D01*
X519583Y830535D01*
X519543Y830626D01*
X519507Y830719D01*
X519474Y830813D01*
X519445Y830909D01*
X519420Y831005D01*
X519399Y831102D01*
X519381Y831201D01*
X519368Y831299D01*
X519358Y831399D01*
X519352Y831498D01*
X519350Y831598D01*
X528865Y829058D02*
X528865Y838202D01*
X531405Y838202D01*
X531505Y838200D01*
X531604Y838194D01*
X531704Y838184D01*
X531802Y838171D01*
X531901Y838153D01*
X531998Y838132D01*
X532094Y838107D01*
X532190Y838078D01*
X532284Y838045D01*
X532377Y838009D01*
X532468Y837969D01*
X532558Y837925D01*
X532646Y837878D01*
X532732Y837828D01*
X532816Y837774D01*
X532898Y837717D01*
X532977Y837657D01*
X533055Y837593D01*
X533129Y837527D01*
X533201Y837458D01*
X533270Y837386D01*
X533336Y837312D01*
X533400Y837234D01*
X533460Y837155D01*
X533517Y837073D01*
X533571Y836989D01*
X533621Y836903D01*
X533668Y836815D01*
X533712Y836725D01*
X533752Y836634D01*
X533788Y836541D01*
X533821Y836447D01*
X533850Y836351D01*
X533875Y836255D01*
X533896Y836158D01*
X533914Y836059D01*
X533927Y835961D01*
X533937Y835861D01*
X533943Y835762D01*
X533945Y835662D01*
X533943Y835562D01*
X533937Y835463D01*
X533927Y835363D01*
X533914Y835265D01*
X533896Y835166D01*
X533875Y835069D01*
X533850Y834973D01*
X533821Y834877D01*
X533788Y834783D01*
X533752Y834690D01*
X533712Y834599D01*
X533668Y834509D01*
X533621Y834421D01*
X533571Y834335D01*
X533517Y834251D01*
X533460Y834169D01*
X533400Y834090D01*
X533336Y834012D01*
X533270Y833938D01*
X533201Y833866D01*
X533129Y833797D01*
X533055Y833731D01*
X532977Y833667D01*
X532898Y833607D01*
X532816Y833550D01*
X532732Y833496D01*
X532646Y833446D01*
X532558Y833399D01*
X532468Y833355D01*
X532377Y833315D01*
X532284Y833279D01*
X532190Y833246D01*
X532094Y833217D01*
X531998Y833192D01*
X531901Y833171D01*
X531802Y833153D01*
X531704Y833140D01*
X531604Y833130D01*
X531505Y833124D01*
X531405Y833122D01*
X528865Y833122D01*
X531913Y833122D02*
X533945Y829058D01*
M02*
