G04 EAGLE Gerber RS-274X export*
G75*
%MOMM*%
%FSLAX34Y34*%
%LPD*%
%INSilkscreen Top*%
%IPPOS*%
%AMOC8*
5,1,8,0,0,1.08239X$1,22.5*%
G01*
%ADD10C,0.101600*%
%ADD11C,0.050800*%
%ADD12C,0.152400*%
%ADD13C,0.127000*%
%ADD14R,0.555000X0.600000*%
%ADD15C,0.076200*%
%ADD16R,0.600000X0.555000*%
%ADD17C,0.254000*%
%ADD18C,0.200000*%


D10*
X434848Y20828D02*
X446532Y24723D01*
X434848Y28617D01*
X446532Y34742D02*
X446532Y37987D01*
X446532Y34742D02*
X446530Y34655D01*
X446524Y34567D01*
X446514Y34481D01*
X446501Y34394D01*
X446483Y34309D01*
X446462Y34224D01*
X446437Y34140D01*
X446408Y34058D01*
X446375Y33977D01*
X446339Y33897D01*
X446300Y33819D01*
X446256Y33743D01*
X446210Y33669D01*
X446160Y33598D01*
X446107Y33528D01*
X446051Y33461D01*
X445992Y33397D01*
X445930Y33335D01*
X445866Y33276D01*
X445799Y33220D01*
X445729Y33167D01*
X445658Y33117D01*
X445584Y33071D01*
X445508Y33027D01*
X445430Y32988D01*
X445350Y32952D01*
X445269Y32919D01*
X445187Y32890D01*
X445103Y32865D01*
X445018Y32844D01*
X444933Y32826D01*
X444846Y32813D01*
X444760Y32803D01*
X444672Y32797D01*
X444585Y32795D01*
X444585Y32794D02*
X441339Y32794D01*
X441339Y32795D02*
X441238Y32797D01*
X441138Y32803D01*
X441038Y32813D01*
X440938Y32826D01*
X440839Y32844D01*
X440740Y32865D01*
X440643Y32890D01*
X440546Y32919D01*
X440451Y32952D01*
X440357Y32988D01*
X440265Y33028D01*
X440174Y33071D01*
X440085Y33118D01*
X439998Y33168D01*
X439912Y33222D01*
X439829Y33279D01*
X439749Y33339D01*
X439670Y33402D01*
X439594Y33469D01*
X439521Y33538D01*
X439451Y33610D01*
X439383Y33684D01*
X439318Y33761D01*
X439257Y33841D01*
X439198Y33923D01*
X439143Y34007D01*
X439091Y34093D01*
X439042Y34181D01*
X438997Y34271D01*
X438955Y34363D01*
X438917Y34456D01*
X438883Y34551D01*
X438852Y34646D01*
X438825Y34743D01*
X438802Y34841D01*
X438782Y34940D01*
X438767Y35040D01*
X438755Y35140D01*
X438747Y35240D01*
X438743Y35341D01*
X438743Y35441D01*
X438747Y35542D01*
X438755Y35642D01*
X438767Y35742D01*
X438782Y35842D01*
X438802Y35941D01*
X438825Y36039D01*
X438852Y36136D01*
X438883Y36231D01*
X438917Y36326D01*
X438955Y36419D01*
X438997Y36511D01*
X439042Y36601D01*
X439091Y36689D01*
X439143Y36775D01*
X439198Y36859D01*
X439257Y36941D01*
X439318Y37021D01*
X439383Y37098D01*
X439451Y37172D01*
X439521Y37244D01*
X439594Y37313D01*
X439670Y37380D01*
X439749Y37443D01*
X439829Y37503D01*
X439912Y37560D01*
X439998Y37614D01*
X440085Y37664D01*
X440174Y37711D01*
X440265Y37754D01*
X440357Y37794D01*
X440451Y37830D01*
X440546Y37863D01*
X440643Y37892D01*
X440740Y37917D01*
X440839Y37938D01*
X440938Y37956D01*
X441038Y37969D01*
X441138Y37979D01*
X441238Y37985D01*
X441339Y37987D01*
X442637Y37987D01*
X442637Y32794D01*
X441988Y43674D02*
X443286Y46919D01*
X441989Y43674D02*
X441956Y43599D01*
X441920Y43525D01*
X441881Y43453D01*
X441838Y43383D01*
X441792Y43316D01*
X441742Y43250D01*
X441690Y43188D01*
X441634Y43127D01*
X441576Y43070D01*
X441515Y43015D01*
X441451Y42964D01*
X441385Y42916D01*
X441316Y42871D01*
X441246Y42829D01*
X441173Y42791D01*
X441099Y42756D01*
X441023Y42725D01*
X440946Y42698D01*
X440867Y42675D01*
X440788Y42655D01*
X440707Y42640D01*
X440626Y42628D01*
X440544Y42620D01*
X440463Y42616D01*
X440381Y42617D01*
X440299Y42621D01*
X440217Y42629D01*
X440136Y42641D01*
X440056Y42657D01*
X439976Y42677D01*
X439898Y42701D01*
X439821Y42729D01*
X439745Y42760D01*
X439671Y42795D01*
X439599Y42833D01*
X439528Y42875D01*
X439460Y42921D01*
X439394Y42969D01*
X439331Y43021D01*
X439270Y43076D01*
X439212Y43134D01*
X439156Y43194D01*
X439104Y43257D01*
X439055Y43323D01*
X439009Y43391D01*
X438967Y43461D01*
X438927Y43533D01*
X438892Y43607D01*
X438860Y43682D01*
X438832Y43759D01*
X438808Y43837D01*
X438787Y43917D01*
X438770Y43997D01*
X438758Y44078D01*
X438749Y44159D01*
X438744Y44241D01*
X438743Y44323D01*
X438747Y44500D01*
X438756Y44677D01*
X438770Y44854D01*
X438787Y45031D01*
X438809Y45206D01*
X438834Y45382D01*
X438865Y45556D01*
X438899Y45730D01*
X438937Y45903D01*
X438980Y46075D01*
X439027Y46246D01*
X439077Y46416D01*
X439132Y46585D01*
X439191Y46752D01*
X439254Y46918D01*
X439321Y47082D01*
X439392Y47244D01*
X443286Y46919D02*
X443319Y46994D01*
X443355Y47068D01*
X443394Y47140D01*
X443437Y47210D01*
X443483Y47277D01*
X443533Y47343D01*
X443585Y47405D01*
X443641Y47466D01*
X443699Y47523D01*
X443760Y47578D01*
X443824Y47629D01*
X443890Y47677D01*
X443959Y47722D01*
X444029Y47764D01*
X444102Y47802D01*
X444176Y47837D01*
X444252Y47868D01*
X444329Y47895D01*
X444408Y47918D01*
X444488Y47938D01*
X444568Y47953D01*
X444649Y47965D01*
X444731Y47973D01*
X444812Y47977D01*
X444894Y47976D01*
X444976Y47972D01*
X445058Y47964D01*
X445139Y47952D01*
X445219Y47936D01*
X445299Y47916D01*
X445377Y47892D01*
X445454Y47864D01*
X445530Y47833D01*
X445604Y47798D01*
X445676Y47760D01*
X445747Y47718D01*
X445815Y47672D01*
X445881Y47624D01*
X445944Y47572D01*
X446005Y47517D01*
X446063Y47459D01*
X446119Y47399D01*
X446171Y47336D01*
X446220Y47270D01*
X446266Y47202D01*
X446308Y47132D01*
X446348Y47060D01*
X446383Y46986D01*
X446415Y46911D01*
X446443Y46834D01*
X446467Y46756D01*
X446488Y46676D01*
X446505Y46596D01*
X446517Y46515D01*
X446526Y46434D01*
X446531Y46352D01*
X446532Y46270D01*
X446532Y46271D02*
X446525Y46011D01*
X446512Y45751D01*
X446493Y45491D01*
X446468Y45232D01*
X446436Y44973D01*
X446399Y44716D01*
X446355Y44459D01*
X446306Y44203D01*
X446250Y43949D01*
X446189Y43696D01*
X446121Y43445D01*
X446047Y43195D01*
X445968Y42947D01*
X445883Y42701D01*
X438743Y51639D02*
X438743Y55534D01*
X434848Y52937D02*
X444585Y52937D01*
X444672Y52939D01*
X444760Y52945D01*
X444846Y52955D01*
X444933Y52968D01*
X445018Y52986D01*
X445103Y53007D01*
X445187Y53032D01*
X445269Y53061D01*
X445350Y53094D01*
X445430Y53130D01*
X445508Y53169D01*
X445584Y53213D01*
X445658Y53259D01*
X445729Y53309D01*
X445799Y53362D01*
X445866Y53418D01*
X445930Y53477D01*
X445992Y53539D01*
X446051Y53603D01*
X446107Y53670D01*
X446160Y53740D01*
X446210Y53811D01*
X446256Y53885D01*
X446300Y53961D01*
X446339Y54039D01*
X446375Y54119D01*
X446408Y54200D01*
X446437Y54282D01*
X446462Y54366D01*
X446483Y54451D01*
X446501Y54536D01*
X446514Y54623D01*
X446524Y54709D01*
X446530Y54797D01*
X446532Y54884D01*
X446532Y55534D01*
X446532Y60293D02*
X438743Y60293D01*
X438743Y64187D01*
X440041Y64187D01*
X441339Y67846D02*
X443936Y67846D01*
X441339Y67847D02*
X441238Y67849D01*
X441138Y67855D01*
X441038Y67865D01*
X440938Y67878D01*
X440839Y67896D01*
X440740Y67917D01*
X440643Y67942D01*
X440546Y67971D01*
X440451Y68004D01*
X440357Y68040D01*
X440265Y68080D01*
X440174Y68123D01*
X440085Y68170D01*
X439998Y68220D01*
X439912Y68274D01*
X439829Y68331D01*
X439749Y68391D01*
X439670Y68454D01*
X439594Y68521D01*
X439521Y68590D01*
X439451Y68662D01*
X439383Y68736D01*
X439318Y68813D01*
X439257Y68893D01*
X439198Y68975D01*
X439143Y69059D01*
X439091Y69145D01*
X439042Y69233D01*
X438997Y69323D01*
X438955Y69415D01*
X438917Y69508D01*
X438883Y69603D01*
X438852Y69698D01*
X438825Y69795D01*
X438802Y69893D01*
X438782Y69992D01*
X438767Y70092D01*
X438755Y70192D01*
X438747Y70292D01*
X438743Y70393D01*
X438743Y70493D01*
X438747Y70594D01*
X438755Y70694D01*
X438767Y70794D01*
X438782Y70894D01*
X438802Y70993D01*
X438825Y71091D01*
X438852Y71188D01*
X438883Y71283D01*
X438917Y71378D01*
X438955Y71471D01*
X438997Y71563D01*
X439042Y71653D01*
X439091Y71741D01*
X439143Y71827D01*
X439198Y71911D01*
X439257Y71993D01*
X439318Y72073D01*
X439383Y72150D01*
X439451Y72224D01*
X439521Y72296D01*
X439594Y72365D01*
X439670Y72432D01*
X439749Y72495D01*
X439829Y72555D01*
X439912Y72612D01*
X439998Y72666D01*
X440085Y72716D01*
X440174Y72763D01*
X440265Y72806D01*
X440357Y72846D01*
X440451Y72882D01*
X440546Y72915D01*
X440643Y72944D01*
X440740Y72969D01*
X440839Y72990D01*
X440938Y73008D01*
X441038Y73021D01*
X441138Y73031D01*
X441238Y73037D01*
X441339Y73039D01*
X443936Y73039D01*
X444037Y73037D01*
X444137Y73031D01*
X444237Y73021D01*
X444337Y73008D01*
X444436Y72990D01*
X444535Y72969D01*
X444632Y72944D01*
X444729Y72915D01*
X444824Y72882D01*
X444918Y72846D01*
X445010Y72806D01*
X445101Y72763D01*
X445190Y72716D01*
X445277Y72666D01*
X445363Y72612D01*
X445446Y72555D01*
X445526Y72495D01*
X445605Y72432D01*
X445681Y72365D01*
X445754Y72296D01*
X445824Y72224D01*
X445892Y72150D01*
X445957Y72073D01*
X446018Y71993D01*
X446077Y71911D01*
X446132Y71827D01*
X446184Y71741D01*
X446233Y71653D01*
X446278Y71563D01*
X446320Y71471D01*
X446358Y71378D01*
X446392Y71283D01*
X446423Y71188D01*
X446450Y71091D01*
X446473Y70993D01*
X446493Y70894D01*
X446508Y70794D01*
X446520Y70694D01*
X446528Y70594D01*
X446532Y70493D01*
X446532Y70393D01*
X446528Y70292D01*
X446520Y70192D01*
X446508Y70092D01*
X446493Y69992D01*
X446473Y69893D01*
X446450Y69795D01*
X446423Y69698D01*
X446392Y69603D01*
X446358Y69508D01*
X446320Y69415D01*
X446278Y69323D01*
X446233Y69233D01*
X446184Y69145D01*
X446132Y69059D01*
X446077Y68975D01*
X446018Y68893D01*
X445957Y68813D01*
X445892Y68736D01*
X445824Y68662D01*
X445754Y68590D01*
X445681Y68521D01*
X445605Y68454D01*
X445526Y68391D01*
X445446Y68331D01*
X445363Y68274D01*
X445277Y68220D01*
X445190Y68170D01*
X445101Y68123D01*
X445010Y68080D01*
X444918Y68040D01*
X444824Y68004D01*
X444729Y67971D01*
X444632Y67942D01*
X444535Y67917D01*
X444436Y67896D01*
X444337Y67878D01*
X444237Y67865D01*
X444137Y67855D01*
X444037Y67849D01*
X443936Y67847D01*
X446532Y78133D02*
X438743Y78133D01*
X438743Y81379D01*
X438745Y81466D01*
X438751Y81554D01*
X438761Y81640D01*
X438774Y81727D01*
X438792Y81812D01*
X438813Y81897D01*
X438838Y81981D01*
X438867Y82063D01*
X438900Y82144D01*
X438936Y82224D01*
X438975Y82302D01*
X439019Y82378D01*
X439065Y82452D01*
X439115Y82523D01*
X439168Y82593D01*
X439224Y82660D01*
X439283Y82724D01*
X439344Y82786D01*
X439409Y82845D01*
X439476Y82901D01*
X439546Y82954D01*
X439617Y83004D01*
X439691Y83050D01*
X439767Y83094D01*
X439845Y83133D01*
X439925Y83169D01*
X440006Y83202D01*
X440088Y83231D01*
X440172Y83256D01*
X440257Y83277D01*
X440342Y83295D01*
X440429Y83308D01*
X440515Y83318D01*
X440603Y83324D01*
X440690Y83326D01*
X446532Y83326D01*
X446532Y90309D02*
X446532Y93554D01*
X446532Y90309D02*
X446530Y90222D01*
X446524Y90134D01*
X446514Y90048D01*
X446501Y89961D01*
X446483Y89876D01*
X446462Y89791D01*
X446437Y89707D01*
X446408Y89625D01*
X446375Y89544D01*
X446339Y89464D01*
X446300Y89386D01*
X446256Y89310D01*
X446210Y89236D01*
X446160Y89165D01*
X446107Y89095D01*
X446051Y89028D01*
X445992Y88964D01*
X445930Y88902D01*
X445866Y88843D01*
X445799Y88787D01*
X445729Y88734D01*
X445658Y88684D01*
X445584Y88638D01*
X445508Y88594D01*
X445430Y88555D01*
X445350Y88519D01*
X445269Y88486D01*
X445187Y88457D01*
X445103Y88432D01*
X445018Y88411D01*
X444933Y88393D01*
X444846Y88380D01*
X444760Y88370D01*
X444672Y88364D01*
X444585Y88362D01*
X444585Y88361D02*
X440690Y88361D01*
X440690Y88362D02*
X440603Y88364D01*
X440515Y88370D01*
X440429Y88380D01*
X440342Y88393D01*
X440257Y88411D01*
X440172Y88432D01*
X440088Y88457D01*
X440006Y88486D01*
X439925Y88519D01*
X439845Y88555D01*
X439767Y88594D01*
X439691Y88638D01*
X439617Y88684D01*
X439546Y88734D01*
X439476Y88787D01*
X439409Y88843D01*
X439345Y88902D01*
X439283Y88964D01*
X439224Y89028D01*
X439168Y89095D01*
X439115Y89165D01*
X439065Y89236D01*
X439019Y89310D01*
X438975Y89386D01*
X438936Y89464D01*
X438900Y89544D01*
X438867Y89625D01*
X438838Y89707D01*
X438813Y89791D01*
X438792Y89876D01*
X438774Y89961D01*
X438761Y90048D01*
X438751Y90134D01*
X438745Y90222D01*
X438743Y90309D01*
X438743Y93554D01*
X448479Y93554D01*
X448566Y93552D01*
X448654Y93546D01*
X448740Y93536D01*
X448827Y93523D01*
X448912Y93505D01*
X448997Y93484D01*
X449081Y93459D01*
X449163Y93430D01*
X449244Y93397D01*
X449324Y93361D01*
X449402Y93322D01*
X449478Y93278D01*
X449552Y93232D01*
X449623Y93182D01*
X449693Y93129D01*
X449760Y93073D01*
X449824Y93014D01*
X449886Y92952D01*
X449945Y92888D01*
X450001Y92821D01*
X450054Y92751D01*
X450104Y92680D01*
X450150Y92606D01*
X450194Y92530D01*
X450233Y92452D01*
X450269Y92372D01*
X450302Y92291D01*
X450331Y92209D01*
X450356Y92125D01*
X450377Y92040D01*
X450395Y91955D01*
X450408Y91868D01*
X450418Y91782D01*
X450424Y91694D01*
X450426Y91607D01*
X450427Y91607D02*
X450427Y89010D01*
X446532Y108430D02*
X446530Y108529D01*
X446524Y108629D01*
X446515Y108728D01*
X446502Y108826D01*
X446485Y108924D01*
X446464Y109022D01*
X446439Y109118D01*
X446411Y109213D01*
X446379Y109307D01*
X446344Y109400D01*
X446305Y109492D01*
X446262Y109582D01*
X446217Y109670D01*
X446167Y109757D01*
X446115Y109841D01*
X446059Y109924D01*
X446001Y110004D01*
X445939Y110082D01*
X445874Y110157D01*
X445806Y110230D01*
X445736Y110300D01*
X445663Y110368D01*
X445588Y110433D01*
X445510Y110495D01*
X445430Y110553D01*
X445347Y110609D01*
X445263Y110661D01*
X445176Y110711D01*
X445088Y110756D01*
X444998Y110799D01*
X444906Y110838D01*
X444813Y110873D01*
X444719Y110905D01*
X444624Y110933D01*
X444528Y110958D01*
X444430Y110979D01*
X444332Y110996D01*
X444234Y111009D01*
X444135Y111018D01*
X444035Y111024D01*
X443936Y111026D01*
X446532Y108430D02*
X446530Y108286D01*
X446524Y108141D01*
X446515Y107997D01*
X446502Y107854D01*
X446485Y107710D01*
X446464Y107567D01*
X446439Y107425D01*
X446411Y107284D01*
X446379Y107143D01*
X446343Y107003D01*
X446304Y106864D01*
X446261Y106726D01*
X446214Y106590D01*
X446164Y106454D01*
X446110Y106320D01*
X446053Y106188D01*
X445992Y106057D01*
X445928Y105928D01*
X445860Y105800D01*
X445790Y105674D01*
X445715Y105550D01*
X445638Y105429D01*
X445557Y105309D01*
X445474Y105191D01*
X445387Y105076D01*
X445297Y104963D01*
X445204Y104852D01*
X445109Y104744D01*
X445010Y104638D01*
X444909Y104535D01*
X437444Y104860D02*
X437345Y104862D01*
X437245Y104868D01*
X437146Y104877D01*
X437048Y104890D01*
X436950Y104907D01*
X436852Y104928D01*
X436756Y104953D01*
X436661Y104981D01*
X436567Y105013D01*
X436474Y105048D01*
X436382Y105087D01*
X436292Y105130D01*
X436204Y105175D01*
X436117Y105225D01*
X436033Y105277D01*
X435950Y105333D01*
X435870Y105391D01*
X435792Y105453D01*
X435717Y105518D01*
X435644Y105586D01*
X435574Y105656D01*
X435506Y105729D01*
X435441Y105804D01*
X435379Y105882D01*
X435321Y105962D01*
X435265Y106045D01*
X435213Y106129D01*
X435163Y106216D01*
X435118Y106304D01*
X435075Y106394D01*
X435036Y106486D01*
X435001Y106579D01*
X434969Y106673D01*
X434941Y106768D01*
X434916Y106864D01*
X434895Y106962D01*
X434878Y107060D01*
X434865Y107158D01*
X434856Y107257D01*
X434850Y107357D01*
X434848Y107456D01*
X434850Y107592D01*
X434856Y107728D01*
X434865Y107864D01*
X434878Y108000D01*
X434896Y108135D01*
X434916Y108269D01*
X434941Y108403D01*
X434969Y108537D01*
X435002Y108669D01*
X435037Y108800D01*
X435077Y108931D01*
X435120Y109060D01*
X435166Y109188D01*
X435217Y109314D01*
X435270Y109440D01*
X435328Y109563D01*
X435388Y109685D01*
X435452Y109805D01*
X435520Y109924D01*
X435590Y110040D01*
X435664Y110154D01*
X435741Y110267D01*
X435822Y110377D01*
X439716Y106158D02*
X439663Y106072D01*
X439606Y105988D01*
X439547Y105906D01*
X439484Y105826D01*
X439418Y105749D01*
X439350Y105674D01*
X439278Y105602D01*
X439204Y105533D01*
X439127Y105467D01*
X439048Y105404D01*
X438966Y105344D01*
X438882Y105287D01*
X438796Y105233D01*
X438708Y105183D01*
X438618Y105136D01*
X438527Y105092D01*
X438433Y105053D01*
X438339Y105016D01*
X438243Y104984D01*
X438145Y104955D01*
X438047Y104930D01*
X437948Y104909D01*
X437848Y104891D01*
X437748Y104878D01*
X437647Y104868D01*
X437545Y104862D01*
X437444Y104860D01*
X441664Y109728D02*
X441717Y109814D01*
X441774Y109898D01*
X441833Y109980D01*
X441896Y110060D01*
X441962Y110137D01*
X442030Y110212D01*
X442102Y110284D01*
X442176Y110353D01*
X442253Y110419D01*
X442332Y110482D01*
X442414Y110542D01*
X442498Y110599D01*
X442584Y110653D01*
X442672Y110703D01*
X442762Y110750D01*
X442853Y110794D01*
X442947Y110833D01*
X443041Y110870D01*
X443137Y110902D01*
X443235Y110931D01*
X443333Y110956D01*
X443432Y110977D01*
X443532Y110995D01*
X443632Y111008D01*
X443733Y111018D01*
X443835Y111024D01*
X443936Y111026D01*
X441664Y109728D02*
X439716Y106158D01*
X446532Y117418D02*
X446532Y120664D01*
X446532Y117418D02*
X446530Y117331D01*
X446524Y117243D01*
X446514Y117157D01*
X446501Y117070D01*
X446483Y116985D01*
X446462Y116900D01*
X446437Y116816D01*
X446408Y116734D01*
X446375Y116653D01*
X446339Y116573D01*
X446300Y116495D01*
X446256Y116419D01*
X446210Y116345D01*
X446160Y116274D01*
X446107Y116204D01*
X446051Y116137D01*
X445992Y116073D01*
X445930Y116011D01*
X445866Y115952D01*
X445799Y115896D01*
X445729Y115843D01*
X445658Y115793D01*
X445584Y115747D01*
X445508Y115703D01*
X445430Y115664D01*
X445350Y115628D01*
X445269Y115595D01*
X445187Y115566D01*
X445103Y115541D01*
X445018Y115520D01*
X444933Y115502D01*
X444846Y115489D01*
X444760Y115479D01*
X444672Y115473D01*
X444585Y115471D01*
X441339Y115471D01*
X441339Y115472D02*
X441238Y115474D01*
X441138Y115480D01*
X441038Y115490D01*
X440938Y115503D01*
X440839Y115521D01*
X440740Y115542D01*
X440643Y115567D01*
X440546Y115596D01*
X440451Y115629D01*
X440357Y115665D01*
X440265Y115705D01*
X440174Y115748D01*
X440085Y115795D01*
X439998Y115845D01*
X439912Y115899D01*
X439829Y115956D01*
X439749Y116016D01*
X439670Y116079D01*
X439594Y116146D01*
X439521Y116215D01*
X439451Y116287D01*
X439383Y116361D01*
X439318Y116438D01*
X439257Y116518D01*
X439198Y116600D01*
X439143Y116684D01*
X439091Y116770D01*
X439042Y116858D01*
X438997Y116948D01*
X438955Y117040D01*
X438917Y117133D01*
X438883Y117228D01*
X438852Y117323D01*
X438825Y117420D01*
X438802Y117518D01*
X438782Y117617D01*
X438767Y117717D01*
X438755Y117817D01*
X438747Y117917D01*
X438743Y118018D01*
X438743Y118118D01*
X438747Y118219D01*
X438755Y118319D01*
X438767Y118419D01*
X438782Y118519D01*
X438802Y118618D01*
X438825Y118716D01*
X438852Y118813D01*
X438883Y118908D01*
X438917Y119003D01*
X438955Y119096D01*
X438997Y119188D01*
X439042Y119278D01*
X439091Y119366D01*
X439143Y119452D01*
X439198Y119536D01*
X439257Y119618D01*
X439318Y119698D01*
X439383Y119775D01*
X439451Y119849D01*
X439521Y119921D01*
X439594Y119990D01*
X439670Y120057D01*
X439749Y120120D01*
X439829Y120180D01*
X439912Y120237D01*
X439998Y120291D01*
X440085Y120341D01*
X440174Y120388D01*
X440265Y120431D01*
X440357Y120471D01*
X440451Y120507D01*
X440546Y120540D01*
X440643Y120569D01*
X440740Y120594D01*
X440839Y120615D01*
X440938Y120633D01*
X441038Y120646D01*
X441138Y120656D01*
X441238Y120662D01*
X441339Y120664D01*
X442637Y120664D01*
X442637Y115471D01*
X446532Y125758D02*
X438743Y125758D01*
X438743Y129004D01*
X438745Y129091D01*
X438751Y129179D01*
X438761Y129265D01*
X438774Y129352D01*
X438792Y129437D01*
X438813Y129522D01*
X438838Y129606D01*
X438867Y129688D01*
X438900Y129769D01*
X438936Y129849D01*
X438975Y129927D01*
X439019Y130003D01*
X439065Y130077D01*
X439115Y130148D01*
X439168Y130218D01*
X439224Y130285D01*
X439283Y130349D01*
X439344Y130411D01*
X439409Y130470D01*
X439476Y130526D01*
X439546Y130579D01*
X439617Y130629D01*
X439691Y130675D01*
X439767Y130719D01*
X439845Y130758D01*
X439925Y130794D01*
X440006Y130827D01*
X440088Y130856D01*
X440172Y130881D01*
X440257Y130902D01*
X440342Y130920D01*
X440429Y130933D01*
X440515Y130943D01*
X440603Y130949D01*
X440690Y130951D01*
X446532Y130951D01*
X441988Y137019D02*
X443286Y140264D01*
X441989Y137019D02*
X441956Y136944D01*
X441920Y136870D01*
X441881Y136798D01*
X441838Y136728D01*
X441792Y136661D01*
X441742Y136595D01*
X441690Y136533D01*
X441634Y136472D01*
X441576Y136415D01*
X441515Y136360D01*
X441451Y136309D01*
X441385Y136261D01*
X441316Y136216D01*
X441246Y136174D01*
X441173Y136136D01*
X441099Y136101D01*
X441023Y136070D01*
X440946Y136043D01*
X440867Y136020D01*
X440788Y136000D01*
X440707Y135985D01*
X440626Y135973D01*
X440544Y135965D01*
X440463Y135961D01*
X440381Y135962D01*
X440299Y135966D01*
X440217Y135974D01*
X440136Y135986D01*
X440056Y136002D01*
X439976Y136022D01*
X439898Y136046D01*
X439821Y136074D01*
X439745Y136105D01*
X439671Y136140D01*
X439599Y136178D01*
X439528Y136220D01*
X439460Y136266D01*
X439394Y136314D01*
X439331Y136366D01*
X439270Y136421D01*
X439212Y136479D01*
X439156Y136539D01*
X439104Y136602D01*
X439055Y136668D01*
X439009Y136736D01*
X438967Y136806D01*
X438927Y136878D01*
X438892Y136952D01*
X438860Y137027D01*
X438832Y137104D01*
X438808Y137182D01*
X438787Y137262D01*
X438770Y137342D01*
X438758Y137423D01*
X438749Y137504D01*
X438744Y137586D01*
X438743Y137668D01*
X438747Y137845D01*
X438756Y138022D01*
X438770Y138199D01*
X438787Y138376D01*
X438809Y138551D01*
X438834Y138727D01*
X438865Y138901D01*
X438899Y139075D01*
X438937Y139248D01*
X438980Y139420D01*
X439027Y139591D01*
X439077Y139761D01*
X439132Y139930D01*
X439191Y140097D01*
X439254Y140263D01*
X439321Y140427D01*
X439392Y140589D01*
X443286Y140264D02*
X443319Y140339D01*
X443355Y140413D01*
X443394Y140485D01*
X443437Y140555D01*
X443483Y140622D01*
X443533Y140688D01*
X443585Y140750D01*
X443641Y140811D01*
X443699Y140868D01*
X443760Y140923D01*
X443824Y140974D01*
X443890Y141022D01*
X443959Y141067D01*
X444029Y141109D01*
X444102Y141147D01*
X444176Y141182D01*
X444252Y141213D01*
X444329Y141240D01*
X444408Y141263D01*
X444488Y141283D01*
X444568Y141298D01*
X444649Y141310D01*
X444731Y141318D01*
X444812Y141322D01*
X444894Y141321D01*
X444976Y141317D01*
X445058Y141309D01*
X445139Y141297D01*
X445219Y141281D01*
X445299Y141261D01*
X445377Y141237D01*
X445454Y141209D01*
X445530Y141178D01*
X445604Y141143D01*
X445676Y141105D01*
X445747Y141063D01*
X445815Y141017D01*
X445881Y140969D01*
X445944Y140917D01*
X446005Y140862D01*
X446063Y140804D01*
X446119Y140744D01*
X446171Y140681D01*
X446220Y140615D01*
X446266Y140547D01*
X446308Y140477D01*
X446348Y140405D01*
X446383Y140331D01*
X446415Y140256D01*
X446443Y140179D01*
X446467Y140101D01*
X446488Y140021D01*
X446505Y139941D01*
X446517Y139860D01*
X446526Y139779D01*
X446531Y139697D01*
X446532Y139615D01*
X446525Y139355D01*
X446512Y139095D01*
X446493Y138835D01*
X446468Y138576D01*
X446436Y138317D01*
X446399Y138060D01*
X446355Y137803D01*
X446306Y137547D01*
X446250Y137293D01*
X446189Y137040D01*
X446121Y136789D01*
X446047Y136539D01*
X445968Y136291D01*
X445883Y136045D01*
X443936Y145951D02*
X441339Y145951D01*
X441339Y145952D02*
X441238Y145954D01*
X441138Y145960D01*
X441038Y145970D01*
X440938Y145983D01*
X440839Y146001D01*
X440740Y146022D01*
X440643Y146047D01*
X440546Y146076D01*
X440451Y146109D01*
X440357Y146145D01*
X440265Y146185D01*
X440174Y146228D01*
X440085Y146275D01*
X439998Y146325D01*
X439912Y146379D01*
X439829Y146436D01*
X439749Y146496D01*
X439670Y146559D01*
X439594Y146626D01*
X439521Y146695D01*
X439451Y146767D01*
X439383Y146841D01*
X439318Y146918D01*
X439257Y146998D01*
X439198Y147080D01*
X439143Y147164D01*
X439091Y147250D01*
X439042Y147338D01*
X438997Y147428D01*
X438955Y147520D01*
X438917Y147613D01*
X438883Y147708D01*
X438852Y147803D01*
X438825Y147900D01*
X438802Y147998D01*
X438782Y148097D01*
X438767Y148197D01*
X438755Y148297D01*
X438747Y148397D01*
X438743Y148498D01*
X438743Y148598D01*
X438747Y148699D01*
X438755Y148799D01*
X438767Y148899D01*
X438782Y148999D01*
X438802Y149098D01*
X438825Y149196D01*
X438852Y149293D01*
X438883Y149388D01*
X438917Y149483D01*
X438955Y149576D01*
X438997Y149668D01*
X439042Y149758D01*
X439091Y149846D01*
X439143Y149932D01*
X439198Y150016D01*
X439257Y150098D01*
X439318Y150178D01*
X439383Y150255D01*
X439451Y150329D01*
X439521Y150401D01*
X439594Y150470D01*
X439670Y150537D01*
X439749Y150600D01*
X439829Y150660D01*
X439912Y150717D01*
X439998Y150771D01*
X440085Y150821D01*
X440174Y150868D01*
X440265Y150911D01*
X440357Y150951D01*
X440451Y150987D01*
X440546Y151020D01*
X440643Y151049D01*
X440740Y151074D01*
X440839Y151095D01*
X440938Y151113D01*
X441038Y151126D01*
X441138Y151136D01*
X441238Y151142D01*
X441339Y151144D01*
X443936Y151144D01*
X444037Y151142D01*
X444137Y151136D01*
X444237Y151126D01*
X444337Y151113D01*
X444436Y151095D01*
X444535Y151074D01*
X444632Y151049D01*
X444729Y151020D01*
X444824Y150987D01*
X444918Y150951D01*
X445010Y150911D01*
X445101Y150868D01*
X445190Y150821D01*
X445277Y150771D01*
X445363Y150717D01*
X445446Y150660D01*
X445526Y150600D01*
X445605Y150537D01*
X445681Y150470D01*
X445754Y150401D01*
X445824Y150329D01*
X445892Y150255D01*
X445957Y150178D01*
X446018Y150098D01*
X446077Y150016D01*
X446132Y149932D01*
X446184Y149846D01*
X446233Y149758D01*
X446278Y149668D01*
X446320Y149576D01*
X446358Y149483D01*
X446392Y149388D01*
X446423Y149293D01*
X446450Y149196D01*
X446473Y149098D01*
X446493Y148999D01*
X446508Y148899D01*
X446520Y148799D01*
X446528Y148699D01*
X446532Y148598D01*
X446532Y148498D01*
X446528Y148397D01*
X446520Y148297D01*
X446508Y148197D01*
X446493Y148097D01*
X446473Y147998D01*
X446450Y147900D01*
X446423Y147803D01*
X446392Y147708D01*
X446358Y147613D01*
X446320Y147520D01*
X446278Y147428D01*
X446233Y147338D01*
X446184Y147250D01*
X446132Y147164D01*
X446077Y147080D01*
X446018Y146998D01*
X445957Y146918D01*
X445892Y146841D01*
X445824Y146767D01*
X445754Y146695D01*
X445681Y146626D01*
X445605Y146559D01*
X445526Y146496D01*
X445446Y146436D01*
X445363Y146379D01*
X445277Y146325D01*
X445190Y146275D01*
X445101Y146228D01*
X445010Y146185D01*
X444918Y146145D01*
X444824Y146109D01*
X444729Y146076D01*
X444632Y146047D01*
X444535Y146022D01*
X444436Y146001D01*
X444337Y145983D01*
X444237Y145970D01*
X444137Y145960D01*
X444037Y145954D01*
X443936Y145952D01*
X446532Y156305D02*
X438743Y156305D01*
X438743Y160199D01*
X440041Y160199D01*
X437444Y170067D02*
X434848Y173313D01*
X446532Y173313D01*
X446532Y176558D02*
X446532Y170067D01*
X446532Y180989D02*
X445883Y180989D01*
X445883Y181638D01*
X446532Y181638D01*
X446532Y180989D01*
X440690Y186069D02*
X440460Y186072D01*
X440230Y186080D01*
X440001Y186094D01*
X439772Y186113D01*
X439543Y186138D01*
X439315Y186168D01*
X439088Y186203D01*
X438862Y186244D01*
X438637Y186290D01*
X438413Y186342D01*
X438190Y186399D01*
X437969Y186461D01*
X437749Y186529D01*
X437531Y186602D01*
X437315Y186680D01*
X437101Y186763D01*
X436889Y186851D01*
X436678Y186944D01*
X436471Y187043D01*
X436471Y187042D02*
X436381Y187075D01*
X436292Y187111D01*
X436204Y187151D01*
X436119Y187195D01*
X436035Y187242D01*
X435953Y187292D01*
X435873Y187346D01*
X435796Y187402D01*
X435720Y187462D01*
X435647Y187525D01*
X435577Y187590D01*
X435509Y187659D01*
X435445Y187730D01*
X435383Y187803D01*
X435324Y187879D01*
X435268Y187957D01*
X435215Y188038D01*
X435166Y188120D01*
X435120Y188204D01*
X435077Y188291D01*
X435038Y188378D01*
X435002Y188468D01*
X434970Y188558D01*
X434942Y188650D01*
X434917Y188743D01*
X434896Y188837D01*
X434879Y188931D01*
X434865Y189026D01*
X434856Y189122D01*
X434850Y189218D01*
X434848Y189314D01*
X434850Y189410D01*
X434856Y189506D01*
X434865Y189602D01*
X434879Y189697D01*
X434896Y189791D01*
X434917Y189885D01*
X434942Y189978D01*
X434970Y190070D01*
X435002Y190160D01*
X435038Y190250D01*
X435077Y190338D01*
X435120Y190424D01*
X435166Y190508D01*
X435215Y190590D01*
X435268Y190671D01*
X435324Y190749D01*
X435383Y190825D01*
X435445Y190898D01*
X435509Y190969D01*
X435577Y191038D01*
X435647Y191103D01*
X435720Y191166D01*
X435796Y191226D01*
X435873Y191282D01*
X435953Y191336D01*
X436035Y191386D01*
X436119Y191433D01*
X436204Y191477D01*
X436292Y191517D01*
X436381Y191553D01*
X436471Y191586D01*
X436678Y191685D01*
X436889Y191778D01*
X437101Y191866D01*
X437315Y191949D01*
X437531Y192027D01*
X437749Y192100D01*
X437969Y192168D01*
X438190Y192230D01*
X438413Y192287D01*
X438637Y192339D01*
X438862Y192385D01*
X439088Y192426D01*
X439315Y192461D01*
X439543Y192491D01*
X439772Y192516D01*
X440001Y192535D01*
X440230Y192549D01*
X440460Y192557D01*
X440690Y192560D01*
X440690Y186069D02*
X440920Y186072D01*
X441150Y186080D01*
X441379Y186094D01*
X441608Y186113D01*
X441837Y186138D01*
X442065Y186168D01*
X442292Y186203D01*
X442518Y186244D01*
X442743Y186290D01*
X442967Y186342D01*
X443190Y186399D01*
X443411Y186461D01*
X443631Y186529D01*
X443849Y186602D01*
X444065Y186680D01*
X444279Y186763D01*
X444491Y186851D01*
X444702Y186944D01*
X444909Y187043D01*
X444909Y187042D02*
X444999Y187075D01*
X445088Y187111D01*
X445176Y187152D01*
X445261Y187195D01*
X445345Y187242D01*
X445427Y187292D01*
X445507Y187346D01*
X445584Y187402D01*
X445660Y187462D01*
X445733Y187525D01*
X445803Y187590D01*
X445871Y187659D01*
X445935Y187730D01*
X445997Y187803D01*
X446056Y187879D01*
X446112Y187957D01*
X446165Y188038D01*
X446214Y188120D01*
X446260Y188204D01*
X446303Y188291D01*
X446342Y188378D01*
X446378Y188468D01*
X446410Y188558D01*
X446438Y188650D01*
X446463Y188743D01*
X446484Y188837D01*
X446501Y188931D01*
X446515Y189026D01*
X446524Y189122D01*
X446530Y189218D01*
X446532Y189314D01*
X444909Y191586D02*
X444702Y191685D01*
X444491Y191778D01*
X444279Y191866D01*
X444065Y191949D01*
X443849Y192027D01*
X443631Y192100D01*
X443411Y192168D01*
X443190Y192230D01*
X442967Y192287D01*
X442743Y192339D01*
X442518Y192385D01*
X442292Y192426D01*
X442065Y192461D01*
X441837Y192491D01*
X441608Y192516D01*
X441379Y192535D01*
X441150Y192549D01*
X440920Y192557D01*
X440690Y192560D01*
X444909Y191586D02*
X444999Y191553D01*
X445088Y191517D01*
X445176Y191477D01*
X445261Y191433D01*
X445345Y191386D01*
X445427Y191336D01*
X445507Y191282D01*
X445584Y191226D01*
X445660Y191166D01*
X445733Y191103D01*
X445803Y191038D01*
X445871Y190969D01*
X445935Y190898D01*
X445997Y190825D01*
X446056Y190749D01*
X446112Y190671D01*
X446165Y190590D01*
X446214Y190508D01*
X446260Y190424D01*
X446303Y190337D01*
X446342Y190250D01*
X446378Y190160D01*
X446410Y190070D01*
X446438Y189978D01*
X446463Y189885D01*
X446484Y189791D01*
X446501Y189697D01*
X446515Y189602D01*
X446524Y189506D01*
X446530Y189410D01*
X446532Y189314D01*
X443936Y186718D02*
X437444Y191911D01*
D11*
X436626Y259334D02*
X436626Y260886D01*
X436624Y260963D01*
X436618Y261041D01*
X436609Y261117D01*
X436595Y261194D01*
X436578Y261269D01*
X436557Y261343D01*
X436532Y261417D01*
X436504Y261489D01*
X436472Y261559D01*
X436437Y261628D01*
X436398Y261695D01*
X436356Y261760D01*
X436311Y261823D01*
X436263Y261884D01*
X436212Y261942D01*
X436158Y261997D01*
X436101Y262050D01*
X436042Y262099D01*
X435980Y262146D01*
X435916Y262190D01*
X435850Y262230D01*
X435782Y262267D01*
X435712Y262301D01*
X435641Y262331D01*
X435568Y262357D01*
X435494Y262380D01*
X435419Y262399D01*
X435344Y262414D01*
X435267Y262426D01*
X435190Y262434D01*
X435113Y262438D01*
X435035Y262438D01*
X434958Y262434D01*
X434881Y262426D01*
X434804Y262414D01*
X434729Y262399D01*
X434654Y262380D01*
X434580Y262357D01*
X434507Y262331D01*
X434436Y262301D01*
X434366Y262267D01*
X434298Y262230D01*
X434232Y262190D01*
X434168Y262146D01*
X434106Y262099D01*
X434047Y262050D01*
X433990Y261997D01*
X433936Y261942D01*
X433885Y261884D01*
X433837Y261823D01*
X433792Y261760D01*
X433750Y261695D01*
X433711Y261628D01*
X433676Y261559D01*
X433644Y261489D01*
X433616Y261417D01*
X433591Y261343D01*
X433570Y261269D01*
X433553Y261194D01*
X433539Y261117D01*
X433530Y261041D01*
X433524Y260963D01*
X433522Y260886D01*
X431038Y261197D02*
X431038Y259334D01*
X431038Y261197D02*
X431040Y261267D01*
X431046Y261336D01*
X431056Y261405D01*
X431069Y261473D01*
X431087Y261541D01*
X431108Y261607D01*
X431133Y261672D01*
X431161Y261736D01*
X431193Y261798D01*
X431228Y261858D01*
X431267Y261916D01*
X431309Y261971D01*
X431354Y262025D01*
X431402Y262075D01*
X431452Y262123D01*
X431506Y262168D01*
X431561Y262210D01*
X431619Y262249D01*
X431679Y262284D01*
X431741Y262316D01*
X431805Y262344D01*
X431870Y262369D01*
X431936Y262390D01*
X432004Y262408D01*
X432072Y262421D01*
X432141Y262431D01*
X432210Y262437D01*
X432280Y262439D01*
X432350Y262437D01*
X432419Y262431D01*
X432488Y262421D01*
X432556Y262408D01*
X432624Y262390D01*
X432690Y262369D01*
X432755Y262344D01*
X432819Y262316D01*
X432881Y262284D01*
X432941Y262249D01*
X432999Y262210D01*
X433054Y262168D01*
X433108Y262123D01*
X433158Y262075D01*
X433206Y262025D01*
X433251Y261971D01*
X433293Y261916D01*
X433332Y261858D01*
X433367Y261798D01*
X433399Y261736D01*
X433427Y261672D01*
X433452Y261607D01*
X433473Y261541D01*
X433491Y261473D01*
X433504Y261405D01*
X433514Y261336D01*
X433520Y261267D01*
X433522Y261197D01*
X433522Y259955D01*
X431038Y264510D02*
X436626Y266373D01*
X431038Y268235D01*
X436626Y270307D02*
X436626Y271859D01*
X436624Y271936D01*
X436618Y272014D01*
X436609Y272090D01*
X436595Y272167D01*
X436578Y272242D01*
X436557Y272316D01*
X436532Y272390D01*
X436504Y272462D01*
X436472Y272532D01*
X436437Y272601D01*
X436398Y272668D01*
X436356Y272733D01*
X436311Y272796D01*
X436263Y272857D01*
X436212Y272915D01*
X436158Y272970D01*
X436101Y273023D01*
X436042Y273072D01*
X435980Y273119D01*
X435916Y273163D01*
X435850Y273203D01*
X435782Y273240D01*
X435712Y273274D01*
X435641Y273304D01*
X435568Y273330D01*
X435494Y273353D01*
X435419Y273372D01*
X435344Y273387D01*
X435267Y273399D01*
X435190Y273407D01*
X435113Y273411D01*
X435035Y273411D01*
X434958Y273407D01*
X434881Y273399D01*
X434804Y273387D01*
X434729Y273372D01*
X434654Y273353D01*
X434580Y273330D01*
X434507Y273304D01*
X434436Y273274D01*
X434366Y273240D01*
X434298Y273203D01*
X434232Y273163D01*
X434168Y273119D01*
X434106Y273072D01*
X434047Y273023D01*
X433990Y272970D01*
X433936Y272915D01*
X433885Y272857D01*
X433837Y272796D01*
X433792Y272733D01*
X433750Y272668D01*
X433711Y272601D01*
X433676Y272532D01*
X433644Y272462D01*
X433616Y272390D01*
X433591Y272316D01*
X433570Y272242D01*
X433553Y272167D01*
X433539Y272090D01*
X433530Y272014D01*
X433524Y271936D01*
X433522Y271859D01*
X431038Y272169D02*
X431038Y270307D01*
X431038Y272169D02*
X431040Y272239D01*
X431046Y272308D01*
X431056Y272377D01*
X431069Y272445D01*
X431087Y272513D01*
X431108Y272579D01*
X431133Y272644D01*
X431161Y272708D01*
X431193Y272770D01*
X431228Y272830D01*
X431267Y272888D01*
X431309Y272943D01*
X431354Y272997D01*
X431402Y273047D01*
X431452Y273095D01*
X431506Y273140D01*
X431561Y273182D01*
X431619Y273221D01*
X431679Y273256D01*
X431741Y273288D01*
X431805Y273316D01*
X431870Y273341D01*
X431936Y273362D01*
X432004Y273380D01*
X432072Y273393D01*
X432141Y273403D01*
X432210Y273409D01*
X432280Y273411D01*
X432350Y273409D01*
X432419Y273403D01*
X432488Y273393D01*
X432556Y273380D01*
X432624Y273362D01*
X432690Y273341D01*
X432755Y273316D01*
X432819Y273288D01*
X432881Y273256D01*
X432941Y273221D01*
X432999Y273182D01*
X433054Y273140D01*
X433108Y273095D01*
X433158Y273047D01*
X433206Y272997D01*
X433251Y272943D01*
X433293Y272888D01*
X433332Y272830D01*
X433367Y272770D01*
X433399Y272708D01*
X433427Y272644D01*
X433452Y272579D01*
X433473Y272513D01*
X433491Y272445D01*
X433504Y272377D01*
X433514Y272308D01*
X433520Y272239D01*
X433522Y272169D01*
X433522Y270928D01*
X432252Y284367D02*
X432252Y285298D01*
X435356Y285298D01*
X435356Y283436D01*
X435354Y283366D01*
X435348Y283297D01*
X435338Y283228D01*
X435325Y283160D01*
X435307Y283092D01*
X435286Y283026D01*
X435261Y282961D01*
X435233Y282897D01*
X435201Y282835D01*
X435166Y282775D01*
X435127Y282717D01*
X435085Y282662D01*
X435040Y282608D01*
X434992Y282558D01*
X434942Y282510D01*
X434888Y282465D01*
X434833Y282423D01*
X434775Y282384D01*
X434715Y282349D01*
X434653Y282317D01*
X434589Y282289D01*
X434524Y282264D01*
X434458Y282243D01*
X434390Y282225D01*
X434322Y282212D01*
X434253Y282202D01*
X434184Y282196D01*
X434114Y282194D01*
X431010Y282194D01*
X430940Y282196D01*
X430871Y282202D01*
X430802Y282212D01*
X430734Y282225D01*
X430666Y282243D01*
X430600Y282264D01*
X430535Y282289D01*
X430471Y282317D01*
X430409Y282349D01*
X430349Y282384D01*
X430291Y282423D01*
X430236Y282465D01*
X430182Y282510D01*
X430132Y282558D01*
X430084Y282608D01*
X430039Y282662D01*
X429997Y282717D01*
X429958Y282775D01*
X429923Y282835D01*
X429891Y282897D01*
X429863Y282961D01*
X429838Y283026D01*
X429817Y283092D01*
X429799Y283160D01*
X429786Y283228D01*
X429776Y283297D01*
X429770Y283366D01*
X429768Y283436D01*
X429768Y285298D01*
X429768Y288046D02*
X435356Y288046D01*
X435356Y291151D02*
X429768Y288046D01*
X429768Y291151D02*
X435356Y291151D01*
X435356Y293898D02*
X429768Y293898D01*
X429768Y295450D01*
X429770Y295526D01*
X429775Y295602D01*
X429785Y295678D01*
X429798Y295753D01*
X429815Y295827D01*
X429835Y295901D01*
X429859Y295973D01*
X429886Y296044D01*
X429917Y296114D01*
X429951Y296182D01*
X429989Y296248D01*
X430030Y296312D01*
X430073Y296375D01*
X430120Y296435D01*
X430170Y296492D01*
X430223Y296547D01*
X430278Y296600D01*
X430335Y296650D01*
X430395Y296697D01*
X430458Y296740D01*
X430522Y296781D01*
X430588Y296819D01*
X430656Y296853D01*
X430726Y296884D01*
X430797Y296911D01*
X430870Y296935D01*
X430943Y296955D01*
X431017Y296972D01*
X431092Y296985D01*
X431168Y296995D01*
X431244Y297000D01*
X431320Y297002D01*
X431320Y297003D02*
X433804Y297003D01*
X433804Y297002D02*
X433880Y297000D01*
X433956Y296995D01*
X434032Y296985D01*
X434107Y296972D01*
X434181Y296955D01*
X434255Y296935D01*
X434327Y296911D01*
X434398Y296884D01*
X434468Y296853D01*
X434536Y296819D01*
X434602Y296781D01*
X434666Y296740D01*
X434729Y296697D01*
X434789Y296650D01*
X434846Y296600D01*
X434901Y296547D01*
X434954Y296492D01*
X435004Y296435D01*
X435051Y296375D01*
X435094Y296312D01*
X435135Y296248D01*
X435173Y296182D01*
X435207Y296114D01*
X435238Y296044D01*
X435265Y295973D01*
X435289Y295901D01*
X435309Y295827D01*
X435326Y295753D01*
X435339Y295678D01*
X435349Y295602D01*
X435354Y295526D01*
X435356Y295450D01*
X435356Y293898D01*
X435356Y310727D02*
X435354Y310797D01*
X435348Y310866D01*
X435338Y310935D01*
X435325Y311003D01*
X435307Y311071D01*
X435286Y311137D01*
X435261Y311202D01*
X435233Y311266D01*
X435201Y311328D01*
X435166Y311388D01*
X435127Y311446D01*
X435085Y311501D01*
X435040Y311555D01*
X434992Y311605D01*
X434942Y311653D01*
X434888Y311698D01*
X434833Y311740D01*
X434775Y311779D01*
X434715Y311814D01*
X434653Y311846D01*
X434589Y311874D01*
X434524Y311899D01*
X434458Y311920D01*
X434390Y311938D01*
X434322Y311951D01*
X434253Y311961D01*
X434184Y311967D01*
X434114Y311969D01*
X435356Y310727D02*
X435354Y310628D01*
X435349Y310530D01*
X435339Y310432D01*
X435326Y310334D01*
X435310Y310237D01*
X435290Y310140D01*
X435266Y310045D01*
X435238Y309950D01*
X435207Y309856D01*
X435173Y309764D01*
X435135Y309673D01*
X435094Y309583D01*
X435049Y309495D01*
X435001Y309409D01*
X434950Y309325D01*
X434896Y309243D01*
X434838Y309162D01*
X434778Y309084D01*
X434715Y309009D01*
X434649Y308935D01*
X434580Y308865D01*
X431010Y309019D02*
X430940Y309021D01*
X430871Y309027D01*
X430802Y309037D01*
X430734Y309050D01*
X430666Y309068D01*
X430600Y309089D01*
X430535Y309114D01*
X430471Y309142D01*
X430409Y309174D01*
X430349Y309209D01*
X430291Y309248D01*
X430236Y309290D01*
X430182Y309335D01*
X430132Y309383D01*
X430084Y309433D01*
X430039Y309487D01*
X429997Y309542D01*
X429958Y309600D01*
X429923Y309660D01*
X429891Y309722D01*
X429863Y309786D01*
X429838Y309851D01*
X429817Y309917D01*
X429799Y309985D01*
X429786Y310053D01*
X429776Y310122D01*
X429770Y310191D01*
X429768Y310261D01*
X429770Y310355D01*
X429776Y310448D01*
X429785Y310541D01*
X429798Y310634D01*
X429815Y310726D01*
X429835Y310817D01*
X429860Y310908D01*
X429887Y310997D01*
X429919Y311085D01*
X429954Y311172D01*
X429992Y311258D01*
X430034Y311341D01*
X430079Y311424D01*
X430127Y311504D01*
X430179Y311582D01*
X430234Y311658D01*
X432096Y309640D02*
X432060Y309581D01*
X432020Y309525D01*
X431977Y309471D01*
X431932Y309419D01*
X431883Y309370D01*
X431832Y309324D01*
X431779Y309281D01*
X431723Y309240D01*
X431665Y309203D01*
X431605Y309168D01*
X431544Y309138D01*
X431481Y309110D01*
X431416Y309086D01*
X431350Y309066D01*
X431283Y309049D01*
X431216Y309036D01*
X431148Y309027D01*
X431079Y309021D01*
X431010Y309019D01*
X433028Y311347D02*
X433064Y311406D01*
X433104Y311462D01*
X433147Y311516D01*
X433192Y311568D01*
X433241Y311617D01*
X433292Y311663D01*
X433345Y311706D01*
X433401Y311747D01*
X433459Y311784D01*
X433519Y311819D01*
X433580Y311849D01*
X433643Y311877D01*
X433708Y311901D01*
X433774Y311921D01*
X433841Y311938D01*
X433908Y311951D01*
X433976Y311960D01*
X434045Y311966D01*
X434114Y311968D01*
X433028Y311348D02*
X432096Y309640D01*
X435356Y315393D02*
X435356Y316635D01*
X435356Y315393D02*
X435354Y315323D01*
X435348Y315254D01*
X435338Y315185D01*
X435325Y315117D01*
X435307Y315049D01*
X435286Y314983D01*
X435261Y314918D01*
X435233Y314854D01*
X435201Y314792D01*
X435166Y314732D01*
X435127Y314674D01*
X435085Y314619D01*
X435040Y314565D01*
X434992Y314515D01*
X434942Y314467D01*
X434888Y314422D01*
X434833Y314380D01*
X434775Y314341D01*
X434715Y314306D01*
X434653Y314274D01*
X434589Y314246D01*
X434524Y314221D01*
X434458Y314200D01*
X434390Y314182D01*
X434322Y314169D01*
X434253Y314159D01*
X434184Y314153D01*
X434114Y314151D01*
X431010Y314151D01*
X430940Y314153D01*
X430871Y314159D01*
X430802Y314169D01*
X430734Y314182D01*
X430666Y314200D01*
X430600Y314221D01*
X430535Y314246D01*
X430471Y314274D01*
X430409Y314306D01*
X430349Y314341D01*
X430291Y314380D01*
X430236Y314422D01*
X430182Y314467D01*
X430132Y314515D01*
X430084Y314565D01*
X430039Y314619D01*
X429997Y314674D01*
X429958Y314732D01*
X429923Y314792D01*
X429891Y314854D01*
X429863Y314918D01*
X429838Y314983D01*
X429817Y315049D01*
X429799Y315117D01*
X429786Y315185D01*
X429776Y315254D01*
X429770Y315323D01*
X429768Y315393D01*
X429768Y316635D01*
X429768Y318933D02*
X435356Y318933D01*
X435356Y321417D01*
X435356Y336127D02*
X435354Y336197D01*
X435348Y336266D01*
X435338Y336335D01*
X435325Y336403D01*
X435307Y336471D01*
X435286Y336537D01*
X435261Y336602D01*
X435233Y336666D01*
X435201Y336728D01*
X435166Y336788D01*
X435127Y336846D01*
X435085Y336901D01*
X435040Y336955D01*
X434992Y337005D01*
X434942Y337053D01*
X434888Y337098D01*
X434833Y337140D01*
X434775Y337179D01*
X434715Y337214D01*
X434653Y337246D01*
X434589Y337274D01*
X434524Y337299D01*
X434458Y337320D01*
X434390Y337338D01*
X434322Y337351D01*
X434253Y337361D01*
X434184Y337367D01*
X434114Y337369D01*
X435356Y336127D02*
X435354Y336028D01*
X435349Y335930D01*
X435339Y335832D01*
X435326Y335734D01*
X435310Y335637D01*
X435290Y335540D01*
X435266Y335445D01*
X435238Y335350D01*
X435207Y335256D01*
X435173Y335164D01*
X435135Y335073D01*
X435094Y334983D01*
X435049Y334895D01*
X435001Y334809D01*
X434950Y334725D01*
X434896Y334643D01*
X434838Y334562D01*
X434778Y334484D01*
X434715Y334409D01*
X434649Y334335D01*
X434580Y334265D01*
X431010Y334419D02*
X430940Y334421D01*
X430871Y334427D01*
X430802Y334437D01*
X430734Y334450D01*
X430666Y334468D01*
X430600Y334489D01*
X430535Y334514D01*
X430471Y334542D01*
X430409Y334574D01*
X430349Y334609D01*
X430291Y334648D01*
X430236Y334690D01*
X430182Y334735D01*
X430132Y334783D01*
X430084Y334833D01*
X430039Y334887D01*
X429997Y334942D01*
X429958Y335000D01*
X429923Y335060D01*
X429891Y335122D01*
X429863Y335186D01*
X429838Y335251D01*
X429817Y335317D01*
X429799Y335385D01*
X429786Y335453D01*
X429776Y335522D01*
X429770Y335591D01*
X429768Y335661D01*
X429770Y335755D01*
X429776Y335848D01*
X429785Y335941D01*
X429798Y336034D01*
X429815Y336126D01*
X429835Y336217D01*
X429860Y336308D01*
X429887Y336397D01*
X429919Y336485D01*
X429954Y336572D01*
X429992Y336658D01*
X430034Y336741D01*
X430079Y336824D01*
X430127Y336904D01*
X430179Y336982D01*
X430234Y337058D01*
X432096Y335040D02*
X432060Y334981D01*
X432020Y334925D01*
X431977Y334871D01*
X431932Y334819D01*
X431883Y334770D01*
X431832Y334724D01*
X431779Y334681D01*
X431723Y334640D01*
X431665Y334603D01*
X431605Y334568D01*
X431544Y334538D01*
X431481Y334510D01*
X431416Y334486D01*
X431350Y334466D01*
X431283Y334449D01*
X431216Y334436D01*
X431148Y334427D01*
X431079Y334421D01*
X431010Y334419D01*
X433028Y336747D02*
X433064Y336806D01*
X433104Y336862D01*
X433147Y336916D01*
X433192Y336968D01*
X433241Y337017D01*
X433292Y337063D01*
X433345Y337106D01*
X433401Y337147D01*
X433459Y337184D01*
X433519Y337219D01*
X433580Y337249D01*
X433643Y337277D01*
X433708Y337301D01*
X433774Y337321D01*
X433841Y337338D01*
X433908Y337351D01*
X433976Y337360D01*
X434045Y337366D01*
X434114Y337368D01*
X433028Y336748D02*
X432096Y335040D01*
X429768Y339750D02*
X435356Y339750D01*
X429768Y339750D02*
X429768Y341303D01*
X429770Y341379D01*
X429775Y341455D01*
X429785Y341531D01*
X429798Y341606D01*
X429815Y341680D01*
X429835Y341754D01*
X429859Y341826D01*
X429886Y341897D01*
X429917Y341967D01*
X429951Y342035D01*
X429989Y342101D01*
X430030Y342165D01*
X430073Y342228D01*
X430120Y342288D01*
X430170Y342345D01*
X430223Y342400D01*
X430278Y342453D01*
X430335Y342503D01*
X430395Y342550D01*
X430458Y342593D01*
X430522Y342634D01*
X430588Y342672D01*
X430656Y342706D01*
X430726Y342737D01*
X430797Y342764D01*
X430870Y342788D01*
X430943Y342808D01*
X431017Y342825D01*
X431092Y342838D01*
X431168Y342848D01*
X431244Y342853D01*
X431320Y342855D01*
X433804Y342855D01*
X433880Y342853D01*
X433956Y342848D01*
X434032Y342838D01*
X434107Y342825D01*
X434181Y342808D01*
X434255Y342788D01*
X434327Y342764D01*
X434398Y342737D01*
X434468Y342706D01*
X434536Y342672D01*
X434602Y342634D01*
X434666Y342593D01*
X434729Y342550D01*
X434789Y342503D01*
X434846Y342453D01*
X434901Y342400D01*
X434954Y342345D01*
X435004Y342288D01*
X435051Y342228D01*
X435094Y342165D01*
X435135Y342101D01*
X435173Y342035D01*
X435207Y341967D01*
X435238Y341897D01*
X435265Y341826D01*
X435289Y341754D01*
X435309Y341680D01*
X435326Y341606D01*
X435339Y341531D01*
X435349Y341455D01*
X435354Y341379D01*
X435356Y341303D01*
X435356Y339750D01*
X435356Y345109D02*
X429768Y346972D01*
X435356Y348835D01*
X433959Y348369D02*
X433959Y345575D01*
X268986Y287556D02*
X268986Y286004D01*
X268986Y287556D02*
X268984Y287633D01*
X268978Y287711D01*
X268969Y287787D01*
X268955Y287864D01*
X268938Y287939D01*
X268917Y288013D01*
X268892Y288087D01*
X268864Y288159D01*
X268832Y288229D01*
X268797Y288298D01*
X268758Y288365D01*
X268716Y288430D01*
X268671Y288493D01*
X268623Y288554D01*
X268572Y288612D01*
X268518Y288667D01*
X268461Y288720D01*
X268402Y288769D01*
X268340Y288816D01*
X268276Y288860D01*
X268210Y288900D01*
X268142Y288937D01*
X268072Y288971D01*
X268001Y289001D01*
X267928Y289027D01*
X267854Y289050D01*
X267779Y289069D01*
X267704Y289084D01*
X267627Y289096D01*
X267550Y289104D01*
X267473Y289108D01*
X267395Y289108D01*
X267318Y289104D01*
X267241Y289096D01*
X267164Y289084D01*
X267089Y289069D01*
X267014Y289050D01*
X266940Y289027D01*
X266867Y289001D01*
X266796Y288971D01*
X266726Y288937D01*
X266658Y288900D01*
X266592Y288860D01*
X266528Y288816D01*
X266466Y288769D01*
X266407Y288720D01*
X266350Y288667D01*
X266296Y288612D01*
X266245Y288554D01*
X266197Y288493D01*
X266152Y288430D01*
X266110Y288365D01*
X266071Y288298D01*
X266036Y288229D01*
X266004Y288159D01*
X265976Y288087D01*
X265951Y288013D01*
X265930Y287939D01*
X265913Y287864D01*
X265899Y287787D01*
X265890Y287711D01*
X265884Y287633D01*
X265882Y287556D01*
X263398Y287867D02*
X263398Y286004D01*
X263398Y287867D02*
X263400Y287937D01*
X263406Y288006D01*
X263416Y288075D01*
X263429Y288143D01*
X263447Y288211D01*
X263468Y288277D01*
X263493Y288342D01*
X263521Y288406D01*
X263553Y288468D01*
X263588Y288528D01*
X263627Y288586D01*
X263669Y288641D01*
X263714Y288695D01*
X263762Y288745D01*
X263812Y288793D01*
X263866Y288838D01*
X263921Y288880D01*
X263979Y288919D01*
X264039Y288954D01*
X264101Y288986D01*
X264165Y289014D01*
X264230Y289039D01*
X264296Y289060D01*
X264364Y289078D01*
X264432Y289091D01*
X264501Y289101D01*
X264570Y289107D01*
X264640Y289109D01*
X264710Y289107D01*
X264779Y289101D01*
X264848Y289091D01*
X264916Y289078D01*
X264984Y289060D01*
X265050Y289039D01*
X265115Y289014D01*
X265179Y288986D01*
X265241Y288954D01*
X265301Y288919D01*
X265359Y288880D01*
X265414Y288838D01*
X265468Y288793D01*
X265518Y288745D01*
X265566Y288695D01*
X265611Y288641D01*
X265653Y288586D01*
X265692Y288528D01*
X265727Y288468D01*
X265759Y288406D01*
X265787Y288342D01*
X265812Y288277D01*
X265833Y288211D01*
X265851Y288143D01*
X265864Y288075D01*
X265874Y288006D01*
X265880Y287937D01*
X265882Y287867D01*
X265882Y286625D01*
X263398Y291180D02*
X268986Y293043D01*
X263398Y294905D01*
X268986Y296977D02*
X268986Y298529D01*
X268984Y298606D01*
X268978Y298684D01*
X268969Y298760D01*
X268955Y298837D01*
X268938Y298912D01*
X268917Y298986D01*
X268892Y299060D01*
X268864Y299132D01*
X268832Y299202D01*
X268797Y299271D01*
X268758Y299338D01*
X268716Y299403D01*
X268671Y299466D01*
X268623Y299527D01*
X268572Y299585D01*
X268518Y299640D01*
X268461Y299693D01*
X268402Y299742D01*
X268340Y299789D01*
X268276Y299833D01*
X268210Y299873D01*
X268142Y299910D01*
X268072Y299944D01*
X268001Y299974D01*
X267928Y300000D01*
X267854Y300023D01*
X267779Y300042D01*
X267704Y300057D01*
X267627Y300069D01*
X267550Y300077D01*
X267473Y300081D01*
X267395Y300081D01*
X267318Y300077D01*
X267241Y300069D01*
X267164Y300057D01*
X267089Y300042D01*
X267014Y300023D01*
X266940Y300000D01*
X266867Y299974D01*
X266796Y299944D01*
X266726Y299910D01*
X266658Y299873D01*
X266592Y299833D01*
X266528Y299789D01*
X266466Y299742D01*
X266407Y299693D01*
X266350Y299640D01*
X266296Y299585D01*
X266245Y299527D01*
X266197Y299466D01*
X266152Y299403D01*
X266110Y299338D01*
X266071Y299271D01*
X266036Y299202D01*
X266004Y299132D01*
X265976Y299060D01*
X265951Y298986D01*
X265930Y298912D01*
X265913Y298837D01*
X265899Y298760D01*
X265890Y298684D01*
X265884Y298606D01*
X265882Y298529D01*
X263398Y298839D02*
X263398Y296977D01*
X263398Y298839D02*
X263400Y298909D01*
X263406Y298978D01*
X263416Y299047D01*
X263429Y299115D01*
X263447Y299183D01*
X263468Y299249D01*
X263493Y299314D01*
X263521Y299378D01*
X263553Y299440D01*
X263588Y299500D01*
X263627Y299558D01*
X263669Y299613D01*
X263714Y299667D01*
X263762Y299717D01*
X263812Y299765D01*
X263866Y299810D01*
X263921Y299852D01*
X263979Y299891D01*
X264039Y299926D01*
X264101Y299958D01*
X264165Y299986D01*
X264230Y300011D01*
X264296Y300032D01*
X264364Y300050D01*
X264432Y300063D01*
X264501Y300073D01*
X264570Y300079D01*
X264640Y300081D01*
X264710Y300079D01*
X264779Y300073D01*
X264848Y300063D01*
X264916Y300050D01*
X264984Y300032D01*
X265050Y300011D01*
X265115Y299986D01*
X265179Y299958D01*
X265241Y299926D01*
X265301Y299891D01*
X265359Y299852D01*
X265414Y299810D01*
X265468Y299765D01*
X265518Y299717D01*
X265566Y299667D01*
X265611Y299613D01*
X265653Y299558D01*
X265692Y299500D01*
X265727Y299440D01*
X265759Y299378D01*
X265787Y299314D01*
X265812Y299249D01*
X265833Y299183D01*
X265851Y299115D01*
X265864Y299047D01*
X265874Y298978D01*
X265880Y298909D01*
X265882Y298839D01*
X265882Y297598D01*
X213812Y285298D02*
X213812Y284367D01*
X213812Y285298D02*
X216916Y285298D01*
X216916Y283436D01*
X216914Y283366D01*
X216908Y283297D01*
X216898Y283228D01*
X216885Y283160D01*
X216867Y283092D01*
X216846Y283026D01*
X216821Y282961D01*
X216793Y282897D01*
X216761Y282835D01*
X216726Y282775D01*
X216687Y282717D01*
X216645Y282662D01*
X216600Y282608D01*
X216552Y282558D01*
X216502Y282510D01*
X216448Y282465D01*
X216393Y282423D01*
X216335Y282384D01*
X216275Y282349D01*
X216213Y282317D01*
X216149Y282289D01*
X216084Y282264D01*
X216018Y282243D01*
X215950Y282225D01*
X215882Y282212D01*
X215813Y282202D01*
X215744Y282196D01*
X215674Y282194D01*
X212570Y282194D01*
X212500Y282196D01*
X212431Y282202D01*
X212362Y282212D01*
X212294Y282225D01*
X212226Y282243D01*
X212160Y282264D01*
X212095Y282289D01*
X212031Y282317D01*
X211969Y282349D01*
X211909Y282384D01*
X211851Y282423D01*
X211796Y282465D01*
X211742Y282510D01*
X211692Y282558D01*
X211644Y282608D01*
X211599Y282662D01*
X211557Y282717D01*
X211518Y282775D01*
X211483Y282835D01*
X211451Y282897D01*
X211423Y282961D01*
X211398Y283026D01*
X211377Y283092D01*
X211359Y283160D01*
X211346Y283228D01*
X211336Y283297D01*
X211330Y283366D01*
X211328Y283436D01*
X211328Y285298D01*
X211328Y288046D02*
X216916Y288046D01*
X216916Y291151D02*
X211328Y288046D01*
X211328Y291151D02*
X216916Y291151D01*
X216916Y293898D02*
X211328Y293898D01*
X211328Y295450D01*
X211330Y295526D01*
X211335Y295602D01*
X211345Y295678D01*
X211358Y295753D01*
X211375Y295827D01*
X211395Y295901D01*
X211419Y295973D01*
X211446Y296044D01*
X211477Y296114D01*
X211511Y296182D01*
X211549Y296248D01*
X211590Y296312D01*
X211633Y296375D01*
X211680Y296435D01*
X211730Y296492D01*
X211783Y296547D01*
X211838Y296600D01*
X211895Y296650D01*
X211955Y296697D01*
X212018Y296740D01*
X212082Y296781D01*
X212148Y296819D01*
X212216Y296853D01*
X212286Y296884D01*
X212357Y296911D01*
X212430Y296935D01*
X212503Y296955D01*
X212577Y296972D01*
X212652Y296985D01*
X212728Y296995D01*
X212804Y297000D01*
X212880Y297002D01*
X212880Y297003D02*
X215364Y297003D01*
X215364Y297002D02*
X215440Y297000D01*
X215516Y296995D01*
X215592Y296985D01*
X215667Y296972D01*
X215741Y296955D01*
X215815Y296935D01*
X215887Y296911D01*
X215958Y296884D01*
X216028Y296853D01*
X216096Y296819D01*
X216162Y296781D01*
X216226Y296740D01*
X216289Y296697D01*
X216349Y296650D01*
X216406Y296600D01*
X216461Y296547D01*
X216514Y296492D01*
X216564Y296435D01*
X216611Y296375D01*
X216654Y296312D01*
X216695Y296248D01*
X216733Y296182D01*
X216767Y296114D01*
X216798Y296044D01*
X216825Y295973D01*
X216849Y295901D01*
X216869Y295827D01*
X216886Y295753D01*
X216899Y295678D01*
X216909Y295602D01*
X216914Y295526D01*
X216916Y295450D01*
X216916Y293898D01*
X326898Y6604D02*
X332486Y7846D01*
X328761Y9088D01*
X332486Y10329D01*
X326898Y11571D01*
X326898Y13972D02*
X332486Y13972D01*
X326898Y13972D02*
X326898Y15524D01*
X326900Y15601D01*
X326906Y15679D01*
X326915Y15755D01*
X326929Y15832D01*
X326946Y15907D01*
X326967Y15981D01*
X326992Y16055D01*
X327020Y16127D01*
X327052Y16197D01*
X327087Y16266D01*
X327126Y16333D01*
X327168Y16398D01*
X327213Y16461D01*
X327261Y16522D01*
X327312Y16580D01*
X327366Y16635D01*
X327423Y16688D01*
X327482Y16737D01*
X327544Y16784D01*
X327608Y16828D01*
X327674Y16868D01*
X327742Y16905D01*
X327812Y16939D01*
X327883Y16969D01*
X327956Y16995D01*
X328030Y17018D01*
X328105Y17037D01*
X328180Y17052D01*
X328257Y17064D01*
X328334Y17072D01*
X328411Y17076D01*
X328489Y17076D01*
X328566Y17072D01*
X328643Y17064D01*
X328720Y17052D01*
X328795Y17037D01*
X328870Y17018D01*
X328944Y16995D01*
X329017Y16969D01*
X329088Y16939D01*
X329158Y16905D01*
X329226Y16868D01*
X329292Y16828D01*
X329356Y16784D01*
X329418Y16737D01*
X329477Y16688D01*
X329534Y16635D01*
X329588Y16580D01*
X329639Y16522D01*
X329687Y16461D01*
X329732Y16398D01*
X329774Y16333D01*
X329813Y16266D01*
X329848Y16197D01*
X329880Y16127D01*
X329908Y16055D01*
X329933Y15981D01*
X329954Y15907D01*
X329971Y15832D01*
X329985Y15755D01*
X329994Y15679D01*
X330000Y15601D01*
X330002Y15524D01*
X330002Y13972D01*
X330002Y15835D02*
X332486Y17077D01*
X332486Y19616D02*
X332486Y22100D01*
X332486Y19616D02*
X326898Y19616D01*
X326898Y22100D01*
X329382Y21479D02*
X329382Y19616D01*
X384556Y10696D02*
X384556Y9144D01*
X384556Y10696D02*
X384554Y10773D01*
X384548Y10851D01*
X384539Y10927D01*
X384525Y11004D01*
X384508Y11079D01*
X384487Y11153D01*
X384462Y11227D01*
X384434Y11299D01*
X384402Y11369D01*
X384367Y11438D01*
X384328Y11505D01*
X384286Y11570D01*
X384241Y11633D01*
X384193Y11694D01*
X384142Y11752D01*
X384088Y11807D01*
X384031Y11860D01*
X383972Y11909D01*
X383910Y11956D01*
X383846Y12000D01*
X383780Y12040D01*
X383712Y12077D01*
X383642Y12111D01*
X383571Y12141D01*
X383498Y12167D01*
X383424Y12190D01*
X383349Y12209D01*
X383274Y12224D01*
X383197Y12236D01*
X383120Y12244D01*
X383043Y12248D01*
X382965Y12248D01*
X382888Y12244D01*
X382811Y12236D01*
X382734Y12224D01*
X382659Y12209D01*
X382584Y12190D01*
X382510Y12167D01*
X382437Y12141D01*
X382366Y12111D01*
X382296Y12077D01*
X382228Y12040D01*
X382162Y12000D01*
X382098Y11956D01*
X382036Y11909D01*
X381977Y11860D01*
X381920Y11807D01*
X381866Y11752D01*
X381815Y11694D01*
X381767Y11633D01*
X381722Y11570D01*
X381680Y11505D01*
X381641Y11438D01*
X381606Y11369D01*
X381574Y11299D01*
X381546Y11227D01*
X381521Y11153D01*
X381500Y11079D01*
X381483Y11004D01*
X381469Y10927D01*
X381460Y10851D01*
X381454Y10773D01*
X381452Y10696D01*
X378968Y11007D02*
X378968Y9144D01*
X378968Y11007D02*
X378970Y11077D01*
X378976Y11146D01*
X378986Y11215D01*
X378999Y11283D01*
X379017Y11351D01*
X379038Y11417D01*
X379063Y11482D01*
X379091Y11546D01*
X379123Y11608D01*
X379158Y11668D01*
X379197Y11726D01*
X379239Y11781D01*
X379284Y11835D01*
X379332Y11885D01*
X379382Y11933D01*
X379436Y11978D01*
X379491Y12020D01*
X379549Y12059D01*
X379609Y12094D01*
X379671Y12126D01*
X379735Y12154D01*
X379800Y12179D01*
X379866Y12200D01*
X379934Y12218D01*
X380002Y12231D01*
X380071Y12241D01*
X380140Y12247D01*
X380210Y12249D01*
X380280Y12247D01*
X380349Y12241D01*
X380418Y12231D01*
X380486Y12218D01*
X380554Y12200D01*
X380620Y12179D01*
X380685Y12154D01*
X380749Y12126D01*
X380811Y12094D01*
X380871Y12059D01*
X380929Y12020D01*
X380984Y11978D01*
X381038Y11933D01*
X381088Y11885D01*
X381136Y11835D01*
X381181Y11781D01*
X381223Y11726D01*
X381262Y11668D01*
X381297Y11608D01*
X381329Y11546D01*
X381357Y11482D01*
X381382Y11417D01*
X381403Y11351D01*
X381421Y11283D01*
X381434Y11215D01*
X381444Y11146D01*
X381450Y11077D01*
X381452Y11007D01*
X381452Y9765D01*
X378968Y14320D02*
X384556Y16183D01*
X378968Y18045D01*
X384556Y20117D02*
X384556Y21669D01*
X384554Y21746D01*
X384548Y21824D01*
X384539Y21900D01*
X384525Y21977D01*
X384508Y22052D01*
X384487Y22126D01*
X384462Y22200D01*
X384434Y22272D01*
X384402Y22342D01*
X384367Y22411D01*
X384328Y22478D01*
X384286Y22543D01*
X384241Y22606D01*
X384193Y22667D01*
X384142Y22725D01*
X384088Y22780D01*
X384031Y22833D01*
X383972Y22882D01*
X383910Y22929D01*
X383846Y22973D01*
X383780Y23013D01*
X383712Y23050D01*
X383642Y23084D01*
X383571Y23114D01*
X383498Y23140D01*
X383424Y23163D01*
X383349Y23182D01*
X383274Y23197D01*
X383197Y23209D01*
X383120Y23217D01*
X383043Y23221D01*
X382965Y23221D01*
X382888Y23217D01*
X382811Y23209D01*
X382734Y23197D01*
X382659Y23182D01*
X382584Y23163D01*
X382510Y23140D01*
X382437Y23114D01*
X382366Y23084D01*
X382296Y23050D01*
X382228Y23013D01*
X382162Y22973D01*
X382098Y22929D01*
X382036Y22882D01*
X381977Y22833D01*
X381920Y22780D01*
X381866Y22725D01*
X381815Y22667D01*
X381767Y22606D01*
X381722Y22543D01*
X381680Y22478D01*
X381641Y22411D01*
X381606Y22342D01*
X381574Y22272D01*
X381546Y22200D01*
X381521Y22126D01*
X381500Y22052D01*
X381483Y21977D01*
X381469Y21900D01*
X381460Y21824D01*
X381454Y21746D01*
X381452Y21669D01*
X378968Y21979D02*
X378968Y20117D01*
X378968Y21979D02*
X378970Y22049D01*
X378976Y22118D01*
X378986Y22187D01*
X378999Y22255D01*
X379017Y22323D01*
X379038Y22389D01*
X379063Y22454D01*
X379091Y22518D01*
X379123Y22580D01*
X379158Y22640D01*
X379197Y22698D01*
X379239Y22753D01*
X379284Y22807D01*
X379332Y22857D01*
X379382Y22905D01*
X379436Y22950D01*
X379491Y22992D01*
X379549Y23031D01*
X379609Y23066D01*
X379671Y23098D01*
X379735Y23126D01*
X379800Y23151D01*
X379866Y23172D01*
X379934Y23190D01*
X380002Y23203D01*
X380071Y23213D01*
X380140Y23219D01*
X380210Y23221D01*
X380280Y23219D01*
X380349Y23213D01*
X380418Y23203D01*
X380486Y23190D01*
X380554Y23172D01*
X380620Y23151D01*
X380685Y23126D01*
X380749Y23098D01*
X380811Y23066D01*
X380871Y23031D01*
X380929Y22992D01*
X380984Y22950D01*
X381038Y22905D01*
X381088Y22857D01*
X381136Y22807D01*
X381181Y22753D01*
X381223Y22698D01*
X381262Y22640D01*
X381297Y22580D01*
X381329Y22518D01*
X381357Y22454D01*
X381382Y22389D01*
X381403Y22323D01*
X381421Y22255D01*
X381434Y22187D01*
X381444Y22118D01*
X381450Y22049D01*
X381452Y21979D01*
X381452Y20738D01*
X356052Y9708D02*
X356052Y8777D01*
X356052Y9708D02*
X359156Y9708D01*
X359156Y7846D01*
X359154Y7776D01*
X359148Y7707D01*
X359138Y7638D01*
X359125Y7570D01*
X359107Y7502D01*
X359086Y7436D01*
X359061Y7371D01*
X359033Y7307D01*
X359001Y7245D01*
X358966Y7185D01*
X358927Y7127D01*
X358885Y7072D01*
X358840Y7018D01*
X358792Y6968D01*
X358742Y6920D01*
X358688Y6875D01*
X358633Y6833D01*
X358575Y6794D01*
X358515Y6759D01*
X358453Y6727D01*
X358389Y6699D01*
X358324Y6674D01*
X358258Y6653D01*
X358190Y6635D01*
X358122Y6622D01*
X358053Y6612D01*
X357984Y6606D01*
X357914Y6604D01*
X354810Y6604D01*
X354740Y6606D01*
X354671Y6612D01*
X354602Y6622D01*
X354534Y6635D01*
X354466Y6653D01*
X354400Y6674D01*
X354335Y6699D01*
X354271Y6727D01*
X354209Y6759D01*
X354149Y6794D01*
X354091Y6833D01*
X354036Y6875D01*
X353982Y6920D01*
X353932Y6968D01*
X353884Y7018D01*
X353839Y7072D01*
X353797Y7127D01*
X353758Y7185D01*
X353723Y7245D01*
X353691Y7307D01*
X353663Y7371D01*
X353638Y7436D01*
X353617Y7502D01*
X353599Y7570D01*
X353586Y7638D01*
X353576Y7707D01*
X353570Y7776D01*
X353568Y7846D01*
X353568Y9708D01*
X353568Y12456D02*
X359156Y12456D01*
X359156Y15561D02*
X353568Y12456D01*
X353568Y15561D02*
X359156Y15561D01*
X359156Y18308D02*
X353568Y18308D01*
X353568Y19860D01*
X353570Y19936D01*
X353575Y20012D01*
X353585Y20088D01*
X353598Y20163D01*
X353615Y20237D01*
X353635Y20311D01*
X353659Y20383D01*
X353686Y20454D01*
X353717Y20524D01*
X353751Y20592D01*
X353789Y20658D01*
X353830Y20722D01*
X353873Y20785D01*
X353920Y20845D01*
X353970Y20902D01*
X354023Y20957D01*
X354078Y21010D01*
X354135Y21060D01*
X354195Y21107D01*
X354258Y21150D01*
X354322Y21191D01*
X354388Y21229D01*
X354456Y21263D01*
X354526Y21294D01*
X354597Y21321D01*
X354670Y21345D01*
X354743Y21365D01*
X354817Y21382D01*
X354892Y21395D01*
X354968Y21405D01*
X355044Y21410D01*
X355120Y21412D01*
X355120Y21413D02*
X357604Y21413D01*
X357604Y21412D02*
X357680Y21410D01*
X357756Y21405D01*
X357832Y21395D01*
X357907Y21382D01*
X357981Y21365D01*
X358055Y21345D01*
X358127Y21321D01*
X358198Y21294D01*
X358268Y21263D01*
X358336Y21229D01*
X358402Y21191D01*
X358466Y21150D01*
X358529Y21107D01*
X358589Y21060D01*
X358646Y21010D01*
X358701Y20957D01*
X358754Y20902D01*
X358804Y20845D01*
X358851Y20785D01*
X358894Y20722D01*
X358935Y20658D01*
X358973Y20592D01*
X359007Y20524D01*
X359038Y20454D01*
X359065Y20383D01*
X359089Y20311D01*
X359109Y20237D01*
X359126Y20163D01*
X359139Y20088D01*
X359149Y20012D01*
X359154Y19936D01*
X359156Y19860D01*
X359156Y18308D01*
D12*
X273050Y304800D02*
X260350Y304800D01*
X254000Y311150D01*
X254000Y323850D01*
X260350Y330200D01*
X254000Y311150D02*
X247650Y304800D01*
X234950Y304800D01*
X228600Y311150D01*
X228600Y323850D01*
X234950Y330200D01*
X247650Y330200D01*
X254000Y323850D01*
X279400Y323850D02*
X279400Y311150D01*
X273050Y304800D01*
X279400Y323850D02*
X273050Y330200D01*
X260350Y330200D01*
X228600Y311150D02*
X222250Y304800D01*
X209550Y304800D01*
X203200Y311150D01*
X203200Y323850D01*
X209550Y330200D01*
X222250Y330200D01*
X228600Y323850D01*
D13*
X215138Y337947D02*
X215138Y349377D01*
X218313Y349377D01*
X218424Y349375D01*
X218534Y349369D01*
X218645Y349360D01*
X218755Y349346D01*
X218864Y349329D01*
X218973Y349308D01*
X219081Y349283D01*
X219188Y349254D01*
X219294Y349222D01*
X219399Y349186D01*
X219502Y349146D01*
X219604Y349103D01*
X219705Y349056D01*
X219804Y349005D01*
X219901Y348952D01*
X219995Y348895D01*
X220088Y348834D01*
X220179Y348771D01*
X220268Y348704D01*
X220354Y348634D01*
X220437Y348561D01*
X220519Y348486D01*
X220597Y348408D01*
X220672Y348326D01*
X220745Y348243D01*
X220815Y348157D01*
X220882Y348068D01*
X220945Y347977D01*
X221006Y347884D01*
X221063Y347790D01*
X221116Y347693D01*
X221167Y347594D01*
X221214Y347493D01*
X221257Y347391D01*
X221297Y347288D01*
X221333Y347183D01*
X221365Y347077D01*
X221394Y346970D01*
X221419Y346862D01*
X221440Y346753D01*
X221457Y346644D01*
X221471Y346534D01*
X221480Y346423D01*
X221486Y346313D01*
X221488Y346202D01*
X221488Y341122D01*
X221486Y341011D01*
X221480Y340901D01*
X221471Y340790D01*
X221457Y340680D01*
X221440Y340571D01*
X221419Y340462D01*
X221394Y340354D01*
X221365Y340247D01*
X221333Y340141D01*
X221297Y340036D01*
X221257Y339933D01*
X221214Y339831D01*
X221167Y339730D01*
X221116Y339631D01*
X221063Y339534D01*
X221006Y339440D01*
X220945Y339347D01*
X220882Y339256D01*
X220815Y339167D01*
X220745Y339081D01*
X220672Y338998D01*
X220597Y338916D01*
X220519Y338838D01*
X220437Y338763D01*
X220354Y338690D01*
X220268Y338620D01*
X220179Y338553D01*
X220088Y338490D01*
X219995Y338429D01*
X219900Y338372D01*
X219804Y338319D01*
X219705Y338268D01*
X219604Y338221D01*
X219502Y338178D01*
X219399Y338138D01*
X219294Y338102D01*
X219188Y338070D01*
X219081Y338041D01*
X218973Y338016D01*
X218864Y337995D01*
X218755Y337978D01*
X218645Y337964D01*
X218534Y337955D01*
X218424Y337949D01*
X218313Y337947D01*
X215138Y337947D01*
X227330Y337947D02*
X227330Y349377D01*
X227330Y344297D02*
X233680Y344297D01*
X233680Y349377D02*
X233680Y337947D01*
X241554Y337947D02*
X241554Y349377D01*
X238379Y349377D02*
X244729Y349377D01*
X252540Y349378D02*
X252644Y349376D01*
X252749Y349370D01*
X252853Y349361D01*
X252956Y349348D01*
X253059Y349330D01*
X253161Y349310D01*
X253263Y349285D01*
X253363Y349257D01*
X253463Y349225D01*
X253561Y349189D01*
X253658Y349150D01*
X253753Y349108D01*
X253847Y349062D01*
X253939Y349012D01*
X254029Y348960D01*
X254117Y348904D01*
X254203Y348844D01*
X254287Y348782D01*
X254368Y348717D01*
X254447Y348649D01*
X254524Y348577D01*
X254597Y348504D01*
X254669Y348427D01*
X254737Y348348D01*
X254802Y348267D01*
X254864Y348183D01*
X254924Y348097D01*
X254980Y348009D01*
X255032Y347919D01*
X255082Y347827D01*
X255128Y347733D01*
X255170Y347638D01*
X255209Y347541D01*
X255245Y347443D01*
X255277Y347343D01*
X255305Y347243D01*
X255330Y347141D01*
X255350Y347039D01*
X255368Y346936D01*
X255381Y346833D01*
X255390Y346729D01*
X255396Y346624D01*
X255398Y346520D01*
X252540Y349377D02*
X252422Y349375D01*
X252303Y349369D01*
X252185Y349360D01*
X252068Y349347D01*
X251951Y349329D01*
X251834Y349309D01*
X251718Y349284D01*
X251603Y349256D01*
X251490Y349223D01*
X251377Y349188D01*
X251265Y349148D01*
X251155Y349106D01*
X251046Y349059D01*
X250938Y349009D01*
X250833Y348956D01*
X250729Y348899D01*
X250627Y348839D01*
X250527Y348776D01*
X250429Y348709D01*
X250333Y348640D01*
X250240Y348567D01*
X250149Y348491D01*
X250060Y348413D01*
X249974Y348331D01*
X249891Y348247D01*
X249810Y348161D01*
X249733Y348071D01*
X249658Y347980D01*
X249586Y347886D01*
X249517Y347789D01*
X249452Y347691D01*
X249389Y347590D01*
X249330Y347487D01*
X249274Y347383D01*
X249222Y347277D01*
X249173Y347169D01*
X249128Y347060D01*
X249086Y346949D01*
X249048Y346837D01*
X254445Y344298D02*
X254521Y344373D01*
X254596Y344452D01*
X254667Y344533D01*
X254736Y344617D01*
X254801Y344703D01*
X254863Y344791D01*
X254923Y344881D01*
X254979Y344973D01*
X255032Y345068D01*
X255081Y345164D01*
X255127Y345262D01*
X255170Y345361D01*
X255209Y345462D01*
X255244Y345564D01*
X255276Y345667D01*
X255304Y345771D01*
X255329Y345876D01*
X255350Y345983D01*
X255367Y346089D01*
X255380Y346196D01*
X255389Y346304D01*
X255395Y346412D01*
X255397Y346520D01*
X254445Y344297D02*
X249047Y337947D01*
X255397Y337947D01*
X266828Y346520D02*
X266826Y346624D01*
X266820Y346729D01*
X266811Y346833D01*
X266798Y346936D01*
X266780Y347039D01*
X266760Y347141D01*
X266735Y347243D01*
X266707Y347343D01*
X266675Y347443D01*
X266639Y347541D01*
X266600Y347638D01*
X266558Y347733D01*
X266512Y347827D01*
X266462Y347919D01*
X266410Y348009D01*
X266354Y348097D01*
X266294Y348183D01*
X266232Y348267D01*
X266167Y348348D01*
X266099Y348427D01*
X266027Y348504D01*
X265954Y348577D01*
X265877Y348649D01*
X265798Y348717D01*
X265717Y348782D01*
X265633Y348844D01*
X265547Y348904D01*
X265459Y348960D01*
X265369Y349012D01*
X265277Y349062D01*
X265183Y349108D01*
X265088Y349150D01*
X264991Y349189D01*
X264893Y349225D01*
X264793Y349257D01*
X264693Y349285D01*
X264591Y349310D01*
X264489Y349330D01*
X264386Y349348D01*
X264283Y349361D01*
X264179Y349370D01*
X264074Y349376D01*
X263970Y349378D01*
X263970Y349377D02*
X263852Y349375D01*
X263733Y349369D01*
X263615Y349360D01*
X263498Y349347D01*
X263381Y349329D01*
X263264Y349309D01*
X263148Y349284D01*
X263033Y349256D01*
X262920Y349223D01*
X262807Y349188D01*
X262695Y349148D01*
X262585Y349106D01*
X262476Y349059D01*
X262368Y349009D01*
X262263Y348956D01*
X262159Y348899D01*
X262057Y348839D01*
X261957Y348776D01*
X261859Y348709D01*
X261763Y348640D01*
X261670Y348567D01*
X261579Y348491D01*
X261490Y348413D01*
X261404Y348331D01*
X261321Y348247D01*
X261240Y348161D01*
X261163Y348071D01*
X261088Y347980D01*
X261016Y347886D01*
X260947Y347789D01*
X260882Y347691D01*
X260819Y347590D01*
X260760Y347487D01*
X260704Y347383D01*
X260652Y347277D01*
X260603Y347169D01*
X260558Y347060D01*
X260516Y346949D01*
X260478Y346837D01*
X265875Y344298D02*
X265951Y344373D01*
X266026Y344452D01*
X266097Y344533D01*
X266166Y344617D01*
X266231Y344703D01*
X266293Y344791D01*
X266353Y344881D01*
X266409Y344973D01*
X266462Y345068D01*
X266511Y345164D01*
X266557Y345262D01*
X266600Y345361D01*
X266639Y345462D01*
X266674Y345564D01*
X266706Y345667D01*
X266734Y345771D01*
X266759Y345876D01*
X266780Y345983D01*
X266797Y346089D01*
X266810Y346196D01*
X266819Y346304D01*
X266825Y346412D01*
X266827Y346520D01*
X265875Y344297D02*
X260477Y337947D01*
X266827Y337947D01*
D12*
X336550Y177800D02*
X330200Y171450D01*
X336550Y177800D02*
X349250Y177800D01*
X355600Y171450D01*
X355600Y158750D01*
X349250Y152400D01*
X336550Y152400D01*
X330200Y158750D01*
X298450Y177800D02*
X285750Y177800D01*
X298450Y177800D02*
X304800Y171450D01*
X304800Y158750D01*
X298450Y152400D01*
X304800Y171450D02*
X311150Y177800D01*
X323850Y177800D01*
X330200Y171450D01*
X330200Y158750D01*
X323850Y152400D01*
X311150Y152400D01*
X304800Y158750D01*
X260350Y177800D02*
X254000Y171450D01*
X260350Y177800D02*
X273050Y177800D01*
X279400Y171450D01*
X279400Y158750D01*
X273050Y152400D01*
X260350Y152400D01*
X254000Y158750D01*
X279400Y171450D02*
X285750Y177800D01*
X279400Y158750D02*
X285750Y152400D01*
X298450Y152400D01*
X222250Y177800D02*
X209550Y177800D01*
X222250Y177800D02*
X228600Y171450D01*
X228600Y158750D01*
X222250Y152400D01*
X228600Y171450D02*
X234950Y177800D01*
X247650Y177800D01*
X254000Y171450D01*
X254000Y158750D01*
X247650Y152400D01*
X234950Y152400D01*
X228600Y158750D01*
X184150Y177800D02*
X177800Y171450D01*
X184150Y177800D02*
X196850Y177800D01*
X203200Y171450D01*
X203200Y158750D01*
X196850Y152400D01*
X184150Y152400D01*
X177800Y158750D01*
X203200Y171450D02*
X209550Y177800D01*
X203200Y158750D02*
X209550Y152400D01*
X222250Y152400D01*
X146050Y177800D02*
X133350Y177800D01*
X146050Y177800D02*
X152400Y171450D01*
X152400Y158750D01*
X146050Y152400D01*
X152400Y171450D02*
X158750Y177800D01*
X171450Y177800D01*
X177800Y171450D01*
X177800Y158750D01*
X171450Y152400D01*
X158750Y152400D01*
X152400Y158750D01*
X107950Y177800D02*
X101600Y171450D01*
X107950Y177800D02*
X120650Y177800D01*
X127000Y171450D01*
X127000Y158750D01*
X120650Y152400D01*
X107950Y152400D01*
X101600Y158750D01*
X127000Y171450D02*
X133350Y177800D01*
X127000Y158750D02*
X133350Y152400D01*
X146050Y152400D01*
X69850Y177800D02*
X57150Y177800D01*
X69850Y177800D02*
X76200Y171450D01*
X76200Y158750D01*
X69850Y152400D01*
X76200Y171450D02*
X82550Y177800D01*
X95250Y177800D01*
X101600Y171450D01*
X101600Y158750D01*
X95250Y152400D01*
X82550Y152400D01*
X76200Y158750D01*
X50800Y158750D02*
X50800Y171450D01*
X57150Y177800D01*
X50800Y158750D02*
X57150Y152400D01*
X69850Y152400D01*
X355600Y171450D02*
X361950Y177800D01*
X374650Y177800D01*
X381000Y171450D01*
X381000Y158750D01*
X374650Y152400D01*
X361950Y152400D01*
X355600Y158750D01*
D13*
X54483Y186563D02*
X54483Y195453D01*
X54483Y186563D02*
X54481Y186463D01*
X54475Y186364D01*
X54465Y186264D01*
X54452Y186166D01*
X54434Y186067D01*
X54413Y185970D01*
X54388Y185874D01*
X54359Y185778D01*
X54326Y185684D01*
X54290Y185591D01*
X54250Y185500D01*
X54206Y185410D01*
X54159Y185322D01*
X54109Y185236D01*
X54055Y185152D01*
X53998Y185070D01*
X53938Y184991D01*
X53874Y184913D01*
X53808Y184839D01*
X53739Y184767D01*
X53667Y184698D01*
X53593Y184632D01*
X53515Y184568D01*
X53436Y184508D01*
X53354Y184451D01*
X53270Y184397D01*
X53184Y184347D01*
X53096Y184300D01*
X53006Y184256D01*
X52915Y184216D01*
X52822Y184180D01*
X52728Y184147D01*
X52632Y184118D01*
X52536Y184093D01*
X52439Y184072D01*
X52340Y184054D01*
X52242Y184041D01*
X52142Y184031D01*
X52043Y184025D01*
X51943Y184023D01*
X50673Y184023D01*
X60463Y184023D02*
X60463Y195453D01*
X63638Y195453D01*
X63749Y195451D01*
X63859Y195445D01*
X63970Y195436D01*
X64080Y195422D01*
X64189Y195405D01*
X64298Y195384D01*
X64406Y195359D01*
X64513Y195330D01*
X64619Y195298D01*
X64724Y195262D01*
X64827Y195222D01*
X64929Y195179D01*
X65030Y195132D01*
X65129Y195081D01*
X65226Y195028D01*
X65320Y194971D01*
X65413Y194910D01*
X65504Y194847D01*
X65593Y194780D01*
X65679Y194710D01*
X65762Y194637D01*
X65844Y194562D01*
X65922Y194484D01*
X65997Y194402D01*
X66070Y194319D01*
X66140Y194233D01*
X66207Y194144D01*
X66270Y194053D01*
X66331Y193960D01*
X66388Y193865D01*
X66441Y193769D01*
X66492Y193670D01*
X66539Y193569D01*
X66582Y193467D01*
X66622Y193364D01*
X66658Y193259D01*
X66690Y193153D01*
X66719Y193046D01*
X66744Y192938D01*
X66765Y192829D01*
X66782Y192720D01*
X66796Y192610D01*
X66805Y192499D01*
X66811Y192389D01*
X66813Y192278D01*
X66811Y192167D01*
X66805Y192057D01*
X66796Y191946D01*
X66782Y191836D01*
X66765Y191727D01*
X66744Y191618D01*
X66719Y191510D01*
X66690Y191403D01*
X66658Y191297D01*
X66622Y191192D01*
X66582Y191089D01*
X66539Y190987D01*
X66492Y190886D01*
X66441Y190787D01*
X66388Y190690D01*
X66331Y190596D01*
X66270Y190503D01*
X66207Y190412D01*
X66140Y190323D01*
X66070Y190237D01*
X65997Y190154D01*
X65922Y190072D01*
X65844Y189994D01*
X65762Y189919D01*
X65679Y189846D01*
X65593Y189776D01*
X65504Y189709D01*
X65413Y189646D01*
X65320Y189585D01*
X65225Y189528D01*
X65129Y189475D01*
X65030Y189424D01*
X64929Y189377D01*
X64827Y189334D01*
X64724Y189294D01*
X64619Y189258D01*
X64513Y189226D01*
X64406Y189197D01*
X64298Y189172D01*
X64189Y189151D01*
X64080Y189134D01*
X63970Y189120D01*
X63859Y189111D01*
X63749Y189105D01*
X63638Y189103D01*
X60463Y189103D01*
X71322Y192913D02*
X74497Y195453D01*
X74497Y184023D01*
X71322Y184023D02*
X77672Y184023D01*
D12*
X330200Y425450D02*
X336550Y431800D01*
X349250Y431800D01*
X355600Y425450D01*
X355600Y412750D01*
X349250Y406400D01*
X336550Y406400D01*
X330200Y412750D01*
X298450Y431800D02*
X285750Y431800D01*
X298450Y431800D02*
X304800Y425450D01*
X304800Y412750D01*
X298450Y406400D01*
X304800Y425450D02*
X311150Y431800D01*
X323850Y431800D01*
X330200Y425450D01*
X330200Y412750D01*
X323850Y406400D01*
X311150Y406400D01*
X304800Y412750D01*
X260350Y431800D02*
X254000Y425450D01*
X260350Y431800D02*
X273050Y431800D01*
X279400Y425450D01*
X279400Y412750D01*
X273050Y406400D01*
X260350Y406400D01*
X254000Y412750D01*
X279400Y425450D02*
X285750Y431800D01*
X279400Y412750D02*
X285750Y406400D01*
X298450Y406400D01*
X222250Y431800D02*
X209550Y431800D01*
X222250Y431800D02*
X228600Y425450D01*
X228600Y412750D01*
X222250Y406400D01*
X228600Y425450D02*
X234950Y431800D01*
X247650Y431800D01*
X254000Y425450D01*
X254000Y412750D01*
X247650Y406400D01*
X234950Y406400D01*
X228600Y412750D01*
X184150Y431800D02*
X177800Y425450D01*
X184150Y431800D02*
X196850Y431800D01*
X203200Y425450D01*
X203200Y412750D01*
X196850Y406400D01*
X184150Y406400D01*
X177800Y412750D01*
X203200Y425450D02*
X209550Y431800D01*
X203200Y412750D02*
X209550Y406400D01*
X222250Y406400D01*
X146050Y431800D02*
X133350Y431800D01*
X146050Y431800D02*
X152400Y425450D01*
X152400Y412750D01*
X146050Y406400D01*
X152400Y425450D02*
X158750Y431800D01*
X171450Y431800D01*
X177800Y425450D01*
X177800Y412750D01*
X171450Y406400D01*
X158750Y406400D01*
X152400Y412750D01*
X107950Y431800D02*
X101600Y425450D01*
X107950Y431800D02*
X120650Y431800D01*
X127000Y425450D01*
X127000Y412750D01*
X120650Y406400D01*
X107950Y406400D01*
X101600Y412750D01*
X127000Y425450D02*
X133350Y431800D01*
X127000Y412750D02*
X133350Y406400D01*
X146050Y406400D01*
X69850Y431800D02*
X57150Y431800D01*
X69850Y431800D02*
X76200Y425450D01*
X76200Y412750D01*
X69850Y406400D01*
X76200Y425450D02*
X82550Y431800D01*
X95250Y431800D01*
X101600Y425450D01*
X101600Y412750D01*
X95250Y406400D01*
X82550Y406400D01*
X76200Y412750D01*
X50800Y412750D02*
X50800Y425450D01*
X57150Y431800D01*
X50800Y412750D02*
X57150Y406400D01*
X69850Y406400D01*
X355600Y425450D02*
X361950Y431800D01*
X374650Y431800D01*
X381000Y425450D01*
X381000Y412750D01*
X374650Y406400D01*
X361950Y406400D01*
X355600Y412750D01*
D13*
X54483Y440563D02*
X54483Y449453D01*
X54483Y440563D02*
X54481Y440463D01*
X54475Y440364D01*
X54465Y440264D01*
X54452Y440166D01*
X54434Y440067D01*
X54413Y439970D01*
X54388Y439874D01*
X54359Y439778D01*
X54326Y439684D01*
X54290Y439591D01*
X54250Y439500D01*
X54206Y439410D01*
X54159Y439322D01*
X54109Y439236D01*
X54055Y439152D01*
X53998Y439070D01*
X53938Y438991D01*
X53874Y438913D01*
X53808Y438839D01*
X53739Y438767D01*
X53667Y438698D01*
X53593Y438632D01*
X53515Y438568D01*
X53436Y438508D01*
X53354Y438451D01*
X53270Y438397D01*
X53184Y438347D01*
X53096Y438300D01*
X53006Y438256D01*
X52915Y438216D01*
X52822Y438180D01*
X52728Y438147D01*
X52632Y438118D01*
X52536Y438093D01*
X52439Y438072D01*
X52340Y438054D01*
X52242Y438041D01*
X52142Y438031D01*
X52043Y438025D01*
X51943Y438023D01*
X50673Y438023D01*
X60463Y438023D02*
X60463Y449453D01*
X63638Y449453D01*
X63749Y449451D01*
X63859Y449445D01*
X63970Y449436D01*
X64080Y449422D01*
X64189Y449405D01*
X64298Y449384D01*
X64406Y449359D01*
X64513Y449330D01*
X64619Y449298D01*
X64724Y449262D01*
X64827Y449222D01*
X64929Y449179D01*
X65030Y449132D01*
X65129Y449081D01*
X65226Y449028D01*
X65320Y448971D01*
X65413Y448910D01*
X65504Y448847D01*
X65593Y448780D01*
X65679Y448710D01*
X65762Y448637D01*
X65844Y448562D01*
X65922Y448484D01*
X65997Y448402D01*
X66070Y448319D01*
X66140Y448233D01*
X66207Y448144D01*
X66270Y448053D01*
X66331Y447960D01*
X66388Y447865D01*
X66441Y447769D01*
X66492Y447670D01*
X66539Y447569D01*
X66582Y447467D01*
X66622Y447364D01*
X66658Y447259D01*
X66690Y447153D01*
X66719Y447046D01*
X66744Y446938D01*
X66765Y446829D01*
X66782Y446720D01*
X66796Y446610D01*
X66805Y446499D01*
X66811Y446389D01*
X66813Y446278D01*
X66811Y446167D01*
X66805Y446057D01*
X66796Y445946D01*
X66782Y445836D01*
X66765Y445727D01*
X66744Y445618D01*
X66719Y445510D01*
X66690Y445403D01*
X66658Y445297D01*
X66622Y445192D01*
X66582Y445089D01*
X66539Y444987D01*
X66492Y444886D01*
X66441Y444787D01*
X66388Y444690D01*
X66331Y444596D01*
X66270Y444503D01*
X66207Y444412D01*
X66140Y444323D01*
X66070Y444237D01*
X65997Y444154D01*
X65922Y444072D01*
X65844Y443994D01*
X65762Y443919D01*
X65679Y443846D01*
X65593Y443776D01*
X65504Y443709D01*
X65413Y443646D01*
X65320Y443585D01*
X65225Y443528D01*
X65129Y443475D01*
X65030Y443424D01*
X64929Y443377D01*
X64827Y443334D01*
X64724Y443294D01*
X64619Y443258D01*
X64513Y443226D01*
X64406Y443197D01*
X64298Y443172D01*
X64189Y443151D01*
X64080Y443134D01*
X63970Y443120D01*
X63859Y443111D01*
X63749Y443105D01*
X63638Y443103D01*
X60463Y443103D01*
X74814Y449454D02*
X74918Y449452D01*
X75023Y449446D01*
X75127Y449437D01*
X75230Y449424D01*
X75333Y449406D01*
X75435Y449386D01*
X75537Y449361D01*
X75637Y449333D01*
X75737Y449301D01*
X75835Y449265D01*
X75932Y449226D01*
X76027Y449184D01*
X76121Y449138D01*
X76213Y449088D01*
X76303Y449036D01*
X76391Y448980D01*
X76477Y448920D01*
X76561Y448858D01*
X76642Y448793D01*
X76721Y448725D01*
X76798Y448653D01*
X76871Y448580D01*
X76943Y448503D01*
X77011Y448424D01*
X77076Y448343D01*
X77138Y448259D01*
X77198Y448173D01*
X77254Y448085D01*
X77306Y447995D01*
X77356Y447903D01*
X77402Y447809D01*
X77444Y447714D01*
X77483Y447617D01*
X77519Y447519D01*
X77551Y447419D01*
X77579Y447319D01*
X77604Y447217D01*
X77624Y447115D01*
X77642Y447012D01*
X77655Y446909D01*
X77664Y446805D01*
X77670Y446700D01*
X77672Y446596D01*
X74814Y449453D02*
X74696Y449451D01*
X74577Y449445D01*
X74459Y449436D01*
X74342Y449423D01*
X74225Y449405D01*
X74108Y449385D01*
X73992Y449360D01*
X73877Y449332D01*
X73764Y449299D01*
X73651Y449264D01*
X73539Y449224D01*
X73429Y449182D01*
X73320Y449135D01*
X73212Y449085D01*
X73107Y449032D01*
X73003Y448975D01*
X72901Y448915D01*
X72801Y448852D01*
X72703Y448785D01*
X72607Y448716D01*
X72514Y448643D01*
X72423Y448567D01*
X72334Y448489D01*
X72248Y448407D01*
X72165Y448323D01*
X72084Y448237D01*
X72007Y448147D01*
X71932Y448056D01*
X71860Y447962D01*
X71791Y447865D01*
X71726Y447767D01*
X71663Y447666D01*
X71604Y447563D01*
X71548Y447459D01*
X71496Y447353D01*
X71447Y447245D01*
X71402Y447136D01*
X71360Y447025D01*
X71322Y446913D01*
X76720Y444374D02*
X76796Y444449D01*
X76871Y444528D01*
X76942Y444609D01*
X77011Y444693D01*
X77076Y444779D01*
X77138Y444867D01*
X77198Y444957D01*
X77254Y445049D01*
X77307Y445144D01*
X77356Y445240D01*
X77402Y445338D01*
X77445Y445437D01*
X77484Y445538D01*
X77519Y445640D01*
X77551Y445743D01*
X77579Y445847D01*
X77604Y445952D01*
X77625Y446059D01*
X77642Y446165D01*
X77655Y446272D01*
X77664Y446380D01*
X77670Y446488D01*
X77672Y446596D01*
X76719Y444373D02*
X71322Y438023D01*
X77672Y438023D01*
D12*
X107900Y242750D02*
X171500Y242750D01*
X171500Y265250D02*
X107900Y265250D01*
X107900Y242750D01*
X171500Y242750D02*
X171500Y265250D01*
D14*
X104375Y254000D03*
X175025Y254000D03*
D13*
X128905Y239395D02*
X128905Y227965D01*
X128905Y239395D02*
X132080Y239395D01*
X132191Y239393D01*
X132301Y239387D01*
X132412Y239378D01*
X132522Y239364D01*
X132631Y239347D01*
X132740Y239326D01*
X132848Y239301D01*
X132955Y239272D01*
X133061Y239240D01*
X133166Y239204D01*
X133269Y239164D01*
X133371Y239121D01*
X133472Y239074D01*
X133571Y239023D01*
X133668Y238970D01*
X133762Y238913D01*
X133855Y238852D01*
X133946Y238789D01*
X134035Y238722D01*
X134121Y238652D01*
X134204Y238579D01*
X134286Y238504D01*
X134364Y238426D01*
X134439Y238344D01*
X134512Y238261D01*
X134582Y238175D01*
X134649Y238086D01*
X134712Y237995D01*
X134773Y237902D01*
X134830Y237807D01*
X134883Y237711D01*
X134934Y237612D01*
X134981Y237511D01*
X135024Y237409D01*
X135064Y237306D01*
X135100Y237201D01*
X135132Y237095D01*
X135161Y236988D01*
X135186Y236880D01*
X135207Y236771D01*
X135224Y236662D01*
X135238Y236552D01*
X135247Y236441D01*
X135253Y236331D01*
X135255Y236220D01*
X135253Y236109D01*
X135247Y235999D01*
X135238Y235888D01*
X135224Y235778D01*
X135207Y235669D01*
X135186Y235560D01*
X135161Y235452D01*
X135132Y235345D01*
X135100Y235239D01*
X135064Y235134D01*
X135024Y235031D01*
X134981Y234929D01*
X134934Y234828D01*
X134883Y234729D01*
X134830Y234632D01*
X134773Y234538D01*
X134712Y234445D01*
X134649Y234354D01*
X134582Y234265D01*
X134512Y234179D01*
X134439Y234096D01*
X134364Y234014D01*
X134286Y233936D01*
X134204Y233861D01*
X134121Y233788D01*
X134035Y233718D01*
X133946Y233651D01*
X133855Y233588D01*
X133762Y233527D01*
X133667Y233470D01*
X133571Y233417D01*
X133472Y233366D01*
X133371Y233319D01*
X133269Y233276D01*
X133166Y233236D01*
X133061Y233200D01*
X132955Y233168D01*
X132848Y233139D01*
X132740Y233114D01*
X132631Y233093D01*
X132522Y233076D01*
X132412Y233062D01*
X132301Y233053D01*
X132191Y233047D01*
X132080Y233045D01*
X128905Y233045D01*
X132715Y233045D02*
X135255Y227965D01*
X146603Y236538D02*
X146601Y236642D01*
X146595Y236747D01*
X146586Y236851D01*
X146573Y236954D01*
X146555Y237057D01*
X146535Y237159D01*
X146510Y237261D01*
X146482Y237361D01*
X146450Y237461D01*
X146414Y237559D01*
X146375Y237656D01*
X146333Y237751D01*
X146287Y237845D01*
X146237Y237937D01*
X146185Y238027D01*
X146129Y238115D01*
X146069Y238201D01*
X146007Y238285D01*
X145942Y238366D01*
X145874Y238445D01*
X145802Y238522D01*
X145729Y238595D01*
X145652Y238667D01*
X145573Y238735D01*
X145492Y238800D01*
X145408Y238862D01*
X145322Y238922D01*
X145234Y238978D01*
X145144Y239030D01*
X145052Y239080D01*
X144958Y239126D01*
X144863Y239168D01*
X144766Y239207D01*
X144668Y239243D01*
X144568Y239275D01*
X144468Y239303D01*
X144366Y239328D01*
X144264Y239348D01*
X144161Y239366D01*
X144058Y239379D01*
X143954Y239388D01*
X143849Y239394D01*
X143745Y239396D01*
X143745Y239395D02*
X143627Y239393D01*
X143508Y239387D01*
X143390Y239378D01*
X143273Y239365D01*
X143156Y239347D01*
X143039Y239327D01*
X142923Y239302D01*
X142808Y239274D01*
X142695Y239241D01*
X142582Y239206D01*
X142470Y239166D01*
X142360Y239124D01*
X142251Y239077D01*
X142143Y239027D01*
X142038Y238974D01*
X141934Y238917D01*
X141832Y238857D01*
X141732Y238794D01*
X141634Y238727D01*
X141538Y238658D01*
X141445Y238585D01*
X141354Y238509D01*
X141265Y238431D01*
X141179Y238349D01*
X141096Y238265D01*
X141015Y238179D01*
X140938Y238089D01*
X140863Y237998D01*
X140791Y237904D01*
X140722Y237807D01*
X140657Y237709D01*
X140594Y237608D01*
X140535Y237505D01*
X140479Y237401D01*
X140427Y237295D01*
X140378Y237187D01*
X140333Y237078D01*
X140291Y236967D01*
X140253Y236855D01*
X145650Y234316D02*
X145726Y234391D01*
X145801Y234470D01*
X145872Y234551D01*
X145941Y234635D01*
X146006Y234721D01*
X146068Y234809D01*
X146128Y234899D01*
X146184Y234991D01*
X146237Y235086D01*
X146286Y235182D01*
X146332Y235280D01*
X146375Y235379D01*
X146414Y235480D01*
X146449Y235582D01*
X146481Y235685D01*
X146509Y235789D01*
X146534Y235894D01*
X146555Y236001D01*
X146572Y236107D01*
X146585Y236214D01*
X146594Y236322D01*
X146600Y236430D01*
X146602Y236538D01*
X145650Y234315D02*
X140252Y227965D01*
X146602Y227965D01*
X137286Y257398D02*
X137284Y257502D01*
X137278Y257607D01*
X137269Y257711D01*
X137256Y257814D01*
X137238Y257917D01*
X137218Y258019D01*
X137193Y258121D01*
X137165Y258221D01*
X137133Y258321D01*
X137097Y258419D01*
X137058Y258516D01*
X137016Y258611D01*
X136970Y258705D01*
X136920Y258797D01*
X136868Y258887D01*
X136812Y258975D01*
X136752Y259061D01*
X136690Y259145D01*
X136625Y259226D01*
X136557Y259305D01*
X136485Y259382D01*
X136412Y259455D01*
X136335Y259527D01*
X136256Y259595D01*
X136175Y259660D01*
X136091Y259722D01*
X136005Y259782D01*
X135917Y259838D01*
X135827Y259890D01*
X135735Y259940D01*
X135641Y259986D01*
X135546Y260028D01*
X135449Y260067D01*
X135351Y260103D01*
X135251Y260135D01*
X135151Y260163D01*
X135049Y260188D01*
X134947Y260208D01*
X134844Y260226D01*
X134741Y260239D01*
X134637Y260248D01*
X134532Y260254D01*
X134428Y260256D01*
X134428Y260255D02*
X134310Y260253D01*
X134191Y260247D01*
X134073Y260238D01*
X133956Y260225D01*
X133839Y260207D01*
X133722Y260187D01*
X133606Y260162D01*
X133491Y260134D01*
X133378Y260101D01*
X133265Y260066D01*
X133153Y260026D01*
X133043Y259984D01*
X132934Y259937D01*
X132826Y259887D01*
X132721Y259834D01*
X132617Y259777D01*
X132515Y259717D01*
X132415Y259654D01*
X132317Y259587D01*
X132221Y259518D01*
X132128Y259445D01*
X132037Y259369D01*
X131948Y259291D01*
X131862Y259209D01*
X131779Y259125D01*
X131698Y259039D01*
X131621Y258949D01*
X131546Y258858D01*
X131474Y258764D01*
X131405Y258667D01*
X131340Y258569D01*
X131277Y258468D01*
X131218Y258365D01*
X131162Y258261D01*
X131110Y258155D01*
X131061Y258047D01*
X131016Y257938D01*
X130974Y257827D01*
X130936Y257715D01*
X136333Y255176D02*
X136409Y255251D01*
X136484Y255330D01*
X136555Y255411D01*
X136624Y255495D01*
X136689Y255581D01*
X136751Y255669D01*
X136811Y255759D01*
X136867Y255851D01*
X136920Y255946D01*
X136969Y256042D01*
X137015Y256140D01*
X137058Y256239D01*
X137097Y256340D01*
X137132Y256442D01*
X137164Y256545D01*
X137192Y256649D01*
X137217Y256754D01*
X137238Y256861D01*
X137255Y256967D01*
X137268Y257074D01*
X137277Y257182D01*
X137283Y257290D01*
X137285Y257398D01*
X136333Y255175D02*
X130935Y248825D01*
X137285Y248825D01*
X142937Y248825D02*
X142937Y260255D01*
X149287Y260255D02*
X142937Y253270D01*
X145477Y255810D02*
X149287Y248825D01*
X161925Y301625D02*
X162282Y302175D01*
X162625Y302733D01*
X162954Y303300D01*
X163269Y303874D01*
X163571Y304456D01*
X163857Y305045D01*
X164130Y305641D01*
X164387Y306243D01*
X164630Y306852D01*
X164858Y307466D01*
X165070Y308086D01*
X165268Y308711D01*
X165450Y309341D01*
X165616Y309974D01*
X165767Y310612D01*
X165902Y311253D01*
X166022Y311897D01*
X166125Y312545D01*
X166213Y313194D01*
X166284Y313845D01*
X166340Y314498D01*
X166380Y315152D01*
X166403Y315807D01*
X166411Y316462D01*
X166402Y317117D01*
X166378Y317772D01*
X166337Y318426D01*
X166281Y319079D01*
X166208Y319730D01*
X166119Y320379D01*
X166015Y321026D01*
X165894Y321670D01*
X165758Y322311D01*
X165606Y322949D01*
X165439Y323582D01*
X165256Y324211D01*
X165058Y324836D01*
X164844Y325456D01*
X164616Y326070D01*
X164372Y326678D01*
X164113Y327280D01*
X163840Y327876D01*
X163553Y328464D01*
X163250Y329046D01*
X162934Y329620D01*
X162604Y330186D01*
X162260Y330743D01*
X161902Y331292D01*
X161531Y331832D01*
X161147Y332363D01*
X160750Y332885D01*
X160341Y333396D01*
X159919Y333897D01*
X159484Y334388D01*
X159038Y334868D01*
X158580Y335337D01*
X158111Y335794D01*
X157631Y336240D01*
X157140Y336674D01*
X156638Y337095D01*
X156127Y337505D01*
X155605Y337901D01*
X155074Y338285D01*
X154534Y338656D01*
X153984Y339013D01*
X153426Y339356D01*
X152860Y339686D01*
X152286Y340002D01*
X151704Y340304D01*
X151115Y340591D01*
X150520Y340864D01*
X149917Y341122D01*
X149309Y341365D01*
X148695Y341593D01*
X148075Y341806D01*
X147450Y342004D01*
X146821Y342186D01*
X146187Y342353D01*
X145550Y342505D01*
X144909Y342640D01*
X144264Y342760D01*
X143617Y342864D01*
X142968Y342952D01*
X142317Y343025D01*
X141664Y343081D01*
X141010Y343121D01*
X140355Y343145D01*
X139700Y343153D01*
X139045Y343145D01*
X138390Y343121D01*
X137736Y343081D01*
X137083Y343025D01*
X136432Y342952D01*
X135783Y342864D01*
X135136Y342760D01*
X134491Y342640D01*
X133850Y342505D01*
X133213Y342353D01*
X132579Y342186D01*
X131950Y342004D01*
X131325Y341806D01*
X130705Y341593D01*
X130091Y341365D01*
X129483Y341122D01*
X128880Y340864D01*
X128285Y340591D01*
X127696Y340304D01*
X127114Y340002D01*
X126540Y339686D01*
X125974Y339356D01*
X125416Y339013D01*
X124866Y338656D01*
X124326Y338285D01*
X123795Y337901D01*
X123273Y337505D01*
X122762Y337095D01*
X122260Y336674D01*
X121769Y336240D01*
X121289Y335794D01*
X120820Y335337D01*
X120362Y334868D01*
X119916Y334388D01*
X119481Y333897D01*
X119059Y333396D01*
X118650Y332885D01*
X118253Y332363D01*
X117869Y331832D01*
X117498Y331292D01*
X117140Y330743D01*
X116796Y330186D01*
X116466Y329620D01*
X116150Y329046D01*
X115847Y328464D01*
X115560Y327876D01*
X115287Y327280D01*
X115028Y326678D01*
X114784Y326070D01*
X114556Y325456D01*
X114342Y324836D01*
X114144Y324211D01*
X113961Y323582D01*
X113794Y322949D01*
X113642Y322311D01*
X113506Y321670D01*
X113385Y321026D01*
X113281Y320379D01*
X113192Y319730D01*
X113119Y319079D01*
X113063Y318426D01*
X113022Y317772D01*
X112998Y317117D01*
X112989Y316462D01*
X112997Y315807D01*
X113020Y315152D01*
X113060Y314498D01*
X113116Y313845D01*
X113187Y313194D01*
X113275Y312545D01*
X113378Y311897D01*
X113498Y311253D01*
X113633Y310612D01*
X113784Y309974D01*
X113950Y309341D01*
X114132Y308711D01*
X114330Y308086D01*
X114542Y307466D01*
X114770Y306852D01*
X115013Y306243D01*
X115270Y305641D01*
X115543Y305045D01*
X115829Y304456D01*
X116131Y303874D01*
X116446Y303300D01*
X116775Y302733D01*
X117118Y302175D01*
X117475Y301625D01*
X161925Y301625D01*
D15*
X119903Y295720D02*
X119901Y295815D01*
X119895Y295909D01*
X119886Y296003D01*
X119873Y296097D01*
X119856Y296190D01*
X119835Y296282D01*
X119810Y296374D01*
X119782Y296464D01*
X119750Y296553D01*
X119715Y296641D01*
X119676Y296727D01*
X119634Y296812D01*
X119588Y296895D01*
X119539Y296976D01*
X119487Y297055D01*
X119432Y297132D01*
X119373Y297206D01*
X119312Y297278D01*
X119248Y297348D01*
X119181Y297415D01*
X119111Y297479D01*
X119039Y297540D01*
X118965Y297599D01*
X118888Y297654D01*
X118809Y297706D01*
X118728Y297755D01*
X118645Y297801D01*
X118560Y297843D01*
X118474Y297882D01*
X118386Y297917D01*
X118297Y297949D01*
X118207Y297977D01*
X118115Y298002D01*
X118023Y298023D01*
X117930Y298040D01*
X117836Y298053D01*
X117742Y298062D01*
X117648Y298068D01*
X117553Y298070D01*
X117553Y298069D02*
X117445Y298067D01*
X117336Y298061D01*
X117228Y298051D01*
X117121Y298038D01*
X117014Y298020D01*
X116907Y297999D01*
X116802Y297974D01*
X116697Y297945D01*
X116594Y297913D01*
X116492Y297876D01*
X116391Y297836D01*
X116292Y297793D01*
X116194Y297746D01*
X116098Y297695D01*
X116004Y297641D01*
X115912Y297584D01*
X115822Y297523D01*
X115734Y297459D01*
X115649Y297393D01*
X115566Y297323D01*
X115486Y297250D01*
X115408Y297174D01*
X115333Y297096D01*
X115261Y297015D01*
X115192Y296931D01*
X115126Y296845D01*
X115063Y296757D01*
X115004Y296666D01*
X114947Y296574D01*
X114894Y296479D01*
X114845Y296383D01*
X114799Y296284D01*
X114756Y296185D01*
X114717Y296083D01*
X114682Y295981D01*
X119119Y293892D02*
X119188Y293961D01*
X119254Y294032D01*
X119318Y294105D01*
X119379Y294181D01*
X119437Y294260D01*
X119491Y294340D01*
X119543Y294423D01*
X119591Y294507D01*
X119637Y294593D01*
X119678Y294681D01*
X119717Y294771D01*
X119752Y294862D01*
X119783Y294954D01*
X119811Y295047D01*
X119835Y295141D01*
X119855Y295236D01*
X119872Y295332D01*
X119885Y295429D01*
X119894Y295526D01*
X119900Y295623D01*
X119902Y295720D01*
X119119Y293892D02*
X114681Y288671D01*
X119902Y288671D01*
X124130Y288671D02*
X124130Y298069D01*
X129351Y288671D01*
X129351Y298069D01*
X133579Y298069D02*
X133579Y297025D01*
X133579Y298069D02*
X138800Y298069D01*
X136189Y288671D01*
X142722Y293370D02*
X142724Y293555D01*
X142731Y293740D01*
X142742Y293924D01*
X142757Y294108D01*
X142777Y294292D01*
X142801Y294476D01*
X142830Y294658D01*
X142863Y294840D01*
X142900Y295021D01*
X142942Y295201D01*
X142988Y295381D01*
X143038Y295559D01*
X143092Y295735D01*
X143151Y295911D01*
X143213Y296085D01*
X143280Y296257D01*
X143351Y296428D01*
X143426Y296597D01*
X143505Y296764D01*
X143535Y296844D01*
X143568Y296923D01*
X143605Y297000D01*
X143645Y297076D01*
X143688Y297150D01*
X143734Y297222D01*
X143784Y297291D01*
X143836Y297359D01*
X143892Y297424D01*
X143950Y297487D01*
X144012Y297546D01*
X144075Y297604D01*
X144142Y297658D01*
X144210Y297709D01*
X144281Y297757D01*
X144354Y297802D01*
X144428Y297844D01*
X144505Y297882D01*
X144583Y297917D01*
X144662Y297949D01*
X144743Y297977D01*
X144825Y298001D01*
X144909Y298022D01*
X144992Y298039D01*
X145077Y298052D01*
X145162Y298061D01*
X145247Y298067D01*
X145333Y298069D01*
X145419Y298067D01*
X145504Y298061D01*
X145589Y298052D01*
X145674Y298039D01*
X145757Y298022D01*
X145841Y298001D01*
X145923Y297977D01*
X146004Y297949D01*
X146083Y297917D01*
X146161Y297882D01*
X146238Y297844D01*
X146312Y297802D01*
X146385Y297757D01*
X146456Y297709D01*
X146524Y297658D01*
X146591Y297604D01*
X146654Y297546D01*
X146716Y297487D01*
X146774Y297424D01*
X146830Y297359D01*
X146882Y297291D01*
X146932Y297222D01*
X146978Y297150D01*
X147021Y297076D01*
X147061Y297000D01*
X147098Y296923D01*
X147131Y296844D01*
X147161Y296764D01*
X147240Y296597D01*
X147315Y296428D01*
X147386Y296257D01*
X147453Y296085D01*
X147515Y295911D01*
X147574Y295735D01*
X147628Y295559D01*
X147678Y295381D01*
X147724Y295201D01*
X147766Y295021D01*
X147803Y294840D01*
X147836Y294658D01*
X147865Y294476D01*
X147889Y294292D01*
X147909Y294108D01*
X147924Y293924D01*
X147935Y293740D01*
X147942Y293555D01*
X147944Y293370D01*
X142722Y293370D02*
X142724Y293185D01*
X142731Y293000D01*
X142742Y292816D01*
X142757Y292632D01*
X142777Y292448D01*
X142801Y292264D01*
X142830Y292082D01*
X142863Y291900D01*
X142900Y291719D01*
X142942Y291539D01*
X142988Y291359D01*
X143038Y291181D01*
X143092Y291005D01*
X143151Y290829D01*
X143213Y290655D01*
X143280Y290483D01*
X143351Y290312D01*
X143426Y290143D01*
X143505Y289976D01*
X143535Y289896D01*
X143568Y289817D01*
X143605Y289740D01*
X143645Y289664D01*
X143688Y289590D01*
X143734Y289518D01*
X143784Y289449D01*
X143837Y289381D01*
X143892Y289316D01*
X143951Y289253D01*
X144012Y289194D01*
X144075Y289136D01*
X144142Y289082D01*
X144210Y289031D01*
X144281Y288983D01*
X144354Y288938D01*
X144428Y288896D01*
X144505Y288858D01*
X144583Y288823D01*
X144662Y288791D01*
X144743Y288763D01*
X144825Y288739D01*
X144909Y288718D01*
X144992Y288701D01*
X145077Y288688D01*
X145162Y288679D01*
X145247Y288673D01*
X145333Y288671D01*
X147161Y289976D02*
X147240Y290143D01*
X147315Y290312D01*
X147386Y290483D01*
X147453Y290655D01*
X147515Y290829D01*
X147574Y291005D01*
X147628Y291181D01*
X147678Y291359D01*
X147724Y291539D01*
X147766Y291719D01*
X147803Y291900D01*
X147836Y292082D01*
X147865Y292264D01*
X147889Y292448D01*
X147909Y292632D01*
X147924Y292816D01*
X147935Y293000D01*
X147942Y293185D01*
X147944Y293370D01*
X147161Y289976D02*
X147131Y289896D01*
X147098Y289817D01*
X147061Y289740D01*
X147021Y289664D01*
X146978Y289590D01*
X146932Y289518D01*
X146882Y289449D01*
X146830Y289381D01*
X146774Y289316D01*
X146716Y289253D01*
X146654Y289194D01*
X146591Y289136D01*
X146524Y289082D01*
X146456Y289031D01*
X146385Y288983D01*
X146312Y288938D01*
X146238Y288896D01*
X146161Y288858D01*
X146083Y288823D01*
X146004Y288791D01*
X145923Y288763D01*
X145841Y288739D01*
X145757Y288718D01*
X145674Y288701D01*
X145589Y288688D01*
X145504Y288679D01*
X145419Y288673D01*
X145333Y288671D01*
X143245Y290759D02*
X147422Y295981D01*
X151866Y293370D02*
X151868Y293555D01*
X151875Y293740D01*
X151886Y293924D01*
X151901Y294108D01*
X151921Y294292D01*
X151945Y294476D01*
X151974Y294658D01*
X152007Y294840D01*
X152044Y295021D01*
X152086Y295201D01*
X152132Y295381D01*
X152182Y295559D01*
X152236Y295735D01*
X152295Y295911D01*
X152357Y296085D01*
X152424Y296257D01*
X152495Y296428D01*
X152570Y296597D01*
X152649Y296764D01*
X152679Y296844D01*
X152712Y296923D01*
X152749Y297000D01*
X152789Y297076D01*
X152832Y297150D01*
X152878Y297222D01*
X152928Y297291D01*
X152980Y297359D01*
X153036Y297424D01*
X153094Y297487D01*
X153156Y297546D01*
X153219Y297604D01*
X153286Y297658D01*
X153354Y297709D01*
X153425Y297757D01*
X153498Y297802D01*
X153572Y297844D01*
X153649Y297882D01*
X153727Y297917D01*
X153806Y297949D01*
X153887Y297977D01*
X153969Y298001D01*
X154053Y298022D01*
X154136Y298039D01*
X154221Y298052D01*
X154306Y298061D01*
X154391Y298067D01*
X154477Y298069D01*
X154563Y298067D01*
X154648Y298061D01*
X154733Y298052D01*
X154818Y298039D01*
X154901Y298022D01*
X154985Y298001D01*
X155067Y297977D01*
X155148Y297949D01*
X155227Y297917D01*
X155305Y297882D01*
X155382Y297844D01*
X155456Y297802D01*
X155529Y297757D01*
X155600Y297709D01*
X155668Y297658D01*
X155735Y297604D01*
X155798Y297546D01*
X155860Y297487D01*
X155918Y297424D01*
X155974Y297359D01*
X156026Y297291D01*
X156076Y297222D01*
X156122Y297150D01*
X156165Y297076D01*
X156205Y297000D01*
X156242Y296923D01*
X156275Y296844D01*
X156305Y296764D01*
X156384Y296597D01*
X156459Y296428D01*
X156530Y296257D01*
X156597Y296085D01*
X156659Y295911D01*
X156718Y295735D01*
X156772Y295559D01*
X156822Y295381D01*
X156868Y295201D01*
X156910Y295021D01*
X156947Y294840D01*
X156980Y294658D01*
X157009Y294476D01*
X157033Y294292D01*
X157053Y294108D01*
X157068Y293924D01*
X157079Y293740D01*
X157086Y293555D01*
X157088Y293370D01*
X151866Y293370D02*
X151868Y293185D01*
X151875Y293000D01*
X151886Y292816D01*
X151901Y292632D01*
X151921Y292448D01*
X151945Y292264D01*
X151974Y292082D01*
X152007Y291900D01*
X152044Y291719D01*
X152086Y291539D01*
X152132Y291359D01*
X152182Y291181D01*
X152236Y291005D01*
X152295Y290829D01*
X152357Y290655D01*
X152424Y290483D01*
X152495Y290312D01*
X152570Y290143D01*
X152649Y289976D01*
X152679Y289896D01*
X152712Y289817D01*
X152749Y289740D01*
X152789Y289664D01*
X152832Y289590D01*
X152878Y289518D01*
X152928Y289449D01*
X152981Y289381D01*
X153036Y289316D01*
X153095Y289253D01*
X153156Y289194D01*
X153219Y289136D01*
X153286Y289082D01*
X153354Y289031D01*
X153425Y288983D01*
X153498Y288938D01*
X153572Y288896D01*
X153649Y288858D01*
X153727Y288823D01*
X153806Y288791D01*
X153887Y288763D01*
X153969Y288739D01*
X154053Y288718D01*
X154136Y288701D01*
X154221Y288688D01*
X154306Y288679D01*
X154391Y288673D01*
X154477Y288671D01*
X156305Y289976D02*
X156384Y290143D01*
X156459Y290312D01*
X156530Y290483D01*
X156597Y290655D01*
X156659Y290829D01*
X156718Y291005D01*
X156772Y291181D01*
X156822Y291359D01*
X156868Y291539D01*
X156910Y291719D01*
X156947Y291900D01*
X156980Y292082D01*
X157009Y292264D01*
X157033Y292448D01*
X157053Y292632D01*
X157068Y292816D01*
X157079Y293000D01*
X157086Y293185D01*
X157088Y293370D01*
X156305Y289976D02*
X156275Y289896D01*
X156242Y289817D01*
X156205Y289740D01*
X156165Y289664D01*
X156122Y289590D01*
X156076Y289518D01*
X156026Y289449D01*
X155974Y289381D01*
X155918Y289316D01*
X155860Y289253D01*
X155798Y289194D01*
X155735Y289136D01*
X155668Y289082D01*
X155600Y289031D01*
X155529Y288983D01*
X155456Y288938D01*
X155382Y288896D01*
X155305Y288858D01*
X155227Y288823D01*
X155148Y288791D01*
X155067Y288763D01*
X154985Y288739D01*
X154901Y288718D01*
X154818Y288701D01*
X154733Y288688D01*
X154648Y288679D01*
X154563Y288673D01*
X154477Y288671D01*
X152389Y290759D02*
X156566Y295981D01*
X161010Y293370D02*
X161012Y293555D01*
X161019Y293740D01*
X161030Y293924D01*
X161045Y294108D01*
X161065Y294292D01*
X161089Y294476D01*
X161118Y294658D01*
X161151Y294840D01*
X161188Y295021D01*
X161230Y295201D01*
X161276Y295381D01*
X161326Y295559D01*
X161380Y295735D01*
X161439Y295911D01*
X161501Y296085D01*
X161568Y296257D01*
X161639Y296428D01*
X161714Y296597D01*
X161793Y296764D01*
X161823Y296844D01*
X161856Y296923D01*
X161893Y297000D01*
X161933Y297076D01*
X161976Y297150D01*
X162022Y297222D01*
X162072Y297291D01*
X162124Y297359D01*
X162180Y297424D01*
X162238Y297487D01*
X162300Y297546D01*
X162363Y297604D01*
X162430Y297658D01*
X162498Y297709D01*
X162569Y297757D01*
X162642Y297802D01*
X162716Y297844D01*
X162793Y297882D01*
X162871Y297917D01*
X162950Y297949D01*
X163031Y297977D01*
X163113Y298001D01*
X163197Y298022D01*
X163280Y298039D01*
X163365Y298052D01*
X163450Y298061D01*
X163535Y298067D01*
X163621Y298069D01*
X163707Y298067D01*
X163792Y298061D01*
X163877Y298052D01*
X163962Y298039D01*
X164045Y298022D01*
X164129Y298001D01*
X164211Y297977D01*
X164292Y297949D01*
X164371Y297917D01*
X164449Y297882D01*
X164526Y297844D01*
X164600Y297802D01*
X164673Y297757D01*
X164744Y297709D01*
X164812Y297658D01*
X164879Y297604D01*
X164942Y297546D01*
X165004Y297487D01*
X165062Y297424D01*
X165118Y297359D01*
X165170Y297291D01*
X165220Y297222D01*
X165266Y297150D01*
X165309Y297076D01*
X165349Y297000D01*
X165386Y296923D01*
X165419Y296844D01*
X165449Y296764D01*
X165528Y296597D01*
X165603Y296428D01*
X165674Y296257D01*
X165741Y296085D01*
X165803Y295911D01*
X165862Y295735D01*
X165916Y295559D01*
X165966Y295381D01*
X166012Y295201D01*
X166054Y295021D01*
X166091Y294840D01*
X166124Y294658D01*
X166153Y294476D01*
X166177Y294292D01*
X166197Y294108D01*
X166212Y293924D01*
X166223Y293740D01*
X166230Y293555D01*
X166232Y293370D01*
X161010Y293370D02*
X161012Y293185D01*
X161019Y293000D01*
X161030Y292816D01*
X161045Y292632D01*
X161065Y292448D01*
X161089Y292264D01*
X161118Y292082D01*
X161151Y291900D01*
X161188Y291719D01*
X161230Y291539D01*
X161276Y291359D01*
X161326Y291181D01*
X161380Y291005D01*
X161439Y290829D01*
X161501Y290655D01*
X161568Y290483D01*
X161639Y290312D01*
X161714Y290143D01*
X161793Y289976D01*
X161823Y289896D01*
X161856Y289817D01*
X161893Y289740D01*
X161933Y289664D01*
X161976Y289590D01*
X162022Y289518D01*
X162072Y289449D01*
X162125Y289381D01*
X162180Y289316D01*
X162239Y289253D01*
X162300Y289194D01*
X162363Y289136D01*
X162430Y289082D01*
X162498Y289031D01*
X162569Y288983D01*
X162642Y288938D01*
X162716Y288896D01*
X162793Y288858D01*
X162871Y288823D01*
X162950Y288791D01*
X163031Y288763D01*
X163113Y288739D01*
X163197Y288718D01*
X163280Y288701D01*
X163365Y288688D01*
X163450Y288679D01*
X163535Y288673D01*
X163621Y288671D01*
X165449Y289976D02*
X165528Y290143D01*
X165603Y290312D01*
X165674Y290483D01*
X165741Y290655D01*
X165803Y290829D01*
X165862Y291005D01*
X165916Y291181D01*
X165966Y291359D01*
X166012Y291539D01*
X166054Y291719D01*
X166091Y291900D01*
X166124Y292082D01*
X166153Y292264D01*
X166177Y292448D01*
X166197Y292632D01*
X166212Y292816D01*
X166223Y293000D01*
X166230Y293185D01*
X166232Y293370D01*
X165449Y289976D02*
X165419Y289896D01*
X165386Y289817D01*
X165349Y289740D01*
X165309Y289664D01*
X165266Y289590D01*
X165220Y289518D01*
X165170Y289449D01*
X165118Y289381D01*
X165062Y289316D01*
X165004Y289253D01*
X164942Y289194D01*
X164879Y289136D01*
X164812Y289082D01*
X164744Y289031D01*
X164673Y288983D01*
X164600Y288938D01*
X164526Y288896D01*
X164449Y288858D01*
X164371Y288823D01*
X164292Y288791D01*
X164211Y288763D01*
X164129Y288739D01*
X164045Y288718D01*
X163962Y288701D01*
X163877Y288688D01*
X163792Y288679D01*
X163707Y288673D01*
X163621Y288671D01*
X161533Y290759D02*
X165709Y295981D01*
D12*
X306250Y298500D02*
X306250Y234900D01*
X328750Y234900D02*
X328750Y298500D01*
X306250Y298500D01*
X306250Y234900D02*
X328750Y234900D01*
D16*
X317500Y302025D03*
X317500Y231375D03*
D13*
X302895Y261068D02*
X291465Y261068D01*
X291465Y264243D01*
X291467Y264354D01*
X291473Y264464D01*
X291482Y264575D01*
X291496Y264685D01*
X291513Y264794D01*
X291534Y264903D01*
X291559Y265011D01*
X291588Y265118D01*
X291620Y265224D01*
X291656Y265329D01*
X291696Y265432D01*
X291739Y265534D01*
X291786Y265635D01*
X291837Y265734D01*
X291890Y265831D01*
X291947Y265925D01*
X292008Y266018D01*
X292071Y266109D01*
X292138Y266198D01*
X292208Y266284D01*
X292281Y266367D01*
X292356Y266449D01*
X292434Y266527D01*
X292516Y266602D01*
X292599Y266675D01*
X292685Y266745D01*
X292774Y266812D01*
X292865Y266875D01*
X292958Y266936D01*
X293053Y266993D01*
X293149Y267046D01*
X293248Y267097D01*
X293349Y267144D01*
X293451Y267187D01*
X293554Y267227D01*
X293659Y267263D01*
X293765Y267295D01*
X293872Y267324D01*
X293980Y267349D01*
X294089Y267370D01*
X294198Y267387D01*
X294308Y267401D01*
X294419Y267410D01*
X294529Y267416D01*
X294640Y267418D01*
X294751Y267416D01*
X294861Y267410D01*
X294972Y267401D01*
X295082Y267387D01*
X295191Y267370D01*
X295300Y267349D01*
X295408Y267324D01*
X295515Y267295D01*
X295621Y267263D01*
X295726Y267227D01*
X295829Y267187D01*
X295931Y267144D01*
X296032Y267097D01*
X296131Y267046D01*
X296228Y266993D01*
X296322Y266936D01*
X296415Y266875D01*
X296506Y266812D01*
X296595Y266745D01*
X296681Y266675D01*
X296764Y266602D01*
X296846Y266527D01*
X296924Y266449D01*
X296999Y266367D01*
X297072Y266284D01*
X297142Y266198D01*
X297209Y266109D01*
X297272Y266018D01*
X297333Y265925D01*
X297390Y265831D01*
X297443Y265734D01*
X297494Y265635D01*
X297541Y265534D01*
X297584Y265432D01*
X297624Y265329D01*
X297660Y265224D01*
X297692Y265118D01*
X297721Y265011D01*
X297746Y264903D01*
X297767Y264794D01*
X297784Y264685D01*
X297798Y264575D01*
X297807Y264464D01*
X297813Y264354D01*
X297815Y264243D01*
X297815Y261068D01*
X297815Y264878D02*
X302895Y267418D01*
X294005Y272415D02*
X291465Y275590D01*
X302895Y275590D01*
X302895Y272415D02*
X302895Y278765D01*
X312325Y251272D02*
X321215Y248732D01*
X321215Y255082D01*
X318675Y253177D02*
X323755Y253177D01*
X323755Y259590D02*
X323120Y259590D01*
X323120Y260225D01*
X323755Y260225D01*
X323755Y259590D01*
X313595Y264734D02*
X312325Y264734D01*
X312325Y271084D01*
X323755Y267909D01*
X323755Y276735D02*
X312325Y276735D01*
X312325Y283085D02*
X319310Y276735D01*
X316770Y279275D02*
X323755Y283085D01*
D17*
X405100Y84725D02*
X405100Y27225D01*
X405100Y84725D02*
X306100Y84725D01*
X306100Y27225D01*
X405100Y27225D01*
X329600Y27800D02*
X329600Y32800D01*
X380600Y32800D02*
X380600Y27800D01*
D10*
X299542Y33448D02*
X290398Y33448D01*
X290398Y30908D02*
X290398Y35988D01*
X299542Y39767D02*
X299542Y43831D01*
X299542Y39767D02*
X290398Y39767D01*
X290398Y43831D01*
X294462Y42815D02*
X294462Y39767D01*
X290398Y47774D02*
X299542Y47774D01*
X295478Y50822D02*
X290398Y47774D01*
X295478Y50822D02*
X290398Y53870D01*
X299542Y53870D01*
X299542Y58797D02*
X290398Y58797D01*
X290398Y61337D01*
X290400Y61437D01*
X290406Y61536D01*
X290416Y61636D01*
X290429Y61734D01*
X290447Y61833D01*
X290468Y61930D01*
X290493Y62026D01*
X290522Y62122D01*
X290555Y62216D01*
X290591Y62309D01*
X290631Y62400D01*
X290675Y62490D01*
X290722Y62578D01*
X290772Y62664D01*
X290826Y62748D01*
X290883Y62830D01*
X290943Y62909D01*
X291007Y62987D01*
X291073Y63061D01*
X291142Y63133D01*
X291214Y63202D01*
X291288Y63268D01*
X291366Y63332D01*
X291445Y63392D01*
X291527Y63449D01*
X291611Y63503D01*
X291697Y63553D01*
X291785Y63600D01*
X291875Y63644D01*
X291966Y63684D01*
X292059Y63720D01*
X292153Y63753D01*
X292249Y63782D01*
X292345Y63807D01*
X292442Y63828D01*
X292541Y63846D01*
X292639Y63859D01*
X292739Y63869D01*
X292838Y63875D01*
X292938Y63877D01*
X293038Y63875D01*
X293137Y63869D01*
X293237Y63859D01*
X293335Y63846D01*
X293434Y63828D01*
X293531Y63807D01*
X293627Y63782D01*
X293723Y63753D01*
X293817Y63720D01*
X293910Y63684D01*
X294001Y63644D01*
X294091Y63600D01*
X294179Y63553D01*
X294265Y63503D01*
X294349Y63449D01*
X294431Y63392D01*
X294510Y63332D01*
X294588Y63268D01*
X294662Y63202D01*
X294734Y63133D01*
X294803Y63061D01*
X294869Y62987D01*
X294933Y62909D01*
X294993Y62830D01*
X295050Y62748D01*
X295104Y62664D01*
X295154Y62578D01*
X295201Y62490D01*
X295245Y62400D01*
X295285Y62309D01*
X295321Y62216D01*
X295354Y62122D01*
X295383Y62026D01*
X295408Y61930D01*
X295429Y61833D01*
X295447Y61734D01*
X295460Y61636D01*
X295470Y61536D01*
X295476Y61437D01*
X295478Y61337D01*
X295478Y58797D01*
D17*
X252900Y84725D02*
X252900Y27225D01*
X252900Y84725D02*
X178900Y84725D01*
X178900Y27225D01*
X252900Y27225D01*
D18*
X202900Y27800D02*
X202900Y32800D01*
X228900Y32800D02*
X228900Y27800D01*
X228900Y32800D02*
X202900Y32800D01*
D10*
X172842Y30908D02*
X163698Y30908D01*
X163698Y33448D01*
X163700Y33548D01*
X163706Y33647D01*
X163716Y33747D01*
X163729Y33845D01*
X163747Y33944D01*
X163768Y34041D01*
X163793Y34137D01*
X163822Y34233D01*
X163855Y34327D01*
X163891Y34420D01*
X163931Y34511D01*
X163975Y34601D01*
X164022Y34689D01*
X164072Y34775D01*
X164126Y34859D01*
X164183Y34941D01*
X164243Y35020D01*
X164307Y35098D01*
X164373Y35172D01*
X164442Y35244D01*
X164514Y35313D01*
X164588Y35379D01*
X164666Y35443D01*
X164745Y35503D01*
X164827Y35560D01*
X164911Y35614D01*
X164997Y35664D01*
X165085Y35711D01*
X165175Y35755D01*
X165266Y35795D01*
X165359Y35831D01*
X165453Y35864D01*
X165549Y35893D01*
X165645Y35918D01*
X165742Y35939D01*
X165841Y35957D01*
X165939Y35970D01*
X166039Y35980D01*
X166138Y35986D01*
X166238Y35988D01*
X166338Y35986D01*
X166437Y35980D01*
X166537Y35970D01*
X166635Y35957D01*
X166734Y35939D01*
X166831Y35918D01*
X166927Y35893D01*
X167023Y35864D01*
X167117Y35831D01*
X167210Y35795D01*
X167301Y35755D01*
X167391Y35711D01*
X167479Y35664D01*
X167565Y35614D01*
X167649Y35560D01*
X167731Y35503D01*
X167810Y35443D01*
X167888Y35379D01*
X167962Y35313D01*
X168034Y35244D01*
X168103Y35172D01*
X168169Y35098D01*
X168233Y35020D01*
X168293Y34941D01*
X168350Y34859D01*
X168404Y34775D01*
X168454Y34689D01*
X168501Y34601D01*
X168545Y34511D01*
X168585Y34420D01*
X168621Y34327D01*
X168654Y34233D01*
X168683Y34137D01*
X168708Y34041D01*
X168729Y33944D01*
X168747Y33845D01*
X168760Y33747D01*
X168770Y33647D01*
X168776Y33548D01*
X168778Y33448D01*
X168778Y30908D01*
X168778Y33956D02*
X172842Y35988D01*
X172842Y42729D02*
X172840Y42818D01*
X172834Y42906D01*
X172825Y42994D01*
X172811Y43082D01*
X172794Y43169D01*
X172773Y43255D01*
X172748Y43340D01*
X172719Y43424D01*
X172687Y43507D01*
X172652Y43588D01*
X172612Y43667D01*
X172570Y43745D01*
X172524Y43821D01*
X172475Y43895D01*
X172422Y43966D01*
X172367Y44035D01*
X172308Y44102D01*
X172247Y44166D01*
X172183Y44227D01*
X172116Y44286D01*
X172047Y44341D01*
X171976Y44394D01*
X171902Y44443D01*
X171826Y44489D01*
X171748Y44531D01*
X171669Y44571D01*
X171588Y44606D01*
X171505Y44638D01*
X171421Y44667D01*
X171336Y44692D01*
X171250Y44713D01*
X171163Y44730D01*
X171075Y44744D01*
X170987Y44753D01*
X170899Y44759D01*
X170810Y44761D01*
X172842Y42729D02*
X172840Y42599D01*
X172834Y42468D01*
X172824Y42338D01*
X172810Y42209D01*
X172793Y42080D01*
X172771Y41951D01*
X172745Y41823D01*
X172716Y41696D01*
X172683Y41570D01*
X172646Y41445D01*
X172605Y41321D01*
X172560Y41199D01*
X172512Y41078D01*
X172460Y40958D01*
X172404Y40840D01*
X172345Y40724D01*
X172282Y40610D01*
X172216Y40497D01*
X172147Y40387D01*
X172074Y40279D01*
X171998Y40173D01*
X171919Y40069D01*
X171837Y39968D01*
X171751Y39870D01*
X171663Y39774D01*
X171572Y39681D01*
X165730Y39935D02*
X165641Y39937D01*
X165553Y39943D01*
X165465Y39952D01*
X165377Y39966D01*
X165290Y39983D01*
X165204Y40004D01*
X165119Y40029D01*
X165035Y40058D01*
X164952Y40090D01*
X164871Y40125D01*
X164792Y40165D01*
X164714Y40207D01*
X164638Y40253D01*
X164564Y40302D01*
X164493Y40355D01*
X164424Y40410D01*
X164357Y40469D01*
X164293Y40530D01*
X164232Y40594D01*
X164173Y40661D01*
X164118Y40730D01*
X164065Y40801D01*
X164016Y40875D01*
X163970Y40951D01*
X163928Y41029D01*
X163888Y41108D01*
X163853Y41189D01*
X163821Y41272D01*
X163792Y41356D01*
X163767Y41441D01*
X163746Y41527D01*
X163729Y41614D01*
X163715Y41702D01*
X163706Y41790D01*
X163700Y41878D01*
X163698Y41967D01*
X163700Y42090D01*
X163706Y42212D01*
X163716Y42334D01*
X163730Y42456D01*
X163747Y42577D01*
X163769Y42698D01*
X163794Y42818D01*
X163824Y42937D01*
X163857Y43055D01*
X163894Y43172D01*
X163934Y43287D01*
X163978Y43402D01*
X164026Y43515D01*
X164078Y43626D01*
X164133Y43735D01*
X164192Y43843D01*
X164254Y43949D01*
X164319Y44052D01*
X164388Y44154D01*
X164460Y44253D01*
X167508Y40951D02*
X167461Y40875D01*
X167411Y40801D01*
X167358Y40730D01*
X167301Y40661D01*
X167242Y40594D01*
X167180Y40530D01*
X167115Y40468D01*
X167047Y40410D01*
X166977Y40355D01*
X166905Y40302D01*
X166831Y40253D01*
X166754Y40207D01*
X166676Y40164D01*
X166595Y40125D01*
X166513Y40089D01*
X166430Y40057D01*
X166346Y40029D01*
X166260Y40004D01*
X166173Y39983D01*
X166085Y39966D01*
X165997Y39952D01*
X165908Y39943D01*
X165819Y39937D01*
X165730Y39935D01*
X169032Y43745D02*
X169079Y43821D01*
X169129Y43895D01*
X169182Y43966D01*
X169239Y44035D01*
X169298Y44102D01*
X169360Y44166D01*
X169425Y44228D01*
X169493Y44286D01*
X169563Y44341D01*
X169635Y44394D01*
X169709Y44443D01*
X169786Y44489D01*
X169864Y44532D01*
X169945Y44571D01*
X170027Y44607D01*
X170110Y44639D01*
X170194Y44667D01*
X170280Y44692D01*
X170367Y44713D01*
X170455Y44730D01*
X170543Y44744D01*
X170632Y44753D01*
X170721Y44759D01*
X170810Y44761D01*
X169032Y43745D02*
X167508Y40951D01*
X163698Y50450D02*
X172842Y50450D01*
X163698Y47910D02*
X163698Y52990D01*
D17*
X125900Y27225D02*
X125900Y84725D01*
X51900Y84725D01*
X51900Y27225D01*
X125900Y27225D01*
D18*
X75900Y27800D02*
X75900Y32800D01*
X101900Y32800D02*
X101900Y27800D01*
X101900Y32800D02*
X75900Y32800D01*
D10*
X45842Y30908D02*
X36698Y30908D01*
X41778Y33956D01*
X36698Y37004D01*
X45842Y37004D01*
X43302Y41474D02*
X39238Y41474D01*
X39138Y41476D01*
X39039Y41482D01*
X38939Y41492D01*
X38841Y41505D01*
X38742Y41523D01*
X38645Y41544D01*
X38549Y41569D01*
X38453Y41598D01*
X38359Y41631D01*
X38266Y41667D01*
X38175Y41707D01*
X38085Y41751D01*
X37997Y41798D01*
X37911Y41848D01*
X37827Y41902D01*
X37745Y41959D01*
X37666Y42019D01*
X37588Y42083D01*
X37514Y42149D01*
X37442Y42218D01*
X37373Y42290D01*
X37307Y42364D01*
X37243Y42442D01*
X37183Y42521D01*
X37126Y42603D01*
X37072Y42687D01*
X37022Y42773D01*
X36975Y42861D01*
X36931Y42951D01*
X36891Y43042D01*
X36855Y43135D01*
X36822Y43229D01*
X36793Y43325D01*
X36768Y43421D01*
X36747Y43518D01*
X36729Y43617D01*
X36716Y43715D01*
X36706Y43815D01*
X36700Y43914D01*
X36698Y44014D01*
X36700Y44114D01*
X36706Y44213D01*
X36716Y44313D01*
X36729Y44411D01*
X36747Y44510D01*
X36768Y44607D01*
X36793Y44703D01*
X36822Y44799D01*
X36855Y44893D01*
X36891Y44986D01*
X36931Y45077D01*
X36975Y45167D01*
X37022Y45255D01*
X37072Y45341D01*
X37126Y45425D01*
X37183Y45507D01*
X37243Y45586D01*
X37307Y45664D01*
X37373Y45738D01*
X37442Y45810D01*
X37514Y45879D01*
X37588Y45945D01*
X37666Y46009D01*
X37745Y46069D01*
X37827Y46126D01*
X37911Y46180D01*
X37997Y46230D01*
X38085Y46277D01*
X38175Y46321D01*
X38266Y46361D01*
X38359Y46397D01*
X38453Y46430D01*
X38549Y46459D01*
X38645Y46484D01*
X38742Y46505D01*
X38841Y46523D01*
X38939Y46536D01*
X39039Y46546D01*
X39138Y46552D01*
X39238Y46554D01*
X43302Y46554D01*
X43402Y46552D01*
X43501Y46546D01*
X43601Y46536D01*
X43699Y46523D01*
X43798Y46505D01*
X43895Y46484D01*
X43991Y46459D01*
X44087Y46430D01*
X44181Y46397D01*
X44274Y46361D01*
X44365Y46321D01*
X44455Y46277D01*
X44543Y46230D01*
X44629Y46180D01*
X44713Y46126D01*
X44795Y46069D01*
X44874Y46009D01*
X44952Y45945D01*
X45026Y45879D01*
X45098Y45810D01*
X45167Y45738D01*
X45233Y45664D01*
X45297Y45586D01*
X45357Y45507D01*
X45414Y45425D01*
X45468Y45341D01*
X45518Y45255D01*
X45565Y45167D01*
X45609Y45077D01*
X45649Y44986D01*
X45685Y44893D01*
X45718Y44799D01*
X45747Y44703D01*
X45772Y44607D01*
X45793Y44510D01*
X45811Y44411D01*
X45824Y44313D01*
X45834Y44213D01*
X45840Y44114D01*
X45842Y44014D01*
X45840Y43914D01*
X45834Y43815D01*
X45824Y43715D01*
X45811Y43617D01*
X45793Y43518D01*
X45772Y43421D01*
X45747Y43325D01*
X45718Y43229D01*
X45685Y43135D01*
X45649Y43042D01*
X45609Y42951D01*
X45565Y42861D01*
X45518Y42773D01*
X45468Y42687D01*
X45414Y42603D01*
X45357Y42521D01*
X45297Y42442D01*
X45233Y42364D01*
X45167Y42290D01*
X45098Y42218D01*
X45026Y42149D01*
X44952Y42083D01*
X44874Y42019D01*
X44795Y41959D01*
X44713Y41902D01*
X44629Y41848D01*
X44543Y41798D01*
X44455Y41751D01*
X44365Y41707D01*
X44274Y41667D01*
X44181Y41631D01*
X44087Y41598D01*
X43991Y41569D01*
X43895Y41544D01*
X43798Y41523D01*
X43699Y41505D01*
X43601Y41492D01*
X43501Y41482D01*
X43402Y41476D01*
X43302Y41474D01*
X45842Y50923D02*
X36698Y50923D01*
X36698Y53463D01*
X36700Y53563D01*
X36706Y53662D01*
X36716Y53762D01*
X36729Y53860D01*
X36747Y53959D01*
X36768Y54056D01*
X36793Y54152D01*
X36822Y54248D01*
X36855Y54342D01*
X36891Y54435D01*
X36931Y54526D01*
X36975Y54616D01*
X37022Y54704D01*
X37072Y54790D01*
X37126Y54874D01*
X37183Y54956D01*
X37243Y55035D01*
X37307Y55113D01*
X37373Y55187D01*
X37442Y55259D01*
X37514Y55328D01*
X37588Y55394D01*
X37666Y55458D01*
X37745Y55518D01*
X37827Y55575D01*
X37911Y55629D01*
X37997Y55679D01*
X38085Y55726D01*
X38175Y55770D01*
X38266Y55810D01*
X38359Y55846D01*
X38453Y55879D01*
X38549Y55908D01*
X38645Y55933D01*
X38742Y55954D01*
X38841Y55972D01*
X38939Y55985D01*
X39039Y55995D01*
X39138Y56001D01*
X39238Y56003D01*
X43302Y56003D01*
X43402Y56001D01*
X43501Y55995D01*
X43601Y55985D01*
X43699Y55972D01*
X43798Y55954D01*
X43895Y55933D01*
X43991Y55908D01*
X44087Y55879D01*
X44181Y55846D01*
X44274Y55810D01*
X44365Y55770D01*
X44455Y55726D01*
X44543Y55679D01*
X44629Y55629D01*
X44713Y55575D01*
X44795Y55518D01*
X44874Y55458D01*
X44952Y55394D01*
X45026Y55328D01*
X45098Y55259D01*
X45167Y55187D01*
X45233Y55113D01*
X45297Y55035D01*
X45357Y54956D01*
X45414Y54874D01*
X45468Y54790D01*
X45518Y54704D01*
X45565Y54616D01*
X45609Y54526D01*
X45649Y54435D01*
X45685Y54342D01*
X45718Y54248D01*
X45747Y54152D01*
X45772Y54056D01*
X45793Y53959D01*
X45811Y53860D01*
X45824Y53762D01*
X45834Y53662D01*
X45840Y53563D01*
X45842Y53463D01*
X45842Y50923D01*
X45842Y60697D02*
X45842Y64761D01*
X45842Y60697D02*
X36698Y60697D01*
X36698Y64761D01*
X40762Y63745D02*
X40762Y60697D01*
D17*
X382825Y242800D02*
X440325Y242800D01*
X440325Y366800D01*
X382825Y366800D01*
X382825Y242800D01*
X383400Y342800D02*
X388400Y342800D01*
X388400Y265800D02*
X383400Y265800D01*
D10*
X385746Y371858D02*
X385835Y371860D01*
X385923Y371866D01*
X386011Y371875D01*
X386099Y371889D01*
X386186Y371906D01*
X386272Y371927D01*
X386357Y371952D01*
X386441Y371981D01*
X386524Y372013D01*
X386605Y372048D01*
X386684Y372088D01*
X386762Y372130D01*
X386838Y372176D01*
X386912Y372225D01*
X386983Y372278D01*
X387052Y372333D01*
X387119Y372392D01*
X387183Y372453D01*
X387244Y372517D01*
X387303Y372584D01*
X387358Y372653D01*
X387411Y372724D01*
X387460Y372798D01*
X387506Y372874D01*
X387548Y372952D01*
X387588Y373031D01*
X387623Y373112D01*
X387655Y373195D01*
X387684Y373279D01*
X387709Y373364D01*
X387730Y373450D01*
X387747Y373537D01*
X387761Y373625D01*
X387770Y373713D01*
X387776Y373801D01*
X387778Y373890D01*
X385746Y371858D02*
X385616Y371860D01*
X385485Y371866D01*
X385355Y371876D01*
X385226Y371890D01*
X385097Y371907D01*
X384968Y371929D01*
X384840Y371955D01*
X384713Y371984D01*
X384587Y372017D01*
X384462Y372054D01*
X384338Y372095D01*
X384216Y372140D01*
X384095Y372188D01*
X383975Y372240D01*
X383857Y372296D01*
X383741Y372355D01*
X383627Y372418D01*
X383514Y372484D01*
X383404Y372553D01*
X383296Y372626D01*
X383190Y372702D01*
X383086Y372781D01*
X382985Y372863D01*
X382887Y372949D01*
X382791Y373037D01*
X382698Y373128D01*
X382952Y378970D02*
X382954Y379059D01*
X382960Y379147D01*
X382969Y379235D01*
X382983Y379323D01*
X383000Y379410D01*
X383021Y379496D01*
X383046Y379581D01*
X383075Y379665D01*
X383107Y379748D01*
X383142Y379829D01*
X383182Y379908D01*
X383224Y379986D01*
X383270Y380062D01*
X383319Y380136D01*
X383372Y380207D01*
X383427Y380276D01*
X383486Y380343D01*
X383547Y380407D01*
X383611Y380468D01*
X383678Y380527D01*
X383747Y380582D01*
X383818Y380635D01*
X383892Y380684D01*
X383968Y380730D01*
X384046Y380772D01*
X384125Y380812D01*
X384206Y380847D01*
X384289Y380879D01*
X384373Y380908D01*
X384458Y380933D01*
X384544Y380954D01*
X384631Y380971D01*
X384719Y380985D01*
X384807Y380994D01*
X384895Y381000D01*
X384984Y381002D01*
X385107Y381000D01*
X385229Y380994D01*
X385351Y380984D01*
X385473Y380970D01*
X385594Y380953D01*
X385715Y380931D01*
X385835Y380906D01*
X385954Y380876D01*
X386072Y380843D01*
X386189Y380806D01*
X386304Y380766D01*
X386419Y380722D01*
X386532Y380674D01*
X386643Y380622D01*
X386752Y380567D01*
X386860Y380508D01*
X386966Y380446D01*
X387069Y380381D01*
X387171Y380312D01*
X387270Y380240D01*
X383968Y377192D02*
X383892Y377239D01*
X383818Y377289D01*
X383747Y377342D01*
X383678Y377399D01*
X383611Y377458D01*
X383547Y377520D01*
X383485Y377585D01*
X383427Y377653D01*
X383372Y377723D01*
X383319Y377795D01*
X383270Y377869D01*
X383224Y377946D01*
X383181Y378024D01*
X383142Y378105D01*
X383106Y378187D01*
X383074Y378270D01*
X383046Y378354D01*
X383021Y378440D01*
X383000Y378527D01*
X382983Y378615D01*
X382969Y378703D01*
X382960Y378792D01*
X382954Y378881D01*
X382952Y378970D01*
X386762Y375668D02*
X386838Y375621D01*
X386912Y375571D01*
X386983Y375518D01*
X387052Y375461D01*
X387119Y375402D01*
X387183Y375340D01*
X387245Y375275D01*
X387303Y375207D01*
X387358Y375137D01*
X387411Y375065D01*
X387460Y374991D01*
X387506Y374914D01*
X387549Y374836D01*
X387588Y374755D01*
X387624Y374673D01*
X387656Y374590D01*
X387684Y374506D01*
X387709Y374420D01*
X387730Y374333D01*
X387747Y374245D01*
X387761Y374157D01*
X387770Y374068D01*
X387776Y373979D01*
X387778Y373890D01*
X386762Y375668D02*
X383968Y377192D01*
X391862Y371858D02*
X395926Y371858D01*
X391862Y371858D02*
X391862Y381002D01*
X395926Y381002D01*
X394910Y376938D02*
X391862Y376938D01*
X399767Y381002D02*
X399767Y371858D01*
X404847Y371858D02*
X399767Y381002D01*
X404847Y381002D02*
X404847Y371858D01*
X411959Y371858D02*
X412048Y371860D01*
X412136Y371866D01*
X412224Y371875D01*
X412312Y371889D01*
X412399Y371906D01*
X412485Y371927D01*
X412570Y371952D01*
X412654Y371981D01*
X412737Y372013D01*
X412818Y372048D01*
X412897Y372088D01*
X412975Y372130D01*
X413051Y372176D01*
X413125Y372225D01*
X413196Y372278D01*
X413265Y372333D01*
X413332Y372392D01*
X413396Y372453D01*
X413457Y372517D01*
X413516Y372584D01*
X413571Y372653D01*
X413624Y372724D01*
X413673Y372798D01*
X413719Y372874D01*
X413761Y372952D01*
X413801Y373031D01*
X413836Y373112D01*
X413868Y373195D01*
X413897Y373279D01*
X413922Y373364D01*
X413943Y373450D01*
X413960Y373537D01*
X413974Y373625D01*
X413983Y373713D01*
X413989Y373801D01*
X413991Y373890D01*
X411959Y371858D02*
X411829Y371860D01*
X411698Y371866D01*
X411568Y371876D01*
X411439Y371890D01*
X411310Y371907D01*
X411181Y371929D01*
X411053Y371955D01*
X410926Y371984D01*
X410800Y372017D01*
X410675Y372054D01*
X410551Y372095D01*
X410429Y372140D01*
X410308Y372188D01*
X410188Y372240D01*
X410070Y372296D01*
X409954Y372355D01*
X409840Y372418D01*
X409727Y372484D01*
X409617Y372553D01*
X409509Y372626D01*
X409403Y372702D01*
X409299Y372781D01*
X409198Y372863D01*
X409100Y372949D01*
X409004Y373037D01*
X408911Y373128D01*
X409165Y378970D02*
X409167Y379059D01*
X409173Y379147D01*
X409182Y379235D01*
X409196Y379323D01*
X409213Y379410D01*
X409234Y379496D01*
X409259Y379581D01*
X409288Y379665D01*
X409320Y379748D01*
X409355Y379829D01*
X409395Y379908D01*
X409437Y379986D01*
X409483Y380062D01*
X409532Y380136D01*
X409585Y380207D01*
X409640Y380276D01*
X409699Y380343D01*
X409760Y380407D01*
X409824Y380468D01*
X409891Y380527D01*
X409960Y380582D01*
X410031Y380635D01*
X410105Y380684D01*
X410181Y380730D01*
X410259Y380772D01*
X410338Y380812D01*
X410419Y380847D01*
X410502Y380879D01*
X410586Y380908D01*
X410671Y380933D01*
X410757Y380954D01*
X410844Y380971D01*
X410932Y380985D01*
X411020Y380994D01*
X411108Y381000D01*
X411197Y381002D01*
X411320Y381000D01*
X411442Y380994D01*
X411564Y380984D01*
X411686Y380970D01*
X411807Y380953D01*
X411928Y380931D01*
X412048Y380906D01*
X412167Y380876D01*
X412285Y380843D01*
X412402Y380806D01*
X412517Y380766D01*
X412632Y380722D01*
X412745Y380674D01*
X412856Y380622D01*
X412965Y380567D01*
X413073Y380508D01*
X413179Y380446D01*
X413282Y380381D01*
X413384Y380312D01*
X413483Y380240D01*
X410180Y377192D02*
X410104Y377239D01*
X410030Y377289D01*
X409959Y377342D01*
X409890Y377399D01*
X409823Y377458D01*
X409759Y377520D01*
X409697Y377585D01*
X409639Y377653D01*
X409584Y377723D01*
X409531Y377795D01*
X409482Y377869D01*
X409436Y377946D01*
X409393Y378024D01*
X409354Y378105D01*
X409318Y378187D01*
X409286Y378270D01*
X409258Y378354D01*
X409233Y378440D01*
X409212Y378527D01*
X409195Y378615D01*
X409181Y378703D01*
X409172Y378792D01*
X409166Y378881D01*
X409164Y378970D01*
X412975Y375668D02*
X413051Y375621D01*
X413125Y375571D01*
X413196Y375518D01*
X413265Y375461D01*
X413332Y375402D01*
X413396Y375340D01*
X413458Y375275D01*
X413516Y375207D01*
X413571Y375137D01*
X413624Y375065D01*
X413673Y374991D01*
X413719Y374914D01*
X413762Y374836D01*
X413801Y374755D01*
X413837Y374673D01*
X413869Y374590D01*
X413897Y374506D01*
X413922Y374420D01*
X413943Y374333D01*
X413960Y374245D01*
X413974Y374157D01*
X413983Y374068D01*
X413989Y373979D01*
X413991Y373890D01*
X412975Y375668D02*
X410181Y377192D01*
X417750Y378462D02*
X417750Y374398D01*
X417750Y378462D02*
X417752Y378562D01*
X417758Y378661D01*
X417768Y378761D01*
X417781Y378859D01*
X417799Y378958D01*
X417820Y379055D01*
X417845Y379151D01*
X417874Y379247D01*
X417907Y379341D01*
X417943Y379434D01*
X417983Y379525D01*
X418027Y379615D01*
X418074Y379703D01*
X418124Y379789D01*
X418178Y379873D01*
X418235Y379955D01*
X418295Y380034D01*
X418359Y380112D01*
X418425Y380186D01*
X418494Y380258D01*
X418566Y380327D01*
X418640Y380393D01*
X418718Y380457D01*
X418797Y380517D01*
X418879Y380574D01*
X418963Y380628D01*
X419049Y380678D01*
X419137Y380725D01*
X419227Y380769D01*
X419318Y380809D01*
X419411Y380845D01*
X419505Y380878D01*
X419601Y380907D01*
X419697Y380932D01*
X419794Y380953D01*
X419893Y380971D01*
X419991Y380984D01*
X420091Y380994D01*
X420190Y381000D01*
X420290Y381002D01*
X420390Y381000D01*
X420489Y380994D01*
X420589Y380984D01*
X420687Y380971D01*
X420786Y380953D01*
X420883Y380932D01*
X420979Y380907D01*
X421075Y380878D01*
X421169Y380845D01*
X421262Y380809D01*
X421353Y380769D01*
X421443Y380725D01*
X421531Y380678D01*
X421617Y380628D01*
X421701Y380574D01*
X421783Y380517D01*
X421862Y380457D01*
X421940Y380393D01*
X422014Y380327D01*
X422086Y380258D01*
X422155Y380186D01*
X422221Y380112D01*
X422285Y380034D01*
X422345Y379955D01*
X422402Y379873D01*
X422456Y379789D01*
X422506Y379703D01*
X422553Y379615D01*
X422597Y379525D01*
X422637Y379434D01*
X422673Y379341D01*
X422706Y379247D01*
X422735Y379151D01*
X422760Y379055D01*
X422781Y378958D01*
X422799Y378859D01*
X422812Y378761D01*
X422822Y378661D01*
X422828Y378562D01*
X422830Y378462D01*
X422830Y374398D01*
X422828Y374298D01*
X422822Y374199D01*
X422812Y374099D01*
X422799Y374001D01*
X422781Y373902D01*
X422760Y373805D01*
X422735Y373709D01*
X422706Y373613D01*
X422673Y373519D01*
X422637Y373426D01*
X422597Y373335D01*
X422553Y373245D01*
X422506Y373157D01*
X422456Y373071D01*
X422402Y372987D01*
X422345Y372905D01*
X422285Y372826D01*
X422221Y372748D01*
X422155Y372674D01*
X422086Y372602D01*
X422014Y372533D01*
X421940Y372467D01*
X421862Y372403D01*
X421783Y372343D01*
X421701Y372286D01*
X421617Y372232D01*
X421531Y372182D01*
X421443Y372135D01*
X421353Y372091D01*
X421262Y372051D01*
X421169Y372015D01*
X421075Y371982D01*
X420979Y371953D01*
X420883Y371928D01*
X420786Y371907D01*
X420687Y371889D01*
X420589Y371876D01*
X420489Y371866D01*
X420390Y371860D01*
X420290Y371858D01*
X420190Y371860D01*
X420091Y371866D01*
X419991Y371876D01*
X419893Y371889D01*
X419794Y371907D01*
X419697Y371928D01*
X419601Y371953D01*
X419505Y371982D01*
X419411Y372015D01*
X419318Y372051D01*
X419227Y372091D01*
X419137Y372135D01*
X419049Y372182D01*
X418963Y372232D01*
X418879Y372286D01*
X418797Y372343D01*
X418718Y372403D01*
X418640Y372467D01*
X418566Y372533D01*
X418494Y372602D01*
X418425Y372674D01*
X418359Y372748D01*
X418295Y372826D01*
X418235Y372905D01*
X418178Y372987D01*
X418124Y373071D01*
X418074Y373157D01*
X418027Y373245D01*
X417983Y373335D01*
X417943Y373426D01*
X417907Y373519D01*
X417874Y373613D01*
X417845Y373709D01*
X417820Y373805D01*
X417799Y373902D01*
X417781Y374001D01*
X417768Y374099D01*
X417758Y374199D01*
X417752Y374298D01*
X417750Y374398D01*
X427265Y371858D02*
X427265Y381002D01*
X429805Y381002D01*
X429905Y381000D01*
X430004Y380994D01*
X430104Y380984D01*
X430202Y380971D01*
X430301Y380953D01*
X430398Y380932D01*
X430494Y380907D01*
X430590Y380878D01*
X430684Y380845D01*
X430777Y380809D01*
X430868Y380769D01*
X430958Y380725D01*
X431046Y380678D01*
X431132Y380628D01*
X431216Y380574D01*
X431298Y380517D01*
X431377Y380457D01*
X431455Y380393D01*
X431529Y380327D01*
X431601Y380258D01*
X431670Y380186D01*
X431736Y380112D01*
X431800Y380034D01*
X431860Y379955D01*
X431917Y379873D01*
X431971Y379789D01*
X432021Y379703D01*
X432068Y379615D01*
X432112Y379525D01*
X432152Y379434D01*
X432188Y379341D01*
X432221Y379247D01*
X432250Y379151D01*
X432275Y379055D01*
X432296Y378958D01*
X432314Y378859D01*
X432327Y378761D01*
X432337Y378661D01*
X432343Y378562D01*
X432345Y378462D01*
X432343Y378362D01*
X432337Y378263D01*
X432327Y378163D01*
X432314Y378065D01*
X432296Y377966D01*
X432275Y377869D01*
X432250Y377773D01*
X432221Y377677D01*
X432188Y377583D01*
X432152Y377490D01*
X432112Y377399D01*
X432068Y377309D01*
X432021Y377221D01*
X431971Y377135D01*
X431917Y377051D01*
X431860Y376969D01*
X431800Y376890D01*
X431736Y376812D01*
X431670Y376738D01*
X431601Y376666D01*
X431529Y376597D01*
X431455Y376531D01*
X431377Y376467D01*
X431298Y376407D01*
X431216Y376350D01*
X431132Y376296D01*
X431046Y376246D01*
X430958Y376199D01*
X430868Y376155D01*
X430777Y376115D01*
X430684Y376079D01*
X430590Y376046D01*
X430494Y376017D01*
X430398Y375992D01*
X430301Y375971D01*
X430202Y375953D01*
X430104Y375940D01*
X430004Y375930D01*
X429905Y375924D01*
X429805Y375922D01*
X427265Y375922D01*
X430313Y375922D02*
X432345Y371858D01*
M02*
