G04 EAGLE Gerber RS-274X export*
G75*
%MOMM*%
%FSLAX34Y34*%
%LPD*%
%INSoldermask Top*%
%IPPOS*%
%AMOC8*
5,1,8,0,0,1.08239X$1,22.5*%
G01*
%ADD10C,2.133600*%
%ADD11C,1.625600*%
%ADD12C,1.625600*%
%ADD13C,1.601600*%
%ADD14C,1.409600*%


D10*
X25400Y127000D03*
X25400Y381000D03*
D11*
X279400Y279400D03*
X254000Y279400D03*
X228600Y279400D03*
D12*
X76200Y134620D02*
X76200Y119380D01*
X101600Y119380D02*
X101600Y134620D01*
X127000Y134620D02*
X127000Y119380D01*
X152400Y119380D02*
X152400Y134620D01*
X177800Y134620D02*
X177800Y119380D01*
X203200Y119380D02*
X203200Y134620D01*
X228600Y134620D02*
X228600Y119380D01*
X254000Y119380D02*
X254000Y134620D01*
X279400Y134620D02*
X279400Y119380D01*
X304800Y119380D02*
X304800Y134620D01*
X330200Y134620D02*
X330200Y119380D01*
X355600Y119380D02*
X355600Y134620D01*
X381000Y134620D02*
X381000Y119380D01*
X76200Y373380D02*
X76200Y388620D01*
X101600Y388620D02*
X101600Y373380D01*
X127000Y373380D02*
X127000Y388620D01*
X152400Y388620D02*
X152400Y373380D01*
X177800Y373380D02*
X177800Y388620D01*
X203200Y388620D02*
X203200Y373380D01*
X228600Y373380D02*
X228600Y388620D01*
X254000Y388620D02*
X254000Y373380D01*
X279400Y373380D02*
X279400Y388620D01*
X304800Y388620D02*
X304800Y373380D01*
X330200Y373380D02*
X330200Y388620D01*
X355600Y388620D02*
X355600Y373380D01*
X381000Y373380D02*
X381000Y388620D01*
D13*
X50800Y215900D03*
X152400Y215900D03*
D14*
X152400Y272860D02*
X152400Y285940D01*
X133350Y285940D02*
X133350Y272860D01*
X171450Y272860D02*
X171450Y285940D01*
D13*
X330200Y279400D03*
X330200Y177800D03*
D12*
X393700Y45720D02*
X393700Y30480D01*
X368300Y30480D02*
X368300Y45720D01*
X342900Y45720D02*
X342900Y30480D01*
X241300Y30480D02*
X241300Y45720D01*
X215900Y45720D02*
X215900Y30480D01*
X127000Y30480D02*
X127000Y45720D01*
X101600Y45720D02*
X101600Y30480D01*
X411480Y254000D02*
X426720Y254000D01*
X426720Y279400D02*
X411480Y279400D01*
X411480Y304800D02*
X426720Y304800D01*
X426720Y228600D02*
X411480Y228600D01*
M02*
