G04 EAGLE Gerber RS-274X export*
G75*
%MOMM*%
%FSLAX34Y34*%
%LPD*%
%INBottom Copper*%
%IPPOS*%
%AMOC8*
5,1,8,0,0,1.08239X$1,22.5*%
G01*
G04 Define Apertures*
%ADD10C,1.524000*%
%ADD11C,2.540000*%
%ADD12C,1.930400*%
%ADD13C,0.609600*%
G36*
X395575Y10220D02*
X395825Y10392D01*
X395989Y10647D01*
X396040Y10922D01*
X396040Y33229D01*
X395980Y33526D01*
X395808Y33776D01*
X395553Y33939D01*
X395254Y33990D01*
X394959Y33920D01*
X394714Y33741D01*
X394574Y33520D01*
X391741Y26680D01*
X386070Y21009D01*
X378660Y17940D01*
X370640Y17940D01*
X363230Y21009D01*
X357559Y26680D01*
X354490Y34090D01*
X354490Y42110D01*
X357559Y49520D01*
X363230Y55191D01*
X370640Y58260D01*
X378660Y58260D01*
X386070Y55191D01*
X391741Y49520D01*
X394574Y42680D01*
X394744Y42428D01*
X394998Y42263D01*
X395296Y42210D01*
X395592Y42277D01*
X395838Y42455D01*
X395995Y42714D01*
X396040Y42971D01*
X396040Y287229D01*
X395980Y287526D01*
X395808Y287776D01*
X395553Y287939D01*
X395254Y287990D01*
X394959Y287920D01*
X394714Y287741D01*
X394574Y287520D01*
X391741Y280680D01*
X386070Y275009D01*
X378660Y271940D01*
X370640Y271940D01*
X363230Y275009D01*
X357559Y280680D01*
X354490Y288090D01*
X354490Y296110D01*
X357559Y303520D01*
X363230Y309191D01*
X370640Y312260D01*
X378660Y312260D01*
X386070Y309191D01*
X391741Y303520D01*
X394574Y296680D01*
X394744Y296428D01*
X394998Y296263D01*
X395296Y296210D01*
X395592Y296277D01*
X395838Y296455D01*
X395995Y296714D01*
X396040Y296971D01*
X396040Y341378D01*
X395980Y341675D01*
X395808Y341925D01*
X395553Y342089D01*
X395278Y342140D01*
X10922Y342140D01*
X10625Y342080D01*
X10375Y341908D01*
X10211Y341653D01*
X10160Y341378D01*
X10160Y296489D01*
X10220Y296191D01*
X10392Y295941D01*
X10647Y295778D01*
X10946Y295727D01*
X11241Y295797D01*
X11486Y295976D01*
X11626Y296197D01*
X14659Y303520D01*
X20330Y309191D01*
X27740Y312260D01*
X35760Y312260D01*
X43170Y309191D01*
X48841Y303520D01*
X51910Y296110D01*
X51910Y288090D01*
X48841Y280680D01*
X43170Y275009D01*
X35760Y271940D01*
X27740Y271940D01*
X20330Y275009D01*
X14659Y280680D01*
X11626Y288003D01*
X11457Y288255D01*
X11202Y288420D01*
X10904Y288473D01*
X10608Y288406D01*
X10362Y288228D01*
X10205Y287969D01*
X10160Y287711D01*
X10160Y42489D01*
X10220Y42191D01*
X10392Y41941D01*
X10647Y41778D01*
X10946Y41727D01*
X11241Y41797D01*
X11486Y41976D01*
X11626Y42197D01*
X14659Y49520D01*
X20330Y55191D01*
X27740Y58260D01*
X35760Y58260D01*
X43170Y55191D01*
X48841Y49520D01*
X51910Y42110D01*
X51910Y34090D01*
X48841Y26680D01*
X43170Y21009D01*
X35760Y17940D01*
X27740Y17940D01*
X20330Y21009D01*
X14659Y26680D01*
X11626Y34003D01*
X11457Y34255D01*
X11202Y34420D01*
X10904Y34473D01*
X10608Y34406D01*
X10362Y34228D01*
X10205Y33969D01*
X10160Y33711D01*
X10160Y10922D01*
X10220Y10625D01*
X10392Y10375D01*
X10647Y10211D01*
X10922Y10160D01*
X395278Y10160D01*
X395575Y10220D01*
G37*
%LPC*%
G36*
X135636Y311912D02*
X135636Y314485D01*
X138188Y320646D01*
X142904Y325362D01*
X149065Y327914D01*
X151638Y327914D01*
X151638Y311912D01*
X135636Y311912D01*
G37*
G36*
X324612Y311912D02*
X324612Y327914D01*
X327185Y327914D01*
X333346Y325362D01*
X338062Y320646D01*
X340614Y314485D01*
X340614Y311912D01*
X324612Y311912D01*
G37*
G36*
X153162Y311912D02*
X153162Y327914D01*
X155735Y327914D01*
X161896Y325362D01*
X166612Y320646D01*
X169164Y314485D01*
X169164Y311912D01*
X153162Y311912D01*
G37*
G36*
X258026Y221996D02*
X253732Y223775D01*
X250445Y227062D01*
X248666Y231356D01*
X248666Y251244D01*
X250445Y255538D01*
X253732Y258825D01*
X258026Y260604D01*
X261661Y260604D01*
X261958Y260664D01*
X262199Y260827D01*
X265715Y264343D01*
X265882Y264596D01*
X265938Y264882D01*
X265938Y295442D01*
X265878Y295739D01*
X265706Y295989D01*
X265468Y296146D01*
X263554Y296938D01*
X258838Y301654D01*
X256286Y307815D01*
X256286Y314485D01*
X258838Y320646D01*
X263554Y325362D01*
X269715Y327914D01*
X276385Y327914D01*
X282546Y325362D01*
X287262Y320646D01*
X289814Y314485D01*
X289814Y307815D01*
X287262Y301654D01*
X282546Y296938D01*
X280632Y296146D01*
X280381Y295976D01*
X280215Y295722D01*
X280162Y295442D01*
X280162Y260392D01*
X280222Y260095D01*
X280394Y259845D01*
X280649Y259682D01*
X280948Y259631D01*
X281216Y259688D01*
X283426Y260604D01*
X288074Y260604D01*
X292368Y258825D01*
X295655Y255538D01*
X297434Y251244D01*
X297434Y231356D01*
X295655Y227062D01*
X292368Y223775D01*
X288074Y221996D01*
X283426Y221996D01*
X279132Y223775D01*
X275845Y227062D01*
X274066Y231356D01*
X274066Y250739D01*
X274006Y251036D01*
X273834Y251286D01*
X273579Y251449D01*
X273280Y251500D01*
X272985Y251430D01*
X272765Y251277D01*
X272257Y250769D01*
X272090Y250516D01*
X272034Y250231D01*
X272034Y231356D01*
X270255Y227062D01*
X266968Y223775D01*
X262674Y221996D01*
X258026Y221996D01*
G37*
G36*
X35534Y217172D02*
X30493Y219260D01*
X26634Y223119D01*
X24546Y228160D01*
X24546Y233616D01*
X26634Y238658D01*
X30493Y242516D01*
X30680Y242593D01*
X30931Y242763D01*
X31097Y243017D01*
X31150Y243297D01*
X31150Y249227D01*
X32233Y251841D01*
X85464Y305071D01*
X85631Y305324D01*
X85687Y305622D01*
X85629Y305902D01*
X84836Y307815D01*
X84836Y314485D01*
X87388Y320646D01*
X92104Y325362D01*
X98265Y327914D01*
X104935Y327914D01*
X111096Y325362D01*
X115812Y320646D01*
X118364Y314485D01*
X118364Y307815D01*
X115812Y301654D01*
X111096Y296938D01*
X104935Y294386D01*
X98265Y294386D01*
X96352Y295179D01*
X96054Y295237D01*
X95757Y295174D01*
X95521Y295014D01*
X45597Y245089D01*
X45430Y244836D01*
X45374Y244551D01*
X45374Y243297D01*
X45434Y243000D01*
X45606Y242750D01*
X45844Y242593D01*
X46032Y242516D01*
X49890Y238658D01*
X51978Y233616D01*
X51978Y228160D01*
X49890Y223119D01*
X46032Y219260D01*
X40990Y217172D01*
X35534Y217172D01*
G37*
G36*
X307086Y311912D02*
X307086Y314485D01*
X309638Y320646D01*
X314354Y325362D01*
X320515Y327914D01*
X323088Y327914D01*
X323088Y311912D01*
X307086Y311912D01*
G37*
G36*
X156426Y221996D02*
X152132Y223775D01*
X148845Y227062D01*
X147066Y231356D01*
X147066Y251244D01*
X148845Y255538D01*
X152132Y258825D01*
X156426Y260604D01*
X160061Y260604D01*
X160358Y260664D01*
X160599Y260827D01*
X205742Y305969D01*
X205909Y306222D01*
X205965Y306520D01*
X205907Y306800D01*
X205486Y307815D01*
X205486Y314485D01*
X208038Y320646D01*
X212754Y325362D01*
X218915Y327914D01*
X225585Y327914D01*
X231746Y325362D01*
X236462Y320646D01*
X239014Y314485D01*
X239014Y307815D01*
X236462Y301654D01*
X231746Y296938D01*
X225585Y294386D01*
X218915Y294386D01*
X216104Y295551D01*
X215806Y295609D01*
X215509Y295546D01*
X215273Y295385D01*
X181793Y261905D01*
X181625Y261652D01*
X181570Y261354D01*
X181635Y261058D01*
X181810Y260810D01*
X182068Y260651D01*
X182332Y260604D01*
X183388Y260604D01*
X183388Y242062D01*
X172466Y242062D01*
X172466Y250739D01*
X172406Y251036D01*
X172234Y251286D01*
X171979Y251449D01*
X171680Y251500D01*
X171385Y251430D01*
X171165Y251277D01*
X170657Y250769D01*
X170490Y250516D01*
X170434Y250231D01*
X170434Y231356D01*
X168655Y227062D01*
X165368Y223775D01*
X161074Y221996D01*
X156426Y221996D01*
G37*
G36*
X324612Y294386D02*
X324612Y310388D01*
X340614Y310388D01*
X340614Y307815D01*
X338062Y301654D01*
X333346Y296938D01*
X327185Y294386D01*
X324612Y294386D01*
G37*
G36*
X320515Y294386D02*
X314354Y296938D01*
X309638Y301654D01*
X307086Y307815D01*
X307086Y310388D01*
X323088Y310388D01*
X323088Y294386D01*
X320515Y294386D01*
G37*
G36*
X153162Y294386D02*
X153162Y310388D01*
X169164Y310388D01*
X169164Y307815D01*
X166612Y301654D01*
X161896Y296938D01*
X155735Y294386D01*
X153162Y294386D01*
G37*
G36*
X149065Y294386D02*
X142904Y296938D01*
X138188Y301654D01*
X135636Y307815D01*
X135636Y310388D01*
X151638Y310388D01*
X151638Y294386D01*
X149065Y294386D01*
G37*
G36*
X70866Y242062D02*
X70866Y251244D01*
X72645Y255538D01*
X75932Y258825D01*
X80226Y260604D01*
X81788Y260604D01*
X81788Y242062D01*
X70866Y242062D01*
G37*
G36*
X334226Y221996D02*
X329932Y223775D01*
X326645Y227062D01*
X324866Y231356D01*
X324866Y251244D01*
X326645Y255538D01*
X329932Y258825D01*
X334226Y260604D01*
X338874Y260604D01*
X343168Y258825D01*
X346455Y255538D01*
X348234Y251244D01*
X348234Y231356D01*
X346455Y227062D01*
X343168Y223775D01*
X338874Y221996D01*
X334226Y221996D01*
G37*
G36*
X308826Y221996D02*
X304532Y223775D01*
X301245Y227062D01*
X299466Y231356D01*
X299466Y251244D01*
X301245Y255538D01*
X304532Y258825D01*
X308826Y260604D01*
X313474Y260604D01*
X317768Y258825D01*
X321055Y255538D01*
X322834Y251244D01*
X322834Y231356D01*
X321055Y227062D01*
X317768Y223775D01*
X313474Y221996D01*
X308826Y221996D01*
G37*
G36*
X232626Y221996D02*
X228332Y223775D01*
X225045Y227062D01*
X223266Y231356D01*
X223266Y251244D01*
X225045Y255538D01*
X228332Y258825D01*
X232626Y260604D01*
X237274Y260604D01*
X241568Y258825D01*
X244855Y255538D01*
X246634Y251244D01*
X246634Y231356D01*
X244855Y227062D01*
X241568Y223775D01*
X237274Y221996D01*
X232626Y221996D01*
G37*
G36*
X131026Y221996D02*
X126732Y223775D01*
X123445Y227062D01*
X121666Y231356D01*
X121666Y251244D01*
X123445Y255538D01*
X126732Y258825D01*
X131026Y260604D01*
X135674Y260604D01*
X139968Y258825D01*
X143255Y255538D01*
X145034Y251244D01*
X145034Y231356D01*
X143255Y227062D01*
X139968Y223775D01*
X135674Y221996D01*
X131026Y221996D01*
G37*
G36*
X83312Y242062D02*
X83312Y260604D01*
X84874Y260604D01*
X89168Y258825D01*
X92455Y255538D01*
X94234Y251244D01*
X94234Y242062D01*
X83312Y242062D01*
G37*
G36*
X184912Y242062D02*
X184912Y260604D01*
X186474Y260604D01*
X190768Y258825D01*
X194055Y255538D01*
X195834Y251244D01*
X195834Y242062D01*
X184912Y242062D01*
G37*
G36*
X207226Y221996D02*
X202932Y223775D01*
X199645Y227062D01*
X197866Y231356D01*
X197866Y251244D01*
X199645Y255538D01*
X202932Y258825D01*
X207226Y260604D01*
X211874Y260604D01*
X216168Y258825D01*
X219455Y255538D01*
X221234Y251244D01*
X221234Y231356D01*
X219455Y227062D01*
X216168Y223775D01*
X211874Y221996D01*
X207226Y221996D01*
G37*
G36*
X35534Y115572D02*
X30493Y117660D01*
X26634Y121519D01*
X24546Y126560D01*
X24546Y132016D01*
X26634Y137058D01*
X30493Y140916D01*
X35534Y143004D01*
X40990Y143004D01*
X41177Y142927D01*
X41475Y142869D01*
X41772Y142931D01*
X42008Y143092D01*
X100615Y201699D01*
X100782Y201952D01*
X100838Y202238D01*
X100838Y223953D01*
X100778Y224250D01*
X100615Y224492D01*
X98045Y227062D01*
X96266Y231356D01*
X96266Y251244D01*
X98045Y255538D01*
X101332Y258825D01*
X105626Y260604D01*
X110274Y260604D01*
X114568Y258825D01*
X117855Y255538D01*
X119634Y251244D01*
X119634Y231356D01*
X117855Y227062D01*
X115285Y224492D01*
X115118Y224239D01*
X115062Y223953D01*
X115062Y197561D01*
X113979Y194947D01*
X52066Y133034D01*
X51898Y132781D01*
X51843Y132483D01*
X51901Y132203D01*
X51978Y132016D01*
X51978Y126560D01*
X49890Y121519D01*
X46032Y117660D01*
X40990Y115572D01*
X35534Y115572D01*
G37*
G36*
X184912Y221996D02*
X184912Y240538D01*
X195834Y240538D01*
X195834Y231356D01*
X194055Y227062D01*
X190768Y223775D01*
X186474Y221996D01*
X184912Y221996D01*
G37*
G36*
X181826Y221996D02*
X177532Y223775D01*
X174245Y227062D01*
X172466Y231356D01*
X172466Y240538D01*
X183388Y240538D01*
X183388Y221996D01*
X181826Y221996D01*
G37*
G36*
X83312Y221996D02*
X83312Y240538D01*
X94234Y240538D01*
X94234Y231356D01*
X92455Y227062D01*
X89168Y223775D01*
X84874Y221996D01*
X83312Y221996D01*
G37*
G36*
X80226Y221996D02*
X75932Y223775D01*
X72645Y227062D01*
X70866Y231356D01*
X70866Y240538D01*
X81788Y240538D01*
X81788Y221996D01*
X80226Y221996D01*
G37*
G36*
X105626Y18796D02*
X101332Y20575D01*
X98045Y23862D01*
X96266Y28156D01*
X96266Y48044D01*
X98045Y52338D01*
X101332Y55625D01*
X105626Y57404D01*
X110274Y57404D01*
X114568Y55625D01*
X117855Y52338D01*
X119634Y48044D01*
X119634Y28156D01*
X117855Y23862D01*
X114568Y20575D01*
X110274Y18796D01*
X105626Y18796D01*
G37*
G36*
X70866Y38862D02*
X70866Y48044D01*
X72645Y52338D01*
X75932Y55625D01*
X80226Y57404D01*
X81788Y57404D01*
X81788Y38862D01*
X70866Y38862D01*
G37*
G36*
X334226Y18796D02*
X329932Y20575D01*
X326645Y23862D01*
X324866Y28156D01*
X324866Y48044D01*
X326645Y52338D01*
X329932Y55625D01*
X334226Y57404D01*
X338874Y57404D01*
X343168Y55625D01*
X346455Y52338D01*
X348234Y48044D01*
X348234Y28156D01*
X346455Y23862D01*
X343168Y20575D01*
X338874Y18796D01*
X334226Y18796D01*
G37*
G36*
X308826Y18796D02*
X304532Y20575D01*
X301245Y23862D01*
X299466Y28156D01*
X299466Y48044D01*
X301245Y52338D01*
X304532Y55625D01*
X308826Y57404D01*
X313474Y57404D01*
X317768Y55625D01*
X321055Y52338D01*
X322834Y48044D01*
X322834Y28156D01*
X321055Y23862D01*
X317768Y20575D01*
X313474Y18796D01*
X308826Y18796D01*
G37*
G36*
X283426Y18796D02*
X279132Y20575D01*
X275845Y23862D01*
X274066Y28156D01*
X274066Y48044D01*
X275845Y52338D01*
X279132Y55625D01*
X283426Y57404D01*
X288074Y57404D01*
X292368Y55625D01*
X295655Y52338D01*
X297434Y48044D01*
X297434Y28156D01*
X295655Y23862D01*
X292368Y20575D01*
X288074Y18796D01*
X283426Y18796D01*
G37*
G36*
X232626Y18796D02*
X228332Y20575D01*
X225045Y23862D01*
X223266Y28156D01*
X223266Y48044D01*
X225045Y52338D01*
X228332Y55625D01*
X232626Y57404D01*
X237274Y57404D01*
X241568Y55625D01*
X244855Y52338D01*
X246634Y48044D01*
X246634Y28156D01*
X244855Y23862D01*
X241568Y20575D01*
X237274Y18796D01*
X232626Y18796D01*
G37*
G36*
X207226Y18796D02*
X202932Y20575D01*
X199645Y23862D01*
X197866Y28156D01*
X197866Y48044D01*
X199645Y52338D01*
X202932Y55625D01*
X207226Y57404D01*
X211874Y57404D01*
X216168Y55625D01*
X219455Y52338D01*
X221234Y48044D01*
X221234Y28156D01*
X219455Y23862D01*
X216168Y20575D01*
X211874Y18796D01*
X207226Y18796D01*
G37*
G36*
X181826Y18796D02*
X177532Y20575D01*
X174245Y23862D01*
X172466Y28156D01*
X172466Y48044D01*
X174245Y52338D01*
X177532Y55625D01*
X181826Y57404D01*
X186474Y57404D01*
X190768Y55625D01*
X194055Y52338D01*
X195834Y48044D01*
X195834Y28156D01*
X194055Y23862D01*
X190768Y20575D01*
X186474Y18796D01*
X181826Y18796D01*
G37*
G36*
X156426Y18796D02*
X152132Y20575D01*
X148845Y23862D01*
X147066Y28156D01*
X147066Y48044D01*
X148845Y52338D01*
X152132Y55625D01*
X156426Y57404D01*
X161074Y57404D01*
X165368Y55625D01*
X168655Y52338D01*
X170434Y48044D01*
X170434Y28156D01*
X168655Y23862D01*
X165368Y20575D01*
X161074Y18796D01*
X156426Y18796D01*
G37*
G36*
X258026Y18796D02*
X253732Y20575D01*
X250445Y23862D01*
X248666Y28156D01*
X248666Y48044D01*
X250445Y52338D01*
X253732Y55625D01*
X258026Y57404D01*
X262674Y57404D01*
X266968Y55625D01*
X270255Y52338D01*
X272034Y48044D01*
X272034Y28156D01*
X270255Y23862D01*
X266968Y20575D01*
X262674Y18796D01*
X258026Y18796D01*
G37*
G36*
X131026Y18796D02*
X126732Y20575D01*
X123445Y23862D01*
X121666Y28156D01*
X121666Y48044D01*
X123445Y52338D01*
X126732Y55625D01*
X131026Y57404D01*
X135674Y57404D01*
X139968Y55625D01*
X143255Y52338D01*
X145034Y48044D01*
X145034Y28156D01*
X143255Y23862D01*
X139968Y20575D01*
X135674Y18796D01*
X131026Y18796D01*
G37*
G36*
X83312Y38862D02*
X83312Y57404D01*
X84874Y57404D01*
X89168Y55625D01*
X92455Y52338D01*
X94234Y48044D01*
X94234Y38862D01*
X83312Y38862D01*
G37*
G36*
X83312Y18796D02*
X83312Y37338D01*
X94234Y37338D01*
X94234Y28156D01*
X92455Y23862D01*
X89168Y20575D01*
X84874Y18796D01*
X83312Y18796D01*
G37*
G36*
X80226Y18796D02*
X75932Y20575D01*
X72645Y23862D01*
X70866Y28156D01*
X70866Y37338D01*
X81788Y37338D01*
X81788Y18796D01*
X80226Y18796D01*
G37*
%LPD*%
D10*
X82550Y233680D02*
X82550Y248920D01*
X107950Y248920D02*
X107950Y233680D01*
X133350Y233680D02*
X133350Y248920D01*
X158750Y248920D02*
X158750Y233680D01*
X184150Y233680D02*
X184150Y248920D01*
X209550Y248920D02*
X209550Y233680D01*
X234950Y233680D02*
X234950Y248920D01*
X260350Y248920D02*
X260350Y233680D01*
X285750Y233680D02*
X285750Y248920D01*
X311150Y248920D02*
X311150Y233680D01*
X336550Y233680D02*
X336550Y248920D01*
X82550Y45720D02*
X82550Y30480D01*
X107950Y30480D02*
X107950Y45720D01*
X133350Y45720D02*
X133350Y30480D01*
X158750Y30480D02*
X158750Y45720D01*
X184150Y45720D02*
X184150Y30480D01*
X209550Y30480D02*
X209550Y45720D01*
X234950Y45720D02*
X234950Y30480D01*
X260350Y30480D02*
X260350Y45720D01*
X285750Y45720D02*
X285750Y30480D01*
X311150Y30480D02*
X311150Y45720D01*
X336550Y45720D02*
X336550Y30480D01*
D11*
X323850Y311150D03*
X273050Y311150D03*
X222250Y311150D03*
X101600Y311150D03*
X152400Y311150D03*
D12*
X38262Y230888D03*
X38262Y129288D03*
D13*
X273050Y261620D02*
X273050Y311150D01*
X273050Y261620D02*
X260350Y248920D01*
X260350Y241300D01*
X158750Y241300D02*
X158750Y248920D01*
X220980Y311150D01*
X222250Y311150D01*
X38262Y247812D02*
X38262Y230888D01*
X38262Y247812D02*
X101600Y311150D01*
X107950Y198976D02*
X38262Y129288D01*
X107950Y198976D02*
X107950Y233680D01*
X107950Y241300D01*
M02*
