G04 EAGLE Gerber RS-274X export*
G75*
%MOMM*%
%FSLAX34Y34*%
%LPD*%
%IN*%
%IPPOS*%
%AMOC8*
5,1,8,0,0,1.08239X$1,22.5*%
G01*
G04 Define Apertures*
%ADD10C,0.254000*%
D10*
X0Y0D02*
X406200Y0D01*
X406200Y352300D01*
X0Y352300D01*
X0Y0D01*
X41750Y37663D02*
X41674Y36794D01*
X41522Y35934D01*
X41296Y35090D01*
X40998Y34270D01*
X40629Y33478D01*
X40192Y32722D01*
X39691Y32007D01*
X39130Y31338D01*
X38512Y30720D01*
X37843Y30159D01*
X37128Y29658D01*
X36372Y29221D01*
X35580Y28852D01*
X34760Y28554D01*
X33916Y28328D01*
X33057Y28176D01*
X32187Y28100D01*
X31313Y28100D01*
X30444Y28176D01*
X29584Y28328D01*
X28740Y28554D01*
X27920Y28852D01*
X27128Y29221D01*
X26372Y29658D01*
X25657Y30159D01*
X24988Y30720D01*
X24370Y31338D01*
X23809Y32007D01*
X23308Y32722D01*
X22871Y33478D01*
X22502Y34270D01*
X22204Y35090D01*
X21978Y35934D01*
X21826Y36794D01*
X21750Y37663D01*
X21750Y38537D01*
X21826Y39407D01*
X21978Y40266D01*
X22204Y41110D01*
X22502Y41930D01*
X22871Y42722D01*
X23308Y43478D01*
X23809Y44193D01*
X24370Y44862D01*
X24988Y45480D01*
X25657Y46041D01*
X26372Y46542D01*
X27128Y46979D01*
X27920Y47348D01*
X28740Y47646D01*
X29584Y47872D01*
X30444Y48024D01*
X31313Y48100D01*
X32187Y48100D01*
X33057Y48024D01*
X33916Y47872D01*
X34760Y47646D01*
X35580Y47348D01*
X36372Y46979D01*
X37128Y46542D01*
X37843Y46041D01*
X38512Y45480D01*
X39130Y44862D01*
X39691Y44193D01*
X40192Y43478D01*
X40629Y42722D01*
X40998Y41930D01*
X41296Y41110D01*
X41522Y40266D01*
X41674Y39407D01*
X41750Y38537D01*
X41750Y37663D01*
X384650Y37663D02*
X384574Y36794D01*
X384422Y35934D01*
X384196Y35090D01*
X383898Y34270D01*
X383529Y33478D01*
X383092Y32722D01*
X382591Y32007D01*
X382030Y31338D01*
X381412Y30720D01*
X380743Y30159D01*
X380028Y29658D01*
X379272Y29221D01*
X378480Y28852D01*
X377660Y28554D01*
X376816Y28328D01*
X375957Y28176D01*
X375087Y28100D01*
X374213Y28100D01*
X373344Y28176D01*
X372484Y28328D01*
X371640Y28554D01*
X370820Y28852D01*
X370028Y29221D01*
X369272Y29658D01*
X368557Y30159D01*
X367888Y30720D01*
X367270Y31338D01*
X366709Y32007D01*
X366208Y32722D01*
X365771Y33478D01*
X365402Y34270D01*
X365104Y35090D01*
X364878Y35934D01*
X364726Y36794D01*
X364650Y37663D01*
X364650Y38537D01*
X364726Y39407D01*
X364878Y40266D01*
X365104Y41110D01*
X365402Y41930D01*
X365771Y42722D01*
X366208Y43478D01*
X366709Y44193D01*
X367270Y44862D01*
X367888Y45480D01*
X368557Y46041D01*
X369272Y46542D01*
X370028Y46979D01*
X370820Y47348D01*
X371640Y47646D01*
X372484Y47872D01*
X373344Y48024D01*
X374213Y48100D01*
X375087Y48100D01*
X375957Y48024D01*
X376816Y47872D01*
X377660Y47646D01*
X378480Y47348D01*
X379272Y46979D01*
X380028Y46542D01*
X380743Y46041D01*
X381412Y45480D01*
X382030Y44862D01*
X382591Y44193D01*
X383092Y43478D01*
X383529Y42722D01*
X383898Y41930D01*
X384196Y41110D01*
X384422Y40266D01*
X384574Y39407D01*
X384650Y38537D01*
X384650Y37663D01*
X384650Y291663D02*
X384574Y290794D01*
X384422Y289934D01*
X384196Y289090D01*
X383898Y288270D01*
X383529Y287478D01*
X383092Y286722D01*
X382591Y286007D01*
X382030Y285338D01*
X381412Y284720D01*
X380743Y284159D01*
X380028Y283658D01*
X379272Y283221D01*
X378480Y282852D01*
X377660Y282554D01*
X376816Y282328D01*
X375957Y282176D01*
X375087Y282100D01*
X374213Y282100D01*
X373344Y282176D01*
X372484Y282328D01*
X371640Y282554D01*
X370820Y282852D01*
X370028Y283221D01*
X369272Y283658D01*
X368557Y284159D01*
X367888Y284720D01*
X367270Y285338D01*
X366709Y286007D01*
X366208Y286722D01*
X365771Y287478D01*
X365402Y288270D01*
X365104Y289090D01*
X364878Y289934D01*
X364726Y290794D01*
X364650Y291663D01*
X364650Y292537D01*
X364726Y293407D01*
X364878Y294266D01*
X365104Y295110D01*
X365402Y295930D01*
X365771Y296722D01*
X366208Y297478D01*
X366709Y298193D01*
X367270Y298862D01*
X367888Y299480D01*
X368557Y300041D01*
X369272Y300542D01*
X370028Y300979D01*
X370820Y301348D01*
X371640Y301646D01*
X372484Y301872D01*
X373344Y302024D01*
X374213Y302100D01*
X375087Y302100D01*
X375957Y302024D01*
X376816Y301872D01*
X377660Y301646D01*
X378480Y301348D01*
X379272Y300979D01*
X380028Y300542D01*
X380743Y300041D01*
X381412Y299480D01*
X382030Y298862D01*
X382591Y298193D01*
X383092Y297478D01*
X383529Y296722D01*
X383898Y295930D01*
X384196Y295110D01*
X384422Y294266D01*
X384574Y293407D01*
X384650Y292537D01*
X384650Y291663D01*
X41750Y291663D02*
X41674Y290794D01*
X41522Y289934D01*
X41296Y289090D01*
X40998Y288270D01*
X40629Y287478D01*
X40192Y286722D01*
X39691Y286007D01*
X39130Y285338D01*
X38512Y284720D01*
X37843Y284159D01*
X37128Y283658D01*
X36372Y283221D01*
X35580Y282852D01*
X34760Y282554D01*
X33916Y282328D01*
X33057Y282176D01*
X32187Y282100D01*
X31313Y282100D01*
X30444Y282176D01*
X29584Y282328D01*
X28740Y282554D01*
X27920Y282852D01*
X27128Y283221D01*
X26372Y283658D01*
X25657Y284159D01*
X24988Y284720D01*
X24370Y285338D01*
X23809Y286007D01*
X23308Y286722D01*
X22871Y287478D01*
X22502Y288270D01*
X22204Y289090D01*
X21978Y289934D01*
X21826Y290794D01*
X21750Y291663D01*
X21750Y292537D01*
X21826Y293407D01*
X21978Y294266D01*
X22204Y295110D01*
X22502Y295930D01*
X22871Y296722D01*
X23308Y297478D01*
X23809Y298193D01*
X24370Y298862D01*
X24988Y299480D01*
X25657Y300041D01*
X26372Y300542D01*
X27128Y300979D01*
X27920Y301348D01*
X28740Y301646D01*
X29584Y301872D01*
X30444Y302024D01*
X31313Y302100D01*
X32187Y302100D01*
X33057Y302024D01*
X33916Y301872D01*
X34760Y301646D01*
X35580Y301348D01*
X36372Y300979D01*
X37128Y300542D01*
X37843Y300041D01*
X38512Y299480D01*
X39130Y298862D01*
X39691Y298193D01*
X40192Y297478D01*
X40629Y296722D01*
X40998Y295930D01*
X41296Y295110D01*
X41522Y294266D01*
X41674Y293407D01*
X41750Y292537D01*
X41750Y291663D01*
M02*
