G04 EAGLE Gerber RS-274X export*
G75*
%MOMM*%
%FSLAX34Y34*%
%LPD*%
%INSoldermask Bottom*%
%IPPOS*%
%AMOC8*
5,1,8,0,0,1.08239X$1,22.5*%
G01*
G04 Define Apertures*
%ADD10C,2.203200*%
%ADD11C,1.727200*%
%ADD12C,2.743200*%
%ADD13C,2.133600*%
D10*
X31750Y38100D03*
X374650Y38100D03*
X374650Y292100D03*
X31750Y292100D03*
D11*
X82550Y248920D02*
X82550Y233680D01*
X107950Y233680D02*
X107950Y248920D01*
X133350Y248920D02*
X133350Y233680D01*
X158750Y233680D02*
X158750Y248920D01*
X184150Y248920D02*
X184150Y233680D01*
X209550Y233680D02*
X209550Y248920D01*
X234950Y248920D02*
X234950Y233680D01*
X260350Y233680D02*
X260350Y248920D01*
X285750Y248920D02*
X285750Y233680D01*
X311150Y233680D02*
X311150Y248920D01*
X336550Y248920D02*
X336550Y233680D01*
X82550Y45720D02*
X82550Y30480D01*
X107950Y30480D02*
X107950Y45720D01*
X133350Y45720D02*
X133350Y30480D01*
X158750Y30480D02*
X158750Y45720D01*
X184150Y45720D02*
X184150Y30480D01*
X209550Y30480D02*
X209550Y45720D01*
X234950Y45720D02*
X234950Y30480D01*
X260350Y30480D02*
X260350Y45720D01*
X285750Y45720D02*
X285750Y30480D01*
X311150Y30480D02*
X311150Y45720D01*
X336550Y45720D02*
X336550Y30480D01*
D12*
X323850Y311150D03*
X273050Y311150D03*
X222250Y311150D03*
X101600Y311150D03*
X152400Y311150D03*
D13*
X38262Y230888D03*
X38262Y129288D03*
M02*
