M48
;GenerationSoftware,Autodesk,EAGLE,9.7.0*%
;CreationDate,2022-04-18T17:10:13Z*%
FMAT,2
ICI,OFF
METRIC,TZ,000.000
T5C1.016
T4C1.118
T3C1.200
T2C2.000
%
G90
M71
T2
X3175Y3810
X37465Y3810
X37465Y29210
X3175Y29210
T3
X26670Y3810
X31750Y3810
X13970Y3810
X8890Y3810
X21590Y3810
T4
X3734Y12929
X3734Y23089
T5
X7620Y10795
X10160Y10795
X12700Y10795
X15240Y10795
X17780Y10795
X20320Y10795
X22860Y10795
X15240Y31306
X17780Y31306
X20320Y31306
X22860Y31306
X25400Y31306
X27940Y31306
X30480Y31306
X33020Y31306
X7620Y31306
X33020Y10795
X30480Y10795
X27940Y10795
X25400Y10795
X12700Y31306
X10160Y31306
M30